<svg width="12" height="12" viewBox="0 0 12 12" fill="none" xmlns="http://www.w3.org/2000/svg">
<g clip-path="url(#clip0_19836_380552)">
<path fill-rule="evenodd" clip-rule="evenodd" d="M3.50014 1C3.50014 0.723858 3.27628 0.5 3.00014 0.5C2.72399 0.5 2.50014 0.723858 2.50014 1V1.51919C2.10792 1.54314 1.82966 1.59697 1.59216 1.71799C1.21583 1.90974 0.909871 2.2157 0.718124 2.59202C0.500137 3.01984 0.500137 3.5799 0.500137 4.7L0.500137 7.8C0.500137 8.9201 0.500137 9.48016 0.718124 9.90798C0.909871 10.2843 1.21583 10.5903 1.59216 10.782C2.01998 11 2.58003 11 3.70014 11L8.30014 11C9.42024 11 9.9803 11 10.4081 10.782C10.7844 10.5903 11.0904 10.2843 11.2822 9.90798C11.5001 9.48016 11.5001 8.9201 11.5001 7.8L11.5001 4.7C11.5001 3.5799 11.5001 3.01984 11.2822 2.59202C11.0904 2.2157 10.7844 1.90973 10.4081 1.71799C10.1706 1.59697 9.89235 1.54314 9.50014 1.51919V1C9.50014 0.723858 9.27628 0.5 9.00014 0.5C8.724 0.5 8.50014 0.723858 8.50014 1V1.50005L8.30014 1.5L3.70014 1.5L3.50014 1.50005V1ZM2.99999 4.5L8.99999 4.5C9.27614 4.5 9.49999 4.27614 9.49999 4C9.49999 3.72386 9.27614 3.5 8.99999 3.5L2.99999 3.5C2.72385 3.5 2.49999 3.72386 2.49999 4C2.49999 4.27614 2.72385 4.5 2.99999 4.5Z" fill="#242629"/>
</g>
<defs>
<clipPath id="clip0_19836_380552">
<rect width="12" height="12" fill="white"/>
</clipPath>
</defs>
</svg>
