<svg width="12" height="12" viewBox="0 0 12 12" fill="none" xmlns="http://www.w3.org/2000/svg">
<path d="M1.7116 10.773L2.23996 10.456L2.23998 10.456C2.52286 10.2863 2.66431 10.2014 2.8153 10.1414C2.94935 10.0881 3.08877 10.0495 3.23113 10.0262C3.39149 10 3.55644 10 3.88635 10H8.3C9.4201 10 9.98016 10 10.408 9.78201C10.7843 9.59027 11.0903 9.28431 11.282 8.90798C11.5 8.48016 11.5 7.9201 11.5 6.8V4.7C11.5 3.5799 11.5 3.01984 11.282 2.59202C11.0903 2.21569 10.7843 1.90973 10.408 1.71799C9.98016 1.5 9.4201 1.5 8.3 1.5H3.7C2.5799 1.5 2.01984 1.5 1.59202 1.71799C1.21569 1.90973 0.909734 2.21569 0.717987 2.59202C0.5 3.01984 0.5 3.5799 0.5 4.7V10.087C0.5 10.5495 0.5 10.7808 0.59698 10.9128C0.681543 11.028 0.811334 11.1015 0.953594 11.1147C1.11674 11.13 1.31503 11.011 1.7116 10.773Z" fill="#242629"/>
</svg>
