<svg width="12" height="12" viewBox="0 0 12 12" fill="none" xmlns="http://www.w3.org/2000/svg">
<g clip-path="url(#clip0_24297_234262)">
<rect width="12" height="12" rx="3" fill="#266DF0"/>
<path d="M7.5 2.5C8.32843 2.5 9 3.17157 9 4V8C9 8.82843 8.32843 9.5 7.5 9.5H4.5C3.67157 9.5 3 8.82843 3 8V4C3 3.17157 3.67157 2.5 4.5 2.5H7.5ZM5.5 6.5C5.22386 6.5 5 6.72386 5 7V8C5 8.27614 5.22386 8.5 5.5 8.5H6.5C6.77614 8.5 7 8.27614 7 8V7C7 6.72386 6.77614 6.5 6.5 6.5H5.5ZM4.875 4.75C4.66789 4.75 4.5 4.91789 4.5 5.125C4.5 5.33211 4.66789 5.5 4.875 5.5H7.125C7.33211 5.5 7.5 5.33211 7.5 5.125C7.5 4.91789 7.33211 4.75 7.125 4.75H4.875ZM4.875 3.5C4.66789 3.5 4.5 3.66789 4.5 3.875C4.5 4.08211 4.66789 4.25 4.875 4.25H7.125C7.33211 4.25 7.5 4.08211 7.5 3.875C7.5 3.66789 7.33211 3.5 7.125 3.5H4.875Z" fill="white"/>
</g>
<defs>
<clipPath id="clip0_24297_234262">
<rect width="12" height="12" fill="white"/>
</clipPath>
</defs>
</svg>
