<svg width="12" height="12" viewBox="0 0 12 12" fill="none" xmlns="http://www.w3.org/2000/svg">
<path fill-rule="evenodd" clip-rule="evenodd" d="M1.21799 2.09202C1 2.51984 1 3.0799 1 4.2V7.8C1 8.9201 1 9.48016 1.21799 9.90798C1.40973 10.2843 1.71569 10.5903 2.09202 10.782C2.51984 11 3.0799 11 4.2 11H7.8C8.9201 11 9.48016 11 9.90798 10.782C10.2843 10.5903 10.5903 10.2843 10.782 9.90798C11 9.48016 11 8.9201 11 7.8V4.2C11 3.0799 11 2.51984 10.782 2.09202C10.5903 1.71569 10.2843 1.40973 9.90798 1.21799C9.48016 1 8.9201 1 7.8 1H4.2C3.0799 1 2.51984 1 2.09202 1.21799C1.71569 1.40973 1.40973 1.71569 1.21799 2.09202ZM4.10899 4.54284C4 4.75675 4 5.03677 4 5.59683V6.39683C4 6.95688 4 7.23691 4.10899 7.45082C4.20487 7.63898 4.35785 7.79196 4.54601 7.88783C4.75992 7.99683 5.03995 7.99683 5.6 7.99683H6.4C6.96005 7.99683 7.24008 7.99683 7.45399 7.88783C7.64215 7.79196 7.79513 7.63898 7.89101 7.45082C8 7.23691 8 6.95688 8 6.39683V5.59683C8 5.03677 8 4.75675 7.89101 4.54284C7.79513 4.35467 7.64215 4.20169 7.45399 4.10582C7.24008 3.99683 6.96005 3.99683 6.4 3.99683H5.6C5.03995 3.99683 4.75992 3.99683 4.54601 4.10582C4.35785 4.20169 4.20487 4.35467 4.10899 4.54284Z" fill="#242629"/>
</svg>
