<svg width="12" height="12" viewBox="0 0 12 12" fill="none" xmlns="http://www.w3.org/2000/svg">
<path fill-rule="evenodd" clip-rule="evenodd" d="M6.72663 1.02179C7.67231 1.3543 8.58953 1.67681 9.81808 1.41067C10.2914 1.30812 10.5281 1.25685 10.6582 1.30022C10.7866 1.34304 10.861 1.4031 10.9301 1.51952C11 1.63744 11 1.84343 11 2.25541V7.477C11 7.84392 11 8.02738 10.9237 8.21131C10.8653 8.35216 10.7291 8.52946 10.608 8.62217C10.4499 8.74324 10.3129 8.77977 10.0388 8.85283C8.69766 9.21029 7.72813 8.86939 6.7267 8.51727C5.46835 8.07481 4.15963 7.61464 2 8.5V11C2 11.2761 1.77614 11.5 1.5 11.5C1.22386 11.5 1 11.2761 1 11V1C1 0.723858 1.22386 0.5 1.5 0.5C1.77614 0.5 2 0.723858 2 1V1.00445C4.15959 0.119178 5.46831 0.579341 6.72663 1.02179Z" fill="#242629"/>
</svg>
