<svg width="12" height="12" viewBox="0 0 12 12" fill="none" xmlns="http://www.w3.org/2000/svg">
<path d="M0.5 4.2L0.5 7.3C0.5 8.4201 0.5 8.98016 0.717987 9.40798C0.909734 9.78431 1.21569 10.0903 1.59202 10.282C2.01984 10.5 2.57989 10.5 3.7 10.5L8.3 10.5C9.4201 10.5 9.98016 10.5 10.408 10.282C10.7843 10.0903 11.0903 9.78431 11.282 9.40798C11.5 8.98016 11.5 8.4201 11.5 7.3L11.5 5.62857C11.5 4.50847 11.5 3.94841 11.282 3.52059C11.0903 3.14427 10.7843 2.83831 10.408 2.64656C9.98016 2.42857 9.4201 2.42857 8.3 2.42857L6.77509 2.42857C6.51953 2.42857 6.39176 2.42857 6.27215 2.39862C6.16612 2.37207 6.06517 2.32832 5.9733 2.26911C5.86966 2.20231 5.78229 2.10907 5.60756 1.92259L5.60756 1.92259L5.21718 1.50598C5.04244 1.3195 4.95507 1.22626 4.85143 1.15946C4.75956 1.10025 4.65861 1.0565 4.55259 1.02995C4.43298 1 4.3052 1 4.04965 1L3.7 1C2.57989 1 2.01984 1 1.59202 1.21799C1.21569 1.40973 0.909734 1.71569 0.717987 2.09202C0.5 2.51984 0.5 3.07989 0.5 4.2Z" fill="#242629"/>
</svg>
