<svg width="12" height="12" viewBox="0 0 12 12" fill="none" xmlns="http://www.w3.org/2000/svg">
<path fill-rule="evenodd" clip-rule="evenodd" d="M1.50006 8.29997L1.50003 3.70002L1.50003 3.69999C1.50003 2.5799 1.50003 2.01985 1.71801 1.59202C1.90976 1.2157 2.21572 0.909735 2.59204 0.717988C3.01987 0.5 3.57992 0.5 4.70002 0.5L5.78844 0.5C6.4195 0.5 6.73503 0.5 7.03085 0.573206C7.29308 0.6381 7.54306 0.745066 7.77106 0.889944C8.02827 1.05338 8.24613 1.28162 8.68187 1.73811L9.39346 2.48359L9.39346 2.48359C9.80224 2.91184 10.0066 3.12596 10.1526 3.37312C10.2821 3.59229 10.3773 3.82994 10.435 4.07786C10.5 4.35744 10.5 4.65345 10.5 5.24548L10.5 8.3C10.5 9.42011 10.5 9.98016 10.282 10.408C10.0903 10.7843 9.78433 11.0903 9.40801 11.282C8.98019 11.5 8.42013 11.5 7.30003 11.5L4.70007 11.5C3.57996 11.5 3.01991 11.5 2.59208 11.282C2.21576 11.0903 1.9098 10.7843 1.71805 10.408C1.50006 9.98016 1.50006 9.4201 1.50006 8.29997ZM7.50001 2.25C7.50001 1.97386 7.27615 1.75 7.00001 1.75C6.72386 1.75 6.50001 1.97386 6.50001 2.25V2.81L6.50001 2.82885C6.5 3.06476 6.49999 3.2712 6.51393 3.44183C6.52872 3.62283 6.56165 3.80709 6.6526 3.98559C6.78682 4.24901 7.00099 4.46319 7.26442 4.59741C7.44291 4.68836 7.62718 4.72129 7.80817 4.73608C7.9788 4.75002 8.18525 4.75001 8.42116 4.75L8.44001 4.75H9.00001C9.27615 4.75 9.50001 4.52614 9.50001 4.25C9.50001 3.97386 9.27615 3.75 9.00001 3.75H8.44001C8.17973 3.75 8.0146 3.74961 7.8896 3.7394C7.77045 3.72966 7.73244 3.71355 7.71841 3.7064C7.64315 3.66805 7.58195 3.60686 7.5436 3.5316C7.53646 3.51757 7.52034 3.47956 7.51061 3.3604C7.5004 3.23541 7.50001 3.07027 7.50001 2.81V2.25Z" fill="#242629"/>
</svg>
