<svg width="12" height="12" viewBox="0 0 12 12" fill="none" xmlns="http://www.w3.org/2000/svg">
<rect width="12" height="12" rx="3.5" fill="#F8F9FA"/>
<rect x="0.5" y="0.5" width="11" height="11" rx="3" stroke="black" stroke-opacity="0.04"/>
<path fill-rule="evenodd" clip-rule="evenodd" d="M5.26449 1.91367C5.72112 1.65681 6.27867 1.65681 6.7353 1.91366L9.23541 3.31997C9.7077 3.58563 10 4.08544 10 4.62732C10.0001 5.57401 10.0001 6.39768 10 7.34171C10 7.90004 9.69229 8.41473 9.20487 8.68703C8.46497 9.10038 7.42884 9.68774 6.7371 10.0808C6.27893 10.3411 5.71889 10.3421 5.2596 10.0838L2.76445 8.68018C2.29214 8.4145 1.99985 7.91472 1.99985 7.37281L1.99987 4.6273C1.99988 4.08539 2.29217 3.58561 2.76449 3.31993L5.26449 1.91367ZM6.00005 2.88266C6.00005 2.7287 6.16672 2.63248 6.30005 2.70946L8.74999 4.12393C8.90469 4.21325 8.99999 4.37831 8.99999 4.55695L8.99999 7.36985C8.99999 7.52341 8.83409 7.61969 8.70076 7.5435L6.25187 6.14413C6.09607 6.05511 5.99993 5.88942 5.99993 5.70999L6.00005 2.88266Z" fill="#9FA1A7"/>
</svg>
