<svg width="12" height="12" viewBox="0 0 12 12" fill="none" xmlns="http://www.w3.org/2000/svg">
<g clip-path="url(#clip0_24297_234271)">
<path d="M7.2002 0C8.88022 4.93112e-10 9.72059 0.000180683 10.3623 0.327148C10.9265 0.614723 11.3853 1.07347 11.6729 1.6377C11.9998 2.27941 12 3.11978 12 4.7998V7.2002C12 8.88022 11.9998 9.72059 11.6729 10.3623C11.3853 10.9265 10.9265 11.3853 10.3623 11.6729C9.72059 11.9998 8.88022 12 7.2002 12H4.7998C3.11978 12 2.27941 11.9998 1.6377 11.6729C1.07347 11.3853 0.614723 10.9265 0.327148 10.3623C0.00018066 9.72059 4.91312e-10 8.88022 0 7.2002V4.7998C4.93112e-10 3.11978 0.000180683 2.27941 0.327148 1.6377C0.614723 1.07347 1.07347 0.614723 1.6377 0.327148C2.27941 0.00018066 3.11978 4.91312e-10 4.7998 0H7.2002ZM4.79004 6.49707C4.01125 6.49722 3.31052 6.97117 3.02148 7.69434C2.77183 8.31958 3.23209 8.99971 3.90527 9H8.09375C8.76722 9 9.22834 8.31975 8.97852 7.69434C8.68952 6.97109 7.9888 6.49722 7.20996 6.49707H4.79004ZM6 2.75C5.17174 2.7502 4.5 3.4217 4.5 4.25C4.5 5.0783 5.17174 5.7498 6 5.75C6.82826 5.7498 7.5 5.07831 7.5 4.25C7.5 3.42169 6.82826 2.7502 6 2.75Z" fill="#266DF0"/>
</g>
<defs>
<clipPath id="clip0_24297_234271">
<rect width="12" height="12" fill="white"/>
</clipPath>
</defs>
</svg>
