<svg width="12" height="12" viewBox="0 0 12 12" fill="none" xmlns="http://www.w3.org/2000/svg">
<path fill-rule="evenodd" clip-rule="evenodd" d="M1.27248 2.36502C1 2.8998 1 3.59987 1 5L1 6L1 7C1 8.40013 1 9.1002 1.27248 9.63498C1.51217 10.1054 1.89462 10.4878 2.36502 10.7275C2.8998 11 3.59987 11 5 11H6L7 11C8.40013 11 9.1002 11 9.63498 10.7275C10.1054 10.4878 10.4878 10.1054 10.7275 9.63498C11 9.1002 11 8.40013 11 7L11 6V5C11 3.59987 11 2.8998 10.7275 2.36502C10.4878 1.89462 10.1054 1.51217 9.63498 1.27248C9.1002 1 8.40013 1 7 1H6L5 1C3.59987 1 2.8998 1 2.36502 1.27248C1.89462 1.51217 1.51217 1.89462 1.27248 2.36502ZM6.5 4C6.5 3.72386 6.27614 3.5 6 3.5C5.72386 3.5 5.5 3.72386 5.5 4V5.5H4C3.72386 5.5 3.5 5.72386 3.5 6C3.5 6.27614 3.72386 6.5 4 6.5H5.5V8C5.5 8.27614 5.72386 8.5 6 8.5C6.27614 8.5 6.5 8.27614 6.5 8V6.5H8C8.27614 6.5 8.5 6.27614 8.5 6C8.5 5.72386 8.27614 5.5 8 5.5H6.5V4Z" fill="#242629"/>
</svg>
