<svg width="12" height="12" viewBox="0 0 12 12" fill="none" xmlns="http://www.w3.org/2000/svg">
<g clip-path="url(#clip0_19836_380584)">
<path fill-rule="evenodd" clip-rule="evenodd" d="M8.99193 0.702549L9.15375 1.59257C9.36454 2.75195 10.2346 3.68055 11.3778 3.96635L11.5597 4.01184C12.0647 4.13808 12.0647 4.85573 11.5597 4.98198L11.3778 5.02747C10.2346 5.31327 9.36454 6.24186 9.15375 7.40124L8.99193 8.29126C8.8924 8.83867 8.10758 8.83867 8.00806 8.29127L7.84623 7.40124C7.63544 6.24187 6.76543 5.31327 5.62223 5.02747L5.44028 4.98198C4.9353 4.85573 4.9353 4.13808 5.44028 4.01184L5.62223 3.96635C6.76543 3.68055 7.63544 2.75195 7.84623 1.59258L8.00806 0.70255C8.10758 0.155141 8.8924 0.155139 8.99193 0.702549ZM3.91715 6.26498L3.97956 6.52903C4.17455 7.35397 4.83552 7.98768 5.66795 8.14776C6.05597 8.22238 6.05597 8.77778 5.66795 8.8524C4.83552 9.01248 4.17455 9.64619 3.97956 10.4711L3.91715 10.7352C3.81313 11.1753 3.18685 11.1753 3.08283 10.7352L3.02042 10.4711C2.82543 9.64619 2.16446 9.01248 1.33203 8.8524C0.94401 8.77778 0.944009 8.22238 1.33203 8.14776C2.16446 7.98768 2.82543 7.35397 3.02042 6.52903L3.08283 6.26498C3.18685 5.82491 3.81313 5.82491 3.91715 6.26498Z" fill="#242629"/>
</g>
<defs>
<clipPath id="clip0_19836_380584">
<rect width="12" height="12" fill="white"/>
</clipPath>
</defs>
</svg>
