<svg width="12" height="12" viewBox="0 0 12 12" fill="none" xmlns="http://www.w3.org/2000/svg">
<g clip-path="url(#clip0_19836_380570)">
<rect width="12" height="12" rx="6" fill="#F8F9FA"/>
<path fill-rule="evenodd" clip-rule="evenodd" d="M6 7C7.38071 7 8.5 5.88071 8.5 4.5C8.5 3.11929 7.38071 2 6 2C4.61929 2 3.5 3.11929 3.5 4.5C3.5 5.88071 4.61929 7 6 7ZM4.18382 8.01732C4.32949 8 4.50277 8 4.84932 8H7.15068C7.49723 8 7.67051 8 7.81618 8.01732C8.95207 8.15238 9.84762 9.04793 9.98268 10.1838C10 10.3295 10 10.5028 10 10.8493C10 10.9893 10 11.0592 9.99301 11.1181C9.93846 11.5768 9.5768 11.9385 9.11807 11.993C9.05924 12 8.98927 12 8.84932 12H3.15069C3.01073 12 2.94076 12 2.88193 11.993C2.4232 11.9385 2.06154 11.5768 2.00699 11.1181C2 11.0592 2 10.9893 2 10.8493C2 10.5028 2 10.3295 2.01732 10.1838C2.15238 9.04793 3.04793 8.15238 4.18382 8.01732Z" fill="black" fill-opacity="0.4"/>
</g>
<rect x="0.5" y="0.5" width="11" height="11" rx="5.5" stroke="black" stroke-opacity="0.04"/>
<defs>
<clipPath id="clip0_19836_380570">
<rect width="12" height="12" rx="6" fill="white"/>
</clipPath>
</defs>
</svg>
