<svg width="12" height="12" viewBox="0 0 12 12" fill="none" xmlns="http://www.w3.org/2000/svg">
<g clip-path="url(#clip0_20456_10566)">
<path d="M6 8.99854C7.65685 8.99854 9 7.65539 9 5.99853C9 4.34168 7.65685 2.99854 6 2.99854C4.34315 2.99854 3 4.34168 3 5.99853C3 7.65539 4.34315 8.99854 6 8.99854Z" fill="white"/>
<path d="M6 3.00001H11.1953C10.6688 2.08786 9.91152 1.33039 8.99946 0.803762C8.08741 0.277139 7.05277 -7.34676e-05 5.9996 1.4605e-08C4.94643 7.34968e-05 3.91183 0.27743 2.99985 0.804181C2.08787 1.33093 1.33065 2.08851 0.804321 3.00074L3.40197 7.50001L3.4043 7.49941C3.14005 7.04373 3.0006 6.52643 3.00001 5.99968C2.99941 5.47292 3.1377 4.95531 3.40092 4.49904C3.66415 4.04276 4.04301 3.66394 4.49931 3.40077C4.95562 3.13759 5.47324 2.99936 6 3.00001Z" fill="url(#paint0_linear_20456_10566)"/>
<path d="M6 8.375C7.31168 8.375 8.375 7.31168 8.375 6C8.375 4.68832 7.31168 3.625 6 3.625C4.68832 3.625 3.625 4.68832 3.625 6C3.625 7.31168 4.68832 8.375 6 8.375Z" fill="#1A73E8"/>
<path d="M8.59784 7.50068L6.00019 12C7.05336 12.0001 8.08801 11.723 9.0001 11.1964C9.91219 10.6698 10.6696 9.91244 11.1961 9.00033C11.7226 8.08821 11.9997 7.05356 11.9995 6.00039C11.9993 4.94721 11.7219 3.91266 11.195 3.00073H5.99974L5.99911 3.00306C6.52587 3.00204 7.04359 3.13991 7.50008 3.40278C7.95656 3.66564 8.33568 4.0442 8.59922 4.5003C8.86275 4.9564 9.00138 5.47392 9.00114 6.00068C9.0009 6.52744 8.86179 7.04483 8.59784 7.50068Z" fill="url(#paint1_linear_20456_10566)"/>
<path d="M3.40216 7.50074L0.804507 3.00146C0.277788 3.91346 0.000466499 4.94807 0.00042725 6.00124C0.000388002 7.05442 0.277632 8.08904 0.804283 9.00108C1.33093 9.91312 2.08843 10.6704 3.0006 11.1968C3.91277 11.7233 4.94746 12.0003 6.00063 12L8.59828 7.50069L8.59661 7.49899C8.3341 7.95568 7.95583 8.33509 7.49994 8.59899C7.04405 8.86288 6.52665 9.00192 5.99989 9.0021C5.47313 9.00228 4.95563 8.86358 4.49956 8.6C4.04349 8.33641 3.66497 7.95725 3.40216 7.50074Z" fill="url(#paint2_linear_20456_10566)"/>
</g>
<defs>
<linearGradient id="paint0_linear_20456_10566" x1="0.804321" y1="3.75001" x2="11.1953" y2="3.75001" gradientUnits="userSpaceOnUse">
<stop stop-color="#D93025"/>
<stop offset="1" stop-color="#EA4335"/>
</linearGradient>
<linearGradient id="paint1_linear_20456_10566" x1="5.18049" y1="11.9197" x2="10.376" y2="2.92088" gradientUnits="userSpaceOnUse">
<stop stop-color="#FCC934"/>
<stop offset="1" stop-color="#FBBC04"/>
</linearGradient>
<linearGradient id="paint2_linear_20456_10566" x1="6.64953" y1="11.6253" x2="1.45403" y2="2.62647" gradientUnits="userSpaceOnUse">
<stop stop-color="#1E8E3E"/>
<stop offset="1" stop-color="#34A853"/>
</linearGradient>
<clipPath id="clip0_20456_10566">
<rect width="12" height="12" fill="white"/>
</clipPath>
</defs>
</svg>
