<svg width="12" height="12" viewBox="0 0 12 12" fill="none" xmlns="http://www.w3.org/2000/svg">
<path d="M11.9999 6.135C11.9999 5.74 11.9641 5.365 11.9028 5H6.13037V7.25499H9.43549C9.28735 7.99499 8.85314 8.61999 8.20948 9.04499V10.545H10.1813C11.3358 9.49998 11.9999 7.95999 11.9999 6.135Z" fill="#4285F4"/>
<path d="M6.13025 12C7.78536 12 9.16973 11.46 10.1812 10.545L8.20936 9.04501C7.65765 9.40501 6.95781 9.62501 6.13025 9.62501C4.53133 9.62501 3.17761 8.57001 2.69231 7.14502H0.65918V8.69001C1.66553 10.65 3.73442 12 6.13025 12Z" fill="#34A853"/>
<path d="M2.69235 7.14505C2.56464 6.78505 2.49823 6.40005 2.49823 6.00005C2.49823 5.60005 2.56975 5.21505 2.69235 4.85505V3.31006H0.659215C0.225884 4.14332 0 5.06506 0 6.00005C0 6.93504 0.225884 7.85678 0.659215 8.69004L2.69235 7.14505Z" fill="#FBBC05"/>
<path d="M6.13025 2.37499C7.03443 2.37499 7.84155 2.67999 8.4801 3.27499L10.2272 1.56499C9.16973 0.594998 7.78536 0 6.13025 0C3.73442 0 1.66553 1.35 0.65918 3.30999L2.69231 4.85498C3.17761 3.42999 4.53133 2.37499 6.13025 2.37499Z" fill="#EA4335"/>
</svg>
