<svg width="15" height="15" viewBox="0 0 15 15" fill="none" xmlns="http://www.w3.org/2000/svg">
<g opacity="0.53" filter="url(#filter0_f_20456_10574)">
<path d="M13.0933 7.07279C13.0933 7.80023 12.9438 8.52054 12.6533 9.19261C12.3629 9.86467 11.9371 10.4753 11.4004 10.9897C10.8637 11.5041 10.2265 11.9121 9.52525 12.1905C8.82399 12.4689 8.07239 12.6121 7.31335 12.6121C6.55432 12.6121 5.80272 12.4689 5.10146 12.1905C4.40021 11.9121 3.76303 11.5041 3.22631 10.9897C2.68959 10.4753 2.26384 9.86467 1.97337 9.19261C1.6829 8.52054 1.5334 7.80023 1.5334 7.07279C1.5334 5.60367 2.14236 4.19471 3.22631 3.15588C4.31026 2.11706 5.78042 1.53345 7.31335 1.53345C8.07239 1.53345 8.82399 1.67673 9.52525 1.9551C10.2265 2.23348 10.8637 2.64151 11.4004 3.15588C11.9371 3.67026 12.3629 4.28091 12.6533 4.95298C12.9438 5.62504 13.0933 6.34535 13.0933 7.07279Z" fill="black"/>
</g>
<path d="M13.3131 6.58384C13.3131 7.36803 13.1579 8.14454 12.8563 8.86904C12.5548 9.59354 12.1129 10.2518 11.5557 10.8063C10.9986 11.3609 10.3371 11.8007 9.60916 12.1008C8.88121 12.4009 8.10099 12.5554 7.31306 12.5554C5.72176 12.5554 4.19564 11.9262 3.07042 10.8063C1.9452 9.68647 1.31306 8.16759 1.31306 6.58384C1.31306 5.00009 1.9452 3.48121 3.07042 2.36133C4.19564 1.24145 5.72176 0.612305 7.31306 0.612305C8.10099 0.612305 8.88121 0.766763 9.60916 1.06686C10.3371 1.36696 10.9986 1.80682 11.5557 2.36133C12.1129 2.91584 12.5548 3.57413 12.8563 4.29863C13.1579 5.02313 13.3131 5.79964 13.3131 6.58384Z" fill="url(#paint0_linear_20456_10574)"/>
<path d="M12.8429 6.58393C12.8429 8.04358 12.2603 9.44344 11.2233 10.4756C10.1862 11.5077 8.77967 12.0875 7.31307 12.0875C5.84646 12.0875 4.43992 11.5077 3.40287 10.4756C2.36583 9.44344 1.78322 8.04358 1.78322 6.58393C1.78322 5.12428 2.36583 3.72442 3.40287 2.69229C4.43992 1.66016 5.84646 1.08032 7.31307 1.08032C8.77967 1.08032 10.1862 1.66016 11.2233 2.69229C12.2603 3.72442 12.8429 5.12428 12.8429 6.58393Z" fill="url(#paint1_radial_20456_10574)"/>
<path d="M7.31305 1.36719C7.26838 1.36719 7.23242 1.40297 7.23242 1.44743V2.37297C7.23242 2.41743 7.26838 2.45321 7.31305 2.45321C7.35771 2.45321 7.39367 2.41743 7.39367 2.37297V1.44743C7.39367 1.40297 7.35771 1.36719 7.31305 1.36719ZM6.78561 1.40036C6.78027 1.39979 6.77477 1.39979 6.76922 1.40043C6.72479 1.40504 6.69276 1.44435 6.6974 1.48857L6.73804 1.87577C6.74267 1.91999 6.78217 1.95187 6.82659 1.94725C6.87102 1.94264 6.90305 1.90333 6.89841 1.85912L6.85781 1.47191C6.85375 1.43322 6.823 1.40398 6.78561 1.40036ZM7.84417 1.40075C7.80679 1.40433 7.77603 1.43357 7.77193 1.47226L7.73102 1.85943C7.72634 1.90364 7.75838 1.94299 7.8028 1.94764C7.84722 1.95229 7.88672 1.92044 7.89139 1.87623L7.93231 1.48902C7.93698 1.44481 7.90495 1.4055 7.86053 1.40085C7.85497 1.40028 7.84952 1.40027 7.84417 1.40075ZM6.2438 1.47856C6.23844 1.4786 6.23298 1.47913 6.22752 1.48028C6.18383 1.48948 6.15609 1.53192 6.16534 1.57541L6.35794 2.48087C6.36719 2.52436 6.40982 2.55196 6.45352 2.54275C6.49722 2.53354 6.52495 2.49114 6.5157 2.44765L6.32311 1.54216C6.31501 1.50411 6.28136 1.47827 6.2438 1.47856ZM8.38594 1.47932C8.34839 1.47894 8.31473 1.50486 8.30661 1.5429L8.11335 2.44826C8.10406 2.49174 8.13178 2.53418 8.17546 2.54342C8.21916 2.55267 8.2618 2.52508 8.27108 2.4816L8.46434 1.57625C8.47363 1.53277 8.44591 1.49032 8.40223 1.48109C8.39677 1.47994 8.39131 1.47932 8.38594 1.47932ZM5.72674 1.62366C5.7163 1.62271 5.70552 1.62385 5.6949 1.62736C5.65242 1.64111 5.62932 1.68617 5.64312 1.72845L5.764 2.09872C5.77781 2.141 5.82313 2.16399 5.86561 2.15025C5.90809 2.13651 5.93115 2.09141 5.91735 2.04913L5.79647 1.67886C5.78613 1.64715 5.75805 1.62631 5.72674 1.62366ZM8.90009 1.62385C8.86878 1.6265 8.84071 1.64735 8.83036 1.67905L8.70941 2.04929C8.6956 2.09157 8.71868 2.13667 8.76115 2.15042C8.80363 2.16416 8.84894 2.14119 8.86275 2.09892L8.9837 1.72865C8.99751 1.68637 8.97443 1.64127 8.93196 1.62753C8.92135 1.62409 8.91053 1.62298 8.90009 1.62385ZM5.21541 1.80989C5.20493 1.81008 5.19433 1.81237 5.18413 1.81689C5.14334 1.83494 5.12507 1.88217 5.14321 1.92279L5.52092 2.76854C5.53906 2.80916 5.58651 2.82732 5.62732 2.80927C5.66812 2.79122 5.68642 2.74399 5.66828 2.70337L5.29053 1.85761C5.27693 1.82714 5.24683 1.80928 5.21541 1.80989ZM9.41719 1.81273C9.38577 1.81216 9.35565 1.82991 9.342 1.86035L8.96314 2.70558C8.94494 2.74618 8.96313 2.79344 9.00392 2.81155C9.04471 2.82966 9.0922 2.81156 9.1104 2.77097L9.48925 1.92573C9.50745 1.88513 9.48926 1.83787 9.44847 1.81976C9.43828 1.81524 9.42767 1.81296 9.41719 1.81273ZM4.74079 2.05982C4.72532 2.05868 4.70937 2.06211 4.69486 2.07046C4.65618 2.09269 4.64302 2.14157 4.66535 2.18007L4.86095 2.51723C4.88328 2.55573 4.93239 2.56883 4.97107 2.5466C5.00975 2.52437 5.02291 2.47549 5.00058 2.43699L4.80499 2.09983C4.79103 2.07576 4.76659 2.06162 4.74079 2.05982ZM9.8853 2.05982C9.8595 2.06154 9.8351 2.07576 9.82114 2.09982L9.62551 2.43699C9.60318 2.47549 9.61638 2.52437 9.65506 2.54659C9.69374 2.56882 9.74285 2.55572 9.76519 2.51723L9.96077 2.18006C9.98311 2.14156 9.96995 2.09268 9.93127 2.07045C9.91677 2.06212 9.90078 2.05875 9.8853 2.05982ZM4.27992 2.34591C4.26441 2.34648 4.24887 2.35143 4.23531 2.36121C4.19916 2.38732 4.19117 2.4373 4.2174 2.47328L4.76346 3.22245C4.78968 3.25843 4.83994 3.26639 4.87609 3.24029C4.91225 3.21419 4.92024 3.16421 4.894 3.12822L4.34791 2.37906C4.33152 2.35657 4.30577 2.34503 4.27992 2.34591ZM10.3519 2.34999C10.3261 2.34903 10.3003 2.36057 10.2839 2.38302L9.73683 3.13147C9.71055 3.16741 9.71848 3.21741 9.7546 3.24357C9.79072 3.26972 9.84096 3.26185 9.86724 3.22591L10.4143 2.47747C10.4406 2.44152 10.4326 2.39152 10.3965 2.36537C10.383 2.35557 10.3675 2.35054 10.3519 2.34999ZM3.86797 2.68975C3.84739 2.6886 3.82639 2.69545 3.80979 2.71032C3.7766 2.74006 3.77393 2.79059 3.80382 2.82363L4.06555 3.11301C4.09543 3.14605 4.14621 3.1487 4.1794 3.11895C4.2126 3.08921 4.21527 3.03865 4.18538 3.00561L3.92368 2.71627C3.90874 2.69974 3.88855 2.69083 3.86797 2.68975ZM10.7587 2.69032C10.7381 2.69146 10.7179 2.70033 10.703 2.71685L10.4413 3.00615C10.4114 3.03919 10.414 3.08975 10.4472 3.1195C10.4804 3.14925 10.5312 3.14658 10.5611 3.11355L10.8229 2.82425C10.8527 2.79121 10.8501 2.74064 10.8169 2.7109C10.8003 2.69603 10.7793 2.68925 10.7587 2.69032ZM3.47314 3.06721C3.45256 3.06835 3.43241 3.07721 3.41747 3.09373C3.38759 3.12677 3.39026 3.1773 3.42345 3.20705L4.1146 3.82628C4.14779 3.85602 4.19857 3.85336 4.22845 3.82033C4.25833 3.78729 4.2557 3.73676 4.22249 3.70702L3.53131 3.08779C3.5147 3.07292 3.49373 3.06613 3.47314 3.06721ZM11.1555 3.06991C11.1349 3.06877 11.1139 3.07559 11.0972 3.09045L10.4057 3.7092C10.3725 3.73892 10.3697 3.78945 10.3996 3.82251C10.4294 3.85557 10.4803 3.85826 10.5135 3.82853L11.2051 3.20979C11.2383 3.18007 11.241 3.12953 11.2111 3.09647C11.1962 3.07995 11.176 3.071 11.1555 3.06991ZM3.14481 3.48739C3.11896 3.48644 3.09319 3.49803 3.07678 3.5205C3.05053 3.55646 3.05849 3.60643 3.09464 3.63256L3.4111 3.8614C3.44724 3.88753 3.49745 3.87965 3.5237 3.84367C3.54996 3.80771 3.54201 3.7577 3.50589 3.73157L3.18942 3.50273C3.17588 3.49294 3.16032 3.48794 3.14481 3.48739ZM11.4835 3.49031C11.468 3.49088 11.4524 3.49582 11.4389 3.50561L11.1223 3.73425C11.0861 3.76035 11.0781 3.81036 11.1043 3.84635C11.1306 3.88233 11.1808 3.89025 11.2169 3.86415L11.5336 3.63552C11.5697 3.60942 11.5777 3.55944 11.5515 3.52346C11.5351 3.50097 11.5093 3.48943 11.4835 3.49031ZM2.83798 3.93559C2.81218 3.93731 2.78777 3.95153 2.77381 3.97559C2.75148 4.01409 2.76464 4.06297 2.80332 4.08519L3.60867 4.54797C3.64735 4.57019 3.69647 4.5571 3.7188 4.5186C3.74114 4.4801 3.72798 4.43122 3.6893 4.40899L2.88394 3.94622C2.86944 3.93789 2.85346 3.93452 2.83798 3.93559ZM11.7881 3.93559C11.7726 3.93445 11.7567 3.93788 11.7422 3.94623L10.9368 4.409C10.8981 4.43123 10.885 4.48011 10.9073 4.51861C10.9296 4.5571 10.9787 4.5702 11.0174 4.54797L11.8228 4.0852C11.8615 4.06297 11.8746 4.01409 11.8523 3.9756C11.8384 3.95153 11.8139 3.93738 11.7881 3.93559ZM2.60599 4.41332C2.57458 4.41256 2.54445 4.43046 2.5308 4.4609C2.5126 4.5015 2.53079 4.54877 2.57158 4.56687L2.92886 4.72548C2.96966 4.74359 3.01715 4.7255 3.03534 4.6849C3.05354 4.6443 3.03532 4.59703 2.99453 4.57893L2.63728 4.42032C2.62709 4.41578 2.61647 4.41353 2.60599 4.41332ZM12.0217 4.41662C12.0112 4.41681 12.0006 4.4191 11.9903 4.42362L11.633 4.58195C11.5922 4.60004 11.5739 4.64727 11.5921 4.68788C11.6103 4.72849 11.6578 4.74665 11.6986 4.72857L12.0559 4.57021C12.0967 4.55213 12.115 4.50488 12.0968 4.46427C12.0832 4.43381 12.0531 4.416 12.0217 4.41662ZM2.39924 4.91264C2.36792 4.91525 2.33985 4.93607 2.32947 4.96777C2.31564 5.01004 2.33866 5.05515 2.38114 5.06893L3.26534 5.35567C3.30781 5.36943 3.35314 5.3465 3.36698 5.30424C3.38081 5.26198 3.35779 5.21686 3.31531 5.20309L2.43111 4.91634C2.4205 4.91289 2.40967 4.91176 2.39924 4.91264ZM12.228 4.91607C12.2176 4.91512 12.2068 4.91626 12.1962 4.91977L11.3118 5.20589C11.2693 5.21963 11.2462 5.26473 11.2601 5.30701C11.2739 5.34929 11.3192 5.37225 11.3617 5.35851L12.246 5.07239C12.2885 5.05864 12.3116 5.01354 12.2978 4.97126C12.2874 4.93956 12.2594 4.91871 12.228 4.91607ZM2.27042 5.43678C2.23286 5.4364 2.19918 5.46235 2.19105 5.50039C2.18176 5.54388 2.20948 5.58632 2.25316 5.59556L2.63581 5.67649C2.6795 5.68574 2.72215 5.65815 2.73143 5.61468C2.74072 5.57119 2.71301 5.52875 2.66932 5.51951L2.28671 5.43858C2.28125 5.43744 2.27579 5.43678 2.27042 5.43678ZM12.3558 5.43754C12.3505 5.43759 12.3451 5.4383 12.3396 5.43926L11.957 5.52016C11.9133 5.5294 11.8856 5.5718 11.8948 5.61529C11.9041 5.65877 11.9468 5.68637 11.9905 5.67714L12.3731 5.59624C12.4168 5.58699 12.4445 5.54456 12.4352 5.50107C12.4271 5.46303 12.3934 5.43723 12.3558 5.43754ZM2.17292 5.964C2.13554 5.96757 2.10476 5.99676 2.10065 6.03544C2.09596 6.07965 2.12791 6.11901 2.17233 6.12368L3.09714 6.22099C3.14156 6.22567 3.18111 6.19383 3.1858 6.14962C3.19049 6.10541 3.1585 6.06605 3.11408 6.06138L2.18928 5.96407C2.18372 5.9635 2.17827 5.96349 2.17292 5.964ZM12.454 5.97092C12.4487 5.97035 12.4432 5.97035 12.4376 5.97099L11.5127 6.06705C11.4683 6.07167 11.4363 6.11097 11.4409 6.15519C11.4455 6.1994 11.485 6.23128 11.5295 6.22667L12.4544 6.1306C12.4988 6.12599 12.5308 6.08668 12.5262 6.04246C12.5221 6.00378 12.4914 5.97454 12.454 5.97092ZM2.15727 6.50368C2.1126 6.50368 2.07664 6.53947 2.07664 6.58392C2.07664 6.62837 2.1126 6.66416 2.15727 6.66416H2.54844C2.59311 6.66416 2.6291 6.62837 2.6291 6.58392C2.6291 6.53947 2.59311 6.50368 2.54844 6.50368H2.15727ZM12.0777 6.50368C12.033 6.50368 11.997 6.53947 11.997 6.58392C11.997 6.62837 12.033 6.66416 12.0777 6.66416H12.4688C12.5135 6.66416 12.5495 6.62837 12.5495 6.58392C12.5495 6.53947 12.5135 6.50368 12.4688 6.50368H12.0777ZM3.11301 6.9411C3.10766 6.94053 3.1022 6.94053 3.09665 6.94117L2.1717 7.03724C2.12728 7.04185 2.09525 7.08116 2.09988 7.12537C2.10452 7.16958 2.14402 7.20147 2.18844 7.19685L3.11339 7.10078C3.15781 7.09617 3.18983 7.05686 3.1852 7.01265C3.18114 6.97396 3.15039 6.94472 3.11301 6.9411ZM11.5126 6.94678C11.4752 6.95035 11.4444 6.97954 11.4403 7.01823C11.4356 7.06243 11.4676 7.1018 11.512 7.10647L12.4368 7.20378C12.4812 7.20845 12.5208 7.17661 12.5255 7.13241C12.5302 7.0882 12.4982 7.04884 12.4538 7.04417L11.529 6.94685C11.5234 6.94628 11.5179 6.94628 11.5126 6.94678ZM2.65196 7.48886C2.6466 7.48891 2.64114 7.48943 2.63568 7.49058L2.25303 7.57147C2.20934 7.58072 2.18164 7.62315 2.19092 7.66664C2.20021 7.71012 2.24285 7.73769 2.28654 7.72845L2.66919 7.64759C2.71288 7.63834 2.74058 7.59591 2.7313 7.55243C2.72318 7.51438 2.68952 7.48855 2.65196 7.48886ZM11.974 7.48962C11.9365 7.48924 11.9028 7.51516 11.8947 7.5532C11.8854 7.59669 11.9131 7.63913 11.9568 7.64837L12.3394 7.7293C12.3831 7.73855 12.4258 7.711 12.435 7.66752C12.4443 7.62404 12.4166 7.58156 12.3729 7.57232L11.9903 7.49139C11.9849 7.49024 11.9794 7.48962 11.974 7.48962ZM3.29631 7.80566C3.28587 7.80471 3.27509 7.80585 3.26447 7.80936L2.38007 8.09548C2.33759 8.10922 2.31452 8.15433 2.32832 8.1966C2.34213 8.23888 2.38745 8.26184 2.42993 8.2481L3.3143 7.96198C3.35678 7.94823 3.37989 7.90313 3.36608 7.86086C3.35572 7.82915 3.32762 7.80831 3.29631 7.80566ZM11.3289 7.8085C11.2976 7.81112 11.2695 7.83194 11.2591 7.86364C11.2453 7.9059 11.2683 7.95102 11.3108 7.96479L12.195 8.25154C12.2375 8.2653 12.2828 8.24237 12.2967 8.20011C12.3105 8.15784 12.2875 8.11272 12.245 8.09895L11.3608 7.81221C11.3502 7.80876 11.3394 7.80763 11.3289 7.8085ZM2.95882 8.43234C2.94835 8.43253 2.93774 8.43478 2.92754 8.4393L2.57016 8.59767C2.52935 8.61574 2.51114 8.66299 2.5293 8.7036C2.54748 8.74421 2.59494 8.76234 2.63574 8.74426L2.99314 8.58593C3.03394 8.56785 3.05215 8.5206 3.03398 8.47999C3.02037 8.44953 2.99024 8.43172 2.95882 8.43234ZM11.666 8.43539C11.6346 8.43463 11.6044 8.45253 11.5908 8.48298C11.5726 8.52358 11.5908 8.57084 11.6316 8.58895L11.9888 8.74755C12.0296 8.76566 12.0771 8.74757 12.0953 8.70697C12.1135 8.66637 12.0953 8.61911 12.0545 8.601L11.6973 8.44239C11.6871 8.43785 11.6765 8.4356 11.666 8.43539ZM3.65464 8.60927C3.63916 8.60813 3.62318 8.61156 3.60867 8.61991L2.80332 9.08268C2.76464 9.10491 2.75148 9.15379 2.77381 9.19229C2.79615 9.23079 2.84526 9.24388 2.88394 9.22166L3.6893 8.75892C3.72798 8.73669 3.74113 8.68778 3.7188 8.64928C3.70484 8.62522 3.68044 8.61107 3.65464 8.60927ZM10.9715 8.60927C10.9457 8.61099 10.9213 8.62521 10.9073 8.64927C10.885 8.68777 10.8981 8.73669 10.9368 8.75891L11.7422 9.22165C11.7808 9.24388 11.83 9.23078 11.8523 9.19228C11.8746 9.15379 11.8615 9.1049 11.8228 9.08268L11.0174 8.61991C11.0029 8.61158 10.987 8.60821 10.9715 8.60927ZM3.45376 9.28838C3.43825 9.28896 3.42271 9.29393 3.40915 9.30373L3.09255 9.53236C3.05639 9.55847 3.0484 9.60845 3.07462 9.64443C3.10085 9.68041 3.15106 9.68837 3.18722 9.66225L3.50386 9.43362C3.54002 9.40752 3.54801 9.35754 3.52179 9.32156C3.50539 9.29907 3.47961 9.2875 3.45376 9.28838ZM11.1704 9.29109C11.1446 9.29014 11.1188 9.30173 11.1024 9.3242C11.0761 9.36016 11.0841 9.41017 11.1202 9.4363L11.4367 9.66514C11.4728 9.69127 11.5231 9.68334 11.5493 9.64737C11.5756 9.61141 11.5676 9.56144 11.5315 9.53531L11.215 9.30647C11.2015 9.29667 11.1859 9.29164 11.1704 9.29109ZM4.17084 9.3188C4.15026 9.31765 4.12927 9.32448 4.11266 9.33933L3.42105 9.95808C3.38784 9.9878 3.38514 10.0383 3.415 10.0714C3.44486 10.1045 3.49563 10.1071 3.52885 10.0774L4.22046 9.45867C4.25367 9.42895 4.25637 9.37842 4.22651 9.34536C4.21159 9.32883 4.19142 9.31989 4.17084 9.3188ZM10.4533 9.32101C10.4328 9.32215 10.4126 9.33101 10.3976 9.34753C10.3678 9.38057 10.3704 9.4311 10.4036 9.46084L11.0948 10.0801C11.128 10.1098 11.1788 10.1072 11.2087 10.0741C11.2385 10.0411 11.2359 9.99056 11.2027 9.96082L10.5115 9.34158C10.4949 9.32672 10.4739 9.31993 10.4533 9.32101ZM4.82695 9.90883C4.8011 9.90788 4.77531 9.91939 4.75889 9.94187L4.21183 10.6903C4.18555 10.7263 4.19346 10.7763 4.22956 10.8024C4.26568 10.8286 4.31592 10.8207 4.3422 10.7847L4.88926 10.0363C4.91553 10.0003 4.90763 9.95035 4.87152 9.9242C4.85798 9.9144 4.84246 9.90936 4.82695 9.90883ZM9.79466 9.91219C9.77914 9.91276 9.76361 9.9177 9.75005 9.92749C9.7139 9.9536 9.7059 10.0036 9.73212 10.0396L10.2782 10.7887C10.3044 10.8247 10.3546 10.8327 10.3908 10.8066C10.4269 10.7805 10.4349 10.7305 10.4087 10.6945L9.86265 9.94534C9.84625 9.92285 9.8205 9.91131 9.79466 9.91219ZM4.12073 10.0278C4.10015 10.0289 4.07997 10.0378 4.06502 10.0543L3.80329 10.3436C3.7734 10.3767 3.77604 10.4272 3.80924 10.457C3.84244 10.4867 3.89321 10.484 3.92309 10.451L4.18486 10.1617C4.21476 10.1287 4.21207 10.0781 4.17889 10.0483C4.16228 10.0335 4.14131 10.0267 4.12073 10.0278ZM10.5049 10.0282C10.4843 10.027 10.4633 10.0339 10.4467 10.0487C10.4135 10.0785 10.4109 10.129 10.4407 10.162L10.7024 10.4514C10.7323 10.4845 10.7831 10.4871 10.8163 10.4574C10.8495 10.4276 10.8522 10.3771 10.8223 10.344L10.5606 10.0547C10.5456 10.0382 10.5255 10.0292 10.5049 10.0282ZM5.59089 10.3491C5.55947 10.3484 5.52938 10.3663 5.51574 10.3967L5.13684 11.2419C5.11864 11.2825 5.13683 11.3298 5.17762 11.3479C5.21841 11.366 5.2659 11.3479 5.2841 11.3073L5.66299 10.4621C5.68119 10.4215 5.663 10.3742 5.62221 10.3561C5.61202 10.3516 5.60137 10.3493 5.59089 10.3491ZM9.03009 10.3514C9.01961 10.3516 9.00897 10.3539 8.99877 10.3584C8.95798 10.3765 8.93971 10.4237 8.95785 10.4643L9.33556 11.3101C9.3537 11.3507 9.40119 11.3688 9.442 11.3508C9.48279 11.3327 9.50106 11.2855 9.48292 11.2449L9.10521 10.3991C9.09161 10.3687 9.06151 10.3508 9.03009 10.3514ZM4.92511 10.6105C4.89931 10.6122 4.8749 10.6264 4.86095 10.6504L4.66535 10.9876C4.64302 11.0261 4.65618 11.075 4.69486 11.0972C4.73354 11.1194 4.78266 11.1064 4.80499 11.0679L5.00058 10.7307C5.02291 10.6922 5.00976 10.6433 4.97107 10.6211C4.95657 10.6128 4.94059 10.6094 4.92511 10.6105ZM9.70099 10.6105C9.68551 10.6093 9.66956 10.6128 9.65506 10.6211C9.61637 10.6433 9.60322 10.6922 9.62555 10.7307L9.82114 11.0679C9.84347 11.1064 9.89259 11.1195 9.93127 11.0972C9.96995 11.075 9.98311 11.0261 9.96077 10.9876L9.76519 10.6505C9.75122 10.6264 9.72678 10.6122 9.70099 10.6105ZM6.43438 10.6225C6.39682 10.6222 6.36317 10.6481 6.35505 10.6861L6.16179 11.5915C6.1525 11.635 6.18022 11.6774 6.2239 11.6866C6.26759 11.6959 6.31024 11.6683 6.31952 11.6248L6.51278 10.7195C6.52207 10.676 6.49435 10.6335 6.45066 10.6243C6.44521 10.6232 6.43974 10.6225 6.43438 10.6225ZM8.18886 10.6231C8.1835 10.6232 8.17808 10.6237 8.17262 10.6248C8.12892 10.634 8.10119 10.6764 8.11044 10.7199L8.30303 11.6254C8.31228 11.6689 8.35492 11.6965 8.39862 11.6873C8.44231 11.6781 8.47005 11.6357 8.4608 11.5922L8.26817 10.6867C8.26006 10.6487 8.22642 10.6228 8.18886 10.6231ZM7.31305 10.7144C7.26838 10.7144 7.23242 10.7502 7.23242 10.7947V11.7202C7.23242 11.7647 7.26838 11.8005 7.31305 11.8005C7.35771 11.8005 7.39367 11.7647 7.39367 11.7202V10.7947C7.39367 10.7502 7.35771 10.7144 7.31305 10.7144ZM5.83311 11.0135C5.8018 11.0162 5.7737 11.037 5.76334 11.0687L5.64243 11.439C5.62862 11.4813 5.6517 11.5264 5.69417 11.5401C5.73664 11.5538 5.78196 11.5308 5.79577 11.4886L5.91669 11.1183C5.9305 11.0761 5.90742 11.031 5.86495 11.0172C5.85433 11.0138 5.84354 11.0126 5.83311 11.0135ZM8.79236 11.0137C8.78192 11.0127 8.77114 11.0139 8.76052 11.0174C8.71804 11.0311 8.69495 11.0762 8.70875 11.1185L8.82963 11.4888C8.84344 11.531 8.88875 11.554 8.93123 11.5403C8.97371 11.5265 8.99681 11.4815 8.98301 11.4392L8.86209 11.0689C8.85173 11.0372 8.82368 11.0163 8.79236 11.0137ZM6.80698 11.2199C6.76959 11.2235 6.73879 11.2527 6.7347 11.2914L6.69382 11.6786C6.68914 11.7228 6.72115 11.7621 6.76557 11.7668C6.80999 11.7714 6.84952 11.7396 6.85419 11.6954L6.89508 11.3082C6.89975 11.264 6.86775 11.2246 6.82333 11.22C6.81778 11.2194 6.81232 11.2194 6.80698 11.2199ZM7.81588 11.2203C7.81054 11.2197 7.80504 11.2197 7.79949 11.2204C7.75506 11.225 7.72303 11.2643 7.72767 11.3085L7.76831 11.6957C7.77294 11.74 7.81244 11.7718 7.85686 11.7672C7.90129 11.7626 7.93332 11.7233 7.92869 11.6791L7.88808 11.2918C7.88402 11.2532 7.85327 11.2239 7.81588 11.2203Z" fill="#F4F2F3"/>
<g opacity="0.409" filter="url(#filter1_f_20456_10574)">
<path d="M11.0917 3.37427L6.68069 5.92491L3.89174 10.2947L7.97174 7.287L11.0917 3.37427Z" fill="black"/>
</g>
<path d="M7.94523 7.2427L6.68089 5.92493L11.166 2.92212L7.94523 7.2427Z" fill="#FF5150"/>
<path d="M7.94523 7.24258L6.68089 5.9248L3.46013 10.2454L7.94523 7.24258Z" fill="#F1F1F1"/>
<path opacity="0.243" d="M3.46013 10.2455L7.94522 7.2427L11.166 2.92212L3.46013 10.2455Z" fill="black"/>
<defs>
<filter id="filter0_f_20456_10574" x="7.27177e-06" y="5.30481e-05" width="14.6267" height="14.1454" filterUnits="userSpaceOnUse" color-interpolation-filters="sRGB">
<feFlood flood-opacity="0" result="BackgroundImageFix"/>
<feBlend mode="normal" in="SourceGraphic" in2="BackgroundImageFix" result="shape"/>
<feGaussianBlur stdDeviation="0.766697" result="effect1_foregroundBlur_20456_10574"/>
</filter>
<filter id="filter1_f_20456_10574" x="3.45591" y="2.93844" width="8.07162" height="7.79208" filterUnits="userSpaceOnUse" color-interpolation-filters="sRGB">
<feFlood flood-opacity="0" result="BackgroundImageFix"/>
<feBlend mode="normal" in="SourceGraphic" in2="BackgroundImageFix" result="shape"/>
<feGaussianBlur stdDeviation="0.217916" result="effect1_foregroundBlur_20456_10574"/>
</filter>
<linearGradient id="paint0_linear_20456_10574" x1="7.31285" y1="12.5552" x2="7.31285" y2="0.612273" gradientUnits="userSpaceOnUse">
<stop stop-color="#BDBDBD"/>
<stop offset="1" stop-color="white"/>
</linearGradient>
<radialGradient id="paint1_radial_20456_10574" cx="0" cy="0" r="1" gradientUnits="userSpaceOnUse" gradientTransform="translate(7.338 5.78143) scale(5.99998 5.97151)">
<stop stop-color="#06C2E7"/>
<stop offset="0.25" stop-color="#0DB8EC"/>
<stop offset="0.5" stop-color="#12AEF1"/>
<stop offset="0.75" stop-color="#1F86F9"/>
<stop offset="1" stop-color="#107DDD"/>
</radialGradient>
</defs>
</svg>
