<svg width="12" height="12" viewBox="0 0 12 12" fill="none" xmlns="http://www.w3.org/2000/svg">
<g clip-path="url(#clip0_19836_380506)">
<path d="M2.53005 7.5861C2.53005 8.28356 1.96681 8.84725 1.26991 8.84725C0.573011 8.84725 0.00976562 8.28356 0.00976562 7.5861C0.00976562 6.88865 0.573011 6.32495 1.26991 6.32495H2.53005V7.5861ZM3.16012 7.5861C3.16012 6.88865 3.72337 6.32495 4.42027 6.32495C5.11716 6.32495 5.68041 6.88865 5.68041 7.5861V10.739C5.68041 11.4364 5.11716 12.0001 4.42027 12.0001C3.72337 12.0001 3.16012 11.4364 3.16012 10.739V7.5861Z" fill="#E01E5A"/>
<path d="M4.42005 2.5223C3.72315 2.5223 3.1599 1.95861 3.1599 1.26115C3.1599 0.563696 3.72315 0 4.42005 0C5.11694 0 5.68019 0.563696 5.68019 1.26115V2.5223H4.42005ZM4.42005 3.16243C5.11694 3.16243 5.68019 3.72613 5.68019 4.42358C5.68019 5.12104 5.11694 5.68473 4.42005 5.68473H1.26014C0.563246 5.68473 0 5.12104 0 4.42358C0 3.72613 0.563246 3.16243 1.26014 3.16243H4.42005Z" fill="#36C5F0"/>
<path d="M9.47018 4.42358C9.47018 3.72613 10.0334 3.16243 10.7303 3.16243C11.4272 3.16243 11.9905 3.72613 11.9905 4.42358C11.9905 5.12104 11.4272 5.68473 10.7303 5.68473H9.47018V4.42358ZM8.84011 4.42358C8.84011 5.12104 8.27686 5.68473 7.57997 5.68473C6.88307 5.68473 6.31982 5.12104 6.31982 4.42358V1.26115C6.31982 0.563696 6.88307 0 7.57997 0C8.27686 0 8.84011 0.563696 8.84011 1.26115V4.42358Z" fill="#2EB67D"/>
<path d="M7.57997 9.47783C8.27686 9.47783 8.84011 10.0415 8.84011 10.739C8.84011 11.4364 8.27686 12.0001 7.57997 12.0001C6.88307 12.0001 6.31982 11.4364 6.31982 10.739V9.47783H7.57997ZM7.57997 8.84725C6.88307 8.84725 6.31982 8.28356 6.31982 7.5861C6.31982 6.88865 6.88307 6.32495 7.57997 6.32495H10.7399C11.4368 6.32495 12 6.88865 12 7.5861C12 8.28356 11.4368 8.84725 10.7399 8.84725H7.57997Z" fill="#ECB22E"/>
</g>
<defs>
<clipPath id="clip0_19836_380506">
<rect width="12" height="12" fill="white"/>
</clipPath>
</defs>
</svg>
