<svg width="14" height="14" viewBox="0 0 14 14" fill="none" xmlns="http://www.w3.org/2000/svg">
<path d="M7.5221 4.4792C6.4811 4.4792 5.57718 5.06451 5.12039 5.92372C4.66359 5.06448 3.7597 4.47926 2.71873 4.47926C2.10689 4.47926 1.54229 4.68141 1.08801 5.02259V2.73255C1.08166 2.43744 0.840611 2.19995 0.54396 2.19995C0.247277 2.19995 0.00654539 2.43744 0.000251746 2.73255L0 7.243H0.00113286C0.0253005 8.72361 1.23233 9.91676 2.7187 9.91676C3.75967 9.91676 4.66359 9.33136 5.12035 8.47212C5.57718 9.33142 6.48107 9.9167 7.52204 9.9167C9.02355 9.9167 10.2408 8.69938 10.2408 7.19796C10.2408 5.69636 9.02352 4.4792 7.5221 4.4792ZM2.7187 8.82868C1.81805 8.82868 1.08798 8.09859 1.08798 7.198C1.08798 6.29728 1.81808 5.56722 2.7187 5.56722C3.61935 5.56722 4.34944 6.29728 4.34944 7.198C4.34944 8.09859 3.61935 8.82868 2.7187 8.82868ZM7.5221 8.82868C6.62142 8.82868 5.89139 8.09859 5.89139 7.19793C5.89139 6.29722 6.62145 5.56722 7.5221 5.56722C8.42269 5.56722 9.15285 6.29722 9.15285 7.19793C9.15282 8.09859 8.42269 8.82868 7.5221 8.82868Z" fill="#0075C9"/>
<path d="M13.8979 9.06097L12.5056 7.19984L13.8979 5.33868L13.8977 5.33846C14.0699 5.09868 14.02 4.7642 13.7828 4.58596C13.5456 4.40791 13.2104 4.45313 13.0281 4.68531L13.028 4.68525L11.8263 6.29161L10.6246 4.68525L10.6244 4.68553C10.4421 4.45313 10.107 4.40791 9.86978 4.58609C9.63254 4.76432 9.58263 5.0988 9.75495 5.33853L9.7547 5.33868L11.147 7.19984L9.7547 9.06097L9.75495 9.06113C9.5826 9.30092 9.63254 9.63533 9.86978 9.81351C10.107 9.99174 10.4421 9.94646 10.6244 9.71422L10.6246 9.71444L11.8263 8.10802L13.028 9.71444L13.0281 9.71438C13.2105 9.94652 13.5456 9.99174 13.7828 9.81363C14.02 9.63546 14.0699 9.30098 13.8977 9.06122L13.8979 9.06097Z" fill="#0075C9"/>
</svg>
