<svg width="14" height="14" viewBox="0 0 14 14" fill="none" xmlns="http://www.w3.org/2000/svg">
<path d="M1.27038 11.2846L1.86574 12.3077C1.98945 12.523 2.16729 12.6923 2.37605 12.8154L4.50235 9.15381H0.249756C0.249756 9.39227 0.311612 9.63073 0.435324 9.84612L1.27038 11.2846Z" fill="#0066DA"/>
<path d="M6.99978 4.84611L4.87349 1.18457C4.66472 1.30765 4.48689 1.47688 4.36317 1.69226L0.435324 8.4615C0.313887 8.67225 0.249918 8.9109 0.249756 9.15381H4.50235L6.99978 4.84611Z" fill="#00AC47"/>
<path d="M11.6239 12.8154C11.8327 12.6923 12.0105 12.523 12.1342 12.3077L12.3817 11.8846L13.5646 9.84612C13.6884 9.63073 13.7502 9.39227 13.7502 9.15381H9.49731L10.4023 10.923L11.6239 12.8154Z" fill="#EA4335"/>
<path d="M6.99947 4.84592L9.12576 1.18437C8.917 1.06129 8.67731 0.999756 8.42988 0.999756H5.56905C5.32162 0.999756 5.08193 1.06899 4.87317 1.18437L6.99947 4.84592Z" fill="#00832D"/>
<path d="M9.49677 9.15356H4.50191L2.37561 12.8151C2.58437 12.9382 2.82407 12.9997 3.07149 12.9997H10.9272C11.1746 12.9997 11.4143 12.9305 11.6231 12.8151L9.49677 9.15356Z" fill="#2684FC"/>
<path d="M11.6003 5.07688L9.63636 1.69226C9.51265 1.47688 9.33482 1.30765 9.12605 1.18457L6.99976 4.84611L9.49719 9.15381H13.742C13.742 8.91535 13.6802 8.67689 13.5565 8.4615L11.6003 5.07688Z" fill="#FFBA00"/>
</svg>
