<svg width="14" height="14" viewBox="0 0 14 14" fill="none" xmlns="http://www.w3.org/2000/svg">
<path d="M7.86716 4.89084V7.11241L10.8623 4.69655V2.55086C10.8623 2.08073 10.4782 1.69995 10.005 1.69995H3.51617L3.51038 4.89084H7.86716Z" fill="#FBBC05"/>
<path d="M7.86715 9.33509H3.50312L3.49805 12.3367H10.005C10.4789 12.3367 10.8623 11.9559 10.8623 11.4858V9.54853L7.86715 7.11353V9.33509Z" fill="#34A853"/>
<path d="M3.51612 1.69995L0.5 4.89084H3.51105L3.51612 1.69995Z" fill="#EA4335"/>
<path d="M0.5 9.33472V11.4854C0.5 11.9555 0.889154 12.3363 1.36962 12.3363H3.49801L3.50308 9.33472H0.5Z" fill="#1967D2"/>
<path d="M3.51105 4.89111H0.5V9.33496H3.50308L3.51105 4.89111Z" fill="#4285F4"/>
<path d="M13.4957 10.7293V3.42569C13.3268 2.45637 12.2637 3.56751 12.2637 3.56751L10.8629 4.69709V9.54795L12.8681 11.1781C13.5921 11.2732 13.4957 10.7293 13.4957 10.7293Z" fill="#34A853"/>
<path d="M7.86719 7.11266L10.863 9.54837V4.69751L7.86719 7.11266Z" fill="#188038"/>
</svg>
