<svg width="14" height="14" viewBox="0 0 14 14" fill="none" xmlns="http://www.w3.org/2000/svg">
<path d="M13.5001 7.14607C13.5001 6.71816 13.4614 6.31191 13.395 5.9165H7.14148V8.35938H10.722C10.5615 9.16104 10.0911 9.83811 9.39385 10.2985V11.9235H11.53C12.7807 10.7914 13.5001 9.12312 13.5001 7.14607Z" fill="#4285F4"/>
<path d="M7.14092 13.4997C8.93396 13.4997 10.4337 12.9147 11.5294 11.9235L9.39329 10.2985C8.79561 10.6885 8.03744 10.9269 7.14092 10.9269C5.40876 10.9269 3.94223 9.78396 3.41649 8.24023H1.21393V9.91396C2.30414 12.0373 4.54544 13.4997 7.14092 13.4997Z" fill="#34A853"/>
<path d="M3.41683 8.24045C3.27848 7.85046 3.20654 7.43338 3.20654 7.00006C3.20654 6.56673 3.28401 6.14965 3.41683 5.75966V4.08594H1.21427C0.74483 4.98862 0.500122 5.98716 0.500122 7.00006C0.500122 8.01295 0.74483 9.01149 1.21427 9.91418L3.41683 8.24045Z" fill="#FBBC05"/>
<path d="M7.14092 3.07288C8.12045 3.07288 8.99483 3.40329 9.68659 4.04786L11.5792 2.19539C10.4337 1.14457 8.93396 0.5 7.14092 0.5C4.54544 0.5 2.30414 1.96248 1.21393 4.08578L3.41649 5.7595C3.94223 4.21577 5.40876 3.07288 7.14092 3.07288Z" fill="#EA4335"/>
</svg>
