<svg width="14" height="14" viewBox="0 0 14 14" fill="none" xmlns="http://www.w3.org/2000/svg">
<g clip-path="url(#clip0_19835_3115)">
<path d="M7.12 0.979492C8.77083 0.979566 10.1646 1.57587 11.2274 2.55078C11.3284 2.64354 11.3873 2.77404 11.3895 2.91113C11.3916 3.04811 11.337 3.18047 11.2391 3.27637L9.63171 4.84961C9.44088 5.03613 9.1367 5.04009 8.94128 4.8584C8.4518 4.40231 7.83284 4.16511 7.12 4.16504C5.87457 4.16508 4.81088 4.98778 4.42957 6.10742C4.3328 6.39169 4.2782 6.69212 4.2782 7C4.27828 7.31182 4.32967 7.60956 4.42761 7.88574L4.42957 7.8916C4.81099 9.01106 5.8747 9.83492 7.12 9.83496C7.78898 9.83491 8.33586 9.65761 8.75671 9.38379C9.05244 9.18852 9.28521 8.94022 9.44714 8.6543H7.12C6.84404 8.65425 6.62022 8.43021 6.62 8.1543V6.08008C6.62 5.80397 6.8439 5.58013 7.12 5.58008H12.4305L12.5204 5.58789C12.7244 5.62497 12.8883 5.78639 12.9237 5.99707C12.9841 6.35701 13.0204 6.7301 13.0204 7.12402C13.0203 8.92737 12.3609 10.485 11.1825 11.5518C10.1518 12.484 8.75485 13.0195 7.12 13.0195C4.72436 13.0195 2.6512 11.6691 1.64148 9.70312V9.70215C1.20696 8.86555 0.979487 7.93962 0.97937 7C0.97937 6.17681 1.15391 5.36361 1.48914 4.6123L1.64246 4.29395C2.65252 2.32902 4.72511 0.979527 7.12 0.979492ZM2.73718 9.60645C3.63692 11.0493 5.25883 12.0195 7.12 12.0195C8.27508 12.0195 9.25575 11.7114 10.0292 11.1875L8.99304 10.3984C8.45894 10.6744 7.82888 10.8349 7.12 10.835C5.66566 10.8349 4.4103 10.0119 3.75867 8.83105L2.73718 9.60645ZM7.62 7.6543H10.161C10.3107 7.65443 10.4529 7.72214 10.5477 7.83789C10.6423 7.95367 10.6806 8.10633 10.6512 8.25293C10.5328 8.84401 10.2454 9.36414 9.83386 9.78223L10.8016 10.5186C11.5702 9.67552 12.0203 8.51098 12.0204 7.12402C12.0204 6.93857 12.0094 6.75759 11.9921 6.58008H7.62V7.6543ZM2.28503 5.30469C2.08315 5.84654 1.97937 6.42079 1.97937 7C1.97946 7.57902 2.08323 8.15269 2.28503 8.69434L3.38074 7.8623C3.31371 7.58387 3.27826 7.29505 3.2782 7C3.2782 6.70211 3.31575 6.41304 3.38171 6.1377L2.28503 5.30469ZM7.12 1.97949C5.25912 1.97952 3.63699 2.94906 2.73718 4.3916L3.75769 5.16699C4.4094 3.98635 5.66581 3.16507 7.12 3.16504C7.90553 3.1651 8.63302 3.38625 9.2489 3.82324L10.1405 2.9502C9.32058 2.34233 8.30803 1.97955 7.12 1.97949Z" fill="#242629"/>
</g>
<defs>
<clipPath id="clip0_19835_3115">
<rect width="14" height="14" fill="white"/>
</clipPath>
</defs>
</svg>
