<svg width="14" height="14" viewBox="0 0 14 14" fill="none" xmlns="http://www.w3.org/2000/svg">
<path d="M5.33858 4.77703L5.33871 4.7765L8.27763 6.73932L10.0289 5.91761L10.029 5.91794C10.3848 5.7464 10.7685 5.65811 11.1561 5.65853C11.2207 5.65853 11.2846 5.6618 11.3481 5.66653C11.1376 4.75112 10.6931 3.92361 10.0687 3.28455C9.44431 2.64549 8.66689 2.22239 7.83092 2.06668C6.99495 1.91097 6.13641 2.02934 5.35963 2.40741C4.58286 2.78549 3.92129 3.40698 3.45532 4.19638C3.47029 4.19617 3.48504 4.19512 3.50004 4.19512C4.14956 4.19414 4.78639 4.3957 5.33858 4.77703Z" fill="#0364B8"/>
<path d="M5.3386 4.77645L5.33846 4.77698C4.78627 4.39565 4.14945 4.19409 3.49993 4.19507C3.48492 4.19507 3.47016 4.19612 3.4552 4.19633C2.81949 4.20511 2.19793 4.40687 1.65733 4.77994C1.11673 5.153 0.677521 5.68327 0.386904 6.31376C0.0962881 6.94425 -0.03475 7.65112 0.00787182 8.3584C0.0504937 9.06569 0.265164 9.74666 0.628814 10.3281L3.22051 9.11207L4.37261 8.57149L6.93785 7.36785L8.27751 6.73927L5.3386 4.77645Z" fill="#0078D4"/>
<path d="M11.3483 5.66644C11.2848 5.66172 11.2209 5.65845 11.1563 5.65845C10.7687 5.65803 10.385 5.74632 10.0292 5.91785L10.0291 5.91752L8.27783 6.73923L8.78566 7.07839L10.4503 8.19016L11.1766 8.67522L13.6599 10.3338C13.8855 9.86672 14.0025 9.34399 14 8.81348C13.9975 8.28296 13.8757 7.76162 13.6457 7.29721C13.4157 6.8328 13.0848 6.44015 12.6835 6.15525C12.2821 5.87034 11.823 5.70228 11.3483 5.66645V5.66644Z" fill="#1490DF"/>
<path d="M11.1763 8.67523L10.4501 8.19017L8.78543 7.07842L8.2776 6.73926L6.93794 7.36783L4.3727 8.57147L3.2206 9.11205L0.628906 10.3281C0.950971 10.8444 1.38032 11.2661 1.88028 11.5573C2.38025 11.8484 2.93598 12.0003 3.50002 11.9999H11.1561C11.6694 12.0001 12.1732 11.8453 12.614 11.552C13.0548 11.2586 13.4161 10.8377 13.6597 10.3338L11.1763 8.67523Z" fill="#28A8EA"/>
</svg>
