<svg width="14" height="14" viewBox="0 0 14 14" fill="none" xmlns="http://www.w3.org/2000/svg">
<path d="M4.87988 2.61719C5.23139 1.65106 6.63663 1.78076 6.80566 2.79492L8.16309 10.9404L9.25684 7.68164C9.39358 7.27458 9.77468 7.00017 10.2041 7H12.5L12.6006 7.00977C12.8285 7.05629 13 7.25829 13 7.5C13 7.74171 12.8285 7.94371 12.6006 7.99023L12.5 8H10.2041L9.11133 11.2578C8.78007 12.2454 7.34801 12.132 7.17676 11.1045L5.81934 2.95898L4.58984 6.3418C4.44614 6.73699 4.06992 7 3.64941 7H1.5C1.22386 7 1.00001 6.77614 1 6.5C1.00001 6.22386 1.22386 6 1.5 6H3.64941L4.87988 2.61719Z" fill="#242629"/>
</svg>
