<svg width="14" height="14" viewBox="0 0 14 14" fill="none" xmlns="http://www.w3.org/2000/svg">
<g clip-path="url(#clip0_19835_2135)">
<path d="M6.99976 0.499756C7.22492 0.499756 7.3979 0.616126 7.49585 0.697021C7.60593 0.788001 7.70584 0.905555 7.79565 1.02905C7.97699 1.27846 8.16282 1.61997 8.33667 2.02319C8.65158 2.75375 8.95046 3.73808 9.12964 4.8689C10.2609 5.04804 11.2455 5.34785 11.9763 5.66284C12.3794 5.8366 12.721 6.02163 12.9705 6.20288C13.094 6.2927 13.2115 6.39356 13.3025 6.50366C13.3834 6.60155 13.4997 6.77455 13.4998 6.99976C13.4997 7.22506 13.3834 7.39795 13.3025 7.49585C13.2114 7.60601 13.094 7.70579 12.9705 7.79565C12.721 7.97702 12.3796 8.16182 11.9763 8.33569C11.2455 8.65075 10.2611 8.95046 9.12964 9.12964C8.95048 10.2609 8.65167 11.2455 8.33667 11.9763C8.16279 12.3796 7.97702 12.721 7.79565 12.9705C7.7058 13.094 7.606 13.2115 7.49585 13.3025C7.39793 13.3834 7.22507 13.4998 6.99976 13.4998C6.77453 13.4997 6.60154 13.3834 6.50366 13.3025C6.3936 13.2115 6.29366 13.094 6.20386 12.9705C6.02254 12.721 5.83668 12.3795 5.66284 11.9763C5.34785 11.2455 5.04803 10.2609 4.8689 9.12964C3.73791 8.95043 2.75378 8.65065 2.02319 8.33569C1.61996 8.16184 1.27847 7.97699 1.02905 7.79565C0.905544 7.70583 0.788007 7.60594 0.697021 7.49585C0.626251 7.41017 0.528073 7.26695 0.504639 7.08179L0.499756 6.99976L0.504639 6.91772C0.528096 6.73248 0.626248 6.58932 0.697021 6.50366C0.788075 6.3935 0.905447 6.29275 1.02905 6.20288C1.27847 6.0216 1.62006 5.83664 2.02319 5.66284C2.75379 5.34791 3.73799 5.04808 4.8689 4.8689C5.0481 3.73781 5.34884 2.75383 5.66382 2.02319C5.83769 1.61991 6.0225 1.27849 6.20386 1.02905C6.2937 0.905494 6.39353 0.788044 6.50366 0.697021C6.60154 0.616142 6.77453 0.499823 6.99976 0.499756ZM6.99976 1.6355C6.879 1.80579 6.73274 2.06859 6.58179 2.4187C6.27064 3.14042 5.96302 4.17312 5.8064 5.37476C5.77709 5.59965 5.59965 5.77709 5.37476 5.8064C4.17314 5.96302 3.14041 6.27065 2.4187 6.58179C2.06858 6.73275 1.80578 6.879 1.6355 6.99976C1.80577 7.12049 2.06867 7.2668 2.4187 7.41772C3.14041 7.72887 4.17315 8.03649 5.37476 8.19312C5.59958 8.22241 5.77701 8.39997 5.8064 8.62476C5.96299 9.82631 6.27067 10.8591 6.58179 11.5808C6.7325 11.9304 6.87911 12.1927 6.99976 12.363C7.12043 12.1927 7.26696 11.9305 7.41772 11.5808C7.72887 10.8591 8.03651 9.82639 8.19312 8.62476L8.21069 8.54272C8.26724 8.35779 8.42802 8.21882 8.62476 8.19312C9.8264 8.03651 10.8591 7.72887 11.5808 7.41772C11.9305 7.26696 12.1927 7.12043 12.363 6.99976C12.1927 6.87911 11.9304 6.7325 11.5808 6.58179C10.8591 6.27067 9.82632 5.96299 8.62476 5.8064C8.39997 5.77701 8.22241 5.59958 8.19312 5.37476C8.03649 4.17315 7.72887 3.14041 7.41772 2.4187C7.26679 2.06866 7.1205 1.80576 6.99976 1.6355ZM1.99976 0.449951C2.27361 0.449951 2.43161 0.632294 2.46948 0.67749C2.52745 0.746721 2.5673 0.820177 2.59155 0.869873C2.64258 0.974548 2.68431 1.0962 2.7146 1.19312C2.72202 1.21685 2.72733 1.24124 2.73413 1.2644C2.75766 1.27132 2.78226 1.27738 2.8064 1.28491C2.90328 1.31519 3.02493 1.35694 3.12964 1.40796C3.17929 1.43218 3.25274 1.47207 3.32202 1.53003C3.36685 1.56757 3.54947 1.7256 3.54956 1.99976C3.54956 2.27403 3.36686 2.43193 3.32202 2.46948C3.25269 2.52753 3.17933 2.56731 3.12964 2.59155C3.0249 2.6426 2.90332 2.68431 2.8064 2.7146C2.78231 2.72212 2.75761 2.72723 2.73413 2.73413C2.72723 2.75761 2.72212 2.78231 2.7146 2.8064C2.68431 2.90332 2.6426 3.0249 2.59155 3.12964C2.56731 3.17933 2.52753 3.25269 2.46948 3.32202C2.43193 3.36686 2.27403 3.54956 1.99976 3.54956C1.7256 3.54947 1.56757 3.36685 1.53003 3.32202C1.47207 3.25274 1.43218 3.17929 1.40796 3.12964C1.35694 3.02493 1.31519 2.90328 1.28491 2.8064C1.27738 2.78226 1.27132 2.75766 1.2644 2.73413C1.24124 2.72733 1.21685 2.72202 1.19312 2.7146C1.0962 2.68431 0.974548 2.64258 0.869873 2.59155C0.820177 2.5673 0.746721 2.52745 0.67749 2.46948C0.632294 2.43161 0.449951 2.27361 0.449951 1.99976C0.450038 1.72564 0.632632 1.5676 0.67749 1.53003C0.746792 1.472 0.820174 1.43221 0.869873 1.40796C0.974588 1.35691 1.09618 1.31521 1.19312 1.28491C1.21698 1.27746 1.24113 1.27125 1.2644 1.2644C1.27125 1.24113 1.27746 1.21698 1.28491 1.19312C1.31521 1.09618 1.35691 0.974588 1.40796 0.869873C1.43221 0.820174 1.472 0.746792 1.53003 0.67749C1.5676 0.632632 1.72564 0.450038 1.99976 0.449951Z" fill="#242629"/>
</g>
<defs>
<clipPath id="clip0_19835_2135">
<rect width="14" height="14" fill="white"/>
</clipPath>
</defs>
</svg>
