<svg width="14" height="14" viewBox="0 0 14 14" fill="none" xmlns="http://www.w3.org/2000/svg">
<path d="M8.69324 1.66992C8.98212 0.947704 9.76087 0.549792 10.5155 0.738281C11.3943 0.958164 11.9003 1.87978 11.6141 2.73926L10.5438 5.94727C11.3831 6.19402 11.963 7.00055 11.8934 7.90527L11.8563 8.3877C11.6352 11.2591 9.34447 13.4998 6.43835 13.5C4.29783 13.4998 2.35951 11.9098 2.08972 9.75293L2.0614 9.52246C2.0061 9.07895 2.15862 8.63456 2.47449 8.31836C2.75971 8.03314 3.13471 7.8914 3.50867 7.89355C3.24405 7.20562 3.45901 6.40608 4.06921 5.94824C4.17176 5.87134 4.28004 5.80787 4.39148 5.75781L3.38562 2.73926C3.0995 1.87991 3.60568 0.95832 4.48425 0.738281C5.23897 0.549603 6.01757 0.947641 6.30652 1.66992L7.49988 4.6543L8.69324 1.66992ZM7.48523 6.63672C7.12349 6.60424 6.84643 6.95432 6.96179 7.29883C7.01825 7.46735 7.16017 7.59334 7.33386 7.63086L9.10437 8.01074C9.37421 8.06865 9.54677 8.33466 9.48914 8.60449C9.43841 8.84054 9.22834 9.00206 8.99597 9L8.89539 8.98926L7.61121 8.71387C7.76073 9.38239 7.46257 10.0923 6.83777 10.4395C6.61232 10.5646 6.3689 10.6282 6.12683 10.6367C6.09648 10.944 5.96376 11.2431 5.72839 11.4785L5.64636 11.5605C5.3827 11.8241 5.03063 11.9767 4.66003 11.9951C5.18413 12.3137 5.79715 12.4999 6.43835 12.5C8.79604 12.4998 10.6764 10.6875 10.8593 8.31055L10.8964 7.82812C10.9335 7.34307 10.5742 6.9182 10.0897 6.87402L7.48523 6.63672ZM3.81824 9.02539C3.6426 8.84991 3.3571 8.84981 3.18152 9.02539C3.08386 9.12338 3.03657 9.26113 3.05359 9.39844L3.08191 9.62891C3.14467 10.1306 3.33064 10.5959 3.60535 11H4.58582C4.71827 11 4.84562 10.9471 4.93933 10.8535L5.02136 10.7715C5.15952 10.6333 5.1691 10.4172 5.05261 10.2666C4.9709 10.1978 4.89484 10.1207 4.82703 10.0342L3.81824 9.02539ZM5.68445 6.98828C5.49475 6.60902 5.00808 6.49361 4.66882 6.74805C4.38615 6.96031 4.31379 7.35397 4.50183 7.65332L5.578 9.36719C5.5817 9.37306 5.58683 9.37809 5.5907 9.38379L5.72839 9.52148C5.73275 9.52584 5.7368 9.53076 5.74109 9.53516C5.91772 9.65664 6.15378 9.67563 6.35242 9.56543C6.62421 9.41431 6.72881 9.07602 6.58972 8.79785L5.68445 6.98828ZM4.72742 1.70898C4.41361 1.78765 4.23254 2.11686 4.33484 2.42383L5.40906 5.64746C5.74845 5.7161 6.06482 5.88839 6.30847 6.15234C6.45832 5.98012 6.64588 5.84105 6.86121 5.75098L5.37781 2.04102C5.27451 1.78326 4.99684 1.64171 4.72742 1.70898ZM10.2723 1.70898C10.003 1.6419 9.72518 1.78333 9.62195 2.04102L8.16003 5.69434L9.5321 5.81836L10.6649 2.42383C10.7673 2.11673 10.5864 1.78749 10.2723 1.70898Z" fill="#242629"/>
</svg>
