<svg width="14" height="14" viewBox="0 0 14 14" fill="none" xmlns="http://www.w3.org/2000/svg">
<path d="M5.09961 1C5.5114 1 5.85076 0.999975 6.12598 1.02246C6.40699 1.04543 6.66556 1.09414 6.9082 1.21777C7.22376 1.37858 7.48892 1.62042 7.67969 1.91602C8.0103 1.85243 8.35313 1.87174 8.67578 1.97656C8.93467 2.06074 9.1523 2.20918 9.36719 2.3916C9.57761 2.57028 9.81738 2.81054 10.1084 3.10156L10.957 3.94922C11.2481 4.24029 11.4883 4.47999 11.667 4.69043C11.8493 4.90521 11.9969 5.12308 12.0811 5.38184C12.184 5.69884 12.2042 6.03514 12.1445 6.36035C12.4127 6.54755 12.6325 6.79889 12.7822 7.09277C12.9056 7.33526 12.9546 7.59419 12.9775 7.875C13 8.15003 13 8.48908 13 8.90039V10.1006C13 10.5121 13 10.8519 12.9775 11.127C12.9546 11.4075 12.9056 11.6659 12.7822 11.9082C12.5905 12.2842 12.2843 12.5905 11.9082 12.7822C11.6656 12.9058 11.4069 12.9556 11.126 12.9785C10.8508 13.001 10.5114 13.001 10.0996 13.001H4.5C2.567 13.001 1 11.433 1 9.5V3.90039C1 3.4886 0.999975 3.14924 1.02246 2.87402C1.04543 2.59301 1.09414 2.33444 1.21777 2.0918C1.40951 1.71554 1.71554 1.40951 2.0918 1.21777C2.33444 1.09414 2.59301 1.04543 2.87402 1.02246C3.14924 0.999975 3.4886 1 3.90039 1H5.09961ZM11.667 7.30957C11.4883 7.52005 11.2482 7.75965 10.957 8.05078L7.00684 12.001H10.0996C10.5279 12.001 10.8199 11.9998 11.0449 11.9814C11.2636 11.9635 11.376 11.9314 11.4541 11.8916C11.6421 11.7958 11.7948 11.6421 11.8906 11.4541C11.9304 11.376 11.9635 11.2636 11.9814 11.0449C11.9998 10.82 12 10.5285 12 10.1006V8.90039C12 8.47251 11.9998 8.181 11.9814 7.95605C11.9636 7.73729 11.9304 7.62505 11.8906 7.54688C11.8394 7.44635 11.7717 7.35555 11.6914 7.27832C11.683 7.28844 11.6756 7.29947 11.667 7.30957ZM3.90039 2C3.4721 2 3.18012 2.00017 2.95508 2.01855C2.73615 2.03647 2.62405 2.06956 2.5459 2.10938C2.35793 2.20521 2.20521 2.35793 2.10938 2.5459C2.06956 2.62405 2.03647 2.73615 2.01855 2.95508C2.00017 3.18012 2 3.4721 2 3.90039V9.5C2 10.8807 3.11929 12 4.5 12C5.88071 12 7 10.8807 7 9.5V3.90039C7 3.4721 6.99983 3.18012 6.98145 2.95508C6.96353 2.73615 6.93044 2.62405 6.89062 2.5459C6.79479 2.35793 6.64207 2.20521 6.4541 2.10938C6.37595 2.06956 6.26385 2.03647 6.04492 2.01855C5.81988 2.00017 5.5279 2 5.09961 2H3.90039ZM4.5 8.5C5.05228 8.5 5.5 8.94772 5.5 9.5V9.50977C5.5 10.0621 5.05228 10.5098 4.5 10.5098C3.94772 10.5098 3.5 10.0621 3.5 9.50977V9.5C3.5 8.94772 3.94772 8.5 4.5 8.5ZM7.97754 2.88477C7.99917 3.15806 8 3.49391 8 3.90039V9.5C8 9.53202 7.99792 9.56389 7.99707 9.5957L10.25 7.34375C10.5526 7.04115 10.7582 6.83513 10.9043 6.66309C11.0463 6.49577 11.1027 6.39295 11.1299 6.30957C11.1951 6.10886 11.195 5.89214 11.1299 5.69141C11.1028 5.60798 11.0465 5.5054 10.9043 5.33789C10.7582 5.16581 10.5527 4.95896 10.25 4.65625L9.40137 3.80859C9.09867 3.5059 8.89181 3.29944 8.71973 3.15332C8.55271 3.01158 8.45048 2.95491 8.36719 2.92773C8.24096 2.88672 8.10844 2.8742 7.97754 2.88477Z" fill="#242629"/>
</svg>
