<svg width="14" height="14" viewBox="0 0 14 14" fill="none" xmlns="http://www.w3.org/2000/svg">
<path d="M9.7998 5C10.3516 5 10.7957 5 11.1543 5.0293C11.5186 5.05907 11.8387 5.12164 12.1348 5.27246C12.6051 5.51215 12.9879 5.89486 13.2275 6.36523C13.3783 6.66127 13.4409 6.98144 13.4707 7.3457C13.5 7.70425 13.5 8.14852 13.5 8.7002V9.2998C13.5 9.8514 13.5 10.2958 13.4707 10.6543C13.4409 11.0185 13.3783 11.3388 13.2275 11.6348C12.9878 12.1051 12.6051 12.4879 12.1348 12.7275C11.8387 12.8784 11.5186 12.9419 11.1543 12.9717C10.7957 13.001 10.3516 13 9.7998 13H4.2002C3.64843 13 3.20428 13.001 2.8457 12.9717C2.48136 12.9419 2.16133 12.8784 1.86523 12.7275C1.39489 12.4879 1.01215 12.1051 0.772461 11.6348C0.621723 11.3388 0.559068 11.0185 0.529297 10.6543C0.500018 10.2958 0.5 9.8514 0.5 9.2998V8.7002C0.5 8.14852 0.500019 7.70425 0.529297 7.3457C0.55906 6.98144 0.621706 6.66127 0.772461 6.36523C1.01213 5.89486 1.39487 5.51215 1.86523 5.27246C2.16132 5.12164 2.48137 5.05907 2.8457 5.0293C3.20429 5 3.64839 5 4.2002 5H9.7998ZM4.2002 6C3.63189 6 3.23518 6.00019 2.92676 6.02539C2.62472 6.05009 2.45091 6.09614 2.31934 6.16309C2.03714 6.3069 1.80688 6.53713 1.66309 6.81934C1.59619 6.95089 1.55008 7.12486 1.52539 7.42676C1.50021 7.73514 1.5 8.13204 1.5 8.7002V9.2998C1.5 9.86798 1.5002 10.2649 1.52539 10.5732C1.55012 10.8756 1.59602 11.05 1.66309 11.1816C1.80691 11.4637 2.03722 11.6932 2.31934 11.8369C2.45091 11.9039 2.62473 11.9499 2.92676 11.9746C3.23518 11.9998 3.6319 12 4.2002 12H9.7998C10.3681 12 10.7648 11.9998 11.0732 11.9746C11.3753 11.9499 11.5491 11.9039 11.6807 11.8369C11.9628 11.6932 12.1931 11.4637 12.3369 11.1816C12.404 11.05 12.4499 10.8756 12.4746 10.5732C12.4998 10.2649 12.5 9.86798 12.5 9.2998V8.7002C12.5 8.13204 12.4998 7.73514 12.4746 7.42676C12.4499 7.12486 12.4038 6.95089 12.3369 6.81934C12.1931 6.53713 11.9629 6.3069 11.6807 6.16309C11.5491 6.09613 11.3753 6.05009 11.0732 6.02539C10.7648 6.00019 10.3681 6 9.7998 6H4.2002ZM11.1006 3.00977C11.3285 3.05631 11.5 3.25831 11.5 3.5C11.4999 3.77602 11.2761 3.99999 11 4H3C2.72394 4 2.50014 3.77603 2.5 3.5C2.5001 3.22395 2.72392 3.00001 3 3H11L11.1006 3.00977ZM9.5 1C9.77614 1 10 1.22386 10 1.5C10 1.77614 9.77614 2 9.5 2H4.5C4.22386 2 4 1.77614 4 1.5C4 1.22386 4.22386 1 4.5 1H9.5Z" fill="#242629"/>
</svg>
