<svg width="14" height="14" viewBox="0 0 14 14" fill="none" xmlns="http://www.w3.org/2000/svg">
<path d="M11.5001 1.5C11.7262 1.5 11.9208 1.49981 12.0812 1.51074C12.2461 1.52199 12.4114 1.54676 12.5743 1.61426C12.9417 1.76649 13.2336 2.0584 13.3859 2.42578C13.4534 2.58874 13.4781 2.75403 13.4894 2.91895C13.5003 3.07934 13.5001 3.27393 13.5001 3.5C13.5001 3.72607 13.5003 3.92066 13.4894 4.08105C13.4781 4.24597 13.4534 4.41126 13.3859 4.57422C13.2336 4.94161 12.9417 5.23351 12.5743 5.38574C12.531 5.40369 12.4871 5.41723 12.4435 5.42969L11.9855 8.63672C11.8995 9.23796 11.8316 9.71692 11.7462 10.1016C11.6595 10.4923 11.5479 10.8229 11.3566 11.1211C11.0457 11.6053 10.6016 11.9894 10.0782 12.2285C9.7561 12.3757 9.41373 12.4401 9.01477 12.4707C8.62191 12.5008 8.13778 12.5 7.5304 12.5H6.46887C5.86171 12.5 5.37826 12.5007 4.98547 12.4707C4.58633 12.4401 4.24329 12.3758 3.92102 12.2285C3.39762 11.9893 2.9535 11.6045 2.6427 11.1201C2.45156 10.8221 2.33967 10.4921 2.25305 10.1016C2.16776 9.71692 2.09964 9.23793 2.01379 8.63672L1.55579 5.42969C1.51247 5.41728 1.46894 5.40357 1.4259 5.38574C1.05852 5.23351 0.766616 4.94161 0.61438 4.57422C0.546879 4.41126 0.522116 4.24597 0.510864 4.08105C0.499928 3.92066 0.500122 3.72607 0.500122 3.5C0.500122 3.27393 0.499928 3.07934 0.510864 2.91895C0.522116 2.75403 0.546878 2.58874 0.61438 2.42578C0.766616 2.05839 1.05852 1.76649 1.4259 1.61426C1.58887 1.54676 1.75415 1.52199 1.91907 1.51074C2.07947 1.49981 2.27406 1.5 2.50012 1.5H11.5001ZM2.57629 5.5L3.00403 8.49512C3.09204 9.11151 3.15451 9.54608 3.22961 9.88477C3.30331 10.2171 3.38205 10.4203 3.4845 10.5801C3.69171 10.903 3.98808 11.1598 4.33704 11.3193C4.50969 11.3982 4.72218 11.4476 5.06165 11.4736C5.4075 11.5001 5.84641 11.5 6.46887 11.5H7.5304C8.15303 11.5 8.59271 11.5001 8.9386 11.4736C9.27799 11.4476 9.49058 11.3982 9.66321 11.3193C10.012 11.1599 10.3076 10.9028 10.5148 10.5801C10.6172 10.4203 10.6959 10.2171 10.7697 9.88477C10.8448 9.54613 10.9072 9.11139 10.9952 8.49512L11.424 5.5H2.57629ZM9.00012 7C9.27619 7.00008 9.50012 7.22391 9.50012 7.5C9.5001 7.77608 9.27618 7.99992 9.00012 8H5.00012C4.72399 8 4.50014 7.77613 4.50012 7.5C4.50012 7.22386 4.72398 7 5.00012 7H9.00012ZM2.50012 2.5C2.26058 2.5 2.10587 2.50073 1.98743 2.50879C1.87343 2.51657 1.82952 2.52947 1.80872 2.53809C1.68625 2.58883 1.58895 2.68613 1.53821 2.80859C1.52959 2.8294 1.51669 2.87331 1.50891 2.9873C1.50085 3.10574 1.50012 3.26045 1.50012 3.5C1.50012 3.73954 1.50085 3.89426 1.50891 4.0127C1.51669 4.12669 1.52959 4.1706 1.53821 4.19141C1.58895 4.31387 1.68625 4.41117 1.80872 4.46191C1.82952 4.47053 1.87343 4.48343 1.98743 4.49121C2.10587 4.49927 2.26058 4.5 2.50012 4.5H11.5001C11.7397 4.5 11.8944 4.49927 12.0128 4.49121C12.1268 4.48343 12.1707 4.47053 12.1915 4.46191C12.314 4.41117 12.4113 4.31387 12.462 4.19141C12.4707 4.1706 12.4836 4.12669 12.4913 4.0127C12.4994 3.89426 12.5001 3.73954 12.5001 3.5C12.5001 3.26045 12.4994 3.10574 12.4913 2.9873C12.4836 2.87331 12.4707 2.8294 12.462 2.80859C12.4113 2.68613 12.314 2.58883 12.1915 2.53809C12.1707 2.52947 12.1268 2.51657 12.0128 2.50879C11.8944 2.50073 11.7397 2.5 11.5001 2.5H2.50012Z" fill="#242629"/>
</svg>
