<svg width="14" height="14" viewBox="0 0 14 14" fill="none" xmlns="http://www.w3.org/2000/svg">
<path d="M2.5 2.5C2.22386 2.5 2 2.72386 2 3V6.5C2 7.88071 3.11929 9 4.5 9H9.29297L7.64648 10.6465L7.58203 10.7246C7.45387 10.9187 7.47562 11.1827 7.64648 11.3535C7.81735 11.5244 8.08131 11.5461 8.27539 11.418L8.35352 11.3535L10.8535 8.85352C10.9473 8.75975 11 8.63261 11 8.5C11 8.40056 10.9704 8.30419 10.916 8.22266L10.8535 8.14648L8.35352 5.64648C8.15825 5.45122 7.84175 5.45122 7.64648 5.64648C7.45122 5.84175 7.45122 6.15825 7.64648 6.35352L9.29297 8H4.5C3.67157 8 3 7.32843 3 6.5V3C3 2.72391 2.77607 2.50009 2.5 2.5Z" fill="#242629"/>
</svg>
