<svg width="14" height="14" viewBox="0 0 14 14" fill="none" xmlns="http://www.w3.org/2000/svg">
<path d="M5.72424 3.08191C5.9182 2.95382 6.18228 2.97579 6.35315 3.14636C6.52401 3.31723 6.54577 3.58119 6.4176 3.77527L6.35315 3.85339L3.70667 6.49988H11.4996C11.7757 6.49988 11.9995 6.72381 11.9996 6.99988C11.9996 7.27602 11.7758 7.49988 11.4996 7.49988H3.70667L6.35315 10.1464C6.54841 10.3416 6.54841 10.6581 6.35315 10.8534C6.15788 11.0485 5.84133 11.0486 5.64612 10.8534L2.14612 7.35339L2.08167 7.27527C1.95378 7.08128 1.97549 6.81713 2.14612 6.64636L5.64612 3.14636L5.72424 3.08191Z" fill="#242629"/>
</svg>
