<svg width="14" height="14" viewBox="0 0 14 14" fill="none" xmlns="http://www.w3.org/2000/svg">
<path d="M7.00024 2C7.27632 2.00008 7.50024 2.22391 7.50024 2.5V10.293L10.1467 7.64648L10.2249 7.58203C10.4189 7.45394 10.6829 7.47565 10.8538 7.64648C11.0245 7.81733 11.0463 8.08135 10.9182 8.27539L10.8538 8.35352L7.35376 11.8535C7.18293 12.0243 6.91892 12.0461 6.72485 11.918L6.64673 11.8535L3.14673 8.35352C2.95147 8.15825 2.95147 7.84175 3.14673 7.64648C3.342 7.4513 3.65852 7.45125 3.85376 7.64648L6.50024 10.293V2.5C6.50024 2.22386 6.7241 2 7.00024 2Z" fill="#242629"/>
</svg>
