<svg width="14" height="14" viewBox="0 0 14 14" fill="none" xmlns="http://www.w3.org/2000/svg">
<path d="M3.6521 7.14148C3.85017 6.9491 4.16673 6.9532 4.35913 7.15125C4.55152 7.34932 4.54645 7.66587 4.34839 7.85828L3.17261 8.99988H8.99976C9.27589 8.99988 9.49974 9.22375 9.49976 9.49988C9.49976 9.77602 9.2759 9.99988 8.99976 9.99988H3.17261L4.34839 11.1415L4.41382 11.2186C4.54481 11.4108 4.52749 11.6752 4.35913 11.8485C4.19081 12.0218 3.9271 12.047 3.7312 11.9218L3.6521 11.8583L1.59253 9.85828C1.49577 9.76415 1.44116 9.63488 1.44116 9.49988C1.44117 9.39847 1.47173 9.30012 1.52808 9.21765L1.59253 9.14148L3.6521 7.14148ZM9.64233 2.15125C9.8348 1.95366 10.1515 1.94921 10.3494 2.14148L12.408 4.14148L12.4724 4.21863C12.5284 4.30091 12.5593 4.3988 12.5593 4.49988C12.5593 4.63477 12.5046 4.76417 12.408 4.85828L10.3484 6.85828C10.1503 7.05053 9.83373 7.04644 9.64136 6.84851C9.4491 6.65047 9.45419 6.33386 9.6521 6.14148L10.8279 4.99988H5.00073C4.72459 4.99988 4.50073 4.77602 4.50073 4.49988C4.50085 4.22383 4.72466 3.99988 5.00073 3.99988H10.8279L9.6521 2.85828C9.45414 2.66585 9.44995 2.34927 9.64233 2.15125Z" fill="#242629"/>
</svg>
