<svg width="14" height="14" viewBox="0 0 14 14" fill="none" xmlns="http://www.w3.org/2000/svg">
<path d="M10.4999 2.5C10.776 2.5 10.9999 2.72386 10.9999 3V6.5C10.9999 7.88071 9.88059 9 8.49988 9H3.70691L5.35339 10.6465L5.41785 10.7246C5.54601 10.9187 5.52426 11.1827 5.35339 11.3535C5.18253 11.5244 4.91857 11.5461 4.72449 11.418L4.64636 11.3535L2.14636 8.85352C2.05259 8.75975 1.99988 8.63261 1.99988 8.5C1.99988 8.40056 2.02951 8.30419 2.08386 8.22266L2.14636 8.14648L4.64636 5.64648C4.84162 5.45122 5.15813 5.45122 5.35339 5.64648C5.54866 5.84175 5.54866 6.15825 5.35339 6.35352L3.70691 8H8.49988C9.3283 8 9.99988 7.32843 9.99988 6.5V3C9.99988 2.72391 10.2238 2.50009 10.4999 2.5Z" fill="#242629"/>
</svg>
