<svg width="14" height="14" viewBox="0 0 14 14" fill="none" xmlns="http://www.w3.org/2000/svg">
<g clip-path="url(#clip0_19835_1888)">
<path d="M7 0.5C10.5899 0.5 13.5 3.41015 13.5 7C13.5 10.5899 10.5899 13.5 7 13.5C3.41015 13.5 0.5 10.5899 0.5 7C0.5 3.41015 3.41015 0.5 7 0.5ZM7 1.5C3.96244 1.5 1.5 3.96244 1.5 7C1.5 10.0376 3.96244 12.5 7 12.5C10.0376 12.5 12.5 10.0376 12.5 7C12.5 3.96244 10.0376 1.5 7 1.5ZM9 4.5C9.27614 4.5 9.5 4.72386 9.5 5V8C9.5 8.27614 9.27614 8.5 9 8.5C8.72386 8.5 8.5 8.27614 8.5 8V6.20703L5.35352 9.35352C5.15825 9.54878 4.84175 9.54878 4.64648 9.35352C4.45122 9.15825 4.45122 8.84175 4.64648 8.64648L7.79297 5.5H6C5.72386 5.5 5.5 5.27614 5.5 5C5.5 4.72386 5.72386 4.5 6 4.5H9Z" fill="#242629"/>
</g>
<defs>
<clipPath id="clip0_19835_1888">
<rect width="14" height="14" fill="white"/>
</clipPath>
</defs>
</svg>
