<svg width="14" height="14" viewBox="0 0 14 14" fill="none" xmlns="http://www.w3.org/2000/svg">
<path d="M9.49988 4.50073C9.77602 4.50073 9.99988 4.72459 9.99988 5.00073V10.8279L11.1415 9.6521L11.2186 9.58667C11.4108 9.45568 11.6752 9.47299 11.8485 9.64136C12.0216 9.80968 12.0469 10.0734 11.9218 10.2693L11.8583 10.3484L9.85828 12.408C9.76416 12.5046 9.63481 12.5593 9.49988 12.5593C9.39853 12.5593 9.3001 12.5287 9.21765 12.4724L9.14148 12.408L7.14148 10.3484C6.94914 10.1504 6.95334 9.83377 7.15125 9.64136C7.34932 9.44896 7.66588 9.45403 7.85828 9.6521L8.99988 10.8279V5.00073C8.99988 4.72459 9.22374 4.50073 9.49988 4.50073ZM4.49988 1.44116C4.63482 1.44117 4.76416 1.49584 4.85828 1.59253L6.85828 3.6521C7.05057 3.85019 7.04655 4.16677 6.84851 4.35913C6.65047 4.55136 6.33385 4.54629 6.14148 4.34839L4.99988 3.17261V8.99976C4.99988 9.2759 4.77602 9.49976 4.49988 9.49976C4.22385 9.49962 3.99988 9.27582 3.99988 8.99976V3.17261L2.85828 4.34839C2.66584 4.54633 2.34927 4.55053 2.15125 4.35815C1.95356 4.16571 1.9492 3.84906 2.14148 3.65112L4.14148 1.59253L4.21863 1.52808C4.30093 1.47201 4.39877 1.44121 4.49988 1.44116Z" fill="#242629"/>
</svg>
