<svg width="14" height="14" viewBox="0 0 14 14" fill="none" xmlns="http://www.w3.org/2000/svg">
<path d="M6.72485 2.08154C6.91887 1.9537 7.18301 1.97532 7.35376 2.146L10.8538 5.646L10.9182 5.72412C11.0463 5.91806 11.0243 6.18215 10.8538 6.35303C10.6829 6.52389 10.4189 6.54564 10.2249 6.41748L10.1467 6.35303L7.50024 3.70654V11.4995C7.50024 11.7756 7.27625 11.9994 7.00024 11.9995C6.7241 11.9995 6.50024 11.7757 6.50024 11.4995V3.70654L3.85376 6.35303C3.6585 6.54829 3.34199 6.54829 3.14673 6.35303C2.95154 6.15776 2.95149 5.84123 3.14673 5.646L6.64673 2.146L6.72485 2.08154Z" fill="#242629"/>
</svg>
