<svg width="14" height="14" viewBox="0 0 14 14" fill="none" xmlns="http://www.w3.org/2000/svg">
<path d="M7.64648 3.14624C7.81731 2.97555 8.08138 2.95376 8.27539 3.08179L8.35352 3.14624L11.8535 6.64624C12.0243 6.81704 12.046 7.08109 11.918 7.27515L11.8535 7.35327L8.35352 10.8533C8.15825 11.0485 7.84175 11.0485 7.64648 10.8533C7.45137 10.658 7.45127 10.3415 7.64648 10.1462L10.293 7.49976H2.5C2.22386 7.49976 2 7.2759 2 6.99976C2.00016 6.72375 2.22395 6.49976 2.5 6.49976H10.293L7.64648 3.85327L7.58203 3.77515C7.45402 3.58109 7.47568 3.31704 7.64648 3.14624Z" fill="#242629"/>
</svg>
