<svg width="14" height="14" viewBox="0 0 14 14" fill="none" xmlns="http://www.w3.org/2000/svg">
<g clip-path="url(#clip0_19835_3075)">
<path d="M5.73096 0.624512C6.99163 0.373748 8.29925 0.502854 9.48682 0.994629C10.6743 1.48648 11.6896 2.31962 12.4038 3.38818C13.1158 4.45372 13.4961 5.70646 13.4985 6.98779C13.4986 6.9917 13.5005 6.99558 13.5005 6.99951V8.49951C13.5005 9.60393 12.6048 10.4993 11.5005 10.4995C10.6713 10.4995 9.95893 9.99568 9.65576 9.27686C9.01386 10.0249 8.0625 10.4995 6.99951 10.4995C5.06673 10.4993 3.49951 8.93235 3.49951 6.99951C3.49977 5.06689 5.06689 3.49977 6.99951 3.49951C7.97918 3.49951 8.86518 3.90261 9.50049 4.55127V4.49951C9.50074 4.22358 9.7245 3.99951 10.0005 3.99951C10.2763 3.99976 10.5002 4.22373 10.5005 4.49951V8.49951C10.5005 9.0518 10.9482 9.49951 11.5005 9.49951C12.0526 9.49926 12.5005 9.05164 12.5005 8.49951L12.4995 6.99951C12.4994 5.9119 12.177 4.84818 11.5728 3.94385C10.9684 3.03964 10.1088 2.33466 9.104 1.91846C8.0992 1.50241 6.99292 1.39281 5.92627 1.60498C4.85959 1.81727 3.87989 2.34179 3.11084 3.11084C2.34179 3.87989 1.81727 4.85959 1.60498 5.92627C1.39281 6.99292 1.50241 8.0992 1.91846 9.104C2.33466 10.1088 3.03964 10.9684 3.94385 11.5728C4.84818 12.177 5.9119 12.4994 6.99951 12.4995C7.2755 12.4995 7.49926 12.7236 7.49951 12.9995C7.49951 13.2757 7.27565 13.4995 6.99951 13.4995C5.7141 13.4994 4.45697 13.118 3.38818 12.4038C2.31962 11.6896 1.48648 10.6743 0.994629 9.48682C0.502854 8.29925 0.373748 6.99163 0.624512 5.73096C0.875423 4.4704 1.49399 3.31167 2.40283 2.40283C3.31167 1.49399 4.4704 0.875423 5.73096 0.624512ZM6.99951 4.49951C5.61917 4.49977 4.49977 5.61917 4.49951 6.99951C4.49951 8.38007 5.61902 9.49926 6.99951 9.49951C8.38022 9.49951 9.49951 8.38022 9.49951 6.99951C9.49926 5.61902 8.38007 4.49951 6.99951 4.49951Z" fill="#242629"/>
</g>
<defs>
<clipPath id="clip0_19835_3075">
<rect width="14" height="14" fill="white"/>
</clipPath>
</defs>
</svg>
