<svg width="14" height="14" viewBox="0 0 14 14" fill="none" xmlns="http://www.w3.org/2000/svg">
<path d="M6.00012 1C7.65698 1 9.00012 2.34315 9.00012 4V9C9.00012 10.1046 8.10469 11 7.00012 11C5.89555 11 5.00012 10.1046 5.00012 9V4.5C5.00012 4.22386 5.22398 4 5.50012 4C5.77626 4 6.00012 4.22386 6.00012 4.5V9C6.00012 9.55229 6.44784 10 7.00012 10C7.55241 10 8.00012 9.55228 8.00012 9V4C8.00012 2.89543 7.10469 2 6.00012 2C4.89555 2 4.00012 2.89543 4.00012 4V9C4.00012 10.6569 5.34327 12 7.00012 12C8.65698 12 10.0001 10.6569 10.0001 9V3C10.0001 2.72386 10.224 2.5 10.5001 2.5C10.7763 2.5 11.0001 2.72386 11.0001 3V9C11.0001 11.2091 9.20926 13 7.00012 13C4.79098 13 3.00012 11.2091 3.00012 9V4C3.00012 2.34315 4.34327 1 6.00012 1Z" fill="#242629"/>
</svg>
