<svg width="14" height="14" viewBox="0 0 14 14" fill="none" xmlns="http://www.w3.org/2000/svg">
<path d="M8.14661 1.5C8.66292 1.50005 9.1428 1.76573 9.41711 2.20312L10.3976 3.76758C10.7027 4.25467 10.7028 4.87329 10.3976 5.36035L9.99719 6H10.9611C11.4658 6.0001 11.9366 6.2541 12.214 6.67578L13.4054 8.48633C13.7278 8.97656 13.7345 9.61024 13.423 10.1074L12.3644 11.7959C12.0901 12.2336 11.6094 12.4999 11.0929 12.5H9.02942C8.53295 12.5 8.06849 12.2542 7.78918 11.8438L7.03235 10.7305L6.36438 11.7969C6.09007 12.2345 5.60937 12.5 5.0929 12.5H3.02942C2.53292 12.5 2.06848 12.2542 1.78918 11.8438L0.754028 10.3213C0.419471 9.82928 0.407036 9.18589 0.722778 8.68164L4.78235 2.20312C5.05666 1.76559 5.5374 1.50002 6.05383 1.5H8.14661ZM6.05383 2.5C5.88175 2.50002 5.72145 2.58862 5.63 2.73438L1.57043 9.21191C1.46515 9.37994 1.4688 9.59477 1.5802 9.75879L2.61536 11.2812C2.70844 11.4181 2.86388 11.5 3.02942 11.5H4.9552L4.15442 10.3213C3.81984 9.82927 3.80741 9.18591 4.12317 8.68164L7.99719 2.5H6.05383ZM7.61145 9.80469L8.61633 11.2812C8.70946 11.4179 8.86404 11.5 9.02942 11.5H10.9513L10.0704 10.0938C9.76551 9.60675 9.76539 8.98792 10.0704 8.50098L11.0089 7.00293C10.9931 7.00139 10.9771 7.00001 10.9611 7H9.37024L7.61145 9.80469ZM10.9181 9.03223C10.8165 9.19451 10.8165 9.4012 10.9181 9.56348L11.7501 10.8916L12.5753 9.57617C12.6791 9.41048 12.6768 9.19952 12.5695 9.03613L11.7218 7.74805L10.9181 9.03223ZM4.97083 9.21191C4.86552 9.37995 4.86917 9.59476 4.98059 9.75879L5.75012 10.8916L9.54993 4.8291C9.65164 4.66673 9.65167 4.46021 9.54993 4.29785L8.79993 3.10059L4.97083 9.21191Z" fill="#242629"/>
</svg>
