<svg width="14" height="14" viewBox="0 0 14 14" fill="none" xmlns="http://www.w3.org/2000/svg">
<path d="M2.61353 7.73071C3.14137 7.3439 3.85914 7.34385 4.38696 7.73071L5.71411 8.70435C6.23453 9.08634 6.4529 9.75872 6.25513 10.3733L5.74438 11.9602C5.54472 12.5798 4.96766 13 4.31665 13.0002H2.68384C2.03273 13.0002 1.45589 12.5798 1.2561 11.9602L0.745361 10.3733C0.547526 9.75852 0.765592 9.08628 1.28638 8.70435L2.61353 7.73071ZM10.2502 7.50024C11.7689 7.50042 13.0002 8.73157 13.0002 10.2502C13.0001 11.7688 11.7688 13.0001 10.2502 13.0002C8.73153 13.0002 7.50036 11.7689 7.50024 10.2502C7.50024 8.73146 8.73146 7.50024 10.2502 7.50024ZM3.79614 8.53735C3.62017 8.4083 3.38034 8.40835 3.20435 8.53735L1.8772 9.51099C1.70387 9.63829 1.63172 9.8619 1.69751 10.0667L2.20825 11.6536C2.27495 11.8599 2.46692 12.0002 2.68384 12.0002H4.31665C4.53347 12 4.72567 11.8599 4.79224 11.6536L5.30298 10.0667C5.36871 9.8621 5.29626 9.63835 5.12329 9.51099L3.79614 8.53735ZM10.2502 8.50024C9.28375 8.50024 8.50024 9.28375 8.50024 10.2502C8.50036 11.2166 9.28382 12.0002 10.2502 12.0002C11.2165 12.0001 12.0001 11.2165 12.0002 10.2502C12.0002 9.28386 11.2166 8.50042 10.2502 8.50024ZM3.50024 1.00024C3.93287 1.00024 4.24753 0.99618 4.51782 1.0686C5.20783 1.25363 5.74698 1.7926 5.93188 2.48267C6.00425 2.75296 6.00024 3.0676 6.00024 3.50024C6.00025 3.93293 6.00431 4.24751 5.93188 4.51782C5.74695 5.20787 5.20785 5.74689 4.51782 5.93188C4.24753 6.00431 3.93287 6.00025 3.50024 6.00024C3.06764 6.00024 2.75294 6.00423 2.48267 5.93188C1.79257 5.74697 1.25361 5.20787 1.0686 4.51782C0.996173 4.24751 1.00024 3.93293 1.00024 3.50024C1.00024 3.06751 0.996192 2.753 1.0686 2.48267C1.25354 1.79248 1.79248 1.25354 2.48267 1.0686C2.75297 0.996234 3.06759 1.00024 3.50024 1.00024ZM8.71411 1.67212C9.29673 0.701206 10.7038 0.701204 11.2864 1.67212L12.5208 3.72876C13.1198 4.72834 12.3991 6 11.2336 6.00024H8.76685C7.60106 6.00024 6.8803 4.72848 7.47974 3.72876L8.71411 1.67212ZM3.50024 2.00024C3.00346 2.00024 2.85257 2.00471 2.74146 2.03442C2.39636 2.12689 2.12689 2.39636 2.03442 2.74146C2.00467 2.85258 2.00024 3.00323 2.00024 3.50024C2.00025 3.99725 2.00465 4.14791 2.03442 4.25903C2.12696 4.60399 2.39645 4.87362 2.74146 4.96606C2.85256 4.99576 3.00361 5.00024 3.50024 5.00024C3.99715 5.00024 4.14792 4.99584 4.25903 4.96606C4.60396 4.87354 4.87359 4.60399 4.96606 4.25903C4.99584 4.14791 5.00024 3.99725 5.00024 3.50024C5.00024 3.00348 4.99578 2.85257 4.96606 2.74146C4.87363 2.39648 4.60395 2.12698 4.25903 2.03442C4.14792 2.00465 3.99715 2.00025 3.50024 2.00024ZM10.429 2.18677C10.2348 1.8631 9.76574 1.8631 9.57153 2.18677L8.33813 4.24341C8.13831 4.57665 8.37824 5.00024 8.76685 5.00024H11.2336C11.6219 5 11.8618 4.57651 11.6624 4.24341L10.429 2.18677Z" fill="#242629"/>
</svg>
