<svg width="14" height="14" viewBox="0 0 14 14" fill="none" xmlns="http://www.w3.org/2000/svg">
<path fill-rule="evenodd" clip-rule="evenodd" d="M8.4336 1.5C8.96049 1.5 9.44865 1.77671 9.71973 2.22852L10.6201 3.72852C10.905 4.20343 10.905 4.79657 10.6201 5.27148L10.4287 5.59082L10 5.33301L9.57129 5.07617L9.7627 4.75684C9.85741 4.59868 9.85741 4.40132 9.7627 4.24316L9.00879 2.9873L5.23829 9.24316C5.14294 9.40158 5.14315 9.60023 5.23829 9.75879L6.42872 11.7432C6.52115 11.8975 6.52403 12.0895 6.43555 12.2461C6.3468 12.4028 6.18014 12.5 6.00001 12.5H3.06641C2.53952 12.5 2.05136 12.2233 1.78028 11.7715L0.879888 10.2715C0.59505 9.79657 0.59505 9.20343 0.879888 8.72852L4.78028 2.22852C5.05136 1.77671 5.53952 1.5 6.06641 1.5H8.4336ZM9.57129 5.07617C9.42926 5.31296 9.5064 5.61965 9.74317 5.76172C9.97988 5.90364 10.2866 5.82741 10.4287 5.59082L9.57129 5.07617ZM6.06641 2.5C5.89078 2.5 5.72806 2.59256 5.6377 2.74316L1.73731 9.24316C1.6426 9.40132 1.6426 9.59868 1.73731 9.75684L2.6377 11.2568C2.72806 11.4074 2.89078 11.5 3.06641 11.5H5.11719L4.38086 10.2725C4.09542 9.79654 4.09536 9.20187 4.38184 8.72656L8.13477 2.5H6.06641ZM10.2062 6.5058C10.5765 6.52614 10.8682 6.75779 11.0139 7.04486L11.0705 7.15619C11.1726 7.35701 11.3967 7.46436 11.6174 7.41888L11.7375 7.39447C12.0132 7.33773 12.3256 7.39443 12.5646 7.59467L12.6623 7.68939L12.7922 7.84369C12.8343 7.89654 12.8751 7.95054 12.9142 8.0058C13.1279 8.30749 13.129 8.67941 12.9963 8.97162L12.9435 9.08783C12.8505 9.29261 12.9056 9.53448 13.0783 9.67865L13.175 9.7597C13.4209 9.96499 13.5814 10.2992 13.5207 10.663C13.4981 10.7981 13.4681 10.9309 13.4308 11.0605C13.3284 11.4163 13.0381 11.6491 12.7267 11.7275L12.6047 11.7578C12.3866 11.8127 12.2318 12.0066 12.2267 12.2314L12.2248 12.3593C12.2179 12.6797 12.0564 13.0138 11.7336 13.1933C11.6159 13.2588 11.4938 13.318 11.3683 13.3701C11.0259 13.512 10.6627 13.4294 10.4074 13.2343L10.3088 13.1591C10.1295 13.0221 9.88058 13.0221 9.70135 13.1591L9.60369 13.2343C9.34827 13.4295 8.98441 13.5122 8.64178 13.3701C8.51648 13.3181 8.39506 13.2587 8.27752 13.1933C7.95475 13.0138 7.79324 12.6797 7.78631 12.3593L7.78338 12.2314C7.77833 12.0065 7.62366 11.8126 7.40545 11.7578L7.28436 11.7275C6.97297 11.6492 6.68269 11.4163 6.58026 11.0605C6.54296 10.9309 6.51202 10.7981 6.48944 10.663C6.42877 10.2992 6.58929 9.96497 6.83514 9.7597L6.9328 9.67865C7.10546 9.53448 7.16062 9.29261 7.06756 9.08783L7.01483 8.97162C6.88203 8.6794 6.88221 8.30751 7.09588 8.0058C7.17409 7.89537 7.2589 7.78999 7.34881 7.68939L7.44647 7.59467C7.68559 7.3945 7.99788 7.33765 8.27362 7.39447L8.39373 7.41888C8.61447 7.46437 8.83854 7.3571 8.94061 7.15619L8.99725 7.04486C9.14294 6.75777 9.43454 6.52611 9.80487 6.5058L10.0051 6.49994C10.0722 6.49993 10.1394 6.50213 10.2062 6.5058ZM9.88494 7.50287L9.83221 7.60834C9.52614 8.21149 8.85403 8.53488 8.19159 8.39838L8.07733 8.37494C8.02439 8.43537 7.9741 8.4982 7.92694 8.56342L7.97772 8.67377C8.2569 9.28812 8.09142 10.0137 7.57342 10.4462L7.48065 10.5234C7.49481 10.6032 7.51303 10.6817 7.53436 10.7587L7.64959 10.788C8.30455 10.9528 8.76865 11.5347 8.78338 12.2099L8.78534 12.331C8.85531 12.369 8.92751 12.403 9.00116 12.4345L9.09491 12.3642C9.63257 11.9535 10.3786 11.9534 10.9162 12.3642L11.009 12.4345C11.0828 12.403 11.1547 12.3681 11.2248 12.33L11.2277 12.2099C11.2425 11.5348 11.7066 10.9528 12.3615 10.788L12.4758 10.7587C12.4972 10.6814 12.5143 10.6025 12.5285 10.5224L12.4367 10.4462C11.9188 10.0137 11.7533 9.28806 12.0324 8.67377L12.0822 8.56244C12.0353 8.49761 11.9855 8.43503 11.9328 8.37494L11.8185 8.39838C11.1562 8.53472 10.4849 8.21132 10.1789 7.60834L10.1252 7.50287C10.0453 7.49928 9.96484 7.49926 9.88494 7.50287ZM10.7076 10.7071C11.098 10.3166 11.098 9.68328 10.7076 9.2928C10.3171 8.90232 9.68376 8.90232 9.29328 9.2928C8.90281 9.68328 8.90281 10.3166 9.29328 10.7071C9.68376 11.0976 10.3171 11.0976 10.7076 10.7071Z" fill="#242629"/>
</svg>
