<svg width="14" height="14" viewBox="0 0 14 14" fill="none" xmlns="http://www.w3.org/2000/svg">
<g clip-path="url(#clip0_23737_257959)">
<path d="M6.99976 0.450195C10.6172 0.450195 13.5495 3.38262 13.5496 7C13.5496 10.6175 10.6172 13.5498 6.99976 13.5498C3.38238 13.5497 0.449951 10.6174 0.449951 7C0.450057 3.38269 3.38245 0.450301 6.99976 0.450195ZM3.51538 11.1904C4.33416 11.8721 5.35569 12.317 6.47632 12.4238C6.61099 10.8979 7.27617 9.45991 8.36792 8.36816C9.45967 7.27642 10.8977 6.61124 12.4236 6.47656C12.3167 5.35594 11.8718 4.3344 11.1902 3.51562L3.51538 11.1904ZM12.4177 7.58203C11.1865 7.71441 10.0301 8.26262 9.14624 9.14648C8.26238 10.0303 7.71416 11.1867 7.58179 12.418C10.1269 12.1478 12.1475 10.1271 12.4177 7.58203ZM7.52222 1.5752C7.38781 3.10161 6.72365 4.53977 5.63159 5.63184C4.53953 6.7239 3.10136 7.38805 1.57495 7.52246C1.6815 8.64299 2.1271 9.66451 2.80835 10.4834L10.4832 2.80859C9.66426 2.12734 8.64275 1.68175 7.52222 1.5752ZM6.41772 1.58105C3.87283 1.85136 1.85111 3.87307 1.58081 6.41797C2.81259 6.28586 3.96907 5.73771 4.85327 4.85352C5.73747 3.96932 6.28561 2.81284 6.41772 1.58105Z" fill="#242629"/>
</g>
<defs>
<clipPath id="clip0_23737_257959">
<rect width="14" height="14" fill="white"/>
</clipPath>
</defs>
</svg>
