<svg width="14" height="14" viewBox="0 0 14 14" fill="none" xmlns="http://www.w3.org/2000/svg">
<path d="M6.71777 0.962158C6.90404 0.926512 7.09596 0.926512 7.28223 0.962158C7.50896 1.0056 7.71571 1.11757 7.95605 1.24048L12.2627 3.44263C12.7148 3.67391 12.9998 4.13889 13 4.64673C12.9998 5.27128 12.5755 5.7947 12 5.95044V10.0862C12.5824 10.2922 13 10.8473 13 11.5002C12.9998 12.3285 12.3283 13.0002 11.5 13.0002H2.5C1.67171 13.0002 1.00022 12.3285 1 11.5002C1 10.8473 1.41757 10.2922 2 10.0862V5.95044C1.42453 5.7947 1.00018 5.27128 1 4.64673C1.00017 4.13889 1.28517 3.67391 1.7373 3.44263L6.04395 1.24048C6.28429 1.11757 6.49104 1.0056 6.71777 0.962158ZM2.5 11.0002C2.22386 11.0002 2 11.2241 2 11.5002C2.00022 11.7762 2.22399 12.0002 2.5 12.0002H11.5C11.776 12.0002 11.9998 11.7762 12 11.5002C12 11.2241 11.7761 11.0002 11.5 11.0002H2.5ZM3 10.0002H5V6.00024H3V10.0002ZM6 10.0002H8V6.00024H6V10.0002ZM9 10.0002H11V6.00024H9V10.0002ZM6.90625 1.94458C6.85266 1.95485 6.79216 1.98022 6.49902 2.13013L2.19238 4.33325C2.07464 4.39359 2.00017 4.51443 2 4.64673C2.00022 4.84153 2.15867 5.00024 2.35352 5.00024H11.6465C11.8413 5.00024 11.9998 4.84153 12 4.64673C11.9998 4.51443 11.9254 4.39359 11.8076 4.33325L7.50098 2.13013C7.20784 1.98022 7.14734 1.95485 7.09375 1.94458C7.03183 1.93277 6.96817 1.93277 6.90625 1.94458Z" fill="#242629"/>
</svg>
