<svg width="14" height="14" viewBox="0 0 14 14" fill="none" xmlns="http://www.w3.org/2000/svg">
<path d="M8 2C9.38071 2 10.5 3.11929 10.5 4.5C10.5 5.19582 10.2146 5.82411 9.75586 6.27734C10.7849 6.75281 11.5 7.79193 11.5 9C11.5 10.6569 10.1569 12 8.5 12H3.5C3.22386 12 3 11.7761 3 11.5L3 2.5C3 2.22386 3.22386 2 3.5 2L8 2ZM4.5 11H8C9.10457 11 10 10.1046 10 9C10 7.96435 9.21278 7.113 8.2041 7.01074L8 7L4.5 7L4.5 11ZM4.5 6L7.5 6C8.32843 6 9 5.32843 9 4.5C9 3.72334 8.40972 3.08461 7.65332 3.00781L7.5 3L4.5 3L4.5 6Z" fill="#242629"/>
</svg>
