<svg width="14" height="14" viewBox="0 0 14 14" fill="none" xmlns="http://www.w3.org/2000/svg">
<path d="M4.5 1C4.77614 1 5 1.22386 5 1.5C5 1.77614 4.77614 2 4.5 2C3.67157 2 3 2.67157 3 3.5V5.05859C2.99997 5.82828 2.64649 6.53477 2.07227 7C2.64649 7.46523 2.99997 8.17172 3 8.94141V10.5C3 11.3284 3.67157 12 4.5 12C4.77614 12 5 12.2239 5 12.5C5 12.7761 4.77614 13 4.5 13C3.11929 13 2 11.8807 2 10.5V8.94141C1.99995 8.2959 1.58694 7.72279 0.974609 7.51855L0.841797 7.47461C0.637626 7.40655 0.5 7.21522 0.5 7C0.5 6.78478 0.637626 6.59345 0.841797 6.52539L0.974609 6.48145C1.58694 6.27721 1.99995 5.7041 2 5.05859V3.5C2 2.11929 3.11929 1 4.5 1ZM9.5 1C10.8807 1 12 2.11929 12 3.5V5.05859C12 5.7041 12.4131 6.27721 13.0254 6.48145L13.1582 6.52539C13.3624 6.59345 13.5 6.78478 13.5 7C13.5 7.21522 13.3624 7.40655 13.1582 7.47461L13.0254 7.51855C12.4131 7.72279 12 8.2959 12 8.94141V10.5C12 11.8807 10.8807 13 9.5 13C9.22386 13 9 12.7761 9 12.5C9 12.2239 9.22386 12 9.5 12C10.3284 12 11 11.3284 11 10.5V8.94141C11 8.17172 11.3535 7.46523 11.9277 7C11.3535 6.53477 11 5.82828 11 5.05859V3.5C11 2.67157 10.3284 2 9.5 2C9.22386 2 9 1.77614 9 1.5C9 1.22386 9.22386 1 9.5 1ZM8.14648 5.14648C8.34175 4.95122 8.65825 4.95122 8.85352 5.14648C9.04878 5.34175 9.04878 5.65825 8.85352 5.85352L7.70703 7L8.85352 8.14648L8.91797 8.22461C9.04613 8.41869 9.02438 8.68265 8.85352 8.85352C8.68265 9.02438 8.41869 9.04613 8.22461 8.91797L8.14648 8.85352L7 7.70703L5.85352 8.85352L5.77539 8.91797C5.58131 9.04613 5.31735 9.02438 5.14648 8.85352C4.97562 8.68265 4.95387 8.41869 5.08203 8.22461L5.14648 8.14648L6.29297 7L5.14648 5.85352C4.95122 5.65825 4.95122 5.34175 5.14648 5.14648C5.34175 4.95122 5.65825 4.95122 5.85352 5.14648L7 6.29297L8.14648 5.14648Z" fill="#242629"/>
</svg>
