<svg width="14" height="14" viewBox="0 0 14 14" fill="none" xmlns="http://www.w3.org/2000/svg">
<path d="M7.00012 1C7.27618 1.00009 7.50011 1.22392 7.50012 1.5V4.1875C7.50013 4.63622 7.8639 5 8.31262 5C9.79681 5.00009 11.0001 6.2033 11.0001 7.6875V11.293L12.1466 10.1465C12.3419 9.95131 12.6584 9.95125 12.8536 10.1465C13.0488 10.3417 13.0488 10.6583 12.8536 10.8535L10.8536 12.8535L10.7755 12.918C10.5815 13.0461 10.3175 13.0243 10.1466 12.8535L8.14661 10.8535L8.08215 10.7754C7.95399 10.5813 7.97574 10.3173 8.14661 10.1465C8.31747 9.9757 8.58147 9.95389 8.77551 10.082L8.85364 10.1465L10.0001 11.293V7.6875C10.0001 6.75558 9.24452 6.00009 8.31262 6C7.79525 6 7.32939 5.78225 6.99915 5.43457C6.66898 5.78174 6.20453 5.99996 5.68762 6C4.75565 6 4.00014 6.75553 4.00012 7.6875V11.293L5.14661 10.1465L5.22473 10.082C5.4188 9.95396 5.68281 9.97566 5.85364 10.1465C6.02441 10.3173 6.04617 10.5813 5.91809 10.7754L5.85364 10.8535L3.85364 12.8535C3.6828 13.0244 3.4188 13.0461 3.22473 12.918L3.14661 12.8535L1.14661 10.8535C0.951345 10.6583 0.951344 10.3417 1.14661 10.1465C1.34188 9.95131 1.65841 9.95125 1.85364 10.1465L3.00012 11.293V7.6875C3.00014 6.20325 4.20336 5 5.68762 5C6.13628 4.99991 6.50012 4.63618 6.50012 4.1875V1.5C6.50013 1.22387 6.72399 1 7.00012 1Z" fill="#242629"/>
</svg>
