<svg width="14" height="14" viewBox="0 0 14 14" fill="none" xmlns="http://www.w3.org/2000/svg">
<g clip-path="url(#clip0_19835_2057)">
<path d="M7 12C7.27614 12 7.5 12.2239 7.5 12.5V13C7.5 13.2761 7.27614 13.5 7 13.5C6.72386 13.5 6.5 13.2761 6.5 13V12.5C6.5 12.2239 6.72386 12 7 12ZM9.7998 2.5C10.3516 2.5 10.7957 2.5 11.1543 2.5293C11.5186 2.55907 11.8387 2.62163 12.1348 2.77246C12.6052 3.01214 12.9879 3.39483 13.2275 3.86523C13.3784 4.16133 13.4409 4.48136 13.4707 4.8457C13.5 5.20429 13.5 5.64839 13.5 6.2002V7.7998C13.5 8.35161 13.5 8.79571 13.4707 9.1543C13.4409 9.51864 13.3784 9.83867 13.2275 10.1348C12.9879 10.6052 12.6052 10.9879 12.1348 11.2275C11.8387 11.3784 11.5186 11.4409 11.1543 11.4707C10.7957 11.5 10.3516 11.5 9.7998 11.5H4.2002C3.64839 11.5 3.20429 11.5 2.8457 11.4707C2.48136 11.4409 2.16133 11.3784 1.86523 11.2275C1.39483 10.9879 1.01214 10.6052 0.772461 10.1348C0.621634 9.83867 0.559066 9.51864 0.529297 9.1543C0.499999 8.79571 0.5 8.35161 0.5 7.7998V6.2002C0.5 5.64839 0.499999 5.20429 0.529297 4.8457C0.559066 4.48136 0.621634 4.16133 0.772461 3.86523C1.01214 3.39483 1.39483 3.01214 1.86523 2.77246C2.16133 2.62163 2.48136 2.55907 2.8457 2.5293C3.20429 2.5 3.64839 2.5 4.2002 2.5H9.7998ZM4.2002 3.5C3.63189 3.5 3.23518 3.50019 2.92676 3.52539C2.62471 3.55009 2.45091 3.59613 2.31934 3.66309C2.03709 3.8069 1.8069 4.03709 1.66309 4.31934C1.59613 4.45091 1.55009 4.62471 1.52539 4.92676C1.50019 5.23518 1.5 5.63189 1.5 6.2002V7.7998C1.5 8.36811 1.50019 8.76482 1.52539 9.07324C1.55009 9.37529 1.59613 9.54909 1.66309 9.68066C1.8069 9.96291 2.03709 10.1931 2.31934 10.3369C2.45091 10.4039 2.62471 10.4499 2.92676 10.4746C3.23518 10.4998 3.63189 10.5 4.2002 10.5H9.7998C10.3681 10.5 10.7648 10.4998 11.0732 10.4746C11.3753 10.4499 11.5491 10.4039 11.6807 10.3369C11.9629 10.1931 12.1931 9.96291 12.3369 9.68066C12.4039 9.54909 12.4499 9.37529 12.4746 9.07324C12.4998 8.76482 12.5 8.36811 12.5 7.7998V6.2002C12.5 5.63189 12.4998 5.23518 12.4746 4.92676C12.4499 4.62471 12.4039 4.45091 12.3369 4.31934C12.1931 4.03709 11.9629 3.8069 11.6807 3.66309C11.5491 3.59613 11.3753 3.55009 11.0732 3.52539C10.7648 3.50019 10.3681 3.5 9.7998 3.5H4.2002ZM3 5.86719C3 5.20685 3.67889 4.78653 4.25781 5.04102L4.37207 5.10059L6.20996 6.23438C6.78001 6.58598 6.78007 7.41503 6.20996 7.7666L4.37207 8.89941C3.7726 9.26886 3.00029 8.83793 3 8.13379V5.86719ZM8.5 5.25C8.77614 5.25 9 5.47386 9 5.75V8.25C9 8.52614 8.77614 8.75 8.5 8.75C8.22386 8.75 8 8.52614 8 8.25V5.75L8.00977 5.64941C8.05629 5.42145 8.25829 5.25 8.5 5.25ZM10.5 5.25C10.7761 5.25 11 5.47386 11 5.75V8.25C11 8.52614 10.7761 8.75 10.5 8.75C10.2239 8.75 10 8.52614 10 8.25V5.75L10.0098 5.64941C10.0563 5.42145 10.2583 5.25 10.5 5.25ZM4 7.9541L5.54688 7L4 6.0459V7.9541ZM7 0.5C7.27614 0.5 7.5 0.723858 7.5 1V1.5C7.5 1.77614 7.27614 2 7 2C6.72386 2 6.5 1.77614 6.5 1.5V1C6.5 0.723858 6.72386 0.5 7 0.5Z" fill="#242629"/>
</g>
<defs>
<clipPath id="clip0_19835_2057">
<rect width="14" height="14" fill="white"/>
</clipPath>
</defs>
</svg>
