<svg width="14" height="14" viewBox="0 0 14 14" fill="none" xmlns="http://www.w3.org/2000/svg">
<path d="M2 9.75C2.41421 9.75 2.75 10.0858 2.75 10.5C2.75 10.9142 2.41421 11.25 2 11.25C1.58579 11.25 1.25 10.9142 1.25 10.5C1.25 10.0858 1.58579 9.75 2 9.75ZM12 9.9502C12.3038 9.9502 12.5498 10.1962 12.5498 10.5C12.5498 10.8038 12.3038 11.0498 12 11.0498H4.5498C4.24605 11.0498 4 10.8038 4 10.5C4 10.1962 4.24605 9.9502 4.5498 9.9502H12ZM2 6.2998C2.41419 6.2998 2.74997 6.63562 2.75 7.0498C2.75 7.46402 2.41421 7.7998 2 7.7998C1.58579 7.7998 1.25 7.46402 1.25 7.0498C1.25003 6.63562 1.58581 6.2998 2 6.2998ZM12 6.4502C12.3038 6.4502 12.5498 6.69624 12.5498 7C12.5497 7.30371 12.3037 7.5498 12 7.5498H4.5498C4.24613 7.54976 4.00006 7.30368 4 7C4 6.69627 4.24609 6.45024 4.5498 6.4502H12ZM2 2.75C2.41421 2.75 2.75 3.08579 2.75 3.5C2.75 3.91421 2.41421 4.25 2 4.25C1.58579 4.25 1.25 3.91421 1.25 3.5C1.25 3.08579 1.58579 2.75 2 2.75ZM12 2.9502C12.3038 2.9502 12.5498 3.19625 12.5498 3.5C12.5498 3.80376 12.3038 4.0498 12 4.0498H4.5498C4.24605 4.0498 4 3.80376 4 3.5C4.00001 3.19625 4.24605 2.9502 4.5498 2.9502H12Z" fill="#242629"/>
</svg>
