<svg width="14" height="14" viewBox="0 0 14 14" fill="none" xmlns="http://www.w3.org/2000/svg">
<path d="M11.7225 8.58398C11.8759 8.4817 12.0736 8.47256 12.2361 8.55957C12.3984 8.64666 12.4998 8.81578 12.4998 9V13.5C12.4998 13.7761 12.276 14 11.9998 14C11.7237 14 11.4998 13.7761 11.4998 13.5V9.93359L10.7772 10.416C10.5474 10.5692 10.237 10.5071 10.0838 10.2773C9.93062 10.0476 9.99271 9.73716 10.2225 9.58398L11.7225 8.58398ZM9.49982 1C9.77596 1 9.99982 1.22386 9.99982 1.5V2.00586C10.2524 2.0107 10.4788 2.0195 10.6824 2.03613C11.1302 2.07272 11.5125 2.14901 11.8621 2.32715C12.4263 2.61472 12.8851 3.07347 13.1727 3.6377C13.3508 3.98732 13.4271 4.36958 13.4637 4.81738C13.4998 5.25934 13.4998 5.80822 13.4998 6.5L13.4998 7C13.4998 7.27614 13.276 7.5 12.9998 7.5C12.7237 7.5 12.4998 7.27614 12.4998 7L12.4998 6.5C12.4998 5.79168 12.4996 5.29023 12.4676 4.89844C12.4361 4.51264 12.3764 4.27691 12.282 4.0918C12.0903 3.71554 11.7843 3.40951 11.408 3.21777C11.2229 3.12345 10.9872 3.06377 10.6014 3.03223C10.4258 3.01788 10.2282 3.01028 9.99982 3.00586V3.5C9.99982 3.77614 9.77596 4 9.49982 4C9.22367 4 8.99982 3.77614 8.99982 3.5V3L4.99982 3V3.5C4.99982 3.77614 4.77596 4 4.49982 4C4.22367 4 3.99982 3.77614 3.99982 3.5V3.00586C3.77144 3.01028 3.57383 3.01788 3.39825 3.03223C3.01245 3.06377 2.77673 3.12345 2.59161 3.21777C2.21536 3.40951 1.90932 3.71554 1.71759 4.0918C1.62327 4.27691 1.56358 4.51264 1.53204 4.89844C1.50003 5.29023 1.49982 5.79168 1.49982 6.5L1.49982 8.5C1.49982 9.20832 1.50003 9.70977 1.53204 10.1016C1.56358 10.4874 1.62327 10.7231 1.71759 10.9082C1.90932 11.2845 2.21536 11.5905 2.59161 11.7822C2.77673 11.8765 3.01245 11.9362 3.39825 11.9678C3.79005 11.9998 4.2915 12 4.99982 12L8.99982 12C9.27596 12 9.49982 12.2239 9.49982 12.5C9.49982 12.7761 9.27596 13 8.99982 13L4.99982 13C4.30803 13 3.75915 13 3.3172 12.9639C2.8694 12.9273 2.48714 12.851 2.13751 12.6729C1.57329 12.3853 1.11454 11.9265 0.826965 11.3623C0.648823 11.0127 0.572536 10.6304 0.53595 10.1826C0.499845 9.74066 0.499817 9.19178 0.499817 8.5L0.499817 6.5C0.499817 5.80822 0.499845 5.25934 0.53595 4.81738C0.572536 4.36958 0.648823 3.98732 0.826965 3.6377C1.11454 3.07347 1.57329 2.61472 2.13751 2.32715C2.48714 2.14901 2.8694 2.07272 3.3172 2.03613C3.52086 2.0195 3.74723 2.0107 3.99982 2.00586V1.5C3.99982 1.22386 4.22367 1 4.49982 1C4.77596 1 4.99982 1.22386 4.99982 1.5V2L8.99982 2V1.5C8.99982 1.22386 9.22367 1 9.49982 1ZM10.4998 5C10.776 5 10.9998 5.22386 10.9998 5.5C10.9998 5.77614 10.776 6 10.4998 6L3.49982 6C3.22367 6 2.99982 5.77614 2.99982 5.5C2.99982 5.22386 3.22367 5 3.49982 5L10.4998 5Z" fill="#242629"/>
</svg>
