<svg width="14" height="14" viewBox="0 0 14 14" fill="none" xmlns="http://www.w3.org/2000/svg">
<path d="M11.5 9C11.7761 9 12 9.22386 12 9.5V11H13.5C13.7761 11 14 11.2239 14 11.5C14 11.7761 13.7761 12 13.5 12H12V13.5C12 13.7761 11.7761 14 11.5 14C11.2239 14 11 13.7761 11 13.5V12H9.5C9.22386 12 9 11.7761 9 11.5C9 11.2239 9.22386 11 9.5 11H11V9.5C11 9.22386 11.2239 9 11.5 9ZM9.5 1C9.77614 1 10 1.22386 10 1.5V2.00586C10.2526 2.0107 10.479 2.0195 10.6826 2.03613C11.1304 2.07272 11.5127 2.14901 11.8623 2.32715C12.4265 2.61472 12.8853 3.07347 13.1729 3.6377C13.351 3.98732 13.4273 4.36958 13.4639 4.81738C13.5 5.25934 13.5 5.80822 13.5 6.5L13.5 7.5C13.5 7.77614 13.2761 8 13 8C12.7239 8 12.5 7.77614 12.5 7.5L12.5 6.5C12.5 5.79168 12.4998 5.29023 12.4678 4.89844C12.4362 4.51264 12.3765 4.27691 12.2822 4.0918C12.0905 3.71554 11.7845 3.40951 11.4082 3.21777C11.2231 3.12345 10.9874 3.06377 10.6016 3.03223C10.426 3.01788 10.2284 3.01028 10 3.00586V3.5C10 3.77614 9.77614 4 9.5 4C9.22386 4 9 3.77614 9 3.5V3L5 3V3.5C5 3.77614 4.77614 4 4.5 4C4.22386 4 4 3.77614 4 3.5V3.00586C3.77163 3.01028 3.57402 3.01788 3.39844 3.03223C3.01264 3.06377 2.77691 3.12345 2.5918 3.21777C2.21554 3.40951 1.90951 3.71554 1.71777 4.0918C1.62345 4.27691 1.56377 4.51264 1.53223 4.89844C1.50022 5.29023 1.5 5.79168 1.5 6.5L1.5 8.5C1.5 9.20832 1.50022 9.70977 1.53223 10.1016C1.56377 10.4874 1.62345 10.7231 1.71777 10.9082C1.90951 11.2845 2.21554 11.5905 2.5918 11.7822C2.77691 11.8765 3.01264 11.9362 3.39844 11.9678C3.79023 11.9998 4.29168 12 5 12L7 12C7.27614 12 7.5 12.2239 7.5 12.5C7.5 12.7761 7.27614 13 7 13L5 13C4.30822 13 3.75934 13 3.31738 12.9639C2.86958 12.9273 2.48732 12.851 2.1377 12.6729C1.57347 12.3853 1.11472 11.9265 0.827148 11.3623C0.649006 11.0127 0.57272 10.6304 0.536133 10.1826C0.500028 9.74066 0.5 9.19178 0.5 8.5L0.5 6.5C0.5 5.80822 0.500028 5.25934 0.536133 4.81738C0.57272 4.36958 0.649006 3.98732 0.827148 3.6377C1.11472 3.07347 1.57347 2.61472 2.1377 2.32715C2.48732 2.14901 2.86958 2.07272 3.31738 2.03613C3.52104 2.0195 3.74741 2.0107 4 2.00586V1.5C4 1.22386 4.22386 1 4.5 1C4.77614 1 5 1.22386 5 1.5V2L9 2V1.5C9 1.22386 9.22386 1 9.5 1ZM10.5 5C10.7761 5 11 5.22386 11 5.5C11 5.77614 10.7761 6 10.5 6L3.5 6C3.22386 6 3 5.77614 3 5.5C3 5.22386 3.22386 5 3.5 5L10.5 5Z" fill="#242629"/>
</svg>
