<svg width="14" height="14" viewBox="0 0 14 14" fill="none" xmlns="http://www.w3.org/2000/svg">
<path d="M10.5 7C12.433 7 14 8.567 14 10.5C14 12.433 12.433 14 10.5 14C8.567 14 7 12.433 7 10.5C7 8.567 8.567 7 10.5 7ZM9.5 1C9.77614 1 10 1.22386 10 1.5V2C10.5449 2.00108 10.9202 2.01105 11.2461 2.09473C12.3059 2.36689 13.1331 3.19412 13.4053 4.25391C13.5035 4.63638 13.5 5.0869 13.5 5.7998V6C13.5 6.27614 13.2761 6.5 13 6.5C12.7239 6.5 12.5 6.27614 12.5 6V5.7998C12.5 5.02562 12.4963 4.73216 12.4375 4.50293C12.2561 3.79633 11.7037 3.24392 10.9971 3.0625C10.8001 3.012 10.5558 3.00275 10 3.00098V3.5C10 3.77614 9.77614 4 9.5 4C9.22386 4 9 3.77614 9 3.5V3L5 3V3.5C5 3.77614 4.77614 4 4.5 4C4.22386 4 4 3.77614 4 3.5V3.00586C3.77163 3.01028 3.57402 3.01788 3.39844 3.03223C3.01264 3.06377 2.77691 3.12345 2.5918 3.21777C2.21554 3.40951 1.90951 3.71554 1.71777 4.0918C1.62345 4.27691 1.56377 4.51264 1.53223 4.89844C1.50022 5.29023 1.5 5.79168 1.5 6.5L1.5 8.5C1.5 9.20832 1.50022 9.70977 1.53223 10.1016C1.56377 10.4874 1.62345 10.7231 1.71777 10.9082C1.90951 11.2845 2.21554 11.5905 2.5918 11.7822C2.77691 11.8765 3.01264 11.9362 3.39844 11.9678C3.79023 11.9998 4.29168 12 5 12H5.5C5.77614 12 6 12.2239 6 12.5C6 12.7761 5.77614 13 5.5 13H5C4.30822 13 3.75934 13 3.31738 12.9639C2.86958 12.9273 2.48732 12.851 2.1377 12.6729C1.57347 12.3853 1.11472 11.9265 0.827148 11.3623C0.649006 11.0127 0.57272 10.6304 0.536133 10.1826C0.500028 9.74066 0.5 9.19178 0.5 8.5L0.5 6.5C0.5 5.80822 0.500028 5.25934 0.536133 4.81738C0.57272 4.36958 0.649006 3.98732 0.827148 3.6377C1.11472 3.07347 1.57347 2.61472 2.1377 2.32715C2.48732 2.14901 2.86958 2.07272 3.31738 2.03613C3.52104 2.0195 3.74741 2.0107 4 2.00586V1.5C4 1.22386 4.22386 1 4.5 1C4.77614 1 5 1.22386 5 1.5V2L9 2V1.5C9 1.22386 9.22386 1 9.5 1ZM10.5 8C9.11929 8 8 9.11929 8 10.5C8 11.8807 9.11929 13 10.5 13C11.8807 13 13 11.8807 13 10.5C13 9.11929 11.8807 8 10.5 8ZM10.5 9C10.7761 9 11 9.22386 11 9.5V10.5C11 10.7761 10.7761 11 10.5 11H9.5C9.22386 11 9 10.7761 9 10.5C9 10.2239 9.22386 10 9.5 10H10V9.5C10 9.22386 10.2239 9 10.5 9ZM10.5 5C10.7761 5 11 5.22386 11 5.5C11 5.77614 10.7761 6 10.5 6L3.5 6C3.22386 6 3 5.77614 3 5.5C3 5.22386 3.22386 5 3.5 5L10.5 5Z" fill="#242629"/>
</svg>
