<svg width="14" height="14" viewBox="0 0 14 14" fill="none" xmlns="http://www.w3.org/2000/svg">
<path d="M8.14355 0.999512C8.42529 0.999512 8.67063 0.9943 8.90039 1.06396C9.08884 1.1212 9.26478 1.21535 9.41699 1.34033C9.60253 1.49282 9.73433 1.70061 9.89062 1.93506L10.2549 2.48096L10.2676 2.49951H10.29C10.4767 2.49951 10.5945 2.49958 10.6973 2.50635C12.1982 2.60548 13.3938 3.8014 13.4932 5.30225C13.4999 5.40496 13.5 5.52305 13.5 5.70947V8.49951C13.5 9.19105 13.4999 9.74026 13.4639 10.1821C13.4273 10.6298 13.3509 11.0123 13.1729 11.3618C12.8853 11.926 12.4264 12.3848 11.8623 12.6724C11.5127 12.8505 11.1304 12.9268 10.6826 12.9634C10.2407 12.9995 9.69178 12.9995 9 12.9995H5C4.30822 12.9995 3.75934 12.9995 3.31738 12.9634C2.8696 12.9268 2.48731 12.8505 2.1377 12.6724C1.57356 12.3848 1.11469 11.926 0.827148 11.3618C0.649143 11.0123 0.572706 10.6298 0.536133 10.1821C0.500066 9.74026 0.5 9.19105 0.5 8.49951V5.70947C0.5 5.52305 0.500074 5.40496 0.506836 5.30225C0.606201 3.8014 1.80182 2.60548 3.30273 2.50635C3.40553 2.49958 3.52328 2.49951 3.70996 2.49951H3.73242L3.74512 2.48096L4.10938 1.93506C4.26567 1.70061 4.39747 1.49282 4.58301 1.34033C4.73522 1.21535 4.91116 1.1212 5.09961 1.06396C5.32937 0.9943 5.57471 0.999512 5.85645 0.999512H8.14355ZM5.85645 1.99951C5.51252 1.99951 5.4439 2.00455 5.38965 2.021C5.32703 2.04004 5.26839 2.0713 5.21777 2.11279C5.17397 2.14879 5.13215 2.20364 4.94141 2.48975L4.57715 3.03564C4.56744 3.05021 4.55451 3.06982 4.54102 3.08838C4.36135 3.33508 4.07837 3.48594 3.77344 3.49854C3.75047 3.49948 3.72751 3.49951 3.70996 3.49951C3.50708 3.49951 3.42984 3.49935 3.36816 3.50342C2.36761 3.5695 1.57022 4.36718 1.50391 5.36768C1.49984 5.42931 1.5 5.50691 1.5 5.70947V8.49951C1.5 9.20754 1.50025 9.70935 1.53223 10.1011C1.56375 10.4866 1.62356 10.7227 1.71777 10.9077C1.90948 11.2839 2.21563 11.59 2.5918 11.7817C2.7769 11.8761 3.01266 11.9357 3.39844 11.9673C3.79023 11.9993 4.29168 11.9995 5 11.9995H9C9.70832 11.9995 10.2098 11.9993 10.6016 11.9673C10.9873 11.9357 11.2231 11.8761 11.4082 11.7817C11.7844 11.59 12.0905 11.2839 12.2822 10.9077C12.3764 10.7227 12.4363 10.4866 12.4678 10.1011C12.4997 9.70935 12.5 9.20754 12.5 8.49951V5.70947C12.5 5.50691 12.5002 5.42931 12.4961 5.36768C12.4298 4.36718 11.6324 3.5695 10.6318 3.50342C10.5702 3.49935 10.4929 3.49951 10.29 3.49951C10.2725 3.49951 10.2495 3.49948 10.2266 3.49854C9.92163 3.48594 9.63865 3.33508 9.45898 3.08838C9.44549 3.06982 9.43256 3.05021 9.42285 3.03564L9.05859 2.48975C8.86785 2.20364 8.82603 2.14879 8.78223 2.11279C8.73161 2.0713 8.67297 2.04004 8.61035 2.021C8.5561 2.00455 8.48748 1.99951 8.14355 1.99951H5.85645ZM7 4.49951C8.65674 4.49951 9.99981 5.84282 10 7.49951C10 9.15637 8.65685 10.4995 7 10.4995C5.34315 10.4995 4 9.15637 4 7.49951C4.00019 5.84282 5.34326 4.49951 7 4.49951ZM7 5.49951C5.89555 5.49951 5.00019 6.39511 5 7.49951C5 8.60408 5.89543 9.49951 7 9.49951C8.10457 9.49951 9 8.60408 9 7.49951C8.99981 6.39511 8.10445 5.49951 7 5.49951Z" fill="#242629"/>
</svg>
