<svg width="14" height="14" viewBox="0 0 14 14" fill="none" xmlns="http://www.w3.org/2000/svg">
<path d="M2 6.50012C2.27614 6.50012 2.5 6.72398 2.5 7.00012V7.40051C2.50029 9.11222 3.88789 10.4999 5.59961 10.5001H8.79297L7.64648 9.35364L7.58203 9.27551C7.45389 9.08146 7.47569 8.81747 7.64648 8.64661C7.81735 8.47574 8.08131 8.45399 8.27539 8.58215L8.35352 8.64661L10.3535 10.6466C10.5487 10.8419 10.5488 11.1584 10.3535 11.3536L8.35352 13.3536C8.15827 13.5488 7.84173 13.5488 7.64648 13.3536C7.45125 13.1584 7.4513 12.8419 7.64648 12.6466L8.79297 11.5001H5.59961C3.3356 11.4999 1.50029 9.6645 1.5 7.40051V7.00012C1.5 6.72398 1.72386 6.50012 2 6.50012ZM5.64648 0.646606C5.84175 0.451344 6.15825 0.451344 6.35352 0.646606C6.5487 0.841875 6.54875 1.1584 6.35352 1.35364L5.20703 2.50012H8.40039C10.6644 2.50033 12.4998 4.33567 12.5 6.59973V7.00012C12.4999 7.2762 12.2761 7.50012 12 7.50012C11.7239 7.50012 11.5001 7.2762 11.5 7.00012V6.59973C11.4998 4.88796 10.1122 3.50033 8.40039 3.50012H5.20703L6.35352 4.64661L6.41797 4.72473C6.54606 4.9188 6.52435 5.18281 6.35352 5.35364C6.18267 5.52441 5.91865 5.54619 5.72461 5.41809L5.64648 5.35364L3.64648 3.35364C3.45125 3.1584 3.4513 2.84187 3.64648 2.64661L5.64648 0.646606Z" fill="#242629"/>
</svg>
