<svg width="14" height="14" viewBox="0 0 14 14" fill="none" xmlns="http://www.w3.org/2000/svg">
<path d="M3.14661 3.14661C3.34187 2.95134 3.65838 2.95134 3.85364 3.14661L7.35364 6.64661C7.54875 6.84188 7.54885 7.15843 7.35364 7.35364L3.85364 10.8536C3.65843 11.0488 3.34188 11.0487 3.14661 10.8536C2.95134 10.6584 2.95134 10.3419 3.14661 10.1466L6.29309 7.00012L3.14661 3.85364C2.95134 3.65838 2.95134 3.34187 3.14661 3.14661ZM7.64661 3.14661C7.84187 2.95134 8.15838 2.95134 8.35364 3.14661L11.8536 6.64661C12.0487 6.84188 12.0489 7.15843 11.8536 7.35364L8.35364 10.8536C8.15843 11.0488 7.84188 11.0487 7.64661 10.8536C7.45134 10.6584 7.45134 10.3419 7.64661 10.1466L10.7931 7.00012L7.64661 3.85364C7.45134 3.65838 7.45134 3.34187 7.64661 3.14661Z" fill="#242629"/>
</svg>
