<svg width="14" height="14" viewBox="0 0 14 14" fill="none" xmlns="http://www.w3.org/2000/svg">
<g clip-path="url(#clip0_19835_2639)">
<path d="M6.99976 0.450195C10.6171 0.450195 13.5494 3.38265 13.5496 7C13.5496 10.6175 10.6172 13.5498 6.99976 13.5498C3.3824 13.5497 0.449951 10.6174 0.449951 7C0.450083 3.38273 3.38248 0.450327 6.99976 0.450195ZM6.99976 1.5498C3.99 1.54994 1.54969 3.99024 1.54956 7C1.54956 10.0099 3.98992 12.4501 6.99976 12.4502C10.0097 12.4502 12.45 10.01 12.45 7C12.4498 3.99016 10.0096 1.5498 6.99976 1.5498ZM6.99976 9.75C7.41393 9.75 7.74969 10.0858 7.74976 10.5C7.74976 10.9142 7.41397 11.25 6.99976 11.25C6.58565 11.2499 6.24976 10.9141 6.24976 10.5C6.24982 10.0859 6.5857 9.75013 6.99976 9.75ZM4.52515 8.77539C4.91175 8.77539 5.22534 9.08899 5.22534 9.47559C5.2251 9.86198 4.9116 10.1748 4.52515 10.1748C4.13872 10.1748 3.82519 9.86197 3.82495 9.47559C3.82495 9.089 4.13857 8.77542 4.52515 8.77539ZM9.47534 8.77539C9.8616 8.77563 10.1743 9.08835 10.1746 9.47461C10.1746 9.86106 9.86174 10.1746 9.47534 10.1748C9.08874 10.1748 8.77515 9.86121 8.77515 9.47461C8.77537 9.0882 9.08888 8.77539 9.47534 8.77539ZM3.49976 6.2998C3.8863 6.2998 4.19986 6.61348 4.19995 7C4.19995 7.3866 3.88636 7.7002 3.49976 7.7002C3.11329 7.70004 2.80054 7.3865 2.80054 7C2.80063 6.61358 3.11335 6.29996 3.49976 6.2998ZM6.99976 3C7.27586 3 7.49969 3.22391 7.49976 3.5V6.11523C7.49976 6.32757 7.67222 6.49987 7.88452 6.5H10.4998C10.7759 6.5 10.9997 6.72391 10.9998 7C10.9998 7.27614 10.7759 7.5 10.4998 7.5H7.88452C7.11993 7.49987 6.49976 6.87986 6.49976 6.11523V3.5C6.49982 3.22399 6.72377 3.00013 6.99976 3ZM4.52515 3.8252C4.91175 3.8252 5.22534 4.13879 5.22534 4.52539C5.2253 4.91196 4.91172 5.22559 4.52515 5.22559C4.13859 5.22556 3.82499 4.91194 3.82495 4.52539C3.82495 4.13881 4.13857 3.82522 4.52515 3.8252Z" fill="#242629"/>
</g>
<defs>
<clipPath id="clip0_19835_2639">
<rect width="14" height="14" fill="white"/>
</clipPath>
</defs>
</svg>
