<svg width="14" height="14" viewBox="0 0 14 14" fill="none" xmlns="http://www.w3.org/2000/svg">
<g clip-path="url(#clip0_19835_2635)">
<path d="M7 0.5C10.5899 0.5 13.5 3.41015 13.5 7C13.5 10.5899 10.5899 13.5 7 13.5C3.41015 13.5 0.5 10.5899 0.5 7C0.5 3.41015 3.41015 0.5 7 0.5ZM7 1.5C3.96243 1.5 1.5 3.96243 1.5 7C1.5 10.0376 3.96243 12.5 7 12.5C10.0376 12.5 12.5 10.0376 12.5 7C12.5 3.96243 10.0376 1.5 7 1.5ZM7.5 3.4043C7.77608 3.40436 8 3.6282 8 3.9043V6.61621C7.99953 7.38047 7.37959 7.99993 6.61523 8H4.56738C4.29138 8 4.06761 7.77595 4.06738 7.5C4.06758 7.22403 4.29136 7 4.56738 7H6.61523C6.8273 6.99993 6.99953 6.82818 7 6.61621V3.9043C7 3.62824 7.22397 3.40443 7.5 3.4043Z" fill="#242629"/>
</g>
<defs>
<clipPath id="clip0_19835_2635">
<rect width="14" height="14" fill="white"/>
</clipPath>
</defs>
</svg>
