<svg width="14" height="14" viewBox="0 0 14 14" fill="none" xmlns="http://www.w3.org/2000/svg">
<path d="M9.99994 1.5C10.4453 1.5 10.7267 1.49863 10.9697 1.53711C12.253 1.74056 13.2594 2.74698 13.4628 4.03027C13.5013 4.27326 13.4999 4.55464 13.4999 5V8C13.4999 8.69176 13.4999 9.24067 13.4638 9.68262C13.4272 10.1304 13.3509 10.5127 13.1728 10.8623C12.8852 11.4265 12.4265 11.8853 11.8622 12.1729C11.5126 12.351 11.1303 12.4273 10.6826 12.4639C10.2406 12.5 9.6917 12.5 8.99994 12.5H4.99994C4.30818 12.5 3.75926 12.5 3.31732 12.4639C2.86955 12.4273 2.48724 12.351 2.13763 12.1729C1.57344 11.8853 1.11465 11.4265 0.827087 10.8623C0.64897 10.5127 0.572656 10.1304 0.536072 9.68262C0.499972 9.24067 0.499939 8.69175 0.499939 8V5C0.499939 4.55464 0.498563 4.27326 0.537048 4.03027C0.740515 2.74699 1.74693 1.74058 3.03021 1.53711C3.2732 1.49862 3.55458 1.5 3.99994 1.5H9.99994ZM1.49994 8C1.49994 8.70828 1.50016 9.20977 1.53217 9.60156C1.5637 9.98732 1.62341 10.2231 1.71771 10.4082C1.90944 10.7844 2.21551 11.0905 2.59174 11.2822C2.77684 11.3765 3.01261 11.4362 3.39838 11.4678C3.79016 11.4998 4.29165 11.5 4.99994 11.5H8.99994C9.70822 11.5 10.2097 11.4998 10.6015 11.4678C10.9873 11.4362 11.223 11.3765 11.4081 11.2822C11.7844 11.0905 12.0904 10.7845 12.2822 10.4082C12.3765 10.2231 12.4362 9.98735 12.4677 9.60156C12.4997 9.20977 12.4999 8.70828 12.4999 8V5.5H1.49994V8ZM3.14642 6.64648C3.31727 6.47564 3.58126 6.45392 3.77533 6.58203L3.85345 6.64648L5.35345 8.14648C5.52431 8.31734 5.54606 8.58131 5.41791 8.77539L5.35345 8.85352L3.85345 10.3535C3.65819 10.5488 3.34168 10.5488 3.14642 10.3535C2.95122 10.1582 2.95118 9.84173 3.14642 9.64648L4.29291 8.5L3.14642 7.35352L3.08197 7.27539C2.95385 7.08132 2.97558 6.81733 3.14642 6.64648ZM9.99994 9C10.2761 9 10.4999 9.22388 10.4999 9.5C10.4999 9.77614 10.2761 10 9.99994 10H6.99994C6.72382 9.99997 6.49994 9.77612 6.49994 9.5C6.49997 9.2239 6.72384 9.00003 6.99994 9H9.99994ZM3.99994 2.5C3.51681 2.5 3.33304 2.5014 3.18744 2.52441C2.33169 2.65997 1.65991 3.33175 1.52435 4.1875C1.51187 4.2665 1.50687 4.35682 1.50385 4.5H12.496C12.493 4.35682 12.488 4.2665 12.4755 4.1875C12.34 3.33175 11.6682 2.65995 10.8124 2.52441C10.6668 2.50141 10.483 2.5 9.99994 2.5H3.99994Z" fill="#242629"/>
</svg>
