<svg width="14" height="14" viewBox="0 0 14 14" fill="none" xmlns="http://www.w3.org/2000/svg">
<path d="M9 1.5C9.69178 1.5 10.2407 1.50003 10.6826 1.53613C11.1304 1.57272 11.5127 1.64901 11.8623 1.82715C12.4265 2.11472 12.8853 2.57348 13.1729 3.1377C13.351 3.48732 13.4273 3.86959 13.4639 4.31738C13.5 4.75934 13.5 5.30822 13.5 6V8C13.5 8.69178 13.5 9.24066 13.4639 9.68262C13.4273 10.1304 13.351 10.5127 13.1729 10.8623C12.8853 11.4265 12.4265 11.8853 11.8623 12.1729C11.5127 12.351 11.1304 12.4273 10.6826 12.4639C10.2407 12.5 9.69178 12.5 9 12.5H5C4.30822 12.5 3.75933 12.5 3.31738 12.4639C2.86959 12.4273 2.48732 12.351 2.1377 12.1729C1.57348 11.8853 1.11472 11.4265 0.827148 10.8623C0.649007 10.5127 0.572718 10.1304 0.536133 9.68262C0.500029 9.24066 0.499997 8.69178 0.5 8V6C0.500003 5.30823 0.500027 4.75933 0.536133 4.31738C0.572722 3.86958 0.649006 3.48732 0.827148 3.1377C1.11472 2.57348 1.57348 2.11472 2.1377 1.82715C2.48731 1.64901 2.86959 1.57272 3.31738 1.53613C3.75933 1.50003 4.30822 1.5 5 1.5H9ZM5.5 11.5H8.5V2.5H5.5V11.5ZM9.5 11.4971C9.9553 11.4955 10.309 11.4917 10.6016 11.4678C10.9874 11.4362 11.2231 11.3765 11.4082 11.2822C11.7845 11.0905 12.0905 10.7845 12.2822 10.4082C12.3765 10.2231 12.4362 9.98736 12.4678 9.60156C12.4998 9.20977 12.5 8.70831 12.5 8V6C12.5 5.29168 12.4998 4.79023 12.4678 4.39844C12.4362 4.01264 12.3765 3.77691 12.2822 3.5918C12.0905 3.21555 11.7845 2.90951 11.4082 2.71777C11.2231 2.62346 10.9874 2.56377 10.6016 2.53223C10.309 2.50832 9.9553 2.50355 9.5 2.50195V11.4971ZM4.5 2.50195C4.0447 2.50355 3.69099 2.50833 3.39844 2.53223C3.01267 2.56377 2.7769 2.62346 2.5918 2.71777C2.21555 2.90951 1.9095 3.21555 1.71777 3.5918C1.62345 3.77691 1.56377 4.01263 1.53223 4.39844C1.50021 4.79023 1.5 5.29169 1.5 6V8C1.5 8.70831 1.50022 9.20977 1.53223 9.60156C1.56377 9.98736 1.62345 10.2231 1.71777 10.4082C1.90951 10.7845 2.21555 11.0905 2.5918 11.2822C2.77691 11.3765 3.01265 11.4362 3.39844 11.4678C3.69099 11.4917 4.0447 11.4955 4.5 11.4971V2.50195Z" fill="#242629"/>
</svg>
