<svg width="14" height="14" viewBox="0 0 14 14" fill="none" xmlns="http://www.w3.org/2000/svg">
<path d="M7.25 0.999756C7.82562 0.99977 8.28271 0.999917 8.65234 1.02515C9.02631 1.05069 9.34773 1.1037 9.64844 1.22827C10.3833 1.53278 10.967 2.11737 11.2715 2.85229C11.396 3.15299 11.4491 3.47443 11.4746 3.84839C11.4899 4.07247 11.4946 4.32861 11.4971 4.62378C12.6525 5.03091 13.4518 6.10408 13.498 7.3396C13.5002 7.39763 13.5 7.46151 13.5 7.56128V11.0105C13.5 11.4857 13.5005 11.8771 13.4727 12.1814C13.4452 12.4807 13.3846 12.7867 13.1963 13.0359C12.9318 13.3856 12.5275 13.6024 12.0898 13.6287C11.778 13.6473 11.4899 13.5277 11.2256 13.3845C10.9568 13.2389 10.631 13.0213 10.2354 12.7576L10.126 12.6843C9.96232 12.5752 9.92859 12.5554 9.89746 12.5417C9.86158 12.5261 9.8237 12.5145 9.78516 12.5076C9.75165 12.5016 9.71276 12.4998 9.51562 12.4998H6C4.58444 12.4997 3.40052 11.5188 3.08496 10.2C2.97343 10.2694 2.87073 10.3323 2.77441 10.3845C2.51009 10.5278 2.22203 10.6473 1.91016 10.6287C1.47262 10.6024 1.06823 10.3864 0.803711 10.0369C0.615268 9.78774 0.554795 9.4817 0.527344 9.18237C0.49945 8.8779 0.5 8.48607 0.5 8.0105V5.49976C0.5 4.80799 0.500024 4.25908 0.536133 3.81714C0.572722 3.36935 0.649006 2.98707 0.827148 2.63745C1.11473 2.07325 1.57349 1.61446 2.1377 1.3269C2.48732 1.14877 2.86958 1.07247 3.31738 1.03589C3.75933 0.999791 4.30822 0.999739 5 0.999756H7.25ZM11.498 5.71851C11.4965 6.0815 11.4926 6.38895 11.4746 6.6521C11.4491 7.02618 11.3961 7.34741 11.2715 7.64819C10.967 8.38316 10.3834 8.96773 9.64844 9.27222C9.34761 9.39682 9.02551 9.44983 8.65137 9.47534C8.28185 9.50052 7.82529 9.49978 7.25 9.49976H4.48438C4.28716 9.49975 4.24836 9.50159 4.21484 9.50757C4.17626 9.51446 4.13846 9.52607 4.10254 9.54175C4.08242 9.55054 4.06141 9.56205 4.00488 9.59839C4.05625 10.6572 4.9285 11.4997 6 11.4998H9.51562C9.67844 11.4998 9.82037 11.4981 9.96094 11.5232C10.0765 11.5438 10.1893 11.5779 10.2969 11.6248C10.4277 11.6819 10.5452 11.762 10.6807 11.8523L10.79 11.9255C11.2022 12.2003 11.4832 12.387 11.7021 12.5056C11.9252 12.6264 12.0072 12.632 12.0303 12.6306C12.1759 12.6218 12.3103 12.5496 12.3984 12.4333C12.4125 12.4147 12.4534 12.3429 12.4766 12.0906C12.4993 11.8427 12.5 11.5057 12.5 11.0105V7.56128C12.5 7.45367 12.5003 7.41249 12.499 7.37769C12.4729 6.67871 12.0855 6.05665 11.498 5.71851ZM5 1.99976C4.29172 1.99974 3.79023 1.99998 3.39844 2.03198C3.01266 2.06351 2.7769 2.12322 2.5918 2.21753C2.21556 2.40925 1.90951 2.71533 1.71777 3.09155C1.62346 3.27665 1.56377 3.51244 1.53223 3.89819C1.50022 4.28997 1.5 4.7915 1.5 5.49976V8.0105C1.5 8.5058 1.50074 8.84262 1.52344 9.09058C1.54661 9.34349 1.58759 9.41486 1.60156 9.43335C1.68967 9.54965 1.82409 9.62178 1.96973 9.63062C1.99282 9.63199 2.07542 9.62669 2.29883 9.50562C2.51771 9.38696 2.79796 9.2002 3.20996 8.92554L3.31934 8.85229C3.45482 8.76197 3.57225 8.68286 3.70312 8.62573C3.81096 8.57868 3.92421 8.54384 4.04004 8.52319C4.18045 8.49823 4.32175 8.49975 4.48438 8.49976H7.25C7.83922 8.49978 8.25631 8.49964 8.58398 8.47729C8.90708 8.45525 9.10701 8.41409 9.26562 8.34839C9.75563 8.1454 10.1447 7.75538 10.3477 7.26538C10.4133 7.10676 10.4555 6.90683 10.4775 6.58374C10.4999 6.25608 10.5 5.8389 10.5 5.24976C10.5 4.66061 10.4999 4.24341 10.4775 3.91577C10.4555 3.59276 10.4134 3.39272 10.3477 3.23413C10.1446 2.74435 9.75544 2.35505 9.26562 2.1521C9.10699 2.08639 8.90714 2.04428 8.58398 2.02222C8.2563 1.99985 7.83929 1.99977 7.25 1.99976H5Z" fill="#242629"/>
</svg>
