<svg width="14" height="14" viewBox="0 0 14 14" fill="none" xmlns="http://www.w3.org/2000/svg">
<path d="M10.25 1.5C11.4926 1.5 12.5 2.50736 12.5 3.75C12.5 4.99264 11.4926 6 10.25 6H9V8H10.25C11.4926 8 12.5 9.00736 12.5 10.25C12.5 11.4926 11.4926 12.5 10.25 12.5C9.00736 12.5 8 11.4926 8 10.25V9H6V10.25C6 11.4926 4.99264 12.5 3.75 12.5C2.50736 12.5 1.5 11.4926 1.5 10.25C1.5 9.00736 2.50736 8 3.75 8H5V6H3.75C2.50736 6 1.5 4.99264 1.5 3.75C1.5 2.50736 2.50736 1.5 3.75 1.5C4.99264 1.5 6 2.50736 6 3.75V5H8V3.75C8 2.50736 9.00736 1.5 10.25 1.5ZM3.75 9C3.05964 9 2.5 9.55964 2.5 10.25C2.5 10.9404 3.05964 11.5 3.75 11.5C4.44036 11.5 5 10.9404 5 10.25V9H3.75ZM9 10.25C9 10.9404 9.55964 11.5 10.25 11.5C10.9404 11.5 11.5 10.9404 11.5 10.25C11.5 9.55964 10.9404 9 10.25 9H9V10.25ZM6 8H8V6H6V8ZM3.75 2.5C3.05964 2.5 2.5 3.05964 2.5 3.75C2.5 4.44036 3.05964 5 3.75 5H5V3.75C5 3.05964 4.44036 2.5 3.75 2.5ZM10.25 2.5C9.55964 2.5 9 3.05964 9 3.75V5H10.25C10.9404 5 11.5 4.44036 11.5 3.75C11.5 3.05964 10.9404 2.5 10.25 2.5Z" fill="#242629"/>
</svg>
