<svg width="14" height="14" viewBox="0 0 14 14" fill="none" xmlns="http://www.w3.org/2000/svg">
<g clip-path="url(#clip0_20632_3892)">
<path d="M7.77734 8C9.55693 8 11 9.44307 11 11.2227C10.9998 11.928 10.428 12.4998 9.72266 12.5H4.27734C3.57199 12.4998 3.00023 11.928 3 11.2227C3 9.44307 4.44307 8 6.22266 8H7.77734ZM2.50977 8C2.78591 8 3.00977 8.22386 3.00977 8.5C3.00977 8.77614 2.78591 9 2.50977 9H2.5C1.67157 9 1 9.67157 1 10.5V10.75C1 10.8881 1.11193 11 1.25 11H1.5C1.77614 11 2 11.2239 2 11.5C2 11.7761 1.77614 12 1.5 12H1.25C0.559644 12 0 11.4404 0 10.75V10.5C0 9.11929 1.11929 8 2.5 8H2.50977ZM11.5 8C12.8807 8 14 9.11929 14 10.5V10.75C14 11.4404 13.4404 12 12.75 12H12.5C12.2239 12 12 11.7761 12 11.5C12 11.2239 12.2239 11 12.5 11H12.75C12.8881 11 13 10.8881 13 10.75V10.5C13 9.67157 12.3284 9 11.5 9H11.4502C11.1741 9 10.9502 8.77614 10.9502 8.5C10.9502 8.22386 11.1741 8 11.4502 8H11.5ZM6.22266 9C4.99536 9 4 9.99536 4 11.2227C4.00023 11.3757 4.12428 11.4998 4.27734 11.5H9.72266C9.87572 11.4998 9.99977 11.3757 10 11.2227C10 9.99536 9.00464 9 7.77734 9H6.22266ZM7 1.5C8.38071 1.5 9.5 2.61929 9.5 4C9.5 5.38071 8.38071 6.5 7 6.5C5.61929 6.5 4.5 5.38071 4.5 4C4.5 2.61929 5.61929 1.5 7 1.5ZM3.34473 2.02246C3.57249 2.06914 3.74414 2.27112 3.74414 2.5127C3.74403 2.75413 3.57237 2.95525 3.34473 3.00195L3.24414 3.0127L3.11621 3.01953C2.98885 3.03267 2.86391 3.06478 2.74609 3.11621C2.58912 3.18475 2.44749 3.2855 2.33105 3.41113C2.21482 3.53667 2.1257 3.68514 2.06934 3.84668C2.01296 4.00833 1.99092 4.17988 2.00391 4.35059C2.0169 4.52127 2.06436 4.68762 2.14453 4.83887C2.22479 4.99019 2.33563 5.1239 2.46973 5.23047C2.60368 5.33689 2.75851 5.414 2.92383 5.45801C3.04805 5.49103 3.17681 5.50432 3.30469 5.49805L3.43164 5.48535L3.5332 5.48047C3.76544 5.49212 3.9654 5.66548 4.00195 5.9043C4.03848 6.14307 3.89971 6.36862 3.68164 6.44922L3.58301 6.47461L3.35352 6.49707C3.12289 6.50837 2.89104 6.48435 2.66699 6.4248C2.36849 6.34541 2.08948 6.20486 1.84766 6.0127C1.60587 5.82052 1.40645 5.58046 1.26172 5.30762C1.11699 5.03472 1.03032 4.73476 1.00684 4.42676C0.98339 4.11865 1.02319 3.80835 1.125 3.5166C1.22674 3.22514 1.38788 2.95792 1.59766 2.73145C1.80763 2.50488 2.06263 2.32384 2.3457 2.2002C2.55801 2.10749 2.78318 2.04818 3.0127 2.02441L3.24414 2.0127L3.34473 2.02246ZM10.9863 2.02441C11.2155 2.04804 11.4403 2.10683 11.6523 2.19922C11.935 2.32236 12.1894 2.50275 12.3994 2.72852C12.6093 2.95424 12.7707 3.22098 12.873 3.51172C12.9753 3.80248 13.0165 4.11153 12.9941 4.41895C12.9718 4.72635 12.8864 5.0259 12.7432 5.29883C12.5999 5.57186 12.4015 5.81277 12.1611 6.00586C11.9208 6.19884 11.6431 6.33991 11.3457 6.4209C11.0483 6.50187 10.7376 6.52101 10.4326 6.47656C10.1594 6.43668 9.96989 6.18243 10.0098 5.90918C10.0498 5.63624 10.3032 5.44767 10.5762 5.4873C10.7453 5.51199 10.9181 5.50097 11.083 5.45605C11.2479 5.41114 11.4019 5.33262 11.5352 5.22559C11.6683 5.11858 11.778 4.98526 11.8574 4.83398C11.9368 4.68278 11.9847 4.51698 11.9971 4.34668C12.0094 4.17635 11.9863 4.00486 11.9297 3.84375C11.873 3.68252 11.7834 3.53434 11.667 3.40918C11.5506 3.28405 11.4096 3.18447 11.2529 3.11621C11.1354 3.06499 11.0109 3.03165 10.8838 3.01855L10.7559 3.0127L10.6553 3.00195C10.4276 2.95525 10.256 2.75413 10.2559 2.5127C10.2559 2.27112 10.4275 2.06914 10.6553 2.02246L10.7559 2.0127L10.9863 2.02441ZM7 2.5C6.17157 2.5 5.5 3.17157 5.5 4C5.5 4.82843 6.17157 5.5 7 5.5C7.82843 5.5 8.5 4.82843 8.5 4C8.5 3.17157 7.82843 2.5 7 2.5Z" fill="#242629"/>
</g>
<defs>
<clipPath id="clip0_20632_3892">
<rect width="14" height="14" fill="white"/>
</clipPath>
</defs>
</svg>
