<svg width="14" height="14" viewBox="0 0 14 14" fill="none" xmlns="http://www.w3.org/2000/svg">
<path d="M8.5 1.5C9.19178 1.5 9.74067 1.50003 10.1826 1.53613C10.6304 1.57272 11.0127 1.64901 11.3623 1.82715C11.9265 2.11472 12.3853 2.57347 12.6729 3.1377C12.851 3.48732 12.9273 3.86958 12.9639 4.31738C13 4.75934 13 5.30822 13 6V6.5C13 7.19178 13 7.74066 12.9639 8.18262C12.9273 8.63042 12.851 9.01268 12.6729 9.3623C12.3853 9.92653 11.9265 10.3853 11.3623 10.6729C11.0127 10.851 10.6304 10.9273 10.1826 10.9639C9.74067 11 9.19178 11 8.5 11H5.83203C5.41298 11 5.25675 11.0012 5.11035 11.0244C4.86158 11.0638 4.6221 11.1502 4.40527 11.2783C4.27781 11.3537 4.15656 11.452 3.83398 11.7188C3.5727 11.9348 3.35608 12.1144 3.17773 12.2422C3.0064 12.3649 2.80852 12.487 2.58301 12.5273C2.0202 12.6279 1.45497 12.3621 1.17383 11.8643C1.06118 11.6647 1.02921 11.434 1.01465 11.2236C0.99951 11.0049 1 10.7245 1 10.3857V6C1 5.30822 1.00003 4.75934 1.03613 4.31738C1.07272 3.86958 1.14901 3.48732 1.32715 3.1377C1.61472 2.57348 2.07348 2.11472 2.6377 1.82715C2.98731 1.64901 3.36959 1.57272 3.81738 1.53613C4.25933 1.50003 4.80822 1.5 5.5 1.5H8.5ZM5.5 2.5C4.79169 2.5 4.29023 2.50022 3.89844 2.53223C3.51265 2.56377 3.27691 2.62345 3.0918 2.71777C2.71555 2.90951 2.40951 3.21555 2.21777 3.5918C2.12346 3.77691 2.06377 4.01264 2.03223 4.39844C2.00022 4.79023 2 5.29168 2 6V10.3857C2 10.7393 2.00054 10.9783 2.0127 11.1543C2.02518 11.3346 2.04706 11.3768 2.04492 11.373C2.11728 11.5008 2.26264 11.5688 2.40723 11.543C2.41429 11.5405 2.46562 11.5219 2.5957 11.4287C2.73913 11.3259 2.92362 11.1737 3.19629 10.9482C3.4955 10.7009 3.68549 10.5417 3.89648 10.417C4.22178 10.2247 4.58088 10.0962 4.9541 10.0371C5.19616 9.99878 5.44392 10 5.83203 10H8.5C9.20831 10 9.70977 9.99978 10.1016 9.96777C10.4874 9.93623 10.7231 9.87654 10.9082 9.78223C11.2845 9.59049 11.5905 9.28445 11.7822 8.9082C11.8765 8.72309 11.9362 8.48736 11.9678 8.10156C11.9998 7.70977 12 7.20832 12 6.5V6C12 5.29168 11.9998 4.79023 11.9678 4.39844C11.9362 4.01264 11.8765 3.77691 11.7822 3.5918C11.5905 3.21555 11.2845 2.90951 10.9082 2.71777C10.7231 2.62346 10.4874 2.56377 10.1016 2.53223C9.70977 2.50022 9.20831 2.5 8.5 2.5H5.5Z" fill="#242629"/>
</svg>
