<svg width="14" height="14" viewBox="0 0 14 14" fill="none" xmlns="http://www.w3.org/2000/svg">
<path d="M8.79993 0.5C9.35173 0.500001 9.79583 0.499998 10.1544 0.529297C10.5188 0.559068 10.8388 0.621637 11.1349 0.772461C11.6053 1.01215 11.988 1.39483 12.2277 1.86523C12.3785 2.16132 12.4411 2.48137 12.4708 2.8457C12.5001 3.20429 12.5001 3.64839 12.5001 4.2002V9.7998C12.5001 10.3516 12.5001 10.7957 12.4708 11.1543C12.4411 11.5186 12.3785 11.8387 12.2277 12.1348C11.988 12.6052 11.6053 12.9879 11.1349 13.2275C10.8388 13.3784 10.5188 13.4409 10.1544 13.4707C9.79584 13.5 9.35172 13.5 8.79993 13.5H5.20032C4.64852 13.5 4.20441 13.5 3.84583 13.4707C3.48149 13.4409 3.16144 13.3784 2.86536 13.2275C2.39495 12.9879 2.01227 12.6052 1.77258 12.1348C1.62179 11.8387 1.55919 11.5187 1.52942 11.1543C1.50013 10.7955 1.50012 10.351 1.50012 9.79883V4.20117C1.50012 3.649 1.50013 3.20446 1.52942 2.8457C1.5592 2.48134 1.62179 2.16126 1.77258 1.86523C2.01227 1.39483 2.39495 1.01214 2.86536 0.772461C3.16144 0.621629 3.48149 0.559068 3.84583 0.529297C4.20441 0.500001 4.64852 0.499999 5.20032 0.5H8.79993ZM6.90051 9.5C6.64718 9.5 6.4872 9.50087 6.36633 9.51074C6.25174 9.52011 6.21669 9.53518 6.2052 9.54102C6.13459 9.57699 6.07711 9.63447 6.04114 9.70508C6.0353 9.71657 6.02023 9.7516 6.01086 9.86621C6.00099 9.98707 6.00012 10.1471 6.00012 10.4004V12.5H8.00012V10.4004C8.00012 10.1471 7.99925 9.98707 7.98938 9.86621C7.98001 9.75163 7.96495 9.71658 7.95911 9.70508C7.92313 9.63448 7.86564 9.57699 7.79504 9.54102C7.78356 9.53518 7.74852 9.52011 7.63391 9.51074C7.51305 9.50087 7.35307 9.5 7.09973 9.5H6.90051ZM5.20032 1.5C4.63202 1.5 4.2353 1.50019 3.92688 1.52539C3.62483 1.5501 3.45103 1.59613 3.31946 1.66309C3.03721 1.8069 2.80702 2.03709 2.66321 2.31934C2.59626 2.45092 2.55021 2.62522 2.52551 2.92773C2.50034 3.23632 2.50012 3.63272 2.50012 4.20117V9.79883C2.50012 10.3673 2.50034 10.7637 2.52551 11.0723C2.55021 11.3748 2.59625 11.5491 2.66321 11.6807C2.80702 11.9629 3.03722 12.1931 3.31946 12.3369C3.45103 12.4039 3.62484 12.4499 3.92688 12.4746C4.19773 12.4967 4.53667 12.4987 5.00012 12.499V10.4004C5.00012 10.1637 4.99985 9.95612 5.01379 9.78516C5.02824 9.60837 5.06004 9.42674 5.14954 9.25098C5.28138 8.99221 5.49233 8.78126 5.7511 8.64941C5.92686 8.55992 6.1085 8.52812 6.28528 8.51367C6.45624 8.49973 6.66383 8.5 6.90051 8.5H7.09973C7.33641 8.5 7.544 8.49973 7.71497 8.51367C7.89174 8.52812 8.07338 8.55992 8.24915 8.64941C8.50791 8.78126 8.71886 8.99221 8.85071 9.25098C8.9402 9.42674 8.97201 9.60838 8.98645 9.78516C9.0004 9.95612 9.00012 10.1637 9.00012 10.4004V12.499C9.46356 12.4987 9.80252 12.4967 10.0734 12.4746C10.3754 12.4499 10.5492 12.4039 10.6808 12.3369C10.963 12.1931 11.1922 11.9629 11.3361 11.6807C11.4031 11.549 11.45 11.3756 11.4747 11.0732C11.4999 10.7648 11.5001 10.3681 11.5001 9.7998V4.2002C11.5001 3.63189 11.4999 3.23518 11.4747 2.92676C11.45 2.62472 11.404 2.45091 11.337 2.31934C11.1932 2.03709 10.963 1.8069 10.6808 1.66309C10.5492 1.59613 10.3754 1.55009 10.0734 1.52539C9.76494 1.50019 9.36823 1.5 8.79993 1.5H5.20032ZM9.00012 6C9.27626 6 9.50012 6.22386 9.50012 6.5C9.50006 6.74166 9.32863 6.94372 9.10071 6.99023L9.00012 7H5.00012C4.72403 7 4.50019 6.77608 4.50012 6.5C4.50012 6.22386 4.72398 6 5.00012 6H9.00012ZM9.00012 3.5C9.27626 3.50001 9.50012 3.72386 9.50012 4C9.50005 4.27608 9.27622 4.49999 9.00012 4.5H5.00012C4.72402 4.5 4.50019 4.27608 4.50012 4C4.50012 3.72386 4.72398 3.5 5.00012 3.5H9.00012Z" fill="#242629"/>
</svg>
