<svg width="14" height="14" viewBox="0 0 14 14" fill="none" xmlns="http://www.w3.org/2000/svg">
<path d="M6.79968 1C7.35148 1 7.79559 0.999998 8.15417 1.0293C8.51851 1.05907 8.83856 1.12164 9.13464 1.27246C9.60504 1.51215 9.98774 1.89483 10.2274 2.36523C10.3782 2.66132 10.4408 2.98137 10.4706 3.3457C10.4864 3.53907 10.4926 3.75732 10.496 4.00391C10.6862 4.0085 10.8437 4.01911 10.9882 4.04785C11.9795 4.24522 12.7546 5.02039 12.952 6.01172C13.0025 6.26541 12.9999 6.5593 12.9999 7V9.2998C12.9999 9.85159 12.9999 10.2957 12.9706 10.6543C12.9408 11.0186 12.8783 11.3387 12.7274 11.6348C12.4877 12.1052 12.105 12.4879 11.6346 12.7275C11.3386 12.8783 11.0185 12.9409 10.6542 12.9707C10.2956 13 9.85145 13 9.29968 13H7.99988C7.96078 13 7.92311 12.9938 7.8866 12.9854C7.58065 12.9985 7.22169 13 6.79968 13H4.70007C4.14828 13 3.70417 13 3.34558 12.9707C2.98124 12.9409 2.6612 12.8784 2.36511 12.7275C1.89471 12.4879 1.51202 12.1052 1.27234 11.6348C1.12152 11.3387 1.05894 11.0186 1.02917 10.6543C0.999879 10.2957 0.999875 9.85161 0.999878 9.2998V4.7002C0.99988 4.14838 0.999876 3.7043 1.02917 3.3457C1.05894 2.98136 1.12152 2.66132 1.27234 2.36523C1.51202 1.89483 1.89471 1.51214 2.36511 1.27246C2.6612 1.12163 2.98124 1.05907 3.34558 1.0293C3.70417 1 4.14828 0.999998 4.70007 1H6.79968ZM5.74988 9.5C5.35923 9.5 5.29079 9.50753 5.25085 9.52148C5.14342 9.55922 5.05911 9.64354 5.02136 9.75098C5.0074 9.79091 4.99988 9.85932 4.99988 10.25V12H6.49988V10.25C6.49988 9.85932 6.49235 9.79091 6.47839 9.75098C6.44065 9.64354 6.35634 9.55922 6.2489 9.52148C6.20897 9.50753 6.14056 9.5 5.74988 9.5ZM10.4999 9.2998C10.4999 9.85158 10.4999 10.2957 10.4706 10.6543C10.4408 11.0186 10.3782 11.3387 10.2274 11.6348C10.1622 11.7627 10.0851 11.8832 9.99988 11.9971C10.2236 11.994 10.4106 11.9879 10.5731 11.9746C10.8752 11.9499 11.049 11.9039 11.1805 11.8369C11.4628 11.6931 11.693 11.4629 11.8368 11.1807C11.9038 11.0491 11.9498 10.8753 11.9745 10.5732C11.9997 10.2648 11.9999 9.86809 11.9999 9.2998V7C11.9999 6.51138 11.998 6.33977 11.9716 6.20703C11.8531 5.61223 11.3876 5.14775 10.7928 5.0293C10.7211 5.01503 10.6381 5.0077 10.4999 5.00391V9.2998ZM4.70007 2C4.13178 2 3.73506 2.00019 3.42664 2.02539C3.12459 2.0501 2.95079 2.09613 2.81921 2.16309C2.53697 2.3069 2.30678 2.53709 2.16296 2.81934C2.09602 2.95091 2.04997 3.12472 2.02527 3.42676C2.00007 3.73518 1.99988 4.13188 1.99988 4.7002V9.2998C1.99988 9.86811 2.00007 10.2648 2.02527 10.5732C2.04997 10.8753 2.09602 11.0491 2.16296 11.1807C2.30677 11.4629 2.53697 11.6931 2.81921 11.8369C2.95079 11.9039 3.12459 11.9499 3.42664 11.9746C3.58914 11.9879 3.77616 11.994 3.99988 11.9971V10.25C3.99988 9.94308 3.99307 9.66235 4.07703 9.42188C4.21523 9.02653 4.5264 8.71535 4.92175 8.57715C5.16223 8.49319 5.44296 8.5 5.74988 8.5C6.0568 8.5 6.33752 8.49319 6.578 8.57715C6.97335 8.71535 7.28452 9.02653 7.42273 9.42188C7.50669 9.66235 7.49988 9.94308 7.49988 10.25V11.9971C7.72359 11.994 7.91062 11.9879 8.07312 11.9746C8.37517 11.9499 8.54897 11.9039 8.68054 11.8369C8.96278 11.6931 9.19201 11.4629 9.33582 11.1807C9.40286 11.049 9.44976 10.8756 9.47449 10.5732C9.49969 10.2648 9.49987 9.8681 9.49988 9.2998V4.7002C9.49988 4.13189 9.49968 3.73518 9.47449 3.42676C9.44979 3.12472 9.40374 2.95091 9.33679 2.81934C9.19299 2.53709 8.96278 2.3069 8.68054 2.16309C8.54897 2.09613 8.37516 2.05009 8.07312 2.02539C7.7647 2.00019 7.36798 2 6.79968 2H4.70007ZM6.99988 6C7.27601 6.00001 7.49987 6.22387 7.49988 6.5C7.49988 6.77614 7.27601 6.99999 6.99988 7H4.49988C4.22374 7 3.99988 6.77614 3.99988 6.5C3.99989 6.22387 4.22374 6 4.49988 6H6.99988ZM6.99988 3.5C7.27601 3.50001 7.49987 3.72387 7.49988 4C7.49988 4.27614 7.27601 4.49999 6.99988 4.5H4.49988C4.22374 4.5 3.99988 4.27614 3.99988 4C3.99989 3.72387 4.22374 3.5 4.49988 3.5H6.99988Z" fill="#242629"/>
</svg>
