<svg width="14" height="14" viewBox="0 0 14 14" fill="none" xmlns="http://www.w3.org/2000/svg">
<g clip-path="url(#clip0_19835_2726)">
<path d="M11.5001 9C11.7762 9.00002 12.0001 9.22387 12.0001 9.5V11H13.5001C13.7762 11 14.0001 11.2239 14.0001 11.5C14.0001 11.7761 13.7762 12 13.5001 12H12.0001V13.5C12.0001 13.7761 11.7762 14 11.5001 14C11.2239 14 11.0001 13.7761 11.0001 13.5V12H9.50006C9.22392 12 9.00006 11.7761 9.00006 11.5C9.00006 11.2239 9.22392 11 9.50006 11H11.0001V9.5C11.0001 9.22386 11.2239 9 11.5001 9ZM8.79987 0.5C9.35167 0.500001 9.79577 0.499999 10.1544 0.529297C10.5187 0.559067 10.8387 0.621638 11.1348 0.772461C11.6052 1.01215 11.9879 1.39483 12.2276 1.86523C12.3784 2.16132 12.441 2.48136 12.4708 2.8457C12.5001 3.20429 12.5001 3.64839 12.5001 4.2002V7C12.5001 7.27612 12.2762 7.49997 12.0001 7.5C11.7239 7.49999 11.5001 7.27613 11.5001 7V4.2002C11.5001 3.63189 11.4999 3.23518 11.4747 2.92676C11.45 2.62471 11.4039 2.45091 11.337 2.31934C11.1932 2.03709 10.963 1.8069 10.6807 1.66309C10.5492 1.59614 10.3753 1.55009 10.0733 1.52539C9.76488 1.50019 9.36817 1.5 8.79987 1.5H5.20026C4.63196 1.5 4.23524 1.50019 3.92682 1.52539C3.62478 1.5501 3.45097 1.59613 3.3194 1.66309C3.03716 1.8069 2.80696 2.0371 2.66315 2.31934C2.5962 2.45092 2.55015 2.62523 2.52545 2.92773C2.50028 3.23632 2.50006 3.63272 2.50006 4.20117C2.50005 6.34057 2.50007 7.65947 2.50006 9.79883C2.50006 10.3673 2.50027 10.7637 2.52545 11.0723C2.55016 11.3748 2.59617 11.5491 2.66315 11.6807C2.80696 11.9629 3.03714 12.1931 3.3194 12.3369C3.45097 12.4039 3.6248 12.4499 3.92682 12.4746C4.19768 12.4967 4.53661 12.4987 5.00006 12.499V10.4004C5.00006 10.1638 4.9998 9.95607 5.01373 9.78516C5.02817 9.60841 5.06001 9.42671 5.14948 9.25098C5.28129 8.99226 5.49235 8.78226 5.75104 8.65039C5.92669 8.56088 6.10755 8.52816 6.28424 8.51367C6.45525 8.49968 6.66364 8.50003 6.90045 8.5H7.50006L7.60065 8.50977C7.82857 8.5563 8.00003 8.75832 8.00006 9C7.99993 9.276 7.7761 9.49997 7.50006 9.5H6.90045C6.64715 9.50003 6.48712 9.50085 6.36627 9.51074C6.25193 9.5201 6.21671 9.53514 6.20514 9.54102C6.1346 9.577 6.07703 9.63452 6.04108 9.70508C6.03521 9.71666 6.02015 9.75204 6.0108 9.86621C6.00095 9.98702 6.00006 10.1473 6.00006 10.4004V12.5H7.50006L7.60065 12.5098C7.82858 12.5563 8.00005 12.7583 8.00006 13C7.99994 13.2415 7.82846 13.4427 7.60065 13.4893L7.50006 13.5H5.20026C4.64844 13.5 4.20436 13.5 3.84576 13.4707C3.48144 13.4409 3.16138 13.3784 2.8653 13.2275C2.39487 12.9879 2.01222 12.6052 1.77252 12.1348C1.62171 11.8387 1.55914 11.5187 1.52936 11.1543C1.50007 10.7956 1.50006 10.351 1.50006 9.79883C1.50007 7.62862 1.50005 6.37141 1.50006 4.20117C1.50006 3.649 1.50006 3.20446 1.52936 2.8457C1.55913 2.48134 1.62174 2.16126 1.77252 1.86523C2.01221 1.39483 2.3949 1.01214 2.8653 0.772461C3.16138 0.621629 3.48143 0.559069 3.84576 0.529297C4.20435 0.5 4.64846 0.499999 5.20026 0.5H8.79987ZM9.00006 6C9.2762 6 9.50006 6.22386 9.50006 6.5C9.5 6.74166 9.32857 6.94372 9.10065 6.99023L9.00006 7H5.00006C4.72397 6.99999 4.50013 6.77608 4.50006 6.5C4.50006 6.22386 4.72393 6.00001 5.00006 6H9.00006ZM9.00006 3.5C9.2762 3.5 9.50006 3.72386 9.50006 4C9.49999 4.27608 9.27616 4.5 9.00006 4.5H5.00006C4.72397 4.49999 4.50013 4.27608 4.50006 4C4.50006 3.72386 4.72393 3.50001 5.00006 3.5H9.00006Z" fill="#242629"/>
</g>
<defs>
<clipPath id="clip0_19835_2726">
<rect width="14" height="14" fill="white"/>
</clipPath>
</defs>
</svg>
