<svg width="14" height="14" viewBox="0 0 14 14" fill="none" xmlns="http://www.w3.org/2000/svg">
<path d="M4.35474 3.45776C4.89717 2.8167 5.77216 2.94495 6.46899 3.26147C7.21132 3.59889 8.02096 4.24888 8.74731 5.10718C9.47557 5.96784 10.0154 6.91397 10.2913 7.76147C10.4289 8.18458 10.5062 8.60194 10.4983 8.98218C10.4904 9.35997 10.3964 9.74305 10.1438 10.0417C9.96764 10.2499 9.75632 10.3753 9.52759 10.4412C9.50719 10.4516 9.48734 10.4637 9.46509 10.4714L2.48462 12.9109C1.21467 13.3547 0.0477176 12.0314 0.646729 10.8269L4.15259 3.7771C4.15685 3.76855 4.16256 3.76088 4.16724 3.75269C4.2168 3.64849 4.27775 3.54882 4.35474 3.45776ZM1.54224 11.2722C1.34258 11.6737 1.73126 12.1154 2.15454 11.9675L7.65747 10.0437C7.02287 9.67819 6.35739 9.1087 5.75122 8.39233C5.0518 7.56566 4.52823 6.65979 4.24341 5.83862L1.54224 11.2722ZM6.05591 4.17261C5.44002 3.89278 5.1925 4.01582 5.11841 4.10327C5.06291 4.16892 5.00433 4.29991 4.99927 4.53784C4.99433 4.77354 5.04378 5.07594 5.15845 5.42847C5.38772 6.13297 5.85491 6.96791 6.51392 7.74683C7.17479 8.52786 7.87274 9.06729 8.4436 9.3269C9.05944 9.60675 9.30594 9.4837 9.38013 9.39624C9.43567 9.3306 9.49424 9.19986 9.49927 8.96167C9.50417 8.72593 9.45481 8.4236 9.34009 8.07104C9.11073 7.3665 8.64368 6.53157 7.98462 5.75269C7.32385 4.97187 6.62667 4.43218 6.05591 4.17261ZM11.5002 5.99976C11.7763 5.99976 12.0001 6.22377 12.0002 6.49976C12.0002 6.77589 11.7764 6.99975 11.5002 6.99976C11.2241 6.99976 11.0002 6.7759 11.0002 6.49976C11.0004 6.22377 11.2242 5.99976 11.5002 5.99976ZM13.0002 3.00073C13.2763 3.00086 13.5003 3.22466 13.5002 3.50073C13.4999 3.77655 13.2761 3.99969 13.0002 3.99976C12.3073 3.99974 11.8878 4.11511 11.5989 4.25952C11.3787 4.36968 11.2117 4.50736 11.0354 4.67554L10.8538 4.85327L10.7756 4.91772C10.5816 5.04578 10.3166 5.0241 10.1458 4.85327C9.97544 4.68228 9.95501 4.4182 10.0833 4.22437L10.1458 4.14624L10.344 3.9519C10.5544 3.75101 10.8097 3.53603 11.1516 3.36499C11.6125 3.13461 12.1938 3.00072 13.0002 3.00073ZM9.50024 3.50073C9.49988 3.77648 9.27604 3.99962 9.00024 3.99976C8.72431 3.99953 8.50027 3.77573 8.50024 3.49976L9.50024 3.50073ZM8.12915 1.01733L8.22388 1.05347L8.45239 1.18237C9.52103 1.86498 9.50028 3.05506 9.50024 3.50073L9.00024 3.49976H8.50024C8.50027 3.00828 8.47925 2.38211 7.90063 2.01733L7.77661 1.94702L7.69165 1.89331C7.5086 1.74989 7.44524 1.49324 7.55298 1.2771C7.66098 1.06111 7.90462 0.957354 8.12915 1.01733ZM11.5002 0.999756C11.7763 0.999763 12.0001 1.22377 12.0002 1.49976C12.0002 1.77589 11.7764 1.99975 11.5002 1.99976C11.2241 1.99976 11.0002 1.7759 11.0002 1.49976C11.0004 1.22377 11.2242 0.999756 11.5002 0.999756Z" fill="#242629"/>
</svg>
