<svg width="14" height="14" viewBox="0 0 14 14" fill="none" xmlns="http://www.w3.org/2000/svg">
<path d="M9.7998 1.5C10.3516 1.5 10.7957 1.5 11.1543 1.5293C11.5186 1.55907 11.8387 1.62163 12.1348 1.77246C12.6052 2.01214 12.9879 2.39483 13.2275 2.86523C13.3784 3.16133 13.4409 3.48136 13.4707 3.8457C13.5 4.20429 13.5 4.64839 13.5 5.2002L13.5 8.7998C13.5 9.35161 13.5 9.79571 13.4707 10.1543C13.4409 10.5186 13.3784 10.8387 13.2275 11.1348C12.9879 11.6052 12.6052 11.9879 12.1348 12.2275C11.8387 12.3784 11.5186 12.4409 11.1543 12.4707C10.7957 12.5 10.3516 12.5 9.7998 12.5L4.2002 12.5C3.64839 12.5 3.20429 12.5 2.8457 12.4707C2.48136 12.4409 2.16133 12.3784 1.86523 12.2275C1.39483 11.9879 1.01214 11.6052 0.772461 11.1348C0.621634 10.8387 0.559066 10.5186 0.529297 10.1543C0.499999 9.79571 0.5 9.35161 0.5 8.7998L0.5 5.2002C0.5 4.64839 0.499999 4.20429 0.529297 3.8457C0.559066 3.48136 0.621634 3.16133 0.772461 2.86523C1.01214 2.39483 1.39483 2.01214 1.86523 1.77246C2.16133 1.62163 2.48136 1.55907 2.8457 1.5293C3.20429 1.5 3.64839 1.5 4.2002 1.5L9.7998 1.5ZM1.5 8.7998C1.5 9.36811 1.50019 9.76482 1.52539 10.0732C1.55009 10.3753 1.59613 10.5491 1.66309 10.6807C1.8069 10.9629 2.03709 11.1931 2.31934 11.3369C2.45091 11.4039 2.62471 11.4499 2.92676 11.4746C3.23518 11.4998 3.63189 11.5 4.2002 11.5L9.7998 11.5C10.3681 11.5 10.7648 11.4998 11.0732 11.4746C11.3753 11.4499 11.5491 11.4039 11.6807 11.3369C11.9629 11.1931 12.1931 10.9629 12.3369 10.6807C12.4039 10.5491 12.4499 10.3753 12.4746 10.0732C12.4998 9.76482 12.5 9.36811 12.5 8.7998L12.5 6L1.5 6L1.5 8.7998ZM7.5 8C7.77614 8 8 8.22386 8 8.5C7.99987 8.77603 7.77606 9 7.5 9H3.5C3.22394 9 3.00013 8.77603 3 8.5C3 8.22386 3.22386 8 3.5 8H7.5ZM10.5 8C10.7761 8 11 8.22386 11 8.5C10.9999 8.77603 10.7761 9 10.5 9H10C9.72403 8.9999 9.50013 8.77597 9.5 8.5C9.5 8.22392 9.72395 8.0001 10 8H10.5ZM4.2002 2.5C3.63189 2.5 3.23518 2.50019 2.92676 2.52539C2.62471 2.55009 2.45091 2.59613 2.31934 2.66309C2.03709 2.8069 1.8069 3.03709 1.66309 3.31934C1.59613 3.45091 1.55009 3.62471 1.52539 3.92676C1.50326 4.19764 1.50138 4.53657 1.50098 5L12.499 5C12.4986 4.53657 12.4967 4.19764 12.4746 3.92676C12.4499 3.62471 12.4039 3.45091 12.3369 3.31934C12.1931 3.03709 11.9629 2.8069 11.6807 2.66309C11.5491 2.59613 11.3753 2.55009 11.0732 2.52539C10.7648 2.50019 10.3681 2.5 9.7998 2.5L4.2002 2.5Z" fill="#242629"/>
</svg>
