<svg width="14" height="14" viewBox="0 0 14 14" fill="none" xmlns="http://www.w3.org/2000/svg">
<path d="M10.6469 2.64673C10.8421 2.45147 11.1586 2.45147 11.3539 2.64673C11.5488 2.84202 11.549 3.1586 11.3539 3.35376L7.7074 6.99927L11.3539 10.6458C11.5491 10.841 11.5491 11.1585 11.3539 11.3538C11.1586 11.549 10.8411 11.549 10.6459 11.3538L6.99939 7.70728L3.35388 11.3538C3.15871 11.5488 2.84208 11.5487 2.64685 11.3538C2.45159 11.1585 2.45159 10.841 2.64685 10.6458L6.29236 6.99927L2.64685 3.35376C2.45159 3.1585 2.45159 2.84199 2.64685 2.64673C2.84211 2.45147 3.15862 2.45147 3.35388 2.64673L7.00037 6.29224L10.6469 2.64673Z" fill="#242629"/>
</svg>
