<svg width="14" height="14" viewBox="0 0 14 14" fill="none" xmlns="http://www.w3.org/2000/svg">
<path d="M7 1.5C7.27614 1.5 7.5 1.72386 7.5 2C7.49987 2.27603 7.27606 2.5 7 2.5H4.2002C3.63189 2.5 3.23518 2.50019 2.92676 2.52539C2.62472 2.55009 2.45091 2.59614 2.31934 2.66309C2.03714 2.8069 1.80688 3.03713 1.66309 3.31934C1.59619 3.45089 1.55008 3.62486 1.52539 3.92676C1.50328 4.19762 1.50134 4.53656 1.50098 5H8.5L8.60059 5.00977C8.82853 5.05631 8.99999 5.25831 9 5.5C8.99989 5.77604 8.77607 5.99999 8.5 6H1.5V8H12.5V6.5C12.5001 6.22391 12.7239 6 13 6C13.2761 6 13.4999 6.22391 13.5 6.5V8.7998C13.5 9.35149 13.5 9.79576 13.4707 10.1543C13.4409 10.5185 13.3783 10.8387 13.2275 11.1348C12.9878 11.6051 12.6051 11.9879 12.1348 12.2275C11.8387 12.3783 11.5186 12.4409 11.1543 12.4707C10.7957 12.5 10.3516 12.5 9.7998 12.5H4.2002C3.6484 12.5 3.20429 12.5 2.8457 12.4707C2.4814 12.4409 2.1613 12.3783 1.86523 12.2275C1.39489 11.9879 1.01215 11.6051 0.772461 11.1348C0.621668 10.8387 0.559074 10.5185 0.529297 10.1543C0.500003 9.79576 0.5 9.35149 0.5 8.7998V5.2002C0.5 4.64852 0.500019 4.20425 0.529297 3.8457C0.55906 3.48144 0.621706 3.16127 0.772461 2.86523C1.01213 2.39486 1.39487 2.01215 1.86523 1.77246C2.16132 1.62164 2.48137 1.55907 2.8457 1.5293C3.20429 1.5 3.64839 1.5 4.2002 1.5H7ZM1.50098 9C1.50134 9.46332 1.50327 9.80244 1.52539 10.0732C1.5501 10.3751 1.59615 10.5491 1.66309 10.6807C1.8069 10.9628 2.03716 11.1931 2.31934 11.3369C2.4509 11.4038 2.62478 11.4499 2.92676 11.4746C3.23518 11.4998 3.6319 11.5 4.2002 11.5H9.7998C10.3681 11.5 10.7648 11.4998 11.0732 11.4746C11.3752 11.4499 11.5491 11.4038 11.6807 11.3369C11.9628 11.1931 12.1931 10.9628 12.3369 10.6807C12.4038 10.5491 12.4499 10.3751 12.4746 10.0732C12.4967 9.80244 12.4987 9.46332 12.499 9H1.50098ZM11.5 0C11.7761 0 12 0.223858 12 0.5C12 0.851726 12.1731 1.23073 12.4717 1.5293C12.7702 1.82763 13.1485 2 13.5 2C13.7761 2 13.9999 2.22396 14 2.5C14 2.77614 13.7761 3 13.5 3C13.1484 3 12.7702 3.17318 12.4717 3.47168C12.1733 3.77012 12.0001 4.1484 12 4.5C12 4.77614 11.7761 5 11.5 5C11.2239 5 11 4.77614 11 4.5C10.9999 4.1484 10.8267 3.77012 10.5283 3.47168C10.2298 3.17318 9.85158 3 9.5 3C9.22386 3 9 2.77614 9 2.5C9.00012 2.22396 9.22393 2 9.5 2C9.85148 2 10.2298 1.82763 10.5283 1.5293C10.8269 1.23073 11 0.851726 11 0.5C11 0.223858 11.2239 0 11.5 0ZM11.5 1.92676C11.4184 2.03647 11.3314 2.14123 11.2363 2.23633C11.1411 2.33159 11.0357 2.41831 10.9258 2.5C11.0358 2.58173 11.141 2.66932 11.2363 2.76465C11.331 2.85941 11.4187 2.963 11.5 3.07227C11.5813 2.963 11.669 2.85941 11.7637 2.76465C11.8588 2.66951 11.9635 2.58161 12.0732 2.5C11.9636 2.41844 11.8587 2.33141 11.7637 2.23633C11.6686 2.14123 11.5816 2.03647 11.5 1.92676Z" fill="#242629"/>
</svg>
