<svg width="14" height="14" viewBox="0 0 14 14" fill="none" xmlns="http://www.w3.org/2000/svg">
<path d="M4.5 9C5.60456 9 6.5 9.89544 6.5 11L6.48926 11.2041C6.39381 12.1457 5.64566 12.8938 4.7041 12.9893L4.5 13H3C1.96435 13 1.113 12.2128 1.01074 11.2041L1 11C1 9.96435 1.78722 9.113 2.7959 9.01074L3 9H4.5ZM10.25 6C10.5925 6 10.8744 5.99994 11.1045 6.01562C11.3391 6.03163 11.5567 6.06581 11.7656 6.15234C12.2555 6.35533 12.6447 6.74452 12.8477 7.23438C12.9342 7.44328 12.9684 7.66086 12.9844 7.89551C13.0001 8.12561 13 8.40752 13 8.75V10.25C13 10.5925 13.0001 10.8744 12.9844 11.1045C12.9684 11.3391 12.9342 11.5567 12.8477 11.7656C12.6447 12.2555 12.2555 12.6447 11.7656 12.8477C11.5567 12.9342 11.3391 12.9684 11.1045 12.9844C10.8744 13.0001 10.5925 13 10.25 13C9.90752 13 9.62561 13.0001 9.39551 12.9844C9.16086 12.9684 8.94328 12.9342 8.73438 12.8477C8.24453 12.6447 7.85533 12.2555 7.65234 11.7656C7.56581 11.5567 7.53164 11.3391 7.51562 11.1045C7.49994 10.8744 7.5 10.5925 7.5 10.25V8.75C7.5 8.40752 7.49994 8.12561 7.51562 7.89551C7.53163 7.66086 7.56581 7.44328 7.65234 7.23438C7.85533 6.74452 8.24452 6.35533 8.73438 6.15234C8.94328 6.06581 9.16086 6.03163 9.39551 6.01562C9.62561 5.99994 9.90752 6 10.25 6ZM3 10C2.44772 10 2 10.4477 2 11L2.00488 11.1025C2.05278 11.573 2.42703 11.9472 2.89746 11.9951L3 12H4.5C5.05228 12 5.5 11.5523 5.5 11L5.49512 10.8975C5.44722 10.427 5.07297 10.0528 4.60254 10.0049L4.5 10H3ZM10.25 7C9.8937 7 9.65111 6.99985 9.46289 7.0127C9.27941 7.02524 9.18389 7.04854 9.11719 7.07617C8.87226 7.17766 8.67766 7.37226 8.57617 7.61719C8.54854 7.68389 8.52524 7.77941 8.5127 7.96289C8.49985 8.15111 8.5 8.3937 8.5 8.75V10.25C8.5 10.6063 8.49985 10.8489 8.5127 11.0371C8.52524 11.2206 8.54854 11.3161 8.57617 11.3828C8.67766 11.6277 8.87226 11.8223 9.11719 11.9238C9.18389 11.9515 9.27941 11.9748 9.46289 11.9873C9.65111 12.0001 9.8937 12 10.25 12C10.6063 12 10.8489 12.0001 11.0371 11.9873C11.2206 11.9748 11.3161 11.9515 11.3828 11.9238C11.6277 11.8223 11.8223 11.6277 11.9238 11.3828C11.9515 11.3161 11.9748 11.2206 11.9873 11.0371C12.0001 10.8489 12 10.6063 12 10.25V8.75C12 8.3937 12.0001 8.15111 11.9873 7.96289C11.9748 7.77941 11.9515 7.68389 11.9238 7.61719C11.8223 7.37226 11.6277 7.17766 11.3828 7.07617C11.3161 7.04854 11.2206 7.02524 11.0371 7.0127C10.8489 6.99985 10.6063 7 10.25 7ZM3.75 1C4.09248 1 4.37439 0.99994 4.60449 1.01562C4.83914 1.03163 5.05672 1.06581 5.26562 1.15234C5.75547 1.35533 6.14467 1.74453 6.34766 2.23438C6.43419 2.44328 6.46837 2.66087 6.48438 2.89551C6.50006 3.12561 6.5 3.40752 6.5 3.75V5.25C6.5 5.59248 6.50006 5.87439 6.48438 6.10449C6.46837 6.33913 6.43419 6.55672 6.34766 6.76562C6.14467 7.25548 5.75548 7.64467 5.26562 7.84766C5.05672 7.93419 4.83914 7.96837 4.60449 7.98438C4.37439 8.00006 4.09248 8 3.75 8C3.40752 8 3.12561 8.00006 2.89551 7.98438C2.66087 7.96837 2.44328 7.93419 2.23438 7.84766C1.74453 7.64467 1.35533 7.25548 1.15234 6.76562C1.06581 6.55672 1.03163 6.33913 1.01562 6.10449C0.99994 5.87439 1 5.59248 1 5.25V3.75C1 3.40752 0.99994 3.12561 1.01562 2.89551C1.03163 2.66087 1.06581 2.44328 1.15234 2.23438C1.35533 1.74453 1.74453 1.35533 2.23438 1.15234C2.44328 1.06581 2.66087 1.03163 2.89551 1.01562C3.12561 0.99994 3.40752 1 3.75 1ZM3.75 2C3.3937 2 3.15111 1.99985 2.96289 2.0127C2.77941 2.02524 2.68389 2.04854 2.61719 2.07617C2.37226 2.17766 2.17766 2.37226 2.07617 2.61719C2.04854 2.68389 2.02524 2.77941 2.0127 2.96289C1.99985 3.15111 2 3.3937 2 3.75V5.25C2 5.6063 1.99985 5.84889 2.0127 6.03711C2.02524 6.22059 2.04854 6.31611 2.07617 6.38281C2.17766 6.62774 2.37226 6.82234 2.61719 6.92383C2.68389 6.95146 2.77941 6.97476 2.96289 6.9873C3.15111 7.00015 3.3937 7 3.75 7C4.1063 7 4.34889 7.00015 4.53711 6.9873C4.72059 6.97476 4.81611 6.95146 4.88281 6.92383C5.12774 6.82234 5.32234 6.62774 5.42383 6.38281C5.45146 6.31611 5.47476 6.22059 5.4873 6.03711C5.50015 5.84889 5.5 5.6063 5.5 5.25V3.75C5.5 3.3937 5.50015 3.15111 5.4873 2.96289C5.47476 2.77941 5.45146 2.68389 5.42383 2.61719C5.32234 2.37226 5.12774 2.17766 4.88281 2.07617C4.81611 2.04854 4.72059 2.02524 4.53711 2.0127C4.34889 1.99985 4.1063 2 3.75 2ZM11 1C12.1046 1 13 1.89543 13 3C13 4.10457 12.1046 5 11 5H9.5C8.39543 5 7.5 4.10457 7.5 3C7.5 1.89543 8.39543 1 9.5 1H11ZM9.5 2C8.94772 2 8.5 2.44772 8.5 3C8.5 3.55228 8.94772 4 9.5 4H11C11.5523 4 12 3.55228 12 3C12 2.44772 11.5523 2 11 2H9.5Z" fill="#242629"/>
</svg>
