<svg width="14" height="14" viewBox="0 0 14 14" fill="none" xmlns="http://www.w3.org/2000/svg">
<path d="M7 0.5C8.42804 0.5 9.74436 0.730165 10.7217 1.12109C11.2088 1.31596 11.636 1.56133 11.9502 1.8584C12.2655 2.15658 12.5 2.54207 12.5 3V11C12.5 11.4579 12.2655 11.8434 11.9502 12.1416C11.636 12.4387 11.2088 12.684 10.7217 12.8789C9.74436 13.2698 8.42804 13.5 7 13.5C5.57196 13.5 4.25564 13.2698 3.27832 12.8789C2.79122 12.684 2.36398 12.4387 2.0498 12.1416C1.73451 11.8434 1.5 11.4579 1.5 11V3C1.5 2.54207 1.73451 2.15658 2.0498 1.8584C2.36398 1.56133 2.79122 1.31596 3.27832 1.12109C4.25564 0.730165 5.57196 0.5 7 0.5ZM11.5 8.48633C11.2676 8.63413 11.0051 8.76553 10.7217 8.87891C9.74436 9.26983 8.42804 9.5 7 9.5C5.57196 9.5 4.25564 9.26983 3.27832 8.87891C2.99492 8.76553 2.73239 8.63413 2.5 8.48633V11C2.5 11.0943 2.54574 11.2347 2.73633 11.415C2.92811 11.5964 3.23284 11.7832 3.65039 11.9502C4.4827 12.2831 5.66676 12.5 7 12.5C8.33324 12.5 9.5173 12.2831 10.3496 11.9502C10.7672 11.7832 11.0719 11.5964 11.2637 11.415C11.4543 11.2347 11.5 11.0943 11.5 11V8.48633ZM11.5 4.48633C11.2676 4.63413 11.0051 4.76553 10.7217 4.87891C9.74436 5.26983 8.42804 5.5 7 5.5C5.57196 5.5 4.25564 5.26983 3.27832 4.87891C2.99492 4.76553 2.73239 4.63413 2.5 4.48633V7C2.5 7.09433 2.54574 7.23474 2.73633 7.41504C2.92811 7.59641 3.23284 7.78318 3.65039 7.9502C4.4827 8.28306 5.66676 8.5 7 8.5C8.33324 8.5 9.5173 8.28306 10.3496 7.9502C10.7672 7.78318 11.0719 7.59641 11.2637 7.41504C11.4543 7.23474 11.5 7.09433 11.5 7V4.48633ZM7 1.5C5.66676 1.5 4.4827 1.71694 3.65039 2.0498C3.23284 2.21682 2.92811 2.40359 2.73633 2.58496C2.54574 2.76526 2.5 2.90567 2.5 3C2.5 3.09433 2.54574 3.23474 2.73633 3.41504C2.92811 3.59641 3.23284 3.78318 3.65039 3.9502C4.4827 4.28306 5.66676 4.5 7 4.5C8.33324 4.5 9.5173 4.28306 10.3496 3.9502C10.7672 3.78318 11.0719 3.59641 11.2637 3.41504C11.4543 3.23474 11.5 3.09433 11.5 3C11.5 2.90567 11.4543 2.76526 11.2637 2.58496C11.0719 2.40359 10.7672 2.21682 10.3496 2.0498C9.5173 1.71694 8.33324 1.5 7 1.5Z" fill="#242629"/>
</svg>
