<svg width="14" height="14" viewBox="0 0 14 14" fill="none" xmlns="http://www.w3.org/2000/svg">
<path d="M10.7639 8C10.9694 8 11.1189 7.99921 11.2502 8.01562C12.1585 8.12948 12.8739 8.84547 12.9866 9.75391C13.0029 9.88541 13.0024 10.0345 13.0022 10.2402C13.002 10.4456 13.0022 10.5943 12.9856 10.7256C12.8712 11.6324 12.1561 12.3465 11.2493 12.46C11.1181 12.4763 10.969 12.4756 10.7639 12.4756H9.2356C9.0301 12.4756 8.88064 12.4764 8.74927 12.46C7.84106 12.3461 7.12572 11.63 7.01294 10.7217C7.00477 10.6558 7.00099 10.5854 6.99927 10.5059L6.99829 10.2354C6.99852 10.0301 6.99741 9.88122 7.01392 9.75C7.12831 8.84317 7.84332 8.12911 8.75024 8.01562C8.88144 7.99925 9.03049 8 9.2356 8H10.7639ZM9.2356 9C9.0007 9 8.9282 9.0011 8.87427 9.00781C8.42087 9.06461 8.0633 9.42163 8.0061 9.875C7.99932 9.92896 7.99856 10.0011 7.99829 10.2363C7.99803 10.4723 7.9994 10.5446 8.0061 10.5986C8.0626 11.0527 8.42018 11.4109 8.87427 11.4678C8.92822 11.4744 9.00095 11.4756 9.2356 11.4756H10.7639C10.9986 11.4756 11.0713 11.4745 11.1252 11.4678C11.5786 11.411 11.9361 11.0539 11.9934 10.6006C12.0002 10.5466 12.0019 10.4747 12.0022 10.2393L12.0012 9.98926C12.0002 9.93539 11.9977 9.90387 11.9944 9.87695C11.938 9.42279 11.5803 9.06481 11.1262 9.00781C11.0722 9.00107 10.9995 9 10.7639 9H9.2356ZM2.99927 7.5C3.27541 7.5 3.49927 7.72386 3.49927 8V8.5C3.49947 9.3281 4.17118 9.99975 4.99927 10H5.49927C5.77541 10 5.99927 10.2239 5.99927 10.5C5.99906 10.776 5.77528 11 5.49927 11H4.99927C3.61889 10.9998 2.49947 9.88038 2.49927 8.5V8C2.49927 7.72401 2.72334 7.50025 2.99927 7.5ZM6.29028 1.08398C6.61317 1.08398 6.8797 1.08368 7.09692 1.09766C7.3181 1.11192 7.52348 1.14269 7.72192 1.21973C8.24455 1.42277 8.65815 1.83591 8.86157 2.3584C8.93883 2.55689 8.96921 2.76211 8.98364 2.9834C8.99779 3.20066 8.99806 3.46703 8.99829 3.79004C8.99853 4.11322 8.99846 4.37925 8.98462 4.59668C8.9705 4.81823 8.94057 5.0239 8.86353 5.22266C8.66048 5.74599 8.2461 6.15988 7.7229 6.36328C7.52434 6.4404 7.31926 6.47204 7.0979 6.48633C6.88042 6.50033 6.61359 6.5 6.29028 6.5H3.70044C3.37779 6.5 3.11188 6.50031 2.89478 6.48633C2.67357 6.47207 2.46824 6.44128 2.26978 6.36426C1.74708 6.16118 1.33352 5.74719 1.13013 5.22461C1.05293 5.02613 1.02149 4.8209 1.00708 4.59961C0.992954 4.38245 0.993642 4.1167 0.993408 3.79395C0.993174 3.47052 0.992244 3.20386 1.0061 2.98633C1.02023 2.76477 1.05108 2.55913 1.12817 2.36035C1.33123 1.83721 1.74481 1.42313 2.26782 1.21973C2.46655 1.14247 2.67224 1.11195 2.8938 1.09766C3.11115 1.08365 3.37737 1.08398 3.70044 1.08398H6.29028ZM3.70044 2.08398C3.36463 2.08398 3.13601 2.08426 2.95825 2.0957C2.78466 2.10691 2.69348 2.12771 2.63013 2.15234C2.36871 2.25411 2.16128 2.46111 2.05981 2.72266C2.03533 2.78599 2.0152 2.87675 2.00415 3.0498C1.99282 3.22771 1.99316 3.45669 1.99341 3.79297C1.99365 4.12886 1.99356 4.35749 2.00513 4.53516C2.01643 4.70845 2.03715 4.79901 2.06177 4.8623C2.16339 5.12341 2.37002 5.33003 2.6311 5.43164C2.69442 5.45623 2.78587 5.4771 2.95923 5.48828C3.13675 5.4997 3.36508 5.5 3.70044 5.5H6.29028C6.62646 5.5 6.85557 5.49973 7.03345 5.48828C7.20653 5.47711 7.29727 5.45617 7.3606 5.43164C7.62217 5.32995 7.82937 5.12296 7.93091 4.86133C7.9555 4.79793 7.9755 4.70696 7.98657 4.5332C7.99789 4.35539 7.99853 4.12698 7.99829 3.79102C7.99805 3.45519 7.99716 3.22648 7.9856 3.04883C7.97432 2.87576 7.9545 2.78498 7.92993 2.72168C7.82821 2.4604 7.62099 2.25288 7.35962 2.15137C7.29632 2.12685 7.20544 2.10686 7.03247 2.0957C6.85483 2.08428 6.62602 2.08398 6.29028 2.08398H3.70044Z" fill="#242629"/>
</svg>
