<svg width="14" height="14" viewBox="0 0 14 14" fill="none" xmlns="http://www.w3.org/2000/svg">
<path d="M9.2998 1C9.85161 1 10.2957 0.999999 10.6543 1.0293C11.0186 1.05907 11.3387 1.12163 11.6348 1.27246C12.1052 1.51214 12.4879 1.89483 12.7275 2.36523C12.8784 2.66133 12.9409 2.98136 12.9707 3.3457C13 3.70429 13 4.14839 13 4.7002V7.2998C13 7.85161 13 8.29571 12.9707 8.6543C12.9409 9.01864 12.8784 9.33867 12.7275 9.63477C12.4879 10.1052 12.1052 10.4879 11.6348 10.7275C11.3387 10.8784 11.0186 10.9409 10.6543 10.9707C10.2957 11 9.85161 11 9.2998 11H9.0957C9.19657 11.2567 9.37325 11.4813 9.60938 11.6387L9.85547 11.8027C10.3931 12.1616 10.1388 13 9.49219 13H4.50781C3.86124 13 3.60694 12.1616 4.14453 11.8027L4.39062 11.6387C4.62675 11.4813 4.80343 11.2567 4.9043 11H4.7002C4.14839 11 3.70429 11 3.3457 10.9707C2.98136 10.9409 2.66133 10.8784 2.36523 10.7275C1.89483 10.4879 1.51214 10.1052 1.27246 9.63477C1.12163 9.33867 1.05907 9.01864 1.0293 8.6543C0.999999 8.29571 1 7.85161 1 7.2998V4.7002C1 4.14839 0.999999 3.70429 1.0293 3.3457C1.05907 2.98136 1.12163 2.66133 1.27246 2.36523C1.51214 1.89483 1.89483 1.51214 2.36523 1.27246C2.66133 1.12163 2.98136 1.05907 3.3457 1.0293C3.70429 0.999999 4.14839 1 4.7002 1H9.2998ZM5.94336 11C5.86355 11.3674 5.70007 11.7104 5.46289 12H8.53711C8.29993 11.7104 8.13645 11.3674 8.05664 11H5.94336ZM2.02539 8.57324C2.05009 8.87529 2.09613 9.04909 2.16309 9.18066C2.3069 9.46291 2.53709 9.6931 2.81934 9.83691C2.95091 9.90387 3.12471 9.94991 3.42676 9.97461C3.73518 9.99981 4.13189 10 4.7002 10H9.2998C9.86811 10 10.2648 9.99981 10.5732 9.97461C10.8753 9.94991 11.0491 9.90387 11.1807 9.83691C11.4629 9.6931 11.6931 9.46291 11.8369 9.18066C11.9039 9.04909 11.9499 8.87529 11.9746 8.57324C11.9766 8.5494 11.9769 8.52493 11.9785 8.5H2.02148C2.02314 8.52493 2.02344 8.5494 2.02539 8.57324ZM4.7002 2C4.13189 2 3.73518 2.00019 3.42676 2.02539C3.12471 2.05009 2.95091 2.09613 2.81934 2.16309C2.53709 2.3069 2.3069 2.53709 2.16309 2.81934C2.09613 2.95091 2.05009 3.12471 2.02539 3.42676C2.00019 3.73518 2 4.13189 2 4.7002V7.2998C2 7.36903 2.00093 7.43571 2.00098 7.5H11.999C11.9991 7.43571 12 7.36903 12 7.2998V4.7002C12 4.13189 11.9998 3.73518 11.9746 3.42676C11.9499 3.12471 11.9039 2.95091 11.8369 2.81934C11.6931 2.53709 11.4629 2.3069 11.1807 2.16309C11.0491 2.09613 10.8753 2.05009 10.5732 2.02539C10.2648 2.00019 9.86811 2 9.2998 2H4.7002Z" fill="#242629"/>
</svg>
