<svg width="14" height="14" viewBox="0 0 14 14" fill="none" xmlns="http://www.w3.org/2000/svg">
<path d="M4.54883 1.5C5.50772 1.5 6.39919 1.92803 7 2.63965C7.60084 1.92804 8.49228 1.50005 9.45117 1.5H12.5C13.3284 1.50008 14 2.17162 14 3V10.5C14 11.3284 13.3284 11.9999 12.5 12H9.40137C8.57118 12 7.81335 12.4737 7.44922 13.2197L7.44727 13.2188C7.36593 13.3847 7.19731 13.5 7 13.5C6.80254 13.5 6.63302 13.3849 6.55176 13.2188L6.55078 13.2197C6.18674 12.4737 5.42875 12 4.59863 12H1.5C0.671573 12 0 11.3284 0 10.5V3C0 2.17157 0.671573 1.5 1.5 1.5H4.54883ZM1.5 2.5C1.22386 2.5 1 2.72386 1 3V10.5C1 10.7761 1.22386 11 1.5 11H4.59863C5.29776 11 5.9615 11.23 6.5 11.6338V3.67578C6.11862 2.9554 5.36958 2.5 4.54883 2.5H1.5ZM9.45117 2.5C8.63042 2.50006 7.88143 2.95542 7.5 3.67578V11.6338C8.0385 11.23 8.70218 11 9.40137 11H12.5C12.7761 10.9999 13 10.7761 13 10.5V3C13 2.72391 12.7761 2.50008 12.5 2.5H9.45117ZM10.5 8C10.7761 8 11 8.22386 11 8.5C11 8.77614 10.7761 9 10.5 9H9C8.72386 9 8.5 8.77614 8.5 8.5C8.5 8.22386 8.72386 8 9 8H10.5ZM11.5 6C11.7761 6 12 6.22386 12 6.5C12 6.77614 11.7761 7 11.5 7H9C8.72386 7 8.5 6.77614 8.5 6.5C8.5 6.22386 8.72386 6 9 6H11.5Z" fill="#242629"/>
</svg>
