<svg width="14" height="14" viewBox="0 0 14 14" fill="none" xmlns="http://www.w3.org/2000/svg">
<path d="M7.00012 0.5C7.2762 0.500079 7.50012 0.723906 7.50012 1V2.03711C7.9407 2.08521 8.37216 2.1808 8.76868 2.32812C9.50411 2.60145 10.1758 3.07019 10.5138 3.77832C10.6326 4.02739 10.5273 4.32625 10.2784 4.44531C10.0605 4.54933 9.80444 4.48123 9.66418 4.2959L9.61145 4.20898L9.5304 4.06543C9.31838 3.73658 8.93908 3.4585 8.42004 3.26562C7.83248 3.04732 7.11944 2.95941 6.42883 3.0166C5.73498 3.07409 5.10697 3.27405 4.66711 3.58594C4.24114 3.88805 4.00014 4.28437 4.00012 4.79395C4.00012 5.09589 4.07968 5.29556 4.19446 5.44238C4.31538 5.59697 4.50582 5.73165 4.7843 5.84668C5.36332 6.08572 6.15781 6.17867 7.06165 6.29102C7.9173 6.39737 8.87902 6.52195 9.62219 6.87695C10.0048 7.05977 10.3563 7.31522 10.6105 7.68262C10.8675 8.05423 11.0001 8.50501 11.0001 9.03418C11.0001 9.95428 10.5302 10.6745 9.86145 11.1631C9.21122 11.6379 8.36153 11.9061 7.50012 11.9785V13C7.50012 13.2761 7.2762 13.4999 7.00012 13.5C6.72398 13.5 6.50012 13.2761 6.50012 13V11.9736C5.1087 11.8444 3.70267 11.196 3.10071 9.83789L3.03235 9.67188L3.00598 9.57422C2.96876 9.34478 3.09673 9.11317 3.32239 9.02734C3.54817 8.94182 3.79759 9.0303 3.922 9.22656L3.9679 9.31738L4.06458 9.53418C4.60414 10.5848 5.97353 11.0955 7.38782 10.9854C8.12225 10.9281 8.79588 10.7029 9.27161 10.3555C9.73711 10.0154 10.0001 9.57305 10.0001 9.03418C10.0001 8.67888 9.91371 8.43357 9.78821 8.25195C9.65963 8.06606 9.46399 7.90994 9.19055 7.7793C8.62136 7.5075 7.83259 7.39433 6.9386 7.2832C6.09278 7.17807 5.13681 7.07413 4.40344 6.77148C4.02603 6.61565 3.66918 6.39248 3.40735 6.05762C3.13932 5.71477 3.00012 5.2921 3.00012 4.79395C3.00014 3.90348 3.44858 3.2247 4.08899 2.77051C4.71549 2.32629 5.53152 2.08805 6.3468 2.02051C6.39772 2.0163 6.44891 2.01463 6.50012 2.01172V1C6.50012 0.723858 6.72398 0.5 7.00012 0.5Z" fill="#242629"/>
</svg>
