<svg width="14" height="14" viewBox="0 0 14 14" fill="none" xmlns="http://www.w3.org/2000/svg">
<path d="M12.5 9C12.7761 9 13 9.22386 13 9.5V10C13 11.6569 11.6569 13 10 13H4C2.34315 13 1 11.6569 1 10V9.5C1 9.22386 1.22386 9 1.5 9C1.77614 9 2 9.22386 2 9.5V10C2 11.1046 2.89543 12 4 12H10C11.1046 12 12 11.1046 12 10V9.5C12 9.22386 12.2239 9 12.5 9ZM7 1C7.27614 1 7.5 1.22386 7.5 1.5V7.31055L9.15039 5.69336C9.34762 5.50008 9.66414 5.50297 9.85742 5.7002C10.0505 5.89744 10.0468 6.21402 9.84961 6.40723L7.34961 8.85742L7.27246 8.91992C7.08013 9.04498 6.82055 9.02387 6.65039 8.85742L4.15039 6.40723C3.95325 6.21403 3.94954 5.89744 4.14258 5.7002C4.31166 5.52767 4.57516 5.50382 4.77051 5.62988L4.84961 5.69336L6.5 7.31055V1.5C6.5 1.22386 6.72386 1 7 1Z" fill="#242629"/>
</svg>
