<svg width="14" height="14" viewBox="0 0 14 14" fill="none" xmlns="http://www.w3.org/2000/svg">
<g clip-path="url(#clip0_19835_2095)">
<path d="M8.99963 3.49988C9.69127 3.49983 10.2403 3.49994 10.6823 3.53601C11.1299 3.57257 11.5124 3.64897 11.8619 3.82703C12.4261 4.11457 12.8849 4.57343 13.1725 5.13757C13.3506 5.48716 13.4269 5.86951 13.4635 6.31726C13.4996 6.75918 13.4996 7.30818 13.4996 7.99988V9.66394C13.4996 10.4084 13.5041 10.8798 13.3971 11.2782C13.1193 12.3118 12.3116 13.1196 11.278 13.3973C10.8796 13.5043 10.4089 13.4998 9.66467 13.4999H7.99963C7.30795 13.4999 6.75893 13.4998 6.31702 13.4637C5.86929 13.4272 5.48691 13.3508 5.13733 13.1727C4.5732 12.8852 4.11434 12.4263 3.82678 11.8622C3.64871 11.5126 3.57235 11.1302 3.53577 10.6825C3.49967 10.2406 3.49963 9.69154 3.49963 8.99988V7.5282C3.49963 6.61143 3.49325 6.03071 3.65491 5.54773C3.95384 4.65516 4.65491 3.95407 5.54749 3.65515C6.03046 3.49354 6.6112 3.49988 7.52795 3.49988H8.99963ZM7.52795 4.49988C6.53116 4.49988 6.15441 4.50652 5.86487 4.60339C5.26984 4.80267 4.80244 5.27009 4.60315 5.86511C4.50622 6.15466 4.49964 6.53134 4.49963 7.5282V8.99988C4.49963 9.70802 4.49987 10.2097 4.53186 10.6014C4.56339 10.9871 4.62315 11.223 4.71741 11.4081C4.90912 11.7843 5.21527 12.0904 5.59143 12.2821C5.77651 12.3764 6.01239 12.4361 6.39807 12.4677C6.78983 12.4996 7.29144 12.4999 7.99963 12.4999H9.66467C10.473 12.4998 10.7795 12.4955 11.0182 12.4315C11.7074 12.2464 12.2461 11.7076 12.4313 11.0184C12.4954 10.7796 12.4996 10.4728 12.4996 9.66394V7.99988C12.4996 7.29165 12.4994 6.79009 12.4674 6.39832C12.4359 6.01259 12.3762 5.77677 12.2819 5.59167C12.0901 5.2155 11.784 4.90936 11.4078 4.71765C11.2228 4.6234 10.9868 4.56361 10.6012 4.5321C10.2094 4.50013 9.70778 4.49983 8.99963 4.49988H7.52795ZM8.49963 5.99988C8.7757 5.99991 8.99955 6.22383 8.99963 6.49988V7.99988H10.4996C10.7757 7.99988 10.9995 8.22381 10.9996 8.49988C10.9996 8.77602 10.7758 8.99988 10.4996 8.99988H8.99963V10.4999C8.99963 10.776 8.77576 10.9999 8.49963 10.9999C8.22367 10.9997 7.99966 10.7759 7.99963 10.4999V8.99988H6.49963C6.22364 8.9997 5.99963 8.77591 5.99963 8.49988C5.99972 8.22392 6.2237 8.00006 6.49963 7.99988H7.99963V6.49988C7.99975 6.22394 8.22372 6.00006 8.49963 5.99988ZM6.99963 0.499878C7.44479 0.499878 7.72646 0.498564 7.96936 0.536987C8.75811 0.662036 9.44288 1.09103 9.90002 1.70007C10.0654 1.92092 10.0202 2.23462 9.79944 2.40027C9.57861 2.56545 9.26581 2.52032 9.10022 2.29968C8.79493 1.893 8.33784 1.60756 7.81213 1.52429C7.66659 1.50134 7.48238 1.49988 6.99963 1.49988H4.52795C3.53129 1.49988 3.15439 1.50651 2.86487 1.60339C2.26992 1.80272 1.8024 2.27012 1.60315 2.86511C1.50627 3.15466 1.49964 3.53136 1.49963 4.5282V6.99988C1.49963 7.48285 1.50106 7.6668 1.52405 7.81238C1.60731 8.33808 1.89277 8.79517 2.29944 9.10046C2.52014 9.2661 2.56535 9.57884 2.40002 9.79968C2.23436 10.0203 1.92065 10.0656 1.69983 9.90027C1.0908 9.44312 0.661786 8.75835 0.536743 7.9696C0.49829 7.72666 0.499632 7.44515 0.499634 6.99988V4.5282C0.499636 3.61141 0.493288 3.03071 0.654907 2.54773C0.953793 1.65519 1.65499 0.95412 2.54749 0.655151C3.03043 0.49354 3.6113 0.499875 4.52795 0.499878H6.99963Z" fill="#242629"/>
</g>
<defs>
<clipPath id="clip0_19835_2095">
<rect width="14" height="14" fill="white"/>
</clipPath>
</defs>
</svg>
