<svg width="14" height="14" viewBox="0 0 14 14" fill="none" xmlns="http://www.w3.org/2000/svg">
<path d="M10.9983 1C11.5291 1.00016 12.038 1.21157 12.4133 1.58691C12.7886 1.96232 13.0002 2.47111 13.0002 3.00195C13.0002 3.53291 12.7887 4.04249 12.4133 4.41797L11.3752 5.45508C11.3683 5.46301 11.3632 5.47286 11.3557 5.48047C11.3473 5.48896 11.3363 5.49519 11.3274 5.50293L5.77075 11.0605C5.3783 11.453 5.14402 11.6896 4.87524 11.8828C4.64346 12.0494 4.39417 12.1906 4.13208 12.3037C3.82805 12.4348 3.50455 12.5148 2.96606 12.6494L1.62134 12.9854C1.4511 13.0278 1.27085 12.9775 1.14673 12.8535C1.02261 12.7294 0.972418 12.5492 1.01489 12.3789L1.35278 11.0293C1.48696 10.4926 1.56606 10.1703 1.69653 9.86719C1.80909 9.60577 1.94966 9.35731 2.11548 9.12598C2.30771 8.85784 2.54247 8.62333 2.93286 8.23145L8.49634 2.64746L8.50122 2.64258L9.58618 1.58203C9.96125 1.20925 10.4693 1 10.9983 1ZM3.64087 8.9375C3.2287 9.35125 3.06218 9.52085 2.92798 9.70801C2.804 9.88097 2.69866 10.0672 2.6145 10.2627C2.52343 10.4743 2.46422 10.7046 2.32251 11.2715L2.18677 11.8125L2.7229 11.6787C3.29174 11.5365 3.5233 11.4773 3.7356 11.3857C3.93166 11.3012 4.11887 11.1959 4.29224 11.0713C4.47989 10.9363 4.64919 10.768 5.06372 10.3535L10.2883 5.12793L8.85181 3.70508L3.64087 8.9375ZM10.9983 2C10.7326 2 10.4772 2.10608 10.2893 2.29395L10.2854 2.29785L9.56274 3.00195L10.9954 4.4209L11.7063 3.71094C11.8942 3.523 12.0002 3.26769 12.0002 3.00195C12.0002 2.73632 11.8941 2.48182 11.7063 2.29395C11.5185 2.10614 11.2639 2.00016 10.9983 2Z" fill="#242629"/>
</svg>
