<svg width="14" height="14" viewBox="0 0 14 14" fill="none" xmlns="http://www.w3.org/2000/svg">
<g clip-path="url(#clip0_19835_2382)">
<path d="M11.5 9C11.7761 9 12 9.22386 12 9.5V11H13.5C13.7761 11 14 11.2239 14 11.5C14 11.7761 13.7761 12 13.5 12H12V13.5C12 13.7761 11.7761 14 11.5 14C11.2239 14 11 13.7761 11 13.5V12H9.5C9.22386 12 9 11.7761 9 11.5C9 11.2239 9.22386 11 9.5 11H11V9.5C11 9.22386 11.2239 9 11.5 9ZM9 1.5C9.69178 1.5 10.2407 1.50003 10.6826 1.53613C11.1304 1.57272 11.5127 1.64901 11.8623 1.82715C12.4265 2.11472 12.8853 2.57348 13.1729 3.1377C13.351 3.48731 13.4273 3.8696 13.4639 4.31738C13.5 4.75933 13.5 5.30823 13.5 6V7.5C13.5 7.77614 13.2761 8 13 8C12.7239 8 12.5 7.77614 12.5 7.5V6C12.5 5.2917 12.4998 4.79023 12.4678 4.39844C12.4362 4.01266 12.3765 3.7769 12.2822 3.5918C12.0905 3.21556 11.7844 2.9095 11.4082 2.71777C11.2231 2.62346 10.9874 2.56377 10.6016 2.53223C10.2098 2.50022 9.70831 2.5 9 2.5H5C4.29169 2.5 3.79023 2.50022 3.39844 2.53223C3.01265 2.56377 2.77691 2.62346 2.5918 2.71777C2.21555 2.9095 1.90951 3.21556 1.71777 3.5918C1.62346 3.7769 1.56377 4.01266 1.53223 4.39844C1.50022 4.79023 1.5 5.2917 1.5 6V8C1.5 8.7083 1.50022 9.20977 1.53223 9.60156C1.56376 9.98734 1.62346 10.2231 1.71777 10.4082C1.90951 10.7845 2.21555 11.0905 2.5918 11.2822C2.77691 11.3765 3.01264 11.4362 3.39844 11.4678C3.79023 11.4998 4.29168 11.5 5 11.5H7C7.27613 11.5 7.49998 11.7239 7.5 12C7.5 12.2761 7.27614 12.5 7 12.5H5C4.30822 12.5 3.75934 12.5 3.31738 12.4639C2.86958 12.4273 2.48732 12.351 2.1377 12.1729C1.57348 11.8853 1.11472 11.4265 0.827148 10.8623C0.649016 10.5127 0.572719 10.1304 0.536133 9.68262C0.500031 9.24067 0.5 8.69177 0.5 8V6C0.5 5.30823 0.500028 4.75933 0.536133 4.31738C0.572721 3.8696 0.649011 3.48731 0.827148 3.1377C1.11472 2.57348 1.57348 2.11472 2.1377 1.82715C2.48732 1.64901 2.86959 1.57272 3.31738 1.53613C3.75934 1.50003 4.30822 1.5 5 1.5H9ZM10.6504 4.64258C10.8478 4.44952 11.1643 4.45303 11.3574 4.65039C11.5505 4.84778 11.547 5.16432 11.3496 5.35742L10.5977 6.09277C9.82133 6.85225 9.20351 7.4581 8.65625 7.86621C8.09738 8.28296 7.55259 8.54027 6.91602 8.5332C6.27959 8.52603 5.7408 8.25712 5.19141 7.82812C4.65334 7.40797 4.04932 6.78824 3.29004 6.01172L2.64258 5.34961L2.5791 5.27051C2.4532 5.07504 2.4777 4.81149 2.65039 4.64258C2.82331 4.47351 3.08761 4.45524 3.28027 4.58594L3.35742 4.65039L4.00488 5.3125C4.78389 6.10919 5.33391 6.67088 5.80664 7.04004C6.26796 7.40026 6.59773 7.52954 6.92773 7.5332C7.25766 7.53681 7.5895 7.41427 8.05859 7.06445C8.53941 6.70588 9.10194 6.15714 9.89844 5.37793L10.6504 4.64258Z" fill="#242629"/>
</g>
<defs>
<clipPath id="clip0_19835_2382">
<rect width="14" height="14" fill="white"/>
</clipPath>
</defs>
</svg>
