<svg width="14" height="14" viewBox="0 0 14 14" fill="none" xmlns="http://www.w3.org/2000/svg">
<path d="M12.2224 9.08398C12.3758 8.9817 12.5735 8.97256 12.7361 9.05957C12.8984 9.14666 12.9998 9.31578 12.9998 9.5V13.5C12.9998 13.7761 12.7759 14 12.4998 14C12.2236 14 11.9998 13.7761 11.9998 13.5V10.4336L11.2771 10.916C11.0473 11.0692 10.7369 11.0071 10.5837 10.7773C10.4306 10.5476 10.4926 10.2372 10.7224 10.084L12.2224 9.08398ZM8.99976 1.5C9.69154 1.5 10.2404 1.50003 10.6824 1.53613C11.1302 1.57272 11.5124 1.64901 11.8621 1.82715C12.4263 2.11472 12.885 2.57347 13.1726 3.1377C13.3507 3.48732 13.427 3.86958 13.4636 4.31738C13.4997 4.75934 13.4998 5.30822 13.4998 6V7C13.4998 7.27614 13.2759 7.5 12.9998 7.5C12.7236 7.5 12.4998 7.27614 12.4998 7V6C12.4998 5.29168 12.4995 4.79023 12.4675 4.39844C12.436 4.01264 12.3763 3.77691 12.282 3.5918C12.0902 3.21554 11.7842 2.90951 11.408 2.71777C11.2228 2.62345 10.9871 2.56377 10.6013 2.53223C10.2095 2.50022 9.70807 2.5 8.99976 2.5H4.99976C4.29144 2.5 3.78999 2.50022 3.39819 2.53223C3.01239 2.56377 2.77667 2.62345 2.59155 2.71777C2.2153 2.90951 1.90926 3.21554 1.71753 3.5918C1.62321 3.77691 1.56352 4.01264 1.53198 4.39844C1.49997 4.79023 1.49976 5.29168 1.49976 6V8C1.49976 8.70832 1.49997 9.20977 1.53198 9.60156C1.56352 9.98736 1.62321 10.2231 1.71753 10.4082C1.90926 10.7845 2.2153 11.0905 2.59155 11.2822C2.77667 11.3765 3.01239 11.4362 3.39819 11.4678C3.78999 11.4998 4.29144 11.5 4.99976 11.5H8.99976C9.2759 11.5 9.49976 11.7239 9.49976 12C9.49976 12.2761 9.2759 12.5 8.99976 12.5H4.99976C4.30797 12.5 3.75909 12.5 3.31714 12.4639C2.86934 12.4273 2.48707 12.351 2.13745 12.1729C1.57323 11.8853 1.11448 11.4265 0.826904 10.8623C0.648762 10.5127 0.572475 10.1304 0.535889 9.68262C0.499784 9.24066 0.499756 8.69178 0.499756 8V6C0.499756 5.30822 0.499784 4.75934 0.535889 4.31738C0.572475 3.86958 0.648762 3.48732 0.826904 3.1377C1.11448 2.57347 1.57323 2.11472 2.13745 1.82715C2.48707 1.64901 2.86934 1.57272 3.31714 1.53613C3.75909 1.50003 4.30797 1.5 4.99976 1.5H8.99976ZM10.6501 4.64258C10.8475 4.4495 11.1641 4.45301 11.3572 4.65039C11.5503 4.84779 11.5468 5.16432 11.3494 5.35742L10.5974 6.09277C9.82107 6.85226 9.20327 7.4581 8.65601 7.86621C8.09714 8.28296 7.55234 8.54027 6.91577 8.5332C6.27935 8.52603 5.74055 8.25712 5.19116 7.82812C4.65309 7.40797 4.04909 6.78824 3.28979 6.01172L2.64233 5.34961L2.57886 5.27051C2.45294 5.07503 2.47745 4.8115 2.65015 4.64258C2.82307 4.47349 3.08736 4.45523 3.28003 4.58594L3.35718 4.65039L4.00464 5.3125C4.78366 6.1092 5.33366 6.67088 5.8064 7.04004C6.26771 7.40026 6.59749 7.52954 6.92749 7.5332C7.25742 7.53681 7.58926 7.41427 8.05835 7.06445C8.53917 6.70588 9.10168 6.15715 9.89819 5.37793L10.6501 4.64258Z" fill="#242629"/>
</svg>
