<svg width="14" height="14" viewBox="0 0 14 14" fill="none" xmlns="http://www.w3.org/2000/svg">
<g clip-path="url(#clip0_19835_2377)">
<path d="M12.5557 7.99976C12.9385 7.99976 13.3064 8.15191 13.5771 8.42261C13.8479 8.69332 13.9999 9.06125 14 9.44409C13.9999 9.82678 13.8477 10.1939 13.5771 10.4646L11.7178 12.324C11.3254 12.7163 11.091 12.953 10.8223 13.1462C10.5905 13.3128 10.3412 13.4541 10.0791 13.5671C9.77506 13.6982 9.45161 13.7772 8.91309 13.9119L8.62109 13.9851C8.45077 14.0276 8.27063 13.9774 8.14648 13.8533C8.02246 13.7291 7.97216 13.5489 8.01465 13.3787L8.08789 13.0867C8.22249 12.5483 8.30153 12.2247 8.43262 11.9207C8.54566 11.6586 8.68695 11.4093 8.85352 11.1775C9.04672 10.9088 9.28346 10.6743 9.67578 10.282L11.5352 8.42261C11.8058 8.15207 12.173 7.99986 12.5557 7.99976ZM12.5557 8.99976C12.4382 8.99986 12.3253 9.04663 12.2422 9.12964L10.3828 10.989C9.96864 11.4032 9.8009 11.573 9.66602 11.7605C9.5414 11.9339 9.43612 12.1211 9.35156 12.3171C9.2951 12.4481 9.25132 12.5864 9.19238 12.8064C9.41286 12.7473 9.5515 12.7047 9.68262 12.6482C9.87871 12.5636 10.0659 12.4584 10.2393 12.3337C10.4268 12.1988 10.5965 12.0312 11.0107 11.6169L12.8701 9.75757C12.9531 9.67443 12.9999 9.56157 13 9.44409C12.9999 9.32647 12.9533 9.21282 12.8701 9.12964C12.7869 9.04648 12.6733 8.99976 12.5557 8.99976ZM9.5 1.49976C10.3914 1.49976 10.956 1.49339 11.4268 1.64624C12.34 1.94296 13.0567 2.65981 13.3535 3.573C13.5064 4.04375 13.5 4.60844 13.5 5.49976V6.49976C13.5 6.7759 13.2761 6.99976 13 6.99976C12.7239 6.99976 12.5 6.7759 12.5 6.49976V5.49976C12.5 4.53043 12.4941 4.16384 12.4023 3.88159C12.2044 3.27289 11.7269 2.79522 11.1182 2.59741C10.8359 2.50572 10.4695 2.49976 9.5 2.49976H5C4.2917 2.49976 3.79023 2.49997 3.39844 2.53198C3.01272 2.56352 2.77689 2.62325 2.5918 2.71753C2.21562 2.90922 1.90952 3.21541 1.71777 3.59155C1.62348 3.77662 1.56377 4.01257 1.53223 4.39819C1.50022 4.78993 1.5 5.2916 1.5 5.99976V7.99976C1.5 8.70789 1.50024 9.20957 1.53223 9.60132C1.56375 9.98695 1.62352 10.2229 1.71777 10.408C1.90949 10.7842 2.2156 11.0902 2.5918 11.282C2.77691 11.3763 3.01265 11.436 3.39844 11.4675C3.79023 11.4995 4.29168 11.4998 5 11.4998H6.5C6.77604 11.4998 6.99984 11.7238 7 11.9998C7 12.2759 6.77614 12.4998 6.5 12.4998H5C4.30822 12.4998 3.75934 12.4997 3.31738 12.4636C2.86959 12.427 2.48731 12.3507 2.1377 12.1726C1.57353 11.885 1.1147 11.4262 0.827148 10.8621C0.649094 10.5125 0.572711 10.1301 0.536133 9.68237C0.500052 9.24047 0.5 8.69138 0.5 7.99976V5.99976C0.5 5.30811 0.500033 4.75903 0.536133 4.31714C0.572729 3.86947 0.649046 3.487 0.827148 3.13745C1.11473 2.57334 1.57355 2.11444 2.1377 1.8269C2.48729 1.64881 2.86963 1.57247 3.31738 1.53589C3.75933 1.49979 4.30823 1.49976 5 1.49976H9.5ZM10.6504 4.64233C10.8477 4.44945 11.1644 4.45297 11.3574 4.65015C11.5505 4.84749 11.5468 5.16407 11.3496 5.35718L10.5977 6.09253C9.82139 6.85194 9.20348 7.45785 8.65625 7.86597C8.09738 8.28272 7.55259 8.54002 6.91602 8.53296C6.27959 8.52579 5.7408 8.25687 5.19141 7.82788C4.65337 7.40772 4.04926 6.78793 3.29004 6.01147L2.64258 5.34937L2.5791 5.27026C2.45334 5.07481 2.47776 4.81119 2.65039 4.64233C2.82327 4.47343 3.08767 4.45512 3.28027 4.58569L3.35742 4.65015L4.00488 5.31226C4.78382 6.10887 5.33393 6.67064 5.80664 7.03979C6.26796 7.40002 6.59773 7.5293 6.92773 7.53296C7.25766 7.53656 7.5895 7.41403 8.05859 7.06421C8.53938 6.70563 9.10201 6.15682 9.89844 5.37769L10.6504 4.64233Z" fill="#242629"/>
</g>
<defs>
<clipPath id="clip0_19835_2377">
<rect width="14" height="14" fill="white"/>
</clipPath>
</defs>
</svg>
