<svg width="14" height="14" viewBox="0 0 14 14" fill="none" xmlns="http://www.w3.org/2000/svg">
<g clip-path="url(#clip0_19835_2360)">
<path d="M8.79944 0.499756C9.35099 0.499756 9.79543 0.499794 10.1539 0.529053C10.5181 0.558809 10.8384 0.621532 11.1344 0.772217C11.6047 1.01187 11.9875 1.39468 12.2272 1.86499C12.378 2.16107 12.4406 2.48113 12.4703 2.84546C12.4996 3.20405 12.4996 3.64815 12.4996 4.19995V4.76147C13.0781 4.98329 13.4995 5.54169 13.4996 6.21167V9.37769C13.4996 9.89345 13.4994 10.3034 13.4791 10.6355C13.4585 10.9714 13.4156 11.2613 13.3151 11.5349C13.0114 12.3607 12.3605 13.0115 11.5348 13.3152C11.2612 13.4158 10.9714 13.4587 10.6354 13.4792C10.3033 13.4996 9.89345 13.4998 9.37756 13.4998H4.6217C4.10581 13.4998 3.69599 13.4996 3.36389 13.4792C3.02789 13.4587 2.73811 13.4158 2.46448 13.3152C1.63874 13.0115 0.987851 12.3607 0.684204 11.5349C0.583659 11.2613 0.540727 10.9714 0.520142 10.6355C0.499827 10.3034 0.499634 9.89345 0.499634 9.37769V6.21167C0.499736 5.54169 0.921151 4.98329 1.49963 4.76147C1.49963 4.58425 1.49964 4.39643 1.49963 4.19995C1.49963 3.64811 1.49964 3.20407 1.52893 2.84546C1.55869 2.48119 1.62134 2.16102 1.77209 1.86499C2.01171 1.39471 2.39464 1.01191 2.86487 0.772217C3.16083 0.621457 3.48119 0.558838 3.84534 0.529053C4.20382 0.499763 4.64826 0.499756 5.19983 0.499756H8.79944ZM1.49963 6.21167V9.37769C1.49963 9.90591 1.50016 10.2805 1.51819 10.575C1.53599 10.8653 1.56976 11.0462 1.62268 11.1902C1.82512 11.7405 2.25889 12.1743 2.8092 12.3767C2.95324 12.4297 3.13394 12.4634 3.42444 12.4812C3.71894 12.4992 4.09334 12.4998 4.6217 12.4998H9.37756C9.90593 12.4998 10.2803 12.4992 10.5748 12.4812C10.8653 12.4634 11.046 12.4297 11.1901 12.3767C11.7404 12.1743 12.1742 11.7405 12.3766 11.1902C12.4295 11.0462 12.4633 10.8653 12.4811 10.575C12.4991 10.2805 12.4996 9.90591 12.4996 9.37769V6.21167C12.4996 6.19442 12.4953 6.1777 12.4938 6.16089L9.42834 8.76929C9.7229 9.04323 10.0433 9.3559 10.3981 9.7019L10.8492 10.1414C11.0465 10.334 11.051 10.6507 10.859 10.8484C10.6664 11.0458 10.3497 11.0503 10.152 10.8582L9.69983 10.4177C8.95042 9.68686 8.42311 9.17403 7.97327 8.8396C7.53539 8.51416 7.22953 8.4033 6.92932 8.40698C6.6291 8.41088 6.32659 8.52953 5.89709 8.86597C5.4559 9.21163 4.94212 9.73748 4.21155 10.4871L3.85901 10.8484L3.78088 10.9138C3.5887 11.0442 3.32498 11.0262 3.15198 10.8582C2.97895 10.6895 2.9541 10.4259 3.07971 10.2302L3.14221 10.1511L3.49475 9.78882C3.88453 9.38889 4.23224 9.03379 4.54944 8.72827L1.50549 6.15796C1.50378 6.17572 1.49964 6.19342 1.49963 6.21167ZM5.19983 1.49976C4.63179 1.49976 4.23472 1.49995 3.92639 1.52515C3.62464 1.54986 3.45048 1.59592 3.31897 1.66284C3.0369 1.80666 2.80646 2.03698 2.66272 2.31909C2.59583 2.45064 2.54971 2.6246 2.52502 2.92651C2.49983 3.23496 2.49963 3.63161 2.49963 4.19995C2.49964 4.74805 2.49963 5.22867 2.49963 5.60034C2.49962 5.62809 2.49521 5.65488 2.49084 5.6814L5.30627 8.05835C5.81505 7.66464 6.32018 7.41563 6.91663 7.40796C7.52334 7.4004 8.04212 7.64457 8.56995 8.03687C8.60113 8.06005 8.63202 8.0846 8.6637 8.10913C8.66776 8.10543 8.6712 8.101 8.67542 8.09741L11.5084 5.6853C11.5037 5.65763 11.4997 5.62936 11.4996 5.60034V4.19995C11.4996 3.63165 11.4994 3.23493 11.4742 2.92651C11.4495 2.62449 11.4035 2.45066 11.3365 2.31909C11.1927 2.03694 10.9625 1.80662 10.6803 1.66284C10.5488 1.596 10.3746 1.54983 10.0729 1.52515C9.76452 1.49999 9.36744 1.49976 8.79944 1.49976H5.19983ZM9.20081 4.05933C9.42854 4.1059 9.60001 4.30811 9.60022 4.54956C9.60022 4.79117 9.42863 4.99316 9.20081 5.03979L9.10022 5.04956H4.90002C4.62388 5.04956 4.40002 4.8257 4.40002 4.54956C4.40026 4.27362 4.62403 4.04956 4.90002 4.04956H9.10022L9.20081 4.05933Z" fill="#242629"/>
</g>
<defs>
<clipPath id="clip0_19835_2360">
<rect width="14" height="14" fill="white"/>
</clipPath>
</defs>
</svg>
