<svg width="14" height="14" viewBox="0 0 14 14" fill="none" xmlns="http://www.w3.org/2000/svg">
<g clip-path="url(#clip0_19835_2368)">
<path d="M11.5002 8.99976C11.7761 9.00002 12.0001 9.22389 12.0002 9.49976V10.9998H13.5002C13.7761 11 14.0001 11.2239 14.0002 11.4998C14.0002 11.7757 13.7762 11.9995 13.5002 11.9998H12.0002V13.4998C12.0002 13.7757 11.7762 13.9995 11.5002 13.9998C11.2241 13.9998 11.0002 13.7759 11.0002 13.4998V11.9998H9.50024C9.2241 11.9998 9.00024 11.7759 9.00024 11.4998C9.00038 11.2237 9.22418 10.9998 9.50024 10.9998H11.0002V9.49976C11.0004 9.22373 11.2242 8.99976 11.5002 8.99976ZM8.80005 0.499756C9.35162 0.499756 9.79606 0.499764 10.1545 0.529053C10.5187 0.558838 10.839 0.621457 11.135 0.772217C11.6052 1.01191 11.9882 1.39471 12.2278 1.86499C12.3785 2.16103 12.4412 2.48119 12.4709 2.84546C12.5002 3.20404 12.5002 3.64817 12.5002 4.19995V4.58667C13.0821 4.79296 13.4993 5.34722 13.4993 5.99976V7.49976C13.4993 7.7759 13.2754 7.99976 12.9993 7.99976C12.7231 7.99976 12.4993 7.7759 12.4993 7.49976V6.15698L9.43579 8.76343L9.50317 8.82886C9.70053 9.0216 9.70443 9.33826 9.51196 9.53589C9.31924 9.7335 9.00264 9.7382 8.80493 9.54565L8.35669 9.10815C8.13758 8.89446 8.05643 8.81669 7.98657 8.76245C7.36425 8.27973 6.49106 8.29061 5.8811 8.78882C5.8126 8.84481 5.73351 8.92401 5.51978 9.14331L3.85864 10.8484L3.78052 10.9138C3.58834 11.0442 3.32462 11.0262 3.15161 10.8582C2.97859 10.6895 2.95374 10.4259 3.07935 10.2302L3.14185 10.1511L4.53735 8.71851L1.49927 6.1521V9.10034C1.49927 9.76075 1.49965 10.2284 1.52759 10.5945C1.55513 10.9552 1.60748 11.1765 1.6897 11.3513C1.88784 11.7724 2.22661 12.1111 2.64771 12.3093C2.82254 12.3916 3.04463 12.4439 3.40552 12.4714C3.77155 12.4993 4.23863 12.4998 4.89868 12.4998H7.49927C7.77541 12.4997 8.00023 12.7236 8.00024 12.9998C8.00024 13.2413 7.82857 13.4433 7.60083 13.49L7.50024 13.4998H4.89868C4.2539 13.4998 3.74224 13.5 3.32935 13.4685C2.91105 13.4366 2.55264 13.3702 2.22192 13.2146C1.59013 12.9173 1.08166 12.4089 0.784424 11.7771C0.628898 11.4465 0.562449 11.0888 0.530518 10.6707C0.499003 10.2577 0.499268 9.74539 0.499268 9.10034V6.00073C0.499268 5.34751 0.917471 4.79286 1.50024 4.58667C1.50024 4.46214 1.50025 4.33303 1.50024 4.19995C1.50024 3.64809 1.50025 3.20407 1.52954 2.84546C1.55931 2.48113 1.62189 2.16106 1.77271 1.86499C2.01239 1.39467 2.39514 1.01187 2.86548 0.772217C3.16146 0.621533 3.48176 0.558809 3.84595 0.529053C4.20445 0.499794 4.64889 0.499756 5.20044 0.499756H8.80005ZM5.20044 1.49976C4.63244 1.49976 4.23535 1.49999 3.927 1.52515C3.62525 1.54982 3.45111 1.596 3.31958 1.66284C3.03741 1.80662 2.80714 2.03694 2.66333 2.31909C2.59639 2.45065 2.55034 2.62448 2.52563 2.92651C2.50044 3.23497 2.50024 3.63159 2.50024 4.19995C2.50025 4.74805 2.50024 5.22867 2.50024 5.60034C2.50023 5.62803 2.4958 5.65493 2.49146 5.6814L5.25024 8.01147C6.22098 7.22045 7.61021 7.20459 8.59985 7.97241C8.63642 8.0008 8.67136 8.03387 8.71021 8.06812L11.5081 5.68628C11.5032 5.65831 11.5003 5.62969 11.5002 5.60034V4.19995C11.5002 3.63167 11.5 3.23493 11.4749 2.92651C11.4502 2.62461 11.4041 2.45065 11.3372 2.31909C11.1934 2.03698 10.963 1.80666 10.6809 1.66284C10.5494 1.59593 10.3752 1.54986 10.0735 1.52515C9.76515 1.49995 9.36809 1.49976 8.80005 1.49976H5.20044ZM9.20044 4.0603C9.42826 4.10694 9.59985 4.30892 9.59985 4.55054C9.59962 4.79197 9.42816 4.9942 9.20044 5.04077L9.09985 5.05054H4.89966C4.62368 5.05054 4.39992 4.82646 4.39966 4.55054C4.39966 4.27439 4.62352 4.05054 4.89966 4.05054H9.09985L9.20044 4.0603Z" fill="#242629"/>
</g>
<defs>
<clipPath id="clip0_19835_2368">
<rect width="14" height="14" fill="white"/>
</clipPath>
</defs>
</svg>
