<svg width="14" height="14" viewBox="0 0 14 14" fill="none" xmlns="http://www.w3.org/2000/svg">
<path d="M10.1465 9.14648C10.3418 8.9513 10.6583 8.95125 10.8535 9.14648C11.0487 9.34173 11.0487 9.65827 10.8535 9.85352L9.70703 11H13C13.2761 11 13.5 11.2239 13.5 11.5C13.5 11.7761 13.2761 12 13 12H9.70703L10.8535 13.1465C11.0487 13.3417 11.0487 13.6583 10.8535 13.8535C10.6583 14.0488 10.3418 14.0487 10.1465 13.8535L8.14648 11.8535C7.95122 11.6583 7.95122 11.3417 8.14648 11.1465L10.1465 9.14648ZM9 1.5C9.69178 1.5 10.2407 1.50003 10.6826 1.53613C11.1304 1.57272 11.5127 1.64901 11.8623 1.82715C12.4265 2.11472 12.8853 2.57347 13.1729 3.1377C13.351 3.48732 13.4273 3.86958 13.4639 4.31738C13.5 4.75934 13.5 5.30822 13.5 6V8C13.5 8.27614 13.2761 8.5 13 8.5C12.7239 8.5 12.5 8.27614 12.5 8V6C12.5 5.29168 12.4998 4.79023 12.4678 4.39844C12.4362 4.01264 12.3765 3.77691 12.2822 3.5918C12.0905 3.21554 11.7845 2.90951 11.4082 2.71777C11.2231 2.62345 10.9874 2.56377 10.6016 2.53223C10.2098 2.50022 9.70832 2.5 9 2.5H5C4.29168 2.5 3.79023 2.50022 3.39844 2.53223C3.01264 2.56377 2.77691 2.62345 2.5918 2.71777C2.21554 2.90951 1.90951 3.21554 1.71777 3.5918C1.62345 3.77691 1.56377 4.01264 1.53223 4.39844C1.50022 4.79023 1.5 5.29168 1.5 6V8C1.5 8.70832 1.50022 9.20977 1.53223 9.60156C1.56377 9.98736 1.62345 10.2231 1.71777 10.4082C1.90951 10.7845 2.21554 11.0905 2.5918 11.2822C2.77691 11.3765 3.01264 11.4362 3.39844 11.4678C3.79023 11.4998 4.29168 11.5 5 11.5H6C6.27614 11.5 6.5 11.7239 6.5 12C6.5 12.2761 6.27614 12.5 6 12.5H5C4.30822 12.5 3.75934 12.5 3.31738 12.4639C2.86958 12.4273 2.48732 12.351 2.1377 12.1729C1.57347 11.8853 1.11472 11.4265 0.827148 10.8623C0.649006 10.5127 0.57272 10.1304 0.536133 9.68262C0.500028 9.24066 0.5 8.69178 0.5 8V6C0.5 5.30822 0.500028 4.75934 0.536133 4.31738C0.57272 3.86958 0.649006 3.48732 0.827148 3.1377C1.11472 2.57347 1.57347 2.11472 2.1377 1.82715C2.48732 1.64901 2.86958 1.57272 3.31738 1.53613C3.75934 1.50003 4.30822 1.5 5 1.5H9ZM10.6504 4.64258C10.8478 4.4495 11.1643 4.45301 11.3574 4.65039C11.5505 4.84779 11.547 5.16432 11.3496 5.35742L10.5977 6.09277C9.82132 6.85226 9.20351 7.4581 8.65625 7.86621C8.09738 8.28296 7.55259 8.54027 6.91602 8.5332C6.27959 8.52603 5.7408 8.25712 5.19141 7.82812C4.65334 7.40797 4.04933 6.78824 3.29004 6.01172L2.64258 5.34961L2.5791 5.27051C2.45318 5.07503 2.47769 4.8115 2.65039 4.64258C2.82331 4.47349 3.0876 4.45523 3.28027 4.58594L3.35742 4.65039L4.00488 5.3125C4.7839 6.1092 5.3339 6.67088 5.80664 7.04004C6.26796 7.40026 6.59773 7.52954 6.92773 7.5332C7.25766 7.53681 7.5895 7.41427 8.05859 7.06445C8.53941 6.70588 9.10193 6.15715 9.89844 5.37793L10.6504 4.64258Z" fill="#242629"/>
</svg>
