<svg width="14" height="14" viewBox="0 0 14 14" fill="none" xmlns="http://www.w3.org/2000/svg">
<path d="M10 1.5C11.361 1.50001 12.5095 2.40598 12.877 3.64746L12.9404 3.90039L12.9502 4.00098C12.95 4.23357 12.7865 4.44202 12.5498 4.49023C12.3131 4.53829 12.0813 4.4102 11.9902 4.19629L11.96 4.09961L11.918 3.93066C11.6729 3.10344 10.9064 2.50001 10 2.5H4.5C3.7917 2.5 3.29023 2.50022 2.89844 2.53223C2.51267 2.56376 2.2769 2.62347 2.0918 2.71777C1.71557 2.9095 1.40951 3.21557 1.21777 3.5918C1.12346 3.7769 1.06377 4.01268 1.03223 4.39844C1.00022 4.79022 1 5.29173 1 6V8C1 8.70827 1.00022 9.20978 1.03223 9.60156C1.06376 9.98732 1.12347 10.2231 1.21777 10.4082C1.4095 10.7844 1.71555 11.0905 2.0918 11.2822C2.27691 11.3765 2.51264 11.4362 2.89844 11.4678C3.29023 11.4998 3.79169 11.5 4.5 11.5H5.5C5.77611 11.5 5.99996 11.7239 6 12C6 12.2761 5.77614 12.5 5.5 12.5H4.5C3.80822 12.5 3.25934 12.5 2.81738 12.4639C2.36958 12.4273 1.98732 12.351 1.6377 12.1729C1.07348 11.8853 0.614719 11.4265 0.327148 10.8623C0.149027 10.5127 0.0727176 10.1304 0.0361328 9.68262C3.41938e-05 9.24068 0 8.69174 0 8V6C2.17208e-09 5.30825 2.92492e-05 4.75932 0.0361328 4.31738C0.0727221 3.86962 0.149017 3.4873 0.327148 3.1377C0.614725 2.5735 1.07349 2.11471 1.6377 1.82715C1.98731 1.64902 2.3696 1.57272 2.81738 1.53613C3.25933 1.50003 3.80823 1.5 4.5 1.5H10ZM11.9873 9.5C13.0502 9.50011 13.9121 10.3619 13.9121 11.4248C13.912 12.0186 13.4298 12.5 12.8359 12.5H8.0752C7.48141 12.4999 7.00007 12.0186 7 11.4248C7 10.3618 7.86184 9.5 8.9248 9.5H11.9873ZM8.9248 10.5C8.41413 10.5 8 10.9141 8 11.4248C8.00006 11.4663 8.03369 11.4999 8.0752 11.5H12.8359C12.8775 11.5 12.912 11.4664 12.9121 11.4248C12.9121 10.9142 12.4979 10.5001 11.9873 10.5H8.9248ZM10.5 5C11.6046 5 12.5 5.89543 12.5 7C12.5 8.10457 11.6046 9 10.5 9C9.39543 9 8.5 8.10457 8.5 7C8.5 5.89543 9.39543 5 10.5 5ZM2.12402 4.6709C2.30587 4.46315 2.62131 4.44221 2.8291 4.62402L6.29688 7.6582C6.39823 7.74689 6.55125 7.74172 6.64648 7.64648C6.84175 7.45123 7.15825 7.45123 7.35352 7.64648C7.54878 7.84174 7.54877 8.15825 7.35352 8.35352C6.88611 8.82093 6.13623 8.84624 5.63867 8.41113L2.1709 5.37598C1.96315 5.19413 1.9422 4.87869 2.12402 4.6709ZM10.5 6C9.94771 6 9.5 6.44772 9.5 7C9.5 7.55228 9.94771 8 10.5 8C11.0523 8 11.5 7.55228 11.5 7C11.5 6.44772 11.0523 6 10.5 6Z" fill="#242629"/>
</svg>
