<svg width="14" height="14" viewBox="0 0 14 14" fill="none" xmlns="http://www.w3.org/2000/svg">
<g clip-path="url(#clip0_23737_23440)">
<path fill-rule="evenodd" clip-rule="evenodd" d="M11 3V4.5C11 4.77614 11.2238 5 11.5 5C11.7761 5 12 4.77614 12 4.5V3H13.5C13.7761 3 14 2.77614 14 2.5C14 2.22386 13.7761 2 13.5 2H12V0.5C12 0.223858 11.7761 0 11.5 0C11.2238 0 11 0.223858 11 0.5V2H9.49996C9.22382 2 8.99996 2.22386 8.99996 2.5C8.99996 2.77614 9.22382 3 9.49996 3H11ZM6.99996 0.5C7.2761 0.5 7.49996 0.723858 7.49996 1C7.49996 1.27614 7.2761 1.5 6.99996 1.5C5.91219 1.5 4.84876 1.82243 3.9443 2.42676C3.03983 3.03111 2.33519 3.89051 1.91891 4.89551C1.50267 5.90047 1.39322 7.00639 1.60543 8.07324C1.81767 9.14006 2.34215 10.1195 3.11129 10.8887C3.88043 11.6578 4.8599 12.1823 5.92672 12.3945C6.99357 12.6067 8.09949 12.4973 9.10445 12.0811C10.1094 11.6648 10.9689 10.9601 11.5732 10.0557C12.1775 9.15121 12.5 8.08778 12.5 7C12.5 6.72386 12.7238 6.5 13 6.5C13.2761 6.5 13.5 6.72386 13.5 7C13.5 8.28558 13.1185 9.54241 12.4043 10.6113C11.69 11.6802 10.6749 12.5129 9.48727 13.0049C8.29955 13.4969 6.99228 13.6258 5.73141 13.375C4.47071 13.1241 3.31221 12.5056 2.40328 11.5967C1.49435 10.6878 0.875826 9.52925 0.624961 8.26855C0.374157 7.00768 0.503109 5.70041 0.995078 4.5127C1.48702 3.32505 2.31981 2.30993 3.38863 1.5957C4.45755 0.881474 5.71438 0.5 6.99996 0.5ZM6.25504 5.35283C6.25504 5.73943 5.94164 6.05283 5.55504 6.05283C5.16844 6.05283 4.85504 5.73943 4.85504 5.35283C4.85504 4.96623 5.16844 4.65283 5.55504 4.65283C5.94164 4.65283 6.25504 4.96623 6.25504 5.35283ZM9.41372 8.01367C9.54416 7.77045 9.84713 7.67927 10.0905 7.80957C10.3338 7.93998 10.4259 8.24296 10.2956 8.48633C9.96874 9.09664 9.49665 9.60796 8.92348 9.96582C8.34971 10.324 7.69527 10.5146 7.027 10.5146C6.35882 10.5146 5.70521 10.3239 5.13149 9.96582C4.62971 9.65262 4.20548 9.22188 3.88833 8.70996L3.75942 8.48633L3.72036 8.39258C3.65387 8.16981 3.75074 7.92374 3.96352 7.80957C4.17638 7.69559 4.43494 7.75114 4.58364 7.92969L4.64028 8.01367L4.73891 8.18359C4.97832 8.5699 5.29425 8.88938 5.66079 9.11816C6.07926 9.3793 6.5503 9.51463 7.027 9.51465C7.50367 9.51465 7.97475 9.37925 8.39321 9.11816C8.81217 8.85666 9.16577 8.47672 9.41372 8.01367ZM8.3822 6.05283C8.7688 6.05283 9.0822 5.73943 9.0822 5.35283C9.0822 4.96623 8.7688 4.65283 8.3822 4.65283C7.9956 4.65283 7.6822 4.96623 7.6822 5.35283C7.6822 5.73943 7.9956 6.05283 8.3822 6.05283Z" fill="#242629"/>
</g>
<defs>
<clipPath id="clip0_23737_23440">
<rect width="14" height="14" fill="white"/>
</clipPath>
</defs>
</svg>
