<svg width="14" height="14" viewBox="0 0 14 14" fill="none" xmlns="http://www.w3.org/2000/svg">
<g clip-path="url(#clip0_23737_23441)">
<path fill-rule="evenodd" clip-rule="evenodd" d="M7 1.5C10.0376 1.5 12.5 3.96243 12.5 7C12.5 10.0376 10.0376 12.5 7 12.5C3.96243 12.5 1.5 10.0376 1.5 7C1.5 3.96243 3.96243 1.5 7 1.5ZM7 13.5C10.5899 13.5 13.5 10.5899 13.5 7C13.5 3.41015 10.5899 0.5 7 0.5C3.41015 0.5 0.5 3.41015 0.5 7C0.5 10.5899 3.41015 13.5 7 13.5ZM5.55508 6.05283C5.94168 6.05283 6.25508 5.73943 6.25508 5.35283C6.25508 4.96623 5.94168 4.65283 5.55508 4.65283C5.16848 4.65283 4.85508 4.96623 4.85508 5.35283C4.85508 5.73943 5.16848 6.05283 5.55508 6.05283ZM10.0905 7.80957C9.84717 7.67927 9.54419 7.77045 9.41376 8.01367C9.16581 8.47672 8.81221 8.85666 8.39325 9.11816C7.97478 9.37925 7.50371 9.51465 7.02704 9.51465C6.55034 9.51463 6.0793 9.3793 5.66083 9.11816C5.29429 8.88938 4.97836 8.5699 4.73895 8.18359L4.64032 8.01367L4.58368 7.92969C4.43497 7.75114 4.17642 7.69559 3.96356 7.80957C3.75078 7.92374 3.6539 8.16981 3.7204 8.39258L3.75946 8.48633L3.88837 8.70996C4.20552 9.22188 4.62975 9.65262 5.13153 9.96582C5.70525 10.3239 6.35885 10.5146 7.02704 10.5146C7.6953 10.5146 8.34975 10.324 8.92352 9.96582C9.49669 9.60796 9.96878 9.09664 10.2956 8.48633C10.4259 8.24296 10.3338 7.93998 10.0905 7.80957ZM9.08224 5.35283C9.08224 5.73943 8.76884 6.05283 8.38224 6.05283C7.99564 6.05283 7.68224 5.73943 7.68224 5.35283C7.68224 4.96623 7.99564 4.65283 8.38224 4.65283C8.76884 4.65283 9.08224 4.96623 9.08224 5.35283Z" fill="#242629"/>
</g>
<defs>
<clipPath id="clip0_23737_23441">
<rect width="14" height="14" fill="white"/>
</clipPath>
</defs>
</svg>
