<svg width="14" height="14" viewBox="0 0 14 14" fill="none" xmlns="http://www.w3.org/2000/svg">
<path d="M9.69934 1.00781C10.1811 1.00764 10.5729 1.00743 10.8898 1.0332C11.2123 1.05946 11.5013 1.11589 11.7706 1.25293C12.194 1.46849 12.5392 1.81216 12.755 2.23535C12.8923 2.50468 12.9483 2.79456 12.9747 3.11719C13.0006 3.43406 13.0001 3.82591 13.0001 4.30762V9.70703C13.0001 10.1886 13.0006 10.5806 12.9747 10.8975C12.9484 11.2199 12.8921 11.5091 12.755 11.7783C12.5393 12.2017 12.1949 12.546 11.7716 12.7617C11.5022 12.899 11.2125 12.9551 10.8898 12.9814C10.573 13.0073 10.1817 13.0068 9.70032 13.0068H7.50012L5.08899 13.0049C4.70433 13.0046 4.39144 13.0052 4.13684 12.9883C3.87804 12.9711 3.64385 12.9345 3.42004 12.8457C2.84361 12.6167 2.38675 12.1597 2.15833 11.583C2.06972 11.3591 2.03367 11.125 2.01672 10.8662C2.00704 10.7181 2.00278 10.5504 2.0011 10.3604C1.41226 10.1032 1.00022 9.51646 1.00012 8.83301V5.16699C1.00012 4.48336 1.4121 3.89583 2.0011 3.63867C2.00266 3.4548 2.00655 3.29202 2.01575 3.14844C2.03202 2.895 2.06646 2.66509 2.15149 2.44531C2.3802 1.8547 2.8479 1.38767 3.4386 1.15918C3.65855 1.07412 3.88808 1.03963 4.14172 1.02344C4.39121 1.00752 4.69754 1.00767 5.07434 1.00781L7.50012 1.00879L9.69934 1.00781ZM8.00012 9.5V12.0068H9.70032C10.1984 12.0068 10.542 12.0062 10.8087 11.9844C11.0694 11.9631 11.2126 11.9245 11.3175 11.8711C11.5527 11.7513 11.7436 11.5594 11.8634 11.3242C11.9168 11.2193 11.9564 11.0761 11.9777 10.8154C11.9994 10.5488 12.0001 10.205 12.0001 9.70703V9.5H8.00012ZM7.00012 10.3594C6.79572 10.4488 6.57048 10.5 6.33313 10.5H3.005C3.00713 10.6135 3.00898 10.7123 3.01477 10.8008C3.02852 11.0107 3.05378 11.1283 3.08801 11.2148C3.2149 11.5352 3.46899 11.7888 3.78918 11.916C3.87564 11.9503 3.99265 11.9763 4.20227 11.9902C4.41663 12.0045 4.692 12.0046 5.08997 12.0049L7.00012 12.0059V10.3594ZM2.66711 4.5C2.29894 4.5 2.00012 4.79882 2.00012 5.16699V8.83301C2.00026 9.20107 2.29902 9.5 2.66711 9.5H6.33313C6.70122 9.5 6.99998 9.20107 7.00012 8.83301V5.16699C7.00012 4.79882 6.70131 4.5 6.33313 4.5H2.66711ZM8.00012 8.5H12.0001V5.5H8.00012V8.5ZM5.14661 5.64648C5.34187 5.45122 5.65838 5.45122 5.85364 5.64648C6.04877 5.84176 6.04886 6.1583 5.85364 6.35352L5.20715 7L5.85364 7.64648L5.91809 7.72461C6.04612 7.91867 6.02445 8.1827 5.85364 8.35352C5.68281 8.52423 5.41875 8.54601 5.22473 8.41797L5.14661 8.35352L4.50012 7.70703L3.85364 8.35352C3.65841 8.54861 3.34184 8.54861 3.14661 8.35352C2.95139 8.1583 2.95147 7.84176 3.14661 7.64648L3.79309 7L3.14661 6.35352C2.95139 6.1583 2.95147 5.84176 3.14661 5.64648C3.34187 5.45122 3.65838 5.45122 3.85364 5.64648L4.50012 6.29297L5.14661 5.64648ZM8.00012 4.5H12.0001V4.30762C12.0001 3.80971 11.9994 3.46588 11.9777 3.19922C11.9563 2.93846 11.9169 2.79436 11.8634 2.68945C11.7435 2.45462 11.5525 2.26323 11.3175 2.14355C11.2126 2.09018 11.0693 2.05052 10.8087 2.0293C10.5419 2.0076 10.1977 2.00763 9.69934 2.00781H8.00012V4.5ZM5.07434 2.00781C4.68458 2.00767 4.41526 2.00807 4.2052 2.02148C3.99933 2.03463 3.8839 2.05895 3.79895 2.0918C3.47099 2.21877 3.21114 2.4787 3.08411 2.80664C3.05135 2.89148 3.02698 3.00668 3.01379 3.21191C3.00835 3.29681 3.00698 3.39173 3.005 3.5H6.33313C6.57042 3.5 6.79576 3.55023 7.00012 3.63965V2.00781H5.07434Z" fill="#242629"/>
</svg>
