<svg width="14" height="14" viewBox="0 0 14 14" fill="none" xmlns="http://www.w3.org/2000/svg">
<path d="M2.55005 6.55493C2.82619 6.55493 3.05005 6.77879 3.05005 7.05493V9.15942C3.05005 9.58751 3.05022 9.87878 3.0686 10.1038C3.08652 10.3228 3.11959 10.4348 3.15942 10.5129C3.2553 10.7011 3.40781 10.8546 3.59595 10.9504C3.67409 10.9902 3.78627 11.0224 4.00513 11.0403C4.23017 11.0587 4.52215 11.0588 4.95044 11.0588H7.05493L7.15552 11.0696C7.38316 11.1163 7.55483 11.3174 7.55493 11.5588C7.55493 11.8004 7.38328 12.0024 7.15552 12.0491L7.05493 12.0588H4.95044C4.53865 12.0588 4.19928 12.0598 3.92407 12.0374C3.64304 12.0144 3.3845 11.9647 3.14185 11.8411C2.7656 11.6493 2.45954 11.3433 2.26782 10.967C2.14421 10.7244 2.09547 10.4658 2.07251 10.1848C2.05004 9.90971 2.05005 9.57098 2.05005 9.15942V7.05493C2.05005 6.77879 2.27391 6.55493 2.55005 6.55493ZM9.15942 2.05005C9.57098 2.05005 9.90971 2.05004 10.1848 2.07251C10.4658 2.09547 10.7244 2.14421 10.967 2.26782C11.3433 2.45954 11.6493 2.7656 11.8411 3.14185C11.9647 3.3845 12.0144 3.64304 12.0374 3.92407C12.0598 4.19928 12.0588 4.53865 12.0588 4.95044V7.05493C12.0586 7.3309 11.8349 7.55493 11.5588 7.55493C11.2829 7.55481 11.059 7.33083 11.0588 7.05493V4.95044C11.0588 4.52215 11.0587 4.23017 11.0403 4.00513C11.0224 3.78627 10.9902 3.67409 10.9504 3.59595C10.8546 3.40781 10.7011 3.2553 10.5129 3.15942C10.4348 3.11959 10.3228 3.08652 10.1038 3.0686C9.87878 3.05022 9.58751 3.05005 9.15942 3.05005H7.05493C6.77879 3.05005 6.55493 2.82619 6.55493 2.55005C6.55493 2.27391 6.77879 2.05005 7.05493 2.05005H9.15942Z" fill="#242629"/>
</svg>
