<svg width="14" height="14" viewBox="0 0 14 14" fill="none" xmlns="http://www.w3.org/2000/svg">
<path d="M2.06055 1.35498C2.27876 1.16424 2.61089 1.18664 2.80176 1.40479L3.99414 2.76709C4.85945 2.3106 5.86597 2.00049 7 2.00049C9.84317 2.00049 11.875 3.94417 12.9521 5.29932C13.2086 5.62197 13.3854 5.84287 13.5215 6.3374C13.5737 6.52782 13.5908 6.78469 13.5908 7.00049C13.5908 7.21652 13.5739 7.47417 13.5215 7.66455C13.3853 8.15886 13.208 8.37958 12.9512 8.70264C12.4563 9.32508 11.7718 10.0556 10.9102 10.6714L11.9893 11.9048C12.1798 12.123 12.1575 12.4552 11.9395 12.646C11.7213 12.8365 11.3891 12.8141 11.1982 12.5962L2.01074 2.09619C1.82005 1.87803 1.84256 1.54588 2.06055 1.35498ZM1.85645 4.38525C2.05053 4.18892 2.36708 4.18735 2.56348 4.38135C2.75962 4.5755 2.76144 4.89208 2.56738 5.08838C2.28788 5.37116 2.04179 5.65532 1.83105 5.92041C1.59413 6.21846 1.52298 6.30937 1.44238 6.60205C1.42619 6.6613 1.40918 6.81098 1.40918 7.00049C1.40921 7.19023 1.42617 7.34003 1.44238 7.39893C1.52294 7.69132 1.59431 7.78174 1.83105 8.07959C2.85529 9.36811 4.62911 11.0005 7 11.0005C7.21899 11.0005 7.43287 10.9865 7.64062 10.9604C7.91445 10.9264 8.16394 11.1212 8.19824 11.395C8.23205 11.6686 8.03826 11.9183 7.76465 11.9526C7.51632 11.9837 7.26121 12.0005 7 12.0005C4.15703 12.0005 2.12503 10.0568 1.04785 8.70166C0.791348 8.37895 0.614666 8.15793 0.478516 7.66357C0.426202 7.47325 0.409203 7.21635 0.40918 7.00049C0.409185 6.78453 0.426156 6.52691 0.478516 6.33643C0.614683 5.84206 0.791235 5.62116 1.04785 5.29834C1.27784 5.00901 1.54806 4.69723 1.85645 4.38525ZM7 3.00049C6.14449 3.00049 5.36858 3.21261 4.6748 3.54541L5.78613 4.81494C6.7372 4.28598 7.95974 4.42433 8.76758 5.23193C9.65692 6.12128 9.73286 7.51171 9.00195 8.49072L10.2461 9.91357C11.0466 9.35765 11.6952 8.67648 12.1689 8.08057C12.4061 7.78227 12.477 7.69136 12.5576 7.39893C12.5738 7.34003 12.5908 7.19025 12.5908 7.00049C12.5908 6.811 12.5738 6.66129 12.5576 6.60205C12.477 6.30941 12.4056 6.21916 12.1689 5.92139C11.1447 4.63282 9.37107 3.00049 7 3.00049ZM8.06055 5.93896C7.63036 5.50898 7.00409 5.39554 6.46973 5.59717L8.31934 7.71143C8.62605 7.14314 8.54058 6.419 8.06055 5.93896Z" fill="#242629"/>
</svg>
