<svg width="14" height="14" viewBox="0 0 14 14" fill="none" xmlns="http://www.w3.org/2000/svg">
<path d="M7 2C9.84315 2.00002 11.875 3.94368 12.9521 5.29883C13.2087 5.62161 13.3853 5.84228 13.5215 6.33691C13.5738 6.52739 13.5908 6.78405 13.5908 7C13.5908 7.21595 13.5738 7.47261 13.5215 7.66309C13.3853 8.15772 13.2087 8.37839 12.9521 8.70117C11.875 10.0563 9.84315 12 7 12C4.15684 12 2.12497 10.0563 1.04785 8.70117C0.791284 8.37838 0.614684 8.15772 0.478516 7.66309C0.426165 7.47261 0.40918 7.21595 0.40918 7C0.40918 6.78405 0.426165 6.52739 0.478516 6.33691C0.614684 5.84228 0.791283 5.62162 1.04785 5.29883C2.12497 3.94368 4.15684 2 7 2ZM7 3C4.62894 3 2.85526 4.63234 1.83105 5.9209C1.5942 6.21889 1.52299 6.30881 1.44238 6.60156C1.42615 6.66051 1.40918 6.81003 1.40918 7C1.40918 7.18997 1.42615 7.33949 1.44238 7.39844C1.52299 7.69119 1.5942 7.78111 1.83105 8.0791C2.85526 9.36766 4.62894 11 7 11C9.37105 11 11.1448 9.36766 12.1689 8.0791C12.4058 7.78112 12.477 7.69119 12.5576 7.39844C12.5738 7.33948 12.5908 7.18996 12.5908 7C12.5908 6.81004 12.5738 6.66052 12.5576 6.60156C12.477 6.30881 12.4058 6.21888 12.1689 5.9209C11.1448 4.63234 9.37105 3.00002 7 3ZM7 4.5C8.38071 4.5 9.5 5.61929 9.5 7C9.49993 8.38066 8.38067 9.5 7 9.5C5.61934 9.49999 4.50007 8.38065 4.5 7C4.5 5.61929 5.6193 4.50001 7 4.5ZM7 5.5C6.17158 5.50001 5.5 6.17158 5.5 7C5.50007 7.82837 6.17162 8.49999 7 8.5C7.82839 8.5 8.49993 7.82837 8.5 7C8.5 6.17157 7.82843 5.5 7 5.5Z" fill="#242629"/>
</svg>
