<svg width="14" height="14" viewBox="0 0 14 14" fill="none" xmlns="http://www.w3.org/2000/svg">
<path d="M7.49988 1.99976C7.77597 1.99976 7.9998 2.22368 7.99988 2.49976C7.99988 2.7759 7.77602 2.99976 7.49988 2.99976H5.49988C4.79157 2.99976 4.29011 2.99997 3.89832 3.03198C3.51255 3.06352 3.27678 3.12323 3.09167 3.21753C2.71546 3.40924 2.40939 3.71535 2.21765 4.09155C2.12334 4.27664 2.06365 4.51248 2.0321 4.89819C2.0001 5.28996 1.99988 5.79152 1.99988 6.49976V10.907C1.99988 11.3022 2.00054 11.565 2.01746 11.7556C2.03518 11.9549 2.06531 11.9795 2.05164 11.9617C2.09938 12.0238 2.17347 12.0599 2.25183 12.0593C2.23033 12.0596 2.26881 12.0679 2.43542 11.9597C2.59593 11.8555 2.80302 11.6937 3.11414 11.45C3.49238 11.1537 3.7335 10.9627 4.00476 10.825C4.25036 10.7003 4.51189 10.6097 4.7821 10.5564C5.08058 10.4975 5.38755 10.4998 5.86804 10.4998H8.49988C9.20819 10.4998 9.70964 10.4995 10.1014 10.4675C10.4872 10.436 10.723 10.3763 10.9081 10.282C11.2843 10.0902 11.5904 9.78419 11.7821 9.40796C11.8764 9.22286 11.9361 8.98704 11.9677 8.60132C11.9997 8.20954 11.9999 7.70798 11.9999 6.99976V6.49976C12 6.22368 12.2238 5.99976 12.4999 5.99976C12.776 5.99976 12.9998 6.22368 12.9999 6.49976V6.99976C12.9999 7.69146 12.9998 8.24045 12.9637 8.68237C12.9272 9.13012 12.8508 9.51247 12.6727 9.86206C12.3852 10.4263 11.9264 10.885 11.3622 11.1726C11.0126 11.3507 10.6303 11.427 10.1825 11.4636C9.74054 11.4997 9.19166 11.4998 8.49988 11.4998H5.86804C5.3491 11.4998 5.15602 11.5022 4.97546 11.5378C4.79531 11.5734 4.62064 11.6334 4.45691 11.7166C4.29289 11.7999 4.13965 11.9172 3.73132 12.2371C3.43539 12.4689 3.18711 12.6643 2.98035 12.7986C2.78077 12.9281 2.5388 13.0567 2.2616 13.0593C1.86914 13.063 1.49777 12.8823 1.25867 12.571C1.08987 12.3512 1.04244 12.0815 1.02136 11.8445C0.99954 11.5989 0.999878 11.2829 0.999878 10.907V6.49976C0.999878 5.80804 0.999908 5.25906 1.03601 4.81714C1.0726 4.3694 1.1489 3.98704 1.32703 3.63745C1.6146 3.07328 2.07339 2.61446 2.63757 2.3269C2.98718 2.14878 3.36948 2.07247 3.81726 2.03589C4.25921 1.99978 4.8081 1.99976 5.49988 1.99976H7.49988ZM10.8964 1.39624C11.5058 0.786864 12.4939 0.786866 13.1034 1.39624C13.7128 2.00569 13.7128 2.99379 13.1034 3.60327L9.245 7.46167C8.92467 7.78195 8.5233 8.00899 8.08386 8.1189L6.62097 8.48511C6.45065 8.5276 6.2705 8.47741 6.14636 8.35327C6.02228 8.22914 5.97204 8.04895 6.01453 7.87866L6.38074 6.41577C6.49065 5.97638 6.71771 5.57493 7.03796 5.25464L10.8964 1.39624ZM12.3964 2.10327C12.1774 1.88442 11.8223 1.88442 11.6034 2.10327L7.745 5.96167C7.55285 6.15386 7.4164 6.39529 7.35046 6.65894L7.1864 7.31226L7.8407 7.14917C8.10438 7.08324 8.34575 6.94681 8.53796 6.75464L12.3964 2.89624C12.6152 2.67728 12.6153 2.3222 12.3964 2.10327Z" fill="#242629"/>
</svg>
