<svg width="14" height="14" viewBox="0 0 14 14" fill="none" xmlns="http://www.w3.org/2000/svg">
<path d="M7.50586 0.499756C7.84892 0.499756 8.10216 0.49696 8.3457 0.55542C8.54966 0.60441 8.74497 0.68509 8.92383 0.794678C9.13728 0.925525 9.31417 1.1069 9.55664 1.34937L11.6504 3.44312C11.8929 3.68558 12.0742 3.86252 12.2051 4.07593C12.3147 4.25475 12.3953 4.45013 12.4443 4.65405C12.5028 4.89756 12.5 5.15091 12.5 5.4939V6.49976C12.4999 6.77584 12.2761 6.99976 12 6.99976C11.7239 6.99975 11.5001 6.77584 11.5 6.49976V5.4939C11.5 5.10337 11.4971 4.98914 11.4727 4.88745C11.4482 4.78552 11.4073 4.68777 11.3525 4.59839C11.2979 4.50934 11.2193 4.42606 10.9434 4.15015L8.84961 2.0564C8.57363 1.78042 8.49047 1.70185 8.40137 1.64722C8.31195 1.59244 8.21427 1.55159 8.1123 1.5271C8.01062 1.5027 7.89647 1.49976 7.50586 1.49976H6C5.29169 1.49976 4.79023 1.49997 4.39844 1.53198C4.01269 1.56352 3.7769 1.62323 3.5918 1.71753C3.2156 1.90924 2.90951 2.21537 2.71777 2.59155C2.62347 2.77664 2.56377 3.01303 2.53223 3.39917C2.50025 3.79115 2.5 4.2932 2.5 5.00171C2.50001 6.47846 2.49999 7.52109 2.5 8.9978C2.5 9.70634 2.50025 10.2083 2.53223 10.6003C2.56376 10.9865 2.6235 11.2229 2.71777 11.408C2.90949 11.7842 3.2156 12.0902 3.5918 12.282C3.7769 12.3763 4.01269 12.436 4.39844 12.4675C4.79022 12.4995 5.29173 12.4998 6 12.4998H10L10.1006 12.5095C10.3285 12.556 10.4999 12.7581 10.5 12.9998C10.4999 13.2413 10.3284 13.4424 10.1006 13.489L10 13.4998H6C5.30823 13.4998 4.75933 13.4997 4.31738 13.4636C3.8696 13.427 3.48731 13.3507 3.1377 13.1726C2.57352 12.885 2.11471 12.4262 1.82715 11.8621C1.64909 11.5125 1.57272 11.1302 1.53613 10.6824C1.50004 10.2402 1.5 9.69005 1.5 8.9978C1.49999 7.57614 1.50001 6.4234 1.5 5.00171C1.5 4.30947 1.50003 3.7593 1.53613 3.31714C1.57273 2.86937 1.64906 2.48697 1.82715 2.13745C2.11473 1.5733 2.57353 1.11445 3.1377 0.826904C3.4873 0.648788 3.86961 0.572473 4.31738 0.535889C4.75933 0.499785 5.30823 0.499756 6 0.499756H7.50586ZM7 7.99976C7.27613 7.99976 7.49997 8.22364 7.5 8.49976C7.5 8.7759 7.27614 8.99976 7 8.99976H6.75C6.33581 8.99976 6.00003 9.33557 6 9.74976C6 10.164 6.33579 10.4997 6.75 10.4998H7C7.27613 10.4998 7.49997 10.7236 7.5 10.9998C7.5 11.2759 7.27614 11.4998 7 11.4998H6.75C5.78351 11.4997 5 10.7162 5 9.74976C5.00003 8.78328 5.78352 7.99976 6.75 7.99976H7ZM10.1006 8.00952C10.3284 8.05611 10.5 8.25814 10.5 8.49976C10.5 8.7414 10.3285 8.94339 10.1006 8.98999L10 8.99976H9.08105C9.03634 8.9998 9.00009 9.03611 9 9.08081C9 9.11573 9.02255 9.14691 9.05566 9.15796L9.76172 9.39331C10.2025 9.54041 10.4999 9.95302 10.5 10.4177C10.5 11.0153 10.0148 11.4997 9.41797 11.4998H8.5C8.224 11.4997 8.00016 11.2758 8 10.9998C8.00004 10.7238 8.22398 10.4999 8.5 10.4998H9.41797C9.46326 10.4998 9.5 10.4623 9.5 10.4177C9.49987 10.3833 9.47794 10.3525 9.44531 10.3416L8.73926 10.1062C8.29785 9.95901 8 9.54612 8 9.08081C8.00009 8.48382 8.48405 7.9998 9.08105 7.99976H10L10.1006 8.00952ZM13.0361 8.31421C13.1387 8.05806 13.4293 7.93265 13.6855 8.03491C13.9419 8.13745 14.0663 8.42895 13.9639 8.6853L12.9639 11.1853C12.8879 11.3751 12.7044 11.4998 12.5 11.4998C12.2956 11.4998 12.1121 11.3751 12.0361 11.1853L11.0361 8.6853C10.9337 8.42896 11.0581 8.13842 11.3145 8.03589C11.5708 7.9334 11.8613 8.05796 11.9639 8.31421L12.5 9.65405L13.0361 8.31421ZM8 2.49976C8.27607 2.49976 8.49989 2.72371 8.5 2.99976V3.99976C8.5 4.27589 8.72386 4.49975 9 4.49976H10C10.2761 4.49976 10.4999 4.72371 10.5 4.99976C10.5 5.2759 10.2761 5.49976 10 5.49976H9C8.17158 5.49975 7.5 4.82818 7.5 3.99976V2.99976C7.50011 2.72371 7.72393 2.49976 8 2.49976Z" fill="#242629"/>
</svg>
