<svg width="14" height="14" viewBox="0 0 14 14" fill="none" xmlns="http://www.w3.org/2000/svg">
<path d="M7.50586 0.499756C7.84891 0.499756 8.10216 0.496963 8.3457 0.55542C8.54965 0.604408 8.74498 0.685096 8.92383 0.794678C9.13727 0.925521 9.31418 1.10691 9.55664 1.34937L11.6504 3.44312C11.8928 3.68557 12.0742 3.86253 12.2051 4.07593C12.3147 4.25474 12.3953 4.45014 12.4443 4.65405C12.5028 4.89755 12.5 5.15093 12.5 5.4939V6.49976C12.4999 6.77584 12.2761 6.99976 12 6.99976C11.7239 6.99975 11.5001 6.77584 11.5 6.49976V5.4939C11.5 5.10341 11.4971 4.98913 11.4727 4.88745C11.4482 4.78554 11.4073 4.68776 11.3525 4.59839C11.2979 4.50935 11.2192 4.42602 10.9434 4.15015L8.84961 2.0564C8.57364 1.78043 8.49046 1.70185 8.40137 1.64722C8.31196 1.59244 8.21426 1.55159 8.1123 1.5271C8.01062 1.5027 7.89646 1.49976 7.50586 1.49976H6C5.2917 1.49976 4.79023 1.49997 4.39844 1.53198C4.0127 1.56352 3.7769 1.62324 3.5918 1.71753C3.21561 1.90923 2.90951 2.21539 2.71777 2.59155C2.62347 2.77663 2.56377 3.01306 2.53223 3.39917C2.50025 3.79114 2.5 4.29322 2.5 5.00171C2.50001 6.47844 2.49999 7.52111 2.5 8.9978C2.5 9.70632 2.50026 10.2083 2.53223 10.6003C2.56376 10.9865 2.62351 11.2229 2.71777 11.408C2.90949 11.7842 3.2156 12.0902 3.5918 12.282C3.7769 12.3763 4.01269 12.436 4.39844 12.4675C4.79022 12.4995 5.29173 12.4998 6 12.4998H10L10.1006 12.5095C10.3285 12.556 10.4999 12.7582 10.5 12.9998C10.4999 13.2413 10.3284 13.4424 10.1006 13.489L10 13.4998H6C5.30823 13.4998 4.75933 13.4997 4.31738 13.4636C3.8696 13.427 3.48731 13.3507 3.1377 13.1726C2.57353 12.885 2.1147 12.4262 1.82715 11.8621C1.64911 11.5126 1.57272 11.1301 1.53613 10.6824C1.50004 10.2402 1.5 9.69003 1.5 8.9978C1.49999 7.57616 1.50001 6.42339 1.5 5.00171C1.5 4.30949 1.50003 3.75929 1.53613 3.31714C1.57273 2.86938 1.64907 2.48696 1.82715 2.13745C2.11473 1.57332 2.57354 1.11445 3.1377 0.826904C3.4873 0.648794 3.86962 0.572473 4.31738 0.535889C4.75933 0.499785 5.30823 0.499756 6 0.499756H7.50586ZM6.25 7.99976C6.94025 7.99976 7.49983 8.55954 7.5 9.24976C7.5 9.94011 6.94036 10.4998 6.25 10.4998H6V10.9998C6 11.2759 5.77614 11.4998 5.5 11.4998C5.22386 11.4998 5 11.2759 5 10.9998V8.49976C5.00017 8.22376 5.22396 7.99976 5.5 7.99976H6.25ZM8.75 7.99976C9.71648 7.99976 10.5 8.78328 10.5 9.74976C10.5 10.7163 9.7165 11.4998 8.75 11.4998H8.5C8.22386 11.4998 8 11.2759 8 10.9998V8.49976C8.00002 8.22363 8.22387 7.99976 8.5 7.99976H8.75ZM13 7.99976C13.276 7.99976 13.4998 8.22374 13.5 8.49976C13.5 8.7759 13.2761 8.99976 13 8.99976H12V9.24976H12.5C12.776 9.24976 12.9998 9.47375 13 9.74976C13 10.0259 12.7761 10.2498 12.5 10.2498H12V10.9998C12 11.2759 11.7761 11.4998 11.5 11.4998C11.2239 11.4998 11 11.2759 11 10.9998V8.49976C11.0002 8.22375 11.224 7.99976 11.5 7.99976H13ZM9 10.4539C9.29076 10.3506 9.5 10.0759 9.5 9.74976C9.49998 9.42348 9.29092 9.14783 9 9.04468V10.4539ZM6 9.49976H6.25C6.38807 9.49976 6.5 9.38783 6.5 9.24976C6.49983 9.11183 6.38797 8.99976 6.25 8.99976H6V9.49976ZM8 2.49976C8.27606 2.49976 8.49987 2.72373 8.5 2.99976V3.99976C8.5 4.27589 8.72386 4.49975 9 4.49976H10C10.2761 4.49976 10.4999 4.72373 10.5 4.99976C10.5 5.2759 10.2761 5.49976 10 5.49976H9C8.17158 5.49975 7.5 4.82818 7.5 3.99976V2.99976C7.50013 2.72373 7.72394 2.49976 8 2.49976Z" fill="#242629"/>
</svg>
