<svg width="14" height="14" viewBox="0 0 14 14" fill="none" xmlns="http://www.w3.org/2000/svg">
<path d="M7.50586 0.499756C7.84892 0.499756 8.10216 0.49696 8.3457 0.55542C8.54966 0.60441 8.74497 0.68509 8.92383 0.794678C9.13728 0.925525 9.31417 1.1069 9.55664 1.34937L11.6504 3.44312C11.8929 3.68558 12.0742 3.86252 12.2051 4.07593C12.3147 4.25475 12.3953 4.45013 12.4443 4.65405C12.5028 4.89756 12.5 5.15091 12.5 5.4939V6.49976C12.4999 6.77584 12.2761 6.99976 12 6.99976C11.7239 6.99975 11.5001 6.77584 11.5 6.49976V5.4939C11.5 5.10337 11.4971 4.98914 11.4727 4.88745C11.4482 4.78552 11.4073 4.68777 11.3525 4.59839C11.2979 4.50934 11.2193 4.42606 10.9434 4.15015L8.84961 2.0564C8.57363 1.78042 8.49047 1.70185 8.40137 1.64722C8.31195 1.59244 8.21427 1.55159 8.1123 1.5271C8.01062 1.5027 7.89647 1.49976 7.50586 1.49976H6C5.29169 1.49976 4.79023 1.49997 4.39844 1.53198C4.01269 1.56352 3.7769 1.62323 3.5918 1.71753C3.2156 1.90924 2.90951 2.21537 2.71777 2.59155C2.62347 2.77664 2.56377 3.01303 2.53223 3.39917C2.50025 3.79115 2.5 4.2932 2.5 5.00171C2.50001 6.47846 2.49999 7.52109 2.5 8.9978C2.5 9.70634 2.50025 10.2083 2.53223 10.6003C2.56376 10.9865 2.6235 11.2229 2.71777 11.408C2.90949 11.7842 3.2156 12.0902 3.5918 12.282C3.7769 12.3763 4.01269 12.436 4.39844 12.4675C4.79022 12.4995 5.29173 12.4998 6 12.4998H10L10.1006 12.5095C10.3285 12.556 10.4999 12.7581 10.5 12.9998C10.4999 13.2413 10.3284 13.4424 10.1006 13.489L10 13.4998H6C5.30823 13.4998 4.75933 13.4997 4.31738 13.4636C3.8696 13.427 3.48731 13.3507 3.1377 13.1726C2.57352 12.885 2.11471 12.4262 1.82715 11.8621C1.64909 11.5125 1.57272 11.1302 1.53613 10.6824C1.50004 10.2402 1.5 9.69005 1.5 8.9978C1.49999 7.57614 1.50001 6.4234 1.5 5.00171C1.5 4.30947 1.50003 3.7593 1.53613 3.31714C1.57273 2.86937 1.64906 2.48697 1.82715 2.13745C2.11473 1.5733 2.57353 1.11445 3.1377 0.826904C3.4873 0.648788 3.86961 0.572473 4.31738 0.535889C4.75933 0.499785 5.30823 0.499756 6 0.499756H7.50586ZM6.27637 8.05249C6.43123 7.97506 6.61535 7.98308 6.7627 8.07397C6.91009 8.16507 6.99998 8.32649 7 8.49976V10.9998C7 11.2759 6.77614 11.4998 6.5 11.4998C6.22387 11.4997 6 11.2759 6 10.9998V9.30835L5.72363 9.44702C5.58287 9.5174 5.41713 9.5174 5.27637 9.44702L5 9.30835V10.9998C5 11.2759 4.77614 11.4998 4.5 11.4998C4.22387 11.4997 4 11.2759 4 10.9998V8.49976C4.00002 8.32649 4.08991 8.16507 4.2373 8.07397C4.38465 7.98307 4.56876 7.97507 4.72363 8.05249L5.5 8.44116L6.27637 8.05249ZM8.75 7.99976C9.44034 7.99976 9.99997 8.55942 10 9.24976C10 9.94011 9.44036 10.4998 8.75 10.4998H8.5V10.9998C8.5 11.2759 8.27614 11.4998 8 11.4998C7.72387 11.4997 7.5 11.2759 7.5 10.9998V8.49976C7.50003 8.22364 7.72388 7.99976 8 7.99976H8.75ZM12.5 7.99976C12.776 7.99976 12.9998 8.22374 13 8.49976V10.9998C13 11.2759 12.7761 11.4998 12.5 11.4998C12.2239 11.4998 12 11.2759 12 10.9998H10.75C10.5861 10.9998 10.4323 10.9196 10.3389 10.7849C10.2456 10.6502 10.2247 10.4774 10.2822 10.324L11.0322 8.32397L11.0645 8.25464C11.152 8.09911 11.3176 7.99976 11.5 7.99976H12.5ZM11.4717 9.99976H12V8.99976H11.8467L11.4717 9.99976ZM8.5 9.49976H8.75C8.88807 9.49976 9 9.38783 9 9.24976C8.99997 9.11171 8.88806 8.99976 8.75 8.99976H8.5V9.49976ZM8 2.49976C8.27607 2.49976 8.49989 2.72371 8.5 2.99976V3.99976C8.5 4.27589 8.72386 4.49975 9 4.49976H10C10.2761 4.49976 10.4999 4.72371 10.5 4.99976C10.5 5.2759 10.2761 5.49976 10 5.49976H9C8.17158 5.49975 7.5 4.82818 7.5 3.99976V2.99976C7.50011 2.72371 7.72393 2.49976 8 2.49976Z" fill="#242629"/>
</svg>
