<svg width="14" height="14" viewBox="0 0 14 14" fill="none" xmlns="http://www.w3.org/2000/svg">
<path d="M10.1777 1.5C10.6145 1.5 10.9765 1.49943 11.2549 1.52441C11.5207 1.5483 11.8219 1.60159 12.0557 1.79492C12.3652 2.05107 12.5371 2.43744 12.5205 2.83887C12.5079 3.14196 12.3466 3.40164 12.1865 3.61523C12.0188 3.83901 11.7758 4.10772 11.4834 4.43262L9.19434 6.97559C9.061 7.12373 9.04632 7.14485 9.03711 7.16113C9.02339 7.1855 9.01293 7.21197 9.00684 7.23926C9.00276 7.25754 9 7.28227 9 7.48242V9.47949C9 9.64774 9.00352 9.81338 8.96484 9.97461C8.93335 10.1058 8.88104 10.2316 8.81055 10.3467C8.72387 10.488 8.60433 10.6027 8.48535 10.7217L7.76562 11.4414C7.4729 11.7341 7.22951 11.9783 7.02637 12.1484C6.83583 12.308 6.59101 12.4835 6.29395 12.5068C5.91113 12.5369 5.53652 12.3818 5.28711 12.0898C5.0937 11.8634 5.04441 11.5668 5.02246 11.3193C4.99907 11.0554 5 10.7101 5 10.2959V7.48242C5 7.28227 4.99724 7.25754 4.99316 7.23926C4.98706 7.21197 4.97661 7.18549 4.96289 7.16113C4.95368 7.14485 4.93894 7.12367 4.80566 6.97559L2.5166 4.43262C2.2242 4.10773 1.98121 3.83901 1.81348 3.61523C1.65339 3.40165 1.49215 3.14195 1.47949 2.83887C1.46289 2.43745 1.63481 2.05107 1.94434 1.79492C2.17808 1.60158 2.47927 1.5483 2.74512 1.52441C3.02352 1.49943 3.38553 1.5 3.82227 1.5H10.1777ZM3.82227 2.5C3.36548 2.5 3.05695 2.50047 2.83398 2.52051C2.59856 2.54169 2.56627 2.57846 2.58203 2.56543C2.5132 2.62237 2.47479 2.7086 2.47852 2.79785C2.47766 2.77738 2.47234 2.82628 2.61426 3.01562C2.74857 3.19473 2.95432 3.42428 3.25977 3.76367L5.54883 6.30664C5.65347 6.42291 5.75904 6.53613 5.83496 6.6709C5.89658 6.78041 5.94134 6.89885 5.96875 7.02148C6.00242 7.17236 6 7.32609 6 7.48242V10.2959C6 10.7297 6.00004 11.0213 6.01855 11.2305C6.03074 11.368 6.0486 11.4272 6.05469 11.4453C6.09374 11.4873 6.14785 11.5102 6.20508 11.5088C6.21996 11.5015 6.27402 11.4737 6.38379 11.3818C6.54481 11.247 6.75174 11.0412 7.05859 10.7344L7.77832 10.0146C7.93028 9.86269 7.94752 9.84127 7.95801 9.82422C7.97367 9.79866 7.98519 9.77036 7.99219 9.74121C7.99686 9.72172 8 9.69508 8 9.47949V7.48242C8 7.32609 7.99758 7.17236 8.03125 7.02148C8.05865 6.89884 8.10342 6.78041 8.16504 6.6709C8.24095 6.53612 8.34653 6.42291 8.45117 6.30664L10.7402 3.76367C11.0457 3.42428 11.2514 3.19474 11.3857 3.01562C11.5277 2.82625 11.5223 2.77737 11.5215 2.79785C11.5252 2.70859 11.4868 2.62237 11.418 2.56543C11.4338 2.5785 11.4016 2.54169 11.166 2.52051C10.943 2.50048 10.6345 2.5 10.1777 2.5H3.82227Z" fill="#242629"/>
</svg>
