<svg width="14" height="14" viewBox="0 0 14 14" fill="none" xmlns="http://www.w3.org/2000/svg">
<path d="M4.5 9C5.43171 9 6.21235 9.63768 6.43457 10.5H12.5C12.7761 10.5 13 10.7239 13 11C13 11.2761 12.7761 11.5 12.5 11.5H6.43457C6.21235 12.3623 5.43171 13 4.5 13C3.56829 13 2.78765 12.3623 2.56543 11.5H1.5C1.22386 11.5 1 11.2761 1 11C1 10.7239 1.22386 10.5 1.5 10.5H2.56543C2.78765 9.63768 3.56829 9 4.5 9ZM4.5 10C3.94772 10 3.5 10.4477 3.5 11C3.5 11.5523 3.94772 12 4.5 12C5.05228 12 5.5 11.5523 5.5 11C5.5 10.4477 5.05228 10 4.5 10ZM9.5 5C10.4317 5 11.2123 5.63768 11.4346 6.5H12.5C12.7761 6.5 13 6.72386 13 7C13 7.27614 12.7761 7.5 12.5 7.5H11.4346C11.2123 8.36232 10.4317 9 9.5 9C8.56829 9 7.78765 8.36232 7.56543 7.5H1.5C1.22386 7.5 1 7.27614 1 7C1 6.72386 1.22386 6.5 1.5 6.5H7.56543C7.78765 5.63768 8.56829 5 9.5 5ZM9.5 6C8.94772 6 8.5 6.44772 8.5 7C8.5 7.55228 8.94772 8 9.5 8C10.0523 8 10.5 7.55228 10.5 7C10.5 6.44772 10.0523 6 9.5 6ZM4.5 1C5.43171 1 6.21235 1.63768 6.43457 2.5H12.5C12.7761 2.5 13 2.72386 13 3C13 3.27614 12.7761 3.5 12.5 3.5H6.43457C6.21235 4.36232 5.43171 5 4.5 5C3.56829 5 2.78765 4.36232 2.56543 3.5H1.5C1.22386 3.5 1 3.27614 1 3C1 2.72386 1.22386 2.5 1.5 2.5H2.56543C2.78765 1.63768 3.56829 1 4.5 1ZM4.5 2C3.94772 2 3.5 2.44772 3.5 3C3.5 3.55228 3.94772 4 4.5 4C5.05228 4 5.5 3.55228 5.5 3C5.5 2.44772 5.05228 2 4.5 2Z" fill="#242629"/>
</svg>
