<svg width="14" height="14" viewBox="0 0 14 14" fill="none" xmlns="http://www.w3.org/2000/svg">
<path d="M11 8.5C11.2761 8.5 11.5 8.72386 11.5 9V10.5H13C13.2761 10.5 13.5 10.7239 13.5 11C13.5 11.2761 13.2761 11.5 13 11.5H11.5V13C11.5 13.2761 11.2761 13.5 11 13.5C10.7239 13.5 10.5 13.2761 10.5 13V11.5H9C8.72386 11.5 8.5 11.2761 8.5 11C8.5 10.7239 8.72386 10.5 9 10.5H10.5V9C10.5 8.72386 10.7239 8.5 11 8.5ZM4.5 9C5.43171 9 6.21235 9.63768 6.43457 10.5H7C7.27614 10.5 7.5 10.7239 7.5 11C7.5 11.2761 7.27614 11.5 7 11.5H6.43457C6.21235 12.3623 5.43171 13 4.5 13C3.56829 13 2.78765 12.3623 2.56543 11.5H1.5C1.22386 11.5 1 11.2761 1 11C1 10.7239 1.22386 10.5 1.5 10.5H2.56543C2.78765 9.63768 3.56829 9 4.5 9ZM4.5 10C3.94772 10 3.5 10.4477 3.5 11C3.5 11.5523 3.94772 12 4.5 12C5.05228 12 5.5 11.5523 5.5 11C5.5 10.4477 5.05228 10 4.5 10ZM9.30371 5.00977C9.67521 4.97318 10.05 5.04095 10.3848 5.20605C10.7195 5.37116 11.0011 5.62736 11.1982 5.94434C11.3056 6.11704 11.3821 6.30507 11.4326 6.5H12.5C12.7761 6.5 13 6.72386 13 7C13 7.27614 12.7761 7.5 12.5 7.5H11L10.9111 7.49219C10.9094 7.49188 10.9079 7.49056 10.9062 7.49023C10.8939 7.48788 10.8821 7.48371 10.8701 7.48047C10.8518 7.47554 10.8338 7.47075 10.8164 7.46387C10.8043 7.45906 10.7929 7.45297 10.7812 7.44727C10.7656 7.4396 10.7501 7.43206 10.7354 7.42285C10.7242 7.41586 10.7137 7.40821 10.7031 7.40039C10.6884 7.38946 10.6746 7.37768 10.6611 7.36523C10.6523 7.35706 10.6439 7.34863 10.6357 7.33984C10.624 7.32732 10.6129 7.31446 10.6025 7.30078C10.5941 7.28961 10.5856 7.27848 10.5781 7.2666C10.5637 7.24388 10.5507 7.22032 10.54 7.19531C10.5395 7.19398 10.5386 7.19275 10.5381 7.19141C10.526 7.16236 10.5162 7.1321 10.5098 7.10059L10.5 7L10.4902 6.86133C10.4709 6.72361 10.4236 6.59063 10.3496 6.47168C10.2511 6.31325 10.1097 6.18607 9.94238 6.10352C9.77509 6.02102 9.58798 5.98667 9.40234 6.00488C9.21661 6.02318 9.03967 6.09343 8.8916 6.20703C8.74363 6.32057 8.63022 6.47293 8.56445 6.64746C8.49871 6.82214 8.48312 7.01225 8.51953 7.19531C8.55598 7.37827 8.64298 7.54744 8.77051 7.68359C8.89807 7.81972 9.06101 7.91753 9.24121 7.96582C9.50789 8.03728 9.66609 8.31144 9.59473 8.57812C9.52326 8.84486 9.24915 9.00311 8.98242 8.93164C8.62185 8.83503 8.29522 8.63964 8.04004 8.36719C7.81069 8.12228 7.64812 7.82371 7.56445 7.5H1.5C1.22386 7.5 1 7.27614 1 7C1 6.72386 1.22386 6.5 1.5 6.5H7.56445C7.58225 6.43115 7.60275 6.36284 7.62793 6.2959C7.75941 5.94655 7.9861 5.64033 8.28223 5.41309C8.57831 5.18589 8.93231 5.0464 9.30371 5.00977ZM4.5 1C5.43171 1 6.21235 1.63768 6.43457 2.5H12.5C12.7761 2.5 13 2.72386 13 3C13 3.27614 12.7761 3.5 12.5 3.5H6.43457C6.21235 4.36232 5.43171 5 4.5 5C3.56829 5 2.78765 4.36232 2.56543 3.5H1.5C1.22386 3.5 1 3.27614 1 3C1 2.72386 1.22386 2.5 1.5 2.5H2.56543C2.78765 1.63768 3.56829 1 4.5 1ZM4.5 2C3.94772 2 3.5 2.44772 3.5 3C3.5 3.55228 3.94772 4 4.5 4C5.05228 4 5.5 3.55228 5.5 3C5.5 2.44772 5.05228 2 4.5 2Z" fill="#242629"/>
</svg>
