<svg width="14" height="14" viewBox="0 0 14 14" fill="none" xmlns="http://www.w3.org/2000/svg">
<g clip-path="url(#clip0_19835_2238)">
<path d="M11.9871 10.5005C13.0499 10.5006 13.9119 11.3624 13.9119 12.4253C13.9116 13.0189 13.4294 13.5005 12.8357 13.5005H8.07495C7.48141 13.5003 7.00006 13.0188 6.99976 12.4253C6.99976 11.3624 7.8617 10.5006 8.92456 10.5005H11.9871ZM8.92456 11.5005C8.41399 11.5006 7.99976 11.9147 7.99976 12.4253C8.00005 12.4665 8.0337 12.5003 8.07495 12.5005H12.8357C12.8771 12.5005 12.9116 12.4666 12.9119 12.4253C12.9119 11.9147 12.4976 11.5006 11.9871 11.5005H8.92456ZM3.9314 0.999512C4.06831 0.999511 4.18741 0.997923 4.30444 1.01514C4.54919 1.05123 4.7816 1.14793 4.98022 1.29541C5.07518 1.36598 5.15882 1.45154 5.25562 1.54834L6.38452 2.67725C6.57366 2.86638 6.61448 2.90254 6.65308 2.92627C6.69759 2.95348 6.74688 2.97362 6.79761 2.98584C6.84168 2.99637 6.89542 2.99951 7.16284 2.99951H10.4187C11.5779 2.99955 12.6076 3.74166 12.9744 4.84131C13.0617 5.10328 12.9199 5.3868 12.658 5.47412C12.396 5.56139 12.1125 5.41966 12.0251 5.15771C11.7945 4.46641 11.1475 3.99955 10.4187 3.99951H7.16284C6.94234 3.99951 6.75001 4.00302 6.56421 3.9585C6.41144 3.92178 6.2646 3.86085 6.13062 3.77881C5.96768 3.67887 5.83349 3.54027 5.67749 3.38428L4.54858 2.25537C4.43125 2.13804 4.40609 2.1149 4.38354 2.09814C4.31741 2.04914 4.23939 2.0164 4.15796 2.00439C4.13031 2.0004 4.09594 1.99951 3.9314 1.99951C3.02886 1.99951 2.687 2.00482 2.42261 2.08447C1.78065 2.27798 1.27819 2.78137 1.08472 3.42334C1.0052 3.68769 0.999756 4.03 0.999756 4.93213V8.00049C0.999756 8.70855 0.999979 9.21034 1.03198 9.60205C1.06353 9.98758 1.12325 10.2237 1.21753 10.4087C1.40927 10.7848 1.7154 11.091 2.09155 11.2827C2.27663 11.377 2.51251 11.4367 2.89819 11.4683C3.28995 11.5003 3.79157 11.4995 4.49976 11.4995H4.99976C5.27574 11.4995 5.49949 11.7236 5.49976 11.9995C5.49976 12.2757 5.2759 12.4995 4.99976 12.4995H4.49976C3.80809 12.4995 3.25904 12.5005 2.81714 12.4644C2.36943 12.4278 1.98702 12.3515 1.63745 12.1733C1.07332 11.8858 0.614488 11.4269 0.326904 10.8628C0.148824 10.5133 0.0724903 10.1307 0.0358887 9.68311C-0.000207773 9.24126 -0.000244126 8.69204 -0.000244141 8.00049V4.93213C-0.000244141 4.10203 -0.0050307 3.57623 0.127686 3.13525C0.41787 2.17206 1.17135 1.41765 2.13452 1.12744C2.57556 0.994579 3.10112 0.999511 3.9314 0.999512ZM10.4998 6.00049C11.6043 6.00049 12.4998 6.89592 12.4998 8.00049C12.4995 9.10486 11.6042 10.0005 10.4998 10.0005C9.39544 10.0004 8.49999 9.10478 8.49976 8.00049C8.49976 6.896 9.39529 6.00061 10.4998 6.00049ZM10.4998 7.00049C9.94758 7.00061 9.49976 7.44828 9.49976 8.00049C9.49999 8.55249 9.94772 9.00036 10.4998 9.00049C11.0519 9.00049 11.4995 8.55257 11.4998 8.00049C11.4998 7.4482 11.052 7.00049 10.4998 7.00049Z" fill="#242629"/>
</g>
<defs>
<clipPath id="clip0_19835_2238">
<rect width="14" height="14" fill="white"/>
</clipPath>
</defs>
</svg>
