<svg width="14" height="14" viewBox="0 0 14 14" fill="none" xmlns="http://www.w3.org/2000/svg">
<path d="M4.58594 1C4.98369 1.00004 5.36522 1.1582 5.64648 1.43945L7.06055 2.85352C7.15427 2.94724 7.28152 2.99995 7.41406 3H10.5C12.1568 3 13.5 4.34316 13.5 6V9.5C13.5 11.1569 12.1569 12.5 10.5 12.5H3.5C1.84316 12.5 0.5 11.1568 0.5 9.5V4C0.500016 2.34317 1.84317 1.00002 3.5 1H4.58594ZM3.5 2C2.39545 2.00002 1.50002 2.89545 1.5 4V9.5C1.5 10.6046 2.39544 11.5 3.5 11.5H10.5C11.6046 11.5 12.5 10.6046 12.5 9.5V6C12.5 4.89544 11.6046 4 10.5 4H7.41406C7.0163 3.99995 6.63478 3.84181 6.35352 3.56055L4.93945 2.14648C4.84572 2.05277 4.71848 2.00004 4.58594 2H3.5Z" fill="#242629"/>
</svg>
