<svg width="14" height="14" viewBox="0 0 14 14" fill="none" xmlns="http://www.w3.org/2000/svg">
<path d="M4.33691 1.00049C4.55752 1.00049 4.74968 0.996967 4.93555 1.0415C5.0884 1.07821 5.23508 1.1391 5.36914 1.22119C5.53217 1.32114 5.6662 1.45966 5.82227 1.61572L6.88477 2.67822C7.07437 2.86783 7.11461 2.90353 7.15332 2.92725C7.19789 2.95447 7.24707 2.97462 7.29785 2.98682C7.34192 2.99733 7.3956 3.00049 7.66309 3.00049H10.5C11.7371 3.00048 12.7616 3.89952 12.9619 5.07959C13.0685 5.10849 13.1731 5.14938 13.2734 5.2085C13.5822 5.3905 13.8159 5.67687 13.9316 6.01611C14.0104 6.24727 14.0081 6.48066 13.9814 6.7085C13.9552 6.93225 13.8983 7.20544 13.832 7.52588L13.6494 8.41162C13.5335 8.97265 13.4413 9.42063 13.3389 9.77979C13.2347 10.1449 13.1106 10.4529 12.916 10.729C12.5991 11.1784 12.1644 11.5322 11.6602 11.7515C11.3502 11.8862 11.0234 11.9451 10.6445 11.9731C10.272 12.0007 9.81517 12.0005 9.24219 12.0005H3C1.61942 12.0005 0.500219 10.881 0.5 9.50049V4.70068C0.5 4.14909 0.500032 3.70471 0.529297 3.34619C0.559055 2.98198 0.621753 2.66172 0.772461 2.36572C1.01212 1.89537 1.3949 1.51264 1.86523 1.27295C2.16132 1.12213 2.48137 1.05956 2.8457 1.02979C3.20429 1.00049 3.64839 1.00049 4.2002 1.00049H4.33691ZM5.59082 6.00049C5.35357 6.00049 5.20207 6.00074 5.08594 6.00928C4.97609 6.01737 4.93195 6.03126 4.9082 6.0415C4.82492 6.07752 4.75303 6.1357 4.7002 6.20947C4.68515 6.23059 4.6619 6.27125 4.63086 6.37646C4.59797 6.4881 4.56579 6.63613 4.51562 6.86768L3.61914 11.0005H9.24219C9.83002 11.0005 10.2442 11.0003 10.5713 10.9761C10.8919 10.9523 11.0949 10.907 11.2617 10.8345C11.5978 10.6883 11.8874 10.4523 12.0986 10.1528C12.2034 10.0042 12.2888 9.81455 12.377 9.50537C12.4669 9.18997 12.551 8.784 12.6699 8.2085L12.8525 7.32275C12.9224 6.98485 12.9684 6.76236 12.9883 6.59229C13.0075 6.4277 12.9944 6.3663 12.9854 6.33936C12.9468 6.22625 12.8686 6.13052 12.7656 6.06982C12.7412 6.0555 12.6843 6.03065 12.5186 6.01611C12.3479 6.00117 12.1209 6.00049 11.7754 6.00049H5.59082ZM4.2002 2.00049C3.63189 2.00049 3.23518 2.00068 2.92676 2.02588C2.62473 2.05058 2.45091 2.09662 2.31934 2.16357C2.03717 2.30739 1.80687 2.53764 1.66309 2.81982C1.59622 2.95136 1.55007 3.12544 1.52539 3.42725C1.50022 3.73561 1.5 4.13263 1.5 4.70068V9.50049C1.50018 10.1931 1.97027 10.7744 2.6084 10.9468L3.53809 6.65576C3.58522 6.43821 3.62615 6.24835 3.67188 6.09326C3.71942 5.93212 3.78181 5.77527 3.88672 5.62842C4.04553 5.40627 4.26196 5.23172 4.5127 5.12354C4.6785 5.05203 4.84507 5.02456 5.0127 5.01221C5.17397 5.00035 5.36819 5.00049 5.59082 5.00049H11.9121C11.706 4.41831 11.1528 4.00048 10.5 4.00049H7.66309C7.44251 4.00049 7.2503 4.00399 7.06445 3.95947C6.91162 3.92278 6.76491 3.86184 6.63086 3.77979C6.46782 3.67987 6.33377 3.5413 6.17773 3.38525L5.11523 2.32275C4.92575 2.13327 4.88535 2.09746 4.84668 2.07373C4.80209 2.04647 4.75296 2.02637 4.70215 2.01416C4.65806 2.00363 4.60455 2.00049 4.33691 2.00049H4.2002Z" fill="#242629"/>
</svg>
