<svg width="14" height="14" viewBox="0 0 14 14" fill="none" xmlns="http://www.w3.org/2000/svg">
<path d="M11.4998 8.99976C11.7757 8.9999 11.9996 9.22387 11.9998 9.49976V10.9998H13.4998C13.7757 10.9999 13.9996 11.2239 13.9998 11.4998C13.9998 11.7758 13.7758 11.9996 13.4998 11.9998H11.9998V13.4998C11.9998 13.7758 11.7758 13.9996 11.4998 13.9998C11.2236 13.9998 10.9998 13.7759 10.9998 13.4998V11.9998H9.49976C9.22361 11.9998 8.99976 11.7759 8.99976 11.4998C8.99995 11.2238 9.22373 10.9998 9.49976 10.9998H10.9998V9.49976C10.9999 9.22378 11.2237 8.99976 11.4998 8.99976ZM4.4314 0.999756C4.56832 0.999755 4.68739 0.99816 4.80444 1.01538C5.04922 1.05148 5.28158 1.14814 5.48022 1.29565C5.57521 1.36624 5.65879 1.45175 5.75562 1.54858L6.88452 2.67749C7.07378 2.86675 7.11445 2.90278 7.15308 2.92651C7.1976 2.95374 7.24686 2.97387 7.29761 2.98608C7.34168 2.99661 7.3954 2.99975 7.66284 2.99976H9.99976C10.4446 2.99976 10.7257 2.99851 10.9685 3.03687C12.2521 3.24012 13.2592 4.24742 13.4626 5.53101C13.501 5.77379 13.4998 6.05492 13.4998 6.49976V7.49976C13.4997 7.77584 13.2759 7.99976 12.9998 7.99976C12.7238 7.99964 12.4998 7.77577 12.4998 7.49976V6.49976C12.4998 6.01688 12.4983 5.8328 12.4753 5.68726C12.3397 4.83159 11.668 4.15967 10.8123 4.02417C10.6667 4.0012 10.4826 3.99976 9.99976 3.99976H7.66284C7.44233 3.99976 7.25001 4.00326 7.06421 3.95874C6.91142 3.92203 6.76462 3.86111 6.63062 3.77905C6.46765 3.67911 6.33351 3.54054 6.17749 3.38452L5.04858 2.25562C4.93118 2.13822 4.9061 2.11515 4.88354 2.09839C4.81739 2.04935 4.73943 2.01664 4.65796 2.00464C4.63031 2.00064 4.59603 1.99976 4.4314 1.99976C3.52885 1.99976 3.18701 2.00506 2.92261 2.08472C2.28074 2.2782 1.77825 2.78077 1.58472 3.42261C1.50506 3.68699 1.49976 4.02895 1.49976 4.9314V7.99976C1.49976 8.70785 1.5 9.20958 1.53198 9.60132C1.5635 9.98686 1.62332 10.2229 1.71753 10.408C1.90921 10.7841 2.21545 11.0902 2.59155 11.282C2.77663 11.3763 3.01254 11.436 3.39819 11.4675C3.78995 11.4995 4.29156 11.4998 4.99976 11.4998H6.99976C7.27578 11.4998 7.49956 11.7238 7.49976 11.9998C7.49976 12.2759 7.2759 12.4998 6.99976 12.4998H4.99976C4.30808 12.4998 3.75905 12.4997 3.31714 12.4636C2.86944 12.427 2.48701 12.3507 2.13745 12.1726C1.57337 11.885 1.11442 11.4262 0.826904 10.8621C0.648897 10.5125 0.572463 10.13 0.535889 9.68237C0.499814 9.24048 0.499756 8.69135 0.499756 7.99976V4.9314C0.499754 4.10118 0.494829 3.57554 0.627686 3.13452C0.917927 2.17146 1.67144 1.41788 2.63452 1.12769C3.07556 0.994822 3.6011 0.999755 4.4314 0.999756Z" fill="#242629"/>
</svg>
