<svg width="14" height="14" viewBox="0 0 14 14" fill="none" xmlns="http://www.w3.org/2000/svg">
<path d="M8.77002 1.56982C8.14871 0.912665 7.04373 1.35209 7.04346 2.25635V4.06982C3.32444 4.5928 0.708472 8.00128 1.01318 12.3667C1.059 13.0203 1.89025 13.0921 2.146 12.5962C3.35176 10.2587 5.14446 9.29729 7.04346 9.06201V10.7427C7.04346 11.6472 8.14863 12.0874 8.77002 11.4302L12.7817 7.18701C13.1458 6.80155 13.1459 6.19837 12.7817 5.81299L8.77002 1.56982ZM12.0552 6.49951L8.04346 10.7427V8.51318C8.0433 8.37601 7.98684 8.2442 7.88721 8.1499C7.78748 8.05557 7.65219 8.00666 7.51514 8.01416C5.49653 8.1265 3.50189 8.91241 2.02588 10.8989C2.3358 7.55526 4.64379 5.23555 7.58057 5.01709C7.84128 4.99736 8.04346 4.7796 8.04346 4.51807V2.25635L12.0552 6.49951Z" fill="#242629"/>
</svg>
