<svg width="14" height="14" viewBox="0 0 14 14" fill="none" xmlns="http://www.w3.org/2000/svg">
<path d="M8.49976 0.999756C9.19143 0.999756 9.74046 0.999801 10.1824 1.03589C10.6301 1.07247 11.0125 1.14885 11.3621 1.3269C11.9262 1.61444 12.385 2.07334 12.6726 2.63745C12.8507 2.98702 12.927 3.36943 12.9636 3.81714C12.9997 4.25905 12.9998 4.80806 12.9998 5.49976V8.49976C12.9998 9.19145 12.9997 9.74045 12.9636 10.1824C12.927 10.6301 12.8507 11.0125 12.6726 11.3621C12.385 11.9263 11.9263 12.385 11.3621 12.6726C11.0125 12.8507 10.6301 12.927 10.1824 12.9636C9.74045 12.9997 9.19144 12.9998 8.49976 12.9998H5.49976C4.80807 12.9998 4.25905 12.9997 3.81714 12.9636C3.36943 12.927 2.98702 12.8507 2.63745 12.6726C2.07334 12.385 1.61444 11.9262 1.3269 11.3621C1.14885 11.0125 1.07247 10.6301 1.03589 10.1824C0.999798 9.74046 0.999756 9.19143 0.999756 8.49976V5.49976C0.999756 4.80807 0.999787 4.25905 1.03589 3.81714C1.07248 3.36942 1.14879 2.98703 1.3269 2.63745C1.61447 2.07329 2.07329 1.61447 2.63745 1.3269C2.98703 1.14879 3.36941 1.07248 3.81714 1.03589C4.25905 0.999787 4.80806 0.999756 5.49976 0.999756H8.49976ZM5.49976 1.99976C4.79154 1.99976 4.28995 1.99997 3.89819 2.03198C3.5125 2.06353 3.27664 2.12322 3.09155 2.21753C2.71536 2.40925 2.40925 2.71536 2.21753 3.09155C2.12322 3.27664 2.06353 3.5125 2.03198 3.89819C1.99997 4.28995 1.99976 4.79154 1.99976 5.49976V8.49976C1.99976 9.20792 1.99999 9.70956 2.03198 10.1013C2.06351 10.4869 2.12328 10.7229 2.21753 10.908C2.40923 11.2841 2.71541 11.5902 3.09155 11.782C3.27663 11.8763 3.51251 11.936 3.89819 11.9675C4.28995 11.9995 4.79154 11.9998 5.49976 11.9998H8.49976C9.20796 11.9998 9.70955 11.9995 10.1013 11.9675C10.4871 11.936 10.7229 11.8763 10.908 11.782C11.2842 11.5903 11.5902 11.2842 11.782 10.908C11.8763 10.7229 11.936 10.487 11.9675 10.1013C11.9995 9.70956 11.9998 9.20794 11.9998 8.49976V5.49976C11.9998 4.79154 11.9995 4.28995 11.9675 3.89819C11.936 3.51252 11.8763 3.27663 11.782 3.09155C11.5902 2.71541 11.2841 2.40922 10.908 2.21753C10.7229 2.12328 10.487 2.06351 10.1013 2.03198C9.70955 1.99999 9.20795 1.99976 8.49976 1.99976H5.49976ZM8.90015 2.99976C9.17166 2.99976 9.40571 2.99973 9.59741 3.01538C9.7948 3.03152 9.99148 3.06672 10.1804 3.16284C10.4626 3.30661 10.6929 3.53695 10.8367 3.81909C10.9328 4.00803 10.968 4.2047 10.9841 4.4021C10.9998 4.5938 10.9998 4.82784 10.9998 5.09937V8.90015C10.9998 9.17167 10.9998 9.4057 10.9841 9.59741C10.968 9.79485 10.9328 9.99144 10.8367 10.1804C10.6929 10.4627 10.4627 10.6929 10.1804 10.8367C9.99144 10.9329 9.79486 10.968 9.59741 10.9841C9.4057 10.9998 9.17167 10.9998 8.90015 10.9998H5.09937C4.82784 10.9998 4.5938 10.9998 4.4021 10.9841C4.2047 10.968 4.00803 10.9328 3.81909 10.8367C3.53695 10.6929 3.30661 10.4626 3.16284 10.1804C3.06672 9.99148 3.03152 9.7948 3.01538 9.59741C2.99973 9.40571 2.99976 9.17166 2.99976 8.90015V5.09937C2.99976 4.82784 2.99972 4.5938 3.01538 4.4021C3.03153 4.20469 3.06666 4.00804 3.16284 3.81909C3.30664 3.53691 3.53691 3.30664 3.81909 3.16284C4.00804 3.06666 4.20469 3.03153 4.4021 3.01538C4.5938 2.99972 4.82784 2.99976 5.09937 2.99976H8.90015ZM5.09937 3.99976C4.81174 3.99976 4.62565 3.99995 4.48413 4.01147C4.34891 4.02253 4.298 4.04185 4.27319 4.05444C4.17917 4.10237 4.10237 4.17917 4.05444 4.27319C4.04185 4.298 4.02254 4.34892 4.01147 4.48413C3.99995 4.62564 3.99976 4.81174 3.99976 5.09937V8.90015C3.99976 9.18774 3.99996 9.37386 4.01147 9.51538C4.0225 9.65031 4.04185 9.70142 4.05444 9.72632C4.10234 9.82032 4.17922 9.89712 4.27319 9.94507C4.298 9.95766 4.34894 9.97698 4.48413 9.98804C4.62565 9.99957 4.81174 9.99976 5.09937 9.99976H8.90015C9.18776 9.99976 9.37386 9.99955 9.51538 9.98804C9.6506 9.97699 9.70148 9.95767 9.72632 9.94507C9.8204 9.89713 9.89713 9.8204 9.94507 9.72632C9.95766 9.70147 9.97699 9.65058 9.98804 9.51538C9.99955 9.37386 9.99976 9.18776 9.99976 8.90015V5.09937C9.99976 4.81174 9.99957 4.62564 9.98804 4.48413C9.97698 4.34894 9.95766 4.298 9.94507 4.27319C9.89712 4.17922 9.82032 4.10234 9.72632 4.05444C9.70142 4.04185 9.65031 4.0225 9.51538 4.01147C9.37386 3.99996 9.18774 3.99976 8.90015 3.99976H5.09937Z" fill="#242629"/>
</svg>
