<svg width="14" height="14" viewBox="0 0 14 14" fill="none" xmlns="http://www.w3.org/2000/svg">
<path d="M8.99988 1.5C9.69165 1.5 10.2405 1.50003 10.6825 1.53613C11.1303 1.57272 11.5126 1.64901 11.8622 1.82715C12.4264 2.11472 12.8852 2.57348 13.1727 3.1377C13.3509 3.48732 13.4272 3.86959 13.4637 4.31738C13.4999 4.75934 13.4999 5.30822 13.4999 6V8C13.4999 8.69178 13.4999 9.24066 13.4637 9.68262C13.4272 10.1304 13.3509 10.5127 13.1727 10.8623C12.8852 11.4265 12.4264 11.8853 11.8622 12.1729C11.5126 12.351 11.1303 12.4273 10.6825 12.4639C10.2405 12.5 9.69165 12.5 8.99988 12.5H4.99988C4.3081 12.5 3.75921 12.5 3.31726 12.4639C2.86946 12.4273 2.48719 12.351 2.13757 12.1729C1.57335 11.8853 1.1146 11.4265 0.827026 10.8623C0.648885 10.5127 0.572596 10.1304 0.536011 9.68262C0.499907 9.24066 0.499875 8.69178 0.499878 8V6C0.499881 5.30823 0.499905 4.75933 0.536011 4.31738C0.572599 3.86958 0.648884 3.48732 0.827026 3.1377C1.1146 2.57348 1.57336 2.11472 2.13757 1.82715C2.48719 1.64901 2.86947 1.57272 3.31726 1.53613C3.75921 1.50003 4.3081 1.5 4.99988 1.5H8.99988ZM4.99988 2.5C4.29159 2.5 3.7901 2.50022 3.39832 2.53223C3.01255 2.56377 2.77678 2.62346 2.59167 2.71777C2.21543 2.90951 1.90938 3.21555 1.71765 3.5918C1.62333 3.77691 1.56365 4.01263 1.5321 4.39844C1.50009 4.79023 1.49988 5.29169 1.49988 6V8C1.49987 8.70831 1.5001 9.20977 1.5321 9.60156C1.56364 9.98736 1.62333 10.2231 1.71765 10.4082C1.90938 10.7845 2.21543 11.0905 2.59167 11.2822C2.77678 11.3765 3.01253 11.4362 3.39832 11.4678C3.79011 11.4998 4.29158 11.5 4.99988 11.5H8.99988C9.70818 11.5 10.2096 11.4998 10.6014 11.4678C10.9872 11.4362 11.223 11.3765 11.4081 11.2822C11.7843 11.0905 12.0904 10.7845 12.2821 10.4082C12.3764 10.2231 12.4361 9.98736 12.4677 9.60156C12.4997 9.20977 12.4999 8.70831 12.4999 8V6C12.4999 5.29169 12.4997 4.79023 12.4677 4.39844C12.4361 4.01264 12.3764 3.77691 12.2821 3.5918C12.0904 3.21555 11.7843 2.90951 11.4081 2.71777C11.223 2.62346 10.9872 2.56377 10.6014 2.53223C10.2096 2.50022 9.70819 2.5 8.99988 2.5H4.99988ZM3.00085 4.77344C3.00118 3.92984 3.8574 3.35674 4.63757 3.67773L10.6512 6.15332C11.6297 6.5566 11.6297 7.94339 10.6512 8.34668L4.63757 10.8223C3.8574 11.1433 3.00118 10.5702 3.00085 9.72656V4.77344ZM4.25769 4.60254C4.13561 4.55227 4.00118 4.64152 4.00085 4.77344V9.72656C4.00118 9.85848 4.13561 9.94773 4.25769 9.89746L5.49988 9.38574V5.11328L4.25769 4.60254ZM6.49988 8.97363L7.99988 8.35547V6.14258L6.49988 5.52539V8.97363ZM8.99988 7.94434L10.2704 7.42188C10.4232 7.35857 10.4232 7.14143 10.2704 7.07812L8.99988 6.55469V7.94434Z" fill="#242629"/>
</svg>
