<svg width="14" height="14" viewBox="0 0 14 14" fill="none" xmlns="http://www.w3.org/2000/svg">
<path d="M8.99982 1.5C9.69159 1.5 10.2405 1.50003 10.6824 1.53613C11.1302 1.57272 11.5125 1.64901 11.8621 1.82715C12.4263 2.11472 12.8851 2.57348 13.1727 3.1377C13.3508 3.48732 13.4271 3.86959 13.4637 4.31738C13.4998 4.75934 13.4998 5.30822 13.4998 6V8C13.4998 8.69178 13.4998 9.24066 13.4637 9.68262C13.4271 10.1304 13.3508 10.5127 13.1727 10.8623C12.8851 11.4265 12.4263 11.8853 11.8621 12.1729C11.5125 12.351 11.1302 12.4273 10.6824 12.4639C10.2405 12.5 9.69159 12.5 8.99982 12.5H4.99982C4.30804 12.5 3.75915 12.5 3.3172 12.4639C2.8694 12.4273 2.48713 12.351 2.13751 12.1729C1.57329 11.8853 1.11454 11.4265 0.826965 10.8623C0.648824 10.5127 0.572535 10.1304 0.53595 9.68262C0.499846 9.24066 0.499814 8.69178 0.499817 8V6C0.49982 5.30823 0.499844 4.75933 0.53595 4.31738C0.572538 3.86958 0.648823 3.48732 0.826965 3.1377C1.11453 2.57348 1.5733 2.11472 2.13751 1.82715C2.48713 1.64901 2.86941 1.57272 3.3172 1.53613C3.75915 1.50003 4.30804 1.5 4.99982 1.5H8.99982ZM4.99982 2.5C4.29153 2.5 3.79004 2.50022 3.39825 2.53223C3.01249 2.56377 2.77672 2.62346 2.59161 2.71777C2.21537 2.90951 1.90932 3.21555 1.71759 3.5918C1.62327 3.77691 1.56358 4.01263 1.53204 4.39844C1.50003 4.79023 1.49982 5.29169 1.49982 6V8C1.49981 8.70831 1.50003 9.20977 1.53204 9.60156C1.56358 9.98736 1.62327 10.2231 1.71759 10.4082C1.90932 10.7845 2.21537 11.0905 2.59161 11.2822C2.77672 11.3765 3.01247 11.4362 3.39825 11.4678C3.79005 11.4998 4.29152 11.5 4.99982 11.5H8.99982C9.70812 11.5 10.2096 11.4998 10.6014 11.4678C10.9872 11.4362 11.2229 11.3765 11.408 11.2822C11.7843 11.0905 12.0903 10.7845 12.282 10.4082C12.3764 10.2231 12.4361 9.98736 12.4676 9.60156C12.4996 9.20977 12.4998 8.70831 12.4998 8V6C12.4998 5.29168 12.4996 4.79023 12.4676 4.39844C12.4361 4.01264 12.3764 3.77691 12.282 3.5918C12.0903 3.21555 11.7843 2.90951 11.408 2.71777C11.2229 2.62346 10.9872 2.56377 10.6014 2.53223C10.2096 2.50022 9.70812 2.5 8.99982 2.5H4.99982ZM4.49982 3.5C4.77585 3.50011 4.99979 3.72395 4.99982 4V10C4.99982 10.2761 4.77587 10.4999 4.49982 10.5C4.22367 10.5 3.99982 10.2761 3.99982 10V4C3.99984 3.72388 4.22369 3.5 4.49982 3.5ZM6.99982 5C7.27596 5 7.49982 5.22386 7.49982 5.5V9C7.49971 9.27605 7.27589 9.5 6.99982 9.5C6.72387 9.49984 6.49992 9.27595 6.49982 9V5.5C6.49982 5.22396 6.72381 5.00016 6.99982 5ZM9.49982 6C9.77594 6 9.99979 6.22388 9.99982 6.5V8C9.99969 8.27603 9.77588 8.5 9.49982 8.5C9.22389 8.49984 8.99995 8.27593 8.99982 8V6.5C8.99984 6.22398 9.22383 6.00016 9.49982 6Z" fill="#242629"/>
</svg>
