<svg width="14" height="14" viewBox="0 0 14 14" fill="none" xmlns="http://www.w3.org/2000/svg">
<path d="M3.75006 7.5C4.09255 7.5 4.37445 7.49994 4.60455 7.51562C4.8392 7.53163 5.05678 7.56581 5.26569 7.65234C5.75554 7.85533 6.14473 8.24452 6.34772 8.73438C6.43425 8.94328 6.46843 9.16086 6.48444 9.39551C6.50012 9.62561 6.50006 9.90752 6.50006 10.25C6.50006 10.5925 6.50012 10.8744 6.48444 11.1045C6.46843 11.3391 6.43425 11.5567 6.34772 11.7656C6.14473 12.2555 5.75554 12.6447 5.26569 12.8477C5.05678 12.9342 4.8392 12.9684 4.60455 12.9844C4.37445 13.0001 4.09255 13 3.75006 13C3.40758 13 3.12567 13.0001 2.89557 12.9844C2.66093 12.9684 2.44334 12.9342 2.23444 12.8477C1.74459 12.6447 1.35539 12.2555 1.1524 11.7656C1.06587 11.5567 1.0317 11.3391 1.01569 11.1045C1 10.8744 1.00006 10.5925 1.00006 10.25C1.00006 9.90752 1 9.62561 1.01569 9.39551C1.0317 9.16086 1.06587 8.94328 1.1524 8.73438C1.35539 8.24452 1.74459 7.85533 2.23444 7.65234C2.44334 7.56581 2.66093 7.53163 2.89557 7.51562C3.12567 7.49994 3.40758 7.5 3.75006 7.5ZM10.2501 7.5C10.5925 7.5 10.8744 7.49994 11.1046 7.51562C11.3392 7.53163 11.5568 7.56581 11.7657 7.65234C12.2555 7.85533 12.6447 8.24452 12.8477 8.73438C12.9342 8.94328 12.9684 9.16086 12.9844 9.39551C13.0001 9.62561 13.0001 9.90752 13.0001 10.25C13.0001 10.5925 13.0001 10.8744 12.9844 11.1045C12.9684 11.3391 12.9342 11.5567 12.8477 11.7656C12.6447 12.2555 12.2555 12.6447 11.7657 12.8477C11.5568 12.9342 11.3392 12.9684 11.1046 12.9844C10.8744 13.0001 10.5925 13 10.2501 13C9.90758 13 9.62567 13.0001 9.39557 12.9844C9.16093 12.9684 8.94334 12.9342 8.73444 12.8477C8.24459 12.6447 7.85539 12.2555 7.6524 11.7656C7.56587 11.5567 7.5317 11.3391 7.51569 11.1045C7.5 10.8744 7.50006 10.5925 7.50006 10.25C7.50006 9.90752 7.5 9.62561 7.51569 9.39551C7.5317 9.16086 7.56587 8.94328 7.6524 8.73438C7.85539 8.24452 8.24459 7.85533 8.73444 7.65234C8.94334 7.56581 9.16093 7.53163 9.39557 7.51562C9.62567 7.49994 9.90758 7.5 10.2501 7.5ZM3.75006 8.5C3.39376 8.5 3.15117 8.49985 2.96295 8.5127C2.77947 8.52524 2.68395 8.54854 2.61725 8.57617C2.37232 8.67766 2.17772 8.87226 2.07623 9.11719C2.0486 9.18389 2.0253 9.27941 2.01276 9.46289C1.99991 9.65111 2.00006 9.8937 2.00006 10.25C2.00006 10.6063 1.99991 10.8489 2.01276 11.0371C2.0253 11.2206 2.0486 11.3161 2.07623 11.3828C2.17772 11.6277 2.37232 11.8223 2.61725 11.9238C2.68395 11.9515 2.77947 11.9748 2.96295 11.9873C3.15117 12.0001 3.39376 12 3.75006 12C4.10636 12 4.34895 12.0001 4.53717 11.9873C4.72065 11.9748 4.81617 11.9515 4.88287 11.9238C5.1278 11.8223 5.3224 11.6277 5.42389 11.3828C5.45152 11.3161 5.47482 11.2206 5.48737 11.0371C5.50021 10.8489 5.50006 10.6063 5.50006 10.25C5.50006 9.8937 5.50021 9.65111 5.48737 9.46289C5.47482 9.27941 5.45152 9.18389 5.42389 9.11719C5.3224 8.87226 5.1278 8.67766 4.88287 8.57617C4.81617 8.54854 4.72065 8.52524 4.53717 8.5127C4.34895 8.49985 4.10636 8.5 3.75006 8.5ZM10.2501 8.5C9.89376 8.5 9.65117 8.49985 9.46295 8.5127C9.27947 8.52524 9.18395 8.54854 9.11725 8.57617C8.87232 8.67766 8.67772 8.87226 8.57623 9.11719C8.5486 9.18389 8.5253 9.27941 8.51276 9.46289C8.49991 9.65111 8.50006 9.8937 8.50006 10.25C8.50006 10.6063 8.49991 10.8489 8.51276 11.0371C8.5253 11.2206 8.5486 11.3161 8.57623 11.3828C8.67772 11.6277 8.87232 11.8223 9.11725 11.9238C9.18395 11.9515 9.27947 11.9748 9.46295 11.9873C9.65117 12.0001 9.89376 12 10.2501 12C10.6064 12 10.849 12.0001 11.0372 11.9873C11.2206 11.9748 11.3162 11.9515 11.3829 11.9238C11.6278 11.8223 11.8224 11.6277 11.9239 11.3828C11.9515 11.3161 11.9748 11.2206 11.9874 11.0371C12.0002 10.8489 12.0001 10.6063 12.0001 10.25C12.0001 9.8937 12.0002 9.65111 11.9874 9.46289C11.9748 9.27941 11.9515 9.18389 11.9239 9.11719C11.8224 8.87226 11.6278 8.67766 11.3829 8.57617C11.3162 8.54854 11.2206 8.52524 11.0372 8.5127C10.849 8.49985 10.6064 8.5 10.2501 8.5ZM3.75006 1C4.09255 1 4.37445 0.99994 4.60455 1.01562C4.8392 1.03163 5.05678 1.06581 5.26569 1.15234C5.75554 1.35533 6.14473 1.74453 6.34772 2.23438C6.43425 2.44328 6.46843 2.66087 6.48444 2.89551C6.50012 3.12561 6.50006 3.40752 6.50006 3.75C6.50006 4.09248 6.50012 4.37439 6.48444 4.60449C6.46843 4.83914 6.43425 5.05672 6.34772 5.26562C6.14473 5.75548 5.75554 6.14467 5.26569 6.34766C5.05678 6.43419 4.8392 6.46837 4.60455 6.48438C4.37445 6.50006 4.09255 6.5 3.75006 6.5C3.40758 6.5 3.12567 6.50006 2.89557 6.48438C2.66093 6.46837 2.44334 6.43419 2.23444 6.34766C1.74459 6.14467 1.35539 5.75547 1.1524 5.26562C1.06587 5.05672 1.0317 4.83914 1.01569 4.60449C1 4.37439 1.00006 4.09248 1.00006 3.75C1.00006 3.40752 1 3.12561 1.01569 2.89551C1.0317 2.66087 1.06587 2.44328 1.1524 2.23438C1.35539 1.74453 1.74459 1.35533 2.23444 1.15234C2.44334 1.06581 2.66093 1.03163 2.89557 1.01562C3.12567 0.99994 3.40758 1 3.75006 1ZM10.2501 1C10.5925 1 10.8744 0.99994 11.1046 1.01562C11.3392 1.03163 11.5568 1.06581 11.7657 1.15234C12.2555 1.35533 12.6447 1.74453 12.8477 2.23438C12.9342 2.44328 12.9684 2.66087 12.9844 2.89551C13.0001 3.12561 13.0001 3.40752 13.0001 3.75C13.0001 4.09248 13.0001 4.37439 12.9844 4.60449C12.9684 4.83914 12.9342 5.05672 12.8477 5.26562C12.6447 5.75548 12.2555 6.14467 11.7657 6.34766C11.5568 6.43419 11.3392 6.46837 11.1046 6.48438C10.8744 6.50006 10.5925 6.5 10.2501 6.5C9.90758 6.5 9.62567 6.50006 9.39557 6.48438C9.16093 6.46837 8.94334 6.43419 8.73444 6.34766C8.24459 6.14467 7.85539 5.75548 7.6524 5.26562C7.56587 5.05672 7.5317 4.83914 7.51569 4.60449C7.5 4.37439 7.50006 4.09248 7.50006 3.75C7.50006 3.40752 7.5 3.12561 7.51569 2.89551C7.5317 2.66087 7.56587 2.44328 7.6524 2.23438C7.85539 1.74453 8.24459 1.35533 8.73444 1.15234C8.94334 1.06581 9.16093 1.03163 9.39557 1.01562C9.62567 0.99994 9.90758 1 10.2501 1ZM3.75006 2C3.39376 2 3.15117 1.99985 2.96295 2.0127C2.77947 2.02524 2.68395 2.04854 2.61725 2.07617C2.37232 2.17766 2.17772 2.37226 2.07623 2.61719C2.0486 2.68389 2.0253 2.77941 2.01276 2.96289C1.99991 3.15111 2.00006 3.3937 2.00006 3.75C2.00006 4.1063 1.99991 4.34889 2.01276 4.53711C2.0253 4.72059 2.0486 4.81611 2.07623 4.88281C2.17772 5.12774 2.37232 5.32234 2.61725 5.42383C2.68395 5.45146 2.77947 5.47476 2.96295 5.4873C3.15117 5.50015 3.39376 5.5 3.75006 5.5C4.10636 5.5 4.34895 5.50015 4.53717 5.4873C4.72065 5.47476 4.81617 5.45146 4.88287 5.42383C5.1278 5.32234 5.3224 5.12774 5.42389 4.88281C5.45152 4.81611 5.47482 4.72059 5.48737 4.53711C5.50021 4.34889 5.50006 4.1063 5.50006 3.75C5.50006 3.3937 5.50021 3.15111 5.48737 2.96289C5.47482 2.77941 5.45152 2.68389 5.42389 2.61719C5.3224 2.37226 5.1278 2.17766 4.88287 2.07617C4.81617 2.04854 4.72065 2.02524 4.53717 2.0127C4.34895 1.99985 4.10636 2 3.75006 2ZM10.2501 2C9.89376 2 9.65117 1.99985 9.46295 2.0127C9.27947 2.02524 9.18395 2.04854 9.11725 2.07617C8.87232 2.17766 8.67772 2.37226 8.57623 2.61719C8.5486 2.68389 8.5253 2.77941 8.51276 2.96289C8.49991 3.15111 8.50006 3.3937 8.50006 3.75C8.50006 4.1063 8.49991 4.34889 8.51276 4.53711C8.5253 4.72059 8.5486 4.81611 8.57623 4.88281C8.67772 5.12774 8.87232 5.32234 9.11725 5.42383C9.18395 5.45146 9.27947 5.47476 9.46295 5.4873C9.65117 5.50015 9.89376 5.5 10.2501 5.5C10.6064 5.5 10.849 5.50015 11.0372 5.4873C11.2206 5.47476 11.3162 5.45146 11.3829 5.42383C11.6278 5.32234 11.8224 5.12774 11.9239 4.88281C11.9515 4.81611 11.9748 4.72059 11.9874 4.53711C12.0002 4.34889 12.0001 4.1063 12.0001 3.75C12.0001 3.3937 12.0002 3.15111 11.9874 2.96289C11.9748 2.77941 11.9515 2.68389 11.9239 2.61719C11.8224 2.37226 11.6278 2.17766 11.3829 2.07617C11.3162 2.04854 11.2206 2.02524 11.0372 2.0127C10.849 1.99985 10.6064 2 10.2501 2Z" fill="#242629"/>
</svg>
