<svg width="14" height="14" viewBox="0 0 14 14" fill="none" xmlns="http://www.w3.org/2000/svg">
<path d="M10.5 1C11.6046 1 12.5 1.89543 12.5 3C12.5 3.93162 11.8622 4.71129 11 4.93359V5.5C11 6.88071 9.88071 8 8.5 8H4V9.06543C4.86232 9.28765 5.5 10.0683 5.5 11C5.5 12.1046 4.60457 13 3.5 13C2.39543 13 1.5 12.1046 1.5 11C1.5 10.0683 2.13768 9.28765 3 9.06543V4.93359C2.1378 4.71129 1.5 3.93162 1.5 3C1.5 1.89543 2.39543 1 3.5 1C4.60457 1 5.5 1.89543 5.5 3C5.5 3.93162 4.8622 4.71129 4 4.93359V7H8.5C9.32843 7 10 6.32843 10 5.5V4.93359C9.1378 4.71129 8.5 3.93162 8.5 3C8.5 1.89543 9.39543 1 10.5 1ZM3.5 10C2.94772 10 2.5 10.4477 2.5 11C2.5 11.5523 2.94772 12 3.5 12C4.05228 12 4.5 11.5523 4.5 11C4.5 10.4477 4.05228 10 3.5 10ZM3.5 2C2.94772 2 2.5 2.44772 2.5 3C2.5 3.55228 2.94772 4 3.5 4C4.05228 4 4.5 3.55228 4.5 3C4.5 2.44772 4.05228 2 3.5 2ZM10.5 2C9.94771 2 9.5 2.44772 9.5 3C9.5 3.55228 9.94771 4 10.5 4C11.0523 4 11.5 3.55228 11.5 3C11.5 2.44772 11.0523 2 10.5 2Z" fill="#242629"/>
</svg>
