<svg width="14" height="14" viewBox="0 0 14 14" fill="none" xmlns="http://www.w3.org/2000/svg">
<path d="M7.5 2C7.77614 2 8 2.22386 8 2.5V11.5C8 11.7761 7.77614 12 7.5 12C7.22386 12 7 11.7761 7 11.5V7.5H2V11.5C2 11.7761 1.77614 12 1.5 12C1.22386 12 1 11.7761 1 11.5V2.5C1 2.22386 1.22386 2 1.5 2C1.77614 2 2 2.22386 2 2.5V6.5H7V2.5C7 2.22386 7.22386 2 7.5 2ZM12.2168 5.58789C12.3697 5.4828 12.5682 5.47132 12.7324 5.55762C12.8968 5.64406 13 5.81432 13 6V11.5C13 11.7761 12.7761 12 12.5 12C12.2239 12 12 11.7761 12 11.5V6.9502L10.7832 7.78711C10.5557 7.94348 10.2443 7.88573 10.0879 7.6582C9.93152 7.43066 9.98927 7.11931 10.2168 6.96289L12.2168 5.58789Z" fill="#242629"/>
</svg>
