<svg width="14" height="14" viewBox="0 0 14 14" fill="none" xmlns="http://www.w3.org/2000/svg">
<path d="M7.5 2C7.77614 2 8 2.22386 8 2.5V11.5C8 11.7761 7.77614 12 7.5 12C7.22386 12 7 11.7761 7 11.5V7.5H2V11.5C2 11.7761 1.77614 12 1.5 12C1.22386 12 1 11.7761 1 11.5V2.5C1 2.22386 1.22386 2 1.5 2C1.77614 2 2 2.22386 2 2.5V6.5H7V2.5C7 2.22386 7.22386 2 7.5 2ZM10.582 5.70898C10.9851 5.51386 11.4457 5.45337 11.8877 5.53516C12.3298 5.61697 12.7355 5.83816 13.0322 6.16992C13.3296 6.5024 13.4986 6.92596 13.5 7.37012L13.4951 7.51367C13.4692 7.84749 13.3473 8.16681 13.1455 8.43848C13.141 8.44459 13.1357 8.45113 13.1309 8.45703L11.0547 11H13L13.1006 11.0098C13.3285 11.0563 13.5 11.2583 13.5 11.5C13.5 11.7417 13.3285 11.9437 13.1006 11.9902L13 12H10.4219C9.83162 12 9.5065 11.3146 9.87988 10.8574L12.3477 7.83398C12.4494 7.69369 12.5008 7.53425 12.5 7.375V7.37402C12.4995 7.18451 12.4279 6.9944 12.2871 6.83691C12.1454 6.67848 11.9415 6.5622 11.7061 6.51855C11.4703 6.47493 11.2259 6.50852 11.0176 6.60938C10.8098 6.71001 10.6557 6.86818 10.5723 7.04883L10.1191 6.83887L9.66504 6.62988C9.85121 6.22664 10.1785 5.90434 10.582 5.70898ZM10.5723 7.04883C10.4565 7.29948 10.1599 7.4087 9.90918 7.29297C9.65855 7.17719 9.54932 6.88056 9.66504 6.62988L10.5723 7.04883Z" fill="#242629"/>
</svg>
