<svg width="14" height="14" viewBox="0 0 14 14" fill="none" xmlns="http://www.w3.org/2000/svg">
<path d="M7.5 2C7.77614 2 8 2.22386 8 2.5V11.5C8 11.7761 7.77614 12 7.5 12C7.22386 12 7 11.7761 7 11.5V7.5H2V11.5C2 11.7761 1.77614 12 1.5 12C1.22386 12 1 11.7761 1 11.5V2.5C1 2.22386 1.22386 2 1.5 2C1.77614 2 2 2.22386 2 2.5V6.5H7V2.5C7 2.22386 7.22386 2 7.5 2ZM12.5879 5.5C13.1667 5.5 13.4954 6.16217 13.1455 6.62305L12.1289 7.95996C12.185 7.98221 12.2407 8.00564 12.2949 8.03223C12.6186 8.19083 12.8996 8.42218 13.1094 8.70996C13.3193 8.99805 13.4505 9.33338 13.4883 9.68555C13.5261 10.0378 13.4686 10.3921 13.3223 10.7158C13.1762 11.039 12.9476 11.3195 12.6611 11.5352C12.3746 11.7507 12.037 11.896 11.6807 11.9609C11.3246 12.0258 10.9566 12.0098 10.6084 11.9131C10.2599 11.8162 9.9385 11.6401 9.6748 11.3984C9.47139 11.2119 9.45718 10.8959 9.64355 10.6924C9.83011 10.4888 10.147 10.4747 10.3506 10.6611C10.4939 10.7925 10.6737 10.893 10.876 10.9492C11.0782 11.0054 11.2938 11.0155 11.502 10.9775C11.71 10.9396 11.9013 10.8554 12.0596 10.7363C12.2177 10.6173 12.337 10.4677 12.4111 10.3037C12.485 10.1401 12.5127 9.96469 12.4941 9.79199C12.4756 9.61914 12.4105 9.44941 12.3008 9.29883C12.1908 9.14805 12.0383 9.01976 11.8545 8.92969C11.6706 8.83966 11.4628 8.79201 11.25 8.79199C11.0601 8.79198 10.8862 8.68384 10.8018 8.51367C10.7175 8.34365 10.7369 8.14039 10.8516 7.98926L11.9834 6.5H10C9.72386 6.5 9.5 6.27614 9.5 6C9.5 5.72386 9.72386 5.5 10 5.5H12.5879Z" fill="#242629"/>
</svg>
