<svg width="14" height="14" viewBox="0 0 14 14" fill="none" xmlns="http://www.w3.org/2000/svg">
<path d="M9.70215 1.5C10.715 1.50005 11.6832 1.91565 12.3945 2.64941C13.1052 3.38267 13.502 4.37389 13.502 5.4043C13.5019 7.04247 12.4528 8.25532 11.5576 9.16016L11.5566 9.15918L8.42188 12.3945C7.63965 13.2015 6.36426 13.2015 5.58203 12.3945L2.44336 9.15625V9.15527C1.5398 8.25345 0.502005 7.04436 0.501953 5.4043C0.501953 4.37389 0.898686 3.38267 1.60938 2.64941C2.32068 1.91565 3.2889 1.50005 4.30176 1.5C4.8815 1.5 5.40506 1.5854 5.91504 1.81445C6.29369 1.98458 6.64785 2.2259 7.00195 2.54297C7.35605 2.2259 7.71022 1.98458 8.08887 1.81445C8.59884 1.5854 9.12241 1.5 9.70215 1.5ZM4.30176 2.5C3.56433 2.50005 2.85349 2.80177 2.32715 3.34473C1.80025 3.88826 1.50195 4.62913 1.50195 5.4043C1.502 6.457 2.08254 7.31925 2.82715 8.11621L3.15527 8.4541L3.16113 8.45996L6.30078 11.6992C6.69 12.1002 7.3139 12.1002 7.70312 11.6992L8.10352 11.2852L7.24023 10.3955L7.17773 10.3154C7.05275 10.1194 7.07854 9.85661 7.25195 9.68848C7.42538 9.52035 7.68881 9.50279 7.88086 9.63379L7.95898 9.69922L8.7998 10.5664L9.9043 9.42773L9.04102 8.53711C8.84915 8.33881 8.85458 8.02217 9.05273 7.83008C9.2262 7.66224 9.48972 7.64539 9.68164 7.77637L9.75977 7.8418L10.6006 8.70898L10.8428 8.45996L10.8467 8.45703C11.1365 8.16412 11.4116 7.86493 11.6523 7.55469L10.2002 6.20996L10.1992 6.20801C9.97907 6.00194 9.69478 5.88965 9.40332 5.88965C9.11194 5.88971 8.82849 6.002 8.6084 6.20801L7.36816 7.38184L7.36426 7.38574C6.64518 8.05078 5.54842 8.028 4.86523 7.32324V7.32227C4.69825 7.15071 4.56635 6.94802 4.47656 6.72559C4.38644 6.5023 4.33986 6.26345 4.33984 6.02246C4.33984 5.7815 4.38648 5.54261 4.47656 5.31934C4.56649 5.09652 4.69785 4.89245 4.86523 4.7207L6.29004 3.25C6.01209 3.00704 5.7579 2.83982 5.50586 2.72656C5.15495 2.5689 4.77788 2.5 4.30176 2.5ZM9.70215 2.5C9.22603 2.5 8.84895 2.5689 8.49805 2.72656C8.14343 2.88592 7.7834 3.15057 7.36133 3.58594C7.35672 3.59069 7.35048 3.59408 7.3457 3.59863L5.58398 5.41699L5.58203 5.41895C5.50635 5.49655 5.44516 5.5897 5.40332 5.69336C5.36146 5.79715 5.33984 5.90917 5.33984 6.02246C5.33986 6.13577 5.36143 6.24776 5.40332 6.35156C5.44518 6.45526 5.50629 6.54835 5.58203 6.62598L5.58398 6.62793C5.88479 6.93777 6.35981 6.95165 6.68457 6.65137L7.92285 5.47949L7.9248 5.47754C8.32721 5.10091 8.85417 4.88971 9.40332 4.88965C9.95199 4.88965 10.4786 5.10062 10.8809 5.47656L12.1953 6.69434C12.3869 6.29312 12.5019 5.86709 12.502 5.4043C12.502 4.62913 12.2037 3.88826 11.6768 3.34473C11.1504 2.80177 10.4396 2.50005 9.70215 2.5Z" fill="#242629"/>
</svg>
