<svg width="14" height="14" viewBox="0 0 14 14" fill="none" xmlns="http://www.w3.org/2000/svg">
<g clip-path="url(#clip0_19835_2065)">
<path d="M6.99963 0.500122C7.69168 0.500122 8.2729 0.969285 8.44592 1.60657C8.61725 1.53842 8.80403 1.50016 8.99963 1.50012C9.82796 1.50012 10.4995 2.17179 10.4996 3.00012V3.08704C10.6561 3.03166 10.8242 3.00015 10.9996 3.00012C11.8276 3.00012 12.4994 3.67121 12.4996 4.49915V8.50989C12.4996 11.2659 10.2645 13.5001 7.50842 13.5001C5.77571 13.4999 4.16655 12.6008 3.25842 11.1251L1.05042 7.53723C0.643553 6.87553 0.833743 6.01011 1.4801 5.57922C2.11769 5.15444 2.97648 5.30128 3.43616 5.91418L3.49963 5.99817L3.49963 3.00012C3.49963 2.17173 4.17147 1.50032 4.99963 1.50012C5.19487 1.50012 5.38127 1.5387 5.55237 1.60657C5.72522 0.969227 6.3076 0.500302 6.99963 0.500122ZM6.99963 1.50012C6.72368 1.50034 6.4996 1.72412 6.49963 2.00012L6.50061 5.50012L6.49084 5.60071C6.44431 5.8286 6.24226 6.00006 6.00061 6.00012C5.72464 6 5.50069 5.77614 5.50061 5.50012L5.49963 3.00012L5.48987 2.89954C5.44328 2.67167 5.24138 2.50012 4.99963 2.50012C4.72357 2.50032 4.49963 2.72419 4.49963 3.00012V7.50012C4.49963 7.71534 4.36201 7.90667 4.15784 7.97473C3.9537 8.04266 3.72831 7.97207 3.59924 7.79993L2.63538 6.51477C2.49412 6.32649 2.23075 6.28089 2.03479 6.41125C1.83617 6.54375 1.77787 6.81041 1.90295 7.01379L4.10999 10.6007C4.83611 11.7807 6.12297 12.4999 7.50842 12.5001C9.71219 12.5001 11.4996 10.7136 11.4996 8.50989V4.49915C11.4994 4.2235 11.2753 4.00012 10.9996 4.00012C10.7239 4.00025 10.5006 4.22433 10.5006 4.50012V5.50012L10.4899 5.60071C10.4433 5.82845 10.2421 5.99989 10.0006 6.00012C9.75902 6.00003 9.55693 5.82857 9.51038 5.60071L9.50061 5.50012L9.49963 3.00012C9.49959 2.72401 9.27574 2.50012 8.99963 2.50012C8.72363 2.50029 8.49963 2.72409 8.49963 3.00012L8.50061 5.50012L8.48987 5.60071C8.44332 5.82845 8.24206 5.99989 8.00061 6.00012C7.72458 6.00003 7.50066 5.77618 7.50061 5.50012L7.49963 3.00012V2.00012C7.4996 1.72403 7.27572 1.50012 6.99963 1.50012Z" fill="#242629"/>
</g>
<defs>
<clipPath id="clip0_19835_2065">
<rect width="14" height="14" fill="white"/>
</clipPath>
</defs>
</svg>
