<svg width="14" height="14" viewBox="0 0 14 14" fill="none" xmlns="http://www.w3.org/2000/svg">
<path d="M10.3975 1.50928C10.668 1.56338 10.8437 1.82667 10.79 2.09717L10.3096 4.49951H12.5C12.776 4.49951 12.9997 4.72359 13 4.99951C13 5.27565 12.7761 5.49951 12.5 5.49951H10.1094L9.50977 8.49951H11.5C11.776 8.49951 11.9997 8.72358 12 8.99951C12 9.27565 11.7761 9.49951 11.5 9.49951H9.30957L8.79004 12.0972C8.73591 12.3678 8.4728 12.5437 8.20215 12.4897C7.93165 12.4355 7.75567 12.1724 7.80957 11.9019L8.29004 9.49951H5.30957L4.79004 12.0972C4.73591 12.3678 4.4728 12.5437 4.20215 12.4897C3.93165 12.4355 3.75567 12.1724 3.80957 11.9019L4.29004 9.49951H2C1.72386 9.49951 1.5 9.27565 1.5 8.99951C1.50025 8.72358 1.72401 8.49951 2 8.49951H4.49023L5.08984 5.49951H3C2.72386 5.49951 2.5 5.27565 2.5 4.99951C2.50025 4.72359 2.72401 4.49951 3 4.49951H5.29004L5.80957 1.90186C5.86387 1.63153 6.12705 1.45556 6.39746 1.50928C6.66798 1.56338 6.84369 1.82667 6.79004 2.09717L6.30957 4.49951H9.29004L9.80957 1.90186C9.86387 1.63153 10.127 1.45556 10.3975 1.50928ZM5.50977 8.49951H8.49023L9.08984 5.49951H6.10938L5.50977 8.49951Z" fill="#242629"/>
</svg>
