<svg width="14" height="14" viewBox="0 0 14 14" fill="none" xmlns="http://www.w3.org/2000/svg">
<path d="M7 1.5C10.3137 1.5 13 4.18629 13 7.5V10.0771C12.9999 11.6913 11.6913 12.9999 10.0771 13H6.5C6.22386 13 6 12.7761 6 12.5C6 12.2239 6.22386 12 6.5 12H9.5V8.22754C9.5 7.82588 9.82588 7.5 10.2275 7.5H10.5C11.0635 7.5 11.5819 7.68841 12 8.00293V7.5C12 4.73858 9.76142 2.5 7 2.5C4.23858 2.5 2 4.73858 2 7.5V8.00293C2.41809 7.68841 2.93653 7.5 3.5 7.5H3.77246C4.17412 7.5 4.5 7.82588 4.5 8.22754V11.7725C4.5 12.1741 4.17412 12.5 3.77246 12.5H3.5C2.11929 12.5 1 11.3807 1 10V7.5C1 4.18629 3.68629 1.5 7 1.5ZM10.5 11.9512C11.3583 11.7583 11.9999 10.9936 12 10.0771V10C12 9.17157 11.3284 8.5 10.5 8.5V11.9512ZM3.5 8.5C2.67157 8.5 2 9.17157 2 10C2 10.8284 2.67157 11.5 3.5 11.5V8.5Z" fill="#242629"/>
</svg>
