<svg width="14" height="14" viewBox="0 0 14 14" fill="none" xmlns="http://www.w3.org/2000/svg">
<g clip-path="url(#clip0_19835_3028)">
<path d="M7 0.5C10.5899 0.5 13.5 3.41015 13.5 7C13.5 10.5899 10.5899 13.5 7 13.5C3.41015 13.5 0.5 10.5899 0.5 7C0.5 3.41015 3.41015 0.5 7 0.5ZM7 1.5C3.96243 1.5 1.5 3.96243 1.5 7C1.5 10.0376 3.96243 12.5 7 12.5C10.0376 12.5 12.5 10.0376 12.5 7C12.5 3.96243 10.0376 1.5 7 1.5ZM7 9C7.3727 9.00003 7.6747 9.30212 7.6748 9.6748C7.6748 10.0476 7.37277 10.3496 7 10.3496C6.62721 10.3496 6.3252 10.0476 6.3252 9.6748C6.3253 9.3021 6.62727 9 7 9ZM5.12988 4.7998C5.48605 3.58942 6.77234 3.21652 7.76562 3.57812C9.26098 4.12307 9.44688 6.13294 8.05469 6.92188C7.89276 7.01359 7.79375 7.06574 7.69629 7.12402C7.606 7.17803 7.56696 7.20876 7.54785 7.22852C7.54401 7.2319 7.50102 7.25486 7.50098 7.5C7.50078 7.77565 7.27655 7.99947 7.00098 8C6.72496 8 6.50117 7.77597 6.50098 7.5C6.50102 7.12297 6.57206 6.79911 6.8291 6.5332C6.93995 6.41859 7.06776 6.33433 7.18262 6.26562C7.29033 6.2012 7.43621 6.12273 7.56152 6.05176C8.20014 5.68984 8.12963 4.77513 7.42383 4.51758C6.82994 4.30134 6.24218 4.56102 6.08887 5.08203L5.60938 4.94043L5.12988 4.7998ZM6.08887 5.08203C6.01074 5.34642 5.73234 5.49745 5.46777 5.41992C5.20335 5.34182 5.05233 5.06439 5.12988 4.7998L6.08887 5.08203Z" fill="#242629"/>
</g>
<defs>
<clipPath id="clip0_19835_3028">
<rect width="14" height="14" fill="white"/>
</clipPath>
</defs>
</svg>
