<svg width="14" height="14" viewBox="0 0 14 14" fill="none" xmlns="http://www.w3.org/2000/svg">
<path d="M12.5 9C12.7761 9 13 9.22386 13 9.5V10C13 11.6569 11.6569 13 10 13H4C2.34315 13 1 11.6569 1 10V9.5C1 9.22386 1.22386 9 1.5 9C1.77614 9 2 9.22386 2 9.5V10C2 11.1046 2.89543 12 4 12H10C11.1046 12 12 11.1046 12 10V9.5C12 9.22386 12.2239 9 12.5 9ZM4.5 1.5C4.5994 1.50002 4.69584 1.52965 4.77734 1.58398L4.85352 1.64648L6.60352 3.39648C6.79871 3.59173 6.79871 3.90827 6.60352 4.10352C6.40827 4.29876 6.09175 4.29873 5.89648 4.10352L5 3.20703V8C5 8.27611 4.7761 8.49995 4.5 8.5C4.22386 8.5 4 8.27614 4 8V3.20703L3.10352 4.10352L3.02539 4.16797C2.83133 4.29612 2.56735 4.27433 2.39648 4.10352C2.22562 3.93265 2.20387 3.66869 2.33203 3.47461L2.39648 3.39648L4.14648 1.64648C4.24025 1.55275 4.36742 1.5 4.5 1.5ZM9.5 1.5C9.77614 1.5 10 1.72386 10 2V6.79297L10.8965 5.89648C11.0917 5.70122 11.4083 5.70122 11.6035 5.89648C11.7988 6.09175 11.7988 6.40825 11.6035 6.60352L9.85352 8.35352L9.77734 8.41602C9.69581 8.47037 9.59944 8.5 9.5 8.5C9.36739 8.5 9.24025 8.44728 9.14648 8.35352L7.39648 6.60352L7.33203 6.52539C7.20387 6.33131 7.22562 6.06735 7.39648 5.89648C7.56735 5.72562 7.83131 5.70387 8.02539 5.83203L8.10352 5.89648L9 6.79297V2C9 1.72386 9.22386 1.5 9.5 1.5Z" fill="#242629"/>
</svg>
