<svg width="14" height="14" viewBox="0 0 14 14" fill="none" xmlns="http://www.w3.org/2000/svg">
<g clip-path="url(#clip0_19835_3023)">
<path d="M7 0.5C10.5899 0.5 13.5 3.41015 13.5 7C13.5 10.5899 10.5899 13.5 7 13.5C3.41015 13.5 0.5 10.5899 0.5 7C0.5 3.41015 3.41015 0.5 7 0.5ZM7 1.5C3.96243 1.5 1.5 3.96243 1.5 7C1.5 10.0376 3.96243 12.5 7 12.5C10.0376 12.5 12.5 10.0376 12.5 7C12.5 3.96243 10.0376 1.5 7 1.5ZM7 6.5C7.27614 6.5 7.5 6.72386 7.5 7V9.5C7.5 9.77614 7.27614 10 7 10C6.72386 10 6.5 9.77614 6.5 9.5V7C6.5 6.72386 6.72386 6.5 7 6.5ZM7 4C7.41421 4 7.75 4.33579 7.75 4.75V4.75977C7.75 5.17398 7.41421 5.50977 7 5.50977C6.58579 5.50977 6.25 5.17398 6.25 4.75977V4.75C6.25 4.33579 6.58579 4 7 4Z" fill="#242629"/>
</g>
<defs>
<clipPath id="clip0_19835_3023">
<rect width="14" height="14" fill="white"/>
</clipPath>
</defs>
</svg>
