<svg width="14" height="14" viewBox="0 0 14 14" fill="none" xmlns="http://www.w3.org/2000/svg">
<path d="M8.5 1C9.19178 1 9.74066 1.00003 10.1826 1.03613C10.6304 1.07272 11.0127 1.14901 11.3623 1.32715C11.9265 1.61472 12.3853 2.07347 12.6729 2.6377C12.851 2.98732 12.9273 3.36958 12.9639 3.81738C13 4.25934 13 4.80822 13 5.5V8.5C13 9.19166 13 9.7407 12.9639 10.1826C12.9273 10.6304 12.851 11.0127 12.6729 11.3623C12.3853 11.9266 11.9265 12.3852 11.3623 12.6729C11.0127 12.851 10.6304 12.9283 10.1826 12.9648C9.74067 13.0009 9.19175 13 8.5 13H5.5C4.80825 13 4.25933 13.0009 3.81738 12.9648C3.36958 12.9283 2.98732 12.851 2.6377 12.6729C2.07345 12.3852 1.6147 11.9266 1.32715 11.3623C1.14901 11.0127 1.07272 10.6304 1.03613 10.1826C1.00005 9.7407 1 9.19166 1 8.5V5.5C1 4.80822 1.00003 4.25934 1.03613 3.81738C1.07272 3.36958 1.14901 2.98732 1.32715 2.6377C1.61472 2.07347 2.07347 1.61472 2.6377 1.32715C2.98732 1.14901 3.36958 1.07272 3.81738 1.03613C4.25934 1.00003 4.80822 1 5.5 1H8.5ZM5.5 2C4.79168 2 4.29023 2.00022 3.89844 2.03223C3.51264 2.06377 3.27691 2.12345 3.0918 2.21777C2.71554 2.40951 2.40951 2.71554 2.21777 3.0918C2.12345 3.27691 2.06377 3.51264 2.03223 3.89844C2.00022 4.29023 2 4.79169 2 5.5V8.5C2 9.20832 2.00022 9.70977 2.03223 10.1016C2.06376 10.4874 2.12346 10.7231 2.21777 10.9082C2.40949 11.2845 2.71556 11.5905 3.0918 11.7822C3.27691 11.8765 3.51265 11.9362 3.89844 11.9678C4.29023 11.9998 4.79168 12 5.5 12H8.5C9.20832 12 9.70977 11.9998 10.1016 11.9678C10.4874 11.9362 10.7231 11.8765 10.9082 11.7822C11.2844 11.5905 11.5905 11.2845 11.7822 10.9082C11.8765 10.7231 11.9362 10.4874 11.9678 10.1016C11.9998 9.70977 12 9.20831 12 8.5V5.5C12 4.79168 11.9998 4.29023 11.9678 3.89844C11.9362 3.51264 11.8765 3.27691 11.7822 3.0918C11.5905 2.71554 11.2845 2.40951 10.9082 2.21777C10.7231 2.12345 10.4874 2.06377 10.1016 2.03223C9.70977 2.00022 9.20832 2 8.5 2H5.5ZM7 4C8.65685 4 10 5.34315 10 7C10 8.65685 8.65685 10 7 10C5.34315 10 4 8.65685 4 7C4 5.34315 5.34315 4 7 4ZM7 5C5.89543 5 5 5.89543 5 7C5 8.10457 5.89543 9 7 9C8.10457 9 9 8.10457 9 7C9 5.89543 8.10457 5 7 5ZM10.25 3C10.6642 3 11 3.33579 11 3.75C11 4.16421 10.6642 4.5 10.25 4.5C9.83579 4.5 9.5 4.16421 9.5 3.75C9.5 3.33579 9.83579 3 10.25 3Z" fill="#242629"/>
</svg>
