<svg width="14" height="14" viewBox="0 0 14 14" fill="none" xmlns="http://www.w3.org/2000/svg">
<path d="M1.94702 5.94751C2.50241 5.30943 3.48256 5.27617 4.08081 5.87427L8.12573 9.91919C8.72363 10.5175 8.69053 11.4976 8.05249 12.053C6.54532 13.3644 4.27772 13.279 2.8728 11.8586L2.86011 11.8459L2.10229 12.6038C1.90715 12.7989 1.59056 12.7997 1.39526 12.6047C1.20026 12.4095 1.2001 12.0919 1.39526 11.8967L2.15308 11.1389L2.14136 11.1272C0.721 9.72231 0.635777 7.45471 1.94702 5.94751ZM3.37378 6.5813C3.18539 6.39306 2.87689 6.40305 2.7019 6.60376C1.73675 7.71301 1.79911 9.38227 2.84448 10.4163L3.2146 10.7815L3.21753 10.7854L3.58374 11.1555C4.61761 12.2009 6.286 12.263 7.39526 11.2981C7.59607 11.1232 7.60679 10.8147 7.4187 10.6262L3.37378 6.5813ZM5.948 1.94751C7.4552 0.635919 9.7227 0.720331 11.1277 2.14087L11.1394 2.15259L11.8972 1.39478C12.0923 1.19965 12.409 1.19992 12.6042 1.39478C12.7995 1.59003 12.7995 1.90653 12.6042 2.10181L11.8464 2.8606L11.8591 2.87231C13.2798 4.27728 13.3642 6.54479 12.0525 8.052C11.4971 8.69019 10.5169 8.72348 9.9187 8.12524L9.25073 7.45728L8.5105 8.19751C8.31542 8.39257 7.99877 8.39221 7.80347 8.19751C7.60821 8.00225 7.60822 7.68574 7.80347 7.49048L8.5437 6.75024L7.24976 5.4563L6.50952 6.19653C6.31426 6.39177 5.99774 6.39179 5.80249 6.19653C5.60766 6.00124 5.60739 5.68463 5.80249 5.4895L6.54272 4.74927L5.87476 4.0813C5.27645 3.48304 5.30976 2.50295 5.948 1.94751ZM10.4158 2.84399C9.38173 1.79879 7.7134 1.73718 6.60425 2.70239C6.40355 2.87744 6.39342 3.18591 6.58179 3.37427L10.6257 7.41821C10.8141 7.60655 11.1226 7.59642 11.2976 7.39575C12.2629 6.28663 12.2012 4.61826 11.156 3.58423L10.7859 3.21802L10.782 3.21411L10.4158 2.84399Z" fill="#242629"/>
</svg>
