<svg width="14" height="14" viewBox="0 0 14 14" fill="none" xmlns="http://www.w3.org/2000/svg">
<path d="M11.101 2.00977C11.3287 2.05644 11.5004 2.25842 11.5004 2.5C11.5004 2.74158 11.3287 2.94356 11.101 2.99023L11.0004 3H8.39001L6.62146 11H9.00037L9.10095 11.0098C9.32869 11.0565 9.50037 11.2585 9.50037 11.5C9.50037 11.7415 9.32869 11.9435 9.10095 11.9902L9.00037 12H2.97791C2.7018 12 2.47791 11.7761 2.47791 11.5C2.47791 11.2239 2.7018 11 2.97791 11H5.599L7.36658 3H4.97791C4.7018 2.99995 4.47791 2.77611 4.47791 2.5C4.47791 2.22389 4.7018 2.00005 4.97791 2H11.0004L11.101 2.00977Z" fill="#242629"/>
</svg>
