<svg width="14" height="14" viewBox="0 0 14 14" fill="none" xmlns="http://www.w3.org/2000/svg">
<path d="M8.5 0.499756C9.19178 0.499756 9.74066 0.499784 10.1826 0.535889C10.6304 0.572475 11.0127 0.648762 11.3623 0.826904C11.9265 1.11448 12.3853 1.57323 12.6729 2.13745C12.851 2.48707 12.9273 2.86934 12.9639 3.31714C13 3.75909 13 4.30797 13 4.99976V8.99976C13 9.69154 13 10.2404 12.9639 10.6824C12.9273 11.1302 12.851 11.5124 12.6729 11.8621C12.3853 12.4263 11.9265 12.885 11.3623 13.1726C11.0127 13.3507 10.6304 13.427 10.1826 13.4636C9.74066 13.4997 9.19178 13.4998 8.5 13.4998H5.5C4.80822 13.4998 4.25934 13.4997 3.81738 13.4636C3.36958 13.427 2.98732 13.3507 2.6377 13.1726C2.07347 12.885 1.61472 12.4263 1.32715 11.8621C1.14901 11.5124 1.07272 11.1302 1.03613 10.6824C1.00003 10.2404 1 9.69154 1 8.99976V4.99976C1 4.30797 1.00003 3.75909 1.03613 3.31714C1.07272 2.86934 1.14901 2.48707 1.32715 2.13745C1.61472 1.57323 2.07347 1.11448 2.6377 0.826904C2.98732 0.648762 3.36958 0.572475 3.81738 0.535889C4.25934 0.499784 4.80822 0.499756 5.5 0.499756H8.5ZM11.9473 10.781C11.7692 10.933 11.5733 11.065 11.3623 11.1726C11.0127 11.3507 10.6304 11.427 10.1826 11.4636C9.74066 11.4997 9.19178 11.4998 8.5 11.4998H5.5C4.80822 11.4998 4.25934 11.4997 3.81738 11.4636C3.36958 11.427 2.98732 11.3507 2.6377 11.1726C2.42644 11.0649 2.22999 10.9332 2.05176 10.781C2.086 11.0637 2.13908 11.2535 2.21777 11.408C2.40951 11.7842 2.71554 12.0902 3.0918 12.282C3.27691 12.3763 3.51264 12.436 3.89844 12.4675C4.29023 12.4995 4.79168 12.4998 5.5 12.4998H8.5C9.20832 12.4998 9.70977 12.4995 10.1016 12.4675C10.4874 12.436 10.7231 12.3763 10.9082 12.282C11.2845 12.0902 11.5905 11.7842 11.7822 11.408C11.8609 11.2535 11.913 11.0636 11.9473 10.781ZM5.5 1.49976C4.79168 1.49976 4.29023 1.49997 3.89844 1.53198C3.51264 1.56352 3.27691 1.62321 3.0918 1.71753C2.71554 1.90926 2.40951 2.2153 2.21777 2.59155C2.12345 2.77667 2.06377 3.01239 2.03223 3.39819C2.00022 3.78999 2 4.29144 2 4.99976V6.99976C2 7.70807 2.00022 8.20952 2.03223 8.60132C2.06377 8.98712 2.12345 9.22285 2.21777 9.40796C2.40951 9.78421 2.71554 10.0902 3.0918 10.282C3.27691 10.3763 3.51264 10.436 3.89844 10.4675C4.29023 10.4995 4.79168 10.4998 5.5 10.4998H8.5C9.20832 10.4998 9.70977 10.4995 10.1016 10.4675C10.4874 10.436 10.7231 10.3763 10.9082 10.282C11.2845 10.0902 11.5905 9.78421 11.7822 9.40796C11.8765 9.22285 11.9362 8.98712 11.9678 8.60132C11.9998 8.20952 12 7.70807 12 6.99976V4.99976C12 4.29144 11.9998 3.78999 11.9678 3.39819C11.9362 3.01239 11.8765 2.77667 11.7822 2.59155C11.5905 2.2153 11.2845 1.90926 10.9082 1.71753C10.7231 1.62321 10.4874 1.56352 10.1016 1.53198C9.70977 1.49997 9.20832 1.49976 8.5 1.49976H5.5ZM5.5 2.99976C5.77614 2.99976 6 3.22361 6 3.49976V5.49097L6.19629 5.29175L8.12988 3.16382C8.31553 2.95953 8.63157 2.94414 8.83594 3.12964C9.04022 3.31529 9.05562 3.63133 8.87012 3.83569L7.21973 5.6521L9.37988 8.17456L9.4375 8.25757C9.55036 8.46095 9.50872 8.72243 9.3252 8.87964C9.11547 9.05917 8.79973 9.03463 8.62012 8.82495L6.52734 6.38062L6 6.91772V8.49976C6 8.7759 5.77614 8.99976 5.5 8.99976C5.22386 8.99976 5 8.7759 5 8.49976V3.49976C5 3.22361 5.22386 2.99976 5.5 2.99976Z" fill="#242629"/>
</svg>
