<svg width="14" height="14" viewBox="0 0 14 14" fill="none" xmlns="http://www.w3.org/2000/svg">
<path d="M8.83301 1C11.1342 1 13 2.86581 13 5.16699C12.9998 7.46803 11.1341 9.33301 8.83301 9.33301C8.53534 9.333 8.24457 9.3018 7.96387 9.24219L6.85352 10.3535C6.75976 10.4472 6.63255 10.5 6.5 10.5H6.24219C5.83232 10.5002 5.50011 10.8323 5.5 11.2422C5.5 11.5395 5.38203 11.8249 5.17188 12.0352L4.35352 12.8535C4.25977 12.9472 4.13253 13 4 13H1.5C1.3674 13 1.24025 12.9473 1.14648 12.8535C1.05273 12.7597 1 12.6326 1 12.5V10L1.00977 9.90137C1.02901 9.80546 1.07632 9.7167 1.14648 9.64648L4.75684 6.03418C4.69749 5.75411 4.66701 5.46394 4.66699 5.16699C4.66699 2.86586 6.5319 1.00009 8.83301 1ZM8.83301 2C7.08418 2.00009 5.66699 3.41814 5.66699 5.16699C5.66702 5.47408 5.71001 5.7702 5.79102 6.0498C5.84171 6.22483 5.7929 6.41313 5.66406 6.54199L2 10.2061V12H3.79297L4.46484 11.3281C4.48746 11.3054 4.5 11.2743 4.5 11.2422C4.50011 10.28 5.28003 9.50025 6.24219 9.5H6.29297L7.45703 8.33496C7.5859 8.20615 7.77518 8.15827 7.9502 8.20898C8.2298 8.28997 8.52592 8.33299 8.83301 8.33301C10.5818 8.33301 11.9998 6.91574 12 5.16699C12 3.41809 10.5819 2 8.83301 2ZM9.5 3.5C10.0523 3.5 10.5 3.94772 10.5 4.5C10.5 5.05228 10.0523 5.5 9.5 5.5C8.94772 5.5 8.5 5.05228 8.5 4.5C8.5 3.94772 8.94772 3.5 9.5 3.5Z" fill="#242629"/>
</svg>
