<svg width="14" height="14" viewBox="0 0 14 14" fill="none" xmlns="http://www.w3.org/2000/svg">
<path d="M3.38306 5.9104C4.75706 4.53659 6.99219 4.61514 8.26978 6.04517L8.39087 6.18774L8.44556 6.27271C8.55146 6.47973 8.50139 6.73993 8.31274 6.89087C8.12421 7.0417 7.85964 7.03348 7.68091 6.88501L7.60962 6.81274L7.43579 6.61841C6.52607 5.70494 5.02475 5.68296 4.09009 6.61743L2.85376 7.85376C1.94445 8.76307 1.94445 10.2374 2.85376 11.1467C3.76308 12.0558 5.23749 12.056 6.14673 11.1467L7.14673 10.1467C7.34199 9.95147 7.6585 9.95147 7.85376 10.1467C8.04881 10.342 8.04895 10.6586 7.85376 10.8538L6.85376 11.8538C5.554 13.1535 3.44658 13.1534 2.14673 11.8538C0.846897 10.5539 0.846897 8.44656 2.14673 7.14673L3.38306 5.9104ZM7.14673 2.14673C8.44656 0.846898 10.5539 0.846897 11.8538 2.14673C13.1534 3.44658 13.1535 5.554 11.8538 6.85376L10.6174 8.09009C9.2435 9.46382 7.00834 9.38513 5.73071 7.95532L5.60962 7.81274L5.55493 7.72778C5.44885 7.52071 5.499 7.26062 5.68774 7.10962C5.87636 6.95875 6.14085 6.96683 6.31958 7.11548L6.39087 7.18774L6.5647 7.38208C7.47444 8.29534 8.97581 8.31745 9.9104 7.38306L11.1467 6.14673C12.056 5.23749 12.0558 3.76308 11.1467 2.85376C10.2374 1.94445 8.76307 1.94445 7.85376 2.85376L6.85376 3.85376C6.65857 4.04895 6.34201 4.04881 6.14673 3.85376C5.95147 3.6585 5.95147 3.34199 6.14673 3.14673L7.14673 2.14673Z" fill="#242629"/>
</svg>
