<svg width="14" height="14" viewBox="0 0 14 14" fill="none" xmlns="http://www.w3.org/2000/svg">
<g clip-path="url(#clip0_19835_2291)">
<path d="M10.5 8C11.8807 8 13 9.11929 13 10.5C13 11.0095 12.8467 11.4827 12.585 11.8779L13.8535 13.1465L13.918 13.2246C14.0461 13.4187 14.0244 13.6827 13.8535 13.8535C13.6827 14.0244 13.4187 14.0461 13.2246 13.918L13.1465 13.8535L11.8779 12.585C11.4827 12.8467 11.0095 13 10.5 13C9.11929 13 8 11.8807 8 10.5C8 9.11929 9.11929 8 10.5 8ZM8.94531 0C10.2219 0.000238723 11.2759 0.937641 11.4658 2.16113C12.5063 2.51474 13.2865 3.41779 13.4629 4.53027C13.5014 4.77327 13.5 5.0546 13.5 5.5V6.5C13.5 6.77614 13.2761 7 13 7C12.7239 7 12.5 6.77614 12.5 6.5V5.5C12.5 5.01682 12.4986 4.83311 12.4756 4.6875C12.347 3.87554 11.7356 3.22964 10.9424 3.0498C10.9144 3.04657 10.8877 3.04086 10.8613 3.0332C10.8451 3.03022 10.8289 3.02701 10.8125 3.02441C10.6669 3.0014 10.4832 3 10 3H6.5C5.79168 3 5.29023 3.00022 4.89844 3.03223C4.51264 3.06377 4.27691 3.12345 4.0918 3.21777C3.71554 3.40951 3.40951 3.71554 3.21777 4.0918C3.12345 4.27691 3.06377 4.51264 3.03223 4.89844C3.00022 5.29023 3 5.79168 3 6.5V9C3 9.70832 3.00022 10.2098 3.03223 10.6016C3.06377 10.9874 3.12345 11.2231 3.21777 11.4082C3.40951 11.7845 3.71554 12.0905 4.0918 12.2822C4.27691 12.3765 4.51264 12.4362 4.89844 12.4678C5.29023 12.4998 5.79168 12.5 6.5 12.5C6.77614 12.5 7 12.7239 7 13C7 13.2761 6.77614 13.5 6.5 13.5C5.80822 13.5 5.25934 13.5 4.81738 13.4639C4.36958 13.4273 3.98732 13.351 3.6377 13.1729C3.07347 12.8853 2.61472 12.4265 2.32715 11.8623C2.26381 11.738 2.21323 11.6096 2.17285 11.4756C0.946929 11.3152 0 10.2697 0 9V4.5C0 3.80822 2.78783e-05 3.25934 0.0361328 2.81738C0.0727196 2.36958 0.149006 1.98732 0.327148 1.6377C0.614723 1.07347 1.07347 0.614723 1.6377 0.327148C1.98732 0.149006 2.36958 0.0727196 2.81738 0.0361328C3.25934 2.78783e-05 3.80822 0 4.5 0H8.94531ZM10.5 9C9.67157 9 9 9.67157 9 10.5C9 11.3284 9.67157 12 10.5 12C11.3284 12 12 11.3284 12 10.5C12 9.67157 11.3284 9 10.5 9ZM6.5 10.5C6.77614 10.5 7 10.7239 7 11C7 11.2761 6.77614 11.5 6.5 11.5H5C4.72386 11.5 4.5 11.2761 4.5 11C4.5 10.7239 4.72386 10.5 5 10.5H6.5ZM4.5 1C3.79168 1 3.29023 1.00022 2.89844 1.03223C2.51264 1.06377 2.27691 1.12345 2.0918 1.21777C1.71554 1.40951 1.40951 1.71554 1.21777 2.0918C1.12345 2.27691 1.06377 2.51264 1.03223 2.89844C1.00022 3.29023 1 3.79168 1 4.5V9C1 9.66054 1.42751 10.2197 2.02051 10.4199C2.00126 10.0277 2 9.56087 2 9V6.5C2 5.80822 2.00003 5.25934 2.03613 4.81738C2.07272 4.36958 2.14901 3.98732 2.32715 3.6377C2.61472 3.07347 3.07347 2.61472 3.6377 2.32715C3.98732 2.14901 4.36958 2.07272 4.81738 2.03613C5.25934 2.00003 5.80822 2 6.5 2H10C10.1489 2 10.2795 2.00072 10.3965 2.00195C10.1732 1.41679 9.60873 1.0002 8.94531 1H4.5ZM6.5 8.5C6.77614 8.5 7 8.72386 7 9C7 9.27614 6.77614 9.5 6.5 9.5H5C4.72386 9.5 4.5 9.27614 4.5 9C4.5 8.72386 4.72386 8.5 5 8.5H6.5ZM6.41211 4.50781C6.53449 4.51657 6.66925 4.53722 6.80566 4.59668C7.07302 4.71333 7.28667 4.92698 7.40332 5.19434C7.46278 5.33075 7.48343 5.46551 7.49219 5.58789C7.5006 5.70564 7.5 5.84695 7.5 6C7.5 6.15305 7.5006 6.29436 7.49219 6.41211C7.48343 6.53449 7.46278 6.66925 7.40332 6.80566C7.28667 7.07302 7.07302 7.28667 6.80566 7.40332C6.66925 7.46278 6.53449 7.48343 6.41211 7.49219C6.29436 7.5006 6.15305 7.5 6 7.5C5.84695 7.5 5.70564 7.5006 5.58789 7.49219C5.46551 7.48343 5.33075 7.46278 5.19434 7.40332C4.92698 7.28667 4.71333 7.07302 4.59668 6.80566C4.53722 6.66925 4.51657 6.53449 4.50781 6.41211C4.4994 6.29436 4.5 6.15305 4.5 6C4.5 5.84695 4.4994 5.70564 4.50781 5.58789C4.51657 5.46551 4.53722 5.33075 4.59668 5.19434C4.71333 4.92698 4.92698 4.71333 5.19434 4.59668C5.33075 4.53722 5.46551 4.51657 5.58789 4.50781C5.70564 4.4994 5.84695 4.5 6 4.5C6.15305 4.5 6.29436 4.4994 6.41211 4.50781ZM5.65918 5.50586C5.59038 5.51079 5.58265 5.51754 5.59375 5.5127C5.55762 5.52846 5.52846 5.55762 5.5127 5.59375C5.51754 5.58265 5.51079 5.59038 5.50586 5.65918C5.50058 5.73303 5.5 5.8326 5.5 6C5.5 6.1674 5.50058 6.26697 5.50586 6.34082C5.51079 6.40962 5.51754 6.41735 5.5127 6.40625C5.52846 6.44238 5.55762 6.47154 5.59375 6.4873C5.58265 6.48246 5.59038 6.48921 5.65918 6.49414C5.73303 6.49942 5.8326 6.5 6 6.5C6.1674 6.5 6.26697 6.49942 6.34082 6.49414C6.40962 6.48921 6.41735 6.48246 6.40625 6.4873C6.44238 6.47154 6.47154 6.44238 6.4873 6.40625C6.48246 6.41735 6.48921 6.40962 6.49414 6.34082C6.49942 6.26697 6.5 6.1674 6.5 6C6.5 5.8326 6.49942 5.73303 6.49414 5.65918C6.48921 5.59038 6.48246 5.58265 6.4873 5.59375C6.47154 5.55762 6.44238 5.52846 6.40625 5.5127C6.41735 5.51754 6.40962 5.51079 6.34082 5.50586C6.26697 5.50058 6.1674 5.5 6 5.5C5.8326 5.5 5.73303 5.50058 5.65918 5.50586Z" fill="#242629"/>
</g>
<defs>
<clipPath id="clip0_19835_2291">
<rect width="14" height="14" fill="white"/>
</clipPath>
</defs>
</svg>
