<svg width="14" height="14" viewBox="0 0 14 14" fill="none" xmlns="http://www.w3.org/2000/svg">
<path d="M11.499 9C11.7752 9 11.999 9.22386 11.999 9.5V11H13.499C13.7752 11 13.999 11.2239 13.999 11.5C13.999 11.7761 13.7752 12 13.499 12H11.999V13.5C11.999 13.7761 11.7752 14 11.499 14C11.2231 13.9998 10.999 13.776 10.999 13.5V12H9.49902C9.22308 11.9998 8.99902 11.776 8.99902 11.5C8.99902 11.224 9.22308 11.0002 9.49902 11H10.999V9.5C10.999 9.224 11.2231 9.00023 11.499 9ZM7.10059 10.5098C7.32852 10.5563 7.5 10.7583 7.5 11C7.5 11.2417 7.32852 11.4437 7.10059 11.4902L7 11.5H2C1.72386 11.5 1.5 11.2761 1.5 11C1.5 10.7239 1.72386 10.5 2 10.5H7L7.10059 10.5098ZM12 6.5C12.2761 6.5 12.5 6.72386 12.5 7C12.5 7.27614 12.2761 7.5 12 7.5H2C1.72386 7.5 1.5 7.27614 1.5 7C1.5 6.72386 1.72386 6.5 2 6.5H12ZM12 2.5C12.2761 2.5 12.5 2.72386 12.5 3C12.5 3.27614 12.2761 3.5 12 3.5H2C1.72386 3.5 1.5 3.27614 1.5 3C1.5 2.72386 1.72386 2.5 2 2.5H12Z" fill="#242629"/>
</svg>
