<svg width="14" height="14" viewBox="0 0 14 14" fill="none" xmlns="http://www.w3.org/2000/svg">
<g clip-path="url(#clip0_19835_2300)">
<path d="M8.94513 0C10.2248 0.000239291 11.2804 0.942151 11.4666 2.16992C11.6039 2.21074 11.7351 2.26242 11.8621 2.32715C12.4263 2.61472 12.8851 3.07347 13.1727 3.6377C13.3508 3.98732 13.4271 4.36958 13.4637 4.81738C13.4998 5.25934 13.4998 5.80822 13.4998 6.5V9C13.4998 9.27614 13.276 9.5 12.9998 9.5C12.7237 9.5 12.4998 9.27614 12.4998 9V6.5C12.4998 5.79168 12.4996 5.29023 12.4676 4.89844C12.4361 4.51264 12.3764 4.27691 12.282 4.0918C12.0903 3.71554 11.7843 3.40951 11.408 3.21777C11.2229 3.12345 10.9872 3.06377 10.6014 3.03223C10.2096 3.00022 9.70813 3 8.99982 3H6.49982C5.7915 3 5.29005 3.00022 4.89825 3.03223C4.51245 3.06377 4.27673 3.12345 4.09161 3.21777C3.71536 3.40951 3.40932 3.71554 3.21759 4.0918C3.12327 4.27691 3.06358 4.51264 3.03204 4.89844C3.00003 5.29023 2.99982 5.79168 2.99982 6.5V9C2.99982 9.70832 3.00003 10.2098 3.03204 10.6016C3.06358 10.9874 3.12327 11.2231 3.21759 11.4082C3.40932 11.7845 3.71536 12.0905 4.09161 12.2822C4.27673 12.3765 4.51245 12.4362 4.89825 12.4678C5.29005 12.4998 5.7915 12.5 6.49982 12.5H6.99982C7.27596 12.5 7.49982 12.7239 7.49982 13C7.49982 13.2761 7.27596 13.5 6.99982 13.5H6.49982C5.80803 13.5 5.25915 13.5 4.8172 13.4639C4.3694 13.4273 3.98714 13.351 3.63751 13.1729C3.07329 12.8853 2.61454 12.4265 2.32697 11.8623C2.26363 11.738 2.21305 11.6096 2.17267 11.4756C0.946746 11.3152 -0.000183105 10.2697 -0.000183105 9V4.5C-0.000183105 3.80822 -0.000155225 3.25934 0.0359497 2.81738C0.0725365 2.36958 0.148823 1.98732 0.326965 1.6377C0.61454 1.07347 1.07329 0.614723 1.63751 0.327148C1.98714 0.149006 2.3694 0.0727196 2.8172 0.0361328C3.25915 2.78804e-05 3.80803 0 4.49982 0H8.94513ZM13.4998 11C13.776 11 13.9998 11.2239 13.9998 11.5C13.9998 11.7761 13.776 12 13.4998 12H9.49982C9.22367 12 8.99982 11.7761 8.99982 11.5C8.99982 11.2239 9.22367 11 9.49982 11H13.4998ZM6.99982 10.5C7.27596 10.5 7.49982 10.7239 7.49982 11C7.49982 11.2761 7.27596 11.5 6.99982 11.5H4.99982C4.72367 11.5 4.49982 11.2761 4.49982 11C4.49982 10.7239 4.72367 10.5 4.99982 10.5H6.99982ZM4.49982 1C3.7915 1 3.29005 1.00022 2.89825 1.03223C2.51245 1.06377 2.27673 1.12345 2.09161 1.21777C1.71536 1.40951 1.40932 1.71554 1.21759 2.0918C1.12327 2.27691 1.06358 2.51264 1.03204 2.89844C1.00003 3.29023 0.999817 3.79168 0.999817 4.5V9C0.999817 9.66054 1.42733 10.2197 2.02032 10.4199C2.00108 10.0277 1.99982 9.56087 1.99982 9V6.5C1.99982 5.80822 1.99984 5.25934 2.03595 4.81738C2.07254 4.36958 2.14882 3.98732 2.32697 3.6377C2.61454 3.07347 3.07329 2.61472 3.63751 2.32715C3.98714 2.14901 4.3694 2.07272 4.8172 2.03613C5.25915 2.00003 5.80803 2 6.49982 2H8.99982C9.55233 2 10.0136 2.00113 10.4022 2.01953C10.1836 1.42525 9.61509 1.00021 8.94513 1H4.49982ZM6.99982 8.5C7.27596 8.5 7.49982 8.72386 7.49982 9C7.49982 9.27614 7.27596 9.5 6.99982 9.5H4.99982C4.72367 9.5 4.49982 9.27614 4.49982 9C4.49982 8.72386 4.72367 8.5 4.99982 8.5H6.99982ZM6.41193 4.50781C6.53431 4.51657 6.66906 4.53722 6.80548 4.59668C7.07284 4.71333 7.28649 4.92698 7.40314 5.19434C7.4626 5.33075 7.48325 5.46551 7.492 5.58789C7.50042 5.70564 7.49982 5.84695 7.49982 6C7.49982 6.15305 7.50042 6.29436 7.492 6.41211C7.48325 6.53449 7.4626 6.66925 7.40314 6.80566C7.28649 7.07302 7.07284 7.28667 6.80548 7.40332C6.66906 7.46278 6.53431 7.48343 6.41193 7.49219C6.29418 7.5006 6.15287 7.5 5.99982 7.5C5.84677 7.5 5.70546 7.5006 5.58771 7.49219C5.46533 7.48343 5.33057 7.46278 5.19415 7.40332C4.92679 7.28667 4.71314 7.07302 4.5965 6.80566C4.53704 6.66925 4.51639 6.53449 4.50763 6.41211C4.49922 6.29436 4.49982 6.15305 4.49982 6C4.49982 5.84695 4.49922 5.70564 4.50763 5.58789C4.51639 5.46551 4.53704 5.33075 4.5965 5.19434C4.71314 4.92698 4.92679 4.71333 5.19415 4.59668C5.33057 4.53722 5.46533 4.51657 5.58771 4.50781C5.70546 4.4994 5.84677 4.5 5.99982 4.5C6.15287 4.5 6.29418 4.4994 6.41193 4.50781ZM5.659 5.50586C5.59019 5.51079 5.58246 5.51754 5.59357 5.5127C5.55744 5.52846 5.52828 5.55762 5.51251 5.59375C5.51736 5.58265 5.51061 5.59038 5.50568 5.65918C5.5004 5.73303 5.49982 5.8326 5.49982 6C5.49982 6.1674 5.5004 6.26697 5.50568 6.34082C5.51061 6.40962 5.51736 6.41735 5.51251 6.40625C5.52828 6.44238 5.55744 6.47154 5.59357 6.4873C5.58246 6.48246 5.59019 6.48921 5.659 6.49414C5.73285 6.49942 5.83242 6.5 5.99982 6.5C6.16722 6.5 6.26679 6.49942 6.34064 6.49414C6.40944 6.48921 6.41717 6.48246 6.40607 6.4873C6.4422 6.47154 6.47136 6.44238 6.48712 6.40625C6.48228 6.41735 6.48902 6.40962 6.49396 6.34082C6.49923 6.26697 6.49982 6.1674 6.49982 6C6.49982 5.8326 6.49923 5.73303 6.49396 5.65918C6.48902 5.59038 6.48228 5.58265 6.48712 5.59375C6.47136 5.55762 6.4422 5.52846 6.40607 5.5127C6.41717 5.51754 6.40944 5.51079 6.34064 5.50586C6.26679 5.50058 6.16722 5.5 5.99982 5.5C5.83242 5.5 5.73285 5.50058 5.659 5.50586Z" fill="#242629"/>
</g>
<defs>
<clipPath id="clip0_19835_2300">
<rect width="14" height="14" fill="white"/>
</clipPath>
</defs>
</svg>
