<svg width="14" height="14" viewBox="0 0 14 14" fill="none" xmlns="http://www.w3.org/2000/svg">
<g clip-path="url(#clip0_19835_2275)">
<path d="M10.7976 7.25C11.2629 6.87034 12.0005 7.19138 12.0007 7.82812V9.5H12.9207C13.5795 9.50076 13.9093 10.2979 13.4431 10.7637L10.7566 13.4453C10.2903 13.9107 9.49434 13.5804 9.4939 12.9219V11.5H8.63745C7.99781 11.5 7.65919 10.7433 8.08569 10.2666L10.7087 7.33496L10.7976 7.25ZM8.94507 0C10.2217 0.000238723 11.2757 0.937641 11.4656 2.16113C12.5061 2.51474 13.2863 3.41779 13.4626 4.53027C13.5011 4.77327 13.4998 5.0546 13.4998 5.5V6C13.4998 6.27614 13.2759 6.5 12.9998 6.5C12.7236 6.5 12.4998 6.27614 12.4998 6V5.5C12.4998 5.01682 12.4984 4.83311 12.4753 4.6875C12.3467 3.87554 11.7353 3.22963 10.9421 3.0498C10.9142 3.04657 10.8874 3.04086 10.8611 3.0332C10.8449 3.03022 10.8286 3.02701 10.8123 3.02441C10.6667 3.0014 10.4829 3 9.99976 3H6.49976C5.79144 3 5.28999 3.00022 4.89819 3.03223C4.51239 3.06377 4.27667 3.12345 4.09155 3.21777C3.7153 3.40951 3.40926 3.71554 3.21753 4.0918C3.12321 4.27691 3.06352 4.51264 3.03198 4.89844C2.99997 5.29023 2.99976 5.79168 2.99976 6.5V9C2.99976 9.70832 2.99997 10.2098 3.03198 10.6016C3.06352 10.9874 3.12321 11.2231 3.21753 11.4082C3.40926 11.7845 3.7153 12.0905 4.09155 12.2822C4.27667 12.3765 4.51239 12.4362 4.89819 12.4678C5.28999 12.4998 5.79144 12.5 6.49976 12.5H7.49976C7.7759 12.5 7.99976 12.7239 7.99976 13C7.99976 13.2761 7.7759 13.5 7.49976 13.5H6.49976C5.80797 13.5 5.25909 13.5 4.81714 13.4639C4.36934 13.4273 3.98707 13.351 3.63745 13.1729C3.07323 12.8853 2.61448 12.4265 2.3269 11.8623C2.26357 11.738 2.21299 11.6096 2.17261 11.4756C0.946685 11.3152 -0.000244141 10.2697 -0.000244141 9V4.5C-0.000244141 3.80822 -0.00021626 3.25934 0.0358887 2.81738C0.0724754 2.36958 0.148762 1.98732 0.326904 1.6377C0.614479 1.07347 1.07323 0.614723 1.63745 0.327148C1.98707 0.149006 2.36934 0.0727196 2.81714 0.0361328C3.25909 2.78804e-05 3.80797 0 4.49976 0H8.94507ZM9.21851 10.5H9.75366C10.1621 10.5003 10.4939 10.8317 10.4939 11.2402V12.2939L12.2917 10.5H11.74C11.3315 10.4998 11.0009 10.1682 11.0007 9.75977V8.50781L9.21851 10.5ZM6.49976 10.5C6.7759 10.5 6.99976 10.7239 6.99976 11C6.99976 11.2761 6.7759 11.5 6.49976 11.5H4.99976C4.72361 11.5 4.49976 11.2761 4.49976 11C4.49976 10.7239 4.72361 10.5 4.99976 10.5H6.49976ZM4.49976 1C3.79144 1 3.28999 1.00022 2.89819 1.03223C2.51239 1.06377 2.27667 1.12345 2.09155 1.21777C1.7153 1.40951 1.40926 1.71554 1.21753 2.0918C1.12321 2.27691 1.06352 2.51264 1.03198 2.89844C0.999971 3.29023 0.999756 3.79168 0.999756 4.5V9C0.999756 9.66054 1.42726 10.2197 2.02026 10.4199C2.00101 10.0277 1.99976 9.56087 1.99976 9V6.5C1.99976 5.80822 1.99978 5.25934 2.03589 4.81738C2.07248 4.36958 2.14876 3.98732 2.3269 3.6377C2.61448 3.07347 3.07323 2.61472 3.63745 2.32715C3.98707 2.14901 4.36934 2.07272 4.81714 2.03613C5.25909 2.00003 5.80797 2 6.49976 2H9.99976C10.1487 2 10.2793 2.00072 10.3962 2.00195C10.173 1.41679 9.60848 1.0002 8.94507 1H4.49976ZM6.49976 8.5C6.7759 8.5 6.99976 8.72386 6.99976 9C6.99976 9.27614 6.7759 9.5 6.49976 9.5H4.99976C4.72361 9.5 4.49976 9.27614 4.49976 9C4.49976 8.72386 4.72361 8.5 4.99976 8.5H6.49976ZM6.41187 4.50781C6.53425 4.51657 6.669 4.53722 6.80542 4.59668C7.07278 4.71333 7.28643 4.92698 7.40308 5.19434C7.46254 5.33075 7.48319 5.46551 7.49194 5.58789C7.50036 5.70564 7.49976 5.84695 7.49976 6C7.49976 6.15305 7.50036 6.29436 7.49194 6.41211C7.48319 6.53449 7.46254 6.66925 7.40308 6.80566C7.28643 7.07302 7.07278 7.28667 6.80542 7.40332C6.669 7.46278 6.53425 7.48343 6.41187 7.49219C6.29411 7.5006 6.15281 7.5 5.99976 7.5C5.8467 7.5 5.7054 7.5006 5.58765 7.49219C5.46527 7.48343 5.33051 7.46278 5.19409 7.40332C4.92673 7.28667 4.71308 7.07302 4.59644 6.80566C4.53698 6.66925 4.51633 6.53449 4.50757 6.41211C4.49916 6.29436 4.49976 6.15305 4.49976 6C4.49976 5.84695 4.49916 5.70564 4.50757 5.58789C4.51633 5.46551 4.53698 5.33075 4.59644 5.19434C4.71308 4.92698 4.92673 4.71333 5.19409 4.59668C5.33051 4.53722 5.46527 4.51657 5.58765 4.50781C5.7054 4.4994 5.8467 4.5 5.99976 4.5C6.15281 4.5 6.29411 4.4994 6.41187 4.50781ZM5.65894 5.50586C5.59013 5.51079 5.5824 5.51754 5.59351 5.5127C5.55738 5.52846 5.52821 5.55762 5.51245 5.59375C5.5173 5.58265 5.51055 5.59038 5.50562 5.65918C5.50034 5.73303 5.49976 5.8326 5.49976 6C5.49976 6.1674 5.50034 6.26697 5.50562 6.34082C5.51055 6.40962 5.5173 6.41735 5.51245 6.40625C5.52821 6.44238 5.55738 6.47154 5.59351 6.4873C5.5824 6.48246 5.59013 6.48921 5.65894 6.49414C5.73279 6.49942 5.83236 6.5 5.99976 6.5C6.16716 6.5 6.26673 6.49942 6.34058 6.49414C6.40938 6.48921 6.41711 6.48246 6.40601 6.4873C6.44214 6.47154 6.4713 6.44238 6.48706 6.40625C6.48222 6.41735 6.48896 6.40962 6.4939 6.34082C6.49917 6.26697 6.49976 6.1674 6.49976 6C6.49976 5.8326 6.49917 5.73303 6.4939 5.65918C6.48896 5.59038 6.48222 5.58265 6.48706 5.59375C6.4713 5.55762 6.44214 5.52846 6.40601 5.5127C6.41711 5.51754 6.40938 5.51079 6.34058 5.50586C6.26673 5.50058 6.16716 5.5 5.99976 5.5C5.83236 5.5 5.73279 5.50058 5.65894 5.50586Z" fill="#242629"/>
</g>
<defs>
<clipPath id="clip0_19835_2275">
<rect width="14" height="14" fill="white"/>
</clipPath>
</defs>
</svg>
