<svg width="14" height="14" viewBox="0 0 14 14" fill="none" xmlns="http://www.w3.org/2000/svg">
<g clip-path="url(#clip0_23400_6209)">
<path d="M10.6902 7.00488C11.0637 7.02495 11.3565 7.26081 11.5007 7.5498L11.5505 7.64844C11.6519 7.85193 11.8778 7.96157 12.1003 7.91504L12.1882 7.89648C12.5071 7.82961 12.8754 7.91548 13.1228 8.19824C13.2102 8.29821 13.2929 8.40317 13.3689 8.5127C13.5761 8.81134 13.5767 9.17635 13.448 9.46484L13.3904 9.59375C13.3 9.79638 13.3543 10.0349 13.5232 10.1787L13.6228 10.2637C13.864 10.469 14.0202 10.7991 13.9617 11.1582C13.9395 11.2939 13.9096 11.4274 13.8728 11.5576C13.7721 11.9138 13.4831 12.1476 13.1716 12.2275L13.0662 12.2549C12.8491 12.3107 12.695 12.5044 12.6902 12.7285L12.6873 12.8613C12.6805 13.1787 12.5231 13.5117 12.2039 13.6924C12.0913 13.7561 11.9741 13.8132 11.8542 13.8643C11.5066 14.0122 11.1368 13.9267 10.8796 13.7266L10.8064 13.6699C10.626 13.5299 10.3735 13.5298 10.1931 13.6699L10.1199 13.7266C9.86265 13.9266 9.4929 14.0123 9.14526 13.8643C9.02538 13.8132 8.90822 13.7561 8.79565 13.6924C8.47656 13.5116 8.31896 13.1786 8.31226 12.8613L8.30933 12.7285C8.30454 12.5042 8.15063 12.3106 7.93335 12.2549L7.82788 12.2275C7.5165 12.1475 7.22738 11.9137 7.12671 11.5576C7.08996 11.4274 7.05997 11.2939 7.03784 11.1582C6.97934 10.7993 7.1356 10.469 7.37671 10.2637L7.47632 10.1787C7.64546 10.0349 7.69961 9.7965 7.60913 9.59375L7.55151 9.46484C7.42291 9.17642 7.42356 8.81126 7.63062 8.5127C7.70661 8.40318 7.78935 8.29821 7.87671 8.19824L7.97437 8.10156C8.2149 7.89645 8.53215 7.83805 8.81128 7.89648L8.89917 7.91504C9.12175 7.96175 9.34748 7.85195 9.44897 7.64844L9.49878 7.5498C9.64296 7.26083 9.93596 7.02509 10.3093 7.00488C10.4358 6.9981 10.5637 6.99811 10.6902 7.00488ZM8.94507 0C10.2217 0.000238723 11.2757 0.937641 11.4656 2.16113C12.5061 2.51468 13.2863 3.41772 13.4626 4.53027C13.5012 4.77332 13.4997 5.0545 13.4998 5.5V6C13.4997 6.27607 13.2758 6.49997 12.9998 6.5C12.7238 6.49983 12.4998 6.27599 12.4998 6V5.5C12.4997 5.01628 12.4984 4.83222 12.4753 4.68652C12.3466 3.87495 11.7359 3.22967 10.9431 3.0498C10.9142 3.04652 10.8863 3.04122 10.8591 3.0332C10.8438 3.03041 10.8286 3.02686 10.8132 3.02441C10.6675 3.00133 10.4835 3 9.99976 3H6.49976C5.79144 3 5.28999 3.00022 4.89819 3.03223C4.51239 3.06377 4.27667 3.12345 4.09155 3.21777C3.7153 3.40951 3.40926 3.71554 3.21753 4.0918C3.12321 4.27691 3.06352 4.51264 3.03198 4.89844C2.99997 5.29023 2.99976 5.79168 2.99976 6.5V9.5C2.99976 10.4695 3.00569 10.8359 3.09741 11.1182C3.29527 11.7269 3.77287 12.2045 4.38159 12.4023C4.6639 12.4941 5.03029 12.5 5.99976 12.5C6.2759 12.5 6.49976 12.7239 6.49976 13C6.49976 13.2761 6.2759 13.5 5.99976 13.5C5.10793 13.5 4.54299 13.5066 4.07202 13.3535C3.17491 13.0618 2.46869 12.365 2.16284 11.4746C0.941647 11.3099 -0.000244141 10.2663 -0.000244141 9V4.5C-0.000244141 3.80822 -0.00021626 3.25934 0.0358887 2.81738C0.0724754 2.36958 0.148762 1.98732 0.326904 1.6377C0.614479 1.07347 1.07323 0.614723 1.63745 0.327148C1.98707 0.149006 2.36934 0.0727196 2.81714 0.0361328C3.25909 2.78783e-05 3.80797 0 4.49976 0H8.94507ZM10.3445 8.09473C10.0401 8.70541 9.3619 9.03363 8.69409 8.89355L8.61206 8.87598C8.56092 8.93571 8.5122 8.99805 8.46655 9.0625L8.52222 9.18652C8.79359 9.79465 8.63197 10.509 8.12476 10.9404L8.02905 11.0205C8.04304 11.1016 8.06057 11.1815 8.08179 11.2598L8.1814 11.2861C8.83342 11.4532 9.29392 12.0341 9.30835 12.707L9.3103 12.833C9.37564 12.8691 9.44291 12.9025 9.51147 12.9326L9.57886 12.8809C10.1205 12.4595 10.879 12.4596 11.4207 12.8809L11.4871 12.9326C11.5557 12.9025 11.6229 12.8691 11.6882 12.833L11.6912 12.707C11.7056 12.0342 12.1663 11.4533 12.8181 11.2861L12.9167 11.2598C12.938 11.1815 12.9555 11.1017 12.9695 11.0205L12.8748 10.9404C12.3678 10.509 12.206 9.79453 12.4773 9.18652L12.532 9.0625C12.4863 8.99804 12.4377 8.93572 12.3865 8.87598L12.3054 8.89355C11.6377 9.03345 10.9593 8.70539 10.655 8.09473L10.6101 8.00391C10.5368 8.00075 10.4627 8.00074 10.3894 8.00391L10.3445 8.09473ZM5.99976 10.5C6.2759 10.4999 6.49962 10.7239 6.49976 11C6.49969 11.2758 6.27656 11.4996 6.00073 11.5H4.99976C4.72385 11.5 4.50009 11.2769 4.49976 11.001C4.49962 10.7248 4.72361 10.5001 4.99976 10.5H5.99976ZM9.79272 9.79297C10.1831 9.40255 10.8163 9.40267 11.2068 9.79297C11.5973 10.1834 11.5973 10.8166 11.2068 11.207C10.8163 11.5973 10.1831 11.5974 9.79272 11.207C9.40249 10.8166 9.40249 10.1834 9.79272 9.79297ZM4.49976 1C3.79144 1 3.28999 1.00022 2.89819 1.03223C2.51239 1.06377 2.27667 1.12345 2.09155 1.21777C1.7153 1.40951 1.40926 1.71554 1.21753 2.0918C1.12321 2.27691 1.06352 2.51264 1.03198 2.89844C0.999971 3.29023 0.999756 3.79168 0.999756 4.5V9C0.999756 9.65619 1.42164 10.2124 2.00854 10.416C2.00043 10.1519 1.99976 9.85134 1.99976 9.5V6.5C1.99976 5.80822 1.99978 5.25934 2.03589 4.81738C2.07248 4.36958 2.14876 3.98732 2.3269 3.6377C2.61448 3.07347 3.07323 2.61472 3.63745 2.32715C3.98707 2.14901 4.36934 2.07272 4.81714 2.03613C5.25909 2.00003 5.80797 2 6.49976 2H9.99976C10.1487 2 10.2793 2.00072 10.3962 2.00195C10.173 1.41679 9.60848 1.0002 8.94507 1H4.49976ZM5.99976 8.5C6.2759 8.5 6.49976 8.72386 6.49976 9C6.49976 9.27614 6.2759 9.5 5.99976 9.5H4.99976C4.72361 9.5 4.49976 9.27614 4.49976 9C4.49976 8.72386 4.72361 8.5 4.99976 8.5H5.99976ZM6.41187 4.50781C6.53425 4.51657 6.669 4.53722 6.80542 4.59668C7.07278 4.71333 7.28643 4.92698 7.40308 5.19434C7.46254 5.33075 7.48319 5.46551 7.49194 5.58789C7.50036 5.70564 7.49976 5.84695 7.49976 6C7.49976 6.15305 7.50036 6.29436 7.49194 6.41211C7.48319 6.53449 7.46254 6.66925 7.40308 6.80566C7.28643 7.07302 7.07278 7.28667 6.80542 7.40332C6.669 7.46278 6.53425 7.48343 6.41187 7.49219C6.29411 7.5006 6.15281 7.5 5.99976 7.5C5.8467 7.5 5.7054 7.5006 5.58765 7.49219C5.46527 7.48343 5.33051 7.46278 5.19409 7.40332C4.92673 7.28667 4.71308 7.07302 4.59644 6.80566C4.53698 6.66925 4.51633 6.53449 4.50757 6.41211C4.49916 6.29436 4.49976 6.15305 4.49976 6C4.49976 5.84695 4.49916 5.70564 4.50757 5.58789C4.51633 5.46551 4.53698 5.33075 4.59644 5.19434C4.71308 4.92698 4.92673 4.71333 5.19409 4.59668C5.33051 4.53722 5.46527 4.51657 5.58765 4.50781C5.7054 4.4994 5.8467 4.5 5.99976 4.5C6.15281 4.5 6.29411 4.4994 6.41187 4.50781ZM5.65894 5.50586C5.59013 5.51079 5.5824 5.51754 5.59351 5.5127C5.55738 5.52846 5.52821 5.55762 5.51245 5.59375C5.5173 5.58265 5.51055 5.59038 5.50562 5.65918C5.50034 5.73303 5.49976 5.8326 5.49976 6C5.49976 6.1674 5.50034 6.26697 5.50562 6.34082C5.51055 6.40962 5.5173 6.41735 5.51245 6.40625C5.52821 6.44238 5.55738 6.47154 5.59351 6.4873C5.5824 6.48246 5.59013 6.48921 5.65894 6.49414C5.73279 6.49942 5.83236 6.5 5.99976 6.5C6.16716 6.5 6.26673 6.49942 6.34058 6.49414C6.40938 6.48921 6.41711 6.48246 6.40601 6.4873C6.44214 6.47154 6.4713 6.44238 6.48706 6.40625C6.48222 6.41735 6.48896 6.40962 6.4939 6.34082C6.49917 6.26697 6.49976 6.1674 6.49976 6C6.49976 5.8326 6.49917 5.73303 6.4939 5.65918C6.48896 5.59038 6.48222 5.58265 6.48706 5.59375C6.4713 5.55762 6.44214 5.52846 6.40601 5.5127C6.41711 5.51754 6.40938 5.51079 6.34058 5.50586C6.26673 5.50058 6.16716 5.5 5.99976 5.5C5.83236 5.5 5.73279 5.50058 5.65894 5.50586Z" fill="#242629"/>
</g>
<defs>
<clipPath id="clip0_23400_6209">
<rect width="14" height="14" fill="white"/>
</clipPath>
</defs>
</svg>
