<svg width="14" height="14" viewBox="0 0 14 14" fill="none" xmlns="http://www.w3.org/2000/svg">
<path d="M10.5 7C10.6626 7 10.7906 7.06747 10.8584 7.10938C10.9376 7.15838 11.0092 7.22046 11.0723 7.2832C11.1996 7.40977 11.3281 7.57876 11.4463 7.77832C11.6404 8.10606 11.8219 8.5425 11.9316 9.06738C12.457 9.17708 12.8937 9.35942 13.2217 9.55371C13.421 9.6718 13.5903 9.79961 13.7168 9.92676C13.7795 9.98987 13.8416 10.0624 13.8906 10.1416C13.9325 10.2094 14 10.3374 14 10.5C14 10.6626 13.9325 10.7906 13.8906 10.8584C13.8416 10.9376 13.7795 11.0092 13.7168 11.0723C13.5902 11.1996 13.4212 11.328 13.2217 11.4463C12.8937 11.6406 12.4569 11.8219 11.9316 11.9316C11.8219 12.4569 11.6406 12.8937 11.4463 13.2217C11.3281 13.4212 11.1996 13.5902 11.0723 13.7168C11.0092 13.7795 10.9376 13.8416 10.8584 13.8906C10.7906 13.9325 10.6626 14 10.5 14C10.3374 14 10.2094 13.9325 10.1416 13.8906C10.0624 13.8416 9.99084 13.7795 9.92773 13.7168C9.80043 13.5902 9.67195 13.4212 9.55371 13.2217C9.35941 12.8937 9.17708 12.457 9.06738 11.9316C8.5425 11.8219 8.10606 11.6405 7.77832 11.4463C7.57876 11.328 7.40976 11.1996 7.2832 11.0723C7.22046 11.0092 7.15838 10.9376 7.10938 10.8584C7.07797 10.8076 7.03274 10.7229 7.01172 10.6152L7 10.5L7.01172 10.3848C7.03272 10.2771 7.07797 10.1924 7.10938 10.1416C7.15838 10.0624 7.22046 9.98987 7.2832 9.92676C7.40972 9.79961 7.57899 9.6718 7.77832 9.55371C8.1061 9.35953 8.54241 9.1771 9.06738 9.06738C9.1771 8.54242 9.35953 8.1061 9.55371 7.77832C9.67195 7.57876 9.80044 7.40977 9.92773 7.2832C9.99084 7.22046 10.0624 7.15838 10.1416 7.10938C10.2094 7.06747 10.3374 7 10.5 7ZM10.4141 8.28809C10.2441 8.57501 10.0684 9.01016 9.99609 9.56445C9.96679 9.78934 9.78934 9.96679 9.56445 9.99609C9.01015 10.0684 8.575 10.2441 8.28809 10.4141C8.23902 10.4431 8.19652 10.4733 8.1582 10.5C8.19652 10.5267 8.23902 10.5569 8.28809 10.5859C8.575 10.7559 9.01016 10.9316 9.56445 11.0039C9.78935 11.0332 9.96679 11.2107 9.99609 11.4355C10.0683 11.9898 10.2441 12.425 10.4141 12.7119C10.443 12.7607 10.4734 12.8027 10.5 12.8408C10.5266 12.8027 10.557 12.7607 10.5859 12.7119C10.7559 12.425 10.9317 11.9898 11.0039 11.4355L11.0215 11.3535C11.078 11.1685 11.2387 11.0296 11.4355 11.0039C11.9898 10.9316 12.425 10.7559 12.7119 10.5859C12.7607 10.557 12.8027 10.5266 12.8408 10.5C12.8027 10.4734 12.7607 10.443 12.7119 10.4141C12.425 10.2441 11.9898 10.0684 11.4355 9.99609C11.2107 9.96679 11.0332 9.78934 11.0039 9.56445C10.9316 9.01016 10.7559 8.57501 10.5859 8.28809C10.5569 8.23902 10.5267 8.19652 10.5 8.1582C10.4733 8.19652 10.4431 8.23902 10.4141 8.28809ZM2 10C2.55228 10 3 10.4477 3 11C3 11.5523 2.55228 12 2 12C1.44772 12 1 11.5523 1 11C1 10.4477 1.44772 10 2 10ZM2 6C2.55228 6 3 6.44772 3 7C3 7.55228 2.55228 8 2 8C1.44772 8 1 7.55228 1 7C1 6.44772 1.44772 6 2 6ZM7.5 6.5C7.77614 6.5 8 6.72386 8 7C7.99993 7.27609 7.7761 7.5 7.5 7.5H5.5C5.2239 7.5 5.00007 7.27609 5 7C5 6.72386 5.22386 6.5 5.5 6.5H7.5ZM2 2C2.55228 2 3 2.44772 3 3C3 3.55228 2.55228 4 2 4C1.44772 4 1 3.55228 1 3C1 2.44772 1.44772 2 2 2ZM12.6006 2.51074C12.8284 2.55733 12.9999 2.75841 13 3C12.9999 3.24165 12.8285 3.44371 12.6006 3.49023L12.5 3.5H5.5C5.2239 3.5 5.00007 3.27608 5 3C5 2.72386 5.22386 2.5 5.5 2.5H12.5L12.6006 2.51074Z" fill="#242629"/>
</svg>
