<svg width="14" height="14" viewBox="0 0 14 14" fill="none" xmlns="http://www.w3.org/2000/svg">
<path d="M12.0001 10.5C12.2762 10.5 12.5001 10.7239 12.5001 11C12.5001 11.2761 12.2762 11.5 12.0001 11.5H2.00006C1.72392 11.5 1.50006 11.2761 1.50006 11C1.50006 10.7239 1.72392 10.5 2.00006 10.5H12.0001ZM12.0001 6.5C12.2762 6.5 12.5001 6.72386 12.5001 7C12.5001 7.27614 12.2762 7.5 12.0001 7.5H2.00006C1.72392 7.5 1.50006 7.27614 1.50006 7C1.50006 6.72386 1.72392 6.5 2.00006 6.5H12.0001ZM12.0001 2.5C12.2762 2.5 12.5001 2.72386 12.5001 3C12.5001 3.27614 12.2762 3.5 12.0001 3.5H2.00006C1.72392 3.5 1.50006 3.27614 1.50006 3C1.50006 2.72386 1.72392 2.5 2.00006 2.5H12.0001Z" fill="#242629"/>
</svg>
