<svg width="14" height="14" viewBox="0 0 14 14" fill="none" xmlns="http://www.w3.org/2000/svg">
<g clip-path="url(#clip0_19835_2803)">
<path opacity="0.4" d="M7 0.5C8.28558 0.5 9.54241 0.881474 10.6113 1.5957C11.6802 2.30993 12.5129 3.32505 13.0049 4.5127C13.4969 5.70041 13.6258 7.00768 13.375 8.26855C13.1241 9.52925 12.5056 10.6878 11.5967 11.5967C10.6878 12.5056 9.52925 13.1241 8.26855 13.375C7.00768 13.6258 5.70041 13.4969 4.5127 13.0049C3.32505 12.5129 2.30993 11.6802 1.5957 10.6113C0.881474 9.54241 0.5 8.28558 0.5 7C0.5 6.72386 0.723858 6.5 1 6.5C1.27614 6.5 1.5 6.72386 1.5 7C1.5 8.08778 1.82243 9.15121 2.42676 10.0557C3.03111 10.9601 3.89051 11.6648 4.89551 12.0811C5.90047 12.4973 7.00639 12.6067 8.07324 12.3945C9.14006 12.1823 10.1195 11.6578 10.8887 10.8887C11.6578 10.1195 12.1823 9.14006 12.3945 8.07324C12.6067 7.00639 12.4973 5.90047 12.0811 4.89551C11.6648 3.89051 10.9601 3.03111 10.0557 2.42676C9.15121 1.82243 8.08778 1.5 7 1.5C6.72386 1.5 6.5 1.27614 6.5 1C6.5 0.723858 6.72386 0.5 7 0.5Z" fill="#242629"/>
</g>
<defs>
<clipPath id="clip0_19835_2803">
<rect width="14" height="14" fill="white"/>
</clipPath>
</defs>
</svg>
