<svg width="14" height="14" viewBox="0 0 14 14" fill="none" xmlns="http://www.w3.org/2000/svg">
<path d="M7 0.5C10.0507 0.5 12.4999 3.03961 12.5 6.14258C12.5 8.12732 11.6778 9.94923 10.6123 11.2715C10.0783 11.9341 9.47388 12.4839 8.8623 12.8711C8.25725 13.2542 7.61028 13.5 7 13.5C6.38972 13.5 5.74275 13.2542 5.1377 12.8711C4.52612 12.4839 3.92166 11.9341 3.3877 11.2715C2.32221 9.94923 1.5 8.12732 1.5 6.14258C1.50015 3.03961 3.94934 0.5 7 0.5ZM7 1.5C4.52799 1.5 2.50015 3.56516 2.5 6.14258C2.5 7.85525 3.21357 9.46259 4.16602 10.6445C4.64101 11.234 5.1662 11.7056 5.67285 12.0264C6.18599 12.3512 6.64627 12.5 7 12.5C7.35373 12.5 7.81401 12.3512 8.32715 12.0264C8.8338 11.7056 9.35899 11.234 9.83398 10.6445C10.7864 9.46259 11.5 7.85525 11.5 6.14258C11.4999 3.56516 9.47201 1.5 7 1.5ZM7 4C8.10457 4 9 4.89543 9 6C9 7.10457 8.10457 8 7 8C5.89543 8 5 7.10457 5 6C5 4.89543 5.89543 4 7 4ZM7 5C6.44772 5 6 5.44772 6 6C6 6.55228 6.44772 7 7 7C7.55228 7 8 6.55228 8 6C8 5.44772 7.55228 5 7 5Z" fill="#242629"/>
</svg>
