<svg width="14" height="14" viewBox="0 0 14 14" fill="none" xmlns="http://www.w3.org/2000/svg">
<path d="M5.50006 1C5.7762 1 6.00006 1.22386 6.00006 1.5C6.00006 1.77614 5.7762 2 5.50006 2H4.00006C2.89549 2 2.00006 2.89543 2.00006 4V10C2.00006 11.1046 2.89549 12 4.00006 12H5.50006C5.7762 12 6.00006 12.2239 6.00006 12.5C6.00006 12.7761 5.7762 13 5.50006 13H4.00006C2.34321 13 1.00006 11.6569 1.00006 10V4C1.00006 2.34315 2.34321 1 4.00006 1H5.50006ZM9.14655 4.14648C9.31741 3.97566 9.58139 3.95388 9.77545 4.08203L9.85358 4.14648L12.3536 6.64648C12.5244 6.81734 12.5462 7.08133 12.418 7.27539L12.3536 7.35352L9.85358 9.85352C9.65833 10.0488 9.34181 10.0487 9.14655 9.85352C8.95128 9.65825 8.95128 9.34175 9.14655 9.14648L10.793 7.5H6.00006C5.72392 7.5 5.50006 7.27614 5.50006 7C5.50006 6.72386 5.72392 6.5 6.00006 6.5H10.793L9.14655 4.85352L9.08209 4.77539C8.95393 4.58131 8.97568 4.31735 9.14655 4.14648Z" fill="#242629"/>
</svg>
