<svg width="14" height="14" viewBox="0 0 14 14" fill="none" xmlns="http://www.w3.org/2000/svg">
<path fill-rule="evenodd" clip-rule="evenodd" d="M12.4999 6C12.4999 5.29168 12.4997 4.79023 12.4677 4.39844C12.4362 4.01264 12.3765 3.77691 12.2822 3.5918C12.0904 3.21554 11.7844 2.90951 11.4081 2.71777C11.223 2.62345 10.9873 2.56377 10.6015 2.53223C10.2097 2.50022 9.70826 2.5 8.99994 2.5H4.99994C4.29164 2.5 3.79017 2.50022 3.39838 2.53223C3.0126 2.56377 2.77684 2.62346 2.59174 2.71777C2.21549 2.90951 1.90944 3.21555 1.71771 3.5918C1.62339 3.77691 1.56371 4.01263 1.53217 4.39844C1.50015 4.79023 1.49994 5.29169 1.49994 6V8C1.49994 8.70831 1.50016 9.20977 1.53217 9.60156C1.5637 9.98736 1.62339 10.2231 1.71771 10.4082C1.90945 10.7845 2.21549 11.0905 2.59174 11.2822C2.77685 11.3765 3.01258 11.4362 3.39838 11.4678C3.79017 11.4998 4.29163 11.5 4.99994 11.5H8.99994C9.70825 11.5 10.2097 11.4998 10.6015 11.4678C10.9873 11.4362 11.223 11.3765 11.4081 11.2822C11.7844 11.0905 12.0904 10.7845 12.2822 10.4082C12.3765 10.2231 12.4362 9.98736 12.4677 9.60156C12.4997 9.20977 12.4999 8.70832 12.4999 8V6ZM13.4999 8C13.4999 8.69178 13.4999 9.24066 13.4638 9.68262C13.4272 10.1304 13.3509 10.5127 13.1728 10.8623C12.8852 11.4265 12.4265 11.8853 11.8622 12.1729C11.5126 12.351 11.1304 12.4273 10.6826 12.4639C10.2406 12.5 9.69172 12.5 8.99994 12.5H4.99994C4.30815 12.5 3.75927 12.5 3.31732 12.4639C2.86952 12.4273 2.48726 12.351 2.13763 12.1729C1.57341 11.8853 1.11466 11.4265 0.827088 10.8623C0.648946 10.5127 0.572657 10.1304 0.536072 9.68262C0.499968 9.24066 0.499936 8.69178 0.499939 8V6C0.499942 5.30823 0.499966 4.75933 0.536072 4.31738C0.572661 3.86958 0.648945 3.48732 0.827088 3.1377C1.11466 2.57347 1.57342 2.11473 2.13763 1.82715C2.48726 1.64901 2.86952 1.57272 3.31732 1.53613C3.75927 1.50003 4.30815 1.5 4.99994 1.5H8.99994C9.69172 1.5 10.2406 1.50003 10.6826 1.53613C11.1304 1.57272 11.5126 1.64901 11.8622 1.82715C12.4265 2.11472 12.8852 2.57347 13.1728 3.1377C13.3509 3.48732 13.4272 3.86958 13.4638 4.31738C13.4999 4.75934 13.4999 5.30822 13.4999 6V8ZM9.00003 6.57117C8.99996 5.41385 8.09137 4.49988 7.00003 4.49988C5.90869 4.49988 5.0001 5.41385 5.00003 6.57117C5.00003 7.3593 5.32957 8.10907 5.77737 8.66492C6.00003 8.94123 6.24275 9.15786 6.46976 9.30164C6.7034 9.44956 6.88728 9.49988 7.00003 9.49988C7.11279 9.49988 7.29666 9.44956 7.5303 9.30164C7.75731 9.15786 8.00003 8.94123 8.22269 8.66492C8.67049 8.10907 9.00003 7.3593 9.00003 6.57117ZM10 6.57117C10 7.6316 9.56204 8.59664 9.00101 9.29285C8.71929 9.64243 8.39649 9.93617 8.06448 10.1464C7.73903 10.3524 7.36925 10.4999 7.00003 10.4999C6.63082 10.4999 6.26103 10.3524 5.93558 10.1464C5.60357 9.93617 5.28077 9.64243 4.99905 9.29285C4.43802 8.59664 4.00003 7.6316 4.00003 6.57117C4.0001 4.8883 5.33004 3.49988 7.00003 3.49988C8.67002 3.49988 9.99996 4.8883 10 6.57117ZM7.00003 7.25C7.41424 7.25 7.75003 6.91422 7.75003 6.5C7.75003 6.08579 7.41424 5.75 7.00003 5.75C6.58582 5.75 6.25003 6.08579 6.25003 6.5C6.25003 6.91422 6.58582 7.25 7.00003 7.25Z" fill="#242629"/>
</svg>
