<svg width="14" height="14" viewBox="0 0 14 14" fill="none" xmlns="http://www.w3.org/2000/svg">
<path d="M10.0996 1C10.5114 1 10.8508 0.999975 11.126 1.02246C11.407 1.04543 11.6656 1.09414 11.9082 1.21777C12.2845 1.40951 12.5905 1.71554 12.7822 2.0918C12.9059 2.33444 12.9546 2.59301 12.9775 2.87402C12.9923 3.05436 12.9963 3.26225 12.998 3.5H13.001V3.75C13.001 3.76011 12.9992 3.77019 12.999 3.78027C12.999 3.81961 13 3.85964 13 3.90039V8.5C13 9.19178 13 9.74066 12.9639 10.1826C12.9273 10.6304 12.851 11.0127 12.6729 11.3623C12.3853 11.9265 11.9265 12.3853 11.3623 12.6729C11.0127 12.851 10.6304 12.9273 10.1826 12.9639C9.74066 13 9.19178 13 8.5 13H5.5C4.80822 13 4.25934 13 3.81738 12.9639C3.36958 12.9273 2.98732 12.851 2.6377 12.6729C2.07347 12.3853 1.61472 11.9265 1.32715 11.3623C1.14901 11.0127 1.07272 10.6304 1.03613 10.1826C1.00003 9.74066 1 9.19178 1 8.5V3.90039C1 3.83579 1.00089 3.77298 1.00098 3.71191V3.5H1.00195C1.0037 3.26225 1.00773 3.05436 1.02246 2.87402C1.04543 2.59301 1.09414 2.33444 1.21777 2.0918C1.40951 1.71554 1.71554 1.40951 2.0918 1.21777C2.33444 1.09414 2.59301 1.04543 2.87402 1.02246C3.14924 0.999975 3.4886 1 3.90039 1H10.0996ZM6.90137 9C6.64815 9 6.48803 9.00088 6.36719 9.01074C6.25283 9.02009 6.21762 9.03515 6.20605 9.04102C6.13545 9.07699 6.07797 9.13447 6.04199 9.20508C6.03613 9.21664 6.02107 9.25185 6.01172 9.36621C6.00186 9.48705 6.00098 9.64717 6.00098 9.90039V12H8.00098V9.90039C8.00098 9.6472 8.00009 9.48705 7.99023 9.36621C7.98093 9.25236 7.96588 9.2168 7.95996 9.20508C7.92403 9.13455 7.8664 9.077 7.7959 9.04102C7.78442 9.03518 7.74921 9.02011 7.63477 9.01074C7.51393 9.00087 7.35381 9 7.10059 9H6.90137ZM5.0625 5.07812C4.65303 5.63566 3.99574 5.99994 3.25098 6C2.78785 6 2.35779 5.85902 2 5.61914V8.5C2 9.20832 2.00022 9.70977 2.03223 10.1016C2.06377 10.4874 2.12345 10.7231 2.21777 10.9082C2.40951 11.2845 2.71554 11.5905 3.0918 11.7822C3.27691 11.8765 3.51264 11.9362 3.89844 11.9678C4.1912 11.9917 4.5452 11.9955 5.00098 11.9971V9.90039C5.00098 9.66379 5.00072 9.45609 5.01465 9.28516C5.02909 9.1084 5.06092 8.92672 5.15039 8.75098C5.28224 8.49221 5.49319 8.28126 5.75195 8.14941C5.92769 8.05995 6.10938 8.02811 6.28613 8.01367C6.45707 7.99974 6.66476 8 6.90137 8H7.10059C7.33719 8 7.5449 7.99973 7.71582 8.01367C7.89254 8.02812 8.0743 8.05995 8.25 8.14941C8.50866 8.28127 8.71975 8.49229 8.85156 8.75098C8.94097 8.92667 8.97287 9.10845 8.9873 9.28516C9.00123 9.45608 9.00098 9.6638 9.00098 9.90039V11.9971C9.45581 11.9955 9.80922 11.9917 10.1016 11.9678C10.4874 11.9362 10.7231 11.8765 10.9082 11.7822C11.2845 11.5905 11.5905 11.2845 11.7822 10.9082C11.8765 10.7231 11.9362 10.4874 11.9678 10.1016C11.9998 9.70977 12 9.20832 12 8.5V5.62012C11.6426 5.85933 11.2134 5.99996 10.751 6C10.0058 6 9.34696 5.63614 8.9375 5.07812C8.47911 5.63993 7.78259 5.99994 7.00098 6C6.21893 6 5.52092 5.64042 5.0625 5.07812ZM3.90039 2C3.4721 2 3.18012 2.00017 2.95508 2.01855C2.73615 2.03647 2.62405 2.06956 2.5459 2.10938C2.35793 2.20521 2.20521 2.35793 2.10938 2.5459C2.06956 2.62405 2.03647 2.73615 2.01855 2.95508C2.00656 3.10184 2.00248 3.27707 2.00098 3.5V3.75C2.00108 4.44027 2.56069 5 3.25098 5C3.94118 4.99989 4.50087 4.4402 4.50098 3.75V2H3.90039ZM5.50098 3.5C5.50108 4.32834 6.17261 5 7.00098 5C7.82925 4.99989 8.50087 4.32827 8.50098 3.5V2H5.50098V3.5ZM9.50098 3.75C9.50108 4.44027 10.0607 5 10.751 5C11.4324 4.9999 11.9849 4.45438 11.999 3.77637C11.9988 3.41458 11.998 3.1577 11.9814 2.95508C11.9635 2.73615 11.9304 2.62405 11.8906 2.5459C11.7948 2.35793 11.6421 2.20521 11.4541 2.10938C11.376 2.06956 11.2639 2.03647 11.0449 2.01855C10.8199 2.00017 10.5279 2 10.0996 2H9.50098V3.75Z" fill="#242629"/>
</svg>
