<svg width="14" height="14" viewBox="0 0 14 14" fill="none" xmlns="http://www.w3.org/2000/svg">
<path d="M4.64648 8.64648C4.84174 8.45123 5.15825 8.45125 5.35352 8.64648C5.54878 8.84175 5.54878 9.15825 5.35352 9.35352L3.20703 11.5H5C5.27614 11.5 5.5 11.7239 5.5 12C5.49998 12.2761 5.27613 12.5 5 12.5H2C1.72391 12.4999 1.50002 12.2761 1.5 12V9.5C1.5 9.22389 1.7239 9.00005 2 9C2.27614 9 2.5 9.22386 2.5 9.5V10.793L4.64648 8.64648ZM8.64648 8.64648C8.84173 8.45124 9.15825 8.45126 9.35352 8.64648L11.5 10.793V9.5C11.5 9.22389 11.7239 9.00005 12 9C12.2761 9 12.5 9.22386 12.5 9.5V12C12.5 12.1326 12.4473 12.2598 12.3535 12.3535C12.2598 12.4472 12.1326 12.5 12 12.5H9.5C9.22391 12.4999 9.00001 12.2761 9 12C9 11.7239 9.2239 11.5001 9.5 11.5H10.793L8.64648 9.35352C8.45128 9.15827 8.45129 8.84174 8.64648 8.64648ZM4.5 1.5C4.77614 1.5 5 1.72386 5 2C5 2.27614 4.77614 2.5 4.5 2.5H3.20703L5.35352 4.64648C5.54878 4.84174 5.54877 5.15825 5.35352 5.35352C5.15825 5.54873 4.84173 5.54876 4.64648 5.35352L2.5 3.20703V4.5L2.49023 4.60059C2.4437 4.82854 2.2417 4.99999 2 5C1.72391 4.99995 1.50001 4.7761 1.5 4.5V2C1.5 1.86742 1.55275 1.74025 1.64648 1.64648C1.74023 1.55277 1.86745 1.50003 2 1.5H4.5ZM12 1.5C12.2761 1.5 12.5 1.72387 12.5 2V4.5C12.5 4.77613 12.2761 5 12 5C11.7239 4.99995 11.5 4.7761 11.5 4.5V3.20703L9.35352 5.35352C9.15825 5.54872 8.84173 5.54876 8.64648 5.35352C8.45128 5.15827 8.45129 4.84174 8.64648 4.64648L10.793 2.5H9.5C9.22391 2.49995 9.00001 2.2761 9 2C9 1.75832 9.1715 1.55633 9.39941 1.50977L9.5 1.5H12Z" fill="#242629"/>
</svg>
