<svg width="14" height="14" viewBox="0 0 14 14" fill="none" xmlns="http://www.w3.org/2000/svg">
<path d="M7.5 1.5C7.59943 1.5 7.69582 1.52964 7.77734 1.58398L7.85352 1.64648L10.8535 4.64648C11.0488 4.84175 11.0488 5.15825 10.8535 5.35352C10.6583 5.54876 10.3417 5.54877 10.1465 5.35352L8 3.20703V8.5C8 9.19178 7.99997 9.74066 7.96387 10.1826C7.92728 10.6304 7.85099 11.0127 7.67285 11.3623C7.38528 11.9265 6.92652 12.3853 6.3623 12.6729C6.01269 12.851 5.63041 12.9273 5.18262 12.9639C4.74067 13 4.19177 13 3.5 13H2.5C2.22387 13 2 12.7761 2 12.5C2 12.2239 2.22387 12 2.5 12H3.5C4.2083 12 4.70977 11.9998 5.10156 11.9678C5.48735 11.9362 5.72309 11.8765 5.9082 11.7822C6.28445 11.5905 6.59049 11.2845 6.78223 10.9082C6.87655 10.7231 6.93623 10.4874 6.96777 10.1016C6.99978 9.70977 7 9.20832 7 8.5V3.20703L4.85352 5.35352L4.77539 5.41797C4.58131 5.54612 4.31734 5.52437 4.14648 5.35352C3.97564 5.18266 3.95388 4.91868 4.08203 4.72461L4.14648 4.64648L7.14648 1.64648C7.24025 1.55272 7.3674 1.50001 7.5 1.5ZM11.5 12C11.7761 12 12 12.2239 12 12.5C12 12.7761 11.7761 13 11.5 13H9C8.72386 13 8.5 12.7761 8.5 12.5C8.5 12.2239 8.72386 12 9 12H11.5Z" fill="#242629"/>
</svg>
