<svg width="14" height="14" viewBox="0 0 14 14" fill="none" xmlns="http://www.w3.org/2000/svg">
<path d="M10.5 11.5C10.7761 11.5 11 11.7239 11 12C11 12.2761 10.7761 12.5 10.5 12.5H3.5C3.22388 12.5 3 12.2761 3 12C3.00002 11.7239 3.22389 11.5 3.5 11.5H10.5ZM9.5 2.5C10.3915 2.5 10.956 2.49362 11.4268 2.64648C12.3401 2.94323 13.0568 3.65995 13.3535 4.57324C13.5064 5.04404 13.5 5.60853 13.5 6.5C13.5 7.39148 13.5064 7.95595 13.3535 8.42676C13.0568 9.34007 12.3401 10.0568 11.4268 10.3535C10.956 10.5064 10.3915 10.5 9.5 10.5H4.5C3.60853 10.5 3.04404 10.5064 2.57324 10.3535C1.65995 10.0568 0.943233 9.34006 0.646484 8.42676C0.493623 7.95596 0.5 7.39146 0.5 6.5C0.5 5.60853 0.49361 5.04404 0.646484 4.57324C0.94324 3.65995 1.65995 2.94324 2.57324 2.64648C3.04404 2.49361 3.60853 2.5 4.5 2.5H9.5ZM4.5 3.5C3.53047 3.5 3.16411 3.50594 2.88184 3.59766C2.27302 3.7955 1.7955 4.27302 1.59766 4.88184C1.50594 5.16411 1.5 5.53047 1.5 6.5C1.5 7.4695 1.50595 7.83589 1.59766 8.11816C1.79549 8.72698 2.27302 9.20449 2.88184 9.40234C3.16411 9.49406 3.53047 9.5 4.5 9.5H9.5C10.4695 9.5 10.8359 9.49405 11.1182 9.40234C11.727 9.2045 12.2045 8.727 12.4023 8.11816C12.4941 7.83589 12.5 7.46953 12.5 6.5C12.5 5.53047 12.4941 5.16411 12.4023 4.88184C12.2045 4.27302 11.727 3.79549 11.1182 3.59766C10.8359 3.50595 10.4695 3.5 9.5 3.5H4.5Z" fill="#242629"/>
</svg>
