<svg width="14" height="14" viewBox="0 0 14 14" fill="none" xmlns="http://www.w3.org/2000/svg">
<path d="M8.5 1C9.19178 1 9.74066 1.00003 10.1826 1.03613C10.6304 1.07272 11.0127 1.14901 11.3623 1.32715C11.9265 1.61472 12.3853 2.07347 12.6729 2.6377C12.851 2.98732 12.9273 3.36958 12.9639 3.81738C13 4.25934 13 4.80822 13 5.5V8.5C13 9.19178 13 9.74066 12.9639 10.1826C12.9273 10.6304 12.851 11.0127 12.6729 11.3623C12.3853 11.9265 11.9265 12.3853 11.3623 12.6729C11.0127 12.851 10.6304 12.9273 10.1826 12.9639C9.74066 13 9.19178 13 8.5 13H5.5C4.80822 13 4.25934 13 3.81738 12.9639C3.36958 12.9273 2.98732 12.851 2.6377 12.6729C2.07347 12.3853 1.61472 11.9265 1.32715 11.3623C1.14901 11.0127 1.07272 10.6304 1.03613 10.1826C1.00003 9.74066 1 9.19178 1 8.5V5.5C1 4.80822 1.00003 4.25934 1.03613 3.81738C1.07272 3.36958 1.14901 2.98732 1.32715 2.6377C1.61472 2.07347 2.07347 1.61472 2.6377 1.32715C2.98732 1.14901 3.36958 1.07272 3.81738 1.03613C4.25934 1.00003 4.80822 1 5.5 1H8.5ZM5.5 2C4.79168 2 4.29023 2.00022 3.89844 2.03223C3.51264 2.06377 3.27691 2.12345 3.0918 2.21777C2.71554 2.40951 2.40951 2.71554 2.21777 3.0918C2.12345 3.27691 2.06377 3.51264 2.03223 3.89844C2.00022 4.29023 2 4.79168 2 5.5V8.5C2 9.20832 2.00022 9.70977 2.03223 10.1016C2.06377 10.4874 2.12345 10.7231 2.21777 10.9082C2.40951 11.2845 2.71554 11.5905 3.0918 11.7822C3.27691 11.8765 3.51264 11.9362 3.89844 11.9678C4.29023 11.9998 4.79168 12 5.5 12H8.5C9.20832 12 9.70977 11.9998 10.1016 11.9678C10.4874 11.9362 10.7231 11.8765 10.9082 11.7822C11.2845 11.5905 11.5905 11.2845 11.7822 10.9082C11.8765 10.7231 11.9362 10.4874 11.9678 10.1016C11.9998 9.70977 12 9.20832 12 8.5V5.5C12 4.79168 11.9998 4.29023 11.9678 3.89844C11.9362 3.51264 11.8765 3.27691 11.7822 3.0918C11.5905 2.71554 11.2845 2.40951 10.9082 2.21777C10.7231 2.12345 10.4874 2.06377 10.1016 2.03223C9.70977 2.00022 9.20832 2 8.5 2H5.5ZM8.90039 6C9.172 6 9.40591 5.99996 9.59766 6.01562C9.79513 6.03177 9.99166 6.06688 10.1807 6.16309C10.4629 6.3069 10.6931 6.53709 10.8369 6.81934C10.9331 7.00834 10.9682 7.20487 10.9844 7.40234C11 7.59409 11 7.828 11 8.09961V8.90039C11 9.172 11 9.40591 10.9844 9.59766C10.9682 9.79513 10.9331 9.99166 10.8369 10.1807C10.6931 10.4629 10.4629 10.6931 10.1807 10.8369C9.99166 10.9331 9.79513 10.9682 9.59766 10.9844C9.40591 11 9.172 11 8.90039 11H8.09961C7.828 11 7.59409 11 7.40234 10.9844C7.20487 10.9682 7.00834 10.9331 6.81934 10.8369C6.53709 10.6931 6.3069 10.4629 6.16309 10.1807C6.06688 9.99166 6.03177 9.79513 6.01562 9.59766C5.99996 9.40591 6 9.172 6 8.90039V8.09961C6 7.828 5.99996 7.59409 6.01562 7.40234C6.03177 7.20487 6.06688 7.00834 6.16309 6.81934C6.3069 6.53709 6.53709 6.3069 6.81934 6.16309C7.00834 6.06688 7.20487 6.03177 7.40234 6.01562C7.59409 5.99996 7.828 6 8.09961 6H8.90039ZM8.09961 7C7.81188 7 7.62592 7.00019 7.48438 7.01172C7.34903 7.02278 7.29825 7.04209 7.27344 7.05469C7.17936 7.10262 7.10262 7.17936 7.05469 7.27344C7.04209 7.29825 7.02278 7.34903 7.01172 7.48438C7.00019 7.62592 7 7.81188 7 8.09961V8.90039C7 9.18812 7.00019 9.37408 7.01172 9.51562C7.02278 9.65097 7.04209 9.70175 7.05469 9.72656C7.10262 9.82064 7.17936 9.89738 7.27344 9.94531C7.29825 9.95791 7.34903 9.97722 7.48438 9.98828C7.62592 9.99981 7.81188 10 8.09961 10H8.90039C9.18812 10 9.37408 9.99981 9.51562 9.98828C9.65097 9.97722 9.70175 9.95791 9.72656 9.94531C9.82064 9.89738 9.89738 9.82064 9.94531 9.72656C9.95791 9.70175 9.97722 9.65097 9.98828 9.51562C9.99981 9.37408 10 9.18812 10 8.90039V8.09961C10 7.81188 9.99981 7.62592 9.98828 7.48438C9.97722 7.34903 9.95791 7.29825 9.94531 7.27344C9.89738 7.17936 9.82064 7.10262 9.72656 7.05469C9.70175 7.04209 9.65097 7.02278 9.51562 7.01172C9.37408 7.00019 9.18812 7 8.90039 7H8.09961Z" fill="#242629"/>
</svg>
