<svg width="14" height="14" viewBox="0 0 14 14" fill="none" xmlns="http://www.w3.org/2000/svg">
<path d="M9 2.5C9.69178 2.5 10.2407 2.50003 10.6826 2.53613C11.1304 2.57272 11.5127 2.64901 11.8623 2.82715C12.4265 3.11472 12.8853 3.57347 13.1729 4.1377C13.351 4.48732 13.4273 4.86958 13.4639 5.31738C13.5 5.75934 13.5 6.30822 13.5 7C13.5 7.69178 13.5 8.24066 13.4639 8.68262C13.4273 9.13042 13.351 9.51268 13.1729 9.8623C12.8853 10.4265 12.4265 10.8853 11.8623 11.1729C11.5127 11.351 11.1304 11.4273 10.6826 11.4639C10.2407 11.5 9.69178 11.5 9 11.5H5C4.30822 11.5 3.75934 11.5 3.31738 11.4639C2.86958 11.4273 2.48732 11.351 2.1377 11.1729C1.57347 10.8853 1.11472 10.4265 0.827148 9.8623C0.649006 9.51268 0.57272 9.13042 0.536133 8.68262C0.500028 8.24066 0.5 7.69178 0.5 7C0.5 6.30822 0.500028 5.75934 0.536133 5.31738C0.57272 4.86958 0.649006 4.48732 0.827148 4.1377C1.11472 3.57347 1.57347 3.11472 2.1377 2.82715C2.48732 2.64901 2.86958 2.57272 3.31738 2.53613C3.75934 2.50003 4.30822 2.5 5 2.5H9ZM5 3.5C4.29168 3.5 3.79023 3.50022 3.39844 3.53223C3.01264 3.56377 2.77691 3.62345 2.5918 3.71777C2.21554 3.90951 1.90951 4.21554 1.71777 4.5918C1.62345 4.77691 1.56377 5.01264 1.53223 5.39844C1.50022 5.79023 1.5 6.29168 1.5 7C1.5 7.70832 1.50022 8.20977 1.53223 8.60156C1.56377 8.98736 1.62345 9.22309 1.71777 9.4082C1.90951 9.78446 2.21554 10.0905 2.5918 10.2822C2.77691 10.3765 3.01264 10.4362 3.39844 10.4678C3.79023 10.4998 4.29168 10.5 5 10.5H9C9.70832 10.5 10.2098 10.4998 10.6016 10.4678C10.9874 10.4362 11.2231 10.3765 11.4082 10.2822C11.7845 10.0905 12.0905 9.78446 12.2822 9.4082C12.3765 9.22309 12.4362 8.98736 12.4678 8.60156C12.4998 8.20977 12.5 7.70832 12.5 7C12.5 6.29168 12.4998 5.79023 12.4678 5.39844C12.4362 5.01264 12.3765 4.77691 12.2822 4.5918C12.0905 4.21554 11.7845 3.90951 11.4082 3.71777C11.2231 3.62345 10.9874 3.56377 10.6016 3.53223C10.2098 3.50022 9.70832 3.5 9 3.5H5ZM5.32031 4.5C5.60595 4.5 5.85068 4.49928 6.05078 4.51562C6.25655 4.53246 6.459 4.57 6.65332 4.66895C6.94497 4.81755 7.18245 5.05503 7.33105 5.34668C7.43 5.541 7.46754 5.74345 7.48438 5.94922C7.50072 6.14932 7.5 6.39404 7.5 6.67969V7.32031C7.5 7.60596 7.50072 7.85068 7.48438 8.05078C7.46754 8.25655 7.43 8.459 7.33105 8.65332C7.18245 8.94497 6.94497 9.18245 6.65332 9.33105C6.459 9.43 6.25655 9.46754 6.05078 9.48438C5.85068 9.50072 5.60595 9.5 5.32031 9.5H4.67969C4.39404 9.5 4.14932 9.50072 3.94922 9.48438C3.74345 9.46754 3.541 9.43 3.34668 9.33105C3.05503 9.18245 2.81755 8.94497 2.66895 8.65332C2.57 8.459 2.53246 8.25655 2.51562 8.05078C2.49928 7.85068 2.5 7.60596 2.5 7.32031V6.67969C2.5 6.39404 2.49928 6.14932 2.51562 5.94922C2.53246 5.74345 2.57 5.541 2.66895 5.34668C2.81755 5.05503 3.05503 4.81755 3.34668 4.66895C3.541 4.57 3.74345 4.53246 3.94922 4.51562C4.14932 4.49928 4.39404 4.5 4.67969 4.5H5.32031ZM4.67969 5.5C4.3777 5.5 4.18118 5.50046 4.03125 5.5127C3.88792 5.52441 3.83098 5.54428 3.80078 5.55957C3.69729 5.6123 3.6123 5.69729 3.55957 5.80078C3.54428 5.83098 3.52441 5.88792 3.5127 6.03125C3.50046 6.18118 3.5 6.3777 3.5 6.67969V7.32031C3.5 7.6223 3.50046 7.81882 3.5127 7.96875C3.52441 8.11208 3.54428 8.16901 3.55957 8.19922C3.6123 8.30271 3.69729 8.3877 3.80078 8.44043C3.83098 8.45572 3.88792 8.47559 4.03125 8.4873C4.18118 8.49954 4.3777 8.5 4.67969 8.5H5.32031C5.6223 8.5 5.81882 8.49954 5.96875 8.4873C6.11208 8.47559 6.16902 8.45572 6.19922 8.44043C6.30271 8.3877 6.3877 8.30271 6.44043 8.19922C6.45572 8.16901 6.47559 8.11207 6.4873 7.96875C6.49954 7.81882 6.5 7.6223 6.5 7.32031V6.67969C6.5 6.3777 6.49954 6.18118 6.4873 6.03125C6.47559 5.88793 6.45572 5.83099 6.44043 5.80078C6.3877 5.69729 6.30271 5.6123 6.19922 5.55957C6.16902 5.54428 6.11208 5.52441 5.96875 5.5127C5.81882 5.50046 5.6223 5.5 5.32031 5.5H4.67969ZM11 7.5C11.2761 7.5 11.5 7.72386 11.5 8C11.5 8.27614 11.2761 8.5 11 8.5H9C8.72386 8.5 8.5 8.27614 8.5 8C8.5 7.72386 8.72386 7.5 9 7.5H11ZM11 5.5C11.2761 5.5 11.5 5.72386 11.5 6C11.5 6.27614 11.2761 6.5 11 6.5H9C8.72386 6.5 8.5 6.27614 8.5 6C8.5 5.72386 8.72386 5.5 9 5.5H11Z" fill="#242629"/>
</svg>
