<svg width="14" height="14" viewBox="0 0 14 14" fill="none" xmlns="http://www.w3.org/2000/svg">
<path d="M7.49994 0.5C8.19172 0.5 8.7406 0.500028 9.18256 0.536133C9.63036 0.57272 10.0126 0.649006 10.3622 0.827148C10.9265 1.11472 11.3852 1.57347 11.6728 2.1377C11.8509 2.48732 11.9272 2.86958 11.9638 3.31738C11.9999 3.75934 11.9999 4.30822 11.9999 5V9C11.9999 9.69178 11.9999 10.2407 11.9638 10.6826C11.9272 11.1304 11.8509 11.5127 11.6728 11.8623C11.3852 12.4265 10.9265 12.8853 10.3622 13.1729C10.0126 13.351 9.63036 13.4273 9.18256 13.4639C8.7406 13.5 8.19172 13.5 7.49994 13.5H6.49994C5.80816 13.5 5.25928 13.5 4.81732 13.4639C4.36952 13.4273 3.98726 13.351 3.63763 13.1729C3.07341 12.8853 2.61466 12.4265 2.32709 11.8623C2.14895 11.5127 2.07266 11.1304 2.03607 10.6826C1.99997 10.2407 1.99994 9.69178 1.99994 9V5C1.99994 4.30822 1.99997 3.75934 2.03607 3.31738C2.07266 2.86958 2.14895 2.48732 2.32709 2.1377C2.61466 1.57347 3.07341 1.11472 3.63763 0.827148C3.98726 0.649006 4.36952 0.57272 4.81732 0.536133C5.25928 0.500028 5.80816 0.5 6.49994 0.5H7.49994ZM6.49994 1.5C5.79162 1.5 5.29017 1.50022 4.89838 1.53223C4.51258 1.56377 4.27685 1.62345 4.09174 1.71777C3.71548 1.90951 3.40945 2.21554 3.21771 2.5918C3.12339 2.77691 3.06371 3.01264 3.03217 3.39844C3.00015 3.79023 2.99994 4.29168 2.99994 5V9C2.99994 9.70832 3.00015 10.2098 3.03217 10.6016C3.06371 10.9874 3.12339 11.2231 3.21771 11.4082C3.40945 11.7845 3.71548 12.0905 4.09174 12.2822C4.27685 12.3765 4.51258 12.4362 4.89838 12.4678C5.29017 12.4998 5.79162 12.5 6.49994 12.5H7.49994C8.20825 12.5 8.7097 12.4998 9.1015 12.4678C9.4873 12.4362 9.72303 12.3765 9.90814 12.2822C10.2844 12.0905 10.5904 11.7845 10.7822 11.4082C10.8765 11.2231 10.9362 10.9874 10.9677 10.6016C10.9997 10.2098 10.9999 9.70832 10.9999 9V5C10.9999 4.29168 10.9997 3.79023 10.9677 3.39844C10.9362 3.01264 10.8765 2.77691 10.7822 2.5918C10.5904 2.21554 10.2844 1.90951 9.90814 1.71777C9.72303 1.62345 9.4873 1.56377 9.1015 1.53223C8.7097 1.50022 8.20826 1.5 7.49994 1.5H6.49994ZM7.0058 10.4111C7.3094 10.4113 7.55552 10.6573 7.5556 10.9609C7.5556 11.2646 7.30945 11.5106 7.0058 11.5107C6.70204 11.5107 6.45599 11.2647 6.45599 10.9609C6.45607 10.6572 6.70209 10.4111 7.0058 10.4111ZM8.65619 2.50977C8.88405 2.55637 9.0556 2.75836 9.0556 3C9.05558 3.24162 8.88404 3.44363 8.65619 3.49023L8.5556 3.5H5.44427C5.16824 3.49989 4.9443 3.27605 4.94427 3C4.94427 2.72392 5.16822 2.50011 5.44427 2.5H8.5556L8.65619 2.50977Z" fill="#242629"/>
</svg>
