<svg width="14" height="14" viewBox="0 0 14 14" fill="none" xmlns="http://www.w3.org/2000/svg">
<path d="M3.16504 2.02051C3.39095 2.02204 3.59017 2.11015 3.74219 2.23145C4.03987 2.46901 4.22124 2.88636 4.12598 3.32422C4.04363 3.70256 4 4.09598 4 4.5C4.00002 7.53755 6.46245 10 9.5 10C9.90404 10 10.2974 9.95638 10.6758 9.87402C11.1136 9.77877 11.531 9.96015 11.7686 10.2578C11.8898 10.4098 11.978 10.6091 11.9795 10.835C11.981 11.0689 11.8896 11.2903 11.7227 11.4668C10.5385 12.7184 8.85997 13.5 7 13.5C3.41016 13.5 0.500022 10.5898 0.5 7C0.500012 5.14005 1.28162 3.46152 2.5332 2.27734L2.60156 2.21875C2.76531 2.08928 2.96024 2.01916 3.16504 2.02051ZM3.14941 3.07422C2.13136 4.07289 1.50001 5.46208 1.5 7C1.50002 10.0375 3.96245 12.5 7 12.5C8.53794 12.5 9.92612 11.8677 10.9248 10.8496C10.9132 10.8481 10.9012 10.8489 10.8887 10.8516C10.4409 10.949 9.976 11 9.5 11C5.91016 11 3.00002 8.08983 3 4.5C3 4.02402 3.05097 3.5591 3.14844 3.11133C3.15122 3.0984 3.15111 3.08613 3.14941 3.07422ZM10 1C10.2383 1 10.4435 1.16863 10.4902 1.40234L10.6182 2.04004C10.8076 2.98735 11.5257 3.74123 12.4629 3.97559L12.6211 4.01465C12.8437 4.07029 13 4.27057 13 4.5C13 4.72943 12.8437 4.92971 12.6211 4.98535L12.4629 5.02441C11.5257 5.25877 10.8076 6.01265 10.6182 6.95996L10.4902 7.59766C10.4435 7.83137 10.2383 8 10 8C9.76166 8 9.55651 7.83137 9.50977 7.59766L9.38184 6.95996C9.19237 6.01265 8.47432 5.25877 7.53711 5.02441L7.37891 4.98535C7.15632 4.92971 7 4.72943 7 4.5C7 4.27057 7.15632 4.07029 7.37891 4.01465L7.53711 3.97559C8.47432 3.74123 9.19237 2.98735 9.38184 2.04004L9.50977 1.40234L9.53418 1.31738C9.60805 1.12866 9.79148 1 10 1ZM10 3.22754C9.71673 3.74571 9.30705 4.18303 8.80957 4.5C9.30681 4.81681 9.71674 5.25364 10 5.77148C10.2831 5.25388 10.6925 4.81678 11.1895 4.5C10.6923 4.18307 10.2831 3.74547 10 3.22754Z" fill="#242629"/>
</svg>
