<svg width="14" height="14" viewBox="0 0 14 14" fill="none" xmlns="http://www.w3.org/2000/svg">
<path d="M9 1.5C9.69178 1.5 10.2407 1.50003 10.6826 1.53613C11.1304 1.57272 11.5127 1.64901 11.8623 1.82715C12.4265 2.11472 12.8853 2.57347 13.1729 3.1377C13.351 3.48732 13.4273 3.86958 13.4639 4.31738C13.5 4.75934 13.5 5.30822 13.5 6V8C13.5 8.69178 13.5 9.24066 13.4639 9.68262C13.4273 10.1304 13.351 10.5127 13.1729 10.8623C12.8853 11.4265 12.4265 11.8853 11.8623 12.1729C11.5127 12.351 11.1304 12.4273 10.6826 12.4639C10.2407 12.5 9.69178 12.5 9 12.5H5C4.30822 12.5 3.75934 12.5 3.31738 12.4639C2.86958 12.4273 2.48732 12.351 2.1377 12.1729C1.57347 11.8853 1.11472 11.4265 0.827148 10.8623C0.649006 10.5127 0.57272 10.1304 0.536133 9.68262C0.500028 9.24066 0.5 8.69178 0.5 8V6C0.5 5.30822 0.500028 4.75934 0.536133 4.31738C0.57272 3.86958 0.649006 3.48732 0.827148 3.1377C1.11472 2.57347 1.57347 2.11472 2.1377 1.82715C2.48732 1.64901 2.86958 1.57272 3.31738 1.53613C3.75934 1.50003 4.30822 1.5 5 1.5H9ZM5 2.5C4.29168 2.5 3.79023 2.50022 3.39844 2.53223C3.01264 2.56377 2.77691 2.62345 2.5918 2.71777C2.21554 2.90951 1.90951 3.21554 1.71777 3.5918C1.62345 3.77691 1.56377 4.01264 1.53223 4.39844C1.50022 4.79023 1.5 5.29168 1.5 6V8C1.5 8.70832 1.50022 9.20977 1.53223 9.60156C1.56377 9.98736 1.62345 10.2231 1.71777 10.4082C1.90951 10.7845 2.21554 11.0905 2.5918 11.2822C2.77691 11.3765 3.01264 11.4362 3.39844 11.4678C3.79023 11.4998 4.29168 11.5 5 11.5H9C9.70832 11.5 10.2098 11.4998 10.6016 11.4678C10.9874 11.4362 11.2231 11.3765 11.4082 11.2822C11.7845 11.0905 12.0905 10.7845 12.2822 10.4082C12.3765 10.2231 12.4362 9.98736 12.4678 9.60156C12.4998 9.20977 12.5 8.70832 12.5 8V6C12.5 5.29168 12.4998 4.79023 12.4678 4.39844C12.4362 4.01264 12.3765 3.77691 12.2822 3.5918C12.0905 3.21554 11.7845 2.90951 11.4082 2.71777C11.2231 2.62345 10.9874 2.56377 10.6016 2.53223C10.2098 2.50022 9.70832 2.5 9 2.5H5ZM5.5752 7C6.63815 7 7.5 7.86185 7.5 8.9248C7.49992 9.51858 7.01858 9.99992 6.4248 10H3.5752C2.98142 9.99992 2.50008 9.51858 2.5 8.9248C2.5 7.86185 3.36185 7 4.4248 7H5.5752ZM4.4248 8C3.91413 8 3.5 8.41413 3.5 8.9248C3.50008 8.9663 3.5337 8.99992 3.5752 9H6.4248C6.4663 8.99992 6.49992 8.9663 6.5 8.9248C6.5 8.41413 6.08587 8 5.5752 8H4.4248ZM11 7.5C11.2761 7.5 11.5 7.72386 11.5 8C11.5 8.27614 11.2761 8.5 11 8.5H9C8.72386 8.5 8.5 8.27614 8.5 8C8.5 7.72386 8.72386 7.5 9 7.5H11ZM5 3.5C5.82843 3.5 6.5 4.17157 6.5 5C6.5 5.82843 5.82843 6.5 5 6.5C4.17157 6.5 3.5 5.82843 3.5 5C3.5 4.17157 4.17157 3.5 5 3.5ZM11 5.5C11.2761 5.5 11.5 5.72386 11.5 6C11.5 6.27614 11.2761 6.5 11 6.5H9C8.72386 6.5 8.5 6.27614 8.5 6C8.5 5.72386 8.72386 5.5 9 5.5H11ZM5 4.5C4.72386 4.5 4.5 4.72386 4.5 5C4.5 5.27614 4.72386 5.5 5 5.5C5.27614 5.5 5.5 5.27614 5.5 5C5.5 4.72386 5.27614 4.5 5 4.5Z" fill="#242629"/>
</svg>
