<svg width="14" height="14" viewBox="0 0 14 14" fill="none" xmlns="http://www.w3.org/2000/svg">
<path d="M5 1.5C5.27614 1.5 5.5 1.72386 5.5 2C5.5 2.27614 5.27614 2.5 5 2.5H4.5C3.39543 2.5 2.5 3.39543 2.5 4.5V9.5C2.5 10.6046 3.39543 11.5 4.5 11.5H9.5C10.6046 11.5 11.5 10.6046 11.5 9.5V9C11.5 8.72386 11.7239 8.5 12 8.5C12.2761 8.5 12.5 8.72386 12.5 9V9.5C12.5 11.1569 11.1569 12.5 9.5 12.5H4.5C2.84315 12.5 1.5 11.1569 1.5 9.5V4.5C1.5 2.84315 2.84315 1.5 4.5 1.5H5ZM12 1.5C12.0327 1.5 12.0655 1.50242 12.0977 1.50879C12.1488 1.51889 12.196 1.53909 12.2402 1.56348C12.2806 1.58569 12.3193 1.6123 12.3535 1.64648C12.3874 1.68034 12.4134 1.71891 12.4355 1.75879C12.4601 1.80299 12.48 1.85024 12.4902 1.90137C12.4967 1.93389 12.5 1.96695 12.5 2V6C12.5 6.27614 12.2761 6.5 12 6.5C11.7239 6.5 11.5 6.27614 11.5 6V3.20703L7.35352 7.35352C7.15825 7.54878 6.84175 7.54878 6.64648 7.35352C6.45122 7.15825 6.45122 6.84175 6.64648 6.64648L10.793 2.5H8C7.72386 2.5 7.5 2.27614 7.5 2C7.5 1.72386 7.72386 1.5 8 1.5H12Z" fill="#242629"/>
</svg>
