<svg width="14" height="14" viewBox="0 0 14 14" fill="none" xmlns="http://www.w3.org/2000/svg">
<path d="M10.6465 9.14624C10.8417 8.95117 11.1583 8.95122 11.3535 9.14624L13.3535 11.1462C13.5487 11.3415 13.5487 11.658 13.3535 11.8533L11.3535 13.8533C11.1582 14.0485 10.8417 14.0485 10.6465 13.8533C10.4514 13.658 10.4514 13.3414 10.6465 13.1462L11.793 11.9998H8.5C8.22386 11.9998 8 11.7759 8 11.4998C8.00013 11.2237 8.22394 10.9998 8.5 10.9998H11.793L10.6465 9.85327C10.4514 9.65802 10.4514 9.34144 10.6465 9.14624ZM9 7.99976C9.27606 7.99976 9.49987 8.22373 9.5 8.49976C9.5 8.7759 9.27614 8.99976 9 8.99976H5.61133C4.16933 8.99976 3.00013 10.1691 3 11.6111C3.00012 11.8257 3.17407 11.9996 3.38867 11.9998H6.5C6.77606 11.9998 6.99987 12.2237 7 12.4998C7 12.7759 6.77614 12.9998 6.5 12.9998H3.38867C2.62178 12.9996 2.00012 12.378 2 11.6111C2.00013 9.61683 3.61705 7.99976 5.61133 7.99976H9ZM7.10059 0.999756C8.61937 0.999756 9.85059 2.23097 9.85059 3.74976C9.85059 5.26854 8.61937 6.49976 7.10059 6.49976C5.5818 6.49976 4.35059 5.26854 4.35059 3.74976C4.35059 2.23097 5.5818 0.999756 7.10059 0.999756ZM7.10059 1.99976C6.13409 1.99976 5.35059 2.78326 5.35059 3.74976C5.35059 4.71625 6.13409 5.49976 7.10059 5.49976C8.06708 5.49976 8.85059 4.71625 8.85059 3.74976C8.85059 2.78326 8.06708 1.99976 7.10059 1.99976Z" fill="#242629"/>
</svg>
