<svg width="14" height="14" viewBox="0 0 14 14" fill="none" xmlns="http://www.w3.org/2000/svg">
<g clip-path="url(#clip0_27653_1575)">
<path d="M7 0.5C10.5899 0.5 13.5 3.41015 13.5 7C13.5 10.5899 10.5899 13.5 7 13.5C3.41015 13.5 0.5 10.5899 0.5 7C0.5 3.41015 3.41015 0.5 7 0.5ZM3.48047 11.2256C4.43429 12.0209 5.66101 12.5 7 12.5C10.0376 12.5 12.5 10.0376 12.5 7C12.5 5.66101 12.0209 4.43429 11.2256 3.48047L3.48047 11.2256ZM7 1.5C3.96243 1.5 1.5 3.96243 1.5 7C1.5 8.3385 1.97865 9.56488 2.77344 10.5186L10.5186 2.77344C9.56488 1.97865 8.3385 1.5 7 1.5Z" fill="#242629"/>
</g>
<defs>
<clipPath id="clip0_27653_1575">
<rect width="14" height="14" fill="white"/>
</clipPath>
</defs>
</svg>
