<svg width="14" height="14" viewBox="0 0 14 14" fill="none" xmlns="http://www.w3.org/2000/svg">
<path d="M11.5 8.99976C11.7761 8.99976 11.9999 9.22369 12 9.49976V10.9998H13.5C13.7761 10.9998 13.9999 11.2237 14 11.4998C14 11.7759 13.7761 11.9998 13.5 11.9998H12V13.4998C12 13.7759 11.7761 13.9998 11.5 13.9998C11.2239 13.9997 11 13.7759 11 13.4998V11.9998H9.5C9.22386 11.9997 9 11.7759 9 11.4998C9.00009 11.2237 9.22392 10.9998 9.5 10.9998H11V9.49976C11.0001 9.2237 11.2239 8.99976 11.5 8.99976ZM7.50586 0.499756C7.84892 0.499756 8.10216 0.49696 8.3457 0.55542C8.54966 0.60441 8.74497 0.68509 8.92383 0.794678C9.13728 0.925525 9.31417 1.1069 9.55664 1.34937L11.6504 3.44312C11.8929 3.68558 12.0742 3.86252 12.2051 4.07593C12.3147 4.25475 12.3953 4.45013 12.4443 4.65405C12.5028 4.89756 12.5 5.15091 12.5 5.4939V6.99976C12.4999 7.27584 12.2761 7.49976 12 7.49976C11.7239 7.49975 11.5001 7.27584 11.5 6.99976V5.4939C11.5 5.10337 11.4971 4.98914 11.4727 4.88745C11.4482 4.78552 11.4073 4.68777 11.3525 4.59839C11.2979 4.50934 11.2193 4.42606 10.9434 4.15015L8.84961 2.0564C8.57363 1.78042 8.49047 1.70185 8.40137 1.64722C8.31195 1.59244 8.21427 1.55159 8.1123 1.5271C8.01062 1.5027 7.89647 1.49976 7.50586 1.49976H6C5.29169 1.49976 4.79023 1.49997 4.39844 1.53198C4.01269 1.56352 3.7769 1.62323 3.5918 1.71753C3.2156 1.90924 2.90951 2.21537 2.71777 2.59155C2.62347 2.77664 2.56377 3.01303 2.53223 3.39917C2.50025 3.79115 2.5 4.2932 2.5 5.00171C2.50001 6.47151 2.49999 7.52803 2.5 8.9978C2.5 9.70636 2.50025 10.2083 2.53223 10.6003C2.56376 10.9865 2.6235 11.2229 2.71777 11.408C2.90949 11.7842 3.2156 12.0902 3.5918 12.282C3.7769 12.3763 4.01269 12.436 4.39844 12.4675C4.79022 12.4995 5.29174 12.4998 6 12.4998H7.5L7.60059 12.5095C7.82847 12.556 7.9999 12.7581 8 12.9998C7.99994 13.2413 7.82842 13.4424 7.60059 13.489L7.5 13.4998H6C5.30824 13.4998 4.75932 13.4997 4.31738 13.4636C3.8696 13.427 3.48731 13.3507 3.1377 13.1726C2.57353 12.885 2.11471 12.4262 1.82715 11.8621C1.64909 11.5125 1.57272 11.1302 1.53613 10.6824C1.50004 10.2402 1.5 9.69005 1.5 8.9978C1.49999 7.5692 1.50001 6.43035 1.5 5.00171C1.5 4.30947 1.50003 3.7593 1.53613 3.31714C1.57273 2.86937 1.64906 2.48697 1.82715 2.13745C2.11473 1.5733 2.57353 1.11445 3.1377 0.826904C3.4873 0.648788 3.86961 0.572473 4.31738 0.535889C4.75933 0.499785 5.30823 0.499756 6 0.499756H7.50586ZM7.60059 9.50952C7.82844 9.55606 7.99989 9.75816 8 9.99976C7.99994 10.2413 7.82838 10.4424 7.60059 10.489L7.5 10.4998H5C4.72389 10.4998 4.50004 10.2759 4.5 9.99976C4.50021 9.72383 4.72401 9.4998 5 9.49976H7.5L7.60059 9.50952ZM9 6.99976C9.27605 6.9998 9.49992 7.22371 9.5 7.49976C9.5 7.77587 9.2761 7.99971 9 7.99976H5C4.72386 7.99976 4.5 7.7759 4.5 7.49976C4.50008 7.22368 4.72391 6.99976 5 6.99976H9ZM8 2.49976C8.27609 2.49976 8.49991 2.72369 8.5 2.99976V3.99976C8.5 4.27589 8.72386 4.49975 9 4.49976H10C10.2761 4.49976 10.4999 4.72369 10.5 4.99976C10.5 5.2759 10.2761 5.49976 10 5.49976H9C8.17158 5.49975 7.5 4.82818 7.5 3.99976V2.99976C7.50009 2.7237 7.72392 2.49976 8 2.49976Z" fill="#242629"/>
</svg>
