<svg width="14" height="14" viewBox="0 0 14 14" fill="none" xmlns="http://www.w3.org/2000/svg">
<path d="M7.50586 0.499756C7.84892 0.499756 8.10216 0.496957 8.3457 0.55542C8.54966 0.604411 8.74497 0.685086 8.92383 0.794678C9.13728 0.925526 9.31417 1.10689 9.55664 1.34937L11.6504 3.44312C11.8929 3.68558 12.0742 3.86251 12.2051 4.07593C12.3147 4.25475 12.3953 4.45013 12.4443 4.65405C12.5028 4.89756 12.5 5.15091 12.5 5.4939V8.99976C12.5 9.69143 12.5 10.2405 12.4639 10.6824C12.4273 11.1301 12.3509 11.5125 12.1729 11.8621C11.8853 12.4263 11.4265 12.885 10.8623 13.1726C10.5127 13.3507 10.1304 13.427 9.68262 13.4636C9.24066 13.4997 8.69178 13.4998 8 13.4998H6C5.30821 13.4998 4.75933 13.4997 4.31738 13.4636C3.86959 13.427 3.48732 13.3507 3.1377 13.1726C2.57352 12.885 2.1147 12.4263 1.82715 11.8621C1.64909 11.5125 1.57272 11.1302 1.53613 10.6824C1.50004 10.2402 1.5 9.69004 1.5 8.9978V5.00171C1.5 4.30947 1.50003 3.7593 1.53613 3.31714C1.57273 2.86937 1.64906 2.48697 1.82715 2.13745C2.11473 1.57331 2.57353 1.11445 3.1377 0.826904C3.4873 0.648793 3.86962 0.572473 4.31738 0.535889C4.75933 0.499786 5.30823 0.499756 6 0.499756H7.50586ZM6 1.49976C5.2917 1.49976 4.79023 1.49997 4.39844 1.53198C4.01269 1.56352 3.7769 1.62323 3.5918 1.71753C3.2156 1.90923 2.90951 2.21538 2.71777 2.59155C2.62347 2.77664 2.56377 3.01303 2.53223 3.39917C2.50025 3.79115 2.5 4.2932 2.5 5.00171V8.9978C2.5 9.70631 2.50026 10.2083 2.53223 10.6003C2.56376 10.9865 2.6235 11.2229 2.71777 11.408C2.90949 11.7842 3.21559 12.0902 3.5918 12.282C3.7769 12.3763 4.01267 12.436 4.39844 12.4675C4.79023 12.4995 5.29171 12.4998 6 12.4998H8C8.70831 12.4998 9.20977 12.4995 9.60156 12.4675C9.98735 12.436 10.2231 12.3763 10.4082 12.282C10.7844 12.0902 11.0905 11.7842 11.2822 11.408C11.3765 11.2229 11.4362 10.987 11.4678 10.6013C11.4998 10.2096 11.5 9.70795 11.5 8.99976V5.4939C11.5 5.10337 11.4971 4.98914 11.4727 4.88745C11.4482 4.78552 11.4073 4.68777 11.3525 4.59839C11.2979 4.50933 11.2193 4.42606 10.9434 4.15015L8.84961 2.0564C8.57362 1.78041 8.49047 1.70185 8.40137 1.64722C8.31195 1.59243 8.21427 1.55159 8.1123 1.5271C8.01061 1.50269 7.89649 1.49976 7.50586 1.49976H6ZM8 2.49976C8.27608 2.49976 8.49991 2.72369 8.5 2.99976V3.99976C8.5 4.2759 8.72386 4.49976 9 4.49976H10C10.2761 4.49976 10.4999 4.72369 10.5 4.99976C10.5 5.2759 10.2761 5.49976 10 5.49976H9C8.17157 5.49976 7.5 4.82818 7.5 3.99976V2.99976C7.50009 2.72369 7.72392 2.49976 8 2.49976Z" fill="#242629"/>
</svg>
