<svg width="14" height="14" viewBox="0 0 14 14" fill="none" xmlns="http://www.w3.org/2000/svg">
<path d="M11.4998 8.99976C11.7758 8.99976 11.9997 9.22369 11.9998 9.49976V10.9998H13.4998C13.7758 10.9998 13.9997 11.2237 13.9998 11.4998C13.9998 11.7759 13.7759 11.9998 13.4998 11.9998H11.9998V13.4998C11.9998 13.7759 11.7759 13.9998 11.4998 13.9998C11.2236 13.9998 10.9998 13.7759 10.9998 13.4998V11.9998H9.49976C9.22361 11.9998 8.99976 11.7759 8.99976 11.4998C8.99985 11.2237 9.22367 10.9998 9.49976 10.9998H10.9998V9.49976C10.9998 9.22369 11.2237 8.99976 11.4998 8.99976ZM7.50562 0.499756C7.84868 0.499756 8.10191 0.496957 8.34546 0.55542C8.54942 0.604411 8.74473 0.685086 8.92358 0.794678C9.13703 0.925526 9.31392 1.10689 9.5564 1.34937L11.6501 3.44312C11.8926 3.68558 12.074 3.86251 12.2048 4.07593C12.3144 4.25475 12.3951 4.45013 12.4441 4.65405C12.5026 4.89756 12.4998 5.15091 12.4998 5.4939V6.99976C12.4998 7.2759 12.2759 7.49975 11.9998 7.49976C11.7236 7.49976 11.4998 7.2759 11.4998 6.99976V5.4939C11.4998 5.10337 11.4968 4.98914 11.4724 4.88745C11.4479 4.78552 11.4071 4.68777 11.3523 4.59839C11.2977 4.50933 11.219 4.42606 10.9431 4.15015L8.84937 2.0564C8.57338 1.78041 8.49022 1.70185 8.40112 1.64722C8.31171 1.59243 8.21403 1.55159 8.11206 1.5271C8.01037 1.50269 7.89624 1.49976 7.50562 1.49976H5.99976C5.29145 1.49976 4.78999 1.49997 4.39819 1.53198C4.01245 1.56352 3.77665 1.62323 3.59155 1.71753C3.21536 1.90923 2.90927 2.21538 2.71753 2.59155C2.62322 2.77664 2.56352 3.01303 2.53198 3.39917C2.5 3.79115 2.49975 4.2932 2.49976 5.00171V8.9978C2.49976 9.70631 2.50001 10.2083 2.53198 10.6003C2.56351 10.9865 2.62325 11.2229 2.71753 11.408C2.90925 11.7842 3.21534 12.0902 3.59155 12.282C3.77666 12.3763 4.01242 12.436 4.39819 12.4675C4.78998 12.4995 5.29146 12.4998 5.99976 12.4998H7.49976C7.77583 12.4998 7.99965 12.7237 7.99976 12.9998C7.99976 13.2759 7.7759 13.4998 7.49976 13.4998H5.99976C5.30797 13.4998 4.75909 13.4997 4.31714 13.4636C3.86934 13.427 3.48707 13.3507 3.13745 13.1726C2.57327 12.885 2.11446 12.4263 1.8269 11.8621C1.64885 11.5125 1.57248 11.1302 1.53589 10.6824C1.4998 10.2402 1.49976 9.69004 1.49976 8.9978V5.00171C1.49975 4.30947 1.49979 3.7593 1.53589 3.31714C1.57249 2.86937 1.64882 2.48697 1.8269 2.13745C2.11448 1.57331 2.57328 1.11445 3.13745 0.826904C3.48705 0.648792 3.86937 0.572473 4.31714 0.535889C4.75909 0.499786 5.30799 0.499756 5.99976 0.499756H7.50562ZM7.99976 2.49976C8.27584 2.49976 8.49966 2.72369 8.49976 2.99976V3.99976C8.49976 4.2759 8.72361 4.49976 8.99976 4.49976H9.99976C10.2758 4.49976 10.4997 4.72369 10.4998 4.99976C10.4998 5.2759 10.2759 5.49976 9.99976 5.49976H8.99976C8.17133 5.49976 7.49976 4.82818 7.49976 3.99976V2.99976C7.49985 2.72369 7.72367 2.49976 7.99976 2.49976Z" fill="#242629"/>
</svg>
