<svg width="14" height="14" viewBox="0 0 14 14" fill="none" xmlns="http://www.w3.org/2000/svg">
<g clip-path="url(#clip0_21043_49377)">
<path d="M10.5 6.99988C10.6626 6.99989 10.7906 7.06735 10.8584 7.10925C10.9376 7.15824 11.0092 7.22037 11.0723 7.28308C11.1995 7.40962 11.3281 7.57869 11.4463 7.7782C11.6404 8.1059 11.8219 8.54246 11.9316 9.06726C12.457 9.17695 12.8937 9.35931 13.2217 9.55359C13.421 9.67166 13.5903 9.79951 13.7168 9.92664C13.7795 9.98971 13.8416 10.0623 13.8906 10.1415C13.9325 10.2092 13.9999 10.3374 14 10.4999C14 10.6624 13.9325 10.7905 13.8906 10.8583C13.8417 10.9375 13.7795 11.0091 13.7168 11.0721C13.5903 11.1994 13.4212 11.3279 13.2217 11.4462C12.8938 11.6404 12.4569 11.8218 11.9316 11.9315C11.822 12.4567 11.6405 12.8936 11.4463 13.2216C11.3281 13.4211 11.1995 13.5901 11.0723 13.7167C11.0092 13.7794 10.9376 13.8415 10.8584 13.8905C10.7906 13.9324 10.6626 13.9999 10.5 13.9999C10.3374 13.9999 10.2094 13.9324 10.1416 13.8905C10.0624 13.8415 9.99083 13.7794 9.92773 13.7167C9.80046 13.5901 9.67193 13.4211 9.55371 13.2216C9.35944 12.8936 9.17706 12.4568 9.06738 11.9315C8.5425 11.8218 8.10606 11.6403 7.77832 11.4462C7.57878 11.3279 7.40975 11.1994 7.2832 11.0721C7.22048 11.009 7.15836 10.9375 7.10938 10.8583C7.07798 10.8075 7.03272 10.7227 7.01172 10.6151L7 10.4999L7.01172 10.3846C7.03274 10.2771 7.07799 10.1922 7.10938 10.1415C7.15837 10.0623 7.2205 9.9897 7.2832 9.92664C7.4097 9.79953 7.57906 9.67164 7.77832 9.55359C8.10609 9.35944 8.54248 9.17696 9.06738 9.06726C9.17711 8.54239 9.35955 8.10593 9.55371 7.7782C9.67192 7.57871 9.80048 7.40961 9.92773 7.28308C9.99081 7.22039 10.0624 7.15822 10.1416 7.10925C10.2094 7.06734 10.3375 6.99988 10.5 6.99988ZM7.50586 0.499878C7.84893 0.499878 8.10215 0.497074 8.3457 0.555542C8.54968 0.604536 8.74496 0.685197 8.92383 0.7948C9.13729 0.925656 9.31415 1.10699 9.55664 1.34949L11.6504 3.44324C11.8929 3.68575 12.0742 3.86259 12.2051 4.07605C12.3147 4.2549 12.3953 4.45022 12.4443 4.65417C12.5028 4.89771 12.5 5.151 12.5 5.49402V5.99988C12.5 6.27599 12.2761 6.49984 12 6.49988C11.7239 6.49987 11.5 6.27601 11.5 5.99988V5.49402C11.5 5.10341 11.4971 4.98927 11.4727 4.88757C11.4482 4.78561 11.4073 4.68793 11.3525 4.59851C11.2979 4.50942 11.2194 4.42629 10.9434 4.15027L8.84961 2.05652C8.57359 1.7805 8.49047 1.70198 8.40137 1.64734C8.31194 1.59254 8.21428 1.55172 8.1123 1.52722C8.01061 1.50281 7.89651 1.49988 7.50586 1.49988H6C5.29169 1.49988 4.79023 1.50009 4.39844 1.5321C4.01267 1.56364 3.7769 1.62335 3.5918 1.71765C3.21558 1.90937 2.90951 2.21547 2.71777 2.59167C2.62346 2.77678 2.56377 3.0131 2.53223 3.39929C2.50024 3.79129 2.5 4.29327 2.5 5.00183V8.99792C2.5 9.70648 2.50025 10.2085 2.53223 10.6005C2.56376 10.9867 2.62348 11.223 2.71777 11.4081C2.9095 11.7843 3.21557 12.0904 3.5918 12.2821C3.7769 12.3764 4.01266 12.4361 4.39844 12.4677C4.79023 12.4997 5.29171 12.4999 6 12.4999H7L7.10059 12.5096C7.32849 12.5562 7.49994 12.7582 7.5 12.9999C7.5 13.2416 7.32851 13.4436 7.10059 13.4901L7 13.4999H6C5.30821 13.4999 4.75933 13.4999 4.31738 13.4637C3.86958 13.4272 3.48732 13.3509 3.1377 13.1727C2.5735 12.8851 2.11471 12.4264 1.82715 11.8622C1.64906 11.5126 1.57272 11.1303 1.53613 10.6825C1.50003 10.2403 1.5 9.69021 1.5 8.99792V5.00183C1.5 4.30956 1.50003 3.75944 1.53613 3.31726C1.57273 2.86945 1.64905 2.48711 1.82715 2.13757C2.11472 1.5734 2.57351 1.11458 3.1377 0.827026C3.48731 0.648902 3.8696 0.572596 4.31738 0.536011C4.75933 0.499907 5.30823 0.499878 6 0.499878H7.50586ZM10.4141 8.28796C10.2441 8.57485 10.0684 9.01014 9.99609 9.56433C9.96679 9.78919 9.7893 9.96663 9.56445 9.99597C9.01024 10.0682 8.575 10.244 8.28809 10.4139C8.23908 10.443 8.19649 10.4732 8.1582 10.4999C8.19651 10.5266 8.23904 10.5568 8.28809 10.5858C8.575 10.7558 9.01016 10.9315 9.56445 11.0038C9.78926 11.0331 9.96671 11.2106 9.99609 11.4354C10.0683 11.9896 10.2441 12.4249 10.4141 12.7118C10.4429 12.7605 10.4734 12.8026 10.5 12.8407C10.5266 12.8026 10.5571 12.7605 10.5859 12.7118C10.7559 12.4249 10.9317 11.9896 11.0039 11.4354L11.0215 11.3534C11.0781 11.1685 11.2388 11.0294 11.4355 11.0038C11.9898 10.9315 12.425 10.7558 12.7119 10.5858C12.7606 10.5569 12.8027 10.5265 12.8408 10.4999C12.8027 10.4733 12.7607 10.4428 12.7119 10.4139C12.425 10.244 11.9898 10.0682 11.4355 9.99597C11.2107 9.96667 11.0332 9.78922 11.0039 9.56433C10.9316 9.01014 10.7559 8.57485 10.5859 8.28796C10.5569 8.23895 10.5267 8.19637 10.5 8.15808C10.4733 8.19635 10.4431 8.23897 10.4141 8.28796ZM5.5 9.49988C5.77607 9.49993 5.99996 9.7238 6 9.99988C6 10.276 5.77609 10.4998 5.5 10.4999H5C4.72386 10.4999 4.5 10.276 4.5 9.99988C4.50004 9.72377 4.72388 9.49988 5 9.49988H5.5ZM8 6.99988C8.27607 6.99993 8.49996 7.2238 8.5 7.49988C8.5 7.77599 8.27609 7.99982 8 7.99988H5C4.72386 7.99988 4.5 7.77602 4.5 7.49988C4.50004 7.22377 4.72388 6.99988 5 6.99988H8ZM8 2.49988C8.27611 2.49988 8.49995 2.72378 8.5 2.99988V3.99988C8.5 4.27602 8.72386 4.49988 9 4.49988H10C10.2761 4.49988 10.5 4.72377 10.5 4.99988C10.5 5.27602 10.2761 5.49988 10 5.49988H9C8.17157 5.49988 7.5 4.82831 7.5 3.99988V2.99988C7.50005 2.72378 7.72389 2.49988 8 2.49988Z" fill="#242629"/>
</g>
<defs>
<clipPath id="clip0_21043_49377">
<rect width="14" height="14" fill="white"/>
</clipPath>
</defs>
</svg>
