<svg width="14" height="14" viewBox="0 0 14 14" fill="none" xmlns="http://www.w3.org/2000/svg">
<path d="M1.45911 8.46777C2.00023 7.81907 2.98178 7.7747 3.57922 8.37207C4.17592 8.96872 4.13236 9.94853 3.48547 10.4902L2.8761 11H3.50012L3.60071 11.0098C3.82851 11.0564 4.00004 11.2584 4.00012 11.5C4.00004 11.7415 3.82841 11.9426 3.60071 11.9893L3.50012 12H1.50012C1.28995 12 1.10231 11.8684 1.0304 11.6709C0.95867 11.4733 1.01769 11.2512 1.17883 11.1162L2.84387 9.72363C3.04045 9.5588 3.05363 9.26055 2.87219 9.0791C2.69052 8.89751 2.39232 8.91134 2.22766 9.1084L1.88391 9.51953C1.70713 9.73164 1.39193 9.76074 1.17981 9.58398C0.967751 9.40718 0.939555 9.09198 1.11633 8.87988L1.45911 8.46777ZM12.1007 10.0098C12.3286 10.0563 12.5001 10.2583 12.5001 10.5C12.5001 10.7761 12.2762 10.9999 12.0001 11H5.50012C5.224 11 5.00016 10.7761 5.00012 10.5C5.00015 10.2239 5.224 10 5.50012 10H12.0001L12.1007 10.0098ZM12.1007 6.50977C12.3286 6.55636 12.5001 6.75835 12.5001 7C12.5 7.276 12.2761 7.49992 12.0001 7.5H5.50012C5.22405 7.5 5.00023 7.27605 5.00012 7C5.00022 6.72395 5.22405 6.50001 5.50012 6.5H12.0001L12.1007 6.50977ZM2.24329 1.57129C2.39755 1.47896 2.58969 1.47601 2.74622 1.56445C2.90286 1.65323 3.00012 1.81994 3.00012 2V5C3.00012 5.27606 2.77615 5.49987 2.50012 5.5C2.22398 5.5 2.00013 5.27614 2.00012 5V2.88184L1.75696 3.02832C1.52027 3.17025 1.21353 3.09397 1.07141 2.85742C0.929337 2.62063 1.0065 2.31297 1.24329 2.1709L2.24329 1.57129ZM12.1007 3.00977C12.3286 3.05635 12.5001 3.25834 12.5001 3.5C12.5001 3.77606 12.2762 3.99992 12.0001 4H5.50012C5.224 4 5.00016 3.77611 5.00012 3.5C5.00015 3.22389 5.224 3 5.50012 3H12.0001L12.1007 3.00977Z" fill="#242629"/>
</svg>
