<svg width="14" height="14" viewBox="0 0 14 14" fill="none" xmlns="http://www.w3.org/2000/svg">
<path d="M5.96558 0.67041C6.62281 0.371724 7.37768 0.371709 8.03491 0.67041L11.5339 2.26123C12.4262 2.66687 12.9996 3.55745 12.9998 4.5376V9.36279C12.9998 10.3262 12.4453 11.2046 11.5759 11.6196L8.0769 13.2896C7.39591 13.6146 6.60461 13.6145 5.92358 13.2896L2.42358 11.6196C1.55425 11.2046 1.00073 10.3261 1.00073 9.36279V4.5376C1.0009 3.55745 1.57425 2.66687 2.46655 2.26123L5.96558 0.67041ZM2.01733 4.31104C2.006 4.38526 2.00075 4.46103 2.00073 4.5376V9.36279C2.00073 9.94062 2.33294 10.4672 2.85425 10.7163L6.35425 12.3872C6.40207 12.41 6.45131 12.4293 6.50073 12.4468V6.51123L2.01733 4.31104ZM7.50073 6.51123V12.4468C7.54989 12.4294 7.59867 12.4099 7.64624 12.3872L11.1453 10.7163C11.6669 10.4673 11.9998 9.94081 11.9998 9.36279V4.5376C11.9997 4.46097 11.9936 4.38531 11.9822 4.31104L7.50073 6.51123ZM7.62085 1.58057C7.22669 1.40151 6.77382 1.40155 6.37964 1.58057L2.87964 3.17139C2.73504 3.23714 2.60459 3.32467 2.49097 3.42822L6.99976 5.64307L11.5085 3.4292C11.3947 3.32553 11.2646 3.23719 11.1199 3.17139L7.62085 1.58057Z" fill="#242629"/>
</svg>
