<svg width="14" height="14" viewBox="0 0 14 14" fill="none" xmlns="http://www.w3.org/2000/svg">
<path d="M12.5554 7.99976C12.9383 7.99976 13.3061 8.15198 13.5769 8.42261C13.8476 8.69333 13.9997 9.06124 13.9998 9.44409C13.9997 9.82685 13.8475 10.1939 13.5769 10.4646L11.7175 12.324C11.3251 12.7164 11.0908 12.953 10.822 13.1462C10.5902 13.3129 10.341 13.4541 10.0789 13.5671C9.77484 13.6982 9.45134 13.7772 8.91284 13.9119L8.62085 13.9851C8.45057 14.0275 8.27034 13.9774 8.14624 13.8533C8.02229 13.7291 7.97193 13.5489 8.0144 13.3787L8.08765 13.0867C8.22226 12.5482 8.30128 12.2247 8.43237 11.9207C8.54543 11.6585 8.68668 11.4093 8.85327 11.1775C9.0465 10.9087 9.28314 10.6744 9.67554 10.282L11.5349 8.42261C11.8055 8.15203 12.1727 7.99992 12.5554 7.99976ZM5.96558 0.670654C6.62284 0.371956 7.37766 0.371911 8.03491 0.670654L11.5339 2.26147C12.426 2.66702 12.9993 3.55696 12.9998 4.53687V5.99976C12.9998 6.27585 12.7759 6.4997 12.4998 6.49976C12.2238 6.49962 11.9998 6.27578 11.9998 5.99976V4.53687C11.9997 4.44678 11.99 4.35792 11.9744 4.27124L7.49976 6.50854V12.4568C7.49981 13.1922 6.7328 13.6759 6.06909 13.3591L2.42358 11.6199C1.55419 11.2048 1.00073 10.3264 1.00073 9.36304V4.53784C1.00086 3.55765 1.57422 2.66713 2.46655 2.26147L5.96558 0.670654ZM12.5554 8.99976C12.438 8.99992 12.325 9.0466 12.2419 9.12964L10.3826 10.989C9.96829 11.4033 9.80068 11.5729 9.66577 11.7605C9.54112 11.9339 9.43588 12.121 9.35132 12.3171C9.29485 12.4481 9.25109 12.5864 9.19214 12.8064C9.41259 12.7474 9.55128 12.7047 9.68237 12.6482C9.87849 12.5636 10.0656 12.4584 10.239 12.3337C10.4266 12.1988 10.5962 12.0313 11.0105 11.6169L12.8699 9.75757C12.953 9.67442 12.9997 9.56163 12.9998 9.44409C12.9997 9.32645 12.9531 9.21283 12.8699 9.12964C12.7866 9.04654 12.673 8.99976 12.5554 8.99976ZM2.06519 4.10327C2.02325 4.24185 2.00076 4.38837 2.00073 4.53784V9.36304C2.00073 9.9409 2.33288 10.4674 2.85425 10.7166L6.49976 12.4568V6.49683L2.06519 4.10327ZM7.62085 1.58081C7.22667 1.40171 6.77385 1.40179 6.37964 1.58081L2.87964 3.17163C2.80476 3.20568 2.73371 3.246 2.66675 3.29077L7.00854 5.6355L11.4792 3.40015C11.3731 3.30872 11.2524 3.23147 11.1208 3.17163L7.62085 1.58081Z" fill="#242629"/>
</svg>
