<svg width="14" height="14" viewBox="0 0 14 14" fill="none" xmlns="http://www.w3.org/2000/svg">
<path fill-rule="evenodd" clip-rule="evenodd" d="M11.9998 5.99997V4.53708C11.9997 4.44689 11.99 4.35824 11.9744 4.27146L7.22339 6.64744C7.08268 6.71768 6.9168 6.71777 6.77612 6.64744L2.02515 4.27146C2.00947 4.3584 2.00073 4.4477 2.00073 4.53806V9.36326C2.00073 9.94116 2.33281 10.4677 2.85425 10.7168L6.09058 12.2617C6.33974 12.3807 6.44487 12.6795 6.32593 12.9287C6.20686 13.1776 5.90896 13.2828 5.65991 13.164L2.42358 11.6201C1.55412 11.2051 1.00073 10.3267 1.00073 9.36326V4.53806C1.00073 3.55774 1.57412 2.66739 2.46655 2.26169L5.96558 0.670873C6.62291 0.372101 7.37759 0.372056 8.03491 0.670873L11.5339 2.26169C12.4261 2.66728 12.9995 3.55705 12.9998 4.53708V5.99997C12.9998 6.27607 12.7759 6.49992 12.4998 6.49997C12.2238 6.49984 11.9998 6.276 11.9998 5.99997ZM7.62085 1.58103C7.2266 1.40186 6.77392 1.40193 6.37964 1.58103L2.87964 3.17185C2.74754 3.23192 2.62674 3.30946 2.52026 3.40134L6.99976 5.6406L11.4792 3.40037C11.373 3.30888 11.2525 3.23172 11.1208 3.17185L7.62085 1.58103ZM10.6904 7.0048C11.064 7.02487 11.3568 7.26065 11.501 7.54972L11.5508 7.64835C11.6522 7.85196 11.878 7.96167 12.1006 7.91495L12.1885 7.8964C12.5074 7.82951 12.8757 7.91525 13.123 8.19816C13.2105 8.29817 13.2931 8.40302 13.3691 8.51261C13.5763 8.81126 13.5769 9.17626 13.4482 9.46476L13.3906 9.59366C13.3001 9.79641 13.3543 10.0348 13.5234 10.1786L13.623 10.2636C13.8643 10.4689 14.0205 10.7991 13.9619 11.1581C13.9398 11.2938 13.9098 11.4273 13.873 11.5575C13.7723 11.9137 13.4834 12.1475 13.1719 12.2275L13.0664 12.2548C12.8491 12.3105 12.6952 12.5042 12.6904 12.7284L12.6875 12.8612C12.6808 13.1786 12.5234 13.5116 12.2041 13.6923C12.0914 13.7561 11.9745 13.8131 11.8545 13.8642C11.5068 14.0123 11.1371 13.9267 10.8799 13.7265L10.8066 13.6698C10.6262 13.5297 10.3738 13.5297 10.1934 13.6698L10.1201 13.7265C9.86289 13.9267 9.49325 14.0123 9.14551 13.8642C9.02551 13.8131 8.90856 13.7561 8.7959 13.6923C8.47662 13.5116 8.31921 13.1787 8.3125 12.8612L8.30957 12.7284C8.30479 12.5042 8.15087 12.3105 7.93359 12.2548L7.82812 12.2275C7.51661 12.1475 7.22766 11.9137 7.12695 11.5575C7.09019 11.4273 7.06022 11.2938 7.03809 11.1581C6.97954 10.7991 7.13571 10.4689 7.37695 10.2636L7.47656 10.1786C7.64571 10.0348 7.69985 9.79641 7.60938 9.59366L7.55176 9.46476C7.42307 9.17626 7.42366 8.81126 7.63086 8.51261C7.7069 8.40302 7.78954 8.29818 7.87695 8.19816L7.97461 8.10148C8.21525 7.89628 8.53231 7.83784 8.81152 7.8964L8.89941 7.91495C9.12205 7.96167 9.34776 7.85196 9.44922 7.64835L9.49902 7.54972C9.64325 7.26065 9.93603 7.02487 10.3096 7.0048C10.4362 6.998 10.5638 6.998 10.6904 7.0048ZM10.3447 8.09464C10.0404 8.70541 9.3622 9.03356 8.69434 8.89347L8.6123 8.87589C8.56111 8.93568 8.51249 8.9979 8.4668 9.06241L8.52246 9.18644C8.79384 9.79456 8.63221 10.5089 8.125 10.9403L8.0293 11.0204C8.04329 11.1016 8.06081 11.1814 8.08203 11.2597L8.18164 11.286C8.83367 11.4531 9.29416 12.034 9.30859 12.7069L9.31055 12.8329C9.37598 12.8691 9.44304 12.9023 9.51172 12.9325L9.5791 12.8808C10.1208 12.4594 10.8792 12.4594 11.4209 12.8808L11.4873 12.9325C11.556 12.9024 11.623 12.8691 11.6885 12.8329L11.6914 12.7069C11.7058 12.034 12.1663 11.4531 12.8184 11.286L12.917 11.2597C12.9382 11.1814 12.9557 11.1016 12.9697 11.0204L12.875 10.9403C12.3678 10.5089 12.2062 9.79456 12.4775 9.18644L12.5322 9.06241C12.4865 8.99789 12.4379 8.93569 12.3867 8.87589L12.3057 8.89347C11.6378 9.03356 10.9596 8.70541 10.6553 8.09464L10.6104 8.00382C10.5369 8.00065 10.4631 8.00065 10.3896 8.00382L10.3447 8.09464ZM11.2071 11.2071C11.5976 10.8166 11.5976 10.1833 11.2071 9.79277C10.8167 9.4023 10.1833 9.4023 9.79286 9.79277C9.40238 10.1833 9.40238 10.8166 9.79286 11.2071C10.1833 11.5975 10.8167 11.5975 11.2071 11.2071Z" fill="#242629"/>
</svg>
