<svg width="14" height="14" viewBox="0 0 14 14" fill="none" xmlns="http://www.w3.org/2000/svg">
<path d="M11.4998 8.99976C11.7758 8.99976 11.9996 9.22373 11.9998 9.49976V10.9998H13.4998C13.7758 10.9998 13.9996 11.2237 13.9998 11.4998C13.9998 11.7759 13.7759 11.9998 13.4998 11.9998H11.9998V13.4998C11.9998 13.7759 11.7759 13.9998 11.4998 13.9998C11.2237 13.9996 10.9998 13.7758 10.9998 13.4998V11.9998H9.49976C9.22373 11.9996 8.99976 11.7758 8.99976 11.4998C8.9999 11.2238 9.22381 10.9999 9.49976 10.9998H10.9998V9.49976C10.9999 9.22381 11.2238 8.99989 11.4998 8.99976ZM5.96558 0.670654C6.62284 0.371956 7.37766 0.371911 8.03491 0.670654L11.5339 2.26147C12.4263 2.66713 12.9996 3.55765 12.9998 4.53784V7.49976C12.9998 7.7758 12.7758 7.99959 12.4998 7.99976C12.2236 7.99976 11.9998 7.7759 11.9998 7.49976V4.53784C11.9997 4.44755 11.99 4.35812 11.9744 4.27124L7.49976 6.50854V12.4568C7.49981 13.1922 6.7328 13.6759 6.06909 13.3591L2.42358 11.6199C1.55419 11.2048 1.00073 10.3264 1.00073 9.36304V4.53784C1.00086 3.55765 1.57422 2.66713 2.46655 2.26147L5.96558 0.670654ZM2.02515 4.27124C2.00949 4.35808 2.00075 4.44759 2.00073 4.53784V9.36304C2.00073 9.9409 2.33288 10.4674 2.85425 10.7166L6.49976 12.4568V6.50854L2.02515 4.27124ZM7.62085 1.58081C7.22667 1.40171 6.77385 1.40179 6.37964 1.58081L2.87964 3.17163C2.7476 3.23167 2.62671 3.3093 2.52026 3.40112L6.99976 5.64038L11.4783 3.40112C11.372 3.30962 11.2516 3.2315 11.1199 3.17163L7.62085 1.58081Z" fill="#242629"/>
</svg>
