<svg width="14" height="14" viewBox="0 0 14 14" fill="none" xmlns="http://www.w3.org/2000/svg">
<path d="M12.1465 1.14673C12.3417 0.951467 12.6583 0.951467 12.8535 1.14673C13.0487 1.342 13.0487 1.65853 12.8535 1.85376L1.85352 12.8538C1.65828 13.0489 1.34172 13.0489 1.14648 12.8538C0.951254 12.6585 0.951317 12.342 1.14648 12.1467L2.0625 11.2297C1.13852 10.7864 0.500074 9.84355 0.5 8.75024C0.5 7.39855 1.47552 6.2761 2.76074 6.04517C2.75405 5.94772 2.75001 5.84928 2.75 5.75024C2.75 3.40303 4.65279 1.50024 7 1.50024C8.31213 1.50024 9.48452 2.09534 10.2637 3.02856L12.1465 1.14673ZM11.4844 5.24243C12.6661 5.72807 13.5 6.89161 13.5 8.25024C13.4998 10.045 12.0448 11.5002 10.25 11.5002H6C5.72395 11.5002 5.50015 11.2763 5.5 11.0002C5.50005 10.7241 5.72389 10.5002 6 10.5002H10.25C11.4925 10.5002 12.4998 9.49276 12.5 8.25024C12.5 7.31102 11.9241 6.50509 11.1045 6.16821L11.2949 5.70532L11.4844 5.24243ZM7 2.50024C5.20507 2.50024 3.75 3.95532 3.75 5.75024C3.75001 5.97341 3.77287 6.19093 3.81543 6.40063C3.84521 6.54763 3.80684 6.70052 3.71191 6.81665C3.61699 6.93265 3.47509 7.00019 3.3252 7.00024H3.25C2.2835 7.00024 1.5 7.78375 1.5 8.75024C1.50009 9.57609 2.07325 10.2659 2.84277 10.4495L9.55273 3.7395C8.95704 2.98418 8.03512 2.50024 7 2.50024ZM10.832 5.51489C10.9371 5.25986 11.2292 5.13784 11.4844 5.24243L11.1045 6.16821C10.8491 6.06324 10.7271 5.7703 10.832 5.51489Z" fill="#242629"/>
</svg>
