<svg width="14" height="14" viewBox="0 0 14 14" fill="none" xmlns="http://www.w3.org/2000/svg">
<path d="M10.1462 9.14648C10.3415 8.9513 10.658 8.95125 10.8533 9.14648C11.0484 9.34173 11.0484 9.65827 10.8533 9.85352L9.70679 11H12.9998C13.2759 11 13.4998 11.2239 13.4998 11.5C13.4998 11.7761 13.2759 12 12.9998 12H9.70679L10.8533 13.1465C11.0484 13.3417 11.0484 13.6583 10.8533 13.8535C10.658 14.0488 10.3415 14.0487 10.1462 13.8535L8.14624 11.8535C7.95098 11.6583 7.95098 11.3417 8.14624 11.1465L10.1462 9.14648ZM7.29956 0.5C8.17074 0.5 8.88802 1.15543 8.98706 2H9.99976C11.3805 2 12.4998 3.11929 12.4998 4.5V7.5C12.4998 7.77614 12.2759 8 11.9998 8C11.7236 8 11.4998 7.77614 11.4998 7.5V4.5C11.4998 3.84599 11.0807 3.29117 10.4968 3.08594C10.4946 3.28817 10.4902 3.46765 10.4773 3.62598C10.4543 3.90699 10.4056 4.16556 10.282 4.4082C10.0902 4.78446 9.78421 5.09049 9.40796 5.28223C9.16532 5.40586 8.90674 5.45457 8.62573 5.47754C8.35052 5.50002 8.01115 5.5 7.59937 5.5H6.40015C5.98836 5.5 5.64899 5.50002 5.37378 5.47754C5.09277 5.45457 4.83419 5.40586 4.59155 5.28223C4.2153 5.09049 3.90926 4.78446 3.71753 4.4082C3.5939 4.16556 3.54518 3.90699 3.52222 3.62598C3.50928 3.46765 3.50393 3.28817 3.50171 3.08594C2.9183 3.29142 2.49976 3.84631 2.49976 4.5V8.99805C2.49976 9.70663 2.5 10.2086 2.53198 10.6006C2.56352 10.9868 2.62321 11.2231 2.71753 11.4082C2.90926 11.7845 3.21531 12.0905 3.59155 12.2822C3.77666 12.3765 4.01242 12.4362 4.39819 12.4678C4.78998 12.4998 5.29146 12.5 5.99976 12.5H6.49976C6.7759 12.5 6.99976 12.7239 6.99976 13C6.99976 13.2761 6.7759 13.5 6.49976 13.5H5.99976C5.30797 13.5 4.75909 13.5 4.31714 13.4639C3.86934 13.4273 3.48707 13.351 3.13745 13.1729C2.57323 12.8853 2.11447 12.4265 1.8269 11.8623C1.64878 11.5127 1.57248 11.1305 1.53589 10.6826C1.49979 10.2405 1.49976 9.69111 1.49976 8.99902V4.5C1.49976 3.11929 2.61905 2 3.99976 2H4.76245C4.86149 1.15542 5.57877 0.5 6.44995 0.5H7.29956ZM6.44995 1.5C6.06335 1.5 5.74976 1.8136 5.74976 2.2002C5.74965 2.64187 5.39162 2.99989 4.94995 3H4.50171C4.50327 3.22276 4.50632 3.39813 4.51831 3.54492C4.53623 3.76385 4.56931 3.87595 4.60913 3.9541C4.70497 4.14207 4.85768 4.29479 5.04565 4.39062C5.1238 4.43044 5.2359 4.46353 5.45483 4.48145C5.67988 4.49983 5.97186 4.5 6.40015 4.5H7.59937C8.02766 4.5 8.31963 4.49983 8.54468 4.48145C8.76361 4.46353 8.87571 4.43044 8.95386 4.39062C9.14183 4.29479 9.29454 4.14207 9.39038 3.9541C9.4302 3.87595 9.46328 3.76385 9.4812 3.54492C9.4932 3.39813 9.49624 3.22276 9.4978 3H8.79956C8.35789 2.99989 7.99986 2.64187 7.99976 2.2002C7.99976 1.8136 7.68616 1.5 7.29956 1.5H6.44995Z" fill="#242629"/>
</svg>
