<svg width="14" height="14" viewBox="0 0 14 14" fill="none" xmlns="http://www.w3.org/2000/svg">
<path d="M4.5 2C4.74138 2 4.94335 2.17094 4.99023 2.39844L5 2.5V11.499C5 11.7752 4.77614 11.999 4.5 11.999C4.22386 11.999 4 11.7752 4 11.499V2.5L4.00977 2.39844C4.05665 2.17094 4.25862 2 4.5 2ZM9.5 2C9.74138 2 9.94335 2.17094 9.99023 2.39844L10 2.5V11.499C10 11.7752 9.77614 11.999 9.5 11.999C9.22386 11.999 9 11.7752 9 11.499V2.5L9.00977 2.39844C9.05665 2.17094 9.25862 2 9.5 2Z" fill="#242629"/>
</svg>
