<svg width="14" height="14" viewBox="0 0 14 14" fill="none" xmlns="http://www.w3.org/2000/svg">
<path d="M2.99585 1.37402C3.49471 0.875188 4.30444 0.875458 4.80347 1.37402L7.29858 3.86914L8.50562 2.6582L8.5105 2.65332L9.59546 1.59277C9.97044 1.22 10.4787 1.01085 11.0076 1.01074C11.5384 1.01083 12.0472 1.22236 12.4226 1.59766C12.798 1.97308 13.0095 2.48178 13.0095 3.0127C13.0095 3.5437 12.7981 4.05323 12.4226 4.42871L11.3845 5.46582C11.3777 5.47376 11.3725 5.48365 11.365 5.49121C11.3566 5.49964 11.3455 5.50593 11.3367 5.51367L10.1384 6.71191L12.6453 9.21875C13.1443 9.71775 13.1443 10.5274 12.6453 11.0264L11.0232 12.6484C10.5242 13.1472 9.71451 13.1474 9.21558 12.6484L6.70874 10.1416L5.78003 11.0713C5.38762 11.4637 5.15333 11.7003 4.88452 11.8936C4.65275 12.0601 4.40343 12.2014 4.14136 12.3145C3.83738 12.4455 3.51378 12.5255 2.97534 12.6602L1.63062 12.9961C1.46042 13.0384 1.28004 12.9883 1.15601 12.8643C1.03205 12.7402 0.981773 12.5598 1.02417 12.3896L1.36206 11.04C1.49622 10.5034 1.57537 10.181 1.70581 9.87793C1.81834 9.61655 1.95899 9.36802 2.12476 9.13672C2.31697 8.86858 2.55181 8.63401 2.94214 8.24219L3.87476 7.30469L1.37378 4.80371C0.875206 4.30467 0.87492 3.49495 1.37378 2.99609L2.99585 1.37402ZM7.41577 9.43457L8.39136 10.4102L9.37085 9.3877C9.56166 9.18843 9.8784 9.18163 10.0779 9.37207C10.2773 9.56303 10.2844 9.87965 10.0935 10.0791L9.09839 11.1172L9.92261 11.9414C10.031 12.0498 10.2077 12.0497 10.3162 11.9414L11.9382 10.3193C12.0467 10.2109 12.0467 10.0343 11.9382 9.92578L9.4314 7.41895L7.41577 9.43457ZM3.65015 8.94824C3.23804 9.36194 3.07145 9.53158 2.93726 9.71875C2.81332 9.89168 2.70791 10.078 2.62378 10.2734C2.53275 10.485 2.47347 10.7155 2.33179 11.2822L2.19604 11.8232L2.73218 11.6895C3.3009 11.5473 3.53264 11.4879 3.74487 11.3965C3.94091 11.312 4.12815 11.2066 4.30151 11.082C4.48921 10.9471 4.65849 10.7788 5.073 10.3643L10.2976 5.13867L8.86108 3.71582L3.65015 8.94824ZM4.09644 2.08105C3.98793 1.97301 3.81122 1.97274 3.70288 2.08105L2.08081 3.70312C1.97247 3.81146 1.97276 3.98816 2.08081 4.09668L2.90308 4.91895L3.94214 3.92773L4.02222 3.86523C4.21899 3.74178 4.48228 3.76906 4.64917 3.94336C4.83997 4.14299 4.8322 4.45959 4.63257 4.65039L3.61108 5.62695L4.58081 6.59668L6.59253 4.57715L4.09644 2.08105ZM11.0076 2.01074C10.7419 2.01085 10.4864 2.11683 10.2986 2.30469L10.2947 2.30859L9.57202 3.0127L11.0046 4.43164L11.7156 3.72168C11.9035 3.53374 12.0095 3.27849 12.0095 3.0127C12.0095 2.747 11.9034 2.49257 11.7156 2.30469C11.5277 2.11693 11.2732 2.01083 11.0076 2.01074Z" fill="#242629"/>
</svg>
