<svg width="14" height="14" viewBox="0 0 14 14" fill="none" xmlns="http://www.w3.org/2000/svg">
<path d="M10.25 7.94995C11.5202 7.94995 12.5497 8.97959 12.5498 10.2498C12.5498 11.52 11.5203 12.5496 10.25 12.5496C8.97974 12.5496 7.9502 11.52 7.9502 10.2498C7.95029 8.97959 8.97981 7.94995 10.25 7.94995ZM11.1113 2.11108C11.3261 1.89639 11.6739 1.89646 11.8887 2.11108C12.1034 2.32586 12.1034 2.67364 11.8887 2.88843L2.88867 11.8884C2.67388 12.1032 2.32612 12.1032 2.11133 11.8884C1.89669 11.6736 1.89659 11.3258 2.11133 11.1111L11.1113 2.11108ZM10.25 9.04956C9.58732 9.04956 9.0499 9.5871 9.0498 10.2498C9.0498 10.9125 9.58726 11.45 10.25 11.45C10.9127 11.45 11.4502 10.9125 11.4502 10.2498C11.4501 9.5871 10.9127 9.04956 10.25 9.04956ZM3.75 1.44995C5.02019 1.44995 6.0497 2.47959 6.0498 3.74976C6.0498 5.02001 5.02025 6.04956 3.75 6.04956C2.47983 6.04946 1.4502 5.01995 1.4502 3.74976C1.4503 2.47966 2.4799 1.45006 3.75 1.44995ZM3.75 2.54956C3.08741 2.54967 2.54991 3.08717 2.5498 3.74976C2.5498 4.41243 3.08735 4.94985 3.75 4.94995C4.41274 4.94995 4.9502 4.4125 4.9502 3.74976C4.95009 3.0871 4.41268 2.54956 3.75 2.54956Z" fill="#242629"/>
</svg>
