<svg width="14" height="14" viewBox="0 0 14 14" fill="none" xmlns="http://www.w3.org/2000/svg">
<path d="M2.36328 0.769531C3.03514 0.232129 4.02029 0.368427 4.52051 1.06836L5.91406 3.02051C6.34006 3.61701 6.27294 4.43367 5.75488 4.95215L5.09961 5.60742C5.08281 5.62422 5.07654 5.64933 5.08398 5.67188C5.59448 7.20336 6.79664 8.40552 8.32812 8.91602C8.35067 8.92345 8.37578 8.91719 8.39258 8.90039L9.04785 8.24512C9.56633 7.72706 10.383 7.65994 10.9795 8.08594L12.9316 9.47949C13.6316 9.97972 13.7679 10.9649 13.2305 11.6367L12.6006 12.4248C12.0515 13.1109 11.1904 13.4699 10.3164 13.3779C5.20191 12.8394 1.16065 8.79809 0.62207 3.68359C0.530095 2.80965 0.889086 1.94847 1.5752 1.39941L2.36328 0.769531ZM3.70703 1.65039C3.54032 1.41701 3.21129 1.37068 2.9873 1.5498L2.2002 2.17969C1.78009 2.51577 1.56004 3.04309 1.61621 3.57812C2.1052 8.22354 5.77646 11.8948 10.4219 12.3838C10.9569 12.44 11.4842 12.2199 11.8203 11.7998L12.4502 11.0127C12.6293 10.7887 12.583 10.4597 12.3496 10.293L10.3984 8.89941C10.1997 8.75755 9.9277 8.77975 9.75488 8.95215L9.09961 9.60742C8.81495 9.89209 8.39364 9.99155 8.01172 9.86426C6.18175 9.25422 4.74578 7.81825 4.13574 5.98828C4.00845 5.60636 4.10791 5.18505 4.39258 4.90039L5.04785 4.24512C5.22025 4.0723 5.24245 3.80028 5.10059 3.60156L3.70703 1.65039ZM10.6465 0.646484C10.8417 0.451222 11.1583 0.451222 11.3535 0.646484L13.3535 2.64648C13.5488 2.84175 13.5488 3.15826 13.3535 3.35352L11.3535 5.35352C11.1583 5.54877 10.8417 5.54875 10.6465 5.35352C10.4512 5.15825 10.4512 4.84175 10.6465 4.64648L11.793 3.5H8.5C8.22387 3.5 8.00001 3.27613 8 3C8 2.72386 8.22386 2.5 8.5 2.5H11.793L10.6465 1.35352L10.582 1.27539C10.4539 1.08131 10.4756 0.817348 10.6465 0.646484Z" fill="#242629"/>
</svg>
