<svg width="14" height="14" viewBox="0 0 14 14" fill="none" xmlns="http://www.w3.org/2000/svg">
<path d="M2.3634 0.769531C3.03526 0.232225 4.02044 0.368454 4.52063 1.06836L5.91418 3.02051C6.34011 3.61697 6.27297 4.43368 5.755 4.95215L5.09973 5.60742C5.08293 5.62423 5.07665 5.64932 5.08411 5.67188C5.5946 7.20336 6.79676 8.40552 8.32825 8.91602C8.35076 8.92338 8.37594 8.91715 8.3927 8.90039L9.04797 8.24512C9.56646 7.72714 10.3831 7.65997 10.9796 8.08594L12.9318 9.47949C13.6316 9.97972 13.7679 10.9649 13.2306 11.6367L12.6007 12.4248C12.0517 13.1109 11.1904 13.4698 10.3165 13.3779C5.20203 12.8394 1.16077 8.79809 0.622192 3.68359C0.530216 2.80965 0.889207 1.94847 1.57532 1.39941L2.3634 0.769531ZM3.70715 1.65039C3.54047 1.41704 3.21141 1.37078 2.98743 1.5498L2.20032 2.17969C1.78021 2.51577 1.56016 3.04309 1.61633 3.57812C2.10532 8.22354 5.77658 11.8948 10.422 12.3838C10.957 12.4399 11.4844 12.2199 11.8204 11.7998L12.4503 11.0127C12.6293 10.7887 12.583 10.4597 12.3497 10.293L10.3986 8.89941C10.1999 8.75758 9.92783 8.77983 9.755 8.95215L9.09973 9.60742C8.8151 9.89205 8.39372 9.99148 8.01184 9.86426C6.18187 9.25422 4.74591 7.81825 4.13586 5.98828C4.00856 5.60635 4.10803 5.18506 4.3927 4.90039L5.04797 4.24512C5.22028 4.07231 5.2425 3.80024 5.10071 3.60156L3.70715 1.65039ZM10.1466 0.646484C10.3419 0.451372 10.6584 0.451272 10.8536 0.646484C11.0244 0.817304 11.0461 1.08135 10.9181 1.27539L10.8536 1.35352L9.70715 2.5H13.0001C13.2761 2.50012 13.5001 2.72397 13.5001 3C13.5001 3.27607 13.2762 3.49988 13.0001 3.5H9.70715L10.8536 4.64648C11.0488 4.8417 11.0487 5.15827 10.8536 5.35352C10.6584 5.54875 10.3419 5.5487 10.1466 5.35352L8.14661 3.35352C7.95134 3.15825 7.95134 2.84175 8.14661 2.64648L10.1466 0.646484Z" fill="#242629"/>
</svg>
