<svg width="14" height="14" viewBox="0 0 14 14" fill="none" xmlns="http://www.w3.org/2000/svg">
<path d="M9.04626 8.24512C9.56451 7.72687 10.3823 7.65944 10.9789 8.08496L12.9301 9.47949C13.6303 9.97965 13.7674 10.9648 13.2299 11.6367L12.6 12.4248C12.0509 13.111 11.1898 13.4699 10.3158 13.3779C8.53607 13.1905 6.88503 12.5784 5.46716 11.6445L5.74255 11.2275L6.01697 10.8096C7.30426 11.6574 8.80327 12.2134 10.4203 12.3838C10.9554 12.4401 11.4825 12.2198 11.8187 11.7998L12.4486 11.0117C12.6277 10.7877 12.5824 10.4597 12.349 10.293L10.3978 8.89941C10.199 8.75769 9.926 8.77944 9.7533 8.95215L9.099 9.60742C8.81433 9.89207 8.39302 9.99155 8.01111 9.86426C7.81424 9.79862 7.62122 9.72292 7.43396 9.63867C7.18265 9.52513 7.0698 9.22912 7.18298 8.97754C7.29625 8.72623 7.59258 8.61399 7.84412 8.72656C8.00078 8.79704 8.16272 8.86106 8.32751 8.91602C8.35001 8.92338 8.3752 8.91713 8.39197 8.90039L9.04626 8.24512ZM2.36267 0.769531C3.03444 0.232202 4.01961 0.368679 4.5199 1.06836L5.91345 3.01953C6.33965 3.61621 6.27179 4.43366 5.7533 4.95215L5.099 5.60742C5.08229 5.62415 5.07609 5.64942 5.08337 5.67188C5.2843 6.27464 5.59456 6.82519 5.98767 7.30371L12.1459 1.14648C12.3411 0.951309 12.6576 0.951482 12.8529 1.14648C13.0482 1.34175 13.0482 1.65825 12.8529 1.85352L1.85291 12.8535C1.65763 13.0486 1.34109 13.0487 1.14587 12.8535C0.950921 12.6583 0.950846 12.3417 1.14587 12.1465L3.40759 9.88379C1.88354 8.21297 0.872132 6.064 0.62146 3.68262C0.529776 2.80894 0.888682 1.94831 1.57458 1.39941L2.36267 0.769531ZM5.32458 10.9521C5.47633 10.7219 5.78646 10.6583 6.01697 10.8096L5.46716 11.6445C5.2371 11.4925 5.17284 11.1825 5.32458 10.9521ZM3.70642 1.64941C3.53956 1.41653 3.21049 1.37077 2.98669 1.5498L2.19958 2.17969C1.77959 2.51572 1.55952 3.04321 1.6156 3.57812C1.84158 5.72492 2.74833 7.66289 4.1156 9.17578L5.27771 8.01367C4.7781 7.42469 4.38583 6.74027 4.13513 5.98828C4.00805 5.60648 4.10742 5.18495 4.39197 4.90039L5.04626 4.24512C5.21903 4.07235 5.24186 3.80043 5.09998 3.60156L3.70642 1.64941Z" fill="#242629"/>
</svg>
