<svg width="14" height="14" viewBox="0 0 14 14" fill="none" xmlns="http://www.w3.org/2000/svg">
<g clip-path="url(#clip0_19835_2407)">
<path d="M2.36377 0.769531C3.03563 0.232225 4.0208 0.368454 4.521 1.06836L5.91455 3.02051C6.34048 3.61697 6.27333 4.43368 5.75537 4.95215L5.1001 5.60742C5.08329 5.62423 5.07701 5.64932 5.08447 5.67188C5.59497 7.20336 6.79713 8.40552 8.32861 8.91602C8.35112 8.92338 8.37631 8.91715 8.39307 8.90039L9.04834 8.24512C9.56683 7.72714 10.3835 7.65997 10.98 8.08594L12.9321 9.47949C13.6319 9.97972 13.7683 10.9649 13.231 11.6367L12.6011 12.4248C12.052 13.1109 11.1908 13.4698 10.3169 13.3779C5.2024 12.8394 1.16114 8.79809 0.622559 3.68359C0.530582 2.80965 0.889574 1.94847 1.57568 1.39941L2.36377 0.769531ZM3.70752 1.65039C3.54084 1.41704 3.21178 1.37078 2.98779 1.5498L2.20068 2.17969C1.78058 2.51577 1.56052 3.04309 1.6167 3.57812C2.10569 8.22354 5.77695 11.8948 10.4224 12.3838C10.9573 12.4399 11.4847 12.2199 11.8208 11.7998L12.4507 11.0127C12.6297 10.7887 12.5834 10.4597 12.3501 10.293L10.3989 8.89941C10.2002 8.75758 9.9282 8.77983 9.75537 8.95215L9.1001 9.60742C8.81547 9.89205 8.39409 9.99148 8.01221 9.86426C6.18224 9.25422 4.74627 7.81825 4.13623 5.98828C4.00892 5.60635 4.10839 5.18506 4.39307 4.90039L5.04834 4.24512C5.22064 4.07231 5.24287 3.80024 5.10107 3.60156L3.70752 1.65039Z" fill="#242629"/>
</g>
<defs>
<clipPath id="clip0_19835_2407">
<rect width="14" height="14" fill="white"/>
</clipPath>
</defs>
</svg>
