<svg width="14" height="14" viewBox="0 0 14 14" fill="none" xmlns="http://www.w3.org/2000/svg">
<path d="M2.36328 0.769531C3.03514 0.232124 4.02028 0.368426 4.52051 1.06836L5.91406 3.02051C6.34006 3.61701 6.27295 4.43367 5.75488 4.95215L5.09961 5.60742C5.08281 5.62422 5.07654 5.64933 5.08398 5.67188C5.59448 7.20336 6.79664 8.40552 8.32812 8.91602C8.35067 8.92346 8.37578 8.91719 8.39258 8.90039L9.04785 8.24512C9.56633 7.72705 10.383 7.65994 10.9795 8.08594L12.9316 9.47949C13.6316 9.97972 13.7679 10.9649 13.2305 11.6367L12.6006 12.4248C12.0515 13.1109 11.1904 13.4699 10.3164 13.3779C5.20191 12.8394 1.16065 8.79809 0.62207 3.68359C0.530094 2.80965 0.889085 1.94847 1.5752 1.39941L2.36328 0.769531ZM3.70703 1.65039C3.54032 1.41701 3.21129 1.37068 2.9873 1.5498L2.2002 2.17969C1.78009 2.51577 1.56003 3.04309 1.61621 3.57812C2.1052 8.22354 5.77646 11.8948 10.4219 12.3838C10.9569 12.44 11.4842 12.2199 11.8203 11.7998L12.4502 11.0127C12.6293 10.7887 12.583 10.4597 12.3496 10.293L10.3984 8.89941C10.1997 8.75755 9.9277 8.77974 9.75488 8.95215L9.09961 9.60742C8.81494 9.89209 8.39364 9.99155 8.01172 9.86426C6.18175 9.25422 4.74578 7.81825 4.13574 5.98828C4.00845 5.60636 4.10791 5.18506 4.39258 4.90039L5.04785 4.24512C5.22026 4.0723 5.24245 3.80028 5.10059 3.60156L3.70703 1.65039ZM12.1465 1.14648C12.3418 0.95128 12.6583 0.951242 12.8535 1.14648C13.0488 1.34173 13.0487 1.65825 12.8535 1.85352L9.70703 5H11.5L11.6006 5.00977C11.8285 5.0563 12 5.25833 12 5.5C12 5.77612 11.7761 5.99997 11.5 6H8.5C8.36739 6 8.24025 5.94728 8.14648 5.85352C8.05272 5.75975 8 5.63261 8 5.5V2.5C8.00003 2.22388 8.22388 2 8.5 2C8.7761 2.00003 8.99997 2.2239 9 2.5V4.29297L12.1465 1.14648Z" fill="#242629"/>
</svg>
