<svg width="14" height="14" viewBox="0 0 14 14" fill="none" xmlns="http://www.w3.org/2000/svg">
<g clip-path="url(#clip0_19835_2418)">
<path d="M2.36377 0.769775C3.03563 0.232469 4.0208 0.368699 4.521 1.0686L5.91455 3.02075C6.34048 3.61721 6.27333 4.43392 5.75537 4.95239L5.1001 5.60767C5.08329 5.62447 5.07701 5.64956 5.08447 5.67212C5.59497 7.2036 6.79713 8.40577 8.32861 8.91626C8.35112 8.92363 8.37631 8.9174 8.39307 8.90063L9.04834 8.24536C9.56683 7.72738 10.3835 7.66021 10.98 8.08618L12.9321 9.47974C13.6319 9.97996 13.7683 10.9651 13.231 11.637L12.6011 12.425C12.052 13.1111 11.1908 13.4701 10.3169 13.3782C5.2024 12.8396 1.16114 8.79834 0.622559 3.68384C0.530582 2.80989 0.889574 1.94872 1.57568 1.39966L2.36377 0.769775ZM3.70752 1.65063C3.54084 1.41728 3.21178 1.37102 2.98779 1.55005L2.20068 2.17993C1.78058 2.51602 1.56052 3.04333 1.6167 3.57837C2.10569 8.22378 5.77695 11.895 10.4224 12.384C10.9573 12.4401 11.4847 12.2201 11.8208 11.8L12.4507 11.0129C12.6297 10.789 12.5834 10.4599 12.3501 10.2932L10.3989 8.89966C10.2002 8.75782 9.9282 8.78007 9.75537 8.95239L9.1001 9.60767C8.81547 9.89229 8.39409 9.99172 8.01221 9.8645C6.18224 9.25446 4.74627 7.81849 4.13623 5.98853C4.00892 5.6066 4.10839 5.18531 4.39307 4.90063L5.04834 4.24536C5.22064 4.07255 5.24287 3.80048 5.10107 3.60181L3.70752 1.65063ZM12.2222 1.08423C12.3755 0.982002 12.5733 0.972964 12.7358 1.05981C12.8981 1.1469 12.9995 1.31603 12.9995 1.50024V6.00024C12.9994 6.27633 12.7756 6.50024 12.4995 6.50024C12.2236 6.50001 11.9996 6.27619 11.9995 6.00024V2.43384L11.2769 2.91626C11.0471 3.06914 10.7366 3.00723 10.5835 2.77759C10.4305 2.54795 10.4927 2.23746 10.7222 2.08423L12.2222 1.08423Z" fill="#242629"/>
</g>
<defs>
<clipPath id="clip0_19835_2418">
<rect width="14" height="14" fill="white"/>
</clipPath>
</defs>
</svg>
