<svg width="14" height="14" viewBox="0 0 14 14" fill="none" xmlns="http://www.w3.org/2000/svg">
<g clip-path="url(#clip0_19835_1936)">
<path d="M7 0.5C10.5899 0.5 13.5 3.41015 13.5 7C13.5 10.5899 10.5899 13.5 7 13.5C3.41015 13.5 0.5 10.5899 0.5 7C0.5 3.41015 3.41015 0.5 7 0.5ZM6 1.5918C3.43998 2.06213 1.5 4.304 1.5 7C1.5 10.0376 3.96243 12.5 7 12.5C9.696 12.5 11.9379 10.56 12.4082 8H8.90039C8.48862 8 8.14923 8.00002 7.87402 7.97754C7.59302 7.95457 7.33443 7.90585 7.0918 7.78223C6.71556 7.59049 6.4095 7.28445 6.21777 6.9082C6.09415 6.66557 6.04543 6.40698 6.02246 6.12598C5.99998 5.85077 6 5.51139 6 5.09961V1.5918ZM7 5.09961C7 5.52789 7.00017 5.81988 7.01855 6.04492C7.03647 6.26383 7.06956 6.37595 7.10938 6.4541C7.20521 6.64206 7.35794 6.79478 7.5459 6.89062C7.62404 6.93044 7.73617 6.96353 7.95508 6.98145C8.18012 6.99983 8.47212 7 8.90039 7H12.5C12.5 4.05741 10.1892 1.65422 7.2832 1.50684L7 1.5V5.09961Z" fill="#242629"/>
</g>
<defs>
<clipPath id="clip0_19835_1936">
<rect width="14" height="14" fill="white"/>
</clipPath>
</defs>
</svg>
