<svg width="14" height="14" viewBox="0 0 14 14" fill="none" xmlns="http://www.w3.org/2000/svg">
<path d="M3.80469 1.13867C4.18661 1.10126 4.55892 1.2251 4.93945 1.40527C5.32254 1.58669 5.79059 1.86365 6.375 2.20898L10.2578 4.50293C10.8248 4.83799 11.2802 5.10682 11.6152 5.34863C11.9487 5.5893 12.23 5.8495 12.3818 6.19434C12.6078 6.7077 12.6078 7.2923 12.3818 7.80566C12.23 8.15046 11.9487 8.41071 11.6152 8.65137C11.2802 8.89318 10.8248 9.16201 10.2578 9.49707L6.375 11.791C5.79059 12.1363 5.32253 12.4133 4.93945 12.5947C4.55894 12.7749 4.1866 12.8987 3.80469 12.8613C3.23797 12.8057 2.72189 12.5114 2.38574 12.0518C2.15925 11.742 2.07656 11.3587 2.03809 10.9395C1.99936 10.5173 2 9.97299 2 9.29395V4.70605C2 4.02701 1.99937 3.48274 2.03809 3.06055C2.07655 2.64131 2.15927 2.25801 2.38574 1.94824C2.72189 1.48856 3.23795 1.1943 3.80469 1.13867ZM3.90234 2.13379C3.61899 2.16161 3.36045 2.30826 3.19238 2.53809C3.12978 2.62375 3.068 2.78315 3.03418 3.15137C3.00064 3.51703 3 4.00721 3 4.70605V9.29395C3 9.9928 3.00063 10.483 3.03418 10.8486C3.06801 11.2169 3.12976 11.3763 3.19238 11.4619C3.36045 11.6917 3.619 11.8384 3.90234 11.8662C4.00798 11.8766 4.17718 11.8498 4.51172 11.6914C4.84353 11.5343 5.26478 11.2851 5.86621 10.9297L9.74902 8.63574C10.3329 8.29071 10.7412 8.04942 11.0303 7.84082C11.3206 7.63129 11.4242 7.49987 11.4668 7.40332C11.5799 7.14655 11.5799 6.85345 11.4668 6.59668C11.4242 6.50013 11.3206 6.36874 11.0303 6.15918C10.7412 5.95057 10.3329 5.7093 9.74902 5.36426L5.86621 3.07031C5.26477 2.71492 4.84353 2.46573 4.51172 2.30859C4.17715 2.15018 4.00798 2.12344 3.90234 2.13379Z" fill="#242629"/>
</svg>
