<svg width="14" height="14" viewBox="0 0 14 14" fill="none" xmlns="http://www.w3.org/2000/svg">
<path d="M9.49963 0.999756C9.77571 0.999757 9.99953 1.2237 9.99963 1.49976V2.99976H10.0905C10.4441 2.99976 10.7012 2.99722 10.9244 3.04565C11.6895 3.21207 12.2872 3.80997 12.4537 4.57495C12.5023 4.7982 12.4996 5.05513 12.4996 5.40894V5.49976C12.4996 6.40503 12.5016 6.93084 12.4127 7.37769C12.0576 9.16271 10.6626 10.5577 8.87756 10.9128C8.52006 10.9839 8.11211 10.9964 7.49963 10.9988V12.4998C7.49964 12.7759 7.27578 12.9998 6.99963 12.9998C6.72368 12.9995 6.49964 12.7758 6.49963 12.4998V10.9988C5.8874 10.9964 5.47913 10.9839 5.1217 10.9128C3.33688 10.5576 1.94163 9.16257 1.58655 7.37769C1.49771 6.93087 1.49963 6.40492 1.49963 5.49976V5.40894C1.49963 5.05513 1.49702 4.7982 1.54553 4.57495C1.71198 3.81 2.30991 3.21219 3.07483 3.04565C3.29803 2.99715 3.55511 2.99975 3.90881 2.99976H3.99963V1.49976C3.99974 1.22383 4.22373 0.999965 4.49963 0.999756C4.77571 0.999757 4.99953 1.2237 4.99963 1.49976V2.99976H8.99963V1.49976C8.99974 1.22383 9.22373 0.999964 9.49963 0.999756ZM3.90881 3.99976C3.5027 3.99976 3.37853 4.00225 3.28674 4.02222C2.90457 4.10558 2.60537 4.40466 2.52209 4.78687C2.50213 4.87866 2.49963 5.00266 2.49963 5.40894V5.49976C2.49963 6.45261 2.50227 6.85653 2.56702 7.18237C2.84316 8.57065 3.9288 9.65607 5.31702 9.93237C5.64286 9.99716 6.0468 9.99975 6.99963 9.99976C7.95242 9.99976 8.35642 9.9971 8.68225 9.93237C10.0707 9.6562 11.1561 8.57079 11.4323 7.18237C11.497 6.8565 11.4996 6.45276 11.4996 5.49976V5.40894C11.4996 5.00266 11.4971 4.87866 11.4772 4.78687C11.3938 4.40462 11.0948 4.10547 10.7125 4.02222C10.6208 4.00233 10.4963 3.99976 10.0905 3.99976H3.90881Z" fill="#242629"/>
</svg>
