<svg width="14" height="14" viewBox="0 0 14 14" fill="none" xmlns="http://www.w3.org/2000/svg">
<path d="M1.08655 2.61951C0.71234 1.64636 1.62422 0.669785 2.62073 0.975952L12.2828 3.94861C13.3182 4.26717 13.3182 5.73356 12.2828 6.05212L8.20764 7.30603C8.03474 7.35941 7.90377 7.50211 7.86584 7.67908L6.91077 12.1332C6.68105 13.202 5.20193 13.3177 4.8092 12.2972L1.08655 2.61951ZM2.32678 1.93201C2.12768 1.87102 1.94567 2.06569 2.02014 2.26013L5.74182 11.9379C5.75455 11.9709 5.77045 11.9835 5.78088 11.9896C5.79493 11.9978 5.81702 12.0043 5.84338 12.0023C5.86965 12.0003 5.89026 11.9901 5.90295 11.9799C5.91228 11.9722 5.92574 11.9578 5.93323 11.9232L6.88733 7.46912C7.00118 6.93796 7.39456 6.50988 7.9137 6.34998L11.9889 5.09607C12.0219 5.08591 12.0355 5.071 12.0426 5.06091C12.0517 5.04747 12.0591 5.02626 12.0592 5.00037C12.0592 4.97435 12.0518 4.95332 12.0426 4.93982C12.0356 4.92972 12.0223 4.91496 11.9889 4.90466L2.32678 1.93201Z" fill="#242629"/>
</svg>
