<svg width="14" height="14" viewBox="0 0 14 14" fill="none" xmlns="http://www.w3.org/2000/svg">
<g clip-path="url(#clip0_19835_2147)">
<path d="M9 0.5C9.27614 0.5 9.5 0.723858 9.5 1V2.00391C9.68802 2.00862 9.84402 2.01939 9.9873 2.04785C10.979 2.24512 11.7549 3.02097 11.9521 4.0127C11.9806 4.15598 11.9914 4.31198 11.9961 4.5H13C13.2761 4.5 13.5 4.72386 13.5 5C13.5 5.27614 13.2761 5.5 13 5.5H12V6.5H13C13.2761 6.5 13.5 6.72386 13.5 7C13.5 7.27614 13.2761 7.5 13 7.5H12V8.5H13C13.2761 8.5 13.5 8.72386 13.5 9C13.5 9.27614 13.2761 9.5 13 9.5H11.9961C11.9914 9.68802 11.9806 9.84402 11.9521 9.9873C11.7549 10.979 10.979 11.7549 9.9873 11.9521C9.84403 11.9806 9.68801 11.9904 9.5 11.9951V13C9.5 13.2761 9.27614 13.5 9 13.5C8.72386 13.5 8.5 13.2761 8.5 13V12H7.5V13C7.5 13.2761 7.27614 13.5 7 13.5C6.72386 13.5 6.5 13.2761 6.5 13V12H5.5V13C5.5 13.2761 5.27614 13.5 5 13.5C4.72386 13.5 4.5 13.2761 4.5 13V11.9951C4.31199 11.9904 4.15597 11.9806 4.0127 11.9521C3.02097 11.7549 2.24512 10.979 2.04785 9.9873C2.01939 9.84402 2.00862 9.68802 2.00391 9.5H1C0.723858 9.5 0.5 9.27614 0.5 9C0.5 8.72386 0.723858 8.5 1 8.5H2V7.5H1C0.723858 7.5 0.5 7.27614 0.5 7C0.5 6.72386 0.723858 6.5 1 6.5H2V5.5H1C0.723858 5.5 0.5 5.27614 0.5 5C0.5 4.72386 0.723858 4.5 1 4.5H2.00391C2.00862 4.31198 2.01939 4.15598 2.04785 4.0127C2.24512 3.02097 3.02097 2.24512 4.0127 2.04785C4.15598 2.01939 4.31198 2.00862 4.5 2.00391V1C4.5 0.723858 4.72386 0.5 5 0.5C5.27614 0.5 5.5 0.723858 5.5 1V2H6.5V1C6.5 0.723858 6.72386 0.5 7 0.5C7.27614 0.5 7.5 0.723858 7.5 1V2H8.5V1C8.5 0.723858 8.72386 0.5 9 0.5ZM5 3C4.51138 3 4.33975 3.0029 4.20703 3.0293C3.61233 3.14776 3.14776 3.61233 3.0293 4.20703C3.0029 4.33975 3 4.51138 3 5V9C3 9.48862 3.0029 9.66024 3.0293 9.79297C3.14776 10.3877 3.61233 10.8522 4.20703 10.9707C4.33975 10.9971 4.51138 11 5 11H9C9.48862 11 9.66024 10.9971 9.79297 10.9707C10.3877 10.8522 10.8522 10.3877 10.9707 9.79297C10.9971 9.66024 11 9.48862 11 9V5C11 4.51138 10.9971 4.33975 10.9707 4.20703C10.8522 3.61233 10.3877 3.14776 9.79297 3.0293C9.66024 3.0029 9.48862 3 9 3H5ZM7.00098 4C7.19844 4.00038 7.37706 4.11727 7.45703 4.29785L9.00586 7.79492L9.45605 8.79492L9.48828 8.89062C9.53937 9.11759 9.42548 9.35687 9.20508 9.45605C8.95328 9.56928 8.65725 9.45686 8.54395 9.20508L8.22656 8.5H5.7666L5.45801 9.20117C5.34684 9.45383 5.05152 9.569 4.79883 9.45801C4.54617 9.34684 4.431 9.05152 4.54199 8.79883L4.98242 7.79883L4.9834 7.79688L6.54297 4.29688C6.62342 4.11637 6.80336 3.99976 7.00098 4ZM6.20996 7.5H7.78223L6.99805 5.73047L6.20996 7.5Z" fill="#242629"/>
</g>
<defs>
<clipPath id="clip0_19835_2147">
<rect width="14" height="14" fill="white"/>
</clipPath>
</defs>
</svg>
