<svg width="14" height="14" viewBox="0 0 14 14" fill="none" xmlns="http://www.w3.org/2000/svg">
<path d="M11.5 9C11.776 9.00013 12 9.22394 12 9.5V11H13.5C13.776 11.0001 14 11.2239 14 11.5C14 11.7761 13.776 11.9999 13.5 12H12V13.5C12 13.7761 11.776 13.9999 11.5 14C11.2239 14 11 13.7761 11 13.5V12H9.5C9.22386 12 9 11.7761 9 11.5C9 11.2239 9.22386 11 9.5 11H11V9.5C11 9.22386 11.2239 9 11.5 9ZM8.5 1C9.19178 1 9.74066 1.00003 10.1826 1.03613C10.6304 1.07272 11.0127 1.14901 11.3623 1.32715C11.9265 1.61472 12.3853 2.07347 12.6729 2.6377C12.851 2.98732 12.9273 3.36958 12.9639 3.81738C13 4.25934 13 4.80822 13 5.5V7C13 7.27614 12.7761 7.5 12.5 7.5C12.2239 7.5 12 7.27614 12 7V5.5C12 4.79168 11.9998 4.29023 11.9678 3.89844C11.9362 3.51264 11.8765 3.27691 11.7822 3.0918C11.5905 2.71554 11.2845 2.40951 10.9082 2.21777C10.7231 2.12345 10.4874 2.06377 10.1016 2.03223C9.70977 2.00022 9.20832 2 8.5 2H5.5C4.79168 2 4.29023 2.00022 3.89844 2.03223C3.51264 2.06377 3.27691 2.12345 3.0918 2.21777C2.71554 2.40951 2.40951 2.71554 2.21777 3.0918C2.12345 3.27691 2.06377 3.51264 2.03223 3.89844C2.00022 4.29023 2 4.79168 2 5.5V8.5C2 9.20829 2.00022 9.70977 2.03223 10.1016C2.06377 10.4873 2.12346 10.7231 2.21777 10.9082C2.40951 11.2844 2.71555 11.5905 3.0918 11.7822C3.27691 11.8765 3.51265 11.9362 3.89844 11.9678C4.29023 11.9998 4.79171 12 5.5 12H7.5L7.60059 12.0098C7.82854 12.0563 7.99999 12.2583 8 12.5C7.99994 12.7416 7.82843 12.9427 7.60059 12.9893L7.5 13H5.5C4.80822 13 4.25933 13 3.81738 12.9639C3.36957 12.9273 2.98733 12.851 2.6377 12.6729C2.07348 12.3853 1.61473 11.9265 1.32715 11.3623C1.149 11.0127 1.07272 10.6304 1.03613 10.1826C1.00002 9.74066 1 9.19178 1 8.5V5.5C1 4.80822 1.00003 4.25934 1.03613 3.81738C1.07272 3.36958 1.14901 2.98732 1.32715 2.6377C1.61472 2.07347 2.07347 1.61472 2.6377 1.32715C2.98732 1.14901 3.36958 1.07272 3.81738 1.03613C4.25934 1.00003 4.80822 1 5.5 1H8.5ZM7.5 9.5C7.77614 9.5 8 9.72386 8 10C8 10.2761 7.77614 10.5 7.5 10.5H4C3.72386 10.5 3.5 10.2761 3.5 10C3.5 9.72386 3.72386 9.5 4 9.5H7.5ZM10 7.5C10.2761 7.5 10.5 7.72386 10.5 8C10.5 8.27614 10.2761 8.5 10 8.5H4C3.72386 8.5 3.5 8.27614 3.5 8C3.5 7.72386 3.72386 7.5 4 7.5H10ZM5.38574 3.50684C5.50016 3.51429 5.62583 3.53164 5.75391 3.58203C6.05792 3.70166 6.29834 3.94208 6.41797 4.24609C6.46836 4.37417 6.48571 4.49984 6.49316 4.61426C6.50032 4.7244 6.5 4.85617 6.5 5C6.5 5.14383 6.50032 5.2756 6.49316 5.38574C6.48571 5.50016 6.46836 5.62583 6.41797 5.75391C6.29834 6.05792 6.05792 6.29834 5.75391 6.41797C5.62583 6.46836 5.50016 6.48571 5.38574 6.49316C5.2756 6.50032 5.14383 6.5 5 6.5C4.85617 6.5 4.7244 6.50032 4.61426 6.49316C4.49984 6.48571 4.37417 6.46836 4.24609 6.41797C3.94208 6.29834 3.70166 6.05792 3.58203 5.75391C3.53164 5.62583 3.51429 5.50016 3.50684 5.38574C3.49968 5.2756 3.5 5.14383 3.5 5C3.5 4.85617 3.49968 4.7244 3.50684 4.61426C3.51429 4.49984 3.53164 4.37417 3.58203 4.24609C3.70166 3.94208 3.94208 3.70166 4.24609 3.58203C4.37417 3.53164 4.49984 3.51429 4.61426 3.50684C4.7244 3.49968 4.85617 3.5 5 3.5C5.14383 3.5 5.2756 3.49968 5.38574 3.50684ZM4.67871 4.50488C4.63798 4.50755 4.6189 4.51121 4.6123 4.5127C4.5666 4.53068 4.53068 4.5666 4.5127 4.6123C4.51121 4.6189 4.50755 4.63798 4.50488 4.67871C4.50031 4.74886 4.5 4.84299 4.5 5C4.5 5.15701 4.50031 5.25114 4.50488 5.32129C4.50755 5.36202 4.51121 5.3811 4.5127 5.3877C4.53068 5.4334 4.5666 5.46932 4.6123 5.4873C4.6189 5.48879 4.63798 5.49245 4.67871 5.49512C4.74886 5.49969 4.84299 5.5 5 5.5C5.15701 5.5 5.25114 5.49969 5.32129 5.49512C5.36202 5.49245 5.3811 5.48879 5.3877 5.4873C5.4334 5.46932 5.46932 5.4334 5.4873 5.3877C5.48879 5.3811 5.49245 5.36202 5.49512 5.32129C5.49969 5.25114 5.5 5.15701 5.5 5C5.5 4.84299 5.49969 4.74886 5.49512 4.67871C5.49245 4.63798 5.48879 4.6189 5.4873 4.6123C5.46932 4.5666 5.4334 4.53068 5.3877 4.5127C5.3811 4.51121 5.36202 4.50755 5.32129 4.50488C5.25114 4.50031 5.15701 4.5 5 4.5C4.84299 4.5 4.74886 4.50031 4.67871 4.50488Z" fill="#242629"/>
</svg>
