<svg width="14" height="14" viewBox="0 0 14 14" fill="none" xmlns="http://www.w3.org/2000/svg">
<g clip-path="url(#clip0_19835_2321)">
<path d="M10.5002 8C11.881 8 13.0002 9.11929 13.0002 10.5C13.0002 11.0095 12.8469 11.4827 12.5852 11.8779L13.8538 13.1465L13.9182 13.2246C14.0464 13.4187 14.0246 13.6827 13.8538 13.8535C13.6829 14.0244 13.4189 14.0461 13.2249 13.918L13.1467 13.8535L11.8782 12.585C11.483 12.8467 11.0097 13 10.5002 13C9.11953 13 8.00024 11.8807 8.00024 10.5C8.00024 9.11929 9.11953 8 10.5002 8ZM10.0002 1C11.6571 1 13.0002 2.34315 13.0002 4V6.5C13.0002 6.77614 12.7764 7 12.5002 7C12.2241 7 12.0002 6.77614 12.0002 6.5V4C12.0002 2.89543 11.1048 2 10.0002 2H4.00024C2.89567 2 2.00024 2.89543 2.00024 4V10C2.00024 11.1046 2.89567 12 4.00024 12H6.50024C6.77639 12 7.00024 12.2239 7.00024 12.5C7.00024 12.7761 6.77639 13 6.50024 13H4.00024C2.34339 13 1.00024 11.6569 1.00024 10V4C1.00024 2.34315 2.34339 1 4.00024 1H10.0002ZM10.5002 9C9.67182 9 9.00024 9.67157 9.00024 10.5C9.00024 11.3284 9.67182 12 10.5002 12C11.3287 12 12.0002 11.3284 12.0002 10.5C12.0002 9.67157 11.3287 9 10.5002 9ZM6.50024 9.5C6.77639 9.5 7.00024 9.72386 7.00024 10C7.00024 10.2761 6.77639 10.5 6.50024 10.5H4.00024C3.7241 10.5 3.50024 10.2761 3.50024 10C3.50024 9.72386 3.7241 9.5 4.00024 9.5H6.50024ZM7.50024 7.5C7.77639 7.5 8.00024 7.72386 8.00024 8C8.00024 8.27614 7.77639 8.5 7.50024 8.5H4.00024C3.7241 8.5 3.50024 8.27614 3.50024 8C3.50024 7.72386 3.7241 7.5 4.00024 7.5H7.50024ZM5.32349 3.5C5.97335 3.50009 6.50015 4.02689 6.50024 4.67676V5.32324C6.50015 5.97311 5.97335 6.49991 5.32349 6.5H4.677C4.02714 6.49991 3.50033 5.97311 3.50024 5.32324V4.67676C3.50033 4.02689 4.02714 3.50009 4.677 3.5H5.32349ZM4.677 4.5C4.57942 4.50009 4.50033 4.57918 4.50024 4.67676V5.32324C4.50033 5.42082 4.57942 5.49991 4.677 5.5H5.32349C5.42107 5.49991 5.50015 5.42082 5.50024 5.32324V4.67676C5.50015 4.57918 5.42107 4.50009 5.32349 4.5H4.677Z" fill="#242629"/>
</g>
<defs>
<clipPath id="clip0_19835_2321">
<rect width="14" height="14" fill="white"/>
</clipPath>
</defs>
</svg>
