<svg width="14" height="14" viewBox="0 0 14 14" fill="none" xmlns="http://www.w3.org/2000/svg">
<path d="M10.0002 1C11.6571 1 13.0002 2.34315 13.0002 4V10C13.0002 11.6569 11.6571 13 10.0002 13H7.50024C7.2241 13 7.00024 12.7761 7.00024 12.5C7.00024 12.2239 7.2241 12 7.50024 12H10.0002C11.1048 12 12.0002 11.1046 12.0002 10V4C12.0002 2.89543 11.1048 2 10.0002 2H4.00024C2.89567 2 2.00024 2.89543 2.00024 4V6.5C2.00024 6.77614 1.77639 7 1.50024 7C1.2241 7 1.00024 6.77614 1.00024 6.5V4C1.00024 2.34315 2.34339 1 4.00024 1H10.0002ZM5.00024 8.5C5.27624 8.50014 5.50019 8.72399 5.50024 9V11.499L5.4895 11.6006C5.44287 11.8283 5.24171 11.9999 5.00024 12C4.72425 12 4.50045 11.776 4.50024 11.5L4.49927 10.207L2.35376 12.3535L2.27563 12.418C2.08172 12.5459 1.81754 12.524 1.64673 12.3535C1.45174 12.1583 1.45185 11.8417 1.64673 11.6465L3.79224 9.49902H2.49927C2.22331 9.49877 1.99924 9.27503 1.99927 8.99902C1.99954 8.72308 2.22425 8.49997 2.50024 8.5H5.00024ZM8.60083 9.50977C8.82861 9.55639 9.00019 9.75843 9.00024 10C9.00011 10.2759 8.77615 10.4998 8.50024 10.5H7.50024C7.22424 10.5 7.00044 10.276 7.00024 10C7.00037 9.72403 7.22422 9.50007 7.50024 9.5H8.50024L8.60083 9.50977ZM10.0002 7.5C10.2763 7.50013 10.5002 7.72394 10.5002 8C10.5002 8.27606 10.2763 8.49987 10.0002 8.5H7.50024C7.2241 8.5 7.00024 8.27614 7.00024 8C7.00024 7.72386 7.2241 7.5 7.50024 7.5H10.0002ZM5.32349 3.5C5.97335 3.50009 6.50015 4.02689 6.50024 4.67676V5.32324C6.50015 5.97311 5.97335 6.49991 5.32349 6.5H4.677C4.02714 6.49991 3.50033 5.97311 3.50024 5.32324V4.67676C3.50033 4.02689 4.02714 3.50009 4.677 3.5H5.32349ZM4.677 4.5C4.57942 4.50009 4.50033 4.57918 4.50024 4.67676V5.32324C4.50033 5.42082 4.57942 5.49991 4.677 5.5H5.32349C5.42107 5.49991 5.50015 5.42082 5.50024 5.32324V4.67676C5.50015 4.57918 5.42107 4.50009 5.32349 4.5H4.677Z" fill="#242629"/>
</svg>
