<svg width="14" height="14" viewBox="0 0 14 14" fill="none" xmlns="http://www.w3.org/2000/svg">
<path d="M12.4996 1C12.7758 1 12.9996 1.22386 12.9996 1.5V4C12.9996 4.82842 12.3281 5.5 11.4996 5.5H8.99963C8.72371 5.49975 8.49964 5.27598 8.49963 5C8.49963 4.72401 8.72371 4.50025 8.99963 4.5H11.3297C10.7984 3.57987 9.98759 2.85317 9.01526 2.4248C8.04291 1.99653 6.95902 1.88813 5.92151 2.11719C4.8841 2.34633 3.94631 2.9004 3.24475 3.69824C2.54318 4.4962 2.11362 5.49735 2.01917 6.55566C1.92476 7.61393 2.17019 8.67542 2.71936 9.58496C3.26852 10.4943 4.09356 11.2051 5.07385 11.6143C6.05439 12.0234 7.14065 12.1097 8.17346 11.8604C9.20621 11.6109 10.1332 11.039 10.819 10.2275C10.9971 10.0168 11.3122 9.9901 11.5231 10.168C11.734 10.3462 11.7609 10.6621 11.5826 10.873C10.7596 11.8468 9.64723 12.5328 8.40784 12.832C7.16845 13.1312 5.86575 13.0281 4.68909 12.5371C3.51244 12.046 2.52198 11.193 1.86292 10.1016C1.20395 9.01013 0.909786 7.73669 1.02307 6.4668C1.13641 5.19682 1.65189 3.99564 2.49377 3.03809C3.33563 2.08067 4.46081 1.41562 5.70569 1.14062C6.95069 0.865755 8.25177 0.994874 9.41858 1.50879C10.4716 1.97266 11.3665 2.72899 11.9996 3.68359V1.5C11.9996 1.22401 12.2237 1.00025 12.4996 1Z" fill="#242629"/>
</svg>
