<svg width="14" height="14" viewBox="0 0 14 14" fill="none" xmlns="http://www.w3.org/2000/svg">
<path d="M10.4996 6.99963C10.6619 6.99963 10.7902 7.06708 10.858 7.10901C10.9371 7.15792 11.0089 7.22021 11.0719 7.28284C11.1991 7.40931 11.3278 7.57857 11.4459 7.77795C11.64 8.10561 11.8215 8.54231 11.9313 9.06702C12.4564 9.17667 12.8934 9.35914 13.2213 9.55334C13.4205 9.67133 13.59 9.79936 13.7164 9.92639C13.7791 9.9894 13.8413 10.0622 13.8903 10.1412C13.9321 10.209 13.9995 10.3372 13.9996 10.4996C13.9996 10.6622 13.9322 10.7902 13.8903 10.858C13.8413 10.9373 13.7792 11.0088 13.7164 11.0719C13.5899 11.1992 13.4209 11.3277 13.2213 11.4459C12.8934 11.6402 12.4565 11.8216 11.9313 11.9313C11.8216 12.4565 11.6402 12.8934 11.4459 13.2213C11.3277 13.4209 11.1992 13.5899 11.0719 13.7164C11.0088 13.7792 10.9373 13.8413 10.858 13.8903C10.7902 13.9322 10.6622 13.9996 10.4996 13.9996C10.3372 13.9995 10.209 13.9321 10.1412 13.8903C10.0622 13.8413 9.99037 13.7791 9.92737 13.7164C9.80018 13.5899 9.67148 13.4207 9.55334 13.2213C9.35914 12.8934 9.17667 12.4564 9.06702 11.9313C8.54232 11.8215 8.10561 11.64 7.77795 11.4459C7.57857 11.3277 7.40931 11.1991 7.28284 11.0719C7.22021 11.0089 7.15793 10.9371 7.10901 10.858C7.07762 10.8072 7.03232 10.7222 7.01135 10.6149L6.99963 10.4996L7.01135 10.3844C7.03238 10.2769 7.07763 10.192 7.10901 10.1412C7.15801 10.062 7.22011 9.98948 7.28284 9.92639C7.40933 9.79927 7.57868 9.67142 7.77795 9.55334C8.10568 9.3592 8.54217 9.17674 9.06702 9.06702C9.17674 8.54216 9.35919 8.10568 9.55334 7.77795C9.67156 7.57844 9.80009 7.40938 9.92737 7.28284C9.99045 7.22013 10.062 7.158 10.1412 7.10901C10.209 7.06713 10.3372 6.99973 10.4996 6.99963ZM12.4996 0.999634C12.7757 0.999634 12.9995 1.22364 12.9996 1.49963V3.99963C12.9996 4.82806 12.3281 5.49963 11.4996 5.49963H8.99963C8.72366 5.49944 8.49963 5.27566 8.49963 4.99963C8.49981 4.72376 8.72377 4.49983 8.99963 4.49963H11.3287C10.9838 3.90259 10.5185 3.3809 9.95959 2.97034C9.25241 2.45101 8.42055 2.12622 7.54846 2.02991C6.67624 1.93372 5.79337 2.06878 4.98987 2.42151C4.18642 2.77428 3.48984 3.3325 2.97034 4.03967C2.4509 4.74687 2.12627 5.57866 2.02991 6.45081C1.93365 7.32301 2.06886 8.20589 2.42151 9.0094C2.77422 9.8128 3.33261 10.5094 4.03967 11.0289C4.74684 11.5483 5.5787 11.873 6.45081 11.9694C6.72513 11.9996 6.92322 12.2468 6.89319 12.5211C6.86669 12.7612 6.67447 12.943 6.44299 12.9645L6.34143 12.9635L5.95178 12.9078C5.04789 12.7475 4.19059 12.3811 3.44788 11.8356C2.59923 11.2121 1.92881 10.3759 1.50549 9.41174C1.08225 8.44748 0.920253 7.38815 1.03577 6.34143C1.15133 5.29476 1.54035 4.29659 2.1637 3.44788C2.78713 2.59912 3.62327 1.92887 4.58752 1.50549C5.55178 1.08217 6.6111 0.92032 7.65784 1.03577C8.70445 1.15128 9.70268 1.54047 10.5514 2.1637C11.1221 2.58291 11.6113 3.09931 11.9996 3.68518V1.49963C11.9998 1.22376 12.2238 0.999827 12.4996 0.999634ZM10.4137 8.28772C10.2438 8.57459 10.068 9.00993 9.99573 9.56409C9.96642 9.78898 9.78898 9.96642 9.56409 9.99573C9.00993 10.068 8.57458 10.2438 8.28772 10.4137C8.2387 10.4427 8.19612 10.4729 8.15784 10.4996C8.19605 10.5263 8.23883 10.5566 8.28772 10.5856C8.57457 10.7555 9.00998 10.9313 9.56409 11.0035C9.78886 11.0328 9.96628 11.2105 9.99573 11.4352C10.0679 11.9892 10.2438 12.4246 10.4137 12.7115C10.4425 12.7602 10.4731 12.8024 10.4996 12.8405C10.5262 12.8023 10.5567 12.7603 10.5856 12.7115C10.7555 12.4246 10.9313 11.9894 11.0035 11.4352L11.0211 11.3531C11.0777 11.1683 11.2386 11.0293 11.4352 11.0035C11.9894 10.9313 12.4246 10.7555 12.7115 10.5856C12.7603 10.5567 12.8023 10.5262 12.8405 10.4996C12.8024 10.4731 12.7602 10.4425 12.7115 10.4137C12.4246 10.2438 11.9892 10.068 11.4352 9.99573C11.2105 9.96627 11.0328 9.78885 11.0035 9.56409C10.9313 9.00998 10.7555 8.57457 10.5856 8.28772C10.5566 8.23882 10.5263 8.19605 10.4996 8.15784C10.4729 8.19613 10.4428 8.23869 10.4137 8.28772Z" fill="#242629"/>
</svg>
