<svg width="14" height="14" viewBox="0 0 14 14" fill="none" xmlns="http://www.w3.org/2000/svg">
<g clip-path="url(#clip0_19835_1871)">
<path d="M12.082 9.10522C12.1877 8.85013 12.4802 8.72905 12.7354 8.83472C12.99 8.94065 13.1114 9.23316 13.0059 9.48804C12.3695 11.024 11.1453 12.3188 9.4873 13.0056C6.27461 14.3361 2.60607 12.8996 1.13086 9.7937L0.995117 9.48804L0.96582 9.39038C0.921946 9.16222 1.04262 8.92716 1.26562 8.83472C1.48898 8.74222 1.7409 8.82346 1.87109 9.01636L1.91895 9.10522L2.03418 9.36401C3.28256 11.992 6.38703 13.2078 9.10547 12.0818C10.5085 11.5005 11.5431 10.4062 12.082 9.10522ZM3.39648 4.64624C3.59171 4.45115 3.90829 4.45115 4.10352 4.64624L6.10352 6.64624C6.29873 6.84146 6.29865 7.158 6.10352 7.35327L4.10352 9.35327C3.90825 9.54853 3.59175 9.54853 3.39648 9.35327C3.20135 9.158 3.20127 8.84146 3.39648 8.64624L4.54297 7.49976H1C0.723858 7.49976 0.5 7.2759 0.5 6.99976C0.500141 6.72373 0.723945 6.49976 1 6.49976H4.54297L3.39648 5.35327L3.33203 5.27515C3.204 5.08108 3.22567 4.81705 3.39648 4.64624ZM9.89648 4.64624C10.0917 4.45114 10.4083 4.45114 10.6035 4.64624C10.7743 4.81705 10.796 5.08108 10.668 5.27515L10.6035 5.35327L9.45703 6.49976H13C13.2761 6.49976 13.4999 6.72372 13.5 6.99976C13.5 7.2759 13.2761 7.49976 13 7.49976H9.45703L10.6035 8.64624C10.7987 8.84146 10.7987 9.158 10.6035 9.35327C10.4083 9.54853 10.0917 9.54853 9.89648 9.35327L7.89648 7.35327C7.70134 7.158 7.70126 6.84146 7.89648 6.64624L9.89648 4.64624ZM4.5127 0.994873C7.72559 -0.335929 11.395 1.10052 12.8701 4.20679L13.0059 4.51245L13.0352 4.61011C13.0789 4.83805 12.958 5.07324 12.7354 5.16577C12.5124 5.25813 12.2603 5.17727 12.1299 4.98511L12.082 4.89526L11.9668 4.63647C10.7185 2.00825 7.61403 0.792719 4.89551 1.9187C3.4923 2.49993 2.45793 3.59424 1.91895 4.89526C1.81323 5.15013 1.5206 5.2712 1.26562 5.16577C1.01072 5.06006 0.889646 4.76745 0.995117 4.51245C1.63145 2.97649 2.8547 1.68166 4.5127 0.994873Z" fill="#242629"/>
</g>
<defs>
<clipPath id="clip0_19835_1871">
<rect width="14" height="14" fill="white"/>
</clipPath>
</defs>
</svg>
