<svg width="14" height="14" viewBox="0 0 14 14" fill="none" xmlns="http://www.w3.org/2000/svg">
<g clip-path="url(#clip0_27689_141029)">
<path d="M6.27368 1.5697C6.89503 0.913161 7.99985 1.35226 8.00024 2.25623V4.28748C11.1849 5.23479 13.3067 8.40853 13.0305 12.3666C12.9847 13.0201 12.1534 13.092 11.8977 12.5961C10.9019 10.6656 9.51025 9.68009 8.00024 9.25916V10.7426C8.00024 11.647 6.89507 12.0873 6.27368 11.4301L2.26196 7.18689C1.8976 6.80142 1.89761 6.19834 2.26196 5.81287L6.27368 1.5697ZM3.53735 2.03162C3.72705 1.83135 4.04286 1.82264 4.24341 2.01208C4.44381 2.20181 4.45351 2.51854 4.26392 2.71912L0.688721 6.50037L4.26392 10.2816L4.32544 10.3617C4.44806 10.5593 4.41897 10.8227 4.24341 10.9886C4.06798 11.1544 3.80384 11.1687 3.61353 11.0355L3.53735 10.9691L-0.0378418 7.18689C-0.402275 6.80141 -0.402259 6.19934 -0.0378418 5.81384L3.53735 2.03162ZM2.98853 6.49939L7.00024 10.7426V8.63025C7.00049 8.48226 7.06628 8.34128 7.17993 8.24646C7.29376 8.15179 7.44443 8.11247 7.59009 8.13904C9.241 8.44134 10.8063 9.26847 12.0178 10.8988C11.7402 7.91007 9.86544 5.74017 7.38599 5.15759C7.16017 5.10446 7.00029 4.90326 7.00024 4.67126V2.25623L2.98853 6.49939Z" fill="#242629"/>
</g>
<defs>
<clipPath id="clip0_27689_141029">
<rect width="14" height="14" fill="white"/>
</clipPath>
</defs>
</svg>
