<svg width="14" height="14" viewBox="0 0 14 14" fill="none" xmlns="http://www.w3.org/2000/svg">
<path d="M5.27295 1.56982C5.89426 0.912665 6.99924 1.35209 6.99951 2.25635V4.06982C10.7185 4.5928 13.3345 8.00128 13.0298 12.3667C12.984 13.0203 12.1527 13.0921 11.897 12.5962C10.6912 10.2587 8.89851 9.29729 6.99951 9.06201V10.7427C6.99951 11.6472 5.89434 12.0874 5.27295 11.4302L1.26123 7.18701C0.897172 6.80155 0.89703 6.19837 1.26123 5.81299L5.27295 1.56982ZM1.98779 6.49951L5.99951 10.7427V8.51318C5.99967 8.37601 6.05613 8.2442 6.15576 8.1499C6.25549 8.05557 6.39078 8.00666 6.52783 8.01416C8.54644 8.1265 10.5411 8.91241 12.0171 10.8989C11.7072 7.55526 9.39918 5.23555 6.4624 5.01709C6.20169 4.99736 5.99951 4.7796 5.99951 4.51807V2.25635L1.98779 6.49951Z" fill="#242629"/>
</svg>
