<svg width="14" height="14" viewBox="0 0 14 14" fill="none" xmlns="http://www.w3.org/2000/svg">
<path d="M11.5 9C11.776 9.00013 12 9.22394 12 9.5V11H13.5C13.776 11.0001 14 11.2239 14 11.5C14 11.7761 13.776 11.9999 13.5 12H12V13.5C12 13.7761 11.776 13.9999 11.5 14C11.2239 14 11 13.7761 11 13.5V12H9.5C9.22386 12 9 11.7761 9 11.5C9 11.2239 9.22386 11 9.5 11H11V9.5C11 9.22386 11.2239 9 11.5 9ZM8.5 1C9.19178 1 9.74066 1.00003 10.1826 1.03613C10.6304 1.07272 11.0127 1.14901 11.3623 1.32715C11.9265 1.61472 12.3853 2.07347 12.6729 2.6377C12.851 2.98732 12.9273 3.36958 12.9639 3.81738C13 4.25934 13 4.80822 13 5.5V7C13 7.27614 12.7761 7.5 12.5 7.5C12.2239 7.5 12 7.27614 12 7V5.5C12 4.79168 11.9998 4.29023 11.9678 3.89844C11.9362 3.51264 11.8765 3.27691 11.7822 3.0918C11.5905 2.71554 11.2845 2.40951 10.9082 2.21777C10.7231 2.12345 10.4874 2.06377 10.1016 2.03223C9.70977 2.00022 9.20832 2 8.5 2H5.5C4.79168 2 4.29023 2.00022 3.89844 2.03223C3.51264 2.06377 3.27691 2.12345 3.0918 2.21777C2.71554 2.40951 2.40951 2.71554 2.21777 3.0918C2.12345 3.27691 2.06377 3.51264 2.03223 3.89844C2.00022 4.29023 2 4.79168 2 5.5V8.5C2 9.20832 2.00022 9.70977 2.03223 10.1016C2.06377 10.4874 2.12345 10.7231 2.21777 10.9082C2.40951 11.2845 2.71554 11.5905 3.0918 11.7822C3.27691 11.8765 3.51264 11.9362 3.89844 11.9678C4.29023 11.9998 4.79168 12 5.5 12H7.5C7.77614 12 8 12.2239 8 12.5C8 12.7761 7.77614 13 7.5 13H5.5C4.80822 13 4.25934 13 3.81738 12.9639C3.36958 12.9273 2.98732 12.851 2.6377 12.6729C2.07347 12.3853 1.61472 11.9265 1.32715 11.3623C1.14901 11.0127 1.07272 10.6304 1.03613 10.1826C1.00003 9.74066 1 9.19178 1 8.5V5.5C1 4.80822 1.00003 4.25934 1.03613 3.81738C1.07272 3.36958 1.14901 2.98732 1.32715 2.6377C1.61472 2.07347 2.07347 1.61472 2.6377 1.32715C2.98732 1.14901 3.36958 1.07272 3.81738 1.03613C4.25934 1.00003 4.80822 1 5.5 1H8.5ZM4.5 5C4.77614 5 5 5.22386 5 5.5V9.5C5 9.77614 4.77614 10 4.5 10C4.22386 10 4 9.77614 4 9.5V5.5C4 5.22386 4.22386 5 4.5 5ZM7 3.96191C7.27614 3.96191 7.5 4.18577 7.5 4.46191V9.5C7.49974 9.77592 7.27598 10 7 10C6.72402 10 6.50026 9.77592 6.5 9.5V4.46191C6.5 4.18577 6.72386 3.96191 7 3.96191ZM9.5 7C9.77614 7 10 7.22386 10 7.5V9.5C10 9.77614 9.77614 10 9.5 10C9.22386 10 9 9.77614 9 9.5V7.5C9 7.22386 9.22386 7 9.5 7Z" fill="#242629"/>
</svg>
