<svg width="14" height="14" viewBox="0 0 14 14" fill="none" xmlns="http://www.w3.org/2000/svg">
<path d="M8.06958 11.8779C8.20948 11.6399 8.51513 11.5604 8.75317 11.7002C8.99086 11.8402 9.07063 12.1459 8.93091 12.3838C8.86917 12.4888 8.79983 12.5894 8.7229 12.6826C8.31268 13.1797 7.69409 13.4999 7.00024 13.5C6.17538 13.5 5.45986 13.0474 5.06958 12.3838C4.92978 12.1458 5.00931 11.8401 5.24731 11.7002C5.48536 11.5604 5.79101 11.6399 5.93091 11.8779C6.15329 12.2558 6.55245 12.5 7.00024 12.5C7.37803 12.4999 7.71968 12.3267 7.95142 12.0459C7.99473 11.9934 8.03469 11.9372 8.06958 11.8779ZM7.00024 0.5C9.4854 0.500145 11.5002 2.51481 11.5002 5V6.22852C11.5002 7.31935 11.8001 8.38961 12.3674 9.32129C12.8154 10.057 12.2863 10.9996 11.425 11H2.57544C1.71403 10.9998 1.18495 10.0571 1.63306 9.32129C2.20037 8.38964 2.50024 7.3193 2.50024 6.22852V5C2.50025 2.51472 4.51496 0.5 7.00024 0.5ZM7.00024 1.5C5.06725 1.5 3.50025 3.067 3.50024 5V6.22852C3.50024 7.50288 3.14942 8.75338 2.48657 9.8418C2.44461 9.91114 2.49439 9.99977 2.57544 10H11.425C11.5059 9.99957 11.5557 9.91105 11.5139 9.8418C10.851 8.75335 10.5002 7.50293 10.5002 6.22852V5C10.5002 3.06709 8.93312 1.50015 7.00024 1.5Z" fill="#242629"/>
</svg>
