<svg width="14" height="14" viewBox="0 0 14 14" fill="none" xmlns="http://www.w3.org/2000/svg">
<path d="M9.08203 1.5C9.75918 1.5 10.2972 1.49978 10.7305 1.53516C11.1697 1.57104 11.5455 1.646 11.8896 1.82129C12.4445 2.10402 12.896 2.55547 13.1787 3.11035C13.354 3.45446 13.429 3.83032 13.4648 4.26953C13.5002 4.70284 13.5 5.24081 13.5 5.91797V8.08203C13.5 8.75919 13.5002 9.29716 13.4648 9.73047C13.429 10.1697 13.354 10.5455 13.1787 10.8896C12.896 11.4445 12.4445 11.896 11.8896 12.1787C11.5455 12.354 11.1697 12.429 10.7305 12.4648C10.2972 12.5002 9.75918 12.5 9.08203 12.5H4.91797C4.24082 12.5 3.70284 12.5002 3.26953 12.4648C2.83032 12.429 2.45446 12.354 2.11035 12.1787C1.55547 11.896 1.10402 11.4445 0.821289 10.8896C0.645998 10.5455 0.571039 10.1697 0.535156 9.73047C0.499779 9.29716 0.499997 8.75919 0.5 8.08203V5.91797C0.500003 5.24081 0.499777 4.70284 0.535156 4.26953C0.571042 3.83033 0.646007 3.45446 0.821289 3.11035C1.10402 2.55547 1.55547 2.10401 2.11035 1.82129C2.45447 1.64599 2.83032 1.57104 3.26953 1.53516C3.70284 1.49978 4.24082 1.5 4.91797 1.5H9.08203ZM1.50391 9C1.50789 9.24951 1.51596 9.46224 1.53125 9.64941C1.56209 10.0268 1.62134 10.2559 1.71289 10.4355C1.89975 10.8023 2.19773 11.1003 2.56445 11.2871C2.74414 11.3787 2.97317 11.4379 3.35059 11.4688C3.7338 11.5001 4.22417 11.5 4.91797 11.5H9.08203C9.77583 11.5 10.2662 11.5001 10.6494 11.4688C11.0268 11.4379 11.2559 11.3787 11.4355 11.2871C11.8023 11.1003 12.1003 10.8023 12.2871 10.4355C12.3787 10.2559 12.4379 10.0268 12.4688 9.64941C12.484 9.46224 12.4921 9.24951 12.4961 9H1.50391ZM1.5 6V8H12.5V6H1.5ZM4.91797 2.5C4.22418 2.5 3.73379 2.49994 3.35059 2.53125C2.97316 2.56209 2.74415 2.62134 2.56445 2.71289C2.19773 2.89974 1.89975 3.19773 1.71289 3.56445C1.62135 3.74413 1.56306 3.97321 1.53223 4.35059C1.51693 4.53776 1.50813 4.75048 1.50391 5H12.4961C12.4921 4.75049 12.484 4.53776 12.4688 4.35059C12.4379 3.97317 12.3787 3.74414 12.2871 3.56445C12.1003 3.19773 11.8023 2.89975 11.4355 2.71289C11.2559 2.62134 11.0268 2.56209 10.6494 2.53125C10.2662 2.49994 9.77583 2.5 9.08203 2.5H4.91797Z" fill="#242629"/>
</svg>
