<svg width="14" height="14" viewBox="0 0 14 14" fill="none" xmlns="http://www.w3.org/2000/svg">
<path d="M6 0.5C9.03757 0.5 11.5 2.96243 11.5 6C11.5 7.33872 11.0206 8.56482 10.2256 9.51855L12.8535 12.1465L12.918 12.2246C13.0461 12.4187 13.0244 12.6827 12.8535 12.8535C12.6827 13.0244 12.4187 13.0461 12.2246 12.918L12.1465 12.8535L9.51855 10.2256C8.56482 11.0206 7.33872 11.5 6 11.5C2.96243 11.5 0.5 9.03757 0.5 6C0.5 2.96243 2.96243 0.5 6 0.5ZM6 1.5C3.51472 1.5 1.5 3.51472 1.5 6C1.5 8.48528 3.51472 10.5 6 10.5C8.48528 10.5 10.5 8.48528 10.5 6C10.5 3.51472 8.48528 1.5 6 1.5ZM8 5.5C8.27614 5.5 8.5 5.72386 8.5 6C8.49993 6.27609 8.2761 6.5 8 6.5H4C3.7239 6.5 3.50007 6.27609 3.5 6C3.5 5.72386 3.72386 5.5 4 5.5H8Z" fill="#242629"/>
</svg>
