<svg width="14" height="14" viewBox="0 0 14 14" fill="none" xmlns="http://www.w3.org/2000/svg">
<g clip-path="url(#clip0_19835_2125)">
<path d="M10.4998 7C10.6622 7 10.7903 7.06746 10.8582 7.10938C10.9373 7.15834 11.009 7.22051 11.072 7.2832C11.1993 7.40974 11.3278 7.57881 11.446 7.77832C11.6402 8.10605 11.8217 8.54253 11.9314 9.06738C12.4567 9.17705 12.8935 9.35946 13.2214 9.55371C13.4207 9.67176 13.5901 9.79966 13.7166 9.92676C13.7793 9.98983 13.8414 10.0624 13.8904 10.1416C13.9323 10.2094 13.9998 10.3374 13.9998 10.5C13.9997 10.6626 13.9323 10.7906 13.8904 10.8584C13.8414 10.9376 13.7793 11.0092 13.7166 11.0723C13.59 11.1995 13.4209 11.3281 13.2214 11.4463C12.8935 11.6405 12.4566 11.822 11.9314 11.9316C11.8217 12.4569 11.6403 12.8938 11.446 13.2217C11.3278 13.4212 11.1993 13.5903 11.072 13.7168C11.0089 13.7795 10.9373 13.8417 10.8582 13.8906C10.7903 13.9325 10.6622 14 10.4998 14C10.3373 13.9999 10.2091 13.9325 10.1414 13.8906C10.0622 13.8416 9.99054 13.7795 9.92749 13.7168C9.80024 13.5903 9.67166 13.4212 9.55347 13.2217C9.3592 12.8937 9.17682 12.457 9.06714 11.9316C8.54238 11.8219 8.10576 11.6404 7.77808 11.4463C7.57861 11.3281 7.40947 11.1995 7.28296 11.0723C7.22026 11.0092 7.1581 10.9376 7.10913 10.8584C7.07773 10.8076 7.03247 10.7228 7.01147 10.6152L6.99976 10.5L7.01147 10.3848C7.03246 10.2772 7.07773 10.1924 7.10913 10.1416C7.1581 10.0624 7.22026 9.98984 7.28296 9.92676C7.40943 9.79965 7.57884 9.67177 7.77808 9.55371C8.1058 9.35957 8.54229 9.1771 9.06714 9.06738C9.17684 8.54248 9.35931 8.10609 9.55347 7.77832C9.67166 7.57883 9.80024 7.40975 9.92749 7.2832C9.99054 7.22052 10.0622 7.15836 10.1414 7.10938C10.2091 7.06749 10.3373 7.00008 10.4998 7ZM7.49976 0.5C10.5373 0.5 12.9998 2.96243 12.9998 6C12.9998 6.27614 12.7759 6.5 12.4998 6.5C12.2237 6.49984 11.9998 6.27605 11.9998 6C11.9998 3.51472 9.98504 1.5 7.49976 1.5C5.01461 1.50016 2.99976 3.51481 2.99976 6C2.99976 7.84442 4.10972 9.43106 5.69995 10.126C5.95294 10.2366 6.06831 10.5312 5.95776 10.7842C5.84714 11.0371 5.55254 11.1525 5.29956 11.042C4.82024 10.8325 4.37679 10.5562 3.98022 10.2256L1.35327 12.8535L1.27515 12.918C1.08109 13.046 0.817045 13.0243 0.64624 12.8535C0.475548 12.6827 0.453757 12.4186 0.581787 12.2246L0.64624 12.1465L3.27515 9.5166C2.48064 8.56323 1.99976 7.33866 1.99976 6C1.99976 2.96253 4.46232 0.500156 7.49976 0.5ZM10.4138 8.28809C10.2439 8.57501 10.0681 9.01025 9.99585 9.56445C9.96653 9.78933 9.78909 9.96679 9.56421 9.99609C9.01004 10.0684 8.57471 10.2441 8.28784 10.4141C8.23886 10.4431 8.19622 10.4733 8.15796 10.5C8.19622 10.5267 8.23886 10.5569 8.28784 10.5859C8.57471 10.7559 9.01005 10.9316 9.56421 11.0039C9.78909 11.0332 9.96653 11.2107 9.99585 11.4355C10.0681 11.9898 10.2439 12.425 10.4138 12.7119C10.4427 12.7606 10.4732 12.8027 10.4998 12.8408C10.5263 12.8027 10.5568 12.7606 10.5857 12.7119C10.7557 12.425 10.9314 11.9898 11.0037 11.4355L11.0212 11.3535C11.0778 11.1686 11.2386 11.0297 11.4353 11.0039C11.9895 10.9317 12.4248 10.7559 12.7117 10.5859C12.7604 10.5571 12.8025 10.5266 12.8406 10.5C12.8025 10.4734 12.7604 10.4429 12.7117 10.4141C12.4248 10.2441 11.9895 10.0683 11.4353 9.99609C11.2105 9.96668 11.033 9.78925 11.0037 9.56445C10.9314 9.01018 10.7557 8.575 10.5857 8.28809C10.5566 8.23907 10.5265 8.19649 10.4998 8.1582C10.473 8.19649 10.4429 8.23907 10.4138 8.28809Z" fill="#242629"/>
</g>
<defs>
<clipPath id="clip0_19835_2125">
<rect width="14" height="14" fill="white"/>
</clipPath>
</defs>
</svg>
