<svg width="14" height="14" viewBox="0 0 14 14" fill="none" xmlns="http://www.w3.org/2000/svg">
<path d="M10.9999 12C11.276 12 11.4999 12.2239 11.4999 12.5C11.4999 12.7761 11.276 13 10.9999 13H2.99988C2.72376 13 2.49988 12.7761 2.49988 12.5C2.49988 12.2239 2.72377 12 2.99988 12H10.9999ZM9.50867 1.5C10.112 1.5 10.5925 1.49935 10.9794 1.52832C11.3709 1.55764 11.7088 1.61913 12.0204 1.76465C12.521 1.99847 12.936 2.37628 13.1991 2.84961C13.3656 3.14926 13.4358 3.47394 13.4686 3.8418C13.5008 4.20263 13.4999 4.64915 13.4999 5.2002V7C13.4999 7.4386 13.5023 7.73732 13.4462 7.99609C13.2267 9.00723 12.3763 9.76286 11.3339 9.95312C11.073 10.0007 11.0038 10 10.4999 10C10.2238 9.99995 9.9999 9.77609 9.99988 9.5C9.99988 9.22389 10.2238 9.00005 10.4999 9C10.7602 9 10.8774 9.0001 10.9579 8.99609C11.0215 8.99292 11.0558 8.98765 11.1542 8.96973C11.8424 8.84418 12.3447 8.35955 12.4696 7.78418C12.4973 7.65658 12.4999 7.4906 12.4999 7V5.2002C12.4999 4.63117 12.4998 4.23683 12.4725 3.93066C12.4459 3.63184 12.3962 3.46295 12.3251 3.33496C12.1698 3.05567 11.917 2.82057 11.5966 2.6709C11.4415 2.59858 11.24 2.55152 10.9042 2.52637C10.5634 2.50088 10.1269 2.5 9.50867 2.5H4.49109C3.87286 2.5 3.43631 2.50088 3.09558 2.52637C2.75981 2.55152 2.55823 2.59857 2.4032 2.6709C2.08278 2.82057 1.82992 3.05569 1.67468 3.33496C1.60356 3.46294 1.55386 3.63189 1.52722 3.93066C1.49994 4.23683 1.49988 4.63118 1.49988 5.2002V7C1.49988 7.4906 1.50247 7.65658 1.53015 7.78418C1.65501 8.35954 2.15736 8.84416 2.84558 8.96973C2.94393 8.98766 2.9783 8.99292 3.04187 8.99609C3.12232 9.00011 3.2395 9 3.49988 9C3.77602 9 3.99988 9.22386 3.99988 9.5C3.99986 9.77612 3.77601 10 3.49988 10C2.99597 10 2.92685 10.0007 2.66589 9.95312C1.62349 9.76283 0.773009 9.00723 0.553589 7.99609C0.49744 7.73732 0.499878 7.4386 0.499878 7V5.2002C0.499878 4.64916 0.498971 4.20263 0.531128 3.8418C0.563929 3.47397 0.634212 3.14924 0.800659 2.84961C1.06375 2.3763 1.47881 1.99847 1.97937 1.76465C2.29096 1.61912 2.62891 1.55765 3.02039 1.52832C3.4072 1.49935 3.88773 1.5 4.49109 1.5H9.50867ZM6.99988 4C7.276 4.00002 7.49988 4.22387 7.49988 4.5V8.29297L8.64636 7.14648L8.72449 7.08203C8.91854 6.95388 9.18253 6.97568 9.35339 7.14648C9.54865 7.34175 9.54865 7.65826 9.35339 7.85352L7.35339 9.85352C7.25964 9.94724 7.13244 9.99999 6.99988 10C6.86732 9.99997 6.7401 9.94724 6.64636 9.85352L4.64636 7.85352C4.45118 7.65827 4.45118 7.34173 4.64636 7.14648C4.84161 6.95125 5.15813 6.95128 5.35339 7.14648L6.49988 8.29297V4.5C6.49988 4.2239 6.72379 4.00006 6.99988 4Z" fill="#242629"/>
</svg>
