<svg width="14" height="14" viewBox="0 0 14 14" fill="none" xmlns="http://www.w3.org/2000/svg">
<path d="M10.4999 4C11.0038 4 11.073 3.99931 11.3339 4.04688C12.3763 4.23714 13.2267 4.99277 13.4462 6.00391C13.5023 6.26268 13.4999 6.5614 13.4999 7V8.7998C13.4999 9.35085 13.5008 9.79737 13.4686 10.1582C13.4358 10.5261 13.3656 10.8507 13.1991 11.1504C12.936 11.6237 12.521 12.0015 12.0204 12.2354C11.7088 12.3809 11.3709 12.4424 10.9794 12.4717C10.5925 12.5006 10.112 12.5 9.50867 12.5H4.49109C3.88773 12.5 3.4072 12.5007 3.02039 12.4717C2.62891 12.4424 2.29096 12.3809 1.97937 12.2354C1.47882 12.0015 1.06375 11.6237 0.800659 11.1504C0.634214 10.8508 0.563929 10.526 0.531128 10.1582C0.498971 9.79737 0.499878 9.35084 0.499878 8.7998V7C0.499878 6.5614 0.49744 6.26268 0.553589 6.00391C0.77301 4.99278 1.62349 4.23717 2.66589 4.04688C2.92685 3.99929 2.99597 4 3.49988 4C3.77601 4 3.99985 4.22388 3.99988 4.5C3.99988 4.77614 3.77602 5 3.49988 5C3.2395 5 3.12232 4.99989 3.04187 5.00391C2.9783 5.00708 2.94393 5.01234 2.84558 5.03027C2.15736 5.15584 1.65501 5.64046 1.53015 6.21582C1.50247 6.34342 1.49988 6.5094 1.49988 7V8.7998C1.49988 9.36882 1.49994 9.76318 1.52722 10.0693C1.55386 10.3681 1.60356 10.5371 1.67468 10.665C1.82992 10.9443 2.08278 11.1794 2.4032 11.3291C2.55823 11.4014 2.75981 11.4485 3.09558 11.4736C3.43631 11.4991 3.87286 11.5 4.49109 11.5H9.50867C10.1269 11.5 10.5634 11.4991 10.9042 11.4736C11.24 11.4485 11.4415 11.4014 11.5966 11.3291C11.917 11.1794 12.1698 10.9443 12.3251 10.665C12.3962 10.537 12.4459 10.3682 12.4725 10.0693C12.4998 9.76317 12.4999 9.36883 12.4999 8.7998V7C12.4999 6.5094 12.4973 6.34342 12.4696 6.21582C12.3447 5.64045 11.8424 5.15582 11.1542 5.03027C11.0558 5.01235 11.0215 5.00708 10.9579 5.00391C10.8774 4.9999 10.7602 5 10.4999 5C10.2238 4.99995 9.99988 4.77611 9.99988 4.5C9.9999 4.22391 10.2238 4.00005 10.4999 4ZM6.99988 4C7.13245 4 7.25963 4.05276 7.35339 4.14648L9.35339 6.14648C9.54865 6.34175 9.54865 6.65826 9.35339 6.85352C9.15813 7.04872 8.84161 7.04876 8.64636 6.85352L7.49988 5.70703V9.5C7.49988 9.77614 7.27602 10 6.99988 10C6.7238 9.99992 6.49988 9.77609 6.49988 9.5V5.70703L5.35339 6.85352L5.27527 6.91797C5.0812 7.04608 4.8172 7.02436 4.64636 6.85352C4.45117 6.65827 4.45117 6.34173 4.64636 6.14648L6.64636 4.14648C6.7401 4.05275 6.86732 4.00004 6.99988 4ZM10.9999 1C11.276 1 11.4999 1.22386 11.4999 1.5C11.4999 1.77614 11.276 2 10.9999 2H2.99988C2.72376 1.99997 2.49988 1.77612 2.49988 1.5C2.49988 1.22388 2.72376 1.00003 2.99988 1H10.9999Z" fill="#242629"/>
</svg>
