<svg width="14" height="14" viewBox="0 0 14 14" fill="none" xmlns="http://www.w3.org/2000/svg">
<g clip-path="url(#clip0_19835_2446)">
<path d="M12.556 8.00024C12.9389 8.00034 13.3068 8.15239 13.5775 8.4231C13.8481 8.69386 14.0004 9.06177 14.0004 9.44458C14.0002 9.82723 13.8481 10.1945 13.5775 10.4651L11.7181 12.3245C11.3258 12.7168 11.0914 12.9535 10.8226 13.1467C10.5909 13.3133 10.3416 13.4546 10.0795 13.5676C9.77547 13.6987 9.45186 13.7778 8.91345 13.9124L8.62146 13.9856C8.45127 14.0281 8.27098 13.9777 8.14685 13.8538C8.02275 13.7297 7.97258 13.5494 8.01501 13.3792L8.08826 13.0872C8.22289 12.5486 8.3019 12.2252 8.43298 11.9211C8.54605 11.659 8.68726 11.4098 8.85388 11.178C9.04712 10.9092 9.28373 10.6749 9.67615 10.2825L11.5355 8.4231C11.8062 8.15249 12.1733 8.00034 12.556 8.00024ZM0.909546 2.94067C0.263254 1.64598 1.64387 0.276495 2.93298 0.933838L12.1185 5.61841C13.0548 6.09621 12.7146 7.50988 11.6635 7.50903L3.81384 7.50024L1.80701 11.509C1.59112 11.9403 2.0509 12.3974 2.48083 12.179L6.6488 10.0598L8.36755 9.18677L8.46228 9.14966C8.68619 9.0884 8.92995 9.19061 9.03943 9.40552C9.16432 9.65157 9.0666 9.95322 8.82068 10.0784L7.10193 10.9514L2.93396 13.0706C1.64403 13.726 0.265505 12.3546 0.913452 11.0608L2.94177 7.01099L0.909546 2.94067ZM12.556 9.00024C12.4385 9.00034 12.3257 9.04705 12.2426 9.13013L10.3832 10.9895C9.96885 11.4038 9.80129 11.5734 9.66638 11.761C9.54171 11.9344 9.4365 12.1215 9.35193 12.3176C9.29546 12.4486 9.25171 12.5868 9.19275 12.8069C9.41312 12.7479 9.5519 12.7052 9.68298 12.6487C9.87904 12.5641 10.0663 12.4589 10.2396 12.3342C10.4272 12.1993 10.5969 12.0317 11.0111 11.6174L12.8705 9.75806C12.9535 9.67497 13.0002 9.56201 13.0004 9.44458C13.0004 9.32699 12.9535 9.21335 12.8705 9.13013C12.7873 9.04696 12.6736 9.00034 12.556 9.00024ZM2.47888 1.82544C2.0493 1.60638 1.58907 2.06195 1.80408 2.49341L3.80408 6.50024L11.6644 6.50903L2.47888 1.82544Z" fill="#242629"/>
</g>
<defs>
<clipPath id="clip0_19835_2446">
<rect width="14" height="14" fill="white"/>
</clipPath>
</defs>
</svg>
