<svg width="14" height="14" viewBox="0 0 14 14" fill="none" xmlns="http://www.w3.org/2000/svg">
<g clip-path="url(#clip0_19835_2450)">
<path d="M11.5002 9.00024C11.7763 9.0004 12.0002 9.2242 12.0002 9.50024V11.0002H13.5002C13.7763 11.0004 14.0002 11.2242 14.0002 11.5002C14.0001 11.7762 13.7762 12.0001 13.5002 12.0002H12.0002V13.5002C12.0001 13.7762 11.7762 14.0001 11.5002 14.0002C11.2242 14.0002 11.0004 13.7763 11.0002 13.5002V12.0002H9.50024C9.22418 12.0002 9.00037 11.7763 9.00024 11.5002C9.00024 11.2241 9.2241 11.0002 9.50024 11.0002H11.0002V9.50024C11.0002 9.2241 11.2241 9.00024 11.5002 9.00024ZM0.909424 2.94067C0.263132 1.64598 1.64375 0.276495 2.93286 0.933838L12.1184 5.61841C13.0547 6.09621 12.7144 7.50984 11.6633 7.50903L3.81372 7.50024L1.80688 11.509C1.591 11.9403 2.05078 12.3974 2.48071 12.179L6.64868 10.0598L8.36743 9.18677L8.46216 9.14966C8.68606 9.08843 8.92984 9.19063 9.03931 9.40552C9.16421 9.65155 9.06645 9.9532 8.82056 10.0784L7.10181 10.9514L2.93384 13.0706C1.64391 13.726 0.265383 12.3546 0.91333 11.0608L2.94165 7.01099L0.909424 2.94067ZM2.47876 1.82544C2.04917 1.60638 1.58895 2.06195 1.80396 2.49341L3.80396 6.50024L11.6643 6.50903L2.47876 1.82544Z" fill="#242629"/>
</g>
<defs>
<clipPath id="clip0_19835_2450">
<rect width="14" height="14" fill="white"/>
</clipPath>
</defs>
</svg>
