<svg width="14" height="14" viewBox="0 0 14 14" fill="none" xmlns="http://www.w3.org/2000/svg">
<path d="M8.50024 0.999756C8.7763 0.999862 9.00024 1.22368 9.00024 1.49976C9.00024 1.77583 8.7763 1.99965 8.50024 1.99976H7.50024V3.02319C10.3034 3.27594 12.5002 5.63083 12.5002 8.49976V9.57104C12.5002 10.2666 12.8069 10.9246 13.3342 11.3708L13.4426 11.4568C14.1013 11.951 13.7524 12.9995 12.929 12.9998H1.07153C0.247908 12.9996 -0.101082 11.951 0.557861 11.4568C1.15111 11.0116 1.50024 10.3128 1.50024 9.57104V8.49976C1.50024 5.6307 3.69694 3.27576 6.50024 3.02319V1.99976H5.50024C5.2241 1.99976 5.00024 1.7759 5.00024 1.49976C5.00024 1.22361 5.2241 0.999756 5.50024 0.999756H8.50024ZM2.47095 9.99976C2.37285 10.7619 2.01748 11.4688 1.46118 11.9998H12.5393C11.9829 11.4688 11.6267 10.762 11.5286 9.99976H2.47095ZM7.00024 3.99976C4.51496 3.99976 2.50024 6.01447 2.50024 8.49976V8.99976H11.5002V8.49976C11.5002 6.01454 9.48544 3.99986 7.00024 3.99976Z" fill="#242629"/>
</svg>
