<svg width="14" height="14" viewBox="0 0 14 14" fill="none" xmlns="http://www.w3.org/2000/svg">
<g clip-path="url(#clip0_19835_2617)">
<path d="M6.67334 0.508057C6.99873 0.491991 7.32783 0.500345 7.6499 0.532471C7.99967 0.567385 8.28647 0.786744 8.43213 1.07837L8.92822 2.07446C9.0703 2.35922 9.38725 2.51177 9.69873 2.44653L10.7495 2.22681C11.0313 2.16768 11.3363 2.22977 11.5718 2.41724L11.6685 2.50513L11.8911 2.75024C12.1082 3.0011 12.3075 3.26968 12.4858 3.552C12.6682 3.84113 12.6771 4.19161 12.5474 4.48267L12.0796 5.53149C11.953 5.81518 12.0286 6.14946 12.2651 6.35083L13.1245 7.0813C13.3681 7.28849 13.5107 7.61021 13.4702 7.95044C13.4162 8.40223 13.3178 8.84054 13.1792 9.26001C13.0698 9.5911 12.7967 9.82393 12.4819 9.90454L11.4204 10.176C11.1164 10.254 10.901 10.5254 10.894 10.8391L10.8696 11.9817C10.8627 12.3022 10.7027 12.617 10.4106 12.8C10.0414 13.0314 9.64746 13.2274 9.23389 13.3811C8.90147 13.5044 8.54446 13.4309 8.28467 13.2288L7.4292 12.5637C7.17639 12.3673 6.82252 12.3671 6.56982 12.5637L5.71436 13.2288C5.45452 13.431 5.09759 13.5045 4.76514 13.3811C4.3517 13.2274 3.95747 13.0314 3.58838 12.8C3.29663 12.617 3.13627 12.302 3.12939 11.9817L3.10498 10.8391C3.09797 10.5253 2.88272 10.2539 2.57861 10.176L1.51709 9.90454C1.20252 9.82383 0.92919 9.59095 0.819824 9.26001C0.681288 8.84061 0.582778 8.40216 0.528809 7.95044C0.488333 7.61025 0.630954 7.28847 0.874512 7.0813L1.73389 6.35083C1.97069 6.14949 2.0461 5.81534 1.91943 5.53149L1.45166 4.48267C1.32202 4.19166 1.33084 3.84105 1.51318 3.552L1.69873 3.27466C1.89048 3.00225 2.10143 2.74461 2.33057 2.50513C2.57494 2.24975 2.92747 2.15937 3.24951 2.22681L4.30029 2.44653C4.61186 2.51191 4.92868 2.3593 5.0708 2.07446L5.56689 1.07837C5.71246 0.786689 5.99938 0.567494 6.34912 0.532471L6.67334 0.508057ZM7.53857 1.52661C7.18251 1.4919 6.81551 1.49181 6.45947 1.52661L5.96631 2.51978C5.62137 3.212 4.85214 3.58481 4.09521 3.42603L3.04443 3.20532C2.79118 3.47118 2.56315 3.76273 2.36475 4.07544L2.83252 5.12427C3.14014 5.81361 2.95644 6.62359 2.38135 7.11255L1.52295 7.84106C1.5687 8.21878 1.65017 8.58539 1.76514 8.93579L2.82666 9.20728C3.56575 9.39657 4.08869 10.0559 4.10498 10.8186L4.12842 11.9592C4.43433 12.1501 4.76024 12.3111 5.10107 12.4387L5.95557 11.7747C6.56947 11.2969 7.42944 11.2971 8.04346 11.7747L8.89697 12.4387C9.23799 12.3111 9.56356 12.1501 9.86963 11.9592L9.89404 10.8186C9.91033 10.0559 10.4334 9.39665 11.1724 9.20728L12.2329 8.93579C12.3479 8.58528 12.4293 8.21891 12.4751 7.84106L11.6177 7.11255C11.0429 6.62355 10.859 5.81345 11.1665 5.12427L11.6333 4.07544C11.4349 3.76283 11.2068 3.4711 10.9536 3.20532L9.90381 3.42603C9.14697 3.58467 8.37762 3.21192 8.03271 2.51978L7.53857 1.52661ZM5.58545 5.58618C6.36638 4.80525 7.63258 4.80534 8.41357 5.58618C9.19455 6.36716 9.19455 7.63333 8.41357 8.41431C7.63257 9.19497 6.36632 9.19518 5.58545 8.41431C4.80471 7.63342 4.80483 6.36714 5.58545 5.58618ZM7.70654 6.29321C7.31608 5.90289 6.68289 5.9028 6.29248 6.29321C5.90238 6.68365 5.90226 7.31691 6.29248 7.70728C6.68283 8.09763 7.31606 8.09742 7.70654 7.70728C8.097 7.31682 8.097 6.68367 7.70654 6.29321Z" fill="url(#paint0_linear_19835_2617)"/>
</g>
<defs>
<linearGradient id="paint0_linear_19835_2617" x1="0.42745" y1="1.00049" x2="13.2725" y2="12.7414" gradientUnits="userSpaceOnUse">
<stop stop-color="#DC8FA5"/>
<stop offset="0.75" stop-color="#70A1F0"/>
</linearGradient>
<clipPath id="clip0_19835_2617">
<rect width="14" height="14" fill="white"/>
</clipPath>
</defs>
</svg>
