<svg width="14" height="14" viewBox="0 0 14 14" fill="none" xmlns="http://www.w3.org/2000/svg">
<g clip-path="url(#clip0_19835_2613)">
<path d="M6.67236 0.408447C6.99909 0.393072 7.32925 0.400177 7.65283 0.430908C8.03684 0.467483 8.35254 0.70685 8.51416 1.02466L8.98291 1.94751C9.14011 2.25672 9.48494 2.42266 9.82471 2.35278L10.8384 2.14478C11.1872 2.07314 11.5695 2.16979 11.8374 2.44556C12.1413 2.75859 12.4157 3.10166 12.6548 3.46899C12.8647 3.79174 12.8746 4.18661 12.7271 4.51099L12.2974 5.45337C12.1536 5.76906 12.2389 6.14244 12.5054 6.3645L13.3013 7.02759C13.5744 7.2553 13.737 7.61427 13.689 7.99536C13.6333 8.43557 13.5344 8.86291 13.3979 9.27271C13.2764 9.63788 12.9737 9.891 12.6284 9.97778L11.6226 10.2307C11.2863 10.3152 11.0481 10.6146 11.0405 10.9612L11.0181 11.9973C11.0103 12.3529 10.8305 12.7036 10.5024 12.9036C10.1315 13.1295 9.73651 13.321 9.32275 13.4729C8.9614 13.6055 8.5746 13.5267 8.2915 13.3108L7.46729 12.6819C7.19159 12.4716 6.80849 12.4717 6.53271 12.6819L5.7085 13.3108C5.42541 13.5267 5.03861 13.6054 4.67725 13.4729C4.26337 13.321 3.86862 13.1296 3.49756 12.9036C3.16928 12.7036 2.98967 12.353 2.98193 11.9973L2.96045 10.9612C2.95286 10.6146 2.71369 10.3152 2.37744 10.2307L1.37158 9.97778C1.02623 9.89106 0.723676 9.63796 0.602051 9.27271C0.465638 8.86292 0.367678 8.43556 0.312012 7.99536C0.263906 7.61417 0.426449 7.25531 0.699707 7.02759L1.49561 6.3645C1.76173 6.14239 1.84629 5.76889 1.70264 5.45337L1.27393 4.51099C1.12623 4.18649 1.13608 3.79186 1.34619 3.46899L1.53174 3.19751C1.72374 2.93177 1.93483 2.68015 2.1626 2.44556L2.26807 2.35083C2.52551 2.14838 2.85632 2.08199 3.16162 2.14478L4.17529 2.35278C4.51499 2.42256 4.85992 2.25666 5.01709 1.94751L5.48682 1.02466C5.64849 0.706914 5.96317 0.467423 6.34717 0.430908L6.67236 0.408447ZM7.53467 1.52466C7.18163 1.49203 6.81837 1.49202 6.46533 1.52466L5.99756 2.44653C5.61582 3.19703 4.77937 3.60019 3.95459 3.43091L2.94189 3.22192C2.69454 3.47796 2.47153 3.75796 2.27588 4.05688L2.70459 4.99829C3.05323 5.76466 2.8463 6.66999 2.19971 7.20923L1.40479 7.87134C1.45102 8.22974 1.53097 8.57758 1.64111 8.91138L2.64502 9.16431C3.46189 9.36946 4.04179 10.0957 4.06006 10.9377L4.08154 11.9709C4.38475 12.1546 4.70665 12.3103 5.04346 12.4348L5.86572 11.8069C6.53543 11.2962 7.4646 11.2962 8.13428 11.8069L8.95654 12.4338C9.29333 12.3093 9.61527 12.1537 9.91846 11.97L9.94092 10.9377C9.95919 10.0957 10.538 9.3694 11.355 9.16431L12.3589 8.91138C12.4691 8.57735 12.548 8.22903 12.5942 7.87036L11.8013 7.20923C11.1542 6.67 10.9475 5.76491 11.2964 4.99829L11.7241 4.05688C11.5283 3.75767 11.3048 3.47816 11.0571 3.22192L10.0464 3.43091C9.22131 3.60061 8.38426 3.19736 8.00244 2.44653L7.53467 1.52466ZM5.58545 5.58618C6.36638 4.80525 7.63258 4.80536 8.41357 5.58618C9.19455 6.36716 9.19455 7.63333 8.41357 8.41431C7.63257 9.19499 6.36633 9.19519 5.58545 8.41431C4.80472 7.63341 4.80482 6.36713 5.58545 5.58618ZM7.70654 6.29321C7.31608 5.90291 6.68288 5.90281 6.29248 6.29321C5.90237 6.68364 5.90228 7.31691 6.29248 7.70728C6.68284 8.09763 7.31606 8.09743 7.70654 7.70728C8.097 7.31682 8.097 6.68367 7.70654 6.29321Z" fill="#242629"/>
</g>
<defs>
<clipPath id="clip0_19835_2613">
<rect width="14" height="14" fill="white"/>
</clipPath>
</defs>
</svg>
