<svg width="14" height="14" viewBox="0 0 14 14" fill="none" xmlns="http://www.w3.org/2000/svg">
<path d="M7 0.000244141C7.15189 0.000244141 7.29574 0.0691365 7.39062 0.187744L7.55371 0.391846C8.64114 1.75091 10.2384 2.60476 11.9727 2.75317C12.5535 2.80288 12.9998 3.2884 13 3.87134V6.47778C13 9.9632 10.6672 13.0176 7.30469 13.9348C7.10534 13.9892 6.89466 13.9892 6.69531 13.9348C3.33276 13.0176 1 9.96319 1 6.47778V3.87134C1.00021 3.2884 1.44649 2.80288 2.02734 2.75317C3.76158 2.60476 5.35886 1.75091 6.44629 0.391846L6.60938 0.187744L6.68945 0.108643C6.77699 0.0392256 6.88612 0.000244141 7 0.000244141ZM7 1.2854C5.75138 2.70148 4.00234 3.58753 2.1123 3.74927C2.04891 3.75482 2.00021 3.80772 2 3.87134V6.47778C2 9.51232 4.03137 12.1715 6.95898 12.97C6.9859 12.9773 7.0141 12.9773 7.04102 12.97C9.96864 12.1715 12 9.51233 12 6.47778V3.87134C11.9998 3.80772 11.9511 3.75482 11.8877 3.74927C9.99766 3.58753 8.24862 2.70148 7 1.2854ZM7 3.50024C8.13435 3.50024 8.9998 4.47111 9 5.59985V6.08618C9.00811 6.089 9.0163 6.09195 9.02441 6.09497C9.43182 6.24703 9.75323 6.56841 9.90527 6.97583C9.96115 7.1257 9.98189 7.27622 9.99121 7.42603C10.0003 7.57205 10 7.74995 10 7.95532C10 8.24647 10.0005 8.48831 9.98828 8.68579C9.97575 8.88699 9.94851 9.07592 9.87988 9.26001C9.68664 9.77783 9.27761 10.1869 8.75977 10.3801C8.57562 10.4488 8.38681 10.476 8.18555 10.4885C7.98802 10.5008 7.74632 10.5002 7.45508 10.5002H6.54492C6.25368 10.5002 6.01198 10.5008 5.81445 10.4885C5.61319 10.476 5.42438 10.4488 5.24023 10.3801C4.72239 10.1869 4.31336 9.77783 4.12012 9.26001C4.05149 9.07592 4.02425 8.88699 4.01172 8.68579C3.99946 8.48831 4 8.24647 4 7.95532C4 7.74995 3.99974 7.57205 4.00879 7.42603C4.01811 7.27622 4.03885 7.1257 4.09473 6.97583C4.24677 6.56841 4.56818 6.24703 4.97559 6.09497C4.9837 6.09195 4.99189 6.089 5 6.08618V5.59985C5.0002 4.47111 5.86565 3.50024 7 3.50024ZM5.48828 7.00708C5.38445 7.01353 5.3442 7.02441 5.3252 7.03149C5.18938 7.08219 5.08192 7.18961 5.03125 7.32544C5.02416 7.34454 5.01326 7.38507 5.00684 7.48853C5.00016 7.59637 5 7.73767 5 7.95532C5 8.25876 4.99988 8.46396 5.00977 8.62329C5.01941 8.77842 5.03777 8.85711 5.05762 8.9104C5.1495 9.1565 5.34371 9.35081 5.58984 9.44263C5.64316 9.46247 5.72174 9.48084 5.87695 9.49048C6.03632 9.50037 6.24136 9.50024 6.54492 9.50024H7.45508C7.75864 9.50024 7.96368 9.50037 8.12305 9.49048C8.27826 9.48084 8.35684 9.46247 8.41016 9.44263C8.65629 9.35081 8.8505 9.1565 8.94238 8.9104C8.96223 8.85711 8.98059 8.77842 8.99023 8.62329C9.00012 8.46396 9 8.25876 9 7.95532C9 7.73767 8.99984 7.59637 8.99316 7.48853C8.98674 7.38507 8.97584 7.34454 8.96875 7.32544C8.91808 7.18961 8.81062 7.08219 8.6748 7.03149C8.6558 7.02441 8.61555 7.01353 8.51172 7.00708C8.40384 7.00039 8.26274 7.00024 8.04492 7.00024H5.95508C5.73726 7.00024 5.59616 7.00039 5.48828 7.00708ZM7 4.50024C6.47773 4.50024 6.0002 4.96166 6 5.59985V6.00024H8V5.59985C7.9998 4.96166 7.52227 4.50024 7 4.50024Z" fill="#242629"/>
</svg>
