<svg width="14" height="14" viewBox="0 0 14 14" fill="none" xmlns="http://www.w3.org/2000/svg">
<path d="M9.14587 1.64648C10.0314 0.76095 11.4673 0.761137 12.3529 1.64648C13.2385 2.5321 13.2385 3.9679 12.3529 4.85352L11.6967 5.50879L11.7855 5.59863C11.9764 5.79075 12.1413 5.95683 12.265 6.10352C12.3925 6.25466 12.5057 6.41867 12.5707 6.62012C12.6676 6.92079 12.6675 7.24455 12.5697 7.54492C12.504 7.74627 12.3901 7.91074 12.2621 8.06152C12.1379 8.20777 11.9721 8.37203 11.7806 8.56348L9.52576 10.8193C9.33052 11.0143 9.01393 11.0144 8.81873 10.8193C8.62379 10.6241 8.62376 10.3075 8.81873 10.1123L11.0736 7.85645C11.2766 7.65347 11.4077 7.522 11.4994 7.41406C11.5872 7.31065 11.6099 7.26173 11.6185 7.23535C11.6512 7.13518 11.6518 7.02703 11.6195 6.92676C11.6109 6.90033 11.5884 6.85132 11.5013 6.74805C11.41 6.63977 11.2789 6.50746 11.0765 6.30371L10.9896 6.21582L5.43787 11.7695C5.32701 11.8803 5.19128 11.9638 5.04236 12.0127L2.37341 12.8877C1.59474 13.1428 0.856271 12.4047 1.11169 11.626L1.98767 8.95801C2.03654 8.80906 2.12002 8.67337 2.23083 8.5625L9.14587 1.64648ZM2.93787 9.26953L2.06189 11.9375L4.73083 11.0625L10.2845 5.50684L8.49744 3.70801L2.93787 9.26953ZM11.6459 2.35352C11.1508 1.85869 10.3479 1.85851 9.85291 2.35352L9.20447 3.00098L10.9916 4.7998L11.6459 4.14648C12.141 3.65139 12.141 2.84861 11.6459 2.35352Z" fill="#242629"/>
</svg>
