<svg width="14" height="14" viewBox="0 0 14 14" fill="none" xmlns="http://www.w3.org/2000/svg">
<path d="M2.64673 0.646729C2.84199 0.451466 3.1585 0.451466 3.35376 0.646729C3.54883 0.842006 3.54896 1.15856 3.35376 1.35376L2.70728 2.00024H7.50024C10.5377 2.00035 13.0002 4.46274 13.0002 7.50024C13.0001 10.5377 10.5377 13.0001 7.50024 13.0002H6.00024C5.72416 13.0002 5.50035 12.7763 5.50024 12.5002C5.50024 12.2241 5.7241 12.0002 6.00024 12.0002H7.50024C9.98538 12.0001 12.0001 9.98538 12.0002 7.50024C12.0002 5.01503 9.98544 3.00035 7.50024 3.00024H2.70728L3.35376 3.64673L3.41821 3.72485C3.54622 3.91891 3.52456 4.18296 3.35376 4.35376C3.18296 4.52456 2.91891 4.54622 2.72485 4.41821L2.64673 4.35376L1.14673 2.85376C0.951466 2.6585 0.951466 2.34199 1.14673 2.14673L2.64673 0.646729ZM4.7229 5.08423C4.87632 4.98196 5.074 4.97281 5.23657 5.05981C5.39876 5.14693 5.50024 5.3161 5.50024 5.50024V9.50024C5.50014 9.77625 5.27625 10.0002 5.00024 10.0002C4.72418 10.0002 4.50035 9.77629 4.50024 9.50024V6.43384L3.77759 6.91626C3.54789 7.06937 3.23745 7.00718 3.08423 6.77759C2.93107 6.54783 2.99316 6.23741 3.2229 6.08423L4.7229 5.08423ZM8.00024 5.00024C8.8286 5.00033 9.50024 5.67187 9.50024 6.50024V8.50024C9.50014 9.32853 8.82853 10.0002 8.00024 10.0002C7.17188 10.0002 6.50035 9.32858 6.50024 8.50024V6.50024C6.50024 5.67182 7.17182 5.00024 8.00024 5.00024ZM8.00024 6.00024C7.7241 6.00024 7.50024 6.2241 7.50024 6.50024V8.50024C7.50035 8.7763 7.72416 9.00024 8.00024 9.00024C8.27625 9.00015 8.50014 8.77625 8.50024 8.50024V6.50024C8.50024 6.22416 8.27631 6.00033 8.00024 6.00024Z" fill="#242629"/>
</svg>
