<svg width="14" height="14" viewBox="0 0 14 14" fill="none" xmlns="http://www.w3.org/2000/svg">
<path d="M10.6465 0.646729C10.8417 0.451466 11.1583 0.451466 11.3535 0.646729L12.8535 2.14673C13.0487 2.342 13.0487 2.65853 12.8535 2.85376L11.3535 4.35376L11.2754 4.41821C11.0814 4.54629 10.8173 4.52451 10.6465 4.35376C10.4757 4.18293 10.454 3.91892 10.582 3.72485L10.6465 3.64673L11.293 3.00024H6.5C4.01472 3.00024 2 5.01496 2 7.50024C2.0001 9.98544 4.01478 12.0002 6.5 12.0002H8C8.27614 12.0002 8.5 12.2241 8.5 12.5002C8.4999 12.7763 8.27608 13.0002 8 13.0002H6.5C3.4625 13.0002 1.0001 10.5377 1 7.50024C1 4.46268 3.46243 2.00024 6.5 2.00024H11.293L10.6465 1.35376C10.4513 1.15853 10.4513 0.841998 10.6465 0.646729ZM5.72266 5.08423C5.87608 4.98194 6.07375 4.97281 6.23633 5.05981C6.39861 5.14691 6.5 5.31604 6.5 5.50024V9.50024C6.4999 9.7763 6.27608 10.0002 6 10.0002C5.72394 10.0002 5.5001 9.77628 5.5 9.50024V6.43384L4.77734 6.91626C4.54763 7.0693 4.23716 7.00721 4.08398 6.77759C3.93085 6.54787 3.993 6.23743 4.22266 6.08423L5.72266 5.08423ZM9 5.00024C9.82843 5.00024 10.5 5.67182 10.5 6.50024V8.50024C10.4999 9.32858 9.82836 10.0002 9 10.0002C8.17165 10.0002 7.5001 9.32858 7.5 8.50024V6.50024C7.5 5.67182 8.17158 5.00026 9 5.00024ZM9 6.00024C8.72387 6.00026 8.5 6.22411 8.5 6.50024V8.50024C8.5001 8.77629 8.72393 9.00023 9 9.00024C9.27608 9.00024 9.4999 8.7763 9.5 8.50024V6.50024C9.5 6.2241 9.27614 6.00024 9 6.00024Z" fill="#242629"/>
</svg>
