<svg width="14" height="14" viewBox="0 0 14 14" fill="none" xmlns="http://www.w3.org/2000/svg">
<path d="M12 11C12.2759 11.0001 12.4998 11.2241 12.5 11.5C12.4998 11.7759 12.276 12 12 12H2C1.72412 11.9998 1.50018 11.7759 1.5 11.5C1.50018 11.2241 1.72412 11.0002 2 11H12ZM10.5 1.5C10.5994 1.5 10.6958 1.52966 10.7773 1.58398L10.8535 1.64648L12.8535 3.64648C13.0488 3.84175 13.0488 4.15825 12.8535 4.35352C12.6582 4.54872 12.3417 4.54876 12.1465 4.35352L11 3.20703V8.5C11 8.77614 10.7761 9 10.5 9C10.2239 8.99994 10 8.77611 10 8.5V3.20703L8.85352 4.35352L8.77539 4.41797C8.58132 4.54608 8.31733 4.52436 8.14648 4.35352C7.97569 4.18267 7.95392 3.91866 8.08203 3.72461L8.14648 3.64648L10.1465 1.64648C10.2402 1.55274 10.3674 1.50003 10.5 1.5ZM7.5 6.5C7.77614 6.5 8 6.72386 8 7C8 7.27614 7.77614 7.5 7.5 7.5H2C1.72386 7.5 1.5 7.27614 1.5 7C1.5 6.72386 1.72386 6.5 2 6.5H7.5ZM4.5 1.99902C4.77605 1.99913 5 2.22392 5 2.5C5 2.77604 4.776 2.99983 4.5 3H2L1.89844 2.99023C1.67109 2.94338 1.50023 2.74117 1.5 2.5C1.50023 2.25852 1.67162 2.05628 1.89941 2.00977L2 2L4.5 1.99902Z" fill="#242629"/>
</svg>
