<svg width="14" height="14" viewBox="0 0 14 14" fill="none" xmlns="http://www.w3.org/2000/svg">
<path d="M10.5 4.99951C10.776 4.99951 10.9997 5.22359 11 5.49951V10.7681L12.1465 9.62158C12.3417 9.42632 12.6583 9.42632 12.8535 9.62158C13.0488 9.81684 13.0488 10.1334 12.8535 10.3286L10.8535 12.3286L10.7773 12.3911C10.6958 12.4455 10.5994 12.4751 10.5 12.4751C10.3674 12.4751 10.2403 12.4224 10.1465 12.3286L8.14648 10.3286L8.08203 10.2505C7.95387 10.0564 7.97562 9.79245 8.14648 9.62158C8.31735 9.45072 8.58131 9.42897 8.77539 9.55713L8.85352 9.62158L10 10.7681V5.49951C10.0003 5.22359 10.224 4.99951 10.5 4.99951ZM4.5 10.9751C4.776 10.9753 5 11.1991 5 11.4751C5 11.7512 4.77605 11.976 4.5 11.9761L2 11.9751L1.89941 11.9653C1.67162 11.9188 1.50023 11.7166 1.5 11.4751C1.50023 11.2339 1.67109 11.0317 1.89844 10.9849L2 10.9751H4.5ZM7.5 6.4751C7.77614 6.4751 8 6.69896 8 6.9751C8 7.25124 7.77614 7.4751 7.5 7.4751H2C1.72386 7.4751 1.5 7.25124 1.5 6.9751C1.5 6.69896 1.72386 6.4751 2 6.4751H7.5ZM12 1.9751C12.276 1.97514 12.4998 2.19917 12.5 2.4751C12.4998 2.75097 12.2759 2.97496 12 2.9751H2C1.72412 2.97492 1.50018 2.75098 1.5 2.4751C1.50018 2.19921 1.72412 1.97527 2 1.9751H12Z" fill="#242629"/>
</svg>
