<svg width="14" height="14" viewBox="0 0 14 14" fill="none" xmlns="http://www.w3.org/2000/svg">
<path d="M3.99976 2C4.09911 2 4.19561 2.02972 4.2771 2.08398L4.35327 2.14648L6.35327 4.14648C6.54853 4.34175 6.54853 4.65825 6.35327 4.85352C6.158 5.04863 5.84145 5.04873 5.64624 4.85352L4.49976 3.70703V11.5C4.49976 11.7761 4.2759 12 3.99976 12C3.72375 11.9998 3.49976 11.776 3.49976 11.5V3.70703L2.35327 4.85352L2.27515 4.91797C2.08109 5.04599 1.81705 5.02432 1.64624 4.85352C1.47555 4.68269 1.45376 4.41862 1.58179 4.22461L1.64624 4.14648L3.64624 2.14648C3.73994 2.05278 3.86725 2.00008 3.99976 2ZM9.99976 7.5C10.2759 7.5 10.4997 7.72387 10.4998 8V10.293L11.6462 9.14648C11.8415 8.95127 12.158 8.95135 12.3533 9.14648C12.5485 9.34175 12.5485 9.65825 12.3533 9.85352L10.3533 11.8535L10.2771 11.916C10.1956 11.9703 10.0991 12 9.99976 12C9.86723 11.9999 9.73995 11.9472 9.64624 11.8535L7.64624 9.85352L7.58179 9.77539C7.45374 9.58136 7.47551 9.31732 7.64624 9.14648C7.81705 8.97567 8.08108 8.954 8.27515 9.08203L8.35327 9.14648L9.49976 10.293V8C9.49977 7.72395 9.72373 7.50013 9.99976 7.5ZM9.99976 1C10.2759 1 10.4998 1.22386 10.4998 1.5V3H11.9998C12.2759 3 12.4998 3.22386 12.4998 3.5C12.4998 3.77614 12.2759 4 11.9998 4H10.4998V5.5C10.4998 5.77614 10.2759 6 9.99976 6C9.72374 5.99985 9.49976 5.77605 9.49976 5.5V4H7.99976C7.72374 3.99985 7.49976 3.77605 7.49976 3.5C7.49976 3.22395 7.72374 3.00015 7.99976 3H9.49976V1.5C9.49976 1.22395 9.72374 1.00015 9.99976 1Z" fill="#242629"/>
</svg>
