<svg width="14" height="14" viewBox="0 0 14 14" fill="none" xmlns="http://www.w3.org/2000/svg">
<path d="M6.02917 2.0686C6.31625 2.04601 6.59695 2.16223 6.78406 2.3811C6.94142 2.56546 6.97324 2.79554 6.98621 2.94165C7.00057 3.10413 6.99988 3.31301 6.99988 3.54517V10.426C6.99988 10.6537 7.00047 10.8595 6.98621 11.0198C6.97324 11.1649 6.94173 11.3916 6.78699 11.5745C6.60216 11.7926 6.32422 11.9102 6.03894 11.8909C5.7996 11.8746 5.615 11.7394 5.50183 11.6477C5.37677 11.5463 5.22985 11.403 5.06628 11.2444L3.73425 9.95239C3.4352 9.66241 3.0346 9.50025 2.61804 9.50024H2.51453C1.12692 9.50006 0.00454516 8.36925 0.0145264 6.98169C0.0247765 5.60843 1.14124 4.50042 2.51453 4.50024H2.62488C3.05202 4.50025 3.46237 4.33045 3.76453 4.02856L5.05359 2.7395C5.21775 2.57533 5.36505 2.42727 5.49011 2.32251C5.60256 2.22836 5.78741 2.08773 6.02917 2.0686ZM5.76062 3.44653L4.47156 4.7356C3.98187 5.22502 3.31724 5.50025 2.62488 5.50024H2.51453C1.69056 5.50043 1.02059 6.16552 1.01453 6.9895C1.00874 7.82182 1.68215 8.50006 2.51453 8.50024H2.61804C3.29449 8.50025 3.94492 8.76372 4.43054 9.23462L5.76257 10.5266C5.85864 10.6198 5.93537 10.6928 5.99792 10.7512C5.99953 10.6657 5.99988 10.5596 5.99988 10.426V3.54517C5.99988 3.40839 5.99958 3.29975 5.99792 3.21216C5.93478 3.27296 5.85741 3.34974 5.76062 3.44653ZM12.1454 5.14673C12.3406 4.95154 12.6571 4.95158 12.8524 5.14673C13.0476 5.34194 13.0476 5.65849 12.8524 5.85376L11.7059 6.99927L12.8534 8.14673L12.9178 8.22485C13.046 8.41893 13.0242 8.68292 12.8534 8.85376C12.6825 9.02444 12.4185 9.04633 12.2245 8.91821L12.1464 8.85376L10.9999 7.70728L9.85437 8.85376C9.65915 9.04875 9.34256 9.04882 9.14734 8.85376C8.95221 8.65862 8.95238 8.34203 9.14734 8.14673L10.2928 7.00024L9.14636 5.85376C8.95117 5.65856 8.9513 5.34201 9.14636 5.14673C9.34162 4.95147 9.65813 4.95147 9.85339 5.14673L10.9989 6.29224L12.1454 5.14673Z" fill="#242629"/>
</svg>
