<svg width="14" height="14" viewBox="0 0 14 14" fill="none" xmlns="http://www.w3.org/2000/svg">
<path d="M6.02917 2.0686C6.31625 2.04601 6.59695 2.16223 6.78406 2.3811C6.94139 2.56546 6.97324 2.79554 6.98621 2.94165C7.00057 3.10413 6.99988 3.31302 6.99988 3.54517V10.426C6.99988 10.6537 7.00047 10.8595 6.98621 11.0198C6.97324 11.1649 6.94173 11.3916 6.78699 11.5745C6.60216 11.7926 6.32423 11.9102 6.03894 11.8909C5.7996 11.8746 5.61502 11.7394 5.50183 11.6477C5.37678 11.5463 5.22984 11.403 5.06628 11.2444L3.73425 9.95239C3.4352 9.66241 3.0346 9.50025 2.61804 9.50024H2.51453C1.12689 9.5001 0.00454474 8.36927 0.0145264 6.98169C0.0247766 5.60841 1.14121 4.50039 2.51453 4.50024H2.62488C3.05203 4.50025 3.46237 4.33047 3.76453 4.02856L5.05359 2.7395C5.21777 2.57531 5.36504 2.42727 5.49011 2.32251C5.60257 2.22835 5.78738 2.08771 6.02917 2.0686ZM11.6971 2.47974C11.8836 2.32605 12.1481 2.33066 12.329 2.47681L12.4012 2.5481L12.5897 2.78735C13.5055 4.00243 14.0025 5.48588 13.9999 7.01294C13.9969 8.64162 13.426 10.2188 12.3856 11.4719C12.2092 11.684 11.8938 11.7135 11.6815 11.5374C11.4692 11.3611 11.4402 11.0457 11.6161 10.8333C12.5078 9.75912 12.9973 8.40704 12.9999 7.01099C13.0022 5.70215 12.5767 4.43038 11.7919 3.38892L11.6298 3.18384L11.5731 3.09985C11.4641 2.89446 11.5109 2.63348 11.6971 2.47974ZM5.76062 3.44653L4.47156 4.7356C3.98186 5.22504 3.31725 5.50025 2.62488 5.50024H2.51453C1.69053 5.50039 1.02059 6.1655 1.01453 6.9895C1.00874 7.82185 1.68211 8.5001 2.51453 8.50024H2.61804C3.29449 8.50025 3.94492 8.76372 4.43054 9.23462L5.76257 10.5266C5.85863 10.6198 5.93537 10.6928 5.99792 10.7512C5.99953 10.6657 5.99988 10.5596 5.99988 10.426V3.54517C5.99988 3.40839 5.99958 3.29975 5.99792 3.21216C5.93478 3.27297 5.85743 3.34972 5.76062 3.44653ZM9.74304 4.04614C9.92825 3.89088 10.1928 3.89254 10.3749 4.03735L10.4471 4.10767L10.5702 4.26099C11.1655 5.03685 11.493 5.98754 11.4999 6.96899C11.5071 8.01589 11.1488 9.03264 10.4872 9.84399L10.4159 9.91626C10.2359 10.0632 9.97125 10.0685 9.78406 9.91626C9.57015 9.7418 9.5375 9.42615 9.71179 9.21216C10.2265 8.58105 10.5055 7.79019 10.4999 6.97583C10.4949 6.26308 10.2724 5.57125 9.86609 4.99146L9.68152 4.75024L9.6239 4.66724C9.51299 4.46275 9.558 4.20155 9.74304 4.04614ZM8.74597 7.88989C8.6306 8.11603 8.35406 8.20622 8.12781 8.09106C7.90152 7.97576 7.81147 7.69824 7.92664 7.47192L8.74597 7.88989ZM8.12781 5.90942C8.35413 5.79424 8.63067 5.8843 8.74597 6.1106C8.88635 6.38615 8.95984 6.69099 8.95984 7.00024C8.95981 7.30947 8.88635 7.61437 8.74597 7.88989L8.33679 7.68091L7.92664 7.47192C8.00097 7.32586 8.03988 7.16414 8.03992 7.00024C8.03992 6.83632 8.00097 6.67466 7.92664 6.52856C7.81133 6.30226 7.90158 6.02482 8.12781 5.90942Z" fill="#242629"/>
</svg>
