<svg width="14" height="14" viewBox="0 0 14 14" fill="none" xmlns="http://www.w3.org/2000/svg">
<path d="M6.02917 2.0686C6.31625 2.04601 6.59695 2.16223 6.78406 2.3811C6.94139 2.56546 6.97324 2.79554 6.98621 2.94165C7.00057 3.10413 6.99988 3.31302 6.99988 3.54517V10.426C6.99988 10.6537 7.00047 10.8595 6.98621 11.0198C6.97324 11.1649 6.94173 11.3916 6.78699 11.5745C6.60216 11.7926 6.32423 11.9102 6.03894 11.8909C5.7996 11.8746 5.61502 11.7394 5.50183 11.6477C5.37678 11.5463 5.22984 11.403 5.06628 11.2444L3.73425 9.95239C3.4352 9.66241 3.0346 9.50025 2.61804 9.50024H2.51453C1.12689 9.5001 0.00454474 8.36927 0.0145264 6.98169C0.0247766 5.60841 1.14121 4.50039 2.51453 4.50024H2.62488C3.05203 4.50025 3.46237 4.33047 3.76453 4.02856L5.05359 2.7395C5.21777 2.57531 5.36504 2.42727 5.49011 2.32251C5.60257 2.22835 5.78738 2.08771 6.02917 2.0686ZM5.76062 3.44653L4.47156 4.7356C3.98186 5.22504 3.31725 5.50025 2.62488 5.50024H2.51453C1.69053 5.50039 1.02059 6.1655 1.01453 6.9895C1.00874 7.82185 1.68211 8.5001 2.51453 8.50024H2.61804C3.29449 8.50025 3.94492 8.76372 4.43054 9.23462L5.76257 10.5266C5.85863 10.6198 5.93537 10.6928 5.99792 10.7512C5.99953 10.6657 5.99988 10.5596 5.99988 10.426V3.54517C5.99988 3.40839 5.99958 3.29975 5.99792 3.21216C5.93478 3.27297 5.85743 3.34972 5.76062 3.44653ZM8.74597 7.88989C8.6306 8.11603 8.35406 8.20621 8.12781 8.09106C7.90152 7.97576 7.81146 7.69825 7.92664 7.47192L8.74597 7.88989ZM8.12781 5.90942C8.35413 5.79424 8.63067 5.8843 8.74597 6.1106C8.88634 6.38615 8.95984 6.69099 8.95984 7.00024C8.95981 7.30947 8.88635 7.61437 8.74597 7.88989L8.33679 7.68091L7.92664 7.47192C8.00097 7.32586 8.03988 7.16414 8.03992 7.00024C8.03992 6.83633 8.00096 6.67466 7.92664 6.52856C7.81133 6.30226 7.90157 6.02481 8.12781 5.90942Z" fill="#242629"/>
</svg>
