<svg width="14" height="14" viewBox="0 0 14 14" fill="none" xmlns="http://www.w3.org/2000/svg">
<g clip-path="url(#clip0_19835_2567)">
<path d="M5.89124 1.77393C6.26823 0.729186 7.74553 0.729338 8.12268 1.77393L9.09143 4.45947C9.11735 4.53105 9.18528 4.57994 9.26135 4.58252L12.1139 4.67334C13.2244 4.70881 13.6819 6.11495 12.8043 6.79639L10.5494 8.54736C10.4894 8.59399 10.4632 8.67256 10.484 8.74561L11.2799 11.4878C11.5893 12.5548 10.3935 13.4232 9.47424 12.7993L7.11194 11.1968C7.04884 11.1542 6.96597 11.154 6.90295 11.1968L4.54065 12.7993C3.6214 13.4233 2.42556 12.5549 2.73499 11.4878L3.52991 8.74561C3.55081 8.67259 3.52535 8.59409 3.46545 8.54736L1.21057 6.79639C0.333719 6.11492 0.790032 4.70916 1.90002 4.67334L4.75354 4.58252C4.8297 4.58007 4.89649 4.53108 4.92249 4.45947L5.89124 1.77393ZM7.18225 2.11279C7.12275 1.94933 6.89094 1.94912 6.83167 2.11279L5.86389 4.79834C5.69901 5.25557 5.27154 5.56589 4.78577 5.58154L1.93225 5.67236C1.75829 5.67821 1.68672 5.89927 1.82385 6.00635L4.07874 7.75732C4.46249 8.05545 4.62605 8.55815 4.49084 9.0249L3.69495 11.7661C3.64636 11.9337 3.83477 12.0701 3.97913 11.9722L6.34045 10.3687C6.74249 10.0957 7.2713 10.096 7.67346 10.3687L10.0358 11.9722C10.1801 12.0701 10.3676 11.9337 10.319 11.7661L9.52405 9.0249C9.38892 8.55812 9.55231 8.05539 9.93616 7.75732L12.191 6.00635C12.3286 5.89935 12.2568 5.67815 12.0826 5.67236L9.22913 5.58154C8.74337 5.56587 8.31588 5.25556 8.151 4.79834L7.18225 2.11279Z" fill="#242629"/>
</g>
<defs>
<clipPath id="clip0_19835_2567">
<rect width="14" height="14" fill="white"/>
</clipPath>
</defs>
</svg>
