<svg width="14" height="14" viewBox="0 0 14 14" fill="none" xmlns="http://www.w3.org/2000/svg">
<g clip-path="url(#clip0_19835_2787)">
<path d="M7.922 12.4229C8.19429 12.3769 8.4532 12.5607 8.49915 12.833C8.54498 13.1052 8.36116 13.3632 8.08899 13.4092L7.82141 13.4482C7.55222 13.4822 7.27813 13.5 7.00012 13.5C6.72212 13.5 6.44802 13.4822 6.17883 13.4482L5.91125 13.4092L5.8136 13.3828C5.59671 13.299 5.46098 13.0712 5.5011 12.833C5.5413 12.5948 5.74427 12.4241 5.97668 12.416L6.07825 12.4229L6.30383 12.4561C6.5317 12.4848 6.76405 12.5 7.00012 12.5C7.31463 12.5 7.62255 12.4734 7.922 12.4229ZM3.8175 11.4863C4.04255 11.6463 4.09561 11.9585 3.93567 12.1836C3.77577 12.4086 3.46345 12.4614 3.2384 12.3018L3.8175 11.4863ZM10.7618 12.3018C10.5368 12.4614 10.2245 12.4086 10.0646 12.1836C9.90464 11.9585 9.9577 11.6463 10.1827 11.4863L10.7618 12.3018ZM2.51379 10.1826C2.87213 10.6867 3.31338 11.128 3.8175 11.4863L3.52747 11.8936L3.2384 12.3018C2.64308 11.8786 2.12153 11.357 1.69836 10.7617L2.10657 10.4727L2.51379 10.1826ZM11.8937 10.4727L12.3019 10.7617C11.8787 11.357 11.3572 11.8786 10.7618 12.3018L10.4728 11.8936L10.1827 11.4863C10.6869 11.128 11.1281 10.6867 11.4865 10.1826L11.8937 10.4727ZM1.81653 10.0645C2.0416 9.90451 2.35382 9.95757 2.51379 10.1826L1.69836 10.7617C1.53869 10.5367 1.59157 10.2244 1.81653 10.0645ZM11.4865 10.1826C11.6464 9.95757 11.9586 9.90452 12.1837 10.0645C12.4087 10.2244 12.4616 10.5367 12.3019 10.7617L11.4865 10.1826ZM1.16711 5.50098C1.43941 5.54692 1.62322 5.80583 1.57727 6.07812L1.54407 6.30371C1.51531 6.53158 1.50012 6.76393 1.50012 7C1.50012 7.23607 1.51531 7.46842 1.54407 7.69629L1.57727 7.92188L1.58411 8.02344C1.57603 8.25585 1.40536 8.45882 1.16711 8.49902C0.9289 8.53914 0.70116 8.40341 0.61731 8.18652L0.590942 8.08887L0.55188 7.82129C0.517912 7.5521 0.500122 7.278 0.500122 7C0.500122 6.62937 0.531156 6.26546 0.590942 5.91113L0.61731 5.81348C0.70116 5.59659 0.928902 5.46086 1.16711 5.50098ZM12.8331 5.50098C13.0713 5.46086 13.2991 5.59659 13.3829 5.81348L13.4093 5.91113L13.4484 6.17871C13.4823 6.4479 13.5001 6.722 13.5001 7C13.5001 7.37063 13.4691 7.73454 13.4093 8.08887L13.3829 8.18652C13.2991 8.40341 13.0713 8.53914 12.8331 8.49902C12.5608 8.45308 12.377 8.19417 12.423 7.92188C12.4735 7.62243 12.5001 7.31451 12.5001 7C12.5001 6.76393 12.4849 6.53158 12.4562 6.30371L12.423 6.07812L12.4161 5.97656C12.4242 5.74415 12.5949 5.54118 12.8331 5.50098ZM2.51379 3.81738C2.35382 4.04243 2.0416 4.09549 1.81653 3.93555C1.59157 3.77565 1.53869 3.46333 1.69836 3.23828L2.51379 3.81738ZM12.3019 3.23828C12.4616 3.46333 12.4087 3.77565 12.1837 3.93555C11.9586 4.09549 11.6464 4.04243 11.4865 3.81738L12.3019 3.23828ZM3.52747 2.10645L3.8175 2.51367C3.31338 2.87201 2.87213 3.31326 2.51379 3.81738L2.10657 3.52734L1.69836 3.23828C2.12153 2.64296 2.64308 2.1214 3.2384 1.69824L3.52747 2.10645ZM10.7618 1.69824C11.3572 2.12141 11.8787 2.64295 12.3019 3.23828L11.8937 3.52734L11.4865 3.81738C11.1281 3.31326 10.6869 2.872 10.1827 2.51367L10.4728 2.10645L10.7618 1.69824ZM3.2384 1.69824C3.46345 1.53856 3.77577 1.59145 3.93567 1.81641C4.09561 2.04147 4.04255 2.35369 3.8175 2.51367L3.2384 1.69824ZM10.0646 1.81641C10.2245 1.59145 10.5368 1.53856 10.7618 1.69824L10.1827 2.51367C9.95769 2.3537 9.90464 2.04147 10.0646 1.81641ZM7.00012 0.5C7.27813 0.5 7.55222 0.51779 7.82141 0.551758L8.08899 0.59082L8.18665 0.617188C8.40353 0.701038 8.53926 0.928779 8.49915 1.16699C8.45895 1.40524 8.25597 1.57591 8.02356 1.58398L7.922 1.57715L7.69641 1.54395C7.46854 1.51518 7.2362 1.5 7.00012 1.5C6.68561 1.5 6.37769 1.52665 6.07825 1.57715L5.97668 1.58398C5.74428 1.5759 5.5413 1.40524 5.5011 1.16699C5.45526 0.894803 5.63909 0.636819 5.91125 0.59082L6.17883 0.551758C6.44802 0.51779 6.72212 0.5 7.00012 0.5Z" fill="#242629"/>
</g>
<defs>
<clipPath id="clip0_19835_2787">
<rect width="14" height="14" fill="white"/>
</clipPath>
</defs>
</svg>
