<svg width="14" height="14" viewBox="0 0 14 14" fill="none" xmlns="http://www.w3.org/2000/svg">
<path d="M7.24976 1.49976C7.45802 1.49976 7.63571 1.49786 7.79272 1.52905C8.38733 1.6475 8.8519 2.11222 8.97046 2.70679C9.00169 2.8638 8.99976 3.0415 8.99976 3.24976V11.7498C8.99976 11.958 9.00166 12.1357 8.97046 12.2927C8.85199 12.8874 8.38743 13.352 7.79272 13.4705C7.63568 13.5017 7.45806 13.4998 7.24976 13.4998C7.04148 13.4998 6.86381 13.5017 6.70679 13.4705C6.1122 13.3519 5.6475 12.8873 5.52905 12.2927C5.49787 12.1357 5.49976 11.958 5.49976 11.7498V3.24976C5.49975 3.0415 5.49782 2.8638 5.52905 2.70679C5.64758 2.11223 6.11222 1.64755 6.70679 1.52905C6.86381 1.49782 7.04148 1.49975 7.24976 1.49976ZM7.24976 2.49976C6.99363 2.49976 6.93822 2.50234 6.9021 2.50952C6.704 2.54904 6.54907 2.70401 6.50952 2.9021C6.50234 2.93821 6.49976 2.99368 6.49976 3.24976V11.7498C6.49976 12.0054 6.50238 12.0613 6.50952 12.0974C6.54899 12.2956 6.70398 12.4504 6.9021 12.49C6.93822 12.4972 6.99363 12.4998 7.24976 12.4998C7.50573 12.4998 7.56129 12.4972 7.59741 12.49C7.79565 12.4505 7.9505 12.2956 7.98999 12.0974C7.99714 12.0613 7.99976 12.0056 7.99976 11.7498V3.24976C7.99975 2.99368 7.99717 2.93821 7.98999 2.9021C7.95041 2.704 7.79555 2.54899 7.59741 2.50952C7.56128 2.50237 7.5055 2.49976 7.24976 2.49976ZM2.74976 1.49976C2.958 1.49976 3.13572 1.49786 3.29272 1.52905C3.88734 1.6475 4.35191 2.11222 4.47046 2.70679C4.50169 2.8638 4.49976 3.0415 4.49976 3.24976V8.74976C4.49976 8.95804 4.50167 9.1357 4.47046 9.29272C4.35199 9.88743 3.88743 10.352 3.29272 10.4705C3.1357 10.5017 2.95804 10.4998 2.74976 10.4998C2.5415 10.4998 2.3638 10.5017 2.20679 10.4705C1.61222 10.3519 1.1475 9.88734 1.02905 9.29272C0.997865 9.13572 0.999756 8.958 0.999756 8.74976V3.24976C0.999754 3.0415 0.997821 2.8638 1.02905 2.70679C1.14756 2.11223 1.61223 1.64756 2.20679 1.52905C2.3638 1.49782 2.5415 1.49975 2.74976 1.49976ZM2.74976 2.49976C2.49366 2.49976 2.43821 2.50234 2.4021 2.50952C2.20401 2.54906 2.04906 2.70401 2.00952 2.9021C2.00234 2.93821 1.99976 2.99366 1.99976 3.24976V8.74976C1.99976 9.00541 2.00238 9.06128 2.00952 9.09741C2.04899 9.29556 2.204 9.45041 2.4021 9.48999C2.43821 9.49717 2.49366 9.49975 2.74976 9.49976C3.00562 9.49976 3.06128 9.49715 3.09741 9.48999C3.29565 9.4505 3.4505 9.29565 3.48999 9.09741C3.49715 9.06128 3.49976 9.00562 3.49976 8.74976V3.24976C3.49975 2.99366 3.49717 2.93821 3.48999 2.9021C3.45041 2.704 3.29556 2.54899 3.09741 2.50952C3.06128 2.50238 3.00541 2.49976 2.74976 2.49976ZM11.7498 1.49976C11.958 1.49976 12.1357 1.49786 12.2927 1.52905C12.8873 1.6475 13.3519 2.11222 13.4705 2.70679C13.5017 2.8638 13.4998 3.0415 13.4998 3.24976V5.74976C13.4998 5.95803 13.5017 6.1357 13.4705 6.29272C13.352 6.88743 12.8874 7.35199 12.2927 7.47046C12.1357 7.50167 11.9581 7.49976 11.7498 7.49976C11.5415 7.49976 11.3638 7.50169 11.2068 7.47046C10.6122 7.35192 10.1475 6.88735 10.0291 6.29272C9.99787 6.13572 9.99976 5.95799 9.99976 5.74976V3.24976C9.99975 3.0415 9.99782 2.8638 10.0291 2.70679C10.1476 2.11223 10.6122 1.64755 11.2068 1.52905C11.3638 1.49782 11.5415 1.49975 11.7498 1.49976ZM11.7498 2.49976C11.4936 2.49976 11.4382 2.50234 11.4021 2.50952C11.204 2.54904 11.0491 2.70401 11.0095 2.9021C11.0023 2.93821 10.9998 2.99368 10.9998 3.24976V5.74976C10.9998 6.00539 11.0024 6.06128 11.0095 6.09741C11.049 6.29557 11.204 6.45043 11.4021 6.48999C11.4382 6.49717 11.4936 6.49975 11.7498 6.49976C12.0057 6.49976 12.0613 6.49716 12.0974 6.48999C12.2956 6.4505 12.4505 6.29565 12.49 6.09741C12.4971 6.06128 12.4998 6.00556 12.4998 5.74976V3.24976C12.4998 2.99368 12.4972 2.93821 12.49 2.9021C12.4504 2.704 12.2956 2.54899 12.0974 2.50952C12.0613 2.50237 12.0055 2.49976 11.7498 2.49976Z" fill="#242629"/>
</svg>
