<svg width="14" height="14" viewBox="0 0 14 14" fill="none" xmlns="http://www.w3.org/2000/svg">
<path d="M12 6.5C12.2761 6.5 12.5 6.72386 12.5 7C12.5 7.27614 12.2761 7.5 12 7.5H9.91211C10.4096 7.91127 10.75 8.47565 10.75 9.25C10.75 10.0817 10.2626 10.7813 9.58301 11.252C8.90126 11.7239 7.98629 12 7 12C6.01371 12 5.09874 11.7239 4.41699 11.252C3.73736 10.7813 3.25 10.0817 3.25 9.25C3.25002 8.97388 3.47387 8.75 3.75 8.75C4.02613 8.75 4.24998 8.97388 4.25 9.25C4.25 9.6608 4.49001 10.086 4.98633 10.4297C5.48085 10.772 6.19137 11 7 11C7.80863 11 8.51915 10.772 9.01367 10.4297C9.50999 10.086 9.75 9.6608 9.75 9.25C9.74999 8.77553 9.54301 8.452 9.15918 8.17969C8.76058 7.89693 8.19635 7.69174 7.53125 7.5H2C1.72386 7.5 1.5 7.27614 1.5 7C1.5 6.72386 1.72386 6.5 2 6.5H12ZM6.83496 2C8.25637 2.00005 9.45654 2.66717 9.94824 3.72461C10.0645 3.97488 9.95618 4.27215 9.70605 4.38867C9.48705 4.49048 9.23212 4.42016 9.09375 4.2334L9.04199 4.14648L8.98145 4.03125C8.65273 3.46073 7.89654 3.00005 6.83496 3C5.34714 3.00015 4.49512 3.87666 4.49512 4.75V4.75391C4.49436 4.85583 4.50946 4.95729 4.53906 5.05371C4.61978 5.31735 4.47144 5.59646 4.20801 5.67773C3.94404 5.75878 3.66408 5.61063 3.58301 5.34668C3.52336 5.15234 3.49358 4.94958 3.49512 4.74609C3.49755 3.13641 5.00295 2.00016 6.83496 2Z" fill="#242629"/>
</svg>
