<svg width="14" height="14" viewBox="0 0 14 14" fill="none" xmlns="http://www.w3.org/2000/svg">
<path d="M5.47363 0.820923C6.415 0.264718 7.585 0.264718 8.52637 0.820923L11.5264 2.59338C12.4396 3.1331 12.9999 4.11557 13 5.17639V8.82288C13 9.88376 12.4396 10.8661 11.5264 11.4059L8.52637 13.1783C7.58495 13.7346 6.41505 13.7346 5.47363 13.1783L2.47363 11.4059C1.56035 10.8661 1 9.88376 1 8.82288V5.17639C1.00009 4.11557 1.56036 3.1331 2.47363 2.59338L5.47363 0.820923ZM8.01758 1.68127C7.39005 1.31055 6.60994 1.31055 5.98242 1.68127L2.98242 3.45471C2.3737 3.81453 2.00009 4.46927 2 5.17639V8.82288C2 9.53005 2.37369 10.1847 2.98242 10.5446L5.98242 12.318C6.61 12.6888 7.39 12.6888 8.01758 12.318L11.0176 10.5446C11.6263 10.1847 12 9.53005 12 8.82288V5.17639C11.9999 4.46927 11.6263 3.81453 11.0176 3.45471L8.01758 1.68127ZM7.14648 3.64612C7.34171 3.45103 7.65829 3.45103 7.85352 3.64612L9.35352 5.14612C9.44722 5.23983 9.49993 5.36712 9.5 5.49963C9.5 5.63218 9.4472 5.75939 9.35352 5.85315L7.85352 7.35315L7.77539 7.4176C7.58131 7.54577 7.31735 7.52401 7.14648 7.35315C6.97574 7.18228 6.9539 6.91827 7.08203 6.72424L7.14648 6.64612L7.79297 5.99963H6.5C5.67167 5.99965 5.00014 6.67134 5 7.49963C5.00001 8.32804 5.6716 8.99962 6.5 8.99963H7C7.27606 8.99963 7.49986 9.22361 7.5 9.49963C7.5 9.77578 7.27614 9.99963 7 9.99963H6.5C5.11932 9.99962 4.00002 8.88032 4 7.49963C4.00014 6.11905 5.11939 4.99965 6.5 4.99963H7.79297L7.14648 4.35315C6.95135 4.15788 6.95127 3.84134 7.14648 3.64612Z" fill="#242629"/>
</svg>
