<svg width="14" height="14" viewBox="0 0 14 14" fill="none" xmlns="http://www.w3.org/2000/svg">
<g clip-path="url(#clip0_19835_2664)">
<path d="M7 12C7.27614 12 7.5 12.2239 7.5 12.5V13.5C7.5 13.7761 7.27614 14 7 14C6.72386 14 6.5 13.7761 6.5 13.5V12.5C6.5 12.2239 6.72386 12 7 12ZM2.75684 10.5352C2.9521 10.3399 3.26958 10.3399 3.46484 10.5352C3.65992 10.7303 3.65964 11.0469 3.46484 11.2422L2.75684 11.9502C2.56155 12.145 2.24492 12.1453 2.0498 11.9502C1.85454 11.7549 1.85454 11.4374 2.0498 11.2422L2.75684 10.5352ZM10.5352 10.5352C10.7303 10.34 11.0469 10.3403 11.2422 10.5352L11.9502 11.2422C12.1455 11.4374 12.1455 11.7549 11.9502 11.9502C11.7549 12.1455 11.4374 12.1455 11.2422 11.9502L10.5352 11.2422C10.3403 11.0469 10.34 10.7303 10.5352 10.5352ZM7 3.5C8.933 3.5 10.5 5.067 10.5 7C10.5 8.933 8.933 10.5 7 10.5C5.067 10.5 3.5 8.933 3.5 7C3.5 5.067 5.067 3.5 7 3.5ZM7 4.5C5.61929 4.5 4.5 5.61929 4.5 7C4.5 8.38071 5.61929 9.5 7 9.5C8.38071 9.5 9.5 8.38071 9.5 7C9.5 5.61929 8.38071 4.5 7 4.5ZM1.5 6.5C1.77614 6.5 2 6.72386 2 7C2 7.27614 1.77614 7.5 1.5 7.5H0.5C0.223858 7.5 2.33648e-08 7.27614 0 7C1.20706e-08 6.72386 0.223858 6.5 0.5 6.5H1.5ZM13.5 6.5C13.7761 6.5 14 6.72386 14 7C14 7.27614 13.7761 7.5 13.5 7.5H12.5C12.2239 7.5 12 7.27614 12 7C12 6.72386 12.2239 6.5 12.5 6.5H13.5ZM2.0498 2.0498C2.24492 1.85473 2.56155 1.85501 2.75684 2.0498L3.46484 2.75781C3.65964 2.9531 3.65992 3.26973 3.46484 3.46484C3.26958 3.66011 2.9521 3.66011 2.75684 3.46484L2.0498 2.75781C1.85454 2.56255 1.85454 2.24507 2.0498 2.0498ZM11.2422 2.0498C11.4374 1.85454 11.7549 1.85454 11.9502 2.0498C12.1455 2.24507 12.1455 2.56255 11.9502 2.75781L11.2422 3.46484C11.0469 3.65969 10.7303 3.65997 10.5352 3.46484C10.34 3.26972 10.3403 2.95311 10.5352 2.75781L11.2422 2.0498ZM7 0C7.27614 0 7.5 0.223858 7.5 0.5V1.5C7.5 1.77614 7.27614 2 7 2C6.72386 2 6.5 1.77614 6.5 1.5V0.5C6.5 0.223858 6.72386 0 7 0Z" fill="#242629"/>
</g>
<defs>
<clipPath id="clip0_19835_2664">
<rect width="14" height="14" fill="white"/>
</clipPath>
</defs>
</svg>
