<svg width="14" height="14" viewBox="0 0 14 14" fill="none" xmlns="http://www.w3.org/2000/svg">
<path d="M7.00012 1C7.27618 1.00008 7.5001 1.22393 7.50012 1.5V3.25C7.50015 4.21648 8.28364 4.99999 9.25012 5C10.7688 5.0001 12.0001 6.23129 12.0001 7.75V9.29297L12.6466 8.64648C12.8419 8.45134 13.1584 8.45127 13.3536 8.64648C13.5488 8.84171 13.5488 9.15826 13.3536 9.35352L11.8536 10.8535L11.7755 10.918C11.5815 11.0461 11.3175 11.0243 11.1466 10.8535L9.64661 9.35352L9.58215 9.27539C9.454 9.08131 9.47575 8.81734 9.64661 8.64648C9.81747 8.47573 10.0815 8.4539 10.2755 8.58203L10.3536 8.64648L11.0001 9.29297V7.75C11.0001 6.78357 10.2165 6.0001 9.25012 6C8.58527 5.99999 7.9756 5.76381 7.50012 5.37109V11.293L8.14661 10.6465L8.22473 10.582C8.4188 10.454 8.68281 10.4757 8.85364 10.6465C9.02442 10.8173 9.04617 11.0813 8.91809 11.2754L8.85364 11.3535L7.35364 12.8535C7.25991 12.9472 7.13267 13 7.00012 13C6.90073 13 6.80429 12.9703 6.72278 12.916L6.64661 12.8535L5.14661 11.3535C4.95134 11.1583 4.95134 10.8417 5.14661 10.6465C5.34188 10.4513 5.65841 10.4513 5.85364 10.6465L6.50012 11.293V5.37109C6.02465 5.76387 5.415 5.99996 4.75012 6C3.78363 6 3.00014 6.78351 3.00012 7.75V9.29297L3.64661 8.64648L3.72473 8.58203C3.9188 8.45396 4.18281 8.47566 4.35364 8.64648C4.52441 8.81732 4.54617 9.08135 4.41809 9.27539L4.35364 9.35352L2.85364 10.8535C2.75991 10.9472 2.63267 11 2.50012 11C2.40073 11 2.30429 10.9703 2.22278 10.916L2.14661 10.8535L0.646606 9.35352C0.451344 9.15825 0.451344 8.84175 0.646606 8.64648C0.841876 8.45131 1.15841 8.45125 1.35364 8.64648L2.00012 9.29297V7.75C2.00014 6.23123 3.23135 5 4.75012 5C5.71655 4.99992 6.50012 4.21645 6.50012 3.25V1.5C6.50013 1.39658 6.53129 1.30044 6.58508 1.2207C6.62116 1.16722 6.66732 1.12102 6.72083 1.08496C6.80053 1.03126 6.89679 1 7.00012 1Z" fill="#242629"/>
</svg>
