<svg width="14" height="14" viewBox="0 0 14 14" fill="none" xmlns="http://www.w3.org/2000/svg">
<g clip-path="url(#clip0_19835_2630)">
<path d="M11.5002 9C11.7762 9.00014 12.0002 9.224 12.0002 9.5V11H13.5002C13.7762 11.0001 14.0002 11.224 14.0002 11.5C14.0002 11.7761 13.7763 11.9999 13.5002 12H12.0002V13.5C12.0002 13.7761 11.7763 13.9999 11.5002 14C11.2241 14 11.0002 13.7761 11.0002 13.5V12H9.50024C9.2241 12 9.00024 11.7761 9.00024 11.5C9.00031 11.2239 9.22414 11 9.50024 11H11.0002V9.5C11.0003 9.22391 11.2241 9 11.5002 9ZM10.0002 1C11.6569 1.00017 13.0002 2.34328 13.0002 4V7C13.0002 7.27604 12.7762 7.49983 12.5002 7.5C12.2241 7.5 12.0002 7.27614 12.0002 7V4C12.0002 2.89556 11.1047 2.00017 10.0002 2H7.12134C6.85615 1.99999 6.60184 2.10548 6.41431 2.29297L2.12134 6.58594C1.34031 7.36698 1.34033 8.63302 2.12134 9.41406L4.79028 12.083C5.47412 12.7665 6.57591 12.7886 7.28638 12.1328C7.48929 11.9457 7.80519 11.9583 7.99243 12.1611C8.1796 12.364 8.16687 12.6799 7.96411 12.8672C6.85916 13.8872 5.14562 13.8533 4.08228 12.79L1.41431 10.1211C0.242776 8.94953 0.242754 7.05047 1.41431 5.87891L5.70728 1.58594C6.08235 1.2109 6.59093 0.999989 7.12134 1H10.0002ZM8.58228 4.16797C8.88982 3.86057 9.38904 3.86048 9.69653 4.16797C10.004 4.47546 10.0039 4.97468 9.69653 5.28223C9.389 5.58976 8.88981 5.58976 8.58228 5.28223C8.27474 4.97469 8.27474 4.47551 8.58228 4.16797Z" fill="#242629"/>
</g>
<defs>
<clipPath id="clip0_19835_2630">
<rect width="14" height="14" fill="white"/>
</clipPath>
</defs>
</svg>
