<svg width="14" height="14" viewBox="0 0 14 14" fill="none" xmlns="http://www.w3.org/2000/svg">
<g clip-path="url(#clip0_19835_2105)">
<path d="M10.5001 6.99988C10.6627 6.99994 10.7908 7.06737 10.8585 7.10925C10.9377 7.15825 11.0093 7.22037 11.0724 7.28308C11.1997 7.40964 11.3282 7.57867 11.4464 7.7782C11.6406 8.10592 11.822 8.54242 11.9318 9.06726C12.4571 9.17696 12.8939 9.35932 13.2218 9.55359C13.4211 9.67166 13.5904 9.79951 13.7169 9.92664C13.7796 9.98973 13.8418 10.0623 13.8907 10.1415C13.9326 10.2093 14.0001 10.3373 14.0001 10.4999C14.0001 10.6624 13.9327 10.7905 13.8907 10.8583C13.8418 10.9374 13.7796 11.0091 13.7169 11.0721C13.5904 11.1994 13.4213 11.328 13.2218 11.4462C12.8939 11.6404 12.457 11.8218 11.9318 11.9315C11.8221 12.4567 11.6406 12.8936 11.4464 13.2216C11.3282 13.421 11.1996 13.5901 11.0724 13.7167C11.0093 13.7794 10.9377 13.8415 10.8585 13.8905C10.7908 13.9324 10.6627 13.9998 10.5001 13.9999C10.3376 13.9999 10.2095 13.9324 10.1417 13.8905C10.0625 13.8415 9.99095 13.7794 9.92786 13.7167C9.80056 13.5901 9.67207 13.4211 9.55383 13.2216C9.35953 12.8936 9.1772 12.4569 9.0675 11.9315C8.54269 11.8218 8.10617 11.6403 7.77844 11.4462C7.57891 11.3279 7.40988 11.1994 7.28333 11.0721C7.22058 11.009 7.1585 10.9375 7.1095 10.8583C7.0781 10.8075 7.03286 10.7227 7.01184 10.6151L7.00012 10.4999L7.01184 10.3846C7.03286 10.2771 7.0781 10.1923 7.1095 10.1415C7.15849 10.0623 7.22062 9.9897 7.28333 9.92664C7.40982 9.79954 7.5792 9.67163 7.77844 9.55359C8.1062 9.35946 8.54265 9.17695 9.0675 9.06726C9.17723 8.54236 9.35967 8.10595 9.55383 7.7782C9.67204 7.57871 9.8006 7.40961 9.92786 7.28308C9.99092 7.2204 10.0626 7.15821 10.1417 7.10925C10.2096 7.06734 10.3377 6.99988 10.5001 6.99988ZM10.0001 0.999878C11.6568 1.00007 13.0001 2.34318 13.0001 3.99988V5.99988C13.0001 6.27592 12.7761 6.49972 12.5001 6.49988C12.224 6.49982 12.0001 6.27598 12.0001 5.99988V3.99988C12.0001 2.89545 11.1045 2.00005 10.0001 1.99988H7.12122C6.85616 1.99995 6.60164 2.10546 6.41418 2.29285L2.12122 6.58582C1.34039 7.3668 1.34046 8.63292 2.12122 9.41394L4.85364 12.1464C5.37038 12.663 6.15112 12.7588 6.76477 12.4305C7.00806 12.3009 7.31034 12.3926 7.44055 12.6356C7.57065 12.879 7.47877 13.1821 7.23547 13.3124C6.24429 13.8423 4.98345 13.6901 4.14661 12.8534L1.41418 10.121C0.242905 8.94943 0.242834 7.05029 1.41418 5.87878L5.70715 1.58582C6.08215 1.21089 6.59094 0.99995 7.12122 0.999878H10.0001ZM10.4142 8.28796C10.2442 8.57486 10.0685 9.01011 9.99622 9.56433C9.96692 9.78914 9.78936 9.96657 9.56458 9.99597C9.01041 10.0682 8.57513 10.244 8.28821 10.4139C8.23922 10.443 8.19659 10.4732 8.15833 10.4999C8.19662 10.5266 8.23918 10.5568 8.28821 10.5858C8.57512 10.7558 9.01036 10.9315 9.56458 11.0038C9.78934 11.0332 9.96689 11.2106 9.99622 11.4354C10.0685 11.9897 10.2442 12.4249 10.4142 12.7118C10.4431 12.7606 10.4735 12.8025 10.5001 12.8407C10.5267 12.8026 10.5572 12.7605 10.5861 12.7118C10.756 12.4249 10.9318 11.9896 11.004 11.4354L11.0216 11.3534C11.0782 11.1685 11.2389 11.0294 11.4357 11.0038C11.9898 10.9315 12.4252 10.7558 12.712 10.5858C12.7607 10.5569 12.8028 10.5264 12.8409 10.4999C12.8028 10.4733 12.7608 10.4428 12.712 10.4139C12.4252 10.244 11.9899 10.0682 11.4357 9.99597C11.2108 9.96667 11.0333 9.78922 11.004 9.56433C10.9318 9.01009 10.756 8.57487 10.5861 8.28796C10.557 8.23891 10.5269 8.19639 10.5001 8.15808C10.4734 8.19635 10.4432 8.23897 10.4142 8.28796ZM10.0001 3.24988C10.4142 3.25 10.7501 3.58579 10.7501 3.99988C10.7501 4.41402 10.4142 4.74976 10.0001 4.74988C9.58591 4.74988 9.25012 4.41409 9.25012 3.99988C9.25018 3.58571 9.58595 3.24988 10.0001 3.24988Z" fill="#242629"/>
</g>
<defs>
<clipPath id="clip0_19835_2105">
<rect width="14" height="14" fill="white"/>
</clipPath>
</defs>
</svg>
