<svg width="14" height="14" viewBox="0 0 14 14" fill="none" xmlns="http://www.w3.org/2000/svg">
<path d="M10.0001 1C11.6568 1.0002 13.0001 2.34331 13.0001 4V7.34375C13 7.90167 12.7665 8.434 12.3566 8.8125L8.10461 12.7383C6.92152 13.8304 5.08699 13.7936 3.94836 12.6553L1.41418 10.1211C0.242912 8.94956 0.242852 7.05041 1.41418 5.87891L5.70715 1.58594C6.08215 1.21102 6.59095 1.00007 7.12122 1H10.0001ZM7.12122 2C6.85617 2.00007 6.60164 2.10559 6.41418 2.29297L2.12122 6.58594C1.34041 7.36692 1.34047 8.63305 2.12122 9.41406L4.6554 11.9482C5.41437 12.707 6.63719 12.7316 7.4259 12.0039L11.6788 8.07812C11.8836 7.88894 12 7.62254 12.0001 7.34375V4C12.0001 2.89558 11.1045 2.00019 10.0001 2H7.12122ZM8.58215 4.16797C8.88968 3.86053 9.3889 3.8605 9.69641 4.16797C10.0039 4.47548 10.0039 4.97468 9.69641 5.28223C9.38887 5.58976 8.88969 5.58976 8.58215 5.28223C8.27466 4.97468 8.27463 4.47549 8.58215 4.16797Z" fill="#242629"/>
</svg>
