<svg width="14" height="14" viewBox="0 0 14 14" fill="none" xmlns="http://www.w3.org/2000/svg">
<path fill-rule="evenodd" clip-rule="evenodd" d="M0.5 8.08207V5.91801V5.90503C0.5 5.23397 0.500003 4.70011 0.535156 4.26957C0.571042 3.83037 0.646007 3.4545 0.821289 3.11039C1.10402 2.55551 1.55547 2.10405 2.11035 1.82133C2.45447 1.64603 2.83031 1.57108 3.26953 1.53519C3.70012 1.50004 4.23406 1.50004 4.90524 1.50004L4.91797 1.50004H9.5L9.60431 1.50002C10.4811 1.49977 11.0513 1.49961 11.5264 1.66605C12.3723 1.96254 13.0375 2.6277 13.334 3.47367C13.5004 3.94875 13.5003 4.51894 13.5 5.39574L13.5 5.50001V5.50004C13.5 5.77617 13.2761 6.00001 13 6.00001H1.5V7.99985H5.49994L5.60053 8.00961C5.82849 8.05614 5.99993 8.25814 5.99994 8.49985C5.99994 8.77598 5.77608 8.99983 5.49994 8.99985H1.50416C1.50815 9.24944 1.51596 9.46224 1.53125 9.64945C1.56209 10.0269 1.62134 10.2559 1.71289 10.4356C1.89975 10.8023 2.19773 11.1003 2.56445 11.2871C2.74415 11.3787 2.97316 11.438 3.35059 11.4688C3.73309 11.5 4.22235 11.5 4.91412 11.5H4.91797H5.5C5.77614 11.5 6 11.7239 6 12C6 12.2762 5.77614 12.5 5.5 12.5H4.91797H4.90526H4.9052H4.90518H4.90517C4.23403 12.5 3.70011 12.5 3.26953 12.4649C2.83032 12.429 2.45447 12.354 2.11035 12.1787C1.55546 11.896 1.10402 11.4446 0.821289 10.8897C0.645998 10.5456 0.57104 10.1697 0.535156 9.73051C0.499992 9.29981 0.499996 8.76572 0.5 8.09431V8.08207ZM1.50467 5.00001H12.4988C12.4943 4.34282 12.4743 4.04371 12.3906 3.80473C12.1947 3.24547 11.7546 2.80535 11.1953 2.60941C10.9027 2.50695 10.5199 2.50004 9.5 2.50004H4.91797H4.91402C4.22231 2.50004 3.73307 2.50004 3.35059 2.53129C2.97315 2.56213 2.74415 2.62137 2.56445 2.71293C2.19773 2.89978 1.89975 3.19777 1.71289 3.56449C1.62135 3.74417 1.56306 3.97324 1.53223 4.35062C1.51693 4.53779 1.50889 4.75051 1.50467 5.00001ZM10.6904 7.00492C11.064 7.02499 11.3568 7.26078 11.501 7.54984L11.5508 7.64848C11.6523 7.85208 11.878 7.96179 12.1006 7.91508L12.1885 7.89652C12.5074 7.82964 12.8757 7.91537 13.1231 8.19828C13.2105 8.2983 13.2931 8.40315 13.3692 8.51273C13.5764 8.81138 13.577 9.17638 13.4483 9.46488L13.3906 9.59379C13.3002 9.79653 13.3543 10.0349 13.5235 10.1787L13.6231 10.2637C13.8643 10.4691 14.0205 10.7992 13.9619 11.1582C13.9398 11.294 13.9098 11.4274 13.8731 11.5577C13.7724 11.9139 13.4834 12.1476 13.1719 12.2276L13.0664 12.2549C12.8491 12.3107 12.6952 12.5043 12.6904 12.7286L12.6875 12.8614C12.6808 13.1788 12.5234 13.5117 12.2041 13.6924C12.0915 13.7562 11.9745 13.8132 11.8545 13.8643C11.5068 14.0124 11.1371 13.9268 10.8799 13.7266L10.8067 13.67C10.6262 13.5298 10.3738 13.5298 10.1934 13.67L10.1201 13.7266C9.8629 13.9268 9.49327 14.0124 9.14552 13.8643C9.02553 13.8132 8.90858 13.7562 8.79592 13.6924C8.47663 13.5117 8.31922 13.1788 8.31252 12.8614L8.30959 12.7286C8.3048 12.5043 8.15089 12.3107 7.93361 12.2549L7.82814 12.2276C7.51663 12.1476 7.22767 11.9139 7.12697 11.5577C7.09021 11.4274 7.06024 11.294 7.0381 11.1582C6.97955 10.7992 7.13573 10.4691 7.37697 10.2637L7.47658 10.1787C7.64572 10.0349 7.69987 9.79653 7.60939 9.59379L7.55177 9.46488C7.42308 9.17638 7.42367 8.81138 7.63088 8.51273C7.70691 8.40315 7.78955 8.2983 7.87697 8.19828L7.97463 8.1016C8.21526 7.8964 8.53233 7.83797 8.81154 7.89652L8.89943 7.91508C9.12206 7.96179 9.34778 7.85208 9.44924 7.64848L9.49904 7.54984C9.64326 7.26078 9.93605 7.02499 10.3096 7.00492C10.4362 6.99813 10.5638 6.99813 10.6904 7.00492ZM10.3447 8.09476C10.0404 8.70554 9.36221 9.03368 8.69435 8.89359L8.61232 8.87601C8.56113 8.9358 8.5125 8.99802 8.46681 9.06254L8.52248 9.18656C8.79386 9.79469 8.63223 10.509 8.12502 10.9405L8.02931 11.0205C8.04331 11.1017 8.06082 11.1815 8.08205 11.2598L8.18166 11.2862C8.83369 11.4532 9.29418 12.0342 9.30861 12.7071L9.31056 12.833C9.376 12.8692 9.44306 12.9025 9.51174 12.9327L9.57912 12.8809C10.1208 12.4595 10.8792 12.4595 11.4209 12.8809L11.4873 12.9327C11.556 12.9025 11.623 12.8692 11.6885 12.833L11.6914 12.7071C11.7059 12.0342 12.1663 11.4532 12.8184 11.2862L12.917 11.2598C12.9382 11.1815 12.9557 11.1017 12.9697 11.0205L12.875 10.9405C12.3678 10.509 12.2062 9.79469 12.4776 9.18656L12.5322 9.06254C12.4865 8.99801 12.438 8.93581 12.3867 8.87601L12.3057 8.89359C11.6378 9.03368 10.9596 8.70554 10.6553 8.09476L10.6104 8.00394C10.5369 8.00077 10.4631 8.00077 10.3897 8.00394L10.3447 8.09476ZM11.2072 11.2072C11.5976 10.8167 11.5976 10.1834 11.2072 9.7929C10.8167 9.40242 10.1834 9.40242 9.79288 9.7929C9.4024 10.1834 9.4024 10.8167 9.79288 11.2072C10.1834 11.5977 10.8167 11.5977 11.2072 11.2072Z" fill="#242629"/>
</svg>
