<svg width="14" height="14" viewBox="0 0 14 14" fill="none" xmlns="http://www.w3.org/2000/svg">
<path d="M9.49976 1.49976C10.391 1.49976 10.9558 1.49344 11.4265 1.64624C12.3399 1.94295 13.0565 2.65961 13.3533 3.573C13.5061 4.04371 13.4998 4.60845 13.4998 5.49976V7.99976C13.4998 8.69145 13.4997 9.24045 13.4636 9.68237C13.427 10.1301 13.3507 10.5125 13.1726 10.8621C12.885 11.4263 12.4263 11.885 11.8621 12.1726C11.5125 12.3507 11.1301 12.427 10.6824 12.4636C10.2404 12.4997 9.69145 12.4998 8.99976 12.4998H4.99976C4.30806 12.4998 3.75905 12.4997 3.31714 12.4636C2.86942 12.427 2.48702 12.3507 2.13745 12.1726C1.57333 11.885 1.11444 11.4262 0.826904 10.8621C0.648843 10.5125 0.572468 10.1301 0.535889 9.68237C0.4998 9.24045 0.499756 8.69144 0.499756 7.99976V5.49976C0.499755 4.60845 0.493375 4.04371 0.64624 3.573C0.942984 2.6596 1.6596 1.94298 2.573 1.64624C3.04371 1.49338 3.60845 1.49975 4.49976 1.49976H9.49976ZM1.49976 7.99976C1.49976 8.70795 1.49999 9.20955 1.53198 9.60132C1.56351 9.98696 1.62328 10.2229 1.71753 10.408C1.90923 10.7841 2.2154 11.0902 2.59155 11.282C2.77663 11.3763 3.01251 11.436 3.39819 11.4675C3.78996 11.4995 4.29154 11.4998 4.99976 11.4998V5.99976H1.49976V7.99976ZM5.99976 11.4998H8.99976C9.70797 11.4998 10.2095 11.4995 10.6013 11.4675C10.9871 11.436 11.2229 11.3763 11.408 11.282C11.7842 11.0902 12.0902 10.7842 12.282 10.408C12.3763 10.2229 12.436 9.98707 12.4675 9.60132C12.4995 9.20955 12.4998 8.70797 12.4998 7.99976V5.99976H5.99976V11.4998ZM4.49976 2.49976C3.53058 2.49976 3.16379 2.50574 2.88159 2.59741C2.27285 2.79526 1.79526 3.27285 1.59741 3.88159C1.52353 4.10904 1.50605 4.39145 1.50171 4.99976H12.4978C12.4935 4.39146 12.476 4.10904 12.4021 3.88159C12.2042 3.27286 11.7267 2.79523 11.1179 2.59741C10.8357 2.50581 10.4688 2.49976 9.49976 2.49976H4.49976Z" fill="#242629"/>
</svg>
