<svg width="14" height="14" viewBox="0 0 14 14" fill="none" xmlns="http://www.w3.org/2000/svg">
<g clip-path="url(#clip0_19835_2110)">
<path d="M10.5 7.00012C10.6626 7.00012 10.7906 7.06759 10.8584 7.1095C10.9376 7.1585 11.0092 7.22059 11.0723 7.28333C11.1996 7.40988 11.3281 7.5789 11.4463 7.77844C11.6404 8.10617 11.8219 8.54266 11.9316 9.0675C12.457 9.1772 12.8937 9.35954 13.2217 9.55383C13.421 9.67193 13.5903 9.79973 13.7168 9.92688C13.7795 9.98998 13.8416 10.0625 13.8906 10.1417C13.9325 10.2095 14 10.3376 14 10.5001C14 10.6627 13.9325 10.7908 13.8906 10.8585C13.8416 10.9377 13.7795 11.0093 13.7168 11.0724C13.5902 11.1997 13.4212 11.3282 13.2217 11.4464C12.8938 11.6407 12.4569 11.8221 11.9316 11.9318C11.8219 12.457 11.6405 12.8939 11.4463 13.2218C11.3281 13.4213 11.1995 13.5904 11.0723 13.7169C11.0092 13.7796 10.9376 13.8418 10.8584 13.8907C10.7906 13.9327 10.6626 14.0001 10.5 14.0001C10.3374 14.0001 10.2094 13.9326 10.1416 13.8907C10.0624 13.8418 9.99084 13.7796 9.92773 13.7169C9.80045 13.5904 9.67194 13.4213 9.55371 13.2218C9.35942 12.8938 9.17708 12.4571 9.06738 11.9318C8.54252 11.822 8.10605 11.6406 7.77832 11.4464C7.57877 11.3282 7.40976 11.1997 7.2832 11.0724C7.22047 11.0093 7.15838 10.9377 7.10938 10.8585C7.07798 10.8078 7.03275 10.7229 7.01172 10.6154L7 10.5001L7.01172 10.3849C7.03271 10.2773 7.07797 10.1925 7.10938 10.1417C7.15836 10.0625 7.22049 9.98997 7.2832 9.92688C7.4097 9.79975 7.57904 9.67191 7.77832 9.55383C8.10608 9.35966 8.54245 9.17722 9.06738 9.0675C9.17709 8.5426 9.35955 8.10621 9.55371 7.77844C9.67192 7.57893 9.80047 7.40988 9.92773 7.28333C9.99081 7.22061 10.0624 7.15849 10.1416 7.1095C10.2094 7.0676 10.3374 7.00014 10.5 7.00012ZM10.4141 8.28821C10.2441 8.57513 10.0683 9.01036 9.99609 9.56458C9.96674 9.78941 9.7893 9.96692 9.56445 9.99622C9.01019 10.0685 8.57499 10.2442 8.28809 10.4142C8.23906 10.4432 8.1965 10.4734 8.1582 10.5001C8.19652 10.5269 8.23902 10.557 8.28809 10.5861C8.57499 10.756 9.01019 10.9318 9.56445 11.004C9.78935 11.0333 9.96679 11.2108 9.99609 11.4357C10.0684 11.9899 10.2441 12.4251 10.4141 12.712C10.443 12.7608 10.4734 12.8028 10.5 12.8409C10.5266 12.8028 10.5571 12.7608 10.5859 12.712C10.7559 12.4251 10.9316 11.9899 11.0039 11.4357L11.0215 11.3536C11.078 11.1687 11.2388 11.0297 11.4355 11.004C11.9898 10.9318 12.425 10.756 12.7119 10.5861C12.7607 10.5572 12.8027 10.5267 12.8408 10.5001C12.8027 10.4735 12.7607 10.4431 12.7119 10.4142C12.425 10.2442 11.9898 10.0685 11.4355 9.99622C11.2107 9.9669 11.0333 9.7894 11.0039 9.56458C10.9317 9.01033 10.7559 8.57513 10.5859 8.28821C10.5569 8.23916 10.5267 8.19663 10.5 8.15833C10.4733 8.19662 10.4431 8.23919 10.4141 8.28821ZM5 11.0001C5.2761 11.0001 5.49995 11.224 5.5 11.5001C5.49994 11.7762 5.27607 12.0001 5 12.0001L1.5 12.0011C1.22406 12.0011 1.00026 11.777 1 11.5011C0.999952 11.225 1.22389 11.0002 1.5 11.0001H5ZM6 8.00012C6.27614 8.00012 6.5 8.22398 6.5 8.50012C6.49993 8.77621 6.2761 9.00012 6 9.00012H1.5C1.22393 9.00009 1.00007 8.77619 1 8.50012C1 8.224 1.22389 8.00015 1.5 8.00012H6ZM12.5 5.00012C12.7761 5.00012 13 5.22398 13 5.50012C12.9999 5.77621 12.7761 6.00012 12.5 6.00012H1.5C1.22393 6.00009 1.00007 5.77619 1 5.50012C1 5.224 1.22389 5.00015 1.5 5.00012H12.5ZM12.6006 2.01086C12.8285 2.05741 12.9999 2.25849 13 2.50012C12.9999 2.77621 12.7761 3.00012 12.5 3.00012H1.5C1.2239 3.00012 1.00007 2.77621 1 2.50012C1.00007 2.22404 1.2239 2.00012 1.5 2.00012H12.5L12.6006 2.01086Z" fill="#242629"/>
</g>
<defs>
<clipPath id="clip0_19835_2110">
<rect width="14" height="14" fill="white"/>
</clipPath>
</defs>
</svg>
