<svg width="14" height="14" viewBox="0 0 14 14" fill="none" xmlns="http://www.w3.org/2000/svg">
<path d="M7.5 2C7.77614 2 8 2.22386 8 2.5C8 2.77614 7.77614 3 7.5 3H5V11.5C5 11.7761 4.77614 12 4.5 12C4.22386 12 4 11.7761 4 11.5V3H1.5C1.22386 3 1 2.77614 1 2.5C1 2.22386 1.22386 2 1.5 2H7.5ZM12.5 5.5C12.7761 5.5 13 5.72388 13 6C13 6.27614 12.7761 6.5 12.5 6.5H11V11.5C11 11.7761 10.7761 12 10.5 12C10.2239 12 10 11.7761 10 11.5V6.5H8.5C8.22388 6.49997 8 6.27613 8 6C8.00003 5.7239 8.2239 5.50003 8.5 5.5H12.5Z" fill="#242629"/>
</svg>
