<svg width="14" height="14" viewBox="0 0 14 14" fill="none" xmlns="http://www.w3.org/2000/svg">
<path d="M11.25 1.00098C12.4509 1.00099 12.9998 2.00645 13 2.75098C12.9999 3.13435 12.9062 3.49142 12.71 3.78711C13.1496 4.06293 13.4998 4.54282 13.5 5.25098C13.4999 5.86673 13.2358 6.31182 12.8779 6.59863C13.1166 6.92343 13.2499 7.34095 13.25 7.75098C13.2498 8.70767 12.5524 9.35124 11.8477 9.49219L11.8262 9.49609L9.07617 9.91992L9.31934 11.3789C9.45697 12.2061 9.09714 13.0378 8.39941 13.5029C7.83173 13.881 7.06882 13.762 6.64258 13.2295L3.25879 9.00195H2C1.17172 9.00195 0.500247 8.32919 0.5 7.50098V2.50098C0.500272 1.67281 1.17179 1.00201 2 1.00195L3.5 1.00098H11.25ZM4 2.00098V8.32715L7.42285 12.6055C7.52506 12.7329 7.70863 12.7612 7.84473 12.6709C8.21507 12.424 8.40601 11.982 8.33301 11.543L8.00684 9.58398C7.98487 9.45224 8.01651 9.31626 8.09473 9.20801C8.17309 9.09978 8.29177 9.02719 8.42383 9.00684L11.6562 8.50977C11.9499 8.44888 12.2498 8.17233 12.25 7.75098C12.2498 7.29253 12.003 7.06199 11.8223 7.01172L11.75 7.00098C11.474 7.00098 11.2503 6.77689 11.25 6.50098C11.2502 6.25953 11.4217 6.05828 11.6494 6.01172L11.75 6.00098L11.8848 5.98926C12.199 5.93443 12.4998 5.68752 12.5 5.25098C12.4998 4.75199 12.107 4.50099 11.75 4.50098H11.5C11.241 4.50098 11.0249 4.30284 11.002 4.04492C10.9794 3.78694 11.1581 3.55408 11.4131 3.50879C11.6216 3.47169 11.7584 3.38543 11.8447 3.2793C11.932 3.17177 11.9999 3.00319 12 2.75098C11.9998 2.39568 11.7486 2.00099 11.25 2.00098H4ZM2 2.00195C1.72391 2.00201 1.50001 2.22585 1.5 2.50195V7.50195C1.50045 7.7432 1.6718 7.94471 1.89941 7.99121L2 8.00195H3V2.00195H2Z" fill="#242629"/>
</svg>
