<svg width="14" height="14" viewBox="0 0 14 14" fill="none" xmlns="http://www.w3.org/2000/svg">
<path d="M6.64258 0.771973C7.06883 0.239201 7.83161 0.120272 8.39941 0.498535C9.09726 0.963764 9.45716 1.79527 9.31934 2.62256L9.07617 4.08154L11.8262 4.50537L11.8477 4.50928C12.5525 4.65024 13.25 5.29356 13.25 6.25049C13.2499 6.66063 13.1167 7.078 12.8779 7.40283C13.2359 7.68971 13.5 8.13451 13.5 8.75049C13.4998 9.45875 13.1496 9.93856 12.71 10.2144C12.9063 10.5102 13 10.867 13 11.2505C12.9998 11.995 12.4509 13.0005 11.25 13.0005H3.5L2 12.9995C1.17179 12.9995 0.500272 12.3287 0.5 11.5005V6.50049C0.50001 5.67207 1.17158 4.99951 2 4.99951H3.25879L6.64258 0.771973ZM7.84473 1.33057C7.70851 1.24003 7.52507 1.26826 7.42285 1.396L4 5.67432V12.0005H11.25C11.7486 12.0005 11.9998 11.6058 12 11.2505C12 10.998 11.9321 10.8298 11.8447 10.7222C11.7584 10.6159 11.6218 10.5298 11.4131 10.4927C11.158 10.4474 10.9794 10.2146 11.002 9.95654C11.0247 9.69841 11.2409 9.50049 11.5 9.50049H11.75C12.107 9.50047 12.4998 9.24948 12.5 8.75049C12.5 8.31367 12.1991 8.06706 11.8848 8.01221L11.75 8.00049L11.6494 7.98975C11.4216 7.94322 11.2502 7.74197 11.25 7.50049C11.25 7.22437 11.4739 7.00049 11.75 7.00049L11.8223 6.98975C12.003 6.93954 12.2498 6.70903 12.25 6.25049C12.25 5.82889 11.95 5.55261 11.6562 5.4917L8.42383 4.99463C8.29175 4.97429 8.1731 4.9017 8.09473 4.79346C8.01636 4.68516 7.98485 4.54934 8.00684 4.41748L8.33301 2.4585C8.4062 2.01932 8.21519 1.57754 7.84473 1.33057ZM1.89941 6.01025C1.67166 6.05678 1.50025 6.25807 1.5 6.49951V11.4995C1.50001 11.7756 1.72391 11.9995 2 11.9995H3V5.99951H2L1.89941 6.01025Z" fill="#242629"/>
</svg>
