<svg width="14" height="14" viewBox="0 0 14 14" fill="none" xmlns="http://www.w3.org/2000/svg">
<path fill-rule="evenodd" clip-rule="evenodd" d="M2.52832 4.97168C2.82686 5.27022 3 5.64835 3 6C3 6.27614 3.22386 6.5 3.5 6.5C3.77614 6.5 4 6.27614 4 6C4 5.64835 4.17314 5.27022 4.47168 4.97168C4.77022 4.67314 5.14835 4.5 5.5 4.5C5.77614 4.5 6 4.27614 6 4C6 3.72386 5.77614 3.5 5.5 3.5C5.14835 3.5 4.77022 3.32686 4.47168 3.02832C4.17314 2.72978 4 2.35165 4 2C4 1.72386 3.77614 1.5 3.5 1.5C3.22386 1.5 3 1.72386 3 2C3 2.35165 2.82686 2.72978 2.52832 3.02832C2.26707 3.28958 1.94498 3.45509 1.63281 3.49219L1.5 3.5C1.22386 3.5 1 3.72386 1 4C1 4.24171 1.17145 4.44371 1.39941 4.49023L1.5 4.5L1.63281 4.50781C1.94498 4.54491 2.26707 4.71042 2.52832 4.97168ZM11.5 3.5C11.5 2.94772 11.0523 2.5 10.5 2.5H6.5C6.22386 2.5 6 2.27614 6 2C6 1.72386 6.22386 1.5 6.5 1.5H10.5C11.6046 1.5 12.5 2.39543 12.5 3.5V4.5C12.5 5.60457 11.6046 6.5 10.5 6.5H6.5C6.22386 6.5 6 6.27614 6 6C6 5.72386 6.22386 5.5 6.5 5.5H10.5C11.0523 5.5 11.5 5.05228 11.5 4.5V3.5ZM3.5 11.5C2.94771 11.5 2.5 11.0523 2.5 10.5L2.5 9.5C2.5 8.94771 2.94772 8.5 3.5 8.5L10.5 8.5C11.0523 8.5 11.5 8.94772 11.5 9.5V10.5C11.5 11.0523 11.0523 11.5 10.5 11.5L3.5 11.5ZM3.5 7.5C2.39543 7.5 1.5 8.39543 1.5 9.5L1.5 10.5C1.5 11.6046 2.39543 12.5 3.5 12.5L10.5 12.5C11.6046 12.5 12.5 11.6046 12.5 10.5V9.5C12.5 8.39543 11.6046 7.5 10.5 7.5L3.5 7.5Z" fill="#242629"/>
</svg>
