<svg width="14" height="14" viewBox="0 0 14 14" fill="none" xmlns="http://www.w3.org/2000/svg">
<path d="M7.36426 0.500488C7.70594 0.503787 7.98389 0.521689 8.22754 0.606934C8.77324 0.79793 9.2026 1.22723 9.39355 1.77295C9.50709 2.09778 9.5 2.48398 9.5 3.00049H12.5C12.7759 3.00059 12.9997 3.2237 13 3.49951C13 3.74116 12.8285 3.94315 12.6006 3.98975L12.5 4.00049H11.9971C11.997 4.01971 11.9984 4.03953 11.9961 4.05908L11.4053 9.08252C11.3112 9.88235 11.2362 10.5288 11.1123 11.0347C10.9851 11.5535 10.7929 11.9875 10.4258 12.3296C10.3975 12.3559 10.3683 12.3817 10.3389 12.4067C9.95614 12.7313 9.5029 12.8713 8.97266 12.937C8.45566 13.001 7.80549 13.0005 7 13.0005C6.19449 13.0005 5.54435 13.001 5.02734 12.937C4.49707 12.8713 4.04387 12.7314 3.66113 12.4067C3.63165 12.3817 3.60251 12.3559 3.57422 12.3296C3.20707 11.9875 3.01491 11.5535 2.8877 11.0347C2.76375 10.5288 2.68882 9.88235 2.59473 9.08252L2.00391 4.05908L2.00293 4.00049H1.5L1.39941 3.99072C1.17165 3.94404 1 3.74108 1 3.49951C1.00031 3.22374 1.2242 3.00066 1.5 3.00049H4.5C4.5 2.48398 4.49291 2.09778 4.60645 1.77295C4.7974 1.22723 5.22676 0.79793 5.77246 0.606934C6.01611 0.521689 6.29406 0.503787 6.63574 0.500488H7.36426ZM3.58789 8.96631C3.68498 9.79156 3.75353 10.3655 3.85938 10.7974C3.96203 11.2159 4.08614 11.44 4.25586 11.5981C4.27282 11.6139 4.29093 11.6291 4.30859 11.644C4.48551 11.794 4.72179 11.8918 5.14941 11.9448C5.59079 11.9995 6.16872 12.0005 7 12.0005C7.83124 12.0005 8.40921 11.9995 8.85059 11.9448C9.27817 11.8918 9.5145 11.794 9.69141 11.644C9.70905 11.6291 9.7272 11.6139 9.74414 11.5981C9.91386 11.44 10.038 11.2159 10.1406 10.7974C10.2465 10.3655 10.315 9.79155 10.4121 8.96631L10.9971 4.00049H3.00293L3.58789 8.96631ZM5.4375 5.50439C5.67712 5.47446 5.89901 5.61925 5.97363 5.83936L5.99609 5.93799L6.49609 9.93799C6.53007 10.2117 6.33609 10.4621 6.0625 10.4966C5.82301 10.5265 5.60113 10.3815 5.52637 10.1616L5.50391 10.063L5.00391 6.06299L5.00098 5.96143C5.01888 5.72963 5.19791 5.53457 5.4375 5.50439ZM8.5625 5.50439C8.80209 5.53457 8.98112 5.72963 8.99902 5.96143L8.99609 6.06299L8.49609 10.063L8.47363 10.1616C8.39887 10.3815 8.17699 10.5265 7.9375 10.4966C7.6639 10.4621 7.46993 10.2117 7.50391 9.93799L8.00391 5.93799L8.02637 5.83936C8.10099 5.61925 8.32287 5.47446 8.5625 5.50439ZM7 1.50049C6.39957 1.50049 6.22666 1.50784 6.10254 1.55127C5.8443 1.64177 5.64124 1.84477 5.55078 2.10303C5.50747 2.22712 5.5 2.40069 5.5 3.00049H8.5C8.5 2.40069 8.49253 2.22712 8.44922 2.10303C8.35876 1.84477 8.1557 1.64177 7.89746 1.55127C7.77334 1.50784 7.60043 1.50049 7 1.50049Z" fill="#242629"/>
</svg>
