<svg width="14" height="14" viewBox="0 0 14 14" fill="none" xmlns="http://www.w3.org/2000/svg">
<g clip-path="url(#clip0_19835_2830)">
<path d="M7.00006 0.5C10.5899 0.5 13.5001 3.41015 13.5001 7C13.5001 10.5899 10.5899 13.5 7.00006 13.5C3.41021 13.5 0.500061 10.5899 0.500061 7C0.500061 3.41015 3.41021 0.5 7.00006 0.5ZM7.00006 1.5C3.96249 1.5 1.50006 3.96243 1.50006 7C1.50006 10.0376 3.96249 12.5 7.00006 12.5C10.0376 12.5 12.5001 10.0376 12.5001 7C12.5001 3.96243 10.0376 1.5 7.00006 1.5ZM7.00006 3.25C9.07113 3.25 10.7501 4.92893 10.7501 7C10.7501 9.07107 9.07113 10.75 7.00006 10.75C4.92899 10.75 3.25006 9.07107 3.25006 7C3.25006 4.92893 4.92899 3.25 7.00006 3.25ZM7.00006 4.25C5.48128 4.25 4.25006 5.48122 4.25006 7C4.25006 8.51878 5.48128 9.75 7.00006 9.75C8.51884 9.75 9.75006 8.51878 9.75006 7C9.75006 5.48122 8.51884 4.25 7.00006 4.25ZM7.00006 6C7.55232 6.00003 8.00006 6.44773 8.00006 7C8.00003 7.55225 7.55231 7.99997 7.00006 8C6.44779 8 6.00009 7.55226 6.00006 7C6.00006 6.44772 6.44778 6 7.00006 6Z" fill="#242629"/>
</g>
<defs>
<clipPath id="clip0_19835_2830">
<rect width="14" height="14" fill="white"/>
</clipPath>
</defs>
</svg>
