<svg width="14" height="14" viewBox="0 0 14 14" fill="none" xmlns="http://www.w3.org/2000/svg">
<g clip-path="url(#clip0_19835_2041)">
<path d="M11.4998 8.99976C11.7758 8.99976 11.9996 9.22372 11.9998 9.49976V10.9998H13.4998C13.7758 10.9998 13.9996 11.2237 13.9998 11.4998C13.9998 11.7759 13.7759 11.9998 13.4998 11.9998H11.9998V13.4998C11.9998 13.7759 11.7759 13.9998 11.4998 13.9998C11.2237 13.9996 10.9998 13.7758 10.9998 13.4998V11.9998H9.49976C9.22372 11.9996 8.99976 11.7758 8.99976 11.4998C8.99988 11.2238 9.22379 10.9999 9.49976 10.9998H10.9998V9.49976C10.9999 9.22379 11.2238 8.99988 11.4998 8.99976ZM5.7312 0.624756C6.99198 0.373971 8.29941 0.502995 9.48706 0.994873C10.6746 1.48677 11.6898 2.31973 12.4041 3.38843C13.1182 4.45729 13.4997 5.71425 13.4998 6.99976C13.4998 7.2759 13.2759 7.49976 12.9998 7.49976C12.7237 7.49964 12.4998 7.27582 12.4998 6.99976C12.4997 5.91206 12.1773 4.84849 11.573 3.94409C10.9687 3.03975 10.1091 2.33494 9.10425 1.9187C8.09936 1.50255 6.99327 1.39303 5.92651 1.60522C4.85976 1.81749 3.88018 2.34198 3.11108 3.11108C2.34198 3.88018 1.81749 4.85976 1.60522 5.92651C1.39303 6.99327 1.50255 8.09936 1.9187 9.10425C2.33494 10.1091 3.03974 10.9687 3.94409 11.573C4.84849 12.1773 5.91206 12.4997 6.99976 12.4998C7.27582 12.4998 7.49964 12.7237 7.49976 12.9998C7.49976 13.2759 7.2759 13.4998 6.99976 13.4998C5.71426 13.4997 4.45729 13.1182 3.38843 12.4041C2.31973 11.6898 1.48677 10.6746 0.994873 9.48706C0.502995 8.29941 0.373971 6.99198 0.624756 5.7312C0.875642 4.47057 1.49419 3.31196 2.40308 2.40308C3.31196 1.49419 4.47057 0.875642 5.7312 0.624756ZM6.26831 3.32202C6.99561 3.17737 7.75018 3.25119 8.4353 3.53491C9.1203 3.81872 9.70594 4.30028 10.1179 4.91675C10.5298 5.5333 10.7497 6.25829 10.7498 6.99976C10.7498 7.2759 10.5259 7.49976 10.2498 7.49976C9.97372 7.49964 9.74976 7.27582 9.74976 6.99976C9.74971 6.45599 9.58796 5.92456 9.28589 5.47241C8.98376 5.02035 8.55481 4.66685 8.05249 4.45874C7.55018 4.25074 6.99686 4.1965 6.46362 4.30249C5.93024 4.40862 5.43997 4.67087 5.05542 5.05542C4.67087 5.43997 4.40862 5.93024 4.30249 6.46362C4.1965 6.99686 4.25074 7.55018 4.45874 8.05249C4.66685 8.55481 5.02035 8.98376 5.47241 9.28589C5.92456 9.58796 6.45599 9.74971 6.99976 9.74976C7.27582 9.74976 7.49964 9.97372 7.49976 10.2498C7.49976 10.5259 7.2759 10.7498 6.99976 10.7498C6.25829 10.7497 5.5333 10.5298 4.91675 10.1179C4.30028 9.70594 3.81872 9.1203 3.53491 8.4353C3.25119 7.75018 3.17737 6.99561 3.32202 6.26831C3.46674 5.54095 3.82398 4.87279 4.34839 4.34839C4.87279 3.82398 5.54095 3.46674 6.26831 3.32202ZM6.99976 5.99976C7.55197 5.99976 7.99964 6.44757 7.99976 6.99976C7.99976 7.55204 7.55204 7.99976 6.99976 7.99976C6.44757 7.99964 5.99976 7.55197 5.99976 6.99976C5.99988 6.44765 6.44765 5.99988 6.99976 5.99976Z" fill="#242629"/>
</g>
<defs>
<clipPath id="clip0_19835_2041">
<rect width="14" height="14" fill="white"/>
</clipPath>
</defs>
</svg>
