<svg width="14" height="14" viewBox="0 0 14 14" fill="none" xmlns="http://www.w3.org/2000/svg">
<path d="M4.50049 1C4.66028 1.00015 4.81079 1.07681 4.90479 1.20605L7.91357 5.34375L11.6265 1.16797L11.7017 1.09961C11.8878 0.960626 12.152 0.965762 12.3325 1.12598C12.5128 1.2865 12.5495 1.54885 12.4331 1.75L12.3745 1.83203L8.51611 6.17188L12.9048 12.2061C13.0151 12.358 13.0309 12.5592 12.9458 12.7266C12.8605 12.894 12.6884 12.9998 12.5005 13H9.50049C9.34061 13 9.19029 12.9232 9.09619 12.7939L6.12354 8.70703L2.37061 12.8359C2.18502 13.0401 1.8689 13.0553 1.66455 12.8701C1.48583 12.7076 1.45122 12.445 1.56982 12.2451L1.63037 12.1641L5.52295 7.88086L1.09619 1.79395C0.985652 1.64191 0.96994 1.44097 1.05518 1.27344C1.14055 1.10597 1.3125 1 1.50049 1H4.50049ZM9.75537 12H11.519L4.24561 2H2.48193L9.75537 12Z" fill="#242629"/>
</svg>
