<svg width="14" height="14" viewBox="0 0 14 14" fill="none" xmlns="http://www.w3.org/2000/svg">
<path d="M10.9998 12C11.2759 12 11.4997 12.2239 11.4998 12.5C11.4998 12.7761 11.2759 13 10.9998 13H2.99976C2.72361 13 2.49976 12.7761 2.49976 12.5C2.49978 12.2239 2.72363 12 2.99976 12H10.9998ZM10.4998 2C10.7759 2 10.9998 2.22386 10.9998 2.5V7C10.9998 9.20912 9.20888 11 6.99976 11C4.79067 10.9999 2.99973 9.20909 2.99976 7V2.5C2.99976 2.22396 3.22375 2.00016 3.49976 2C3.77589 2.00001 3.99976 2.22386 3.99976 2.5V7C3.99973 8.65681 5.34296 9.99994 6.99976 10C8.65659 10 9.99976 8.65683 9.99976 7V2.5C9.99976 2.22388 10.2236 2.00003 10.4998 2Z" fill="#242629"/>
</svg>
