<svg width="14" height="14" viewBox="0 0 14 14" fill="none" xmlns="http://www.w3.org/2000/svg">
<path d="M4.22461 2.08191C4.41862 1.95387 4.68269 1.97567 4.85352 2.14636C5.02431 2.31717 5.04599 2.58121 4.91797 2.77527L4.85352 2.85339L2.70703 4.99988H6.7002C7.53182 4.99988 8.18568 4.99897 8.71094 5.04187C9.24196 5.08526 9.68586 5.17547 10.0889 5.38074C10.7474 5.71626 11.2826 6.25254 11.6182 6.91101C11.8235 7.31401 11.9136 7.75794 11.957 8.28894C11.9999 8.81416 12 9.46819 12 10.2997V11.4999C12 11.776 11.7761 11.9999 11.5 11.9999C11.2239 11.9999 11 11.776 11 11.4999V10.2997C11 9.45153 10.9998 8.84511 10.9609 8.37C10.9226 7.90106 10.849 7.60364 10.7275 7.36511C10.4878 6.89481 10.1051 6.51198 9.63477 6.27234C9.3962 6.15083 9.09897 6.07728 8.62988 6.03894C8.15475 6.00012 7.54841 5.99988 6.7002 5.99988H2.70703L4.85352 8.14636C5.04861 8.34159 5.0486 8.65816 4.85352 8.85339C4.65828 9.04849 4.34172 9.04849 4.14648 8.85339L1.14648 5.85339C1.05286 5.7597 1.00006 5.63233 1 5.49988C1.00008 5.36743 1.05286 5.24005 1.14648 5.14636L4.14648 2.14636L4.22461 2.08191Z" fill="#242629"/>
</svg>
