<svg width="14" height="14" viewBox="0 0 14 14" fill="none" xmlns="http://www.w3.org/2000/svg">
<g clip-path="url(#clip0_19835_1966)">
<path d="M9.49994 10.5C9.77596 10.5001 9.99992 10.724 9.99994 11V13C9.99994 13.2761 9.77597 13.4999 9.49994 13.5C9.2238 13.5 8.99994 13.2761 8.99994 13V11C8.99996 10.7239 9.22381 10.5 9.49994 10.5ZM3.38275 5.91016C4.75674 4.53637 6.99187 4.61496 8.26947 6.04492L8.39056 6.1875L8.44525 6.27246C8.55133 6.47954 8.50119 6.73963 8.31244 6.89062C8.12382 7.04149 7.85933 7.03341 7.6806 6.88477L7.60931 6.8125L7.43549 6.61816C6.52576 5.70475 5.02442 5.68274 4.08978 6.61719L2.85345 7.85352C1.9442 8.7628 1.94422 10.2372 2.85345 11.1465C3.76275 12.0558 5.23711 12.0558 6.14642 11.1465L7.14642 10.1465C7.34166 9.95124 7.65819 9.95128 7.85345 10.1465C8.04872 10.3417 8.04872 10.6583 7.85345 10.8535L6.85345 11.8535C5.55362 13.1533 3.44625 13.1533 2.14642 11.8535C0.846662 10.5537 0.846639 8.4463 2.14642 7.14648L3.38275 5.91016ZM12.9999 9C13.2761 9 13.4999 9.22387 13.4999 9.5C13.4999 9.77614 13.2761 10 12.9999 10H11.4999C11.2239 9.99993 10.9999 9.7761 10.9999 9.5C11 9.22392 11.2239 9.00007 11.4999 9H12.9999ZM7.14642 2.14648C8.44623 0.846675 10.5536 0.846714 11.8535 2.14648C13.1533 3.44632 13.1533 5.55368 11.8535 6.85352L10.6171 8.08984C9.24312 9.46362 7.00799 9.38509 5.73041 7.95508L5.60931 7.8125L5.55463 7.72754C5.44859 7.52048 5.49874 7.26036 5.68744 7.10938C5.87603 6.9585 6.14054 6.96663 6.31927 7.11523L6.39056 7.1875L6.56439 7.38184C7.4741 8.2953 8.97543 8.31725 9.9101 7.38281L11.1464 6.14648C12.0557 5.23718 12.0557 3.76282 11.1464 2.85352C10.2371 1.94427 8.76274 1.94423 7.85345 2.85352L6.85345 3.85352C6.65819 4.04875 6.34168 4.04877 6.14642 3.85352C5.95123 3.65826 5.95121 3.34173 6.14642 3.14648L7.14642 2.14648ZM2.49994 4C2.77607 4 2.99992 4.22387 2.99994 4.5C2.99994 4.77614 2.77608 5 2.49994 5H0.999939C0.723837 4.99995 0.499939 4.77611 0.499939 4.5C0.499958 4.2239 0.723849 4.00005 0.999939 4H2.49994ZM4.49994 0.5C4.77607 0.500018 4.99994 0.723869 4.99994 1V3C4.99994 3.27613 4.77607 3.49998 4.49994 3.5C4.2238 3.5 3.99994 3.27614 3.99994 3V1C3.99994 0.723858 4.2238 0.5 4.49994 0.5Z" fill="#242629"/>
</g>
<defs>
<clipPath id="clip0_19835_1966">
<rect width="14" height="14" fill="white"/>
</clipPath>
</defs>
</svg>
