<svg width="14" height="14" viewBox="0 0 14 14" fill="none" xmlns="http://www.w3.org/2000/svg">
<path d="M6.99976 0.5C8.06507 0.5 9.00038 1.0557 9.53198 1.89062C9.68026 2.12358 9.61162 2.43278 9.37866 2.58105C9.14572 2.72921 8.83648 2.66064 8.68823 2.42773C8.33245 1.86901 7.70904 1.5 6.99976 1.5C5.89527 1.5001 4.99976 2.39549 4.99976 3.5V5.00293C5.21148 5.00001 5.44414 5 5.69995 5H8.29956C8.85124 5 9.29551 5.00002 9.65405 5.0293C10.0183 5.05906 10.3385 5.12171 10.6345 5.27246C11.1049 5.51213 11.4876 5.89487 11.7273 6.36523C11.8781 6.66132 11.9407 6.98137 11.9705 7.3457C11.9998 7.70429 11.9998 8.14839 11.9998 8.7002V9.2998C11.9998 9.85161 11.9998 10.2957 11.9705 10.6543C11.9407 11.0186 11.8781 11.3387 11.7273 11.6348C11.4876 12.1051 11.1049 12.4879 10.6345 12.7275C10.3385 12.8783 10.0183 12.9409 9.65405 12.9707C9.29551 13 8.85124 13 8.29956 13H5.69995C5.14826 13 4.70399 13 4.34546 12.9707C3.98121 12.9409 3.66102 12.8783 3.36499 12.7275C2.89467 12.4878 2.51187 12.1051 2.27222 11.6348C2.12143 11.3387 2.05882 11.0186 2.02905 10.6543C1.99976 10.2957 1.99976 9.8516 1.99976 9.2998V8.7002C1.99976 8.1484 1.99976 7.70429 2.02905 7.3457C2.05882 6.9814 2.12143 6.6613 2.27222 6.36523C2.51187 5.89489 2.89467 5.51215 3.36499 5.27246C3.56357 5.1713 3.77349 5.11173 3.99976 5.07324V3.5C3.99976 1.84321 5.34299 0.500099 6.99976 0.5ZM5.69995 6C5.13178 6 4.73489 6.0002 4.42651 6.02539C4.12461 6.0501 3.95063 6.09615 3.81909 6.16309C3.53694 6.3069 3.30662 6.53716 3.16284 6.81934C3.09592 6.9509 3.04984 7.12478 3.02515 7.42676C2.99995 7.73518 2.99976 8.1319 2.99976 8.7002V9.2998C2.99976 9.8681 2.99995 10.2648 3.02515 10.5732C3.04984 10.8752 3.09592 11.0491 3.16284 11.1807C3.30662 11.4628 3.53694 11.6931 3.81909 11.8369C3.95063 11.9038 4.12461 11.9499 4.42651 11.9746C4.73489 11.9998 5.13178 12 5.69995 12H8.29956C8.86771 12 9.26461 11.9998 9.573 11.9746C9.8749 11.9499 10.0489 11.9038 10.1804 11.8369C10.4626 11.6931 10.6929 11.4629 10.8367 11.1807C10.9036 11.0491 10.9497 10.8753 10.9744 10.5732C10.9996 10.2648 10.9998 9.86811 10.9998 9.2998V8.7002C10.9998 8.13189 10.9996 7.73518 10.9744 7.42676C10.9497 7.12472 10.9036 6.95091 10.8367 6.81934C10.6929 6.53714 10.4626 6.30688 10.1804 6.16309C10.0489 6.09619 9.8749 6.05008 9.573 6.02539C9.26461 6.00021 8.86771 6 8.29956 6H5.69995Z" fill="#242629"/>
</svg>
