<svg width="14" height="14" viewBox="0 0 14 14" fill="none" xmlns="http://www.w3.org/2000/svg">
<path d="M5.78699 0.800903C6.54117 0.382677 7.45859 0.382677 8.21277 0.800903L11.7128 2.74231C12.5069 3.183 12.9998 4.01962 12.9999 4.92786V9.07239C12.9998 9.98092 12.5064 10.8183 11.7118 11.2589L8.21179 13.1993C7.45782 13.6173 6.54193 13.6173 5.78796 13.1993L2.28796 11.2589C1.4934 10.8183 0.999969 9.98092 0.999878 9.07239V4.92786C0.999989 4.01962 1.49286 3.183 2.28699 2.74231L5.78699 0.800903ZM7.72742 1.6759C7.27491 1.42497 6.72485 1.42497 6.27234 1.6759L2.77234 3.61633C2.29576 3.88069 1.99999 4.38287 1.99988 4.92786V9.07239C1.99997 9.61738 2.29577 10.1195 2.77234 10.3839L6.27234 12.3253C6.72476 12.5761 7.275 12.5761 7.72742 12.3253L11.2274 10.3839C11.704 10.1195 11.9998 9.61738 11.9999 9.07239V4.92786C11.9998 4.38287 11.704 3.88069 11.2274 3.61633L7.72742 1.6759ZM6.70007 4.09973C6.85563 3.98322 7.06211 3.96926 7.23035 4.05676L7.29968 4.09973L9.29968 5.59973C9.52047 5.76535 9.56567 6.07904 9.40027 6.29993C9.23465 6.52067 8.92095 6.56589 8.70007 6.40051L7.49988 5.50012V9.50012C7.49984 9.77623 7.276 10.0001 6.99988 10.0001C6.72382 10.0001 6.49992 9.77619 6.49988 9.50012V5.50012L5.29968 6.40051L5.21277 6.45227C5.00258 6.55147 4.7444 6.49311 4.59949 6.29993C4.43409 6.07904 4.4793 5.76535 4.70007 5.59973L6.70007 4.09973Z" fill="#242629"/>
</svg>
