<svg width="14" height="14" viewBox="0 0 14 14" fill="none" xmlns="http://www.w3.org/2000/svg">
<path d="M12.5 8.99951C12.776 8.99951 12.9997 9.22359 13 9.49951V9.99951C13 11.6564 11.6569 12.9995 10 12.9995H4C2.34315 12.9995 1 11.6564 1 9.99951V9.49951C1.00026 9.22359 1.22402 8.99951 1.5 8.99951C1.77598 8.99951 1.99974 9.22359 2 9.49951V9.99951C2 11.1041 2.89543 11.9995 4 11.9995H10C11.1046 11.9995 12 11.1041 12 9.99951V9.49951C12.0003 9.22359 12.224 8.99951 12.5 8.99951ZM6.64648 1.646C6.81729 1.47541 7.08142 1.45359 7.27539 1.58154L7.35352 1.646L9.85352 4.146C10.0487 4.34118 10.0485 4.65775 9.85352 4.85303C9.65825 5.04829 9.34175 5.04829 9.14648 4.85303L7.5 3.20654V8.49951C7.5 8.77565 7.27614 8.99951 7 8.99951C6.72386 8.99951 6.5 8.77565 6.5 8.49951V3.20654L4.85352 4.85303L4.77539 4.91748C4.58131 5.04564 4.31735 5.02389 4.14648 4.85303C3.97583 4.68216 3.95392 4.41811 4.08203 4.22412L4.14648 4.146L6.64648 1.646Z" fill="#242629"/>
</svg>
