<svg width="14" height="14" viewBox="0 0 14 14" fill="none" xmlns="http://www.w3.org/2000/svg">
<g clip-path="url(#clip0_19835_2460)">
<path d="M10.1465 9.14648C10.3417 8.95134 10.6583 8.95137 10.8535 9.14648C11.0487 9.34173 11.0487 9.65827 10.8535 9.85352L9.70703 11H13C13.2761 11 13.5 11.2239 13.5 11.5C13.5 11.7761 13.2761 12 13 12H9.70703L10.8535 13.1465C11.0487 13.3417 11.0487 13.6583 10.8535 13.8535C10.6583 14.0486 10.3417 14.0487 10.1465 13.8535L8.14648 11.8535C7.95139 11.6583 7.95139 11.3417 8.14648 11.1465L10.1465 9.14648ZM8 8C8.27614 8 8.5 8.22386 8.5 8.5C8.5 8.77614 8.27614 9 8 9L3.61133 9C2.16925 9 1 10.1693 1 11.6113C1.00012 11.8259 1.17407 11.9999 1.38867 12L6.5 12C6.77614 12 7 12.2239 7 12.5C7 12.7761 6.77614 13 6.5 13L1.38867 13C0.621782 12.9999 0.00011723 12.3782 0 11.6113C0 9.61697 1.61697 8 3.61133 8H8ZM5 1C6.51878 1 7.75 2.23122 7.75 3.75C7.75 5.26878 6.51878 6.5 5 6.5C3.48122 6.5 2.25 5.26878 2.25 3.75C2.25 2.23122 3.48122 1 5 1ZM9 1C9.72931 1 10.4286 1.28999 10.9443 1.80566C11.46 2.32135 11.75 3.02071 11.75 3.75C11.75 4.47931 11.46 5.17862 10.9443 5.69434C10.4286 6.21006 9.72935 6.5 9 6.5C8.72389 6.5 8.50005 6.2761 8.5 6C8.50013 5.72397 8.72394 5.5 9 5.5C9.46413 5.5 9.90912 5.31549 10.2373 4.9873C10.5654 4.65912 10.75 4.21409 10.75 3.75C10.75 3.28592 10.5655 2.84085 10.2373 2.5127C9.90912 2.18455 9.46409 2 9 2C8.72394 2 8.50013 1.77603 8.5 1.5C8.50021 1.22404 8.72399 1 9 1ZM5 2C4.0335 2 3.25 2.7835 3.25 3.75C3.25 4.7165 4.0335 5.5 5 5.5C5.9665 5.5 6.75 4.7165 6.75 3.75C6.75 2.7835 5.9665 2 5 2Z" fill="#242629"/>
</g>
<defs>
<clipPath id="clip0_19835_2460">
<rect width="14" height="14" fill="white"/>
</clipPath>
</defs>
</svg>
