<svg width="14" height="14" viewBox="0 0 14 14" fill="none" xmlns="http://www.w3.org/2000/svg">
<path d="M8.87915 8.87866C10.0507 7.70729 11.9498 7.70722 13.1213 8.87866C14.2929 10.0502 14.2927 11.9493 13.1213 13.1208C11.9498 14.2924 10.0507 14.2924 8.87915 13.1208C7.70764 11.9493 7.7076 10.0502 8.87915 8.87866ZM7.00024 7.99976C7.27629 7.99976 7.50009 8.22375 7.50024 8.49976C7.50024 8.7759 7.27639 8.99976 7.00024 8.99976H5.61157C4.16968 8.99986 3.0004 10.1692 3.00024 11.6111C3.00036 11.8256 3.1744 11.9995 3.38892 11.9998H7.00024L7.10083 12.0095C7.32867 12.056 7.50009 12.2582 7.50024 12.4998C7.50013 12.7413 7.32865 12.9424 7.10083 12.989L7.00024 12.9998H3.38892C2.62212 12.9995 2.00036 12.3779 2.00024 11.6111C2.0004 9.61692 3.6174 7.99986 5.61157 7.99976H7.00024ZM9.9856 12.7214C10.7525 13.174 11.7555 13.0726 12.4143 12.4138C13.0728 11.7551 13.1742 10.7528 12.7219 9.98608L9.9856 12.7214ZM12.0149 9.27808C11.2481 8.8255 10.245 8.92703 9.58618 9.58569C8.92737 10.2445 8.82597 11.2475 9.27856 12.0144L12.0149 9.27808ZM7.10083 0.999756C8.61961 0.999756 9.85083 2.23097 9.85083 3.74976C9.85083 5.26854 8.61961 6.49976 7.10083 6.49976C5.58205 6.49976 4.35083 5.26854 4.35083 3.74976C4.35083 2.23097 5.58205 0.999756 7.10083 0.999756ZM7.10083 1.99976C6.13433 1.99976 5.35083 2.78326 5.35083 3.74976C5.35083 4.71625 6.13433 5.49976 7.10083 5.49976C8.06733 5.49976 8.85083 4.71625 8.85083 3.74976C8.85083 2.78326 8.06733 1.99976 7.10083 1.99976Z" fill="#242629"/>
</svg>
