<svg width="14" height="14" viewBox="0 0 14 14" fill="none" xmlns="http://www.w3.org/2000/svg">
<path d="M10.7968 7.24976C11.2621 6.86987 11.9997 7.19105 11.9999 7.82788V9.49976H12.9199C13.5791 9.50012 13.9088 10.2975 13.4423 10.7634L10.7558 13.4451C10.2895 13.9102 9.49335 13.5803 9.4931 12.9216V11.4998H8.63666C7.9974 11.4994 7.65879 10.743 8.0849 10.2664L10.7079 7.33472L10.7968 7.24976ZM6.99994 7.99976C7.276 7.99976 7.49981 8.22373 7.49994 8.49976C7.49994 8.7759 7.27608 8.99976 6.99994 8.99976H4.61127C3.16927 8.99976 2.00007 10.1691 1.99994 11.6111C2.00006 11.8257 2.17401 11.9996 2.38861 11.9998H6.99994C7.276 11.9998 7.49981 12.2237 7.49994 12.4998C7.49994 12.7759 7.27608 12.9998 6.99994 12.9998H2.38861C1.62172 12.9996 1.00006 12.378 0.999939 11.6111C1.00007 9.61683 2.61699 7.99976 4.61127 7.99976H6.99994ZM9.21771 10.4998H9.75287C10.1616 10.4998 10.4931 10.8313 10.4931 11.24V12.2937L12.291 10.4998H11.7392C11.3308 10.4994 10.9999 10.168 10.9999 9.75952V8.50757L9.21771 10.4998ZM6.24994 0.999756C7.76872 0.999756 8.99994 2.23097 8.99994 3.74976C8.99994 5.26854 7.76872 6.49976 6.24994 6.49976C4.73116 6.49976 3.49994 5.26854 3.49994 3.74976C3.49994 2.23097 4.73116 0.999756 6.24994 0.999756ZM6.24994 1.99976C5.28344 1.99976 4.49994 2.78326 4.49994 3.74976C4.49994 4.71625 5.28344 5.49976 6.24994 5.49976C7.21644 5.49976 7.99994 4.71625 7.99994 3.74976C7.99994 2.78326 7.21644 1.99976 6.24994 1.99976Z" fill="#242629"/>
</svg>
