<svg width="14" height="14" viewBox="0 0 14 14" fill="none" xmlns="http://www.w3.org/2000/svg">
<g clip-path="url(#clip0_19835_2472)">
<path d="M6.38867 8C8.38303 8 10 9.61697 10 11.6113C9.99988 12.3782 9.37822 12.9999 8.61133 13L1.38867 13C0.621782 12.9999 0.000117101 12.3782 0 11.6113C0 9.61697 1.61697 8 3.61133 8H6.38867ZM10.6982 8.0127C12.548 8.16973 14 9.72115 14 11.6113C13.9999 12.3782 13.3782 12.9999 12.6113 13H11.5C11.2239 13 11 12.7761 11 12.5C11 12.2239 11.2239 12 11.5 12H12.6113C12.8259 11.9999 12.9999 11.8259 13 11.6113C13 10.2887 12.0165 9.19534 10.7412 9.02344L10.4824 9.00195L10.3818 8.98828C10.1559 8.93363 9.99153 8.72578 10 8.48438C10.0097 8.20842 10.2416 7.99227 10.5176 8.00195L10.6982 8.0127ZM3.61133 9C2.16925 9 1 10.1693 1 11.6113C1.00012 11.8259 1.17407 11.9999 1.38867 12L8.61133 12C8.82593 11.9999 8.99988 11.8259 9 11.6113C9 10.1693 7.83075 9 6.38867 9L3.61133 9ZM5 1C6.51878 1 7.75 2.23122 7.75 3.75C7.75 5.26878 6.51878 6.5 5 6.5C3.48122 6.5 2.25 5.26878 2.25 3.75C2.25 2.23122 3.48122 1 5 1ZM9 1C9.72928 1 10.4286 1.29002 10.9443 1.80566C11.46 2.32135 11.75 3.02071 11.75 3.75C11.75 4.47934 11.4601 5.17861 10.9443 5.69434C10.4286 6.21006 9.72935 6.5 9 6.5C8.72394 6.49993 8.50005 6.27606 8.5 6C8.50013 5.72401 8.72399 5.50007 9 5.5C9.46413 5.5 9.90912 5.31549 10.2373 4.9873C10.5655 4.65912 10.75 4.21412 10.75 3.75C10.75 3.28592 10.5655 2.84085 10.2373 2.5127C9.90913 2.18459 9.46406 2 9 2C8.72399 1.99993 8.50013 1.77599 8.5 1.5C8.50021 1.22408 8.72404 1.00007 9 1ZM5 2C4.0335 2 3.25 2.7835 3.25 3.75C3.25 4.7165 4.0335 5.5 5 5.5C5.9665 5.5 6.75 4.7165 6.75 3.75C6.75 2.7835 5.9665 2 5 2Z" fill="#242629"/>
</g>
<defs>
<clipPath id="clip0_19835_2472">
<rect width="14" height="14" fill="white"/>
</clipPath>
</defs>
</svg>
