<svg width="14" height="14" viewBox="0 0 14 14" fill="none" xmlns="http://www.w3.org/2000/svg">
<path d="M11.1572 7.73511C11.5524 7.51783 12.0099 7.44777 12.4512 7.53882C12.8923 7.62995 13.2864 7.87544 13.5674 8.22925C13.8481 8.58293 13.9999 9.02459 14 9.47729C13.9999 10.6663 13.1695 11.6745 12.4658 12.3289C12.1002 12.6688 11.736 12.943 11.4648 13.1316C11.3291 13.226 11.2156 13.3005 11.1348 13.3513C11.0944 13.3767 11.0618 13.3962 11.0391 13.4099C11.0277 13.4167 11.0182 13.4217 11.0117 13.4255C11.0086 13.4274 11.0058 13.4293 11.0039 13.4304L11.002 13.4314L11.001 13.4324L10.75 12.9998L11 13.4324C10.8452 13.5218 10.6548 13.5218 10.5 13.4324L10.75 12.9998L10.499 13.4324L10.498 13.4314L10.4961 13.4304C10.4942 13.4293 10.4914 13.4274 10.4883 13.4255C10.4818 13.4217 10.4723 13.4167 10.4609 13.4099C10.4382 13.3962 10.4056 13.3767 10.3652 13.3513C10.2844 13.3005 10.1709 13.226 10.0352 13.1316C9.76404 12.943 9.39977 12.6688 9.03418 12.3289C8.3305 11.6745 7.50012 10.6663 7.5 9.47729C7.50005 9.02459 7.65195 8.58293 7.93262 8.22925C8.21357 7.87544 8.60775 7.62995 9.04883 7.53882C9.49006 7.44777 9.94761 7.51783 10.3428 7.73511C10.492 7.81717 10.6287 7.91841 10.75 8.03491C10.8713 7.91841 11.008 7.81717 11.1572 7.73511ZM5.60059 8.00952C5.82847 8.05603 5.99988 8.25816 6 8.49976C6 8.77589 5.77614 8.99975 5.5 8.99976H4.61133C3.16934 8.9998 2.00013 10.1691 2 11.6111C2.00008 11.8257 2.17404 11.9996 2.38867 11.9998H7L7.10059 12.0095C7.32846 12.056 7.49987 12.2582 7.5 12.4998C7.49994 12.7413 7.32841 12.9424 7.10059 12.989L7 12.9998H2.38867C1.62176 12.9996 1.00008 12.378 1 11.6111C1.00013 9.61685 2.61707 7.99982 4.61133 7.99976H5.5L5.60059 8.00952ZM12.249 8.51831C12.0423 8.47566 11.8268 8.50764 11.6387 8.61108C11.4503 8.71473 11.2989 8.88499 11.2139 9.09546C11.1376 9.28458 10.9539 9.40894 10.75 9.40894C10.5461 9.40894 10.3624 9.28458 10.2861 9.09546C10.2011 8.88499 10.0497 8.71473 9.86133 8.61108C9.67322 8.50764 9.45769 8.47566 9.25098 8.51831C9.04399 8.56108 8.854 8.67726 8.71582 8.85132C8.57743 9.02572 8.50005 9.24716 8.5 9.47729C8.50013 10.2196 9.04477 10.9725 9.71582 11.5964C10.0374 11.8955 10.361 12.1403 10.6055 12.3103C10.6571 12.3462 10.7067 12.3772 10.75 12.406C10.7933 12.3772 10.8429 12.3462 10.8945 12.3103C11.139 12.1403 11.4626 11.8955 11.7842 11.5964C12.4552 10.9725 12.9999 10.2196 13 9.47729C12.9999 9.24716 12.9226 9.02572 12.7842 8.85132C12.646 8.67726 12.456 8.56108 12.249 8.51831ZM6.10059 0.999756C7.61937 0.999756 8.85059 2.23097 8.85059 3.74976C8.85059 5.26854 7.61937 6.49976 6.10059 6.49976C4.5818 6.49976 3.35059 5.26854 3.35059 3.74976C3.35059 2.23097 4.5818 0.999756 6.10059 0.999756ZM6.10059 1.99976C5.13409 1.99976 4.35059 2.78326 4.35059 3.74976C4.35059 4.71625 5.13409 5.49976 6.10059 5.49976C7.06708 5.49976 7.85059 4.71625 7.85059 3.74976C7.85059 2.78326 7.06708 1.99976 6.10059 1.99976Z" fill="#242629"/>
</svg>
