<svg width="14" height="14" viewBox="0 0 14 14" fill="none" xmlns="http://www.w3.org/2000/svg">
<path d="M11.5 8.99976C11.7761 8.99976 11.9999 9.22373 12 9.49976V10.9998H13.5C13.7761 10.9998 13.9999 11.2237 14 11.4998C14 11.7759 13.7761 11.9998 13.5 11.9998H12V13.4998C12 13.7759 11.7761 13.9998 11.5 13.9998C11.2239 13.9998 11 13.7759 11 13.4998V11.9998H9.5C9.22386 11.9998 9 11.7759 9 11.4998C9.00013 11.2237 9.22394 10.9998 9.5 10.9998H11V9.49976C11.0001 9.22373 11.2239 8.99976 11.5 8.99976ZM9.5 7.99976C9.77606 7.99976 9.99987 8.22373 10 8.49976C10 8.7759 9.77614 8.99976 9.5 8.99976H5.61133C4.16933 8.99976 3.00013 10.1691 3 11.6111C3.00012 11.8257 3.17407 11.9996 3.38867 11.9998H7.5C7.77606 11.9998 7.99987 12.2237 8 12.4998C8 12.7759 7.77614 12.9998 7.5 12.9998H3.38867C2.62178 12.9996 2.00012 12.378 2 11.6111C2.00013 9.61683 3.61705 7.99976 5.61133 7.99976H9.5ZM7.10059 0.999756C8.61937 0.999756 9.85059 2.23097 9.85059 3.74976C9.85059 5.26854 8.61937 6.49976 7.10059 6.49976C5.5818 6.49976 4.35059 5.26854 4.35059 3.74976C4.35059 2.23097 5.5818 0.999756 7.10059 0.999756ZM7.10059 1.99976C6.13409 1.99976 5.35059 2.78326 5.35059 3.74976C5.35059 4.71625 6.13409 5.49976 7.10059 5.49976C8.06708 5.49976 8.85059 4.71625 8.85059 3.74976C8.85059 2.78326 8.06708 1.99976 7.10059 1.99976Z" fill="#242629"/>
</svg>
