<svg width="14" height="14" viewBox="0 0 14 14" fill="none" xmlns="http://www.w3.org/2000/svg">
<g clip-path="url(#clip0_19835_2487)">
<path d="M8.38892 7.99976C9.11309 7.99976 9.78909 8.21332 10.3547 8.58081L10.5901 8.7478L10.6633 8.81714C10.8156 8.99302 10.8283 9.25743 10.6809 9.44897C10.5124 9.66764 10.1985 9.70817 9.97974 9.53979C9.53932 9.20103 8.98804 8.99976 8.38892 8.99976H5.61157C4.16968 8.99986 3.0004 10.1692 3.00024 11.6111C3.00036 11.8256 3.1744 11.9995 3.38892 11.9998H7.00024L7.10083 12.0095C7.32867 12.056 7.50009 12.2582 7.50024 12.4998C7.50013 12.7413 7.32865 12.9424 7.10083 12.989L7.00024 12.9998H3.38892C2.62212 12.9995 2.00036 12.3779 2.00024 11.6111C2.0004 9.61692 3.6174 7.99986 5.61157 7.99976H8.38892ZM13.5002 10.9998C13.7763 10.9998 14.0001 11.2237 14.0002 11.4998C14.0002 11.7759 13.7764 11.9998 13.5002 11.9998H9.50024C9.2241 11.9998 9.00024 11.7759 9.00024 11.4998C9.00038 11.2237 9.22418 10.9998 9.50024 10.9998H13.5002ZM7.10083 0.999756C8.61961 0.999756 9.85083 2.23097 9.85083 3.74976C9.85083 5.26854 8.61961 6.49976 7.10083 6.49976C5.58205 6.49976 4.35083 5.26854 4.35083 3.74976C4.35083 2.23097 5.58205 0.999756 7.10083 0.999756ZM7.10083 1.99976C6.13433 1.99976 5.35083 2.78326 5.35083 3.74976C5.35083 4.71625 6.13433 5.49976 7.10083 5.49976C8.06733 5.49976 8.85083 4.71625 8.85083 3.74976C8.85083 2.78326 8.06733 1.99976 7.10083 1.99976Z" fill="#242629"/>
</g>
<defs>
<clipPath id="clip0_19835_2487">
<rect width="14" height="14" fill="white"/>
</clipPath>
</defs>
</svg>
