<svg width="14" height="14" viewBox="0 0 14 14" fill="none" xmlns="http://www.w3.org/2000/svg">
<path fill-rule="evenodd" clip-rule="evenodd" d="M6.10059 1.99976C7.06708 1.99976 7.85059 2.78326 7.85059 3.74976C7.85059 4.71625 7.06708 5.49976 6.10059 5.49976C5.13409 5.49976 4.35059 4.71625 4.35059 3.74976C4.35059 2.78326 5.13409 1.99976 6.10059 1.99976ZM6.10059 6.49976C7.61937 6.49976 8.85059 5.26854 8.85059 3.74976C8.85059 2.23097 7.61937 0.999756 6.10059 0.999756C4.5818 0.999756 3.35059 2.23097 3.35059 3.74976C3.35059 5.26854 4.5818 6.49976 6.10059 6.49976ZM4.61133 8C2.61697 8.00013 1 9.61697 1 11.6113C1.00001 12.3783 1.62171 12.9999 2.38867 13H5C5.27614 13 5.5 12.7761 5.5 12.5C5.49987 12.224 5.27606 12 5 12H2.38867C2.174 11.9999 2.00001 11.826 2 11.6113C2 10.1692 3.16923 9.0001 4.61133 9H7L7.10059 8.98926C7.32843 8.94267 7.49994 8.7416 7.5 8.5C7.49998 8.25831 7.32853 8.0563 7.10059 8.00977L7 8H4.61133ZM12.5 9.99988C12.5 9.17145 11.8284 8.49988 11 8.49988C10.1716 8.49988 9.5 9.17145 9.5 9.99988C9.5 10.1165 9.5133 10.2298 9.53809 10.3378C9.57642 10.5054 9.52587 10.681 9.4043 10.8026L8 12.2069V12.9999H8.79297L10.1973 11.5956L10.2451 11.5536C10.3625 11.4629 10.5153 11.4282 10.6621 11.4618C10.7701 11.4866 10.8834 11.4999 11 11.4999C11.8284 11.4999 12.5 10.8283 12.5 9.99988ZM13.5 9.99988C13.5 11.3806 12.3807 12.4999 11 12.4999C10.906 12.4999 10.8132 12.4944 10.7217 12.4843L9.35352 13.8534C9.25976 13.9472 9.13259 13.9999 9 13.9999H7.5C7.3674 13.9999 7.24025 13.9472 7.14648 13.8534C7.05275 13.7596 7 13.6325 7 13.4999V11.9999L7.00977 11.9022C7.02894 11.806 7.07608 11.7168 7.14648 11.6464L8.51465 10.2772C8.50457 10.1861 8.5 10.0935 8.5 9.99988C8.5 8.61917 9.61929 7.49988 11 7.49988C12.3807 7.49988 13.5 8.61917 13.5 9.99988ZM11 10.5C11.2761 10.5 11.5 10.2761 11.5 10C11.5 9.72386 11.2761 9.5 11 9.5C10.7239 9.5 10.5 9.72386 10.5 10C10.5 10.2761 10.7239 10.5 11 10.5Z" fill="#242629"/>
</svg>
