<svg width="14" height="14" viewBox="0 0 14 14" fill="none" xmlns="http://www.w3.org/2000/svg">
<path d="M8.38867 7.99976C10.383 7.99976 11.9999 9.61683 12 11.6111C11.9999 12.378 11.3782 12.9996 10.6113 12.9998H3.38867C2.62178 12.9996 2.00012 12.378 2 11.6111C2.00013 9.61683 3.61705 7.99976 5.61133 7.99976H8.38867ZM5.61133 8.99976C4.16933 8.99976 3.00013 10.1691 3 11.6111C3.00012 11.8257 3.17407 11.9996 3.38867 11.9998H10.6113C10.8259 11.9996 10.9999 11.8257 11 11.6111C10.9999 10.1691 9.83067 8.99976 8.38867 8.99976H5.61133ZM7.10059 0.999756C8.61931 0.999822 9.85059 2.23101 9.85059 3.74976C9.85059 5.2685 8.61931 6.49969 7.10059 6.49976C5.5818 6.49976 4.35059 5.26854 4.35059 3.74976C4.35059 2.23097 5.5818 0.999756 7.10059 0.999756ZM7.10059 1.99976C6.13409 1.99976 5.35059 2.78326 5.35059 3.74976C5.35059 4.71625 6.13409 5.49976 7.10059 5.49976C8.06703 5.49969 8.85059 4.71621 8.85059 3.74976C8.85059 2.7833 8.06703 1.99982 7.10059 1.99976Z" fill="#242629"/>
</svg>
