<svg width="14" height="14" viewBox="0 0 14 14" fill="none" xmlns="http://www.w3.org/2000/svg">
<path d="M10.5 7C12.433 7 14 8.56701 14 10.5C14 12.433 12.433 14 10.5 14C8.567 14 7 12.433 7 10.5C7.00001 8.56701 8.56701 7 10.5 7ZM10.5 8C9.1193 8 8.00001 9.1193 8 10.5C8 11.8807 9.11929 13 10.5 13C11.8807 13 13 11.8807 13 10.5C13 9.1193 11.8807 8 10.5 8ZM7 1.5C7.44539 1.5 7.72673 1.49862 7.96973 1.53711C9.25304 1.74056 10.2594 2.74697 10.4629 4.03027C10.4714 4.0841 10.4774 4.1403 10.4824 4.19922L11.1553 3.86328C11.4148 3.73349 11.6403 3.62024 11.8281 3.54688C12.0153 3.47378 12.2363 3.40997 12.4756 3.44531C12.8019 3.49357 13.094 3.67411 13.2832 3.94434C13.4218 4.14253 13.4641 4.36928 13.4824 4.56934C13.5008 4.77004 13.5 5.02245 13.5 5.3125V6C13.5 6.27614 13.2761 6.5 13 6.5C12.7239 6.5 12.5 6.27614 12.5 6V5.3125C12.5 5.00281 12.4995 4.80456 12.4863 4.66016C12.4731 4.51577 12.452 4.50047 12.4639 4.51758C12.4323 4.47264 12.3834 4.44259 12.3291 4.43457C12.3502 4.43769 12.328 4.42556 12.1924 4.47852C12.0573 4.53128 11.8796 4.61926 11.6025 4.75781L10.5 5.30859V6C10.5 6.27614 10.2761 6.5 10 6.5C9.72386 6.5 9.5 6.27614 9.5 6V5C9.5 4.51685 9.4986 4.3331 9.47559 4.1875C9.34003 3.33173 8.66827 2.65996 7.8125 2.52441C7.66689 2.5014 7.48317 2.5 7 2.5H5C4.29169 2.5 3.79023 2.50022 3.39844 2.53223C3.01265 2.56377 2.77691 2.62346 2.5918 2.71777C2.21555 2.9095 1.90951 3.21556 1.71777 3.5918C1.62346 3.7769 1.56377 4.01266 1.53223 4.39844C1.50022 4.79023 1.5 5.2917 1.5 6V8C1.5 8.7083 1.50022 9.20977 1.53223 9.60156C1.56376 9.98735 1.62346 10.2231 1.71777 10.4082C1.90951 10.7845 2.21555 11.0905 2.5918 11.2822C2.77691 11.3765 3.01264 11.4362 3.39844 11.4678C3.79023 11.4998 4.29168 11.5 5 11.5H5.5C5.77613 11.5 5.99998 11.7239 6 12C6 12.2761 5.77614 12.5 5.5 12.5H5C4.30822 12.5 3.75934 12.5 3.31738 12.4639C2.86958 12.4273 2.48732 12.351 2.1377 12.1729C1.57348 11.8853 1.11472 11.4265 0.827148 10.8623C0.649016 10.5127 0.572719 10.1304 0.536133 9.68262C0.500031 9.24067 0.5 8.69177 0.5 8V6C0.5 5.30823 0.500028 4.75933 0.536133 4.31738C0.572721 3.8696 0.649011 3.48731 0.827148 3.1377C1.11472 2.57348 1.57348 2.11472 2.1377 1.82715C2.48732 1.64901 2.86959 1.57272 3.31738 1.53613C3.75934 1.50003 4.30822 1.5 5 1.5H7ZM10.5 9C10.7761 9 11 9.22387 11 9.5V10.5C11 10.7761 10.7761 11 10.5 11H9.5C9.22386 11 9 10.7761 9 10.5C9.00001 10.2239 9.22387 10 9.5 10H10V9.5C10 9.22387 10.2239 9 10.5 9Z" fill="#242629"/>
</svg>
