<svg width="14" height="14" viewBox="0 0 14 14" fill="none" xmlns="http://www.w3.org/2000/svg">
<path d="M11.5 9C11.7761 9 12 9.22386 12 9.5V11H13.5C13.7761 11 14 11.2239 14 11.5C14 11.7761 13.7761 12 13.5 12H12V13.5C12 13.7761 11.7761 14 11.5 14C11.2239 14 11 13.7761 11 13.5V12H9.5C9.22386 12 9 11.7761 9 11.5C9 11.2239 9.22386 11 9.5 11H11V9.5C11 9.22386 11.2239 9 11.5 9ZM8.5 1C9.19178 1 9.74066 1.00003 10.1826 1.03613C10.6304 1.07272 11.0127 1.14901 11.3623 1.32715C11.9265 1.61472 12.3853 2.07347 12.6729 2.6377C12.851 2.98732 12.9273 3.36958 12.9639 3.81738C13 4.25934 13 4.80822 13 5.5V7C13 7.27614 12.7761 7.5 12.5 7.5C12.2239 7.5 12 7.27614 12 7V5.5C12 4.79168 11.9998 4.29023 11.9678 3.89844C11.9362 3.51264 11.8765 3.27691 11.7822 3.0918C11.5905 2.71554 11.2845 2.40951 10.9082 2.21777C10.7231 2.12345 10.4874 2.06377 10.1016 2.03223C9.70977 2.00022 9.20832 2 8.5 2H7.5V12.5C7.5 12.5344 7.49686 12.5681 7.49023 12.6006C7.44371 12.8286 7.24171 13 7 13H5.5C4.80822 13 4.25934 13 3.81738 12.9639C3.36958 12.9273 2.98732 12.851 2.6377 12.6729C2.07347 12.3853 1.61472 11.9265 1.32715 11.3623C1.14901 11.0127 1.07272 10.6304 1.03613 10.1826C1.00003 9.74066 0.999997 9.19178 1 8.5V5.5C1 5.3337 1.00145 5.17567 1.00195 5.02539C1.00153 5.01696 1 5.00854 1 5C1 4.99014 1.00139 4.98042 1.00195 4.9707C1.00388 4.5199 1.00977 4.14012 1.03613 3.81738C1.07272 3.36958 1.14901 2.98732 1.32715 2.6377C1.61472 2.07347 2.07348 1.61473 2.6377 1.32715C2.98732 1.14901 3.36958 1.07272 3.81738 1.03613C4.25933 1.00003 4.80821 1 5.5 1H8.5ZM2.00586 9.5C2.01028 9.72837 2.01788 9.92598 2.03223 10.1016C2.06377 10.4874 2.12345 10.7231 2.21777 10.9082C2.40951 11.2845 2.71555 11.5905 3.0918 11.7822C3.27691 11.8765 3.51264 11.9362 3.89844 11.9678C4.29023 11.9998 4.79169 12 5.5 12H6.5V9.5H2.00586ZM2 8.5H6.5V5.5H2V8.5ZM10.0576 3.00586C10.1528 3.01235 10.2658 3.0277 10.3828 3.07617C10.6277 3.17766 10.8223 3.37226 10.9238 3.61719C10.9723 3.73421 10.9876 3.8472 10.9941 3.94238C11.0003 4.03308 11 4.14036 11 4.25C11 4.35964 11.0003 4.46692 10.9941 4.55762C10.9876 4.6528 10.9723 4.76579 10.9238 4.88281C10.8223 5.12774 10.6277 5.32234 10.3828 5.42383C10.2658 5.4723 10.1528 5.48765 10.0576 5.49414C9.96692 5.50033 9.85964 5.5 9.75 5.5C9.64036 5.5 9.53308 5.50033 9.44238 5.49414C9.3472 5.48765 9.23421 5.4723 9.11719 5.42383C8.87226 5.32234 8.67766 5.12774 8.57617 4.88281C8.5277 4.76579 8.51235 4.6528 8.50586 4.55762C8.49967 4.46692 8.5 4.35964 8.5 4.25C8.5 4.14036 8.49967 4.03308 8.50586 3.94238C8.51235 3.8472 8.5277 3.73421 8.57617 3.61719C8.67766 3.37226 8.87226 3.17766 9.11719 3.07617C9.23421 3.0277 9.3472 3.01235 9.44238 3.00586C9.53308 2.99967 9.64036 3 9.75 3C9.85964 3 9.96692 2.99967 10.0576 3.00586ZM5.5 2C4.7917 2 4.29023 2.00022 3.89844 2.03223C3.51266 2.06377 3.2769 2.12346 3.0918 2.21777C2.71555 2.40951 2.4095 2.71555 2.21777 3.0918C2.12345 3.27691 2.06377 3.51263 2.03223 3.89844C2.01788 4.07402 2.01028 4.27163 2.00586 4.5H6.5V2H5.5ZM9.51074 4.00391C9.50842 4.00406 9.50594 4.00375 9.50391 4.00391C9.50375 4.00594 9.50406 4.00842 9.50391 4.01074C9.5006 4.05948 9.5 4.12689 9.5 4.25C9.5 4.37311 9.5006 4.44052 9.50391 4.48926C9.50404 4.49122 9.50377 4.49336 9.50391 4.49512C9.50597 4.49528 9.50839 4.49593 9.51074 4.49609C9.55948 4.4994 9.62689 4.5 9.75 4.5C9.87311 4.5 9.94052 4.4994 9.98926 4.49609C9.99124 4.49596 9.99334 4.49525 9.99512 4.49512C9.99525 4.49334 9.99596 4.49124 9.99609 4.48926C9.9994 4.44052 10 4.37311 10 4.25C10 4.12689 9.9994 4.05948 9.99609 4.01074C9.99593 4.00839 9.99528 4.00597 9.99512 4.00391C9.99336 4.00377 9.99122 4.00404 9.98926 4.00391C9.94052 4.0006 9.87311 4 9.75 4C9.62689 4 9.55948 4.0006 9.51074 4.00391Z" fill="#242629"/>
</svg>
