<svg width="14" height="14" viewBox="0 0 14 14" fill="none" xmlns="http://www.w3.org/2000/svg">
<path d="M6.26123 0.602539C6.73076 0.391325 7.26921 0.391414 7.73877 0.602539C8.06048 0.747367 8.29639 1.01657 8.50732 1.32129C8.72012 1.62884 8.9554 2.04665 9.24658 2.5625L12.6841 8.65137C12.9669 9.15231 13.1965 9.55872 13.3462 9.8916C13.4948 10.2223 13.6005 10.5559 13.562 10.9004C13.5054 11.4048 13.2382 11.862 12.8267 12.1592C12.5455 12.3622 12.2035 12.4337 11.8423 12.4668C11.4788 12.5001 11.0124 12.5 10.437 12.5H3.56201C2.98669 12.5 2.52019 12.5001 2.15674 12.4668C1.79558 12.4336 1.45349 12.3622 1.17236 12.1592C0.760967 11.8619 0.493475 11.4038 0.437012 10.8994C0.398726 10.5551 0.504282 10.2221 0.652832 9.8916C0.802538 9.55863 1.03299 9.15251 1.31592 8.65137L4.75342 2.5625C5.04484 2.0463 5.27975 1.62794 5.49268 1.32031C5.70362 1.0156 5.93952 0.747364 6.26123 0.602539ZM7.32861 1.51465C7.11997 1.42091 6.87999 1.42081 6.67139 1.51465C6.60435 1.54495 6.49697 1.62669 6.31494 1.88965C6.13433 2.15059 5.92467 2.52031 5.62354 3.05371L2.18604 9.14258C1.89345 9.66084 1.69138 10.0205 1.56494 10.3018C1.43801 10.5842 1.42309 10.7161 1.43115 10.7891C1.45634 11.013 1.57569 11.2166 1.7583 11.3486C1.81796 11.3915 1.9402 11.4424 2.24854 11.4707C2.55545 11.4988 2.96728 11.5 3.56201 11.5H10.437C11.0321 11.5 11.4445 11.4988 11.7515 11.4707C12.0604 11.4423 12.1822 11.3916 12.2417 11.3486C12.4245 11.2166 12.5427 11.0131 12.5679 10.7891C12.5759 10.7161 12.5611 10.5844 12.4341 10.3018C12.3077 10.0206 12.1055 9.66069 11.813 9.14258L8.37549 3.05371C8.07458 2.52064 7.86558 2.1505 7.68506 1.88965C7.50314 1.62687 7.39563 1.54494 7.32861 1.51465ZM6.99951 8.75C7.41373 8.75 7.74951 9.08579 7.74951 9.5V9.50977C7.74949 9.92396 7.41371 10.2598 6.99951 10.2598C6.58553 10.2595 6.24953 9.92381 6.24951 9.50977V9.5C6.24951 9.08595 6.58552 8.75026 6.99951 8.75ZM6.99951 4C7.27565 4 7.49951 4.22386 7.49951 4.5V7C7.4995 7.27614 7.27565 7.5 6.99951 7.5C6.72357 7.49977 6.49952 7.27599 6.49951 7V4.5C6.49951 4.224 6.72357 4.00023 6.99951 4Z" fill="#242629"/>
</svg>
