<svg width="14" height="14" viewBox="0 0 14 14" fill="none" xmlns="http://www.w3.org/2000/svg">
<g clip-path="url(#clip0_19835_3010)">
<path d="M4.55402 6.27466C4.6785 6.02838 4.97946 5.92966 5.22589 6.05396C5.47188 6.17856 5.57083 6.47953 5.44659 6.72583L4.26202 9.07251C4.72076 9.4863 5.01105 10.0839 5.01105 10.7502C5.01087 11.9984 3.99844 13.0108 2.75031 13.011C1.50202 13.011 0.489739 11.9985 0.489563 10.7502C0.489563 9.50185 1.50191 8.4895 2.75031 8.4895C2.97258 8.48953 3.18703 8.52244 3.38995 8.58228L4.55402 6.27466ZM11.2503 8.4895C12.4987 8.4895 13.511 9.50185 13.511 10.7502C13.5109 11.9985 12.4986 13.011 11.2503 13.011C10.2652 13.0109 9.42911 12.3795 9.11945 11.5002H6.50031C6.22427 11.5002 6.00048 11.2762 6.00031 11.0002C6.00031 10.7241 6.22416 10.5002 6.50031 10.5002H9.00421C9.12855 9.36939 10.0864 8.48958 11.2503 8.4895ZM2.75031 9.51099C2.0657 9.51099 1.51105 10.0656 1.51105 10.7502C1.51122 11.4347 2.06581 11.9895 2.75031 11.9895C3.43465 11.9893 3.98939 11.4346 3.98956 10.7502C3.98956 10.0658 3.43476 9.51116 2.75031 9.51099ZM11.2503 9.51099C10.5658 9.51107 10.011 10.0657 10.011 10.7502C10.0112 11.4346 10.5659 11.9894 11.2503 11.9895C11.9348 11.9895 12.4894 11.4347 12.4896 10.7502C12.4896 10.0656 11.9349 9.51099 11.2503 9.51099ZM7.00031 0.989502C8.2487 0.989502 9.26105 2.00185 9.26105 3.25024C9.26095 3.908 8.97821 4.49828 8.5296 4.91138L9.92902 7.24341L9.97198 7.33423C10.0492 7.55356 9.96427 7.80462 9.75714 7.92896C9.55023 8.05292 9.28933 8.00993 9.13214 7.83911L9.07159 7.75708L7.66339 5.41138C7.4537 5.47563 7.23102 5.51099 7.00031 5.51099C5.75209 5.5109 4.73974 4.49843 4.73956 3.25024C4.73956 2.0019 5.75199 0.98959 7.00031 0.989502ZM7.00031 2.01099C6.31578 2.01107 5.76105 2.5657 5.76105 3.25024C5.76122 3.93464 6.31589 4.48941 7.00031 4.4895C7.6848 4.4895 8.23939 3.9347 8.23956 3.25024C8.23956 2.56564 7.68491 2.01099 7.00031 2.01099Z" fill="#242629"/>
</g>
<defs>
<clipPath id="clip0_19835_3010">
<rect width="14" height="14" fill="white"/>
</clipPath>
</defs>
</svg>
