<svg width="14" height="14" viewBox="0 0 14 14" fill="none" xmlns="http://www.w3.org/2000/svg">
<g clip-path="url(#clip0_19835_2842)">
<path d="M12.5554 8C12.9384 8 13.3061 8.15206 13.5769 8.42285C13.8477 8.69364 13.9998 9.06139 13.9998 9.44434C13.9997 9.8271 13.8475 10.1942 13.5769 10.4648L11.7175 12.3242C11.3251 12.7166 11.0908 12.9532 10.822 13.1465C10.5902 13.3131 10.341 13.4543 10.0789 13.5674C9.77481 13.6985 9.45141 13.7775 8.91284 13.9121L8.62085 13.9854C8.45052 14.0279 8.27038 13.9777 8.14624 13.8535C8.0221 13.7294 7.9719 13.5492 8.0144 13.3789L8.08765 13.0869C8.22229 12.5483 8.30127 12.225 8.43237 11.9209C8.54544 11.6587 8.68665 11.4096 8.85327 11.1777C9.04651 10.9089 9.28312 10.6746 9.67554 10.2822L11.5349 8.42285C11.8056 8.15221 12.1727 8.0001 12.5554 8ZM12.5554 9C12.4379 9.0001 12.3251 9.04678 12.2419 9.12988L10.3826 10.9893C9.96824 11.4036 9.80068 11.5731 9.66577 11.7607C9.5411 11.9342 9.43589 12.1212 9.35132 12.3174C9.29483 12.4484 9.25111 12.5865 9.19214 12.8066C9.41266 12.7476 9.55124 12.705 9.68237 12.6484C9.87851 12.5639 10.0656 12.4587 10.239 12.334C10.4266 12.1991 10.5962 12.0315 11.0105 11.6172L12.8699 9.75781C12.953 9.67466 12.9997 9.56188 12.9998 9.44434C12.9998 9.3266 12.9531 9.21313 12.8699 9.12988C12.7866 9.04663 12.6732 9 12.5554 9ZM2.49976 7C2.7759 7 2.99976 7.22386 2.99976 7.5V9C2.99976 10.1046 3.89519 11 4.99976 11H6.49976C6.7759 11 6.99976 11.2239 6.99976 11.5C6.99976 11.7761 6.7759 12 6.49976 12H4.99976C3.3429 12 1.99976 10.6569 1.99976 9V7.5C1.99976 7.22386 2.22361 7 2.49976 7ZM8.99976 2C10.6566 2 11.9998 3.34315 11.9998 5V6.5C11.9998 6.77614 11.7759 7 11.4998 7C11.2236 7 10.9998 6.77614 10.9998 6.5V5C10.9998 3.89543 10.1043 3 8.99976 3H7.49976L7.39917 2.99023C7.1712 2.94371 6.99976 2.74171 6.99976 2.5C6.99976 2.22386 7.22361 2 7.49976 2H8.99976ZM3.24976 0.5C3.59224 0.5 3.87414 0.49994 4.10425 0.515625C4.33889 0.531635 4.55647 0.565812 4.76538 0.652344C5.25523 0.855326 5.64443 1.24453 5.84741 1.73438C5.93394 1.94328 5.96812 2.16087 5.98413 2.39551C5.99982 2.62561 5.99976 2.90752 5.99976 3.25C5.99976 3.59248 5.99982 3.87439 5.98413 4.10449C5.96812 4.33914 5.93394 4.55672 5.84741 4.76562C5.64443 5.25548 5.25523 5.64467 4.76538 5.84766C4.55647 5.93419 4.33889 5.96837 4.10425 5.98438C3.87414 6.00006 3.59224 6 3.24976 6C2.90727 6 2.62537 6.00006 2.39526 5.98438C2.16062 5.96837 1.94304 5.93419 1.73413 5.84766C1.24428 5.64467 0.855082 5.25547 0.6521 4.76562C0.565568 4.55672 0.53139 4.33914 0.515381 4.10449C0.499696 3.87439 0.499756 3.59248 0.499756 3.25C0.499756 2.90752 0.499696 2.62561 0.515381 2.39551C0.53139 2.16087 0.565568 1.94328 0.6521 1.73438C0.855082 1.24453 1.24428 0.855326 1.73413 0.652344C1.94304 0.565812 2.16062 0.531635 2.39526 0.515625C2.62537 0.49994 2.90727 0.5 3.24976 0.5ZM3.24976 1.5C2.89346 1.5 2.65086 1.49985 2.46265 1.5127C2.27917 1.52524 2.18365 1.54854 2.11694 1.57617C1.87202 1.67766 1.67742 1.87226 1.57593 2.11719C1.5483 2.18389 1.52499 2.27941 1.51245 2.46289C1.49961 2.65111 1.49976 2.8937 1.49976 3.25C1.49976 3.6063 1.49961 3.84889 1.51245 4.03711C1.52499 4.22059 1.5483 4.31611 1.57593 4.38281C1.67742 4.62774 1.87202 4.82234 2.11694 4.92383C2.18365 4.95146 2.27917 4.97476 2.46265 4.9873C2.65086 5.00015 2.89346 5 3.24976 5C3.60605 5 3.84865 5.00015 4.03687 4.9873C4.22034 4.97476 4.31587 4.95146 4.38257 4.92383C4.62749 4.82234 4.82209 4.62774 4.92358 4.38281C4.95121 4.31611 4.97452 4.22059 4.98706 4.03711C4.9999 3.84889 4.99976 3.6063 4.99976 3.25C4.99976 2.8937 4.9999 2.65111 4.98706 2.46289C4.97452 2.27941 4.95121 2.18389 4.92358 2.11719C4.82209 1.87226 4.62749 1.67766 4.38257 1.57617C4.31587 1.54854 4.22034 1.52524 4.03687 1.5127C3.84865 1.49985 3.60605 1.5 3.24976 1.5Z" fill="#242629"/>
</g>
<defs>
<clipPath id="clip0_19835_2842">
<rect width="14" height="14" fill="white"/>
</clipPath>
</defs>
</svg>
