<svg width="14" height="14" viewBox="0 0 14 14" fill="none" xmlns="http://www.w3.org/2000/svg">
<g clip-path="url(#clip0_19835_2835)">
<path d="M10.75 8C12.2688 8 13.5 9.23122 13.5 10.75C13.5 12.2688 12.2688 13.5 10.75 13.5C9.23122 13.5 8 12.2688 8 10.75C8 9.23122 9.23122 8 10.75 8ZM10.75 9C9.7835 9 9 9.7835 9 10.75C9 11.7165 9.7835 12.5 10.75 12.5C11.7165 12.5 12.5 11.7165 12.5 10.75C12.5 9.7835 11.7165 9 10.75 9ZM2.5 7C2.77614 7 3 7.22386 3 7.5V9C3 10.1046 3.89543 11 5 11H6.5C6.77614 11 7 11.2239 7 11.5C7 11.7761 6.77614 12 6.5 12H5C3.34315 12 2 10.6569 2 9V7.5C2 7.22386 2.22386 7 2.5 7ZM9 2C10.6569 2 12 3.34315 12 5V6.5C12 6.77614 11.7761 7 11.5 7C11.2239 7 11 6.77614 11 6.5V5C11 3.89543 10.1046 3 9 3H7.5L7.39941 2.99023C7.17145 2.94371 7 2.74171 7 2.5C7 2.22386 7.22386 2 7.5 2H9ZM3.25 0.5C3.59248 0.5 3.87439 0.49994 4.10449 0.515625C4.33914 0.531635 4.55672 0.565812 4.76562 0.652344C5.25547 0.855326 5.64467 1.24453 5.84766 1.73438C5.93419 1.94328 5.96837 2.16087 5.98438 2.39551C6.00006 2.62561 6 2.90752 6 3.25C6 3.59248 6.00006 3.87439 5.98438 4.10449C5.96837 4.33914 5.93419 4.55672 5.84766 4.76562C5.64467 5.25548 5.25548 5.64467 4.76562 5.84766C4.55672 5.93419 4.33914 5.96837 4.10449 5.98438C3.87439 6.00006 3.59248 6 3.25 6C2.90752 6 2.62561 6.00006 2.39551 5.98438C2.16087 5.96837 1.94328 5.93419 1.73438 5.84766C1.24453 5.64467 0.855326 5.25547 0.652344 4.76562C0.565812 4.55672 0.531635 4.33914 0.515625 4.10449C0.49994 3.87439 0.5 3.59248 0.5 3.25C0.5 2.90752 0.49994 2.62561 0.515625 2.39551C0.531635 2.16087 0.565812 1.94328 0.652344 1.73438C0.855326 1.24453 1.24453 0.855326 1.73438 0.652344C1.94328 0.565812 2.16087 0.531635 2.39551 0.515625C2.62561 0.49994 2.90752 0.5 3.25 0.5ZM3.25 1.5C2.8937 1.5 2.65111 1.49985 2.46289 1.5127C2.27941 1.52524 2.18389 1.54854 2.11719 1.57617C1.87226 1.67766 1.67766 1.87226 1.57617 2.11719C1.54854 2.18389 1.52524 2.27941 1.5127 2.46289C1.49985 2.65111 1.5 2.8937 1.5 3.25C1.5 3.6063 1.49985 3.84889 1.5127 4.03711C1.52524 4.22059 1.54854 4.31611 1.57617 4.38281C1.67766 4.62774 1.87226 4.82234 2.11719 4.92383C2.18389 4.95146 2.27941 4.97476 2.46289 4.9873C2.65111 5.00015 2.8937 5 3.25 5C3.6063 5 3.84889 5.00015 4.03711 4.9873C4.22059 4.97476 4.31611 4.95146 4.38281 4.92383C4.62774 4.82234 4.82234 4.62774 4.92383 4.38281C4.95146 4.31611 4.97476 4.22059 4.9873 4.03711C5.00015 3.84889 5 3.6063 5 3.25C5 2.8937 5.00015 2.65111 4.9873 2.46289C4.97476 2.27941 4.95146 2.18389 4.92383 2.11719C4.82234 1.87226 4.62774 1.67766 4.38281 1.57617C4.31611 1.54854 4.22059 1.52524 4.03711 1.5127C3.84889 1.49985 3.6063 1.5 3.25 1.5Z" fill="#242629"/>
</g>
<defs>
<clipPath id="clip0_19835_2835">
<rect width="14" height="14" fill="white"/>
</clipPath>
</defs>
</svg>
