<svg width="14" height="14" viewBox="0 0 14 14" fill="none" xmlns="http://www.w3.org/2000/svg">
<path d="M8.49976 0.999756C9.1914 0.999756 9.74047 0.999805 10.1824 1.03589C10.63 1.07247 11.0125 1.14887 11.3621 1.3269C11.9262 1.61443 12.385 2.07336 12.6726 2.63745C12.8507 2.98701 12.927 3.36945 12.9636 3.81714C12.9997 4.25904 12.9998 4.80809 12.9998 5.49976V6.49976C12.9998 6.7759 12.7759 6.99976 12.4998 6.99976C12.2237 6.99962 11.9998 6.77582 11.9998 6.49976V5.99976H7.49976V11.9998H8.49976C8.77581 11.9998 8.99962 12.2237 8.99976 12.4998C8.99975 12.7415 8.8283 12.9435 8.60034 12.99L8.49976 12.9998H5.49976C4.80811 12.9998 4.25903 12.9997 3.81714 12.9636C3.36946 12.927 2.987 12.8507 2.63745 12.6726C2.07337 12.385 1.61443 11.9262 1.3269 11.3621C1.14888 11.0125 1.07246 10.63 1.03589 10.1824C0.999803 9.74047 0.999756 9.19141 0.999756 8.49976V5.49976C0.999756 4.80809 0.999788 4.25904 1.03589 3.81714C1.07248 3.36943 1.14879 2.98702 1.3269 2.63745C1.61447 2.0733 2.0733 1.61447 2.63745 1.3269C2.98702 1.14879 3.36943 1.07248 3.81714 1.03589C4.25904 0.999788 4.80809 0.999756 5.49976 0.999756H8.49976ZM11.1462 8.14624C11.3414 7.95108 11.658 7.9513 11.8533 8.14624L13.8533 10.1462C14.0485 10.3415 14.0485 10.658 13.8533 10.8533L11.8533 12.8533C11.658 13.0485 11.3415 13.0485 11.1462 12.8533C10.9513 12.658 10.9512 12.3414 11.1462 12.1462L12.2927 10.9998H8.99976C8.72373 10.9996 8.49976 10.7758 8.49976 10.4998C8.49989 10.2238 8.72381 9.99989 8.99976 9.99976H12.2927L11.1462 8.85327C10.9513 8.65801 10.9512 8.3414 11.1462 8.14624ZM2.00171 8.99976C2.00335 9.4548 2.0081 9.80884 2.03198 10.1013C2.0635 10.4869 2.12331 10.7229 2.21753 10.908C2.40922 11.2841 2.71544 11.5902 3.09155 11.782C3.27662 11.8763 3.51256 11.936 3.89819 11.9675C4.28993 11.9995 4.79159 11.9998 5.49976 11.9998H6.49976V8.99976H2.00171ZM5.49976 1.99976C4.79157 1.99976 4.28995 1.99998 3.89819 2.03198C3.51252 2.06353 3.27663 2.12323 3.09155 2.21753C2.71537 2.40925 2.40925 2.71537 2.21753 3.09155C2.12323 3.27663 2.06353 3.51252 2.03198 3.89819C1.99998 4.28995 1.99976 4.79157 1.99976 5.49976V7.99976H6.49976V1.99976H5.49976ZM7.49976 4.99976H11.9978C11.9962 4.54467 11.9914 4.19069 11.9675 3.89819C11.936 3.51255 11.8763 3.27662 11.782 3.09155C11.5902 2.71543 11.2841 2.40921 10.908 2.21753C10.7229 2.1233 10.4869 2.06351 10.1013 2.03198C9.70956 1.99999 9.20791 1.99976 8.49976 1.99976H7.49976V4.99976Z" fill="#242629"/>
</svg>
