<svg width="14" height="14" viewBox="0 0 14 14" fill="none" xmlns="http://www.w3.org/2000/svg">
<path d="M6.99976 11C7.2759 11 7.49976 11.2239 7.49976 11.5V13C7.49976 13.2761 7.2759 13.5 6.99976 13.5C6.72371 13.4999 6.49976 13.2761 6.49976 13V11.5C6.49976 11.2239 6.72371 11.0001 6.99976 11ZM9.99976 4C10.4401 4 10.7335 3.99752 10.9871 4.04785C11.9788 4.24512 12.7546 5.02099 12.9519 6.0127C13.0023 6.26627 12.9998 6.55957 12.9998 7C12.9998 7.44043 13.0023 7.73373 12.9519 7.9873C12.7546 8.97901 11.9788 9.75488 10.9871 9.95215C10.7335 10.0025 10.4401 10 9.99976 10H3.99976C3.55942 10 3.26599 10.0025 3.01245 9.95215C2.02081 9.75482 1.24486 8.97897 1.04761 7.9873C0.997246 7.73374 0.999756 7.44041 0.999756 7C0.999756 6.55959 0.997246 6.26626 1.04761 6.0127C1.24486 5.02103 2.02081 4.24518 3.01245 4.04785C3.26599 3.99749 3.55942 4 3.99976 4H9.99976ZM3.99976 5C3.51128 5 3.33949 5.0029 3.20679 5.0293C2.61217 5.14782 2.14751 5.61239 2.02905 6.20703C2.00266 6.33975 1.99976 6.51142 1.99976 7C1.99976 7.48858 2.00266 7.66025 2.02905 7.79297C2.14751 8.38761 2.61217 8.85218 3.20679 8.9707C3.33949 8.9971 3.51128 9 3.99976 9H9.99976C10.4882 9 10.66 8.99707 10.7927 8.9707C11.3874 8.85224 11.852 8.38765 11.9705 7.79297C11.9969 7.66025 11.9998 7.48862 11.9998 7C11.9998 6.51138 11.9969 6.33975 11.9705 6.20703C11.852 5.61235 11.3874 5.14776 10.7927 5.0293C10.66 5.00293 10.4882 5 9.99976 5H3.99976ZM6.99976 0.5C7.24146 0.5 7.44345 0.671467 7.48999 0.899414L7.49976 1V2.5C7.49976 2.77614 7.2759 3 6.99976 3C6.72371 2.99989 6.49976 2.77608 6.49976 2.5V1C6.49976 0.723925 6.72371 0.500109 6.99976 0.5Z" fill="#242629"/>
</svg>
