<svg width="14" height="14" viewBox="0 0 14 14" fill="none" xmlns="http://www.w3.org/2000/svg">
<path d="M8.5 1C9.19178 1 9.74066 1.00003 10.1826 1.03613C10.6304 1.07272 11.0127 1.14901 11.3623 1.32715C11.9265 1.61472 12.3853 2.07347 12.6729 2.6377C12.851 2.98732 12.9273 3.36958 12.9639 3.81738C13 4.25934 13 4.80822 13 5.5V8.5C13 9.19179 13 9.74067 12.9639 10.1826C12.9273 10.6304 12.851 11.0127 12.6729 11.3623C12.3853 11.9265 11.9265 12.3853 11.3623 12.6729C11.0127 12.851 10.6304 12.9273 10.1826 12.9639C9.74066 13 9.19178 13 8.5 13H5.5C4.80824 13 4.25932 13 3.81738 12.9639C3.3696 12.9273 2.98731 12.851 2.6377 12.6729C2.07348 12.3853 1.61473 11.9265 1.32715 11.3623C1.14902 11.0127 1.07272 10.6304 1.03613 10.1826C1.00003 9.74067 1 9.19179 1 8.5V5.5C1 4.80822 1.00003 4.25934 1.03613 3.81738C1.07272 3.36958 1.14901 2.98732 1.32715 2.6377C1.61472 2.07347 2.07347 1.61472 2.6377 1.32715C2.98732 1.14901 3.36958 1.07272 3.81738 1.03613C4.25934 1.00003 4.80822 1 5.5 1H8.5ZM2.00195 9C2.0036 9.45518 2.00833 9.80903 2.03223 10.1016C2.06377 10.4873 2.12346 10.7231 2.21777 10.9082C2.40951 11.2844 2.71555 11.5905 3.0918 11.7822C3.27691 11.8765 3.51265 11.9362 3.89844 11.9678C4.29022 11.9998 4.79171 12 5.5 12H6.5V9H2.00195ZM7.5 12H8.5C9.20832 12 9.70977 11.9998 10.1016 11.9678C10.4874 11.9362 10.7231 11.8765 10.9082 11.7822C11.2845 11.5905 11.5905 11.2844 11.7822 10.9082C11.8765 10.7231 11.9362 10.4873 11.9678 10.1016C11.9998 9.70977 12 9.20829 12 8.5V6H7.5V12ZM5.5 2C4.79168 2 4.29023 2.00022 3.89844 2.03223C3.51264 2.06377 3.27691 2.12345 3.0918 2.21777C2.71554 2.40951 2.40951 2.71554 2.21777 3.0918C2.12345 3.27691 2.06377 3.51264 2.03223 3.89844C2.00022 4.29023 2 4.79168 2 5.5V8H6.5V2H5.5ZM7.5 5H11.998C11.9964 4.5448 11.9917 4.19098 11.9678 3.89844C11.9362 3.51264 11.8765 3.27691 11.7822 3.0918C11.5905 2.71554 11.2845 2.40951 10.9082 2.21777C10.7231 2.12345 10.4874 2.06377 10.1016 2.03223C9.70977 2.00022 9.20832 2 8.5 2H7.5V5Z" fill="#242629"/>
</svg>
