<svg width="16" height="16" viewBox="0 0 16 16" fill="none" xmlns="http://www.w3.org/2000/svg">
  <path
    d="M5.36133 2.35449C5.57959 2.1055 5.95876 2.08074 6.20801 2.29883C6.457 2.51709 6.48176 2.89626 6.26367 3.14551L4.07129 5.65039H9.75C12.0144 5.65039 13.8496 7.48563 13.8496 9.75V13.25C13.8496 13.5814 13.5814 13.8496 13.25 13.8496C12.9186 13.8496 12.6504 13.5814 12.6504 13.25V9.75C12.6504 8.14837 11.3516 6.84961 9.75 6.84961H4.07129L6.26367 9.35449C6.48176 9.60374 6.457 9.98291 6.20801 10.2012C5.95876 10.4193 5.57959 10.3945 5.36133 10.1455L2.29883 6.64551L1.95312 6.25L2.29883 5.85449L5.36133 2.35449Z"
    fill="currentColor"
  />
</svg>
