<svg width="14" height="14" viewBox="0 0 14 14" fill="none" xmlns="http://www.w3.org/2000/svg">
<path d="M5.41699 1.15104C6.33791 0.397568 7.66209 0.397569 8.58301 1.15104L11.8994 3.86491C12.5957 4.43467 13 5.28651 13 6.1862V10.0016C12.9999 11.6584 11.6568 13.0016 10 13.0016H4C2.34321 13.0016 1.00011 11.6584 1 10.0016V6.1862C1.00004 5.28651 1.4043 4.43467 2.10059 3.86491L5.41699 1.15104ZM7.9502 1.92448C7.39765 1.4724 6.60235 1.4724 6.0498 1.92448L2.7334 4.63835C2.26925 5.01818 2.00004 5.58644 2 6.1862V10.0016C2.00011 11.1061 2.8955 12.0016 4 12.0016H10C11.1045 12.0016 11.9999 11.1061 12 10.0016V6.1862C12 5.58644 11.7308 5.01818 11.2666 4.63835L7.9502 1.92448ZM9.5 9.00163C9.77614 9.00163 10 9.22549 10 9.50163C9.99989 9.77768 9.77608 10.0016 9.5 10.0016H4.5C4.22392 10.0016 4.00011 9.77768 4 9.50163C4 9.22549 4.22386 9.00163 4.5 9.00163H9.5Z" fill="currentColor"/>
</svg>
