<svg width="14" height="14" viewBox="0 0 14 14" fill="none" xmlns="http://www.w3.org/2000/svg">
<path d="M10.6228 2.49121C11.1699 2.30889 11.6907 2.82983 11.5085 3.37695L11.4021 3.69531C11.1669 4.40123 10.7393 5.02755 10.1677 5.50391L9.41187 6.13281L10.783 9.90137C10.9157 10.2664 10.8241 10.6755 10.5496 10.9502L10.3777 11.1221C10.1733 11.3265 9.8387 11.316 9.64819 11.0986L7.03687 8.11328L5.58667 9.32129L5.98511 11.3135C6.02012 11.4886 5.96573 11.6705 5.8396 11.7969C5.68691 11.9494 5.47677 11.9648 5.32007 11.8164C4.64801 11.1794 2.92529 9.4154 2.23901 8.70996C2.07811 8.54452 2.08267 8.28137 2.24585 8.11816C2.34574 8.0185 2.4893 7.97525 2.62769 8.00293L4.67847 8.41309L5.88647 6.96191L2.9021 4.35254C2.68453 4.1621 2.67331 3.82658 2.87769 3.62207L3.05054 3.4502C3.32527 3.17584 3.73444 3.08506 4.09937 3.21777L7.86597 4.58691L8.49585 3.83203C8.97209 3.26063 9.59876 2.83283 10.3044 2.59766L10.6228 2.49121Z" fill="#242629"/>
</svg>
