<svg width="14" height="14" viewBox="0 0 14 14" fill="none" xmlns="http://www.w3.org/2000/svg">
<path d="M7 2C10 2 11.5 4 11.5 6.5C11.5 8.70914 9 12 7 12C5 12 2.5 8.70914 2.5 6.5C2.5 4 4 2 7 2ZM4.6377 6.11133C4.49249 5.92012 4.23937 5.84156 4.00977 5.91699C3.78007 5.99261 3.625 6.20521 3.625 6.44434C3.62502 7.71695 4.12145 8.45712 4.71875 8.85059C5.00108 9.03648 5.2813 9.12819 5.48926 9.17383C5.59393 9.1968 5.68301 9.20863 5.74902 9.21484C5.78214 9.21796 5.80986 9.21977 5.83105 9.2207C5.84161 9.22117 5.85108 9.22152 5.8584 9.22168H5.875C6.08796 9.22162 6.28265 9.10315 6.37793 8.91504C6.4732 8.72685 6.45298 8.50134 6.3252 8.33301L4.6377 6.11133ZM9.99023 5.91699C9.76056 5.84141 9.50756 5.92004 9.3623 6.11133L7.6748 8.33301C7.54697 8.50135 7.52679 8.72683 7.62207 8.91504C7.71739 9.10313 7.91202 9.22168 8.125 9.22168H8.1416C8.14895 9.22152 8.15834 9.22117 8.16895 9.2207C8.19012 9.21977 8.21796 9.21795 8.25098 9.21484C8.31697 9.20863 8.40621 9.19677 8.51074 9.17383C8.71866 9.12817 8.99808 9.03638 9.28027 8.85059C9.87775 8.45718 10.375 7.71724 10.375 6.44434C10.375 6.20521 10.2199 5.99261 9.99023 5.91699Z" fill="#242629"/>
</svg>
