<svg width="14" height="14" viewBox="0 0 14 14" fill="none" xmlns="http://www.w3.org/2000/svg">
<path d="M10.0762 6C10.3947 6 10.5545 5.99981 10.6689 6.06445C10.7693 6.12115 10.8468 6.21099 10.8887 6.31836C10.9363 6.44086 10.9136 6.59882 10.8682 6.91406L10.6748 8.25586C10.5347 9.22866 10.4646 9.71517 10.2295 10.0811C10.0222 10.4035 9.72665 10.6601 9.37793 10.8193C8.98225 11 8.49074 11 7.50781 11H6.49219C5.50926 11 5.01775 11 4.62207 10.8193C4.27335 10.6601 3.97781 10.4035 3.77051 10.0811C3.5354 9.71517 3.46528 9.22866 3.3252 8.25586L3.13184 6.91406C3.08644 6.59882 3.06366 6.44086 3.11133 6.31836C3.15319 6.21099 3.23072 6.12115 3.33105 6.06445C3.44551 5.99981 3.60534 6 3.92383 6H10.0762ZM5.5 7C5.22386 7 5 7.22386 5 7.5C5.00001 7.77614 5.22386 8 5.5 8H8.5C8.77614 8 8.99999 7.77614 9 7.5C9 7.22386 8.77614 7 8.5 7H5.5ZM10.7002 3C10.9799 3 11.1197 3.00034 11.2266 3.05469C11.3206 3.10262 11.3974 3.17936 11.4453 3.27344C11.4997 3.38033 11.5 3.52014 11.5 3.7998V4.2002C11.5 4.47986 11.4997 4.61967 11.4453 4.72656C11.3974 4.82064 11.3206 4.89738 11.2266 4.94531C11.1197 4.99966 10.9799 5 10.7002 5H3.2998C3.02014 5 2.88033 4.99966 2.77344 4.94531C2.67936 4.89738 2.60262 4.82064 2.55469 4.72656C2.50034 4.61967 2.5 4.47986 2.5 4.2002V3.7998C2.5 3.52014 2.50034 3.38033 2.55469 3.27344C2.60262 3.17936 2.67936 3.10262 2.77344 3.05469C2.88033 3.00034 3.02014 3 3.2998 3H10.7002Z" fill="#242629"/>
</svg>
