<svg width="14" height="14" viewBox="0 0 14 14" fill="none" xmlns="http://www.w3.org/2000/svg">
<path d="M5.54883 2.21436C6.54842 1.91123 7.6183 1.92939 8.60742 2.26514L8.79102 2.33154C9.70274 2.68134 10.494 3.29134 11.0645 4.0874L11.1748 4.24854C11.7121 5.06389 12 6.02019 12 6.99951V7.74951C12 8.71601 11.2165 9.49951 10.25 9.49951C9.64688 9.49951 9.11546 9.19427 8.80078 8.72998C8.34589 9.20328 7.7083 9.49951 7 9.49951C5.61929 9.49951 4.5 8.38022 4.5 6.99951C4.50009 5.61887 5.61934 4.49951 7 4.49951C7.56344 4.49951 8.08193 4.68795 8.5 5.00244V4.99951C8.50009 4.72344 8.72391 4.49951 9 4.49951C9.27609 4.49951 9.49991 4.72344 9.5 4.99951V7.74951C9.5 8.16373 9.83579 8.49951 10.25 8.49951C10.6642 8.49951 11 8.16373 11 7.74951V6.99951C11 6.26812 10.7992 5.55271 10.4229 4.93018L10.251 4.66943C9.82498 4.07513 9.24551 3.61049 8.57715 3.32373L8.28613 3.21143C7.49479 2.94282 6.63858 2.92883 5.83887 3.17139L5.54395 3.27393C4.86643 3.53871 4.27142 3.98474 3.82617 4.56494C3.31767 5.22785 3.02934 6.03362 3.00195 6.86865L3.00391 7.18115C3.03692 7.90768 3.26761 8.61417 3.67383 9.22217L3.85742 9.47412C4.30744 10.0456 4.90637 10.485 5.59082 10.7427C6.27523 11.0003 7.01536 11.065 7.73047 10.9321L8.03516 10.8628L8.13477 10.8472C8.36686 10.833 8.58464 10.9831 8.64746 11.2163C8.71001 11.4497 8.59674 11.6895 8.38867 11.7935L8.29395 11.8296L8.10449 11.8765C7.15199 12.0922 6.15498 12.0242 5.23828 11.6792C4.32179 11.3342 3.5279 10.7281 2.9541 9.93799L2.84277 9.77783C2.29875 8.96358 2.00628 8.00814 2 7.03174L2.00293 6.83545C2.03511 5.85674 2.35331 4.91005 2.91699 4.11279L3.0332 3.95557C3.62939 3.17868 4.43972 2.59469 5.3623 2.2749L5.54883 2.21436ZM7 5.49951C6.17163 5.49951 5.50009 6.17116 5.5 6.99951C5.5 7.82794 6.17157 8.49951 7 8.49951C7.82843 8.49951 8.5 7.82794 8.5 6.99951C8.49991 6.17116 7.82837 5.49951 7 5.49951Z" fill="#242629"/>
</svg>
