<svg width="14" height="14" viewBox="0 0 14 14" fill="none" xmlns="http://www.w3.org/2000/svg">
<path d="M5.27844 5.12891C5.41331 5.06841 5.56827 5.07131 5.70129 5.13574C5.85414 5.20994 5.96569 5.43309 6.1886 5.87891L7.50305 8.50684C7.67049 8.84171 7.75502 9.00994 7.88 9.08496C7.98931 9.15032 8.11988 9.17183 8.24426 9.14453C8.38666 9.11304 8.51947 8.97967 8.7843 8.71484L9.25891 8.24023C9.51033 7.98882 9.63722 7.86305 9.77454 7.83008C9.89475 7.80148 10.0215 7.81873 10.13 7.87793C10.254 7.94576 10.3431 8.10013 10.5197 8.40918L11.3156 9.80273C11.5401 10.1957 11.6523 10.3926 11.6349 10.5537C11.6197 10.6942 11.5462 10.8223 11.4318 10.9053C11.3005 11.0001 11.0734 11 10.6212 11H3.33899C2.89778 11 2.67625 11.0001 2.54602 10.9072C2.4326 10.8261 2.35839 10.7008 2.34094 10.5625C2.32097 10.4038 2.42567 10.2089 2.63489 9.82031L4.76868 5.85742C5.00484 5.41883 5.1236 5.19865 5.27844 5.12891ZM9.99915 2.5C10.8276 2.5 11.4991 3.17157 11.4991 4C11.4991 4.82843 10.8276 5.5 9.99915 5.5C9.17113 5.49952 8.49915 4.82813 8.49915 4C8.49915 3.17187 9.17113 2.50048 9.99915 2.5Z" fill="#242629"/>
</svg>
