<svg width="14" height="14" viewBox="0 0 14 14" fill="none" xmlns="http://www.w3.org/2000/svg">
<path d="M10.5762 9.25391C10.9545 9.29214 11.25 9.61154 11.25 10C11.25 10.3885 10.9545 10.7079 10.5762 10.7461L10.5 10.75H3.55371C3.13955 10.7499 2.80371 10.4142 2.80371 10C2.80371 9.58583 3.13955 9.25007 3.55371 9.25H10.5L10.5762 9.25391ZM10.5225 6.25391C10.9008 6.29221 11.1963 6.61159 11.1963 7C11.1963 7.38841 10.9008 7.70779 10.5225 7.74609L10.4463 7.75H3.55371C3.13955 7.74993 2.80371 7.41417 2.80371 7C2.80371 6.58583 3.13955 6.25007 3.55371 6.25H10.4463L10.5225 6.25391ZM10.5537 3.25C10.9679 3.25 11.3037 3.58579 11.3037 4C11.3037 4.41421 10.9679 4.75 10.5537 4.75H3.55371C3.13955 4.74993 2.80371 4.41417 2.80371 4C2.80371 3.58583 3.13955 3.25007 3.55371 3.25H10.5537Z" fill="#242629"/>
</svg>
