<svg width="14" height="14" viewBox="0 0 14 14" fill="none" xmlns="http://www.w3.org/2000/svg">
<path opacity="0.3" d="M7 2C8.15708 2 9.22194 2.39352 10.0691 3.05343C10.166 3.12884 10.1656 3.27309 10.0762 3.35715C9.10616 4.26908 8.5 5.56356 8.5 7C8.5 8.43624 9.10642 9.73004 10.0762 10.6419C10.1656 10.726 10.166 10.8702 10.0692 10.9456C9.22198 11.6058 8.15733 12 7 12C5.84267 12 4.77802 11.6058 3.93079 10.9456C3.834 10.8702 3.83436 10.726 3.92376 10.6419C4.89358 9.73004 5.5 8.43624 5.5 7C5.5 5.56356 4.89384 4.26908 3.92382 3.35715C3.8344 3.27309 3.83404 3.12884 3.93086 3.05343C4.77806 2.39352 5.84292 2 7 2ZM2.93397 4.08997C2.99976 3.99822 3.12979 3.98425 3.21274 4.06084C4.00418 4.79163 4.5 5.83782 4.5 7C4.5 8.16193 4.00397 9.20742 3.21277 9.93812C3.12981 10.0147 2.99975 10.0008 2.93396 9.90898C2.34643 9.08942 2 8.08534 2 7C2 5.91437 2.34621 4.90971 2.93397 4.08997ZM10.7863 4.06088C10.8692 3.98427 10.9993 3.99822 11.0651 4.08996C11.6531 4.90973 12 5.91415 12 7C12 8.08555 11.6529 9.08939 11.0651 9.90899C10.9993 10.0008 10.8692 10.0147 10.7863 9.93808C9.99544 9.20735 9.5 8.16166 9.5 7C9.5 5.8381 9.99523 4.7917 10.7863 4.06088Z" fill="#242629"/>
<path d="M7 2C8.15708 2 9.22213 2.3938 10.0693 3.05371C10.1659 3.12918 10.1655 3.27344 10.0762 3.35742C9.10623 4.26935 8.5 5.56363 8.5 7C8.5 8.43615 9.10646 9.72975 10.0762 10.6416C10.1655 10.7256 10.1659 10.8698 10.0693 10.9453C9.2221 11.6055 8.15733 12 7 12C5.84267 12 4.7779 11.6055 3.93066 10.9453C3.83409 10.8698 3.8345 10.7256 3.92383 10.6416C4.89354 9.72975 5.5 8.43615 5.5 7C5.5 5.56363 4.89377 4.26935 3.92383 3.35742C3.83449 3.27344 3.8341 3.12918 3.93066 3.05371C4.77787 2.3938 5.84292 2 7 2ZM2.93359 4.08984C2.99936 3.99812 3.12994 3.98402 3.21289 4.06055C4.00434 4.79133 4.5 5.83782 4.5 7C4.5 8.16193 4.00409 9.20777 3.21289 9.93848C3.12993 10.015 2.99936 10.0009 2.93359 9.90918C2.34609 9.08962 2 8.08532 2 7C2 5.91441 2.34587 4.90956 2.93359 4.08984ZM10.7861 4.06055C10.8691 3.98401 10.9996 3.99813 11.0654 4.08984C11.6534 4.9096 12 5.91419 12 7C12 8.08553 11.6532 9.08958 11.0654 9.90918C10.9996 10.0009 10.8691 10.015 10.7861 9.93848C9.9953 9.20775 9.5 8.16166 9.5 7C9.5 5.8381 9.99505 4.79136 10.7861 4.06055Z" fill="#242629"/>
</svg>
