<svg width="14" height="14" viewBox="0 0 14 14" fill="none" xmlns="http://www.w3.org/2000/svg">
<path d="M6.30005 7.5C6.41042 7.5 6.50011 7.58985 6.50024 7.7002V11.7529C6.50024 11.8711 6.39841 11.9639 6.28149 11.9473C5.4033 11.8209 4.5985 11.4671 3.92993 10.9463C3.83322 10.8709 3.83385 10.7266 3.9231 10.6426C4.73731 9.87728 5.29514 8.8428 5.45337 7.68066C5.46723 7.5788 5.55369 7.5 5.65649 7.5H6.30005ZM8.34399 7.5C8.44665 7.50017 8.5323 7.57891 8.54614 7.68066C8.7043 8.84251 9.26165 9.87727 10.0754 10.6426C10.1648 10.7266 10.1654 10.8709 10.0686 10.9463C9.40054 11.4666 8.59732 11.8207 7.71997 11.9473C7.60291 11.9641 7.50024 11.8712 7.50024 11.7529V7.7002C7.50038 7.58985 7.59006 7.5 7.70044 7.5H8.34399ZM11.7542 7.5C11.8724 7.50002 11.9654 7.60268 11.9485 7.71973C11.8318 8.52846 11.521 9.27411 11.0657 9.90918C10.9999 10.0009 10.8693 10.0151 10.7864 9.93848C10.1641 9.36335 9.7254 8.59299 9.56665 7.72461C9.54503 7.60631 9.63878 7.50004 9.75903 7.5H11.7542ZM4.24146 7.5C4.36174 7.5 4.45548 7.60629 4.43384 7.72461C4.27496 8.59286 3.83553 9.36247 3.21313 9.9375C3.13018 10.0141 2.99965 9.99999 2.93384 9.9082C2.47877 9.27336 2.16769 8.52804 2.05103 7.71973C2.03416 7.60277 2.12723 7.50015 2.24536 7.5H4.24146ZM2.93384 4.09082C2.99964 3.99907 3.1302 3.98491 3.21313 4.06152C3.83592 4.63684 4.27509 5.40747 4.43384 6.27637C4.45545 6.39468 4.36173 6.5 4.24146 6.5H2.24536C2.12725 6.49986 2.03424 6.39818 2.05103 6.28125C2.16759 5.4723 2.47842 4.72606 2.93384 4.09082ZM6.28149 2.05273C6.39842 2.0361 6.50024 2.12891 6.50024 2.24707V6.30078C6.50006 6.41108 6.41039 6.5 6.30005 6.5H5.65649C5.55369 6.5 5.46722 6.42218 5.45337 6.32031C5.29526 5.15781 4.73753 4.1229 3.9231 3.35742C3.83383 3.27339 3.83327 3.12911 3.92993 3.05371C4.59848 2.53295 5.40337 2.17914 6.28149 2.05273ZM7.71997 2.05273C8.59727 2.17929 9.40054 2.53342 10.0686 3.05371C10.1654 3.12912 10.1648 3.27335 10.0754 3.35742C9.26143 4.12292 8.70417 5.1581 8.54614 6.32031C8.53231 6.42207 8.44664 6.49982 8.34399 6.5H7.70044C7.5901 6.5 7.50043 6.41108 7.50024 6.30078V2.24707C7.50024 2.1288 7.60291 2.03586 7.71997 2.05273ZM10.7864 4.06152C10.8693 3.9849 10.9999 3.99907 11.0657 4.09082C11.5212 4.7261 11.8319 5.47219 11.9485 6.28125C11.9653 6.39827 11.8724 6.49999 11.7542 6.5H9.75903C9.63878 6.49998 9.54505 6.39467 9.56665 6.27637C9.72528 5.40763 10.1639 4.63683 10.7864 4.06152Z" fill="#242629"/>
</svg>
