<svg width="14" height="14" viewBox="0 0 14 14" fill="none" xmlns="http://www.w3.org/2000/svg">
<path d="M8.59961 3.5C9.43936 3.5 9.85984 3.49978 10.1807 3.66309C10.4629 3.8069 10.6931 4.03709 10.8369 4.31934C11.0002 4.64015 11 5.0607 11 5.90039V8.09961C11 8.9393 11.0002 9.35985 10.8369 9.68066C10.6931 9.96291 10.4629 10.1931 10.1807 10.3369C9.85984 10.5002 9.43936 10.5 8.59961 10.5H4.90039C4.0607 10.5 3.64015 10.5002 3.31934 10.3369C3.03709 10.1931 2.8069 9.96291 2.66309 9.68066C2.4998 9.35985 2.5 8.93933 2.5 8.09961V5.90039C2.5 5.06065 2.4998 4.64016 2.66309 4.31934C2.8069 4.03709 3.03709 3.8069 3.31934 3.66309C3.64015 3.49983 4.06071 3.5 4.90039 3.5H8.59961ZM7.5 5.05273C7.4999 4.86579 7.26623 4.78122 7.14648 4.9248L5.54688 6.84375C5.32977 7.10427 5.51537 7.49998 5.85449 7.5H6.2998C6.41022 7.5 6.49993 7.5898 6.5 7.7002V8.94727C6.5 9.13433 6.73376 9.2189 6.85352 9.0752L8.45312 7.15625C8.67015 6.89572 8.48462 6.5 8.14551 6.5H7.7002C7.58975 6.49999 7.5 6.41025 7.5 6.2998V5.05273ZM12 6C12.5522 6 12.9999 6.44779 13 7C13 7.55228 12.5523 8 12 8V6Z" fill="#242629"/>
</svg>
