<svg width="14" height="14" viewBox="0 0 14 14" fill="none" xmlns="http://www.w3.org/2000/svg">
<path d="M8.50037 10.5C8.50037 11.3283 7.82861 11.9998 7.00037 12C6.22372 12 5.58499 11.4097 5.50818 10.6533L5.50037 10.5H8.50037ZM7.00037 2C8.70326 2.0002 10.1288 3.29087 10.2982 4.98535L10.433 6.33105C10.477 6.7714 10.6184 7.19669 10.8461 7.57617L11.0912 7.98535C11.4911 8.65188 11.0111 9.5 10.2338 9.5H3.76599C2.98879 9.49988 2.50868 8.65183 2.90857 7.98535L3.15466 7.57617C3.38225 7.19676 3.52275 6.7713 3.56677 6.33105L3.70154 4.98535C3.871 3.29074 5.2973 2 7.00037 2Z" fill="#242629"/>
</svg>
