<svg width="14" height="14" viewBox="0 0 14 14" fill="none" xmlns="http://www.w3.org/2000/svg">
<path d="M8.75 2.5C9.44036 2.5 10 3.05964 10 3.75C10 4.5 11.3072 5.15318 11.5 6.5L11.9854 9C11.9944 9.08212 12 9.16546 12 9.25C12 10.4926 10.9926 11.5 9.75 11.5C8.50736 11.5 7.5 10.4926 7.5 9.25C7.5 8.97386 7.27614 8.75 7 8.75C6.72386 8.75 6.5 8.97386 6.5 9.25C6.5 10.4926 5.49264 11.5 4.25 11.5C3.00736 11.5 2 10.4926 2 9.25C2 9.16546 2.00557 9.08212 2.01465 9L2.5 6.5C2.697 5.12359 4 4.5 4 3.75C4 3.05964 4.55964 2.5 5.25 2.5C5.94036 2.5 6.5 3.05964 6.5 3.75V4.5C6.5 4.77614 6.72386 5 7 5C7.27614 5 7.5 4.77614 7.5 4.5V3.75C7.5 3.05964 8.05964 2.5 8.75 2.5ZM4.25 8C3.55964 8 3 8.55964 3 9.25C3 9.94036 3.55964 10.5 4.25 10.5C4.94036 10.5 5.5 9.94036 5.5 9.25C5.5 8.55964 4.94036 8 4.25 8ZM9.75 8C9.05964 8 8.5 8.55964 8.5 9.25C8.5 9.94036 9.05964 10.5 9.75 10.5C10.4404 10.5 11 9.94036 11 9.25C11 8.55964 10.4404 8 9.75 8Z" fill="#242629"/>
</svg>
