<svg width="14" height="14" viewBox="0 0 14 14" fill="none" xmlns="http://www.w3.org/2000/svg">
<path d="M8.09961 3C8.93932 3 9.35985 2.99981 9.68066 3.16309C9.96291 3.3069 10.1931 3.53709 10.3369 3.81934C10.4594 4.05992 10.4894 4.35641 10.4971 4.84375L10.5 5.40039V10.5508C10.5 11.0231 10.5 11.2596 10.4014 11.3926C10.3152 11.5083 10.1829 11.5815 10.0391 11.5928C9.87392 11.6057 9.67345 11.4794 9.27344 11.2275L7.85254 10.333C7.54338 10.1383 7.38858 10.0409 7.22266 10.0029C7.07611 9.96946 6.92389 9.96946 6.77734 10.0029C6.69429 10.0219 6.61381 10.0559 6.51562 10.1094L6.14746 10.333L4.72656 11.2275C4.32655 11.4794 4.12608 11.6057 3.96094 11.5928C3.81707 11.5815 3.6848 11.5083 3.59863 11.3926C3.49995 11.2596 3.5 11.0231 3.5 10.5508V5.40039C3.5 4.56067 3.49981 4.14015 3.66309 3.81934C3.8069 3.53709 4.03709 3.3069 4.31934 3.16309C4.64015 2.99981 5.06067 3 5.90039 3H8.09961Z" fill="#242629"/>
</svg>
