<svg width="14" height="14" viewBox="0 0 14 14" fill="none" xmlns="http://www.w3.org/2000/svg">
<path d="M6.67554 2.03662C6.88978 1.99067 7.11071 1.99064 7.32495 2.03662C7.57045 2.08933 7.79245 2.21809 8.01538 2.34814C8.03278 2.35829 8.05069 2.36829 8.06812 2.37842L10.3904 3.72803C10.4086 3.73859 10.4269 3.74974 10.4451 3.76025C10.6766 3.89414 10.907 4.02677 11.0818 4.22412C11.2343 4.3964 11.3501 4.60099 11.4207 4.82275C11.5012 5.07662 11.5003 5.34883 11.4998 5.62256V8.37939C11.5003 8.65337 11.5015 8.92612 11.4207 9.18018C11.35 9.40191 11.2343 9.60657 11.0818 9.77881C10.9069 9.97602 10.6765 10.1088 10.4451 10.2427C10.4269 10.2532 10.4086 10.2643 10.3904 10.2749L8.06812 11.6235C8.05066 11.6337 8.0328 11.6446 8.01538 11.6548C7.79252 11.7848 7.57036 11.9136 7.32495 11.9663C7.11083 12.0122 6.88966 12.0122 6.67554 11.9663C6.43009 11.9136 6.20799 11.7848 5.98511 11.6548C5.96761 11.6446 5.9499 11.6337 5.93237 11.6235L3.61011 10.2749C3.59191 10.2643 3.57362 10.2532 3.55542 10.2427C3.32395 10.1088 3.09356 9.97602 2.9187 9.77881C2.76613 9.60656 2.65046 9.40192 2.57983 9.18018C2.499 8.92611 2.49925 8.65339 2.49976 8.37939V5.62256C2.49925 5.34882 2.49924 5.07663 2.57983 4.82275C2.65041 4.60098 2.76617 4.39641 2.9187 4.22412C3.09352 4.02676 3.32389 3.89415 3.55542 3.76025C3.57361 3.74973 3.59192 3.7386 3.61011 3.72803L5.93237 2.37842C5.94981 2.36829 5.9677 2.3583 5.98511 2.34814C6.208 2.21811 6.43009 2.08935 6.67554 2.03662ZM7.92065 3.42334C7.74399 3.32204 7.52562 3.32524 7.35229 3.43213L4.54663 5.16357C4.21897 5.36591 4.01938 5.72379 4.01929 6.10889V9.1167C4.01948 9.3156 4.12598 9.49924 4.29858 9.59814L4.70093 9.82959C4.83401 9.90533 4.99935 9.8089 4.99976 9.65576V6.65869C4.99976 6.27373 5.19972 5.91583 5.5271 5.71338L8.31616 3.99072C8.44508 3.91113 8.44256 3.72248 8.31128 3.64697L7.92065 3.42334Z" fill="#242629"/>
</svg>
