<svg width="14" height="14" viewBox="0 0 14 14" fill="none" xmlns="http://www.w3.org/2000/svg">
<path d="M7 2C9.76142 2 12 4.23858 12 7C12 9.76142 9.76142 12 7 12C6.05126 12 5.16393 11.7362 4.4082 11.2773L2.88965 11.7334C2.50825 11.8478 2.15218 11.4918 2.2666 11.1104L2.72168 9.59082C2.2632 8.83534 2 7.94826 2 7C2 4.23858 4.23858 2 7 2ZM5 8C4.72386 8 4.5 8.22386 4.5 8.5C4.5 8.77614 4.72386 9 5 9H9C9.27614 9 9.5 8.77614 9.5 8.5C9.5 8.22386 9.27614 8 9 8H5ZM5 5C4.72386 5 4.5 5.22386 4.5 5.5C4.5 5.77614 4.72386 6 5 6H9C9.27614 6 9.5 5.77614 9.5 5.5C9.5 5.22386 9.27614 5 9 5H5Z" fill="#242629"/>
</svg>
