<svg width="14" height="14" viewBox="0 0 14 14" fill="none" xmlns="http://www.w3.org/2000/svg">
<path d="M4.52612 4.91211C6.16411 4.63914 7.83638 4.63912 9.47437 4.91211L9.55835 4.92676C9.80781 4.96856 9.98351 5.19419 9.96265 5.44629L9.89233 6.28223C10.3754 6.08632 10.774 5.72296 11.0085 5.25391C11.1445 4.98242 11.4752 4.87202 11.7468 5.00781C12.018 5.14378 12.1285 5.47465 11.9929 5.74609C11.6077 6.51662 10.9312 7.10239 10.114 7.375L9.79272 7.48145L9.70874 8.48926L10.114 8.625C10.9312 8.89761 11.6077 9.48338 11.9929 10.2539C12.1285 10.5254 12.018 10.8562 11.7468 10.9922C11.4752 11.128 11.1445 11.0176 11.0085 10.7461C10.7538 10.2365 10.3068 9.84833 9.76636 9.66797L9.54077 9.59277C9.23979 10.5232 8.47866 11.2553 7.50073 11.5V8.5C7.50073 8.22409 7.27655 8.00038 7.00073 8C6.72459 8 6.50073 8.22386 6.50073 8.5V11.5C5.5578 11.2643 4.81683 10.5752 4.49487 9.69238L4.21851 9.7627C3.68608 9.8959 3.23845 10.2552 2.99292 10.7461C2.85717 11.0176 2.52622 11.1276 2.25464 10.9922C1.98295 10.8563 1.8727 10.5256 2.00854 10.2539C2.39772 9.47576 3.10784 8.90636 3.9519 8.69531L4.30054 8.60742L4.20679 7.48145L3.88745 7.375C3.07009 7.10251 2.39393 6.51668 2.00854 5.74609C1.8727 5.47441 1.98295 5.14366 2.25464 5.00781C2.52622 4.8724 2.85717 4.98241 2.99292 5.25391C3.22735 5.7226 3.62451 6.08628 4.10718 6.28223L4.03784 5.44629C4.01697 5.19414 4.19259 4.96849 4.44214 4.92676L4.52612 4.91211ZM7.00073 2C8.10498 2.00038 9.00073 2.89566 9.00073 4C7.68783 3.67177 6.31366 3.67188 5.00073 4C5.00073 2.89543 5.89616 2 7.00073 2Z" fill="#242629"/>
</svg>
