<svg width="14" height="14" viewBox="0 0 14 14" fill="none" xmlns="http://www.w3.org/2000/svg">
<path d="M11.2705 10C11.3858 10 11.4786 10.0975 11.4648 10.2119C11.4423 10.3998 11.4041 10.5487 11.3369 10.6807C11.1931 10.9629 10.9629 11.1931 10.6807 11.3369C10.3598 11.5002 9.93932 11.5 9.09961 11.5H4.90039C4.06068 11.5 3.64015 11.5002 3.31934 11.3369C3.03709 11.1931 2.8069 10.9629 2.66309 10.6807C2.59592 10.5487 2.55775 10.3998 2.53516 10.2119C2.5214 10.0975 2.61424 10 2.72949 10H11.2705ZM6.34863 7C6.44734 7 6.54385 7.02923 6.62598 7.08398L7.16797 7.44531C7.67181 7.7812 8.32819 7.7812 8.83203 7.44531L9.37402 7.08398C9.45615 7.02923 9.55266 7 9.65137 7H11.5C11.7761 7 12 7.22386 12 7.5V8.5C12 8.77614 11.7761 9 11.5 9H2.5C2.22386 9 2 8.77614 2 8.5V7.5C2 7.22386 2.22386 7 2.5 7H6.34863ZM7 2.5C7.46399 2.5 7.69613 2.50031 7.8916 2.51953C9.67841 2.69552 11.1143 4.03575 11.4336 5.77539C11.4553 5.89372 11.3615 5.99991 11.2412 6H9.41406C9.1489 6.00004 8.89453 6.10547 8.70703 6.29297C8.31653 6.68339 7.68347 6.68339 7.29297 6.29297C7.10547 6.10547 6.8511 6.00004 6.58594 6H2.75879C2.63851 5.99991 2.5447 5.89372 2.56641 5.77539C2.88572 4.03575 4.32159 2.69552 6.1084 2.51953C6.30387 2.50031 6.53601 2.5 7 2.5Z" fill="#242629"/>
</svg>
