<svg width="14" height="14" viewBox="0 0 14 14" fill="none" xmlns="http://www.w3.org/2000/svg">
<path d="M3.55176 7.49951C3.74684 7.49954 3.94042 7.54384 4.11621 7.62842L4.32812 7.72998C4.86528 7.98843 5.48191 8.02854 6.04785 7.84131L6.5918 7.66162C6.85675 7.57405 7.14325 7.57404 7.4082 7.66162L7.95215 7.84131C8.5181 8.02853 9.13568 7.98847 9.67285 7.72998L9.88477 7.62842C10.0605 7.54392 10.2532 7.49952 10.4482 7.49951H10.9258C11.2427 7.49965 11.4997 7.75684 11.5 8.07373V9.67432C11.4997 10.4195 10.8956 11.0237 10.1504 11.0239H3.84961C3.10437 11.0237 2.50027 10.4195 2.5 9.67432V8.07373C2.5003 7.79632 2.69729 7.56466 2.95898 7.51123L3.07422 7.49951H3.55176ZM9.15039 5.02393C9.70236 5.02414 10.1502 5.47195 10.1504 6.02393V6.34521C10.1504 6.44553 10.0758 6.52919 9.97754 6.54932C9.88002 6.56914 9.78354 6.59555 9.68945 6.62842L9.45117 6.72705L9.23828 6.82959C8.93483 6.97542 8.58626 6.99782 8.2666 6.89209L7.72266 6.71143C7.3123 6.57571 6.8726 6.55886 6.45508 6.66064L6.27734 6.71143L5.7334 6.89209C5.45351 6.98461 5.15138 6.97919 4.87695 6.87842L4.76172 6.82861L4.5498 6.72705C4.38169 6.64615 4.20422 6.58699 4.02246 6.54932C3.9242 6.52886 3.84961 6.44462 3.84961 6.34424V6.02393C3.84982 5.47195 4.29764 5.02414 4.84961 5.02393H9.15039ZM6.83105 2.29248C6.90958 2.16864 7.09042 2.16864 7.16895 2.29248L7.63086 3.0249C7.94325 3.52103 7.58634 4.16748 7 4.16748C6.41368 4.16746 6.05678 3.52102 6.36914 3.0249L6.83105 2.29248Z" fill="#242629"/>
</svg>
