<svg width="14" height="14" viewBox="0 0 14 14" fill="none" xmlns="http://www.w3.org/2000/svg">
<path d="M7.61035 3C7.93316 3 8.09475 2.99967 8.2373 3.04883C8.36331 3.09229 8.47798 3.1636 8.57324 3.25684C8.68102 3.36239 8.75396 3.50694 8.89844 3.7959L9.25 4.5H9.33984C10.0959 4.5 10.4739 4.50034 10.7627 4.64746C11.0167 4.77689 11.2231 4.9833 11.3525 5.2373C11.4997 5.52609 11.5 5.90409 11.5 6.66016V8.84082C11.5 9.5966 11.4997 9.97495 11.3525 10.2637C11.2231 10.5175 11.0166 10.7242 10.7627 10.8535C10.4739 11.0005 10.0957 11 9.33984 11H4.66016C3.90431 11 3.52605 11.0005 3.2373 10.8535C2.98343 10.7242 2.7769 10.5175 2.64746 10.2637C2.50035 9.97495 2.5 9.5966 2.5 8.84082V6.66016C2.5 5.90409 2.50032 5.52609 2.64746 5.2373C2.77689 4.9833 2.9833 4.77689 3.2373 4.64746C3.52608 4.50034 3.90413 4.5 4.66016 4.5H4.75L5.10156 3.7959C5.24604 3.50694 5.31898 3.36239 5.42676 3.25684C5.52202 3.1636 5.63669 3.09229 5.7627 3.04883C5.90525 2.99967 6.06684 3 6.38965 3H7.61035ZM6.9502 5.2168C5.73517 5.2168 4.75 6.20197 4.75 7.41699C4.75026 8.63179 5.73533 9.61719 6.9502 9.61719C8.16495 9.61706 9.15013 8.63171 9.15039 7.41699C9.15039 6.20205 8.16511 5.21693 6.9502 5.2168ZM6.9502 6.11719C7.66805 6.11732 8.25 6.6991 8.25 7.41699C8.24974 8.13466 7.66789 8.71667 6.9502 8.7168C6.23239 8.7168 5.65065 8.13474 5.65039 7.41699C5.65039 6.69902 6.23223 6.11719 6.9502 6.11719Z" fill="#242629"/>
</svg>
