<svg width="14" height="14" viewBox="0 0 14 14" fill="none" xmlns="http://www.w3.org/2000/svg">
<path d="M4.54419 9C5.37222 9.00047 6.04419 9.67186 6.04419 10.5C6.04419 11.3281 5.37222 11.9995 4.54419 12C3.71576 12 3.04419 11.3284 3.04419 10.5C3.04419 9.67157 3.71576 9 4.54419 9ZM9.54419 9C10.3722 9.00047 11.0442 9.67186 11.0442 10.5C11.0442 11.3281 10.3722 11.9995 9.54419 12C8.71576 12 8.04419 11.3284 8.04419 10.5C8.04419 9.67157 8.71576 9 9.54419 9ZM3.00024 2C3.20213 2.00008 3.38649 2.11436 3.47681 2.29492L4.21997 3.5H11.0002C11.3413 3.5002 11.5827 3.83456 11.4749 4.1582L11.0608 6.97461C10.8565 7.58685 10.2834 7.99991 9.63794 8H4.91235C4.214 7.99986 3.60846 7.5174 3.45142 6.83691L2.48071 2.65332C2.4036 2.31914 2.65728 2 3.00024 2Z" fill="#242629"/>
</svg>
