<svg width="14" height="14" viewBox="0 0 14 14" fill="none" xmlns="http://www.w3.org/2000/svg">
<path d="M5.31055 2.07617C5.4638 1.85247 5.75738 1.77352 6.00195 1.89062L6.7627 2.25488C6.91274 2.3266 7.08728 2.32665 7.2373 2.25488L7.99902 1.89062C8.24352 1.77379 8.53628 1.85259 8.68945 2.07617L9.16699 2.77148C9.26111 2.90869 9.41222 2.99696 9.57812 3.00977L10.4189 3.07422C10.6891 3.09518 10.9048 3.30994 10.9258 3.58008L10.9902 4.42188C11.0032 4.58759 11.0905 4.73898 11.2275 4.83301L11.9238 5.30957C12.1472 5.46282 12.2263 5.75655 12.1094 6.00098L11.7451 6.7627C11.6734 6.91279 11.6733 7.08726 11.7451 7.2373L12.1094 7.99805C12.2263 8.24256 12.1474 8.53626 11.9238 8.68945L11.2275 9.16602C11.0902 9.26013 11.003 9.41213 10.9902 9.57812L10.9258 10.4189C10.9048 10.6891 10.6891 10.9039 10.4189 10.9248L9.57812 10.9902C9.41217 11.0031 9.2611 11.0903 9.16699 11.2275L8.68945 11.9238C8.53621 12.1471 8.24335 12.2251 7.99902 12.1084L7.2373 11.7441C7.0873 11.6725 6.91269 11.6724 6.7627 11.7441L6.00195 12.1084C5.75758 12.2254 5.46391 12.1471 5.31055 11.9238L4.83301 11.2275C4.73893 11.0903 4.58773 11.0031 4.42188 10.9902L3.58105 10.9248C3.31079 10.9039 3.0962 10.6892 3.0752 10.4189L3.00977 9.57812C2.99696 9.41221 2.90967 9.26014 2.77246 9.16602L2.07617 8.68945C1.85255 8.53622 1.77363 8.24257 1.89062 7.99805L2.25488 7.2373C2.32671 7.08729 2.32655 6.91276 2.25488 6.7627L1.89062 6.00098C1.77374 5.75647 1.85256 5.46276 2.07617 5.30957L2.77246 4.83301C2.9096 4.73898 2.99683 4.58764 3.00977 4.42188L3.0752 3.58008C3.09624 3.3099 3.31082 3.09508 3.58105 3.07422L4.42188 3.00977C4.58778 2.9969 4.73893 2.90875 4.83301 2.77148L5.31055 2.07617ZM9.29102 5.09277C9.06634 4.93231 8.75329 4.98436 8.59277 5.20898L6.88672 7.59766C6.71464 7.83809 6.38152 7.87179 6.16504 7.69531L6.08008 7.60742L5.40039 6.7002L5.33105 6.625C5.15714 6.47116 4.8933 6.45501 4.7002 6.59961C4.50708 6.74454 4.44864 7.00274 4.54785 7.21289L4.59961 7.2998L5.28027 8.20703L5.40137 8.34961C6.03937 9.01347 7.14834 8.9524 7.70117 8.17871L9.40723 5.79102C9.56765 5.56643 9.51542 5.25335 9.29102 5.09277Z" fill="#242629"/>
</svg>
