<svg width="14" height="14" viewBox="0 0 14 14" fill="none" xmlns="http://www.w3.org/2000/svg">
<path d="M9.83337 7.33594C10.0936 7.24433 10.3792 7.38145 10.4711 7.6416C10.5627 7.90196 10.4257 8.1875 10.1654 8.2793C9.85822 8.38758 9.53898 8.47835 9.2113 8.55469L9.974 10.8418L9.99548 10.9404C10.0235 11.1714 9.88692 11.3982 9.65759 11.4746C9.42868 11.5507 9.18308 11.4519 9.06677 11.251L9.02478 11.1582L8.21619 8.73242C7.81994 8.78126 7.4132 8.80762 6.99939 8.80762C6.58552 8.80759 6.17889 8.78033 5.78259 8.73145L4.974 11.1582C4.88661 11.4201 4.6031 11.5619 4.34119 11.4746C4.07958 11.3871 3.93763 11.1036 4.02478 10.8418L4.7865 8.55469C4.58761 8.50831 4.39117 8.45773 4.19958 8.39941L3.83337 8.2793L3.74158 8.23633C3.5425 8.11661 3.44766 7.86926 3.52771 7.6416C3.60798 7.41411 3.83675 7.28121 4.06677 7.3125L4.16541 7.33594L4.4906 7.44238C5.26093 7.67688 6.10838 7.80757 6.99939 7.80762C8.01752 7.80762 8.97888 7.63718 9.83337 7.33594ZM8.99939 2.5C9.55167 2.5 9.99939 2.94772 9.99939 3.5V4C9.99939 4.93164 9.36162 5.71131 8.49939 5.93359V6.71875C8.49939 6.8215 8.42194 6.90774 8.3197 6.91797L7.72009 6.97754C7.60245 6.9893 7.49956 6.89748 7.49939 6.7793V6H6.49939V6.7793C6.49922 6.89748 6.3973 6.9893 6.27966 6.97754L5.68005 6.91797C5.57781 6.90774 5.49939 6.8215 5.49939 6.71875V5.93359C4.63744 5.71112 3.99939 4.93144 3.99939 4V3.5C3.99939 2.94789 4.44735 2.50029 4.99939 2.5H8.99939Z" fill="#242629"/>
</svg>
