<svg width="14" height="14" viewBox="0 0 14 14" fill="none" xmlns="http://www.w3.org/2000/svg">
<path d="M4.25 9C4.66421 9 5 9.33579 5 9.75V10.25C5 10.6642 4.66421 11 4.25 11H3.75C3.33579 11 3 10.6642 3 10.25V9.75C3 9.33579 3.33579 9 3.75 9H4.25ZM7.25 5.5C7.66421 5.5 8 5.83579 8 6.25V10.25C8 10.6642 7.66421 11 7.25 11H6.75C6.33579 11 6 10.6642 6 10.25V6.25C6 5.83579 6.33579 5.5 6.75 5.5H7.25ZM10.25 3C10.6642 3 11 3.33579 11 3.75V10.25C11 10.6642 10.6642 11 10.25 11H9.75C9.33579 11 9 10.6642 9 10.25V3.75C9 3.33579 9.33579 3 9.75 3H10.25Z" fill="#242629"/>
</svg>
