<svg width="14" height="14" viewBox="0 0 14 14" fill="none" xmlns="http://www.w3.org/2000/svg">
<path d="M9 2C9.35898 2 9.65039 2.29141 9.65039 2.65039V4.5H10.5C10.7761 4.50004 11 4.72391 11 5V5.5C10.9999 6.99293 10.0442 8.31785 8.62793 8.79004L8.16992 8.94336C8.0686 8.97714 8.00012 9.07193 8 9.17871V11.2998C8 11.6864 7.6864 12 7.2998 12H6.7002C6.3136 12 6 11.6864 6 11.2998V9.17871C5.99988 9.07193 5.9314 8.97714 5.83008 8.94336L5.37207 8.79004C3.95579 8.31787 3.00003 6.99291 3 5.5V5C3 4.72386 3.22386 4.5 3.5 4.5H4.34961V2.65039C4.34961 2.29141 4.64101 2 5 2C5.35898 2 5.65039 2.29141 5.65039 2.65039V4.5H8.34961V2.65039C8.34961 2.29141 8.64102 2 9 2Z" fill="#242629"/>
</svg>
