<svg width="14" height="14" viewBox="0 0 14 14" fill="none" xmlns="http://www.w3.org/2000/svg">
<path d="M9 3C10.1046 3 11 3.89543 11 5V9C11 10.1046 10.1046 11 9 11H5C3.89543 11 3 10.1046 3 9V5C3 3.89543 3.89543 3 5 3H9ZM9.32031 5.36621C9.10827 5.18951 8.79304 5.21781 8.61621 5.42969L6.6416 7.79883C6.54749 7.91176 6.37641 7.91938 6.27246 7.81543L5.35352 6.89648C5.15825 6.70122 4.84175 6.70122 4.64648 6.89648C4.45122 7.09175 4.45122 7.40825 4.64648 7.60352L5.56543 8.52246C6.08517 9.0422 6.93959 9.0041 7.41016 8.43945L9.38379 6.07031C9.56049 5.85827 9.53219 5.54304 9.32031 5.36621Z" fill="#242629"/>
</svg>
