<svg width="14" height="14" viewBox="0 0 14 14" fill="none" xmlns="http://www.w3.org/2000/svg">
<path d="M8.5 6C8.77614 6 9 6.22386 9 6.5C9 6.77614 8.77614 7 8.5 7H8C8 8.22573 8.69273 9.34637 9.78906 9.89453L9.81836 9.90918C9.92964 9.9649 9.99994 10.0787 10 10.2031V10.3818C10 10.7232 9.72317 11 9.38184 11H4.61816C4.27684 11 4.00001 10.7232 4 10.3818V10.2031C4.00011 10.0787 4.0704 9.96488 4.18164 9.90918L4.21094 9.89453C5.30727 9.34637 6 8.22573 6 7H5.5C5.22386 7 5 6.77614 5 6.5C5 6.22386 5.22386 6 5.5 6H8.5ZM7 3C7.82843 3 8.5 3.67157 8.5 4.5C8.5 5.32843 7.82843 6 7 6C6.17157 6 5.5 5.32843 5.5 4.5C5.5 3.67157 6.17157 3 7 3Z" fill="#242629"/>
</svg>
