<svg width="14" height="14" viewBox="0 0 14 14" fill="none" xmlns="http://www.w3.org/2000/svg">
<path d="M6.77332 2.26758C6.89276 2.12667 7.10914 2.1273 7.22937 2.26758L9.6991 5.14844C9.86876 5.3468 9.84923 5.6393 9.61511 5.75488C9.36516 5.87821 8.99328 6 8.49988 6L11.1327 9.07129C11.3279 9.29907 11.2757 9.64061 11.0067 9.77344C10.4071 10.0695 9.31099 10.5 7.99988 10.5V11.5C7.99966 11.776 7.77589 12 7.49988 12H6.49988C6.22396 11.9999 6.00009 11.7759 5.99988 11.5V10.5C4.68871 10.4999 3.59263 10.0695 2.99304 9.77344C2.72407 9.64063 2.67189 9.29907 2.86707 9.07129L5.49988 6C5.01981 5.99999 4.65474 5.88448 4.40515 5.76465C4.16125 5.6474 4.14519 5.3407 4.32312 5.13672C4.96269 4.40348 6.25177 2.88357 6.77332 2.26758Z" fill="#242629"/>
</svg>
