<svg width="14" height="14" viewBox="0 0 14 14" fill="none" xmlns="http://www.w3.org/2000/svg">
<path d="M7.49707 10.667C7.85271 10.6196 8.1799 10.8699 8.22754 11.2256C8.2749 11.581 8.02525 11.9081 7.66992 11.9561C7.45084 11.9854 7.22648 12 7 12C6.88701 12 6.77436 11.9967 6.66309 11.9893L6.33105 11.9561L6.20312 11.9258C5.91758 11.8265 5.73189 11.5369 5.77344 11.2256C5.81514 10.9143 6.07046 10.6838 6.37207 10.6631L6.50391 10.667L6.75 10.6924C6.83239 10.6979 6.91606 10.7002 7 10.7002C7.1686 10.7002 7.33504 10.6887 7.49707 10.667ZM3.14551 9.12012C3.39525 8.92969 3.739 8.94773 3.9668 9.14648L4.05664 9.24219L4.21387 9.43555C4.32285 9.56011 4.44087 9.67715 4.56543 9.78613L4.75879 9.94434L4.85449 10.0342C5.05283 10.262 5.07121 10.6059 4.88086 10.8555C4.69044 11.1048 4.35407 11.1779 4.08203 11.0469L3.96973 10.9775L3.70996 10.7646C3.54167 10.6174 3.38257 10.4593 3.23535 10.291L3.02344 10.0312L2.9541 9.91895C2.82264 9.64677 2.89594 9.31069 3.14551 9.12012ZM9.94434 9.24219C10.1622 8.95712 10.5702 8.90245 10.8555 9.12012C11.1402 9.33799 11.195 9.74609 10.9775 10.0312C10.7059 10.3873 10.3873 10.7058 10.0312 10.9775C9.74608 11.1951 9.338 11.1403 9.12012 10.8555C8.90243 10.5702 8.95704 10.1622 9.24219 9.94434C9.50613 9.74292 9.74294 9.50614 9.94434 9.24219ZM2.0752 6.20312C2.17454 5.91752 2.46401 5.73173 2.77539 5.77344C3.13095 5.82132 3.38064 6.14826 3.33301 6.50391L3.30859 6.75C3.3031 6.83249 3.30079 6.91596 3.30078 7C3.30079 7.16866 3.3113 7.33498 3.33301 7.49707C3.3805 7.85265 3.1309 8.1797 2.77539 8.22754C2.41975 8.27517 2.09282 8.02546 2.04492 7.66992L2.01172 7.33789C2.00427 7.22634 2 7.11328 2 7C2.00002 6.77355 2.01559 6.55011 2.04492 6.33105L2.0752 6.20312ZM10.667 7.49707L11.9561 7.66992C11.9083 8.02532 11.581 8.27479 11.2256 8.22754C10.8698 8.17989 10.6194 7.85281 10.667 7.49707ZM11.2256 5.77344C11.5368 5.73204 11.8265 5.91766 11.9258 6.20312L11.9561 6.33105L11.9893 6.66309C11.9967 6.77444 12 6.88693 12 7C12 7.22656 11.9854 7.45076 11.9561 7.66992L11.3115 7.58301L10.667 7.49707C10.6887 7.33496 10.7002 7.16868 10.7002 7C10.7002 6.91599 10.6979 6.83246 10.6924 6.75L10.667 6.50391L10.6631 6.37207C10.6838 6.07046 10.9143 5.81514 11.2256 5.77344ZM9.12012 3.14551C9.3107 2.89601 9.64681 2.82265 9.91895 2.9541L10.0312 3.02344L10.291 3.23535C10.4593 3.38256 10.6174 3.54168 10.7646 3.70996L10.9775 3.96973L11.0469 4.08203C11.1779 4.35403 11.1047 4.69039 10.8555 4.88086C10.6059 5.07128 10.262 5.05284 10.0342 4.85449L9.94434 4.75879L9.78613 4.56543C9.67716 4.44087 9.5601 4.32285 9.43555 4.21387L9.24219 4.05664L9.14648 3.9668C8.94768 3.73894 8.92954 3.39527 9.12012 3.14551ZM4.08203 2.9541C4.35416 2.82291 4.6904 2.896 4.88086 3.14551C5.0982 3.43072 5.04364 3.83887 4.75879 4.05664C4.49481 4.25806 4.25807 4.49481 4.05664 4.75879C3.83891 5.04379 3.43078 5.09821 3.14551 4.88086C2.86021 4.66308 2.8057 4.25509 3.02344 3.96973L3.23535 3.70996C3.4563 3.45734 3.70257 3.2273 3.96973 3.02344L4.08203 2.9541ZM7 2C7.22648 2.00002 7.45084 2.01558 7.66992 2.04492C8.02535 2.09292 8.27516 2.41982 8.22754 2.77539C8.17984 3.13097 7.85266 3.38039 7.49707 3.33301C7.33506 3.31131 7.16858 3.3008 7 3.30078C6.83162 3.3008 6.66574 3.31136 6.50391 3.33301L6.37207 3.33789C6.07054 3.31714 5.81525 3.08658 5.77344 2.77539C5.72578 2.4196 5.97528 2.09261 6.33105 2.04492L6.66309 2.01172C6.77437 2.0043 6.887 2.00001 7 2Z" fill="#242629"/>
</svg>
