<svg width="14" height="14" viewBox="0 0 14 14" fill="none" xmlns="http://www.w3.org/2000/svg">
<path d="M6.99902 1.99902C9.76028 1.99902 11.9988 4.2388 11.999 7C11.9988 9.7612 9.76028 12 6.99902 12C4.23821 11.9995 1.99929 9.76087 1.99902 7C1.99929 4.23913 4.23821 1.99955 6.99902 1.99902ZM4.88477 10.0352C5.48402 10.4536 6.21268 10.7 6.99902 10.7002C9.04231 10.7002 10.699 9.04323 10.6992 7C10.6991 6.21355 10.4527 5.48508 10.0342 4.88574L4.88477 10.0352ZM6.99902 3.30078C4.95618 3.30131 3.30007 4.9571 3.2998 7C3.29991 7.78652 3.54639 8.51575 3.96484 9.11523L9.11426 3.96582C8.51466 3.5473 7.78571 3.30078 6.99902 3.30078Z" fill="#242629"/>
</svg>
