<svg width="14" height="14" viewBox="0 0 14 14" fill="none" xmlns="http://www.w3.org/2000/svg">
<path d="M7 1.99902C9.7612 1.99929 12 4.23972 12 7.00098C11.9995 9.76179 9.76087 12.0007 7 12.001C4.23907 12.0008 1.99955 9.76183 1.99902 7.00098C1.99902 4.23967 4.23874 1.99922 7 1.99902ZM7 4.00098C6.72403 4.00117 6.5 4.22496 6.5 4.50098V7.00098C6.50032 7.18999 6.60729 7.36366 6.77637 7.44824L8.77637 8.44824L8.87109 8.48438C9.09535 8.54421 9.33912 8.4401 9.44727 8.22461C9.57069 7.97777 9.4703 7.67734 9.22363 7.55371L7.5 6.69141V4.50098C7.5 4.22496 7.27597 4.00117 7 4.00098Z" fill="#242629"/>
</svg>
