<svg width="14" height="14" viewBox="0 0 14 14" fill="none" xmlns="http://www.w3.org/2000/svg">
<path d="M9.07031 11.082C9.03017 11.3229 8.82127 11.4997 8.57715 11.5H5.42383C5.17946 11.5 4.97086 11.3231 4.93066 11.082L4 5.5H10L9.07031 11.082ZM6.98828 7C6.34414 7.00021 5.82227 7.50381 5.82227 8.125C5.82227 8.74619 6.34414 9.24979 6.98828 9.25C7.63246 9.24983 8.15527 8.74622 8.15527 8.125C8.15527 7.50378 7.63246 7.00017 6.98828 7ZM8.49609 2.5C8.69813 2.5 8.79962 2.50024 8.89648 2.51953C8.98234 2.53668 9.06606 2.56469 9.14453 2.60352C9.18875 2.62542 9.23124 2.65221 9.28223 2.68848L9.47363 2.83301L10.207 3.39844C10.3037 3.47297 10.3519 3.51041 10.3887 3.55566C10.436 3.61404 10.47 3.68271 10.4873 3.75586C10.5007 3.81255 10.5 3.87409 10.5 3.99609C10.5 4.23276 10.5002 4.35116 10.4609 4.44434C10.4103 4.56438 10.3144 4.66027 10.1943 4.71094C10.1012 4.75011 9.98266 4.75 9.74609 4.75H4.25488C4.01792 4.75 3.89889 4.75029 3.80566 4.71094C3.68568 4.66028 3.5907 4.56432 3.54004 4.44434C3.50071 4.35115 3.5 4.23283 3.5 3.99609C3.5 3.87403 3.50029 3.81258 3.51367 3.75586C3.53098 3.68272 3.56496 3.61404 3.6123 3.55566C3.63065 3.53309 3.65194 3.51255 3.68066 3.48828L3.79395 3.39844L4.52637 2.83301C4.68653 2.70945 4.76686 2.64741 4.85547 2.60352C4.93402 2.56461 5.01756 2.53671 5.10352 2.51953C5.20047 2.50017 5.3017 2.5 5.50391 2.5H8.49609Z" fill="#242629"/>
</svg>
