<svg width="14" height="14" viewBox="0 0 14 14" fill="none" xmlns="http://www.w3.org/2000/svg">
<path d="M7.58276 1.5C7.82441 1.50001 8.03174 1.67338 8.07495 1.91113L8.25073 2.88086C8.31568 3.23833 8.72828 3.40966 9.0271 3.20312L9.83862 2.6416C10.0372 2.50425 10.3055 2.52865 10.4763 2.69922L11.3005 3.52344C11.4713 3.69425 11.4955 3.96249 11.3582 4.16113L10.7966 4.97168C10.5897 5.27035 10.7605 5.68277 11.1179 5.74805L12.0896 5.9248C12.3272 5.96812 12.4997 6.17551 12.4998 6.41699V7.58301C12.4996 7.82447 12.3272 8.03094 12.0896 8.07422L11.1179 8.25098C10.7605 8.31609 10.5899 8.7286 10.7966 9.02734L11.3591 9.83984C11.4965 10.0385 11.4723 10.3067 11.3015 10.4775L10.4763 11.3018C10.3054 11.4724 10.0372 11.4968 9.83862 11.3594L9.02612 10.7969C8.72727 10.5907 8.31455 10.7617 8.24976 11.1191L8.07397 12.0889C8.03092 12.3267 7.82441 12.4999 7.58276 12.5H6.41675C6.17539 12.4998 5.9689 12.3273 5.92554 12.0898L5.7478 11.1191C5.68259 10.7616 5.27015 10.5908 4.97144 10.7979L4.16187 11.3594C3.96319 11.497 3.69409 11.4726 3.52319 11.3018L2.698 10.4766C2.52751 10.3058 2.50323 10.0374 2.64038 9.83887L3.2019 9.02734C3.4086 8.72863 3.23788 8.31621 2.88062 8.25098L1.91089 8.07422C1.67321 8.03102 1.49987 7.82456 1.49976 7.58301V6.41699C1.49983 6.17563 1.67252 5.96827 1.90991 5.9248L2.88159 5.74805C3.23889 5.68274 3.4097 5.27035 3.20288 4.97168L2.64233 4.16113C2.50482 3.96246 2.52909 3.6943 2.69995 3.52344L3.52319 2.69922C3.69401 2.5284 3.96319 2.50416 4.16187 2.6416L4.97144 3.20215C5.27019 3.40887 5.68267 3.23827 5.7478 2.88086L5.92554 1.91016C5.96896 1.67278 6.17544 1.50016 6.41675 1.5H7.58276ZM6.99976 5C5.89535 5.00016 4.9998 5.89556 4.99976 7C4.99976 8.10447 5.89532 8.99984 6.99976 9C8.10433 9 8.99976 8.10457 8.99976 7C8.99972 5.89546 8.1043 5 6.99976 5Z" fill="#242629"/>
</svg>
