<svg width="14" height="14" viewBox="0 0 14 14" fill="none" xmlns="http://www.w3.org/2000/svg">
<path d="M9.09961 3.5C9.93932 3.5 10.3598 3.49981 10.6807 3.66309C10.9629 3.8069 11.1931 4.03709 11.3369 4.31934C11.5002 4.64015 11.5 5.06067 11.5 5.90039V8.09961C11.5 8.93932 11.5002 9.35985 11.3369 9.68066C11.1931 9.96291 10.9629 10.1931 10.6807 10.3369C10.4401 10.4594 10.1436 10.4894 9.65625 10.4971L9.09961 10.5H4.90039C4.06067 10.5 3.64015 10.5002 3.31934 10.3369C3.03709 10.1931 2.8069 9.96291 2.66309 9.68066C2.49981 9.35985 2.5 8.93932 2.5 8.09961V5.90039C2.5 5.06067 2.49981 4.64015 2.66309 4.31934C2.8069 4.03709 3.03709 3.8069 3.31934 3.66309C3.64015 3.49981 4.06068 3.5 4.90039 3.5H9.09961ZM4.77539 5.08203C4.58131 4.95387 4.31735 4.97562 4.14648 5.14648C3.97562 5.31735 3.95387 5.58131 4.08203 5.77539L4.14648 5.85352L5.29297 7L4.14648 8.14648C3.95122 8.34175 3.95122 8.65825 4.14648 8.85352C4.34175 9.04878 4.65825 9.04878 4.85352 8.85352L6.35352 7.35352L6.41797 7.27539C6.52783 7.10903 6.52783 6.89097 6.41797 6.72461L6.35352 6.64648L4.85352 5.14648L4.77539 5.08203ZM8 8C7.72386 8 7.5 8.22386 7.5 8.5C7.5 8.77614 7.72386 9 8 9H9.5C9.77614 9 10 8.77614 10 8.5C10 8.22386 9.77614 8 9.5 8H8Z" fill="#242629"/>
</svg>
