<svg width="14" height="14" viewBox="0 0 14 14" fill="none" xmlns="http://www.w3.org/2000/svg">
<path d="M7 2C9.76142 2 12 4.23858 12 7C12 9.76142 9.76142 12 7 12C6.05126 12 5.16393 11.7362 4.4082 11.2773L2.88965 11.7334C2.50825 11.8478 2.15218 11.4918 2.2666 11.1104L2.72168 9.59082C2.2632 8.83534 2 7.94826 2 7C2 4.23858 4.23858 2 7 2ZM8.74609 5.03027C8.39254 4.96046 8.0253 5.01341 7.70703 5.18066C7.38871 5.34801 7.13871 5.61959 7 5.94824C6.86129 5.61959 6.61129 5.34801 6.29297 5.18066C5.9747 5.01341 5.60746 4.96046 5.25391 5.03027C4.90041 5.10012 4.5821 5.28825 4.35352 5.56348C4.1249 5.83879 4.00002 6.18403 4 6.54004C4 7.85516 5.27921 9.01877 6.16699 9.66797C6.39463 9.83441 6.50888 9.91823 6.71777 9.97168C6.86571 10.0095 7.13429 10.0095 7.28223 9.97168C7.49112 9.91823 7.60537 9.83441 7.83301 9.66797C8.72079 9.01877 10 7.85516 10 6.54004C9.99998 6.18403 9.8751 5.83879 9.64648 5.56348C9.4179 5.28825 9.09959 5.10012 8.74609 5.03027Z" fill="#242629"/>
</svg>
