<svg width="14" height="14" viewBox="0 0 14 14" fill="none" xmlns="http://www.w3.org/2000/svg">
<path d="M7 2C9.76142 2 12 4.23858 12 7C12 9.76142 9.76142 12 7 12C4.23858 12 2 9.76142 2 7C2 4.23858 4.23858 2 7 2ZM9.5166 4.24414L6.4502 4.95117C5.70501 5.12315 5.12315 5.70501 4.95117 6.4502L4.24414 9.5166C4.21106 9.66049 4.33951 9.78894 4.4834 9.75586L7.5498 9.04883C8.29499 8.87685 8.87685 8.29499 9.04883 7.5498L9.75586 4.4834C9.78894 4.33951 9.66049 4.21106 9.5166 4.24414ZM7 6C7.55228 6 8 6.44772 8 7C8 7.55228 7.55228 8 7 8C6.44772 8 6 7.55228 6 7C6 6.44772 6.44772 6 7 6Z" fill="#242629"/>
</svg>
