<svg width="14" height="14" viewBox="0 0 14 14" fill="none" xmlns="http://www.w3.org/2000/svg">
<path d="M11.4834 8C11.4655 8.29389 11.4275 8.50269 11.3369 8.68066C11.1931 8.96291 10.9629 9.1931 10.6807 9.33691C10.3599 9.50019 9.93932 9.5 9.09961 9.5H8V9.71484C8 9.88933 8.09882 10.0489 8.25488 10.127C8.68955 10.3443 8.53475 10.9998 8.04883 11H5.95117C5.46525 10.9998 5.31045 10.3443 5.74512 10.127C5.90118 10.0489 6 9.88933 6 9.71484V9.5H4.90039C4.06064 9.5 3.64015 9.50021 3.31934 9.33691C3.03709 9.19311 2.8069 8.9629 2.66309 8.68066C2.57252 8.5027 2.53451 8.29389 2.5166 8H11.4834ZM9.09961 3C9.93932 3 10.3599 2.99981 10.6807 3.16309C10.9629 3.3069 11.1931 3.53709 11.3369 3.81934C11.5002 4.14015 11.5 4.56068 11.5 5.40039V7H2.5V5.40039C2.49999 4.56067 2.49981 4.14015 2.66309 3.81934C2.80689 3.53709 3.03709 3.3069 3.31934 3.16309C3.64015 2.9998 4.06067 3 4.90039 3H9.09961Z" fill="#242629"/>
</svg>
