<svg width="14" height="14" viewBox="0 0 14 14" fill="none" xmlns="http://www.w3.org/2000/svg">
<path d="M9.87915 9C10.0769 9.00006 10.2561 9.11702 10.3362 9.29785L10.9622 10.7109C11.1084 11.0415 10.8656 11.4131 10.5042 11.4131H3.50024C3.13903 11.4128 2.89706 11.0414 3.04321 10.7109L3.66821 9.29785C3.74823 9.11705 3.92755 9.00019 4.12524 9H9.87915ZM8.552 6C8.74975 6.0001 8.92897 6.11703 9.00903 6.29785L9.45142 7.29785C9.59761 7.62833 9.3557 7.99983 8.99438 8H5.01099C4.64978 7.99969 4.40778 7.62827 4.55396 7.29785L4.99634 6.29785C5.07636 6.11705 5.25567 6.00018 5.45337 6H8.552ZM6.54517 2.79785C6.72092 2.40151 7.28342 2.40156 7.45923 2.79785L8.12329 4.29785C8.26952 4.62831 8.02755 4.99977 7.66626 5H6.33911C5.97763 5 5.73483 4.62841 5.8811 4.29785L6.54517 2.79785Z" fill="#242629"/>
</svg>
