<svg width="14" height="14" viewBox="0 0 14 14" fill="none" xmlns="http://www.w3.org/2000/svg">
<path d="M11.5 8.09961C11.5 8.93932 11.5002 9.35985 11.3369 9.68066C11.1931 9.96291 10.9629 10.1931 10.6807 10.3369C10.4401 10.4594 10.1436 10.4894 9.65625 10.4971L9.09961 10.5H4.90039C4.06066 10.5 3.64015 10.5002 3.31934 10.3369C3.03709 10.1931 2.8069 9.96291 2.66309 9.68066C2.49981 9.35985 2.5 8.93931 2.5 8.09961V6.5H11.5V8.09961ZM4 7.5C3.72386 7.5 3.5 7.72386 3.5 8C3.5 8.27614 3.72386 8.5 4 8.5H5C5.27614 8.5 5.5 8.27614 5.5 8C5.5 7.72386 5.27614 7.5 5 7.5H4ZM9.09961 3.5C9.93933 3.5 10.3598 3.49981 10.6807 3.66309C10.9629 3.8069 11.1931 4.03709 11.3369 4.31934C11.4719 4.58462 11.494 4.91785 11.498 5.5H2.50195C2.506 4.91785 2.52807 4.58462 2.66309 4.31934C2.8069 4.03709 3.03709 3.8069 3.31934 3.66309C3.64015 3.49981 4.06067 3.5 4.90039 3.5H9.09961Z" fill="#242629"/>
</svg>
