<svg width="14" height="14" viewBox="0 0 14 14" fill="none" xmlns="http://www.w3.org/2000/svg">
<path d="M10.0557 10C10.1921 10 10.2882 10.1342 10.2451 10.2637L10.0459 10.8633C10.0187 10.945 9.94158 11 9.85547 11H4.14453C4.05842 11 3.98131 10.945 3.9541 10.8633L3.75488 10.2637C3.71177 10.1342 3.80788 10 3.94434 10H10.0557ZM7 3C7.55228 3 8 3.44772 8 4C8 4.30483 7.86269 4.57655 7.64746 4.75977C7.61642 4.78618 7.59868 4.82574 7.60352 4.86621C7.7453 6.04725 8.83898 6.77285 9.90234 6.60449C10.0339 6.58351 10.0887 6.43159 10.0479 6.30469C10.017 6.20863 10 6.10633 10 6C10 5.44775 10.4478 5.00006 11 5C11.5523 5 12 5.44772 12 6C12 6.39357 11.772 6.73253 11.4414 6.89551C11.3876 6.92205 11.3432 6.9665 11.3242 7.02344L10.7119 8.86328C10.6847 8.94496 10.6076 9 10.5215 9H3.47754C3.39144 9 3.31432 8.94496 3.28711 8.86328L2.6748 7.02344C2.65584 6.96653 2.6114 6.92208 2.55762 6.89551C2.22748 6.73231 2 6.39321 2 6C2 5.44775 2.44777 5.00006 3 5C3.55228 5 4 5.44772 4 6C4 6.10638 3.98324 6.20872 3.95215 6.30469C3.91102 6.43149 3.96511 6.58345 4.09668 6.60449C5.16035 6.77343 6.25465 6.04762 6.39648 4.86621C6.40072 4.82564 6.3826 4.78623 6.35156 4.75977C6.13675 4.57649 6 4.30451 6 4C6 3.44775 6.44777 3.00006 7 3Z" fill="#242629"/>
</svg>
