<svg width="14" height="14" viewBox="0 0 14 14" fill="none" xmlns="http://www.w3.org/2000/svg">
<path d="M2.5 5.47314C2.5 5.23414 2.76354 5.08803 2.96582 5.21533L6.20117 7.25146C6.34837 7.3441 6.43743 7.50627 6.4375 7.68018V11.5288C6.4375 11.7643 6.18099 11.9107 5.97852 11.7905L3.24414 10.1675C2.78308 9.89389 2.5 9.39696 2.5 8.86084V5.47314ZM11.0342 5.21533C11.2365 5.08802 11.5 5.23414 11.5 5.47314V8.86084C11.5 9.39695 11.2169 9.89389 10.7559 10.1675L8.02148 11.7905C7.81901 11.9106 7.5625 11.7642 7.5625 11.5288V7.68018C7.56257 7.50628 7.65166 7.34411 7.79883 7.25146L11.0342 5.21533ZM6.18457 2.37549C6.65426 2.10451 7.23344 2.10451 7.70312 2.37549L10.4092 3.93701C10.6084 4.05223 10.6122 4.33817 10.416 4.4585L7.20801 6.42139C7.04584 6.52062 6.84186 6.5206 6.67969 6.42139L3.47168 4.4585C3.27539 4.33819 3.27918 4.0522 3.47852 3.93701L6.18457 2.37549Z" fill="#242629"/>
</svg>
