<svg width="14" height="14" viewBox="0 0 14 14" fill="none" xmlns="http://www.w3.org/2000/svg">
<path d="M10.1025 8.69727C10.2344 8.53255 10.5 8.62591 10.5 8.83691V10.002C10.4994 10.8302 8.93262 11.502 7 11.502C5.06738 11.502 3.50062 10.8302 3.5 10.002V8.83691C3.5 8.62591 3.76558 8.53255 3.89746 8.69727C4.48238 9.17562 5.65247 9.50195 7 9.50195C8.34753 9.50195 9.51762 9.17562 10.1025 8.69727ZM10.1025 5.69727C10.2344 5.53255 10.5 5.62591 10.5 5.83691V7.00195C10.4994 7.83016 8.93262 8.50195 7 8.50195C5.06738 8.50195 3.50062 7.83016 3.5 7.00195V5.83691C3.5 5.62591 3.76558 5.53255 3.89746 5.69727C4.48238 6.17562 5.65247 6.50195 7 6.50195C8.34753 6.50195 9.51762 6.17562 10.1025 5.69727ZM7 2.50098C8.933 2.50098 10.5 3.17353 10.5 4.00195C10.4994 4.83016 8.93262 5.50195 7 5.50195C5.06738 5.50195 3.50062 4.83016 3.5 4.00195C3.5 3.17353 5.067 2.50098 7 2.50098Z" fill="#242629"/>
</svg>
