<svg width="14" height="14" viewBox="0 0 14 14" fill="none" xmlns="http://www.w3.org/2000/svg">
<path d="M7 2C9.76142 2 12 4.23858 12 7C12 9.76142 9.76142 12 7 12C4.23858 12 2 9.76142 2 7C2 4.23858 4.23858 2 7 2ZM7 3.40039C6.75147 3.40039 6.5498 3.60206 6.5498 3.85059V4.04102C5.61197 4.21743 5.03299 4.94062 5.00098 5.73047C4.98298 6.17763 5.14561 6.63209 5.50293 6.97168C5.86109 7.31199 6.37493 7.5 7 7.5C7.42486 7.5 7.67339 7.62452 7.80859 7.75293C7.94438 7.88195 8.00622 8.05285 7.99902 8.23047C7.98496 8.57092 7.69685 9 7 9C6.66882 9 6.36699 8.87621 6.17969 8.66699C5.99555 8.4612 5.67942 8.44379 5.47363 8.62793C5.26793 8.81208 5.25046 9.12823 5.43457 9.33398C5.73532 9.66995 6.1353 9.87158 6.5498 9.95508V10.1504C6.54988 10.3989 6.75152 10.6006 7 10.6006C7.24848 10.6006 7.45012 10.3989 7.4502 10.1504V9.95898C8.38798 9.78254 8.96701 9.06033 8.99902 8.27051C9.01716 7.82313 8.85463 7.36805 8.49707 7.02832C8.13891 6.68807 7.62501 6.5 7 6.5C6.57505 6.5 6.32659 6.37551 6.19141 6.24707C6.05572 6.11807 5.99378 5.94806 6.00098 5.77051C6.01478 5.42999 6.30282 5.00001 7 5C7.34184 5 7.65189 5.13242 7.83789 5.35352C8.01572 5.56443 8.33082 5.59169 8.54199 5.41406C8.7533 5.23629 8.78031 4.9203 8.60254 4.70898C8.29824 4.34743 7.88193 4.13189 7.4502 4.04492V3.85059C7.4502 3.63316 7.29583 3.45117 7.09082 3.40918L7 3.40039Z" fill="#242629"/>
</svg>
