<svg width="14" height="14" viewBox="0 0 14 14" fill="none" xmlns="http://www.w3.org/2000/svg">
<path d="M7.10352 2.5C7.49501 2.5 7.69128 2.50018 7.87402 2.54688C8.03581 2.58826 8.18975 2.65602 8.3291 2.74805C8.48646 2.85198 8.61787 2.99728 8.88086 3.28711L9.87695 4.38477C10.1072 4.63851 10.2226 4.76632 10.3047 4.91113C10.3774 5.03941 10.4315 5.17744 10.4639 5.32129C10.5004 5.48372 10.5 5.65542 10.5 5.99805V9.09961C10.5 9.93932 10.5002 10.3599 10.3369 10.6807C10.1931 10.9629 9.96291 11.1931 9.68066 11.3369C9.35985 11.5002 8.93932 11.5 8.09961 11.5H5.90039C5.06066 11.5 4.64015 11.5002 4.31934 11.3369C4.03709 11.1931 3.8069 10.9629 3.66309 10.6807C3.49982 10.3599 3.5 9.939 3.5 9.09863V4.90137C3.5 4.06102 3.49981 3.64015 3.66309 3.31934C3.8069 3.03709 4.03709 2.8069 4.31934 2.66309C4.64015 2.49981 5.06068 2.5 5.90039 2.5H7.10352ZM7.5 3.5C7.22386 3.5 7 3.72386 7 4V4.0791C6.99999 4.3147 6.99977 4.52092 7.01367 4.69141C7.02845 4.87231 7.06151 5.05695 7.15234 5.23535C7.28657 5.49878 7.50122 5.71343 7.76465 5.84766C7.94305 5.93849 8.12769 5.97155 8.30859 5.98633C8.47908 6.00023 8.6853 6.00001 8.9209 6H9C9.27614 6 9.5 5.77614 9.5 5.5C9.5 5.22386 9.27614 5 9 5H8.94043C8.68018 5 8.51464 4.99947 8.38965 4.98926C8.27087 4.97955 8.23288 4.96324 8.21875 4.95605C8.14349 4.91771 8.08229 4.85651 8.04395 4.78125C8.03676 4.76712 8.02045 4.72913 8.01074 4.61035C8.00053 4.48536 8 4.31982 8 4.05957V4C8 3.72386 7.77614 3.5 7.5 3.5Z" fill="#242629"/>
</svg>
