<svg width="14" height="14" viewBox="0 0 14 14" fill="none" xmlns="http://www.w3.org/2000/svg">
<path d="M4.71924 2.01221C6.47832 2.17363 7.8029 3.94968 8.30713 5.36279C8.33635 5.44424 8.41309 5.50152 8.49854 5.48779C8.93794 5.41701 9.61611 5.04665 10.0806 4.37646C10.1778 4.23602 10.4034 4.24431 10.4644 4.40381C12.0998 8.7073 9.72594 12 6.89404 12.0005C3.97408 12.0005 2.75405 9.48011 3.00049 8.00049C3.48965 5.06593 5.41367 5.95819 4.52393 2.25439C4.49352 2.1272 4.58897 2.00028 4.71924 2.01221ZM6.00049 7.50049C6.00049 7.40168 5.89449 7.33061 5.81494 7.38916C5.32085 7.75332 5.00049 8.33962 5.00049 9.00049C5.00065 10.1049 5.89602 11.0005 7.00049 11.0005C8.10471 11.0002 9.00032 10.1047 9.00049 9.00049C9.00049 8.94465 8.99823 8.88913 8.99365 8.83447C8.97954 8.6658 8.97198 8.58148 8.92822 8.53174C8.88791 8.48616 8.8377 8.46292 8.77686 8.46338C8.71052 8.46389 8.60825 8.54185 8.40381 8.69678C8.15276 8.88703 7.8398 9.00037 7.50049 9.00049C6.67216 9.00049 6.00065 8.32878 6.00049 7.50049Z" fill="#242629"/>
</svg>
