<svg width="14" height="14" viewBox="0 0 14 14" fill="none" xmlns="http://www.w3.org/2000/svg">
<path d="M4 2.5C4.27614 2.5 4.5 2.72386 4.5 3V3.57812C4.56186 3.54839 4.62668 3.51899 4.69434 3.49121C5.32939 3.23047 6.23314 3.07688 7.2168 3.5498C7.92367 3.88957 8.56266 3.88768 9.02637 3.80371C9.25957 3.76146 9.448 3.69875 9.5752 3.64746C9.63843 3.62196 9.68605 3.59975 9.71582 3.58496C9.73068 3.57758 9.74151 3.57136 9.74707 3.56836L9.75098 3.56641C9.90512 3.47787 10.0948 3.47782 10.249 3.56641C10.4041 3.65562 10.5 3.8211 10.5 4V8.5C10.5 8.58125 10.4803 8.66152 10.4424 8.7334L10 8.5C10.4082 8.71518 10.4393 8.73241 10.4414 8.73438L10.4404 8.73633L10.4395 8.73926C10.4383 8.74133 10.4368 8.74393 10.4355 8.74609C10.4332 8.75024 10.4304 8.75435 10.4277 8.75879C10.4223 8.76793 10.4161 8.77789 10.4092 8.78809C10.3951 8.80877 10.3779 8.83179 10.3574 8.85547C10.3162 8.90299 10.262 8.9535 10.1924 9.00293C10.0519 9.1025 9.85678 9.19114 9.58984 9.24512C9.06506 9.3512 8.23114 9.33258 6.87598 8.98438C5.58955 8.6538 4.92309 8.67175 4.6084 8.73535C4.56521 8.74408 4.52931 8.75352 4.5 8.7627V11C4.5 11.2761 4.27614 11.5 4 11.5C3.72386 11.5 3.5 11.2761 3.5 11V3C3.5 2.72386 3.72386 2.5 4 2.5Z" fill="#242629"/>
</svg>
