<svg width="14" height="14" viewBox="0 0 14 14" fill="none" xmlns="http://www.w3.org/2000/svg">
<path d="M9.49231 2.50977C9.72031 2.55627 9.89172 2.75827 9.89172 3C9.89172 3.27612 9.66784 3.49997 9.39172 3.5H9.20032C9.08986 3.5 9.00012 3.58974 9.00012 3.7002V6.19336C9.00015 6.24236 9.01832 6.28958 9.0509 6.32617L11.1417 8.66797C12.2921 9.95676 11.3772 11.9999 9.64954 12H4.30286C2.58522 11.9999 1.66677 9.97701 2.797 8.68359L4.95129 6.21875C4.98304 6.18233 5.00012 6.13524 5.00012 6.08691V3.7002C5.00012 3.58974 4.91038 3.5 4.79993 3.5H4.50012C4.22402 3.49995 4.00012 3.27611 4.00012 3C4.00012 2.72389 4.22402 2.50005 4.50012 2.5H9.39172L9.49231 2.50977ZM6.20032 3.5C6.08986 3.5 6.00012 3.58974 6.00012 3.7002V5.97461C6.00012 6.33748 5.86871 6.68862 5.63 6.96191L4.35657 8.41699C4.25623 8.53166 4.31719 8.7119 4.4679 8.73438C6.23523 8.99784 7.28703 8.18927 8.89368 8.21191C9.07858 8.21444 9.19358 7.98857 9.07043 7.85059L8.38098 7.07812C8.13562 6.80326 8.00012 6.44755 8.00012 6.0791V3.7002C8.00012 3.58974 7.91038 3.5 7.79993 3.5H6.20032Z" fill="#242629"/>
</svg>
