<svg width="14" height="14" viewBox="0 0 14 14" fill="none" xmlns="http://www.w3.org/2000/svg">
<path d="M4.58594 3C4.8511 3.00004 5.10547 3.10547 5.29297 3.29297L5.70703 3.70703C5.89453 3.89453 6.1489 3.99996 6.41406 4H10C10.5523 4 11 4.44772 11 5H5.65234C4.97288 5.00003 4.3783 5.4568 4.20312 6.11328L3.43555 9.26562C3.33673 9.63617 3.6165 10 4 10C4.26047 9.99999 4.48981 9.82752 4.56152 9.57715L5.39648 6.3623C5.4579 6.1479 5.65391 6.00009 5.87695 6H11.5283C12.0059 6 12.344 6.4678 12.1934 6.9209L11.2275 10.3164C11.0914 10.7246 10.7096 11 10.2793 11H4C3.17157 11 2.5 10.3284 2.5 9.5V4C2.5 3.44772 2.94772 3 3.5 3H4.58594Z" fill="#242629"/>
</svg>
