<svg width="14" height="14" viewBox="0 0 14 14" fill="none" xmlns="http://www.w3.org/2000/svg">
<path d="M11.5 6.5C11.7761 6.5 12 6.72386 12 7C12 8.79141 10.8537 10.3816 9.1543 10.9482L9 11C9 11.5523 8.55228 12 8 12H6C5.44772 12 5 11.5523 5 11L4.8457 10.9482C3.14631 10.3816 2 8.79141 2 7C2 6.72386 2.22386 6.5 2.5 6.5H11.5ZM6 2.5C6.92599 2.5 7.73202 3.00482 8.16406 3.75293C8.4028 3.59258 8.6908 3.5 9 3.5C9.82843 3.5 10.5 4.17157 10.5 5C10.5 5.1755 10.4685 5.34347 10.4131 5.5H3.5498C3.51702 5.33846 3.5 5.17122 3.5 5C3.5 3.61929 4.61929 2.5 6 2.5Z" fill="#242629"/>
</svg>
