<svg width="14" height="14" viewBox="0 0 14 14" fill="none" xmlns="http://www.w3.org/2000/svg">
<path d="M8.65283 2.39209C9.3306 2.37311 9.92481 2.43583 10.3491 2.50244C10.5615 2.5358 10.7332 2.57039 10.853 2.59717C10.9128 2.61054 10.9607 2.62205 10.9937 2.63037L11.0317 2.64014L11.0435 2.64307L11.0454 2.64404H11.0474L11.0503 2.64502C11.1997 2.68723 11.3129 2.80019 11.355 2.94971V2.95361L11.356 2.95654L11.3589 2.96729L11.3687 3.00635C11.377 3.03928 11.3885 3.08631 11.4019 3.146C11.4286 3.26579 11.4642 3.43731 11.4976 3.6499C11.5642 4.07416 11.6259 4.66842 11.6069 5.34619C11.5693 6.68832 11.209 8.44728 9.82764 9.82861C8.44638 11.2095 6.68815 11.5694 5.34619 11.6069C4.66846 11.6259 4.07414 11.5642 3.6499 11.4976C3.43734 11.4642 3.26578 11.4286 3.146 11.4019C3.08616 11.3885 3.03831 11.3779 3.00537 11.3696L2.96729 11.3589L2.95557 11.356L2.95361 11.355H2.95264C2.80271 11.313 2.68819 11.1991 2.646 11.0493L2.64307 11.0435L2.64014 11.0317L2.63037 10.9937C2.62205 10.9607 2.61056 10.9129 2.59717 10.853C2.57039 10.7332 2.53581 10.5616 2.50244 10.3491C2.43582 9.92481 2.37311 9.33066 2.39209 8.65283C2.4297 7.31075 2.79019 5.55265 4.17139 4.17139C5.55262 2.79018 7.31075 2.42971 8.65283 2.39209ZM5.35303 7.4751C5.15775 7.28008 4.84118 7.27992 4.646 7.4751C4.45112 7.6703 4.45108 7.98695 4.646 8.18213L5.68604 9.22217L5.76416 9.28662C5.95809 9.41448 6.22228 9.39266 6.39307 9.22217C6.56381 9.05143 6.58538 8.7873 6.45752 8.59326L6.39307 8.51514L5.35303 7.4751ZM6.76709 6.06104C6.57181 5.86602 6.25524 5.86585 6.06006 6.06104C5.86534 6.25625 5.86519 6.57294 6.06006 6.76807L7.1001 7.80811L7.17822 7.87158C7.37211 7.99951 7.6363 7.9785 7.80713 7.80811C7.97794 7.63729 7.99962 7.37229 7.87158 7.17822L7.80713 7.10107L6.76709 6.06104ZM8.18213 4.64697C7.98686 4.45187 7.67031 4.45177 7.4751 4.64697C7.27999 4.84219 7.28003 5.15876 7.4751 5.354L8.51416 6.39404L8.59229 6.45752C8.78613 6.58541 9.05036 6.56433 9.22119 6.39404C9.392 6.22323 9.41368 5.95822 9.28564 5.76416L9.22119 5.68604L8.18213 4.64697Z" fill="#242629"/>
</svg>
