<svg width="14" height="14" viewBox="0 0 14 14" fill="none" xmlns="http://www.w3.org/2000/svg">
<path d="M4.7207 3C4.87056 3.00004 5.00916 3.07415 5.09277 3.19531L5.22168 3.41406C5.47257 3.77775 5.88907 4 6.33887 4H7.66113C8.11089 4 8.52742 3.7777 8.77832 3.41406L8.90723 3.19531C8.9908 3.07415 9.12947 3.0001 9.2793 3H9.7002C9.98023 3 10.1206 3.00019 10.2275 3.05469C10.3215 3.10264 10.3974 3.17947 10.4453 3.27344C10.4997 3.38035 10.5 3.52007 10.5 3.7998V9.09961C10.5 9.93927 10.5002 10.3599 10.3369 10.6807C10.1931 10.9629 9.9629 11.1931 9.68066 11.3369C9.35985 11.5002 8.93932 11.5 8.09961 11.5H5.90039C5.0607 11.5 4.64015 11.5002 4.31934 11.3369C4.03709 11.1931 3.80689 10.9629 3.66309 10.6807C3.49982 10.3599 3.49997 9.93926 3.5 9.09863V3.80078C3.5 3.52054 3.5004 3.3803 3.55469 3.27344C3.60262 3.17936 3.67936 3.10262 3.77344 3.05469C3.88033 3.00027 4.02013 3 4.2998 3H4.7207ZM5.5 7.84961C5.08591 7.84961 4.7502 8.18556 4.75 8.59961C4.75 9.01382 5.08579 9.34961 5.5 9.34961C5.9142 9.34959 6.25 9.01381 6.25 8.59961C6.2498 8.18557 5.91408 7.84963 5.5 7.84961ZM7.5 8C7.22386 8 7 8.22386 7 8.5C7 8.77614 7.22386 9 7.5 9H8.5C8.77613 8.99998 9 8.77613 9 8.5C9 8.22387 8.77613 8.00002 8.5 8H7.5ZM5.5 5.75C5.08579 5.75 4.75 6.08579 4.75 6.5C4.75 6.91421 5.08579 7.25 5.5 7.25C5.9142 7.24998 6.25 6.9142 6.25 6.5C6.25 6.0858 5.9142 5.75002 5.5 5.75ZM7.5 6C7.22386 6 7 6.22386 7 6.5C7 6.77614 7.22386 7 7.5 7H8.5C8.77613 6.99998 9 6.77613 9 6.5C9 6.22387 8.77613 6.00002 8.5 6H7.5ZM7.5 2C7.77609 2.00006 8 2.2239 8 2.5C8 2.7761 7.77609 2.99994 7.5 3H6.5C6.22386 3 6 2.77614 6 2.5C6 2.22386 6.22386 2 6.5 2H7.5Z" fill="#242629"/>
</svg>
