<svg width="14" height="14" viewBox="0 0 14 14" fill="none" xmlns="http://www.w3.org/2000/svg">
<path d="M6.2002 7.00049C6.36579 7.00059 6.5 7.13467 6.5 7.30029V10.6997C6.49998 10.8653 6.36578 11.0004 6.2002 11.0005H4.5C3.67175 11.0005 3.00029 10.3287 3 9.50049V7.30029C3 7.13467 3.13421 7.00059 3.2998 7.00049H6.2002ZM10.7002 6.99951C10.8658 6.99962 11 7.13467 11 7.30029V9.49951C11 10.3279 10.3284 10.9995 9.5 10.9995H7.7998C7.63422 10.9994 7.50002 10.8653 7.5 10.6997V7.30029C7.5 7.13467 7.63421 6.99962 7.7998 6.99951H10.7002ZM4 4.00049C4 2.77522 5.41725 2.09445 6.37402 2.85986L7.00879 3.3667L7.69238 2.85107L7.7832 2.78857C8.72534 2.17853 10 2.84916 10 4.00049H10.7998C11.1863 4.00049 11.4998 4.3133 11.5 4.69971V5.30029C11.4999 5.68679 11.1863 6.00049 10.7998 6.00049H3.2002C2.81367 6.00049 2.50012 5.68679 2.5 5.30029V4.69971C2.50022 4.3133 2.81373 4.00049 3.2002 4.00049H4ZM5.74902 3.64014C5.44702 3.39892 5 3.61386 5 4.00049H6.2002L5.74902 3.64014ZM9 4.00049C9 3.65996 8.63502 3.45718 8.35059 3.61377L8.29492 3.64893L7.8291 4.00049H9Z" fill="#242629"/>
</svg>
