<svg width="14" height="14" viewBox="0 0 14 14" fill="none" xmlns="http://www.w3.org/2000/svg">
<path d="M7 2C9.76142 2 12 4.23858 12 7C12 9.76142 9.76142 12 7 12C4.23858 12 2 9.76142 2 7C2 4.23858 4.23858 2 7 2ZM7 3C5.32301 3 3.8884 4.03252 3.29395 5.49609C3.27431 5.54445 3.27496 5.59913 3.29688 5.64648C3.80536 6.74077 4.91408 7.5 6.2002 7.5C6.64187 7.50011 6.99989 7.85813 7 8.2998V10.7998C7 10.9103 7.08987 11.0006 7.2002 10.9951C8.80134 10.9161 10.1529 9.89467 10.7168 8.47461C10.7671 8.31761 10.8068 8.15722 10.834 7.99414C10.9207 7.47397 10.5195 7 9.99219 7H7C6.44772 7 6 6.55228 6 6C6 5.48232 6.39333 5.05621 6.89746 5.00488L7.10254 4.99512C7.60667 4.94379 8 4.51768 8 4V3.28125C8 3.19012 7.93861 3.10926 7.84961 3.08984C7.57594 3.0307 7.29137 3 7 3Z" fill="#242629"/>
</svg>
