<svg width="14" height="14" viewBox="0 0 14 14" fill="none" xmlns="http://www.w3.org/2000/svg">
<path d="M2.91431 3.85107C3.76876 3.02378 4.98305 2.82563 6.01001 3.23975C6.13506 3.29044 6.15855 3.45563 6.06079 3.55029L5.1438 4.43799C4.45887 5.10123 4.43008 6.20464 5.07935 6.90283C5.72859 7.60097 6.80943 7.6294 7.49438 6.96631L8.3811 6.10889C8.5767 5.9196 8.88504 5.92735 9.07056 6.12646L10.4143 7.57178C10.7853 7.97074 10.7686 8.60099 10.3772 8.97998C10.0104 9.33501 9.44458 9.34383 9.06958 9.01514H9.06665L9.0647 9.01709C9.06289 9.0189 9.06218 9.02187 9.06372 9.02393C9.36426 9.42325 9.32642 9.99841 8.96021 10.353C8.59341 10.708 8.02756 10.7159 7.65259 10.3872H7.64966L7.64673 10.3892C7.64503 10.391 7.64528 10.394 7.64673 10.396C7.94723 10.7953 7.90928 11.3705 7.54321 11.7251C7.15182 12.1041 6.53338 12.0879 6.16235 11.689L2.80298 8.07666C1.69031 6.87974 1.74026 4.98794 2.91431 3.85107ZM7.19751 3.82178C8.29339 2.76102 10.024 2.80651 11.0627 3.92334L11.1965 4.06787C12.0065 4.93884 12.1993 6.17695 11.7922 7.2251C11.7426 7.35293 11.5813 7.3773 11.4885 7.27783L9.77954 5.44092C9.22307 4.84254 8.29633 4.81793 7.70923 5.38623L6.82349 6.24365C6.52994 6.5279 6.06562 6.5165 5.78735 6.21729C5.50909 5.91806 5.52213 5.44489 5.81567 5.16064L7.09692 3.91943C7.10449 3.91222 7.11449 3.90782 7.12231 3.90088C7.14613 3.87429 7.17111 3.84734 7.19751 3.82178Z" fill="#242629"/>
</svg>
