<svg width="14" height="14" viewBox="0 0 14 14" fill="none" xmlns="http://www.w3.org/2000/svg">
<path d="M6.0791 2.7168C6.62077 2.2955 7.37923 2.2955 7.9209 2.7168L10.9209 5.0498C11.2862 5.33399 11.5 5.77154 11.5 6.23438V10C11.4999 10.8283 10.8284 11.5 10 11.5H4C3.17165 11.5 2.50012 10.8283 2.5 10V6.23438C2.5 5.77154 2.71379 5.33399 3.0791 5.0498L6.0791 2.7168ZM6.5 7C6.22398 7 6.0002 7.22403 6 7.5V10C6.00012 10.276 6.22393 10.5 6.5 10.5H7.5C7.77607 10.5 7.99988 10.276 8 10V7.5C7.9998 7.22403 7.77602 7 7.5 7H6.5Z" fill="#242629"/>
</svg>
