<svg width="14" height="14" viewBox="0 0 14 14" fill="none" xmlns="http://www.w3.org/2000/svg">
<path d="M8.41443 2.5C8.63302 2.5 8.83258 2.50049 8.99939 2.5127C9.1743 2.52554 9.3585 2.55426 9.54431 2.63379L9.6449 2.68066C9.87649 2.79899 10.0777 2.97113 10.2308 3.18262L10.3109 3.30762C10.3825 3.43302 10.4309 3.56167 10.4691 3.6875C10.5178 3.84756 10.5616 4.04158 10.6097 4.25488L11.2885 7.26562C11.3684 7.61995 11.4217 7.85039 11.4447 8.08691L11.4613 8.3916L11.4535 8.69531C11.4369 8.93255 11.3891 9.16488 11.3187 9.52148L11.2865 9.6875C11.243 9.90775 11.2041 10.1084 11.1586 10.2734C11.1228 10.4029 11.0766 10.5354 11.0062 10.665L10.9261 10.7939C10.774 11.0127 10.5715 11.1915 10.3363 11.3145L10.2338 11.3633C10.0445 11.4461 9.85679 11.4769 9.6781 11.4902C9.5075 11.5029 9.3028 11.502 9.07849 11.502H4.9281C4.70379 11.502 4.49908 11.5029 4.32849 11.4902C4.19451 11.4802 4.05527 11.46 3.91443 11.416L3.77283 11.3633C3.52884 11.2564 3.31397 11.0925 3.14783 10.8857L3.07947 10.7939C2.96162 10.6243 2.89569 10.4462 2.84802 10.2734C2.8025 10.1084 2.76358 9.90775 2.72009 9.6875L2.68689 9.52051C2.63412 9.25325 2.59516 9.05591 2.57166 8.87402L2.5531 8.69531C2.53893 8.49299 2.54231 8.28976 2.56189 8.08789L2.58435 7.90918C2.61274 7.72796 2.65722 7.53145 2.71716 7.26562L3.39685 4.25586L3.46619 3.95117C3.4891 3.85608 3.5122 3.76748 3.5365 3.6875C3.58754 3.51955 3.65618 3.34653 3.77478 3.18262L3.84314 3.09473C4.00955 2.89482 4.22223 2.73666 4.46228 2.63379L4.60095 2.58301C4.73891 2.54079 4.87517 2.52233 5.00623 2.5127C5.17302 2.50048 5.37262 2.5 5.59119 2.5H8.41443ZM5.10193 3.80859L5.02283 3.82129C4.99702 3.82543 4.98394 3.82756 4.96619 3.83398C4.94838 3.84044 4.94154 3.84415 4.92908 3.85156C4.91638 3.85913 4.90442 3.86779 4.89294 3.87695L4.82849 3.94531C4.82631 3.94828 4.80925 3.97133 4.78064 4.06543C4.76481 4.11753 4.74837 4.17876 4.72986 4.25586L4.66443 4.54102L3.98572 7.55176C3.94232 7.74418 3.91301 7.87553 3.89294 7.97559L3.85583 8.21289C3.84888 8.2845 3.84518 8.32031 3.85681 8.3584C3.87292 8.41112 3.92017 8.46308 3.97107 8.48438C4.00785 8.49963 4.05019 8.5 4.13416 8.5H4.65759C4.93123 8.5 5.06869 8.50007 5.16638 8.54395C5.26434 8.58832 5.51072 8.86573 6.00232 9.41895C6.20035 9.64159 6.51245 9.81641 7.0033 9.81641C7.4326 9.81634 7.72519 9.68265 7.92419 9.5L8.00427 9.41895C8.4963 8.86525 8.74247 8.58788 8.84021 8.54395C8.93792 8.50016 9.07539 8.5 9.349 8.5H10.0687C10.1191 8.49984 10.1604 8.45955 10.1615 8.40918L10.1508 8.21289C10.1441 8.14447 10.1337 8.07533 10.1136 7.97559L10.0209 7.55176L9.34119 4.54102C9.28892 4.3094 9.25659 4.16943 9.22498 4.06543L9.19666 3.99316C9.18692 3.96821 9.18221 3.95544 9.17126 3.93848C9.16034 3.92156 9.15494 3.9165 9.1449 3.90625C9.13474 3.89588 9.1239 3.88593 9.11267 3.87695L9.03162 3.8291C9.0272 3.82718 8.99984 3.81562 8.90466 3.80859C8.79628 3.80067 8.65172 3.80078 8.41443 3.80078H5.59119C5.3542 3.80078 5.21027 3.80069 5.10193 3.80859Z" fill="#242629"/>
</svg>
