<svg width="14" height="14" viewBox="0 0 14 14" fill="none" xmlns="http://www.w3.org/2000/svg">
<path d="M9.36157 2.5C9.9649 2.5 10.4313 3.03059 10.3538 3.62891L9.44556 10.6289C9.38076 11.127 8.95671 11.4999 8.45435 11.5H5.54517C5.04285 11.4998 4.61771 11.127 4.55298 10.6289L3.64575 3.62891C3.56824 3.03074 4.03482 2.50023 4.63794 2.5H9.36157ZM4.93384 3.5C4.81623 3.5 4.72397 3.59381 4.73462 3.71094L4.97485 5.72852C4.98721 5.86287 5.12813 5.94846 5.26001 5.91992C6.37234 5.67763 8.37718 6.27645 8.92798 6.04199C8.97743 6.02079 9.0022 5.96962 9.00708 5.91602L9.29712 3.69531C9.30774 3.57833 9.21532 3.50019 9.0979 3.5H4.93384Z" fill="#242629"/>
</svg>
