<svg width="14" height="14" viewBox="0 0 14 14" fill="none" xmlns="http://www.w3.org/2000/svg">
<path d="M8.5 2.5C10.1569 2.5 11.5 3.84315 11.5 5.5C11.5 7.15685 10.1569 8.5 8.5 8.5C8.0598 8.5 7.64126 8.40567 7.26465 8.23535L6 9.5H5.5C5.22386 9.5 5 9.72386 5 10V10.5L4.64648 10.8535C4.55273 10.9473 4.42555 11 4.29297 11H3.5C3.22386 11 3 10.7761 3 10.5V9.70703C3.00002 9.57445 3.05273 9.44727 3.14648 9.35352L5.76465 6.73535C5.59433 6.35874 5.5 5.9402 5.5 5.5C5.5 3.84315 6.84315 2.5 8.5 2.5ZM9 4.25C8.58579 4.25 8.25 4.58579 8.25 5C8.25 5.41421 8.58579 5.75 9 5.75C9.41421 5.75 9.75 5.41421 9.75 5C9.75 4.58579 9.41421 4.25 9 4.25Z" fill="#242629"/>
</svg>
