<svg width="14" height="14" viewBox="0 0 14 14" fill="none" xmlns="http://www.w3.org/2000/svg">
<path d="M8.0459 10C8.28069 10 8.3984 10.0004 8.46387 10.0186C8.69273 10.082 8.80146 10.2101 8.82715 10.4463C8.83438 10.514 8.80968 10.6641 8.76074 10.9639C8.66325 11.5611 8.14711 12 7.54199 12H6.45801C5.85287 12 5.33678 11.5611 5.23926 10.9639C5.1903 10.6641 5.16562 10.5139 5.17285 10.4463C5.19852 10.2101 5.30729 10.082 5.53613 10.0186C5.60159 10.0004 5.71935 10 5.9541 10H8.0459ZM7 2C9.20915 2 11 4 11 6C11 6.97268 10.527 7.82712 10.041 8.44824C9.98636 8.5181 9.9315 8.58894 9.87793 8.66016C9.7796 8.79087 9.73045 8.85629 9.6748 8.89844C9.62329 8.93744 9.5719 8.96275 9.50977 8.98047C9.44261 8.99956 9.36601 9 9.21289 9H4.78711C4.63399 9 4.55739 8.99956 4.49023 8.98047C4.4281 8.96275 4.37671 8.93744 4.3252 8.89844C4.26955 8.85629 4.2204 8.79087 4.12207 8.66016C4.0685 8.58894 4.01364 8.5181 3.95898 8.44824C3.47301 7.82712 3 6.97268 3 6C3 4 4.79085 2 7 2Z" fill="#242629"/>
</svg>
