<svg width="14" height="14" viewBox="0 0 14 14" fill="none" xmlns="http://www.w3.org/2000/svg">
<path d="M10.8356 8.06348C11.2097 8.28936 11.3978 8.40207 11.4615 8.54785C11.5171 8.67522 11.517 8.82086 11.4615 8.94824C11.3977 9.09394 11.2095 9.20685 10.8356 9.43262L8.24182 10.999C7.79129 11.271 7.56552 11.4078 7.32483 11.4609C7.11211 11.5078 6.89107 11.5078 6.67834 11.4609C6.43772 11.4077 6.21179 11.271 5.76135 10.999L3.16663 9.43262C2.79281 9.20693 2.6054 9.09394 2.54163 8.94824C2.48616 8.82094 2.48621 8.67517 2.54163 8.54785C2.60544 8.40222 2.79296 8.28907 3.16663 8.06348L3.89514 7.62305L4.9342 8.25C5.94077 8.8577 6.44487 9.16196 7.00159 9.16211C7.55832 9.162 8.06241 8.8577 9.06897 8.25L10.1061 7.62305L10.8356 8.06348ZM6.67834 2.53516C6.89111 2.48824 7.11206 2.48824 7.32483 2.53516C7.5656 2.58831 7.79113 2.72497 8.24182 2.99707L10.8365 4.56348C11.2104 4.78917 11.3978 4.90214 11.4615 5.04785C11.5171 5.17525 11.5171 5.32084 11.4615 5.44824C11.3978 5.59391 11.2103 5.70699 10.8365 5.93262L8.24182 7.49902C7.79122 7.77107 7.56557 7.90779 7.32483 7.96094C7.11207 8.00784 6.8911 8.00785 6.67834 7.96094C6.4377 7.90773 6.21185 7.77101 5.76135 7.49902L3.16663 5.93262C2.79279 5.70692 2.60537 5.59396 2.54163 5.44824C2.48615 5.32093 2.48621 5.17518 2.54163 5.04785C2.60542 4.90219 2.79292 4.7891 3.16663 4.56348L5.76135 2.99707L6.06018 2.81738C6.32501 2.66181 6.49783 2.57508 6.67834 2.53516Z" fill="#242629"/>
</svg>
