<svg width="14" height="14" viewBox="0 0 14 14" fill="none" xmlns="http://www.w3.org/2000/svg">
<path d="M7.30273 2.14209C7.50219 2.10946 7.70506 2.1798 7.8418 2.32861C7.9998 2.50073 8 2.9262 8 3.77588V5.99951H9.85449L10.2021 6.00146C10.5055 6.00654 10.6798 6.02664 10.7822 6.10791C10.901 6.20221 10.9709 6.34591 10.9717 6.49756C10.9724 6.67184 10.8093 6.87971 10.4834 7.29443L7.71484 10.8169C7.19023 11.4846 6.92774 11.8189 6.69727 11.8569C6.49772 11.8896 6.29494 11.8194 6.1582 11.6704C6.00027 11.4982 6 11.0737 6 10.2241V7.99951H4.14551C3.61808 7.99951 3.35428 7.99949 3.21777 7.89111C3.09913 7.79684 3.02912 7.65398 3.02832 7.50244C3.02744 7.32812 3.19065 7.12042 3.5166 6.70557L6.28516 3.18213C6.80978 2.51442 7.07225 2.18006 7.30273 2.14209Z" fill="#242629"/>
</svg>
