<svg width="14" height="14" viewBox="0 0 14 14" fill="none" xmlns="http://www.w3.org/2000/svg">
<path d="M7.00073 2.34961C8.46402 2.34993 9.65112 3.53664 9.65112 5V5.52832C9.86613 5.55043 10.0316 5.59023 10.1765 5.66406C10.4585 5.80781 10.688 6.03732 10.8318 6.31934C10.9543 6.55986 10.9851 6.85644 10.9929 7.34375L10.9958 7.89941L10.9968 8.98047C10.9972 9.82048 10.9971 10.2416 10.8337 10.5625C10.69 10.8446 10.4605 11.0749 10.1785 11.2188C9.85757 11.3822 9.43657 11.3818 8.59644 11.3818H5.4021C4.56259 11.3818 4.14181 11.382 3.82104 11.2188C3.53907 11.0751 3.30962 10.8453 3.16577 10.5635C3.00229 10.2429 3.00206 9.82258 3.00171 8.9834V7.90137C3.00136 7.06175 3.00079 6.6412 3.16382 6.32031C3.30756 6.03804 3.53787 5.80794 3.82007 5.66406C3.96612 5.5897 4.13294 5.54934 4.35034 5.52734V5C4.35034 3.53645 5.53718 2.34961 7.00073 2.34961ZM7.00073 7.00098C6.7246 7.00099 6.50073 7.22484 6.50073 7.50098V9.50098C6.50113 9.77677 6.72485 10.001 7.00073 10.001C7.27634 10.0006 7.50033 9.77657 7.50073 9.50098V7.50098C7.50073 7.22504 7.27659 7.00131 7.00073 7.00098ZM7.00073 3.65039C6.25515 3.65039 5.65112 4.25442 5.65112 5V5.50098H8.35034V5C8.35034 4.25461 7.74605 3.65071 7.00073 3.65039Z" fill="#242629"/>
</svg>
