<svg width="14" height="14" viewBox="0 0 14 14" fill="none" xmlns="http://www.w3.org/2000/svg">
<path d="M4.36426 9.10449L5.79297 9.5127C5.91547 9.54781 5.99997 9.65966 6 9.78711V10.4287C6 10.7443 5.74424 10.9999 5.42871 11H4.57129C4.25576 10.9999 4 10.7443 4 10.4287V9.37891C4.00007 9.18914 4.18177 9.05235 4.36426 9.10449ZM10.3789 3.15527C10.6944 3.07655 11 3.31542 11 3.64062V9.35938C11 9.68462 10.6944 9.92353 10.3789 9.84473L9.37891 9.59473C9.15632 9.53908 9 9.33881 9 9.10938V3.89062C9 3.66119 9.15632 3.46092 9.37891 3.40527L10.3789 3.15527ZM7.37891 3.90527C7.6944 3.82655 8 4.06542 8 4.39062V8.60938C8 8.93462 7.69444 9.17353 7.37891 9.09473L3.75781 8.18945C3.31273 8.07818 3.00012 7.67848 3 7.21973V5.78125C3 5.32238 3.31265 4.92184 3.75781 4.81055L7.37891 3.90527Z" fill="#242629"/>
</svg>
