<svg width="14" height="14" viewBox="0 0 14 14" fill="none" xmlns="http://www.w3.org/2000/svg">
<path d="M10.5 5.34473C10.8616 5.34486 11.1553 5.63833 11.1553 6V6.5C11.1553 8.45726 9.80151 10.0976 7.97949 10.5381C7.99186 10.5902 8 10.6443 8 10.7002V11.2998C8 11.6863 7.68629 11.9999 7.2998 12H6.7002C6.31362 12 6 11.6864 6 11.2998V10.7002C6 10.6443 6.00815 10.5902 6.02051 10.5381C4.19861 10.0976 2.84473 8.45718 2.84473 6.5V6C2.84473 5.63833 3.13837 5.34486 3.5 5.34473C3.86163 5.34486 4.15527 5.63833 4.15527 6V6.5C4.15527 8.07117 5.42886 9.34459 7 9.34473C8.57114 9.34459 9.84473 8.07117 9.84473 6.5V6C9.84473 5.63833 10.1384 5.34486 10.5 5.34473ZM7 2C8.10446 2.00013 9 2.89551 9 4V6.5C9 7.60449 8.10446 8.49987 7 8.5C5.89552 8.49989 5 7.6045 5 6.5V4C5 2.8955 5.89552 2.00011 7 2Z" fill="#242629"/>
</svg>
