<svg width="14" height="14" viewBox="0 0 14 14" fill="none" xmlns="http://www.w3.org/2000/svg">
<path d="M10 3.5C10.8284 3.5 11.5 4.17157 11.5 5V9C11.5 9.82843 10.8284 10.5 10 10.5H8.5752C8.19438 10.5 7.81537 10.5612 7.4541 10.6816C6.82208 10.8923 6.16034 11 5.49414 11H4C3.17157 11 2.5 10.3284 2.5 9.5V5.5C2.5 4.67157 3.17157 4 4 4H5.4248C5.80562 4 6.18463 3.93878 6.5459 3.81836C7.17792 3.60773 7.83966 3.50003 8.50586 3.5H10ZM8.47461 4.5C8.16044 4.5 7.84786 4.55104 7.5498 4.65039C6.85455 4.88211 6.1264 4.99996 5.39355 5H5.2002C5.08986 5 5.002 5.08989 4.9873 5.19922C4.89841 5.86805 4.36805 6.39841 3.69922 6.4873C3.58989 6.502 3.5 6.58986 3.5 6.7002V8.2998C3.5 8.41014 3.58989 8.498 3.69922 8.5127C4.36805 8.60159 4.89841 9.13195 4.9873 9.80078C5.002 9.91011 5.08986 10 5.2002 10H5.52539C5.83956 10 6.15214 9.94896 6.4502 9.84961C7.14545 9.61789 7.8736 9.50004 8.60645 9.5H8.7998C8.91014 9.5 8.998 9.41011 9.0127 9.30078C9.10159 8.63195 9.63195 8.10159 10.3008 8.0127C10.4101 7.998 10.5 7.91014 10.5 7.7998V6.2002C10.5 6.08986 10.4101 6.002 10.3008 5.9873C9.63195 5.89841 9.10159 5.36805 9.0127 4.69922C8.998 4.58989 8.91014 4.5 8.7998 4.5H8.47461ZM7 6C7.55228 6 8 6.69772 8 7.25C8 7.80228 7.55228 8.5 7 8.5C6.44772 8.5 6 7.80228 6 7.25C6 6.69772 6.44772 6 7 6Z" fill="#242629"/>
</svg>
