<svg width="14" height="14" viewBox="0 0 14 14" fill="none" xmlns="http://www.w3.org/2000/svg">
<path d="M9.09961 3.5C9.93932 3.5 10.3599 3.49981 10.6807 3.66309C10.9629 3.8069 11.1931 4.03709 11.3369 4.31934C11.5002 4.64015 11.5 5.06068 11.5 5.90039V8.09961C11.5 8.93932 11.5002 9.35985 11.3369 9.68066C11.1931 9.96291 10.9629 10.1931 10.6807 10.3369C10.3599 10.5002 9.93932 10.5 9.09961 10.5H4.90039C4.06068 10.5 3.64015 10.5002 3.31934 10.3369C3.03709 10.1931 2.8069 9.96291 2.66309 9.68066C2.49981 9.35985 2.5 8.93932 2.5 8.09961V5.90039C2.5 5.06068 2.49981 4.64015 2.66309 4.31934C2.8069 4.03709 3.03709 3.8069 3.31934 3.66309C3.64015 3.49981 4.06068 3.5 4.90039 3.5H9.09961ZM4.55859 7.5C3.974 7.50012 3.50012 7.974 3.5 8.55859C3.5 8.80225 3.69775 9 3.94141 9H7.05859C7.30225 9 7.5 8.80225 7.5 8.55859C7.49988 7.974 7.026 7.50012 6.44141 7.5H4.55859ZM9 7.5C8.72386 7.5 8.5 7.72386 8.5 8C8.5 8.27614 8.72386 8.5 9 8.5H10C10.2761 8.5 10.5 8.27614 10.5 8C10.5 7.72386 10.2761 7.5 10 7.5H9ZM5.5 5C4.94772 5 4.5 5.44772 4.5 6C4.5 6.55228 4.94772 7 5.5 7C6.05228 7 6.5 6.55228 6.5 6C6.5 5.44772 6.05228 5 5.5 5ZM9 5.5C8.72386 5.5 8.5 5.72386 8.5 6C8.5 6.27614 8.72386 6.5 9 6.5H10C10.2761 6.5 10.5 6.27614 10.5 6C10.5 5.72386 10.2761 5.5 10 5.5H9Z" fill="#242629"/>
</svg>
