<svg width="14" height="14" viewBox="0 0 14 14" fill="none" xmlns="http://www.w3.org/2000/svg">
<path d="M9.5 3C10.3284 3 11 3.67157 11 4.5V9.5C11 10.3284 10.3284 11 9.5 11H4.5C3.67157 11 3 10.3284 3 9.5V4.5C3 3.67157 3.67157 3 4.5 3H9.5ZM4.5 4C4.22386 4 4 4.22386 4 4.5V8.11035C4.00013 8.28842 4.21584 8.37791 4.3418 8.25195L4.88672 7.70605C5.23851 7.35439 5.79531 7.31503 6.19336 7.61328L6.91797 8.15625C7.25154 8.40643 7.71868 8.3737 8.01367 8.0791C8.29619 7.79671 8.73986 7.75211 9.07227 7.97363L9.68945 8.38574C9.82231 8.47392 10 8.37835 10 8.21875V4.5C10 4.22386 9.77614 4 9.5 4H4.5ZM8.19629 5C8.64003 5 9 5.35997 9 5.80371C8.99987 6.24734 8.63995 6.60742 8.19629 6.60742C7.75274 6.60729 7.39369 6.24726 7.39355 5.80371C7.39355 5.36005 7.75266 5.00013 8.19629 5Z" fill="#242629"/>
</svg>
