<svg width="14" height="14" viewBox="0 0 14 14" fill="none" xmlns="http://www.w3.org/2000/svg">
<path d="M6.28027 2.05371C6.39734 2.03685 6.5 2.12978 6.5 2.24805V7.10645C6.50011 7.1516 6.51578 7.19517 6.54395 7.23047L9.5791 11.0244C9.65261 11.1167 9.6308 11.2525 9.5293 11.3125C8.78729 11.7489 7.92307 12 7 12C4.23858 12 2 9.76142 2 7C2.00028 4.48329 3.86012 2.40261 6.28027 2.05371ZM11.7549 7.5C11.8731 7.50007 11.9661 7.60271 11.9492 7.71973C11.8001 8.75412 11.3325 9.68489 10.6514 10.4131C10.5705 10.4995 10.4333 10.4909 10.3594 10.3984L8.30078 7.8252C8.19615 7.69424 8.28938 7.5 8.45703 7.5H11.7549ZM7.71875 2.05371C9.90444 2.36856 11.6342 4.09568 11.9492 6.28125C11.966 6.39819 11.873 6.49992 11.7549 6.5H7.7002C7.58988 6.5 7.50023 6.41104 7.5 6.30078V2.24805C7.5 2.12992 7.60187 2.03714 7.71875 2.05371Z" fill="#242629"/>
</svg>
