<svg width="14" height="14" viewBox="0 0 14 14" fill="none" xmlns="http://www.w3.org/2000/svg">
<path d="M6.28027 2.05127C6.39733 2.0344 6.5 2.12734 6.5 2.24561V3.87256C6.49979 3.96999 6.42902 4.0521 6.33398 4.07373C4.99769 4.37669 4 5.57254 4 7.00049C4.00007 8.65728 5.34319 10.0005 7 10.0005C7.46839 10.0005 7.91086 9.89148 8.30566 9.69971C8.39342 9.65706 8.5005 9.67731 8.56152 9.75342L9.5791 11.0239C9.65292 11.1162 9.63106 11.253 9.5293 11.313C8.7873 11.7493 7.92301 12.0005 7 12.0005C4.23862 12.0005 2.00007 9.76185 2 7.00049C2 4.48345 3.85983 2.40019 6.28027 2.05127ZM11.7549 7.50049C11.873 7.50057 11.9659 7.60238 11.9492 7.71924C11.8 8.7534 11.3324 9.68452 10.6514 10.4126C10.5705 10.4988 10.4333 10.4901 10.3594 10.3979L9.3418 9.12646C9.2809 9.05028 9.28487 8.94197 9.3457 8.86572C9.62173 8.51988 9.82325 8.11249 9.9248 7.6665C9.94646 7.57135 10.0294 7.50063 10.127 7.50049H11.7549ZM7.71875 2.05127C9.90448 2.36614 11.6342 4.09508 11.9492 6.28076C11.9661 6.39778 11.8731 6.50041 11.7549 6.50049H10.127C10.0294 6.50035 9.94642 6.42959 9.9248 6.33447C9.67044 5.21241 8.78801 4.32812 7.66602 4.07373C7.57098 4.0521 7.50021 3.97 7.5 3.87256V2.24561C7.5 2.1275 7.6019 2.03473 7.71875 2.05127Z" fill="#242629"/>
</svg>
