<svg width="14" height="14" viewBox="0 0 14 14" fill="none" xmlns="http://www.w3.org/2000/svg">
<path d="M10.6465 0.646484C10.8417 0.451222 11.1583 0.451222 11.3535 0.646484L12.8535 2.14648C13.0488 2.34175 13.0488 2.65825 12.8535 2.85352L11.3535 4.35352C11.1583 4.54878 10.8417 4.54878 10.6465 4.35352C10.4512 4.15825 10.4512 3.84175 10.6465 3.64648L11.293 3H4.75C3.7835 3 3 3.7835 3 4.75C3 5.7165 3.7835 6.5 4.75 6.5H9.25C10.7688 6.5 12 7.73122 12 9.25C12 10.7688 10.7688 12 9.25 12H4.93457C4.71235 12.8623 3.93171 13.5 3 13.5C1.89543 13.5 1 12.6046 1 11.5C1 10.3954 1.89543 9.5 3 9.5C3.93171 9.5 4.71235 10.1377 4.93457 11H9.25C10.2165 11 11 10.2165 11 9.25C11 8.2835 10.2165 7.5 9.25 7.5H4.75C3.23122 7.5 2 6.26878 2 4.75C2 3.23122 3.23122 2 4.75 2H11.293L10.6465 1.35352C10.4512 1.15825 10.4512 0.841747 10.6465 0.646484ZM3 10.5C2.44772 10.5 2 10.9477 2 11.5C2 12.0523 2.44772 12.5 3 12.5C3.55228 12.5 4 12.0523 4 11.5C4 10.9477 3.55228 10.5 3 10.5Z" fill="#242629"/>
</svg>
