<svg width="14" height="14" viewBox="0 0 14 14" fill="none" xmlns="http://www.w3.org/2000/svg">
<path d="M11.0736 2.50977C11.2984 2.5227 11.4765 2.70101 11.4896 2.92578C11.5949 4.75519 10.8655 6.73166 9.34412 8.25293C9.31166 8.28538 9.27932 8.31788 9.24646 8.34961L9.36267 8.61133C9.69316 9.35409 9.53225 10.224 8.9574 10.7988L7.89978 11.8564C7.64016 12.1158 7.198 12.0085 7.08533 11.6592L6.55798 10.0244C6.41879 10.0735 6.27846 10.1185 6.13806 10.1582C5.97384 10.2046 5.79882 10.1538 5.6781 10.0332L3.96619 8.32227C3.8454 8.20148 3.79468 8.02569 3.84119 7.86133C3.88088 7.72105 3.92593 7.58145 3.97498 7.44238L2.34021 6.91504C1.99106 6.80226 1.88462 6.36015 2.14392 6.10059L3.20154 5.04297C3.77643 4.46815 4.64625 4.30722 5.38904 4.6377L5.65076 4.75391C5.68248 4.72106 5.71402 4.68771 5.74646 4.65527C7.26771 3.13414 9.24422 2.40457 11.0736 2.50977ZM2.64978 9.2168C2.84155 9.02504 3.15235 9.02504 3.34412 9.2168L4.78259 10.6553C4.97434 10.847 4.97435 11.1579 4.78259 11.3496C4.59081 11.541 4.2799 11.5412 4.08826 11.3496L2.64978 9.91113C2.45812 9.71948 2.45834 9.40858 2.64978 9.2168ZM9.24451 4.75488C8.84727 4.35781 8.19547 4.36644 7.78845 4.77344C7.38147 5.18045 7.37279 5.83229 7.7699 6.22949C8.1671 6.62668 8.81986 6.61889 9.22693 6.21191C9.63399 5.80487 9.64173 5.15209 9.24451 4.75488Z" fill="#242629"/>
</svg>
