<svg width="14" height="14" viewBox="0 0 14 14" fill="none" xmlns="http://www.w3.org/2000/svg">
<path d="M6 2C8.20914 2 10 3.79086 10 6C10 6.72049 9.80797 7.3956 9.47461 7.97949C9.49385 7.99524 9.51231 8.01232 9.53027 8.03027L11.4697 9.96973C11.7625 10.2626 11.7625 10.7374 11.4697 11.0303L11.0303 11.4697C10.7374 11.7625 10.2626 11.7625 9.96973 11.4697L8.03027 9.53027C8.01232 9.51231 7.99524 9.49385 7.97949 9.47461C7.3956 9.80797 6.72049 10 6 10C3.79086 10 2 8.20914 2 6C2 3.79086 3.79086 2 6 2ZM6 3.2998C4.50883 3.2998 3.2998 4.50883 3.2998 6C3.2998 7.49117 4.50883 8.7002 6 8.7002C7.49117 8.7002 8.7002 7.49117 8.7002 6C8.7002 4.50883 7.49117 3.2998 6 3.2998Z" fill="#242629"/>
</svg>
