<svg width="14" height="14" viewBox="0 0 14 14" fill="none" xmlns="http://www.w3.org/2000/svg">
<path d="M8.00024 11C8.00024 11.276 7.77617 11.4997 7.50024 11.5H6.50024C6.2242 11.4999 6.00024 11.2761 6.00024 11V9.5H8.00024V11ZM9.58618 6.5C9.85121 6.50013 10.1058 6.60557 10.2932 6.79297L10.8586 7.3584C10.9364 7.43644 10.9364 7.56356 10.8586 7.6416L10.2932 8.20703C10.1058 8.39443 9.85121 8.49987 9.58618 8.5H4.20044C3.81386 8.49998 3.50024 8.18639 3.50024 7.7998V7.2002C3.50024 6.81361 3.81386 6.50002 4.20044 6.5H9.58618ZM7.50024 2.5C7.77617 2.50026 8.00024 2.72402 8.00024 3V3.5H9.80103C10.1872 3.50052 10.5002 3.81392 10.5002 4.2002V4.7998C10.5002 5.18608 10.1872 5.49948 9.80103 5.5H4.41431C4.14931 5.4999 3.89471 5.39436 3.70728 5.20703L3.14185 4.6416C3.06375 4.5635 3.06375 4.4365 3.14185 4.3584L3.70728 3.79297C3.89471 3.60564 4.14931 3.5001 4.41431 3.5H6.00024V3C6.00024 2.72393 6.2242 2.50011 6.50024 2.5H7.50024Z" fill="#242629"/>
</svg>
