<svg width="14" height="14" viewBox="0 0 14 14" fill="none" xmlns="http://www.w3.org/2000/svg">
<path d="M7.50098 9.00098C7.77673 9.00144 8.00098 9.22512 8.00098 9.50098V11.001C8.00045 11.2764 7.7764 11.5005 7.50098 11.501H6.50098C6.225 11.501 6.00124 11.2759 6.00098 11V9.5C6.00124 9.22408 6.225 9.00098 6.50098 9.00098H7.50098ZM7.50098 2.5C7.77673 2.50046 8.00098 2.72512 8.00098 3.00098V4.00098H9.58594C9.85098 4.0011 10.1065 4.10555 10.2939 4.29297L11.2939 5.29297C11.684 5.68353 11.6843 6.31765 11.2939 6.70801L10.2939 7.70801C10.1065 7.89543 9.85098 8.00085 9.58594 8.00098H4.00098C3.44902 8.00098 3.0015 7.55281 3.00098 7.00098V5.00098C3.00098 4.44869 3.44869 4.00098 4.00098 4.00098H6.00098V3.00098C6.00098 2.72483 6.22483 2.5 6.50098 2.5H7.50098Z" fill="#242629"/>
</svg>
