<svg width="14" height="14" viewBox="0 0 14 14" fill="none" xmlns="http://www.w3.org/2000/svg">
<path d="M8.00024 11C8.00024 11.2761 7.77628 11.4999 7.50024 11.5H6.50024C6.2241 11.5 6.00024 11.2761 6.00024 11V9H8.00024V11ZM7.50024 2.5C7.77628 2.50012 8.00024 2.72393 8.00024 3V4H10.0002C10.5524 4.00012 11.0002 4.44779 11.0002 5V7C11.0002 7.55221 10.5524 7.99988 10.0002 8H4.41431C4.14911 8 3.89481 7.89454 3.70728 7.70703L2.70728 6.70703C2.31675 6.31651 2.31675 5.68349 2.70728 5.29297L3.70728 4.29297C3.89481 4.10546 4.14911 4 4.41431 4H6.00024V3C6.00024 2.72386 6.2241 2.5 6.50024 2.5H7.50024Z" fill="#242629"/>
</svg>
