<svg width="14" height="14" viewBox="0 0 14 14" fill="none" xmlns="http://www.w3.org/2000/svg">
<path d="M7 2C9.76142 2 12 4.23858 12 7C12 9.76142 9.76142 12 7 12C4.23858 12 2 9.76142 2 7C2 4.23858 4.23858 2 7 2ZM9.44727 8.10254C8.88133 8.24884 7.79393 8.5 7 8.5C6.20607 8.5 5.11867 8.24884 4.55273 8.10254C4.39485 8.06172 4.25589 8.21378 4.3291 8.35938C4.46977 8.63815 4.65385 8.89604 4.87891 9.12109C5.44152 9.6837 6.20435 10 7 10C7.79565 10 8.55848 9.6837 9.12109 9.12109C9.34615 8.89604 9.53023 8.63815 9.6709 8.35938C9.74411 8.21378 9.60515 8.06172 9.44727 8.10254ZM5.33301 5.33398C4.87292 5.33416 4.5 5.70686 4.5 6.16699C4.50009 6.62705 4.87297 6.99982 5.33301 7C5.79319 7 6.1669 6.62715 6.16699 6.16699C6.16699 5.70675 5.79325 5.33398 5.33301 5.33398ZM8.66699 5.33398C8.20675 5.33398 7.83301 5.70675 7.83301 6.16699C7.8331 6.62715 8.20681 7 8.66699 7C9.12703 6.99982 9.49991 6.62705 9.5 6.16699C9.5 5.70686 9.12708 5.33416 8.66699 5.33398Z" fill="#242629"/>
</svg>
