<svg width="14" height="14" viewBox="0 0 14 14" fill="none" xmlns="http://www.w3.org/2000/svg">
<path d="M7 2C7.4201 2 7.66983 2.29807 7.75977 2.41797C7.87708 2.57439 7.96845 2.76276 8.04004 2.93457C8.18649 3.28616 8.31387 3.73007 8.41699 4.14258C8.5218 4.56183 8.6088 4.97781 8.66895 5.28711C8.67135 5.2995 8.67346 5.31216 8.67578 5.32422C8.68784 5.32655 8.7005 5.32865 8.71289 5.33105C9.02219 5.3912 9.43817 5.4782 9.85742 5.58301C10.2699 5.68613 10.7138 5.81351 11.0654 5.95996C11.2372 6.03155 11.4256 6.12292 11.582 6.24023C11.7019 6.33017 12 6.5799 12 7C12 7.4201 11.7019 7.66983 11.582 7.75977C11.4256 7.87708 11.2372 7.96845 11.0654 8.04004C10.7138 8.18649 10.2699 8.31387 9.85742 8.41699C9.43817 8.5218 9.02219 8.6088 8.71289 8.66895C8.7005 8.67135 8.68783 8.67346 8.67578 8.67578C8.67346 8.68783 8.67135 8.7005 8.66895 8.71289C8.6088 9.02219 8.5218 9.43817 8.41699 9.85742C8.31387 10.2699 8.18649 10.7138 8.04004 11.0654C7.96845 11.2372 7.87708 11.4256 7.75977 11.582C7.66983 11.7019 7.4201 12 7 12C6.5799 12 6.33017 11.7019 6.24023 11.582C6.12292 11.4256 6.03155 11.2372 5.95996 11.0654C5.81351 10.7138 5.68613 10.2699 5.58301 9.85742C5.4782 9.43817 5.3912 9.02219 5.33105 8.71289C5.32865 8.7005 5.32655 8.68784 5.32422 8.67578C5.31216 8.67346 5.2995 8.67135 5.28711 8.66895C4.97781 8.6088 4.56183 8.5218 4.14258 8.41699C3.73007 8.31387 3.28616 8.18649 2.93457 8.04004C2.76276 7.96845 2.57439 7.87708 2.41797 7.75977C2.29807 7.66983 2 7.4201 2 7C2 6.5799 2.29807 6.33017 2.41797 6.24023C2.57439 6.12292 2.76276 6.03155 2.93457 5.95996C3.28616 5.81351 3.73007 5.68613 4.14258 5.58301C4.56183 5.4782 4.97781 5.3912 5.28711 5.33105C5.2995 5.32865 5.31216 5.32655 5.32422 5.32422C5.32655 5.31216 5.32865 5.2995 5.33105 5.28711C5.3912 4.97781 5.4782 4.56183 5.58301 4.14258C5.68613 3.73007 5.81351 3.28616 5.95996 2.93457C6.03155 2.76276 6.12292 2.57439 6.24023 2.41797C6.33017 2.29807 6.5799 2 7 2Z" fill="#242629"/>
</svg>
