<svg width="14" height="14" viewBox="0 0 14 14" fill="none" xmlns="http://www.w3.org/2000/svg">
<path d="M8.5 5C8.79416 5 8.96932 5.20909 9.03223 5.29297C9.11422 5.40239 9.17748 5.53416 9.22754 5.6543C9.33007 5.90043 9.41999 6.21121 9.49219 6.5C9.5655 6.79328 9.62588 7.08436 9.66797 7.30078C9.66965 7.30945 9.67122 7.31871 9.67285 7.32715C9.68129 7.32878 9.69055 7.33035 9.69922 7.33203C9.91564 7.37412 10.2067 7.4345 10.5 7.50781C10.7888 7.58001 11.0996 7.66993 11.3457 7.77246C11.4658 7.82252 11.5976 7.88578 11.707 7.96777C11.7909 8.03068 12 8.20584 12 8.5C12 8.79416 11.7909 8.96932 11.707 9.03223C11.5976 9.11422 11.4658 9.17748 11.3457 9.22754C11.0996 9.33007 10.7888 9.41999 10.5 9.49219C10.2067 9.5655 9.91564 9.62588 9.69922 9.66797C9.69055 9.66965 9.68129 9.67122 9.67285 9.67285C9.67122 9.68129 9.66965 9.69055 9.66797 9.69922C9.62588 9.91564 9.5655 10.2067 9.49219 10.5C9.41999 10.7888 9.33007 11.0996 9.22754 11.3457C9.17748 11.4658 9.11422 11.5976 9.03223 11.707C8.96932 11.7909 8.79416 12 8.5 12C8.20584 12 8.03068 11.7909 7.96777 11.707C7.88578 11.5976 7.82252 11.4658 7.77246 11.3457C7.66993 11.0996 7.58001 10.7888 7.50781 10.5C7.4345 10.2067 7.37412 9.91564 7.33203 9.69922C7.33035 9.69055 7.32878 9.68129 7.32715 9.67285C7.31871 9.67122 7.30945 9.66965 7.30078 9.66797C7.08436 9.62588 6.79328 9.5655 6.5 9.49219C6.21121 9.41999 5.90043 9.33007 5.6543 9.22754C5.53416 9.17748 5.40239 9.11422 5.29297 9.03223C5.20909 8.96932 5 8.79416 5 8.5C5 8.20584 5.20909 8.03068 5.29297 7.96777C5.40239 7.88578 5.53416 7.82252 5.6543 7.77246C5.90043 7.66993 6.21121 7.58001 6.5 7.50781C6.79328 7.4345 7.08436 7.37412 7.30078 7.33203C7.30945 7.33035 7.31871 7.32878 7.32715 7.32715C7.32878 7.31871 7.33035 7.30945 7.33203 7.30078C7.37412 7.08436 7.4345 6.79328 7.50781 6.5C7.58001 6.21121 7.66993 5.90043 7.77246 5.6543C7.82252 5.53416 7.88578 5.40239 7.96777 5.29297C8.03068 5.20909 8.20584 5 8.5 5ZM4.5 2C4.71005 2 4.83491 2.14903 4.87988 2.20898C4.93845 2.28708 4.98376 2.381 5.01953 2.4668C5.09279 2.64262 5.1574 2.86496 5.20898 3.07129C5.26136 3.28083 5.30392 3.48894 5.33398 3.64355C5.33519 3.64975 5.33673 3.65608 5.33789 3.66211C5.34392 3.66327 5.35025 3.66481 5.35645 3.66602C5.51106 3.69608 5.71917 3.73863 5.92871 3.79102C6.13504 3.8426 6.35738 3.90721 6.5332 3.98047C6.619 4.01624 6.71292 4.06155 6.79102 4.12012C6.85096 4.16509 7 4.28995 7 4.5C7 4.71005 6.85096 4.83491 6.79102 4.87988C6.71292 4.93845 6.619 4.98376 6.5332 5.01953C6.35738 5.09279 6.13504 5.1574 5.92871 5.20898C5.71917 5.26136 5.51106 5.30392 5.35645 5.33398C5.35025 5.33519 5.34392 5.33673 5.33789 5.33789C5.33673 5.34392 5.33519 5.35025 5.33398 5.35645C5.30392 5.51106 5.26136 5.71917 5.20898 5.92871C5.1574 6.13504 5.09279 6.35738 5.01953 6.5332C4.98376 6.619 4.93845 6.71292 4.87988 6.79102C4.83491 6.85096 4.71005 7 4.5 7C4.28995 7 4.16509 6.85096 4.12012 6.79102C4.06155 6.71292 4.01624 6.619 3.98047 6.5332C3.90721 6.35738 3.8426 6.13504 3.79102 5.92871C3.73863 5.71917 3.69608 5.51106 3.66602 5.35645C3.66481 5.35025 3.66327 5.34392 3.66211 5.33789C3.65608 5.33673 3.64975 5.33519 3.64355 5.33398C3.48894 5.30392 3.28083 5.26136 3.07129 5.20898C2.86496 5.1574 2.64262 5.09279 2.4668 5.01953C2.381 4.98376 2.28708 4.93845 2.20898 4.87988C2.14903 4.83491 2 4.71005 2 4.5C2 4.28995 2.14903 4.16509 2.20898 4.12012C2.28708 4.06155 2.381 4.01624 2.4668 3.98047C2.64262 3.90721 2.86496 3.8426 3.07129 3.79102C3.28083 3.73863 3.48894 3.69608 3.64355 3.66602C3.64975 3.66481 3.65608 3.66327 3.66211 3.66211C3.66327 3.65608 3.66481 3.64975 3.66602 3.64355C3.69608 3.48894 3.73863 3.28083 3.79102 3.07129C3.8426 2.86496 3.90721 2.64262 3.98047 2.4668C4.01624 2.381 4.06155 2.28708 4.12012 2.20898C4.16509 2.14903 4.28995 2 4.5 2Z" fill="#242629"/>
</svg>
