<svg width="14" height="14" viewBox="0 0 14 14" fill="none" xmlns="http://www.w3.org/2000/svg">
<path d="M10.5 9.31104C10.5 10.4513 8.933 11.3765 7 11.3765C5.06703 11.3764 3.5 10.4513 3.5 9.31104V7.37646L4.5 7.90771V9.20264C4.5 9.38466 4.60281 9.5519 4.76562 9.6333L5.5 10.0005V8.43896L6.09766 8.75732C6.66171 9.05713 7.33827 9.0571 7.90234 8.75732L10.5 7.37646V9.31104ZM6.54785 2.60791C6.82545 2.46391 7.15604 2.46378 7.43359 2.60791L11.7217 4.83545C12.0671 5.01487 12.0671 5.50861 11.7217 5.68799L7.43359 7.91455C7.15595 8.05872 6.82551 8.05868 6.54785 7.91455L2.25879 5.68799C1.91373 5.50856 1.91383 5.01497 2.25879 4.83545L6.54785 2.60791Z" fill="#242629"/>
</svg>
