<svg width="14" height="14" viewBox="0 0 14 14" fill="none" xmlns="http://www.w3.org/2000/svg">
<path d="M7.29785 2.46191C7.58161 2.46191 7.82668 2.46106 8.02832 2.47754C8.2411 2.49494 8.4526 2.53395 8.65625 2.6377C8.9602 2.79257 9.20743 3.0398 9.3623 3.34375C9.46603 3.5474 9.50507 3.7589 9.52246 3.97168C9.53489 4.12376 9.53734 4.30062 9.53809 4.5H10C10.8284 4.5 11.5 5.17157 11.5 6V9.5C11.5 10.3284 10.8284 11 10 11H4C3.17159 11 2.50002 10.3284 2.5 9.5V6C2.5 5.17157 3.17157 4.5 4 4.5H4.46191C4.46266 4.30062 4.46511 4.12376 4.47754 3.97168C4.49493 3.7589 4.53397 3.5474 4.6377 3.34375C4.79257 3.0398 5.0398 2.79257 5.34375 2.6377C5.5474 2.53395 5.7589 2.49494 5.97168 2.47754C6.17332 2.46106 6.41839 2.46191 6.70215 2.46191H7.29785ZM4.5 6C4.22386 6 4 6.22386 4 6.5C4.00003 6.77612 4.22388 7 4.5 7H9.5C9.77612 7 9.99997 6.77612 10 6.5C10 6.22386 9.77614 6 9.5 6H4.5ZM6.72266 3.53809C6.41244 3.53809 6.21207 3.5393 6.05957 3.55176C5.91334 3.56371 5.85865 3.58312 5.83203 3.59668C5.73083 3.64829 5.64828 3.73083 5.59668 3.83203C5.58312 3.85865 5.56371 3.91331 5.55176 4.05957C5.54257 4.17205 5.53982 4.31058 5.53906 4.5H8.46094C8.46018 4.31058 8.45743 4.17205 8.44824 4.05957C8.43629 3.91331 8.41689 3.85865 8.40332 3.83203C8.35172 3.73083 8.26917 3.64829 8.16797 3.59668C8.14135 3.58312 8.08666 3.56371 7.94043 3.55176C7.78793 3.5393 7.58756 3.53809 7.27734 3.53809H6.72266Z" fill="#242629"/>
</svg>
