<svg width="14" height="14" viewBox="0 0 14 14" fill="none" xmlns="http://www.w3.org/2000/svg">
<path d="M10.5001 2.5C11.0522 2.50006 11.5 2.94782 11.5001 3.5V6.67188C11.5 7.20225 11.2892 7.7109 10.9141 8.08594L7.50006 11.5C6.71905 12.281 5.45299 12.2809 4.67194 11.5L2.50006 9.32812C1.71921 8.54706 1.71908 7.28098 2.50006 6.5L5.91412 3.08594C6.28915 2.71091 6.79782 2.50005 7.32819 2.5H10.5001ZM9.00006 4.25C8.5859 4.25 8.25015 4.58586 8.25006 5C8.25005 5.41421 8.58585 5.75 9.00006 5.75C9.41423 5.74995 9.75005 5.41418 9.75006 5C9.74999 4.58587 9.4142 4.25003 9.00006 4.25Z" fill="#242629"/>
</svg>
