<svg width="14" height="14" viewBox="0 0 14 14" fill="none" xmlns="http://www.w3.org/2000/svg">
<path d="M10 9C10.2793 9 10.419 8.99979 10.5312 9.03906C10.7323 9.10942 10.8906 9.26768 10.9609 9.46875C11.0002 9.58101 11 9.72073 11 10C11 10.2793 11.0002 10.419 10.9609 10.5312C10.8906 10.7323 10.7323 10.8906 10.5312 10.9609C10.419 11.0002 10.2793 11 10 11H6C5.72073 11 5.58101 11.0002 5.46875 10.9609C5.26768 10.8906 5.10942 10.7323 5.03906 10.5312C4.99979 10.419 5 10.2793 5 10C5 9.72073 4.99979 9.58101 5.03906 9.46875C5.10942 9.26768 5.26768 9.10942 5.46875 9.03906C5.58101 8.99979 5.72073 9 6 9H10ZM10 6C10.2793 6 10.419 5.99979 10.5312 6.03906C10.7323 6.10942 10.8906 6.26768 10.9609 6.46875C11.0002 6.58101 11 6.72073 11 7C11 7.27927 11.0002 7.41899 10.9609 7.53125C10.8906 7.73232 10.7323 7.89058 10.5312 7.96094C10.419 8.00021 10.2793 8 10 8H4C3.72073 8 3.58101 8.00021 3.46875 7.96094C3.26768 7.89058 3.10942 7.73232 3.03906 7.53125C2.99979 7.41899 3 7.27927 3 7C3 6.72073 2.99979 6.58101 3.03906 6.46875C3.10942 6.26768 3.26768 6.10942 3.46875 6.03906C3.58101 5.99979 3.72073 6 4 6H10ZM7 3C7.27927 3 7.41899 2.99979 7.53125 3.03906C7.73232 3.10942 7.89058 3.26768 7.96094 3.46875C8.00021 3.58101 8 3.72073 8 4C8 4.27927 8.00021 4.41899 7.96094 4.53125C7.89058 4.73232 7.73232 4.89058 7.53125 4.96094C7.41899 5.00021 7.27927 5 7 5H5C4.72073 5 4.58101 5.00021 4.46875 4.96094C4.26768 4.89058 4.10942 4.73232 4.03906 4.53125C3.99979 4.41899 4 4.27927 4 4C4 3.72073 3.99979 3.58101 4.03906 3.46875C4.10942 3.26768 4.26768 3.10942 4.46875 3.03906C4.58101 2.99979 4.72073 3 5 3H7Z" fill="#242629"/>
</svg>
