<svg width="14" height="14" viewBox="0 0 14 14" fill="none" xmlns="http://www.w3.org/2000/svg">
<path d="M9.77051 6C9.89156 6 9.98486 6.10664 9.96875 6.22656L9.43945 10.1201C9.37273 10.6105 9.33886 10.8554 9.22168 11.04C9.11834 11.2027 8.97006 11.3326 8.79492 11.4131C8.59624 11.5042 8.34826 11.5039 7.85352 11.5039H6.16992C5.67774 11.5039 5.43143 11.5046 5.2334 11.4141C5.05888 11.3343 4.91119 11.2055 4.80762 11.0439C4.69009 10.8606 4.65514 10.6165 4.58594 10.1289L4.03223 6.22852C4.01514 6.10809 4.10883 6 4.23047 6H9.77051ZM7 2.5C7.82843 2.5 8.5 3.17157 8.5 4H10.3545L10.4551 4.00977C10.6829 4.05643 10.8545 4.25841 10.8545 4.5C10.8545 4.74159 10.6829 4.94357 10.4551 4.99023L10.3545 5H3.64941C3.37333 4.99994 3.14941 4.7761 3.14941 4.5C3.14941 4.2239 3.37333 4.00006 3.64941 4H5.5C5.5 3.17157 6.17157 2.5 7 2.5ZM7 3.5C6.72386 3.5 6.5 3.72386 6.5 4H7.5C7.5 3.72386 7.27614 3.5 7 3.5Z" fill="#242629"/>
</svg>
