<svg width="14" height="14" viewBox="0 0 14 14" fill="none" xmlns="http://www.w3.org/2000/svg">
<path d="M6.88281 8C8.05199 8.00025 8.99975 8.94801 9 10.1172C9 10.6045 8.6045 11 8.11719 11H2.88281C2.3955 11 2 10.6045 2 10.1172C2.00025 8.94801 2.94801 8.00025 4.11719 8H6.88281ZM9.88281 8C11.052 8.00022 11.9998 8.94799 12 10.1172C12 10.6043 11.6053 10.9998 11.1182 11H9.78125C9.92111 10.7369 10 10.436 10 10.1172C9.99988 9.29991 9.68555 8.55591 9.1709 8H9.88281ZM5.5 3C6.60457 3 7.5 3.89543 7.5 5C7.5 6.10457 6.60457 7 5.5 7C4.39543 7 3.5 6.10457 3.5 5C3.5 3.89543 4.39543 3 5.5 3ZM8.5 3C9.60457 3 10.5 3.89543 10.5 5C10.5 6.10457 9.60457 7 8.5 7C8.26617 6.99999 8.04158 6.9595 7.83301 6.88574C8.25002 6.37048 8.5 5.71451 8.5 5C8.5 4.28549 8.25002 3.62953 7.83301 3.11426C8.04158 3.0405 8.26617 3.00001 8.5 3Z" fill="#242629"/>
</svg>
