<svg width="14" height="14" viewBox="0 0 14 14" fill="none" xmlns="http://www.w3.org/2000/svg">
<path d="M9.07312 2.5C9.61205 2.50009 10.0767 2.88075 10.1825 3.40918L10.4266 4.63379C10.7504 6.25275 9.77775 7.84906 8.19031 8.30273C7.78214 8.41937 7.49988 8.79326 7.49988 9.21777V9.51855C7.50004 9.81916 7.6512 10.0997 7.90125 10.2666L8.85535 10.9033C8.94581 10.9636 9.0007 11.0651 9.00085 11.1738C9.00085 11.3537 8.85451 11.4999 8.67468 11.5H5.32605C5.14632 11.4998 5.00085 11.3536 5.00085 11.1738C5.00101 11.0652 5.05509 10.9637 5.14539 10.9033L6.09949 10.2666C6.34961 10.0998 6.49972 9.81921 6.49988 9.51855V9.21777C6.49988 8.79337 6.2194 8.41947 5.8114 8.30273C4.22387 7.84915 3.2494 6.25278 3.57312 4.63379L3.81824 3.40918C3.92408 2.88077 4.3887 2.50008 4.92761 2.5H9.07312ZM5.06921 3.5C4.91638 3.50008 4.78824 3.71823 4.77136 3.87012L4.57117 5.11523C4.55598 5.25443 4.63945 5.38655 4.77332 5.42773C6.98954 6.10941 6.95907 4.76949 9.02136 5.02832C9.22283 5.05362 9.40496 4.88932 9.38269 4.6875L9.23035 3.87012C9.2135 3.71828 9.08428 3.50029 8.93152 3.5H5.06921Z" fill="#242629"/>
</svg>
