<svg width="14" height="14" viewBox="0 0 14 14" fill="none" xmlns="http://www.w3.org/2000/svg">
<path d="M10 8C11.1046 8 12 8.89543 12 10C12 11.1046 11.1046 12 10 12C8.89543 12 8 11.1046 8 10C8 8.89543 8.89543 8 10 8ZM3.5 7C3.77614 7 4 7.22386 4 7.5V8.5C4 9.32843 4.67157 10 5.5 10H6.5C6.77614 10 7 10.2239 7 10.5C7 10.7761 6.77614 11 6.5 11H5.5C4.11929 11 3 9.88071 3 8.5V7.5C3 7.22386 3.22386 7 3.5 7ZM8.5 3C9.88071 3 11 4.11929 11 5.5V6.5C11 6.77614 10.7761 7 10.5 7C10.2239 7 10 6.77614 10 6.5V5.5C10 4.67157 9.32843 4 8.5 4H7.5C7.22386 4 7 3.77614 7 3.5C7 3.22386 7.22386 3 7.5 3H8.5ZM4 2C5.10457 2 6 2.89543 6 4C6 5.10457 5.10457 6 4 6C2.89543 6 2 5.10457 2 4C2 2.89543 2.89543 2 4 2Z" fill="#242629"/>
</svg>
