<svg width="12" height="12" viewBox="0 0 12 12" fill="none" xmlns="http://www.w3.org/2000/svg">
<path fill-rule="evenodd" clip-rule="evenodd" d="M4.87709 3.25188L4.01683 5.5459C3.91438 5.81911 3.65319 6.00011 3.3614 6.00011H1.5C1.22386 6.00011 1 5.77625 1 5.50011C1 5.22397 1.22386 5.00011 1.5 5.00011H3.1535L4.2954 1.95503C4.53993 1.30296 5.48309 1.36914 5.63417 2.04897L7.12291 8.74834L7.98317 6.45432C8.08562 6.18111 8.34681 6.00011 8.6386 6.00011H10.5C10.7761 6.00011 11 6.22397 11 6.50011C11 6.77625 10.7761 7.00011 10.5 7.00011H8.8465L7.7046 10.0452C7.46007 10.6973 6.51691 10.6311 6.36583 9.95125L4.87709 3.25188Z" fill="currentColor"/>
</svg>
