<svg width="12" height="12" viewBox="0 0 12 12" fill="none" xmlns="http://www.w3.org/2000/svg">
<g clip-path="url(#clip0_19836_379922)">
<path fill-rule="evenodd" clip-rule="evenodd" d="M1.50713 0.150024C1.2586 0.150024 1.11581 0.315552 1.08252 0.355298C1.03044 0.417492 0.995415 0.483127 0.974229 0.526587C0.929497 0.618343 0.893359 0.72351 0.867265 0.807009C0.86242 0.822513 0.857715 0.837948 0.853164 0.853198C0.837914 0.85775 0.822479 0.862455 0.806975 0.8673C0.723476 0.893393 0.618309 0.929532 0.526552 0.974263C0.483093 0.995449 0.417458 1.03047 0.355264 1.08256C0.315517 1.11585 0.14999 1.25864 0.14999 1.50717C0.14999 1.7557 0.315517 1.89849 0.355264 1.93178C0.417458 1.98386 0.483093 2.01889 0.526552 2.04007C0.618309 2.0848 0.723476 2.12094 0.806975 2.14703C0.822479 2.15188 0.837914 2.15659 0.853164 2.16114C0.857715 2.17639 0.86242 2.19182 0.867265 2.20733C0.893359 2.29082 0.929497 2.39599 0.974229 2.48775C0.995415 2.53121 1.03044 2.59684 1.08252 2.65904C1.11581 2.69878 1.2586 2.86431 1.50713 2.86431C1.75566 2.86431 1.89845 2.69878 1.93174 2.65904C1.98383 2.59684 2.01885 2.53121 2.04004 2.48775C2.08477 2.39599 2.12091 2.29082 2.147 2.20733C2.15185 2.19182 2.15655 2.17639 2.1611 2.16114C2.17635 2.15659 2.19179 2.15188 2.20729 2.14703C2.29079 2.12094 2.39596 2.0848 2.48771 2.04007C2.53117 2.01889 2.59681 1.98386 2.659 1.93178C2.69875 1.89849 2.86428 1.7557 2.86428 1.50717C2.86428 1.25864 2.69875 1.11585 2.659 1.08256C2.59681 1.03047 2.53117 0.995449 2.48771 0.974263C2.39596 0.929532 2.29079 0.893393 2.20729 0.8673C2.19179 0.862455 2.17635 0.85775 2.1611 0.853199C2.15655 0.837948 2.15185 0.822513 2.147 0.807009C2.12091 0.72351 2.08477 0.618343 2.04004 0.526587C2.01885 0.483127 1.98383 0.417492 1.93174 0.355298C1.89845 0.315552 1.75566 0.150024 1.50713 0.150024ZM5.08795 4.65675C5.21751 3.66256 5.47196 2.8096 5.72808 2.21552C5.82477 1.99124 5.9181 1.81226 6 1.68001C6.08191 1.81226 6.17523 1.99124 6.27193 2.21552C6.52805 2.8096 6.7825 3.66256 6.91206 4.65674C6.94136 4.88164 7.11837 5.05864 7.34326 5.08794C8.33746 5.21749 9.19043 5.47195 9.78452 5.72807C10.0088 5.82476 10.1878 5.91809 10.3201 6C10.1878 6.08191 10.0088 6.17523 9.78452 6.27193C9.19043 6.52805 8.33746 6.78251 7.34326 6.91206C7.11837 6.94137 6.94137 7.11837 6.91207 7.34326C6.78251 8.33746 6.52806 9.19043 6.27193 9.78453C6.17524 10.0088 6.08191 10.1878 6 10.3201C5.91809 10.1878 5.82477 10.0088 5.72807 9.78453C5.47195 9.19043 5.21749 8.33746 5.08794 7.34326C5.05864 7.11836 4.88164 6.94136 4.65675 6.91206C3.66256 6.7825 2.8096 6.52805 2.21552 6.27192C1.99123 6.17523 1.81226 6.0819 1.68 6C1.81226 5.91809 1.99123 5.82477 2.21552 5.72807C2.8096 5.47195 3.66256 5.2175 4.65675 5.08795C4.88164 5.05864 5.05865 4.88164 5.08795 4.65675ZM6.17068 1.45461C6.17728 1.44915 6.17694 1.45045 6.17007 1.45512L6.17068 1.45461ZM5.82994 1.45512C5.82306 1.45045 5.82272 1.44915 5.82932 1.45461L5.82994 1.45512ZM10.5454 6.17068C10.5509 6.17728 10.5496 6.17694 10.5449 6.17007L10.5454 6.17068ZM10.549 5.82457C10.549 5.82445 10.5474 5.82625 10.5449 5.82993L10.5454 5.82932C10.548 5.82625 10.5491 5.82468 10.549 5.82457ZM5.82932 10.5455C5.82272 10.5509 5.82306 10.5496 5.82993 10.5449L5.82932 10.5455ZM6.17007 10.5449C6.17694 10.5496 6.17728 10.5509 6.17068 10.5455L6.17007 10.5449ZM1.4546 5.82932C1.44914 5.82271 1.45045 5.82305 1.45511 5.82993L1.4546 5.82932ZM1.45511 6.17006C1.45045 6.17694 1.44914 6.17728 1.4546 6.17068L1.45511 6.17006ZM6 0.499996C5.78318 0.499996 5.6205 0.611986 5.53362 0.68379C5.43445 0.765752 5.34618 0.869139 5.26899 0.975307C5.113 1.18985 4.95614 1.48015 4.80978 1.81963C4.54998 2.42225 4.30297 3.22737 4.1516 4.15159C3.22738 4.30296 2.42225 4.54997 1.81962 4.80978C1.48014 4.95613 1.18985 5.113 0.975302 5.26899C0.869134 5.34618 0.765746 5.43445 0.683784 5.53362C0.611979 5.6205 0.49999 5.78317 0.49999 6C0.49999 6.21682 0.611979 6.37949 0.683783 6.46637C0.765744 6.56555 0.869132 6.65382 0.9753 6.73101C1.18985 6.887 1.48014 7.04386 1.81962 7.19022C2.42224 7.45002 3.22737 7.69704 4.15159 7.84841C4.30295 8.77264 4.54997 9.57778 4.80977 10.1804C4.95613 10.5199 5.113 10.8102 5.26899 11.0247C5.34617 11.1309 5.43445 11.2343 5.53362 11.3163C5.6205 11.3881 5.78317 11.5001 6 11.5001C6.21683 11.5001 6.3795 11.3881 6.46638 11.3163C6.56555 11.2343 6.65383 11.1309 6.73102 11.0248C6.887 10.8102 7.04387 10.5199 7.19023 10.1804C7.45004 9.57779 7.69705 8.77265 7.84842 7.84842C8.77265 7.69705 9.57779 7.45003 10.1804 7.19023C10.5199 7.04387 10.8102 6.887 11.0247 6.73101C11.1309 6.65382 11.2343 6.56555 11.3163 6.46638C11.3881 6.3795 11.5001 6.21682 11.5001 6C11.5001 5.78317 11.3881 5.6205 11.3163 5.53362C11.2343 5.43445 11.1309 5.34617 11.0247 5.26898C10.8102 5.113 10.5199 4.95613 10.1804 4.80977C9.57778 4.54997 8.77264 4.30295 7.84841 4.15159C7.69704 3.22737 7.45003 2.42225 7.19022 1.81962C7.04387 1.48014 6.887 1.18985 6.73101 0.975305C6.65382 0.869138 6.56555 0.76575 6.46638 0.683789C6.3795 0.611985 6.21682 0.499996 6 0.499996Z" fill="currentColor"/>
</g>
<defs>
<clipPath id="clip0_19836_379922">
<rect width="12" height="12" fill="white"/>
</clipPath>
</defs>
</svg>
