<svg width="12" height="12" viewBox="0 0 12 12" fill="none" xmlns="http://www.w3.org/2000/svg">
<path fill-rule="evenodd" clip-rule="evenodd" d="M3.28345 1H3.3H3.31655H3.31656C3.58203 0.999995 3.80613 0.999991 3.99062 1.01258C4.18343 1.02573 4.36922 1.05429 4.55056 1.12941C4.96711 1.30194 5.29806 1.63289 5.4706 2.04944C5.54571 2.23078 5.57427 2.41657 5.58742 2.60938C5.60001 2.79387 5.60001 3.01798 5.6 3.28346V3.28348V3.3V3.31652V3.31654C5.60001 3.58202 5.60001 3.80613 5.58742 3.99062C5.57427 4.18343 5.54571 4.36922 5.4706 4.55056C5.29806 4.96711 4.96711 5.29806 4.55056 5.4706C4.36922 5.54571 4.18343 5.57427 3.99062 5.58742C3.80613 5.60001 3.58202 5.60001 3.31654 5.6H3.31652H3.3H3.28348H3.28346C3.01798 5.60001 2.79387 5.60001 2.60938 5.58742C2.41657 5.57427 2.23078 5.54571 2.04944 5.4706C1.63289 5.29806 1.30194 4.96711 1.12941 4.55056C1.05429 4.36922 1.02573 4.18343 1.01258 3.99062C0.999991 3.80613 0.999995 3.58203 1 3.31656V3.31655V3.3V3.28346V3.28344C0.999995 3.01797 0.999991 2.79387 1.01258 2.60938C1.02573 2.41657 1.05429 2.23078 1.12941 2.04944C1.30194 1.63289 1.63289 1.30194 2.04944 1.12941C2.23078 1.05429 2.41657 1.02573 2.60938 1.01258C2.79387 0.999991 3.01797 0.999995 3.28344 1H3.28345ZM2.67745 2.01026C2.53556 2.01994 2.47131 2.03705 2.43212 2.05328C2.2606 2.12433 2.12433 2.2606 2.05328 2.43212C2.03705 2.47131 2.01994 2.53556 2.01026 2.67745C2.00027 2.82383 2 3.01359 2 3.3C2 3.58641 2.00027 3.77617 2.01026 3.92255C2.01994 4.06444 2.03705 4.12869 2.05328 4.16788C2.12433 4.3394 2.2606 4.47567 2.43212 4.54672C2.47131 4.56295 2.53556 4.58006 2.67745 4.58974C2.82383 4.59973 3.01359 4.6 3.3 4.6C3.58641 4.6 3.77617 4.59973 3.92255 4.58974C4.06444 4.58006 4.12869 4.56295 4.16788 4.54672C4.3394 4.47567 4.47567 4.3394 4.54672 4.16788C4.56295 4.12869 4.58006 4.06444 4.58974 3.92255C4.59973 3.77617 4.6 3.58641 4.6 3.3C4.6 3.01359 4.59973 2.82383 4.58974 2.67745C4.58006 2.53556 4.56295 2.47131 4.54672 2.43212C4.47567 2.2606 4.3394 2.12433 4.16788 2.05328C4.12869 2.03705 4.06444 2.01994 3.92255 2.01026C3.77617 2.00027 3.58641 2 3.3 2C3.01359 2 2.82383 2.00027 2.67745 2.01026ZM3.23486 6.5L3.25 6.5L3.26514 6.5H3.26516H3.26517H3.26518H3.26519C3.5084 6.5 3.71371 6.49999 3.88304 6.51059C4.05988 6.52166 4.23064 6.54566 4.39883 6.60896C4.857 6.78141 5.2186 7.143 5.39104 7.60118C5.45434 7.76936 5.47834 7.94013 5.48941 8.11696C5.50001 8.2863 5.50001 8.49164 5.5 8.73486V8.75001V8.76517C5.50001 9.00839 5.50001 9.21372 5.48941 9.38306C5.47834 9.5599 5.45434 9.73066 5.39104 9.89885C5.2186 10.357 4.857 10.7186 4.39883 10.8911C4.23064 10.9544 4.05988 10.9784 3.88304 10.9894C3.7137 11 3.50836 11 3.26512 11H3.25H3.23488C2.99164 11 2.78631 11 2.61696 10.9894C2.44012 10.9784 2.26936 10.9544 2.10118 10.8911C1.643 10.7186 1.28141 10.357 1.10896 9.89885C1.04566 9.73066 1.02166 9.5599 1.01059 9.38306C0.999992 9.21372 0.999996 9.0084 1 8.76518V8.76516V8.75001V8.73487V8.73485C0.999996 8.49163 0.999992 8.2863 1.01059 8.11696C1.02166 7.94013 1.04566 7.76936 1.10896 7.60118C1.28141 7.143 1.643 6.78141 2.10118 6.60896C2.26936 6.54566 2.44012 6.52166 2.61696 6.51059C2.78629 6.49999 2.9916 6.5 3.23481 6.5H3.23482H3.23483H3.23485H3.23486ZM2.67943 7.50864C2.54906 7.5168 2.48959 7.53125 2.45343 7.54487C2.26476 7.61587 2.11587 7.76476 2.04487 7.95343C2.03125 7.98959 2.0168 8.04906 2.00864 8.17943C2.00023 8.3138 2 8.48763 2 8.75001C2 9.01239 2.00023 9.18623 2.00864 9.32059C2.0168 9.45096 2.03125 9.51043 2.04487 9.5466C2.11587 9.73526 2.26476 9.88415 2.45343 9.95516C2.48959 9.96877 2.54906 9.98323 2.67943 9.99139C2.81379 9.9998 2.98763 10 3.25 10C3.51238 10 3.68621 9.9998 3.82057 9.99139C3.95094 9.98323 4.01041 9.96877 4.04658 9.95516C4.23524 9.88415 4.38413 9.73526 4.45513 9.5466C4.46875 9.51043 4.4832 9.45096 4.49136 9.32059C4.49977 9.18623 4.5 9.01239 4.5 8.75001C4.5 8.48763 4.49977 8.3138 4.49136 8.17943C4.4832 8.04906 4.46875 7.98959 4.45513 7.95343C4.38413 7.76476 4.23524 7.61587 4.04658 7.54487C4.01041 7.53125 3.95094 7.5168 3.82057 7.50864C3.68621 7.50023 3.51238 7.5 3.25 7.5C2.98763 7.5 2.81379 7.50023 2.67943 7.50864ZM8.75 6.5L8.73486 6.5H8.73485H8.73483H8.73482C8.49161 6.5 8.28629 6.49999 8.11696 6.51059C7.94012 6.52166 7.76936 6.54566 7.60118 6.60896C7.143 6.78141 6.78141 7.143 6.60896 7.60118C6.54566 7.76936 6.52166 7.94013 6.51059 8.11696C6.49999 8.2863 6.5 8.49162 6.5 8.73483V8.73484V8.73486V8.73487L6.5 8.75001L6.5 8.76516V8.76517V8.76518V8.76519C6.5 9.00841 6.49999 9.21373 6.51059 9.38306C6.52166 9.5599 6.54566 9.73066 6.60896 9.89885C6.78141 10.357 7.143 10.7186 7.60118 10.8911C7.76936 10.9544 7.94012 10.9784 8.11696 10.9894C8.28631 11 8.49164 11 8.73488 11H8.75H8.76512C9.00836 11 9.2137 11 9.38304 10.9894C9.55988 10.9784 9.73064 10.9544 9.89883 10.8911C10.357 10.7186 10.7186 10.357 10.891 9.89885C10.9543 9.73066 10.9783 9.5599 10.9894 9.38306C11 9.21372 11 9.00839 11 8.76517V8.75001V8.73486C11 8.49164 11 8.2863 10.9894 8.11696C10.9783 7.94013 10.9543 7.76936 10.891 7.60118C10.7186 7.143 10.357 6.78141 9.89883 6.60896C9.73064 6.54566 9.55988 6.52166 9.38304 6.51059C9.21371 6.49999 9.00839 6.5 8.76518 6.5H8.76517H8.76516H8.76514L8.75 6.5ZM7.95343 7.54487C7.98959 7.53125 8.04906 7.5168 8.17943 7.50864C8.31379 7.50023 8.48763 7.5 8.75 7.5C9.01238 7.5 9.18621 7.50023 9.32057 7.50864C9.45094 7.5168 9.51041 7.53125 9.54658 7.54487C9.73524 7.61587 9.88413 7.76476 9.95513 7.95343C9.96875 7.98959 9.9832 8.04906 9.99136 8.17943C9.99977 8.3138 10 8.48763 10 8.75001C10 9.01239 9.99977 9.18623 9.99136 9.32059C9.9832 9.45096 9.96875 9.51043 9.95513 9.5466C9.88413 9.73526 9.73524 9.88415 9.54658 9.95516C9.51041 9.96877 9.45094 9.98323 9.32057 9.99139C9.18621 9.9998 9.01238 10 8.75 10C8.48763 10 8.31379 9.9998 8.17943 9.99139C8.04906 9.98323 7.98959 9.96877 7.95343 9.95516C7.76476 9.88415 7.61587 9.73526 7.54487 9.5466C7.53125 9.51043 7.5168 9.45096 7.50864 9.32059C7.50023 9.18623 7.5 9.01239 7.5 8.75001C7.5 8.48763 7.50023 8.3138 7.50864 8.17943C7.5168 8.04906 7.53125 7.98959 7.54487 7.95343C7.61587 7.76476 7.76476 7.61587 7.95343 7.54487ZM7 3C7 2.72386 7.22386 2.5 7.5 2.5H8.5V1.5C8.5 1.22386 8.72386 1 9 1C9.27614 1 9.5 1.22386 9.5 1.5V2.5H10.5C10.7761 2.5 11 2.72386 11 3C11 3.27614 10.7761 3.5 10.5 3.5H9.5V4.5C9.5 4.77614 9.27614 5 9 5C8.72386 5 8.5 4.77614 8.5 4.5V3.5H7.5C7.22386 3.5 7 3.27614 7 3Z" fill="currentColor"/>
</svg>
