<svg width="12" height="12" viewBox="0 0 12 12" fill="none" xmlns="http://www.w3.org/2000/svg">
<path fill-rule="evenodd" clip-rule="evenodd" d="M6 10C6.13261 10 6.25979 9.94732 6.35355 9.85355L8.85355 7.35355C9.04882 7.15829 9.04882 6.84171 8.85355 6.64645C8.65829 6.45118 8.34171 6.45118 8.14645 6.64645L6.5 8.29289L6.5 2.5C6.5 2.22386 6.27614 2 6 2C5.72386 2 5.5 2.22386 5.5 2.5L5.5 8.29289L3.85355 6.64645C3.65829 6.45118 3.34171 6.45118 3.14645 6.64645C2.95118 6.84171 2.95118 7.15829 3.14645 7.35355L5.64645 9.85355C5.74022 9.94732 5.86739 10 6 10Z" fill="currentColor"/>
</svg>
