<svg width="12" height="12" viewBox="0 0 12 12" fill="none" xmlns="http://www.w3.org/2000/svg">
<path fill-rule="evenodd" clip-rule="evenodd" d="M8.03368 1.43228C7.06907 1.0028 5.99326 0.889732 4.96044 1.10927C3.92762 1.3288 2.99081 1.86967 2.28427 2.65435C1.57774 3.43903 1.13776 4.42725 1.02739 5.47736C0.998526 5.75199 1.19776 5.99802 1.47239 6.02689C1.74702 6.05575 1.99305 5.85652 2.02191 5.58189C2.11021 4.7418 2.46219 3.95123 3.02742 3.32348C3.59265 2.69573 4.34209 2.26304 5.16835 2.08741C5.99461 1.91179 6.85526 2.00224 7.62694 2.34582C8.39859 2.68938 9.04167 3.26839 9.46403 3.99987L7.99996 4C7.72381 4.00003 7.49998 4.22391 7.5 4.50005C7.50002 4.77619 7.7239 5.00003 8.00004 5L9.64289 4.99986C10.3923 4.99979 10.9998 4.3923 10.9999 3.6429L11 2.00005C11 1.72391 10.7762 1.50003 10.5 1.5C10.2239 1.49998 10 1.72382 10 1.99996L9.99991 2.99988C9.49073 2.32101 8.81492 1.7801 8.03368 1.43228ZM3.96632 10.5677C4.93093 10.9972 6.00674 11.1103 7.03956 10.8907C8.07238 10.6712 9.00919 10.1303 9.71572 9.34566C10.4223 8.56097 10.8622 7.57276 10.9726 6.52265C11.0015 6.24802 10.8022 6.00198 10.5276 5.97312C10.253 5.94426 10.007 6.14349 9.97809 6.41812C9.88979 7.25821 9.53781 8.04878 8.97258 8.67652C8.40735 9.30427 7.65791 9.73697 6.83165 9.91259C6.00539 10.0882 5.14474 9.99776 4.37305 9.65418C3.60141 9.31063 2.95833 8.73162 2.53597 8.00013L4.00004 8C4.27619 7.99998 4.50002 7.7761 4.5 7.49996C4.49998 7.22382 4.2761 6.99998 3.99996 7L2.3571 7.00015C1.6077 7.00022 1.00021 7.60771 1.00015 8.35711L1 9.99996C0.999975 10.2761 1.22381 10.5 1.49996 10.5C1.7761 10.5 1.99998 10.2762 2 10L2.00009 9.00013C2.50927 9.679 3.18508 10.2199 3.96632 10.5677Z" fill="currentColor"/>
</svg>
