<svg width="12" height="12" viewBox="0 0 12 12" fill="none" xmlns="http://www.w3.org/2000/svg">
<path fill-rule="evenodd" clip-rule="evenodd" d="M3.14645 8.85355C3.05268 8.75979 3 8.63261 3 8.5L3 5C3 4.72386 3.22386 4.5 3.5 4.5C3.77614 4.5 4 4.72386 4 5L4 7.29289L8.14645 3.14645C8.34171 2.95118 8.65829 2.95118 8.85355 3.14645C9.04882 3.34171 9.04882 3.65829 8.85355 3.85355L4.70711 8H7C7.27614 8 7.5 8.22386 7.5 8.5C7.5 8.77614 7.27614 9 7 9H3.5C3.36739 9 3.24021 8.94732 3.14645 8.85355Z" fill="currentColor"/>
</svg>
