<svg width="12" height="12" viewBox="0 0 12 12" fill="none" xmlns="http://www.w3.org/2000/svg">
<path fill-rule="evenodd" clip-rule="evenodd" d="M8.85355 8.85355C8.94732 8.75979 9 8.63261 9 8.5L9 5C9 4.72386 8.77614 4.5 8.5 4.5C8.22386 4.5 8 4.72386 8 5V7.29289L3.85355 3.14645C3.65829 2.95118 3.34171 2.95118 3.14645 3.14645C2.95118 3.34171 2.95118 3.65829 3.14645 3.85355L7.29289 8H5C4.72386 8 4.5 8.22386 4.5 8.5C4.5 8.77614 4.72386 9 5 9H8.5C8.63261 9 8.75979 8.94732 8.85355 8.85355Z" fill="black" fill-opacity="0.25"/>
</svg>
