<svg width="12" height="12" viewBox="0 0 12 12" fill="none" xmlns="http://www.w3.org/2000/svg">
<path fill-rule="evenodd" clip-rule="evenodd" d="M3.14645 3.14645C3.05268 3.24021 3 3.36739 3 3.5L3 7C3 7.27614 3.22386 7.5 3.5 7.5C3.77614 7.5 4 7.27614 4 7L4 4.70711L8.14645 8.85355C8.34171 9.04882 8.65829 9.04882 8.85355 8.85355C9.04882 8.65829 9.04882 8.34171 8.85355 8.14645L4.70711 4L7 4C7.27614 4 7.5 3.77614 7.5 3.5C7.5 3.22386 7.27614 3 7 3L3.5 3C3.36739 3 3.24021 3.05268 3.14645 3.14645Z" fill="currentColor"/>
</svg>
