<svg width="12" height="12" viewBox="0 0 12 12" fill="none" xmlns="http://www.w3.org/2000/svg">
<path fill-rule="evenodd" clip-rule="evenodd" d="M6 2C6.13261 2 6.25979 2.05268 6.35355 2.14645L8.85355 4.64645C9.04882 4.84171 9.04882 5.15829 8.85355 5.35355C8.65829 5.54882 8.34171 5.54882 8.14645 5.35355L6.5 3.70711L6.5 9.5C6.5 9.77614 6.27614 10 6 10C5.72386 10 5.5 9.77614 5.5 9.5L5.5 3.70711L3.85355 5.35355C3.65829 5.54882 3.34171 5.54882 3.14645 5.35355C2.95118 5.15829 2.95118 4.84171 3.14645 4.64645L5.64645 2.14645C5.74022 2.05268 5.86739 2 6 2Z" fill="currentColor"/>
</svg>
