<svg width="12" height="12" viewBox="0 0 12 12" fill="none" xmlns="http://www.w3.org/2000/svg">
<path fill-rule="evenodd" clip-rule="evenodd" d="M1.5 6C1.5 6.13261 1.55268 6.25979 1.64645 6.35355L4.14645 8.85355C4.34171 9.04882 4.65829 9.04882 4.85355 8.85355C5.04882 8.65829 5.04882 8.34171 4.85355 8.14645L3.20711 6.5L10 6.5C10.2761 6.5 10.5 6.27614 10.5 6C10.5 5.72386 10.2761 5.5 10 5.5L3.20711 5.5L4.85355 3.85355C5.04882 3.65829 5.04882 3.34171 4.85355 3.14645C4.65829 2.95118 4.34171 2.95118 4.14645 3.14645L1.64645 5.64645C1.55268 5.74022 1.5 5.86739 1.5 6Z" fill="currentColor"/>
</svg>
