<svg width="12" height="12" viewBox="0 0 12 12" fill="none" xmlns="http://www.w3.org/2000/svg">
<path fill-rule="evenodd" clip-rule="evenodd" d="M8.10476 0.918665C7.09977 0.502383 5.9939 0.393465 4.92701 0.605683C3.86011 0.817902 2.8801 1.34173 2.11092 2.11092C1.34173 2.8801 0.817902 3.86011 0.605683 4.92701C0.393465 5.9939 0.502383 7.09977 0.918665 8.10476C1.33495 9.10976 2.0399 9.96874 2.94437 10.5731C3.84884 11.1774 4.91221 11.5 6 11.5C6.27614 11.5 6.5 11.2761 6.5 11C6.5 10.7239 6.27614 10.5 6 10.5C5.10999 10.5 4.23996 10.2361 3.49994 9.74162C2.75992 9.24715 2.18314 8.54435 1.84254 7.72208C1.50195 6.89981 1.41284 5.99501 1.58647 5.1221C1.7601 4.24918 2.18869 3.44736 2.81802 2.81802C3.44736 2.18869 4.24918 1.7601 5.1221 1.58647C5.99501 1.41284 6.89981 1.50195 7.72208 1.84254C8.54435 2.18314 9.24715 2.75992 9.74162 3.49994C10.2361 4.23996 10.5 5.10999 10.5 6C10.5 6.00779 10.5002 6.01553 10.5005 6.02323C10.5002 6.0306 10.5 6.03801 10.5 6.04546V7.24998C10.5 7.66421 10.1643 8 9.75002 8C9.3358 8 9 7.66421 9 7.24998L9 6L9 4C9 3.72386 8.77614 3.5 8.5 3.5C8.29447 3.5 8.11789 3.62402 8.04104 3.80131C7.50563 3.30407 6.78833 3 6 3C4.34315 3 3 4.34315 3 6C3 7.65686 4.34315 9 6 9C6.86508 9 7.64465 8.63384 8.19216 8.04805C8.48229 8.61327 9.071 9 9.75002 9C10.7165 9 11.5 8.21649 11.5 7.24998V6.04546C11.5 6.03767 11.4999 6.02993 11.4995 6.02223C11.4998 6.01486 11.5 6.00745 11.5 6C11.5 4.91221 11.1774 3.84884 10.5731 2.94437C9.96874 2.0399 9.10976 1.33495 8.10476 0.918665ZM6 4C7.10457 4 8 4.89543 8 6C8 7.10457 7.10457 8 6 8C4.89543 8 4 7.10457 4 6C4 4.89543 4.89543 4 6 4Z" fill="currentColor"/>
</svg>
