<svg width="12" height="12" viewBox="0 0 12 12" fill="none" xmlns="http://www.w3.org/2000/svg">
<path fill-rule="evenodd" clip-rule="evenodd" d="M4.75 1.5C3.7835 1.5 3 2.2835 3 3.25V7.75011C3 9.26889 4.23122 10.5001 5.75 10.5001C7.26878 10.5001 8.5 9.26889 8.5 7.75011V2.50011C8.5 2.22396 8.72386 2.00011 9 2.00011C9.27614 2.00011 9.5 2.22396 9.5 2.50011V7.75011C9.5 9.82117 7.82107 11.5001 5.75 11.5001C3.67893 11.5001 2 9.82117 2 7.75011V3.25C2 1.73121 3.23122 0.5 4.75 0.5C6.26878 0.5 7.5 1.73122 7.5 3.25V7.75C7.5 8.7165 6.7165 9.5 5.75 9.5C4.7835 9.5 4 8.7165 4 7.75V3.72738C4 3.45124 4.22386 3.22738 4.5 3.22738C4.77614 3.22738 5 3.45124 5 3.72738V7.75C5 8.16421 5.33579 8.5 5.75 8.5C6.16421 8.5 6.5 8.16421 6.5 7.75V3.25C6.5 2.2835 5.7165 1.5 4.75 1.5Z" fill="currentColor"/>
</svg>
