<svg width="12" height="12" viewBox="0 0 12 12" fill="none" xmlns="http://www.w3.org/2000/svg">
<path fill-rule="evenodd" clip-rule="evenodd" d="M2.98005 0.5H3H3.01995H3.01996C3.35576 0.499993 3.63732 0.499988 3.86706 0.518498C4.10651 0.537792 4.33481 0.579697 4.55042 0.689555C4.87766 0.856292 5.14371 1.12235 5.31045 1.44959C5.4203 1.6652 5.46221 1.89349 5.4815 2.13295C5.50001 2.36267 5.50001 2.64422 5.5 2.98V2.98001V2.98002V2.98003V2.98004V3V3.01996V3.01997V3.01998V3.01999V3.02C5.50001 3.35578 5.50001 3.63733 5.4815 3.86706C5.46221 4.10651 5.4203 4.33481 5.31045 4.55042C5.14371 4.87766 4.87766 5.14371 4.55042 5.31045C4.33481 5.4203 4.10651 5.46221 3.86706 5.4815C3.63733 5.50001 3.35578 5.50001 3.02 5.5H3.01999H3.01998H3.01997H3.01996H3H2.98004H2.98003H2.98002H2.98001H2.98C2.64422 5.50001 2.36267 5.50001 2.13295 5.4815C1.89349 5.46221 1.6652 5.4203 1.44959 5.31045C1.12235 5.14371 0.856292 4.87766 0.689555 4.55042C0.579697 4.33481 0.537792 4.10651 0.518498 3.86706C0.499988 3.63732 0.499993 3.35576 0.5 3.01996V3.01995V3V2.98005V2.98004C0.499993 2.64424 0.499988 2.36268 0.518498 2.13295C0.537792 1.89349 0.579697 1.6652 0.689555 1.44959C0.856292 1.12235 1.12235 0.856292 1.44959 0.689555C1.6652 0.579697 1.89349 0.537792 2.13295 0.518498C2.36268 0.499988 2.64424 0.499993 2.98004 0.5H2.98005ZM2.21326 1.51527C2.03366 1.52974 1.95303 1.55536 1.90358 1.58056C1.7645 1.65143 1.65143 1.7645 1.58056 1.90358C1.55536 1.95303 1.52974 2.03366 1.51527 2.21326C1.50038 2.39804 1.5 2.63904 1.5 3C1.5 3.36096 1.50038 3.60197 1.51527 3.78674C1.52974 3.96634 1.55536 4.04697 1.58056 4.09643C1.65143 4.2355 1.7645 4.34858 1.90358 4.41944C1.95303 4.44464 2.03366 4.47026 2.21326 4.48473C2.39804 4.49962 2.63904 4.5 3 4.5C3.36096 4.5 3.60197 4.49962 3.78674 4.48473C3.96634 4.47026 4.04697 4.44464 4.09643 4.41944C4.2355 4.34858 4.34858 4.2355 4.41944 4.09643C4.44464 4.04697 4.47026 3.96634 4.48473 3.78674C4.49962 3.60197 4.5 3.36096 4.5 3C4.5 2.63904 4.49962 2.39804 4.48473 2.21326C4.47026 2.03366 4.44464 1.95303 4.41944 1.90358C4.34858 1.7645 4.2355 1.65143 4.09643 1.58056C4.04697 1.55536 3.96634 1.52974 3.78674 1.51527C3.60197 1.50038 3.36096 1.5 3 1.5C2.63904 1.5 2.39804 1.50038 2.21326 1.51527ZM3 7.66898L1.58865 8.92351L2.17983 10.5H3.82017L4.41135 8.92351L3 7.66898ZM2.39341 6.87022C2.73935 6.56272 3.26066 6.56272 3.6066 6.87022L5.12032 8.21575C5.40251 8.46659 5.5012 8.86524 5.36863 9.21876L4.73534 10.9075C4.6017 11.2639 4.26102 11.5 3.88043 11.5H2.11957C1.73898 11.5 1.3983 11.2639 1.26466 10.9075L0.631368 9.21876C0.498798 8.86524 0.597494 8.46659 0.879685 8.21575L2.39341 6.87022ZM8.78146 1.92294C8.87671 1.75148 9.12329 1.75148 9.21854 1.92293L10.4439 4.12859C10.5365 4.29522 10.416 4.5 10.2254 4.5H7.77464C7.58402 4.5 7.46352 4.29522 7.5561 4.12859L8.78146 1.92294ZM10.0927 1.43729C9.61644 0.580029 8.38356 0.580031 7.9073 1.43729L6.68194 3.64295C6.21907 4.47611 6.82153 5.5 7.77464 5.5H10.2254C11.1785 5.5 11.7809 4.47611 11.3181 3.64295L10.0927 1.43729ZM7 9C7 8.72386 7.22386 8.5 7.5 8.5H8.5V7.5C8.5 7.22386 8.72386 7 9 7C9.27614 7 9.5 7.22386 9.5 7.5V8.5H10.5C10.7761 8.5 11 8.72386 11 9C11 9.27614 10.7761 9.5 10.5 9.5H9.5V10.5C9.5 10.7761 9.27614 11 9 11C8.72386 11 8.5 10.7761 8.5 10.5V9.5H7.5C7.22386 9.5 7 9.27614 7 9Z" fill="currentColor"/>
</svg>
