<svg width="13" height="12" viewBox="0 0 13 12" fill="none" xmlns="http://www.w3.org/2000/svg">
<path fill-rule="evenodd" clip-rule="evenodd" d="M4.16187 1.20265C4.41462 0.767662 4.87971 0.5 5.3828 0.5H7.72247C8.22556 0.5 8.69065 0.767663 8.9434 1.20265L9.88495 2.82308C10.124 3.23443 10.1398 3.73848 9.92702 4.164L9.64721 4.72361C9.52372 4.9706 9.22338 5.07071 8.97639 4.94721C8.7294 4.82372 8.62929 4.52338 8.75279 4.27639L9.03259 3.71679C9.09468 3.59261 9.09007 3.44552 9.02032 3.32548L8.2563 2.01059L4.58906 8.29327C4.51429 8.42137 4.51413 8.57978 4.58865 8.70802L5.77443 10.7488C5.86429 10.9035 5.86469 11.0944 5.77546 11.2494C5.68624 11.4044 5.52099 11.5 5.34211 11.5H2.47753C1.97445 11.5 1.50935 11.2323 1.2566 10.7974L0.333936 9.20942C0.0790768 8.77081 0.0790774 8.22919 0.333936 7.79058L4.16187 1.20265ZM7.39644 1.5H5.3828C5.23599 1.5 5.10026 1.57811 5.0265 1.70505L1.19857 8.29297C1.1242 8.42097 1.1242 8.57903 1.19857 8.70703L2.12124 10.295C2.195 10.4219 2.33072 10.5 2.47753 10.5H4.47331L3.72401 9.21042C3.46865 8.77094 3.46919 8.22813 3.72542 7.78916L7.39644 1.5ZM8.99827 7.00053L8.97584 7.04473C8.70378 7.58086 8.10658 7.8686 7.51774 7.74726L7.47038 7.7375C7.44982 7.76211 7.42983 7.7872 7.41042 7.81275L7.43223 7.86075C7.6804 8.40684 7.53335 9.05143 7.0729 9.43586L7.0328 9.46935C7.03919 9.50102 7.04631 9.53242 7.05413 9.56353L7.10307 9.57584C7.68538 9.72229 8.09796 10.2399 8.11088 10.8402L8.112 10.8926C8.14006 10.907 8.16848 10.9207 8.19724 10.9338L8.23621 10.9041C8.71416 10.5388 9.37751 10.5388 9.85546 10.9041L9.89442 10.9338C9.92319 10.9207 9.95161 10.907 9.97967 10.8926L9.98079 10.8402C9.99371 10.2399 10.4063 9.72229 10.9886 9.57584L11.0375 9.56353C11.0454 9.53242 11.0525 9.50102 11.0589 9.46935L11.0188 9.43586C10.5583 9.05143 10.4113 8.40684 10.6594 7.86075L10.6812 7.81275C10.6618 7.7872 10.6418 7.76211 10.6213 7.7375L10.5739 7.74726C9.98509 7.8686 9.38789 7.58086 9.11583 7.04473L9.0934 7.00053C9.06171 6.99982 9.02996 6.99982 8.99827 7.00053ZM8.87396 6.0047C8.98823 5.99843 9.10344 5.99843 9.21771 6.0047C9.55999 6.02347 9.8276 6.23753 9.96058 6.49958L10.0076 6.59221C10.0756 6.72624 10.2249 6.79818 10.3721 6.76784L10.4722 6.74722C10.7598 6.68796 11.0936 6.7636 11.3217 7.01881C11.3988 7.10507 11.4711 7.19576 11.5381 7.29045C11.7356 7.56929 11.7351 7.91081 11.6139 8.17751L11.5698 8.27447C11.5078 8.41099 11.5446 8.57214 11.6597 8.66825L11.7409 8.73608C11.9654 8.92348 12.1139 9.23022 12.0577 9.56657C12.0383 9.68236 12.0125 9.79601 11.9805 9.9071C11.8858 10.236 11.618 10.4487 11.3338 10.5202L11.2325 10.5456C11.0869 10.5822 10.9838 10.7117 10.9806 10.8617L10.9783 10.9678C10.972 11.2603 10.8249 11.5681 10.5266 11.734C10.4257 11.7901 10.3214 11.8406 10.2138 11.8853C9.89713 12.0166 9.56335 11.9394 9.33024 11.7613L9.24824 11.6986C9.12875 11.6073 8.96292 11.6073 8.84343 11.6986L8.76143 11.7613C8.52832 11.9394 8.19454 12.0166 7.87785 11.8853C7.77032 11.8406 7.66592 11.7901 7.56508 11.734C7.26673 11.5681 7.11968 11.2603 7.11339 10.9678L7.11111 10.8617C7.10788 10.7117 7.00473 10.5822 6.85916 10.5456L6.75786 10.5202C6.47367 10.4487 6.20587 10.236 6.1112 9.9071C6.07922 9.79601 6.05336 9.68236 6.034 9.56657C5.97778 9.23022 6.1263 8.92348 6.35075 8.73608L6.43199 8.66825C6.54711 8.57214 6.58387 8.41099 6.52183 8.27447L6.47777 8.17751C6.35657 7.91081 6.35605 7.56929 6.55352 7.29045C6.62059 7.19576 6.69288 7.10507 6.76998 7.01881C6.99811 6.7636 7.33191 6.68796 7.61947 6.74722L7.71956 6.76784C7.86677 6.79818 8.01607 6.72624 8.08409 6.59221L8.13109 6.49958C8.26406 6.23753 8.53168 6.02347 8.87396 6.0047ZM9.42419 9.42431C9.65847 9.19002 9.65847 8.81003 9.42419 8.57574C9.1899 8.34145 8.80991 8.34145 8.57562 8.57574C8.34133 8.81003 8.34133 9.19002 8.57562 9.42431C8.80991 9.6586 9.1899 9.6586 9.42419 9.42431Z" fill="currentColor"/>
</svg>
