<svg width="12" height="12" viewBox="0 0 12 12" fill="none" xmlns="http://www.w3.org/2000/svg">
<path fill-rule="evenodd" clip-rule="evenodd" d="M4.17862 1H4.20002H7.8H7.8214C8.36329 0.999995 8.80037 0.999991 9.15431 1.02891C9.51873 1.05868 9.83883 1.12159 10.135 1.27248C10.6054 1.51217 10.9878 1.89462 11.2275 2.36502C11.3784 2.66117 11.4413 2.98126 11.4711 3.34569C11.5 3.69961 11.5 4.13667 11.5 4.67853V4.67858V4.7V7.3V7.32142V7.32147C11.5 7.86333 11.5 8.30039 11.4711 8.65431C11.4413 9.01874 11.3784 9.33883 11.2275 9.63498C10.9878 10.1054 10.6054 10.4878 10.135 10.7275C9.83883 10.8784 9.51873 10.9413 9.15431 10.9711C8.80039 11 8.36333 11 7.82147 11H7.82141H7.8H4.20001H4.1786H4.17854C3.63668 11 3.19962 11 2.8457 10.9711C2.48127 10.9413 2.16117 10.8784 1.86503 10.7275C1.39462 10.4878 1.01217 10.1054 0.772487 9.63497C0.621594 9.33882 0.558689 9.01873 0.528915 8.6543C0.499999 8.30036 0.500005 7.86329 0.500012 7.3214V7.32139V7.29998L0.500023 4.69998L0.500023 4.67858C0.50002 4.13669 0.500018 3.69962 0.528938 3.34568C0.558714 2.98125 0.621621 2.66116 0.772515 2.36502C1.0122 1.89461 1.39465 1.51216 1.86505 1.27248C2.1612 1.12159 2.48129 1.05868 2.84572 1.02891C3.19965 0.999991 3.63673 0.999995 4.17861 1H4.17862ZM2.92715 2.02559C2.62457 2.05031 2.45072 2.0964 2.31904 2.16349C2.0368 2.3073 1.80733 2.53677 1.66352 2.81901C1.59643 2.95069 1.55034 3.12453 1.52562 3.42711C1.50042 3.73553 1.50003 4.13169 1.50002 4.69999L1.50001 7.29999C1.50001 7.86829 1.5004 8.26445 1.52559 8.57287C1.55032 8.87546 1.5964 9.0493 1.6635 9.18098C1.8073 9.46323 2.03678 9.6927 2.31902 9.83651C2.4507 9.9036 2.62454 9.94969 2.92713 9.97441C3.23555 9.99961 3.63171 10 4.20001 10H7.8C8.3683 10 8.76446 9.99961 9.07288 9.97441C9.37546 9.94969 9.54931 9.9036 9.68098 9.83651C9.96323 9.6927 10.1927 9.46323 10.3365 9.18099C10.4036 9.04931 10.4497 8.87546 10.4744 8.57288C10.4996 8.26446 10.5 7.8683 10.5 7.3V4.7C10.5 4.1317 10.4996 3.73554 10.4744 3.42712C10.4497 3.12454 10.4036 2.95069 10.3365 2.81901C10.1927 2.53677 9.96323 2.3073 9.68098 2.16349C9.54931 2.0964 9.37546 2.05031 9.07288 2.02559C8.76446 2.00039 8.3683 2 7.8 2H4.20002C3.63172 2 3.23557 2.00039 2.92715 2.02559ZM2.99997 6C3.27611 6 3.49997 6.22386 3.49997 6.5V8C3.49997 8.27614 3.27611 8.5 2.99997 8.5C2.72383 8.5 2.49997 8.27614 2.49997 8V6.5C2.49997 6.22386 2.72383 6 2.99997 6ZM5.49997 4.5C5.49997 4.22386 5.27611 4 4.99997 4C4.72383 4 4.49997 4.22386 4.49997 4.5L4.49997 8C4.49997 8.27614 4.72383 8.5 4.99997 8.5C5.27611 8.5 5.49997 8.27614 5.49997 8L5.49997 4.5ZM6.99997 6.5C7.27611 6.5 7.49997 6.72386 7.49997 7V8C7.49997 8.27614 7.27611 8.5 6.99997 8.5C6.72383 8.5 6.49997 8.27614 6.49997 8V7C6.49997 6.72386 6.72383 6.5 6.99997 6.5ZM9.49997 6C9.49997 5.72386 9.27611 5.5 8.99997 5.5C8.72383 5.5 8.49997 5.72386 8.49997 6V8C8.49997 8.27614 8.72383 8.5 8.99997 8.5C9.27611 8.5 9.49997 8.27614 9.49997 8V6Z" fill="currentColor"/>
</svg>
