<svg width="12" height="12" viewBox="0 0 12 12" fill="none" xmlns="http://www.w3.org/2000/svg">
<path fill-rule="evenodd" clip-rule="evenodd" d="M3.69254 1C2.48176 1 1.50023 1.98153 1.50023 3.19231V4.88192C1.50023 5.07132 1.39321 5.24446 1.22381 5.32915L0.77665 5.55269C0.607253 5.63738 0.500241 5.8105 0.500229 5.99989C0.500217 6.18928 0.607207 6.36241 0.776594 6.44712L1.22386 6.67079C1.39324 6.75549 1.50023 6.92862 1.50023 7.11799V8.80769C1.50023 10.0185 2.48176 11 3.69254 11H4.00023C4.27637 11 4.50023 10.7761 4.50023 10.5C4.50023 10.2239 4.27637 10 4.00023 10H3.69254C3.03404 10 2.50023 9.46619 2.50023 8.80769V7.11799C2.50023 6.68507 2.31385 6.28046 2.0003 5.99996C2.31385 5.71946 2.50023 5.31485 2.50023 4.88192V3.19231C2.50023 2.53381 3.03404 2 3.69254 2H4.00023C4.27637 2 4.50023 1.77614 4.50023 1.5C4.50023 1.22386 4.27637 1 4.00023 1H3.69254ZM8.30792 1C9.5187 1 10.5002 1.98153 10.5002 3.19231V4.88192C10.5002 5.07132 10.6072 5.24446 10.7767 5.32915L11.2238 5.55269C11.3932 5.63738 11.5002 5.8105 11.5002 5.99989C11.5002 6.18928 11.3933 6.36241 11.2239 6.44712L10.7766 6.67079C10.6072 6.75549 10.5002 6.92862 10.5002 7.11799V8.80769C10.5002 10.0185 9.5187 11 8.30792 11H8.00023C7.72409 11 7.50023 10.7761 7.50023 10.5C7.50023 10.2239 7.72409 10 8.00023 10H8.30792C8.96641 10 9.50023 9.46619 9.50023 8.80769V7.11799C9.50023 6.68507 9.68661 6.28046 10.0002 5.99996C9.68661 5.71946 9.50023 5.31485 9.50023 4.88192V3.19231C9.50023 2.53381 8.96641 2 8.30792 2H8.00023C7.72409 2 7.50023 1.77614 7.50023 1.5C7.50023 1.22386 7.72409 1 8.00023 1H8.30792ZM4.70084 4.70086C4.86606 4.53564 5.13394 4.53564 5.29916 4.70086L6 5.4017L6.70084 4.70086C6.86606 4.53564 7.13394 4.53564 7.29916 4.70086C7.46439 4.86608 7.46439 5.13396 7.29916 5.29918L6.59832 6.00002L7.29916 6.70086C7.46439 6.86608 7.46439 7.13396 7.29916 7.29918C7.13394 7.4644 6.86606 7.4644 6.70084 7.29918L6 6.59834L5.29916 7.29918C5.13394 7.4644 4.86606 7.4644 4.70084 7.29918C4.53562 7.13396 4.53562 6.86608 4.70084 6.70086L5.40168 6.00002L4.70084 5.29918C4.53562 5.13396 4.53562 4.86608 4.70084 4.70086Z" fill="currentColor"/>
</svg>
