<svg width="12" height="12" viewBox="0 0 12 12" fill="none" xmlns="http://www.w3.org/2000/svg">
<path fill-rule="evenodd" clip-rule="evenodd" d="M6.5 1.5C6.5 1.22386 6.27614 1 6 1C5.72386 1 5.5 1.22386 5.5 1.5V4C5.5 4.27614 5.27614 4.5 5 4.5C3.61929 4.5 2.5 5.61929 2.5 7V9.29289L1.85355 8.64645C1.65829 8.45118 1.34171 8.45118 1.14645 8.64645C0.951184 8.84171 0.951184 9.15829 1.14645 9.35355L2.64645 10.8536C2.84171 11.0488 3.15829 11.0488 3.35355 10.8536L4.85355 9.35355C5.04882 9.15829 5.04882 8.84171 4.85355 8.64645C4.65829 8.45118 4.34171 8.45118 4.14645 8.64645L3.5 9.29289V7C3.5 6.17157 4.17157 5.5 5 5.5C5.38418 5.5 5.73462 5.35557 6 5.11805C6.26538 5.35557 6.61582 5.5 7 5.5C7.82843 5.5 8.5 6.17157 8.5 7V9.29289L7.85355 8.64645C7.65829 8.45118 7.34171 8.45118 7.14645 8.64645C6.95118 8.84171 6.95118 9.15829 7.14645 9.35355L8.64645 10.8536C8.84171 11.0488 9.15829 11.0488 9.35355 10.8536L10.8536 9.35355C11.0488 9.15829 11.0488 8.84171 10.8536 8.64645C10.6583 8.45118 10.3417 8.45118 10.1464 8.64645L9.5 9.29289V7C9.5 5.61929 8.38071 4.5 7 4.5C6.72386 4.5 6.5 4.27614 6.5 4V1.5Z" fill="currentColor"/>
</svg>
