<svg width="12" height="12" viewBox="0 0 12 12" fill="none" xmlns="http://www.w3.org/2000/svg">
<path fill-rule="evenodd" clip-rule="evenodd" d="M3.5 0.5C3.77614 0.5 4 0.723858 4 1V1.50004L4.1786 1.5L4.2 1.5L8 1.5V1C8 0.723858 8.22386 0.5 8.5 0.5C8.77614 0.5 9 0.723858 9 1V1.50317C9.18822 1.50789 9.34432 1.51951 9.48773 1.54804C10.4795 1.7453 11.2547 2.52055 11.452 3.51227C11.5002 3.75467 11.5001 4.0333 11.5 4.44209V4.44213L11.5 4.5L11.5 5C11.5 5.27614 11.2761 5.5 11 5.5C10.7239 5.5 10.5 5.27614 10.5 5L10.5 4.5C10.5 4.01138 10.4976 3.84009 10.4712 3.70736C10.3528 3.11233 9.88767 2.64718 9.29264 2.52882C9.22097 2.51457 9.13805 2.5073 9 2.50364V3C9 3.27614 8.77614 3.5 8.5 3.5C8.22386 3.5 8 3.27614 8 3V2.5L4.2 2.5L4 2.50006V3C4 3.27614 3.77614 3.5 3.5 3.5C3.22386 3.5 3 3.27614 3 3V2.52019C2.97516 2.52185 2.95088 2.52365 2.92712 2.52559C2.62454 2.55031 2.45069 2.5964 2.31901 2.66349C2.03677 2.8073 1.8073 3.03677 1.66349 3.31901C1.5964 3.45069 1.55031 3.62454 1.52559 3.92712C1.50039 4.23554 1.5 4.6317 1.5 5.2L1.5 7.5C1.5 7.97278 1.50027 8.30233 1.51787 8.56028C1.53516 8.81373 1.5675 8.96133 1.61418 9.07403C1.76642 9.44157 2.05843 9.73358 2.42598 9.88582C2.53867 9.9325 2.68627 9.96484 2.93972 9.98213C3.19767 9.99973 3.52722 10 4 10H5C5.27614 10 5.5 10.2239 5.5 10.5C5.5 10.7761 5.27614 11 5 11H4H3.98224C3.53136 11 3.16766 11 2.87165 10.9798C2.56728 10.959 2.29814 10.9153 2.04329 10.8097C1.43072 10.556 0.944037 10.0693 0.690302 9.45671C0.58474 9.20186 0.540958 8.93272 0.52019 8.62835C0.499995 8.33235 0.499997 7.96865 0.5 7.51777V7.51776V7.5L0.5 5.2V5.1786V5.17858C0.499995 4.6367 0.499992 4.19962 0.52891 3.84569C0.558684 3.48126 0.621591 3.16117 0.772484 2.86502C1.01217 2.39462 1.39462 2.01217 1.86502 1.77248C2.16117 1.62159 2.48126 1.55868 2.84569 1.52891C2.89546 1.52484 2.94688 1.52135 3 1.51834V1C3 0.723858 3.22386 0.5 3.5 0.5ZM7.5 9.25C7.5 8.2835 8.2835 7.5 9.25 7.5C10.2165 7.5 11 8.2835 11 9.25C11 10.2165 10.2165 11 9.25 11C8.2835 11 7.5 10.2165 7.5 9.25ZM9.25 6.5C7.73122 6.5 6.5 7.73122 6.5 9.25C6.5 10.7688 7.73122 12 9.25 12C10.7688 12 12 10.7688 12 9.25C12 7.73122 10.7688 6.5 9.25 6.5ZM10 8.5C10 8.22386 9.77614 8 9.5 8C9.22386 8 9 8.22386 9 8.5V9H8.5C8.22386 9 8 9.22386 8 9.5C8 9.77614 8.22386 10 8.5 10H9.5C9.77614 10 10 9.77614 10 9.5V8.5ZM3.5 4.5C3.22386 4.5 3 4.72386 3 5C3 5.27614 3.22386 5.5 3.5 5.5H8.5C8.77614 5.5 9 5.27614 9 5C9 4.72386 8.77614 4.5 8.5 4.5H3.5Z" fill="currentColor"/>
</svg>
