<svg width="12" height="12" viewBox="0 0 12 12" fill="none" xmlns="http://www.w3.org/2000/svg">
<g clip-path="url(#clip0_19836_380039)">
<path fill-rule="evenodd" clip-rule="evenodd" d="M4 1C4 0.723858 3.77614 0.5 3.5 0.5C3.22386 0.5 3 0.723858 3 1V1.51834C2.94688 1.52135 2.89546 1.52484 2.84569 1.52891C2.48126 1.55868 2.16117 1.62159 1.86502 1.77248C1.39462 2.01217 1.01217 2.39462 0.772484 2.86502C0.62159 3.16117 0.558684 3.48126 0.528909 3.84569C0.499991 4.19963 0.499995 4.6367 0.5 5.1786V5.2L0.5 7.3V7.3214C0.499995 7.8633 0.499991 8.30037 0.528909 8.65431C0.558684 9.01874 0.62159 9.33883 0.772484 9.63498C1.01217 10.1054 1.39462 10.4878 1.86502 10.7275C2.16117 10.8784 2.48126 10.9413 2.84569 10.9711C3.19961 11 3.63667 11 4.17853 11H4.17858H4.2L7 11C7.27614 11 7.5 10.7761 7.5 10.5C7.5 10.2239 7.27614 10 7 10L4.2 10C3.6317 10 3.23554 9.99961 2.92712 9.97441C2.62454 9.94969 2.45069 9.9036 2.31901 9.83651C2.03677 9.6927 1.8073 9.46323 1.66349 9.18099C1.5964 9.04931 1.55031 8.87546 1.52559 8.57288C1.50039 8.26446 1.5 7.8683 1.5 7.3L1.5 5.2C1.5 4.6317 1.50039 4.23554 1.52559 3.92712C1.55031 3.62454 1.5964 3.45069 1.66349 3.31901C1.8073 3.03677 2.03677 2.8073 2.31901 2.66349C2.45069 2.5964 2.62454 2.55031 2.92712 2.52559C2.95088 2.52365 2.97516 2.52185 3 2.52019V3C3 3.27614 3.22386 3.5 3.5 3.5C3.77614 3.5 4 3.27614 4 3V2.50006L4.2 2.5L7.8 2.5L8 2.50006V3C8 3.27614 8.22386 3.5 8.5 3.5C8.77614 3.5 9 3.27614 9 3V2.52019C9.02484 2.52185 9.04912 2.52365 9.07288 2.52559C9.37546 2.55031 9.54931 2.5964 9.68099 2.66349C9.96323 2.8073 10.1927 3.03677 10.3365 3.31901C10.4036 3.45069 10.4497 3.62454 10.4744 3.92712C10.4996 4.23554 10.5 4.6317 10.5 5.2V5.5C10.5 5.77614 10.7239 6 11 6C11.2761 6 11.5 5.77614 11.5 5.5V5.2V5.17858V5.17853C11.5 4.63667 11.5 4.19961 11.4711 3.84569C11.4413 3.48126 11.3784 3.16117 11.2275 2.86502C10.9878 2.39462 10.6054 2.01217 10.135 1.77248C9.83883 1.62159 9.51874 1.55868 9.15431 1.52891C9.10454 1.52484 9.05312 1.52135 9 1.51834V1C9 0.723858 8.77614 0.5 8.5 0.5C8.22386 0.5 8 0.723858 8 1V1.50004L7.8214 1.5L7.8 1.5L4.2 1.5L4.1786 1.5L4 1.50004V1ZM3 5C3 4.72386 3.22386 4.5 3.5 4.5H8.5C8.77614 4.5 9 4.72386 9 5C9 5.27614 8.77614 5.5 8.5 5.5H3.5C3.22386 5.5 3 5.27614 3 5ZM11 8C11 7.8156 10.8985 7.64617 10.7359 7.55916C10.5733 7.47215 10.3761 7.48169 10.2226 7.58397L8.72265 8.58397C8.49289 8.73715 8.4308 9.04759 8.58397 9.27735C8.73715 9.50711 9.04759 9.5692 9.27735 9.41603L10 8.93426V11.5C10 11.7761 10.2239 12 10.5 12C10.7761 12 11 11.7761 11 11.5V8Z" fill="currentColor"/>
</g>
<defs>
<clipPath id="clip0_19836_380039">
<rect width="12" height="12" fill="white"/>
</clipPath>
</defs>
</svg>
