<svg width="12" height="12" viewBox="0 0 12 12" fill="none" xmlns="http://www.w3.org/2000/svg">
<path fill-rule="evenodd" clip-rule="evenodd" d="M6.35355 1.35355C6.54882 1.15829 6.54882 0.841709 6.35355 0.646447C6.15829 0.451184 5.84171 0.451184 5.64645 0.646447L4.14645 2.14645C3.95118 2.34171 3.95118 2.65829 4.14645 2.85355L5.64645 4.35355C5.84171 4.54882 6.15829 4.54882 6.35355 4.35355C6.54882 4.15829 6.54882 3.84171 6.35355 3.64645L5.70711 3H7.5C8.88071 3 10 4.11929 10 5.5V6C10 6.27614 10.2239 6.5 10.5 6.5C10.7761 6.5 11 6.27614 11 6V5.5C11 3.567 9.433 2 7.5 2H5.70711L6.35355 1.35355ZM5.64645 10.6464C5.45118 10.8417 5.45118 11.1583 5.64645 11.3536C5.84171 11.5488 6.15829 11.5488 6.35355 11.3536L7.85355 9.85355C8.04882 9.65829 8.04882 9.34171 7.85355 9.14645L6.35355 7.64645C6.15829 7.45118 5.84171 7.45118 5.64645 7.64645C5.45118 7.84171 5.45118 8.15829 5.64645 8.35355L6.29289 9H4.5C3.11929 9 2 7.88071 2 6.5V6C2 5.72386 1.77614 5.5 1.5 5.5C1.22386 5.5 1 5.72386 1 6V6.5C1 8.433 2.567 10 4.5 10H6.29289L5.64645 10.6464Z" fill="currentColor"/>
</svg>
