<svg width="12" height="12" viewBox="0 0 12 12" fill="none" xmlns="http://www.w3.org/2000/svg">
<g clip-path="url(#clip0_19836_380156)">
<path fill-rule="evenodd" clip-rule="evenodd" d="M5.99979 1.5C3.5145 1.5 1.49979 3.51472 1.49979 6C1.49979 8.48528 3.5145 10.5 5.99979 10.5C8.48507 10.5 10.4998 8.48528 10.4998 6C10.4998 3.51472 8.48507 1.5 5.99979 1.5ZM0.499786 6C0.499786 2.96243 2.96222 0.5 5.99979 0.5C9.03735 0.5 11.4998 2.96243 11.4998 6C11.4998 9.03757 9.03735 11.5 5.99979 11.5C2.96222 11.5 0.499786 9.03757 0.499786 6ZM3.91838 4.45974C4.243 4.45974 4.50616 4.19658 4.50616 3.87196C4.50616 3.54734 4.243 3.28418 3.91838 3.28418C3.59376 3.28418 3.3306 3.54734 3.3306 3.87196C3.3306 4.19658 3.59376 4.45974 3.91838 4.45974ZM3.64557 5.95007C3.64557 6.27469 3.38241 6.53785 3.05778 6.53785C2.73316 6.53785 2.47 6.27469 2.47 5.95007C2.47 5.62544 2.73316 5.36229 3.05778 5.36229C3.38241 5.36229 3.64557 5.62544 3.64557 5.95007ZM6.6258 8.88892C6.6258 9.23673 6.34385 9.51869 5.99604 9.51869C5.64823 9.51869 5.36627 9.23673 5.36627 8.88892C5.36627 8.54111 5.64823 8.25916 5.99604 8.25916C6.34385 8.25916 6.6258 8.54111 6.6258 8.88892ZM8.66244 8.02821C8.66244 8.35283 8.39928 8.61599 8.07466 8.61599C7.75003 8.61599 7.48688 8.35283 7.48688 8.02821C7.48688 7.70359 7.75003 7.44043 8.07466 7.44043C8.39928 7.44043 8.66244 7.70359 8.66244 8.02821ZM3.91838 8.61606C4.243 8.61606 4.50616 8.3529 4.50616 8.02828C4.50616 7.70365 4.243 7.44049 3.91838 7.44049C3.59376 7.44049 3.3306 7.70365 3.3306 8.02828C3.3306 8.3529 3.59376 8.61606 3.91838 8.61606ZM6.49979 3C6.49979 2.72386 6.27593 2.5 5.99979 2.5C5.72364 2.5 5.49979 2.72386 5.49979 3V5.11534C5.49979 5.88003 6.11968 6.49993 6.88437 6.49995L8.99977 6.5C9.27592 6.50001 9.49978 6.27615 9.49979 6.00001C9.49979 5.72387 9.27594 5.50001 8.9998 5.5L6.88439 5.49995C6.67198 5.49995 6.49979 5.32775 6.49979 5.11534V3Z" fill="currentColor"/>
</g>
<defs>
<clipPath id="clip0_19836_380156">
<rect width="12" height="12" fill="white"/>
</clipPath>
</defs>
</svg>
