<svg width="12" height="12" viewBox="0 0 12 12" fill="none" xmlns="http://www.w3.org/2000/svg">
<path fill-rule="evenodd" clip-rule="evenodd" d="M1.5 5.99658C1.5 3.5113 3.51472 1.49658 6 1.49658C8.48528 1.49658 10.5 3.5113 10.5 5.99658C10.5 8.48186 8.48528 10.4966 6 10.4966C3.51472 10.4966 1.5 8.48186 1.5 5.99658ZM6 0.496582C2.96243 0.496582 0.5 2.95902 0.5 5.99658C0.5 9.03415 2.96243 11.4966 6 11.4966C9.03757 11.4966 11.5 9.03415 11.5 5.99658C11.5 2.95902 9.03757 0.496582 6 0.496582ZM6.49994 3.49654C6.49993 3.2204 6.27607 2.99654 5.99993 2.99655C5.72379 2.99655 5.49993 3.22041 5.49994 3.49655L5.49996 5.26576C5.49996 5.39321 5.39664 5.49653 5.26918 5.49653L3.50001 5.49648C3.22387 5.49648 3.00001 5.72033 3 5.99647C2.99999 6.27261 3.22385 6.49648 3.49999 6.49648L5.26916 6.49653C5.94891 6.49654 6.49997 5.9455 6.49996 5.26574L6.49994 3.49654Z" fill="currentColor"/>
</svg>
