<svg width="12" height="12" viewBox="0 0 12 12" fill="none" xmlns="http://www.w3.org/2000/svg">
<path fill-rule="evenodd" clip-rule="evenodd" d="M4.49999 0.996582C4.51951 0.996582 4.53877 0.997701 4.55771 0.999878H7.44226C7.4612 0.997701 7.48046 0.996582 7.49999 0.996582C7.51951 0.996582 7.53877 0.997701 7.55771 0.999878H7.79999L7.82139 0.999878C8.36328 0.999873 8.80036 0.999869 9.1543 1.02879C9.51872 1.05856 9.83882 1.12147 10.135 1.27236C10.6054 1.51205 10.9878 1.8945 11.2275 2.3649C11.3784 2.66105 11.4413 2.98114 11.4711 3.34557C11.5 3.69949 11.5 4.13655 11.5 4.67841V4.67846V4.69988V7.29988V7.32129V7.32135C11.5 7.86321 11.5 8.30026 11.4711 8.65419C11.4413 9.01861 11.3784 9.33871 11.2275 9.63485C10.9878 10.1053 10.6054 10.4877 10.135 10.7274C9.83882 10.8783 9.51872 10.9412 9.1543 10.971C8.80037 10.9999 8.36332 10.9999 7.82145 10.9999H7.8214H7.79999H4.2H4.17858H4.17853C3.63667 10.9999 3.19961 10.9999 2.84568 10.971C2.48126 10.9412 2.16116 10.8783 1.86502 10.7274C1.39461 10.4877 1.01216 10.1053 0.772475 9.63485C0.621582 9.3387 0.558677 9.01861 0.528904 8.65418C0.499987 8.30024 0.499993 7.86316 0.5 7.32127V7.32126V7.29986L0.500012 4.69986L0.500012 4.67846C0.50001 4.13657 0.500008 3.69949 0.528927 3.34555C0.558703 2.98113 0.621611 2.66104 0.772505 2.36489C1.01219 1.89449 1.39464 1.51204 1.86504 1.27236C2.16119 1.12147 2.48128 1.05856 2.84571 1.02879C3.19964 0.999869 3.63672 0.999873 4.17861 0.999878L4.20001 0.999878H4.44226C4.4612 0.997701 4.48046 0.996582 4.49999 0.996582ZM6.99999 1.99988H4.99999V9.99988H6.99999V1.99988ZM7.99999 9.99982V1.99994C8.46342 2.00034 8.80198 2.00333 9.07287 2.02547C9.37545 2.05019 9.54929 2.09627 9.68097 2.16337C9.96321 2.30718 10.1927 2.53665 10.3365 2.81889C10.4036 2.95057 10.4497 3.12441 10.4744 3.427C10.4996 3.73542 10.5 4.13158 10.5 4.69988V7.29988C10.5 7.86818 10.4996 8.26434 10.4744 8.57276C10.4497 8.87534 10.4036 9.04919 10.3365 9.18086C10.1927 9.46311 9.96322 9.69258 9.68097 9.83639C9.54929 9.90348 9.37545 9.94957 9.07287 9.97429C8.80198 9.99642 8.46342 9.99942 7.99999 9.99982ZM2.92714 2.02547C3.19801 2.00333 3.53657 2.00034 3.99999 1.99994V9.99982C3.53656 9.99942 3.198 9.99642 2.92712 9.97429C2.62453 9.94957 2.45069 9.90348 2.31901 9.83639C2.03676 9.69258 1.80729 9.4631 1.66348 9.18086C1.59639 9.04918 1.5503 8.87534 1.52558 8.57275C1.50039 8.26433 1.5 7.86817 1.5 7.29987L1.50001 4.69987C1.50001 4.13156 1.50041 3.73541 1.52561 3.42699C1.55033 3.12441 1.59642 2.95057 1.66351 2.81889C1.80732 2.53665 2.03679 2.30718 2.31903 2.16337C2.45071 2.09627 2.62455 2.05019 2.92714 2.02547Z" fill="currentColor"/>
</svg>
