<svg width="12" height="12" viewBox="0 0 12 12" fill="none" xmlns="http://www.w3.org/2000/svg">
<g clip-path="url(#clip0_34872_82177)">
<path d="M6 0.5C6.89149 0.5 7.45595 0.493608 7.92676 0.646484C8.84 0.943266 9.55678 1.65998 9.85352 2.57324C9.90532 2.73289 9.93733 2.90345 9.95898 3.09375C11.1545 3.44982 11.9998 4.55218 12 5.83008V9.1416C12 9.54602 12.0007 9.88457 11.9766 10.1484C11.9529 10.4069 11.899 10.6856 11.7246 10.915C11.4853 11.2296 11.1203 11.4232 10.7256 11.4443C10.4377 11.4596 10.1773 11.3465 9.9502 11.2207C9.71832 11.0922 9.43819 10.9014 9.10352 10.6738L9.06348 10.6465C8.9215 10.5499 8.89882 10.5377 8.87988 10.5293C8.85474 10.5182 8.82784 10.5098 8.80078 10.5049C8.78043 10.5012 8.75398 10.499 8.58301 10.499H5.88086C4.60943 10.4988 3.53812 9.66419 3.17383 8.5166C3.15803 8.52137 3.14181 8.52532 3.12695 8.53223C3.10735 8.5414 3.08358 8.55595 2.9375 8.66113C2.5993 8.90464 2.31761 9.10827 2.08398 9.24609C1.85608 9.38051 1.59288 9.50325 1.2998 9.49316C0.899791 9.47937 0.526243 9.28818 0.28125 8.97168C0.102035 8.73993 0.0485216 8.45465 0.0244141 8.19141C-0.000258661 7.92143 -4.56773e-07 7.57366 0 7.15723V5C0 4.30847 6.74189e-05 3.75925 0.0361328 3.31738C0.0727061 2.86975 0.149147 2.48721 0.327148 2.1377C0.614689 1.57354 1.07356 1.11473 1.6377 0.827148C1.98731 0.649012 2.3696 0.572721 2.81738 0.536133C3.25934 0.500028 3.80822 0.5 4.5 0.5H6ZM10 4.5C10 5.39121 10.0064 5.95603 9.85352 6.42676C9.55667 7.33986 8.83992 8.05681 7.92676 8.35352C7.45598 8.50634 6.8914 8.5 6 8.5H4.24316C4.54914 9.09259 5.16654 9.49883 5.88086 9.49902H8.58301C8.72027 9.49902 8.85042 9.49716 8.97949 9.52051C9.08494 9.53962 9.18819 9.57175 9.28613 9.61523C9.40585 9.66846 9.51261 9.74322 9.62598 9.82031L9.66602 9.84766C10.0169 10.0863 10.2523 10.2457 10.4346 10.3467C10.6064 10.4418 10.6658 10.4461 10.6719 10.4463C10.7734 10.4409 10.8681 10.3905 10.9297 10.3096C10.9341 10.3024 10.963 10.2486 10.9805 10.0576C10.9994 9.85016 11 9.56586 11 9.1416V5.83008C10.9998 5.12109 10.5994 4.49509 9.99902 4.18262C9.99914 4.28352 10 4.38949 10 4.5ZM4.5 1.5C3.79169 1.5 3.29023 1.50022 2.89844 1.53223C2.51266 1.56377 2.2769 1.62346 2.0918 1.71777C1.71563 1.90951 1.40947 2.21561 1.21777 2.5918C1.12357 2.77685 1.06374 3.01291 1.03223 3.39844C1.00025 3.79016 1 4.29198 1 5V7.15723C1 7.59349 1.00098 7.88695 1.02051 8.10059C1.03997 8.31262 1.07232 8.36035 1.07227 8.36035C1.13522 8.44139 1.23141 8.49053 1.33398 8.49414C1.33389 8.49409 1.39208 8.49333 1.57617 8.38477C1.76109 8.27566 1.99924 8.10469 2.35352 7.84961C2.47014 7.76564 2.57894 7.684 2.70312 7.62598C2.80472 7.57854 2.9123 7.54431 3.02246 7.52344C3.15717 7.49793 3.29285 7.5 3.43652 7.5H6C6.96939 7.5 7.3359 7.49402 7.61816 7.40234C8.22685 7.20455 8.70442 6.72679 8.90234 6.11816C8.99405 5.83593 9 5.46919 9 4.5C9 3.53095 8.99393 3.16406 8.90234 2.88184C8.70452 2.27305 8.22693 1.79552 7.61816 1.59766C7.33588 1.50594 6.96956 1.5 6 1.5H4.5Z" fill="currentColor"/>
</g>
<defs>
<clipPath id="clip0_34872_82177">
<rect width="12" height="12" fill="white"/>
</clipPath>
</defs>
</svg>
