<svg width="12" height="12" viewBox="0 0 12 12" fill="none" xmlns="http://www.w3.org/2000/svg">
<path fill-rule="evenodd" clip-rule="evenodd" d="M4.1786 1L4.2 1H7.8L7.8214 1C8.3633 0.999995 8.80037 0.999991 9.15431 1.02891C9.51874 1.05868 9.83883 1.12159 10.135 1.27248C10.6054 1.51217 10.9878 1.89462 11.2275 2.36502C11.3784 2.66117 11.4413 2.98126 11.4711 3.34569C11.5 3.69963 11.5 4.1367 11.5 4.67858V4.7V5.8V5.82142C11.5 6.3633 11.5 6.80038 11.4711 7.15431C11.4413 7.51874 11.3784 7.83883 11.2275 8.13498C10.9878 8.60538 10.6054 8.98783 10.135 9.22752C9.83883 9.37841 9.51874 9.44132 9.15431 9.47109C8.80038 9.50001 8.3633 9.5 7.82142 9.5H7.8H5.17186C4.71787 9.5 4.55797 9.50221 4.40894 9.53184C4.26683 9.56009 4.12902 9.60684 3.99905 9.67088C3.86275 9.73805 3.73451 9.83358 3.37422 10.1098L3.23433 10.217L3.21523 10.2317C2.92148 10.4569 2.67389 10.6467 2.46697 10.7774C2.26248 10.9065 2.01551 11.0336 1.73327 11.0298C1.35625 11.0248 1.00165 10.8498 0.768258 10.5537C0.593537 10.332 0.544121 10.0587 0.522181 9.81784C0.499981 9.57413 0.49999 9.26215 0.5 8.89199L0.5 8.86792V4.7L0.5 4.6786C0.499995 4.1367 0.499991 3.69963 0.528909 3.34569C0.558684 2.98126 0.62159 2.66117 0.772484 2.36502C1.01217 1.89462 1.39462 1.51217 1.86502 1.27248C2.16117 1.12159 2.48126 1.05868 2.84569 1.02891C3.19963 0.999991 3.6367 0.999995 4.1786 1ZM2.92712 2.02559C2.62454 2.05031 2.45069 2.0964 2.31901 2.16349C2.03677 2.3073 1.8073 2.53677 1.66349 2.81901C1.5964 2.95069 1.55031 3.12454 1.52559 3.42712C1.50039 3.73554 1.5 4.1317 1.5 4.7V8.86792C1.5 9.26857 1.5005 9.53437 1.51806 9.72713C1.5322 9.88235 1.55396 9.93205 1.55677 9.93857C1.6024 9.99417 1.6698 10.0274 1.74168 10.0298C1.74856 10.0281 1.80124 10.0151 1.93304 9.93188C2.0967 9.82854 2.30794 9.66721 2.6259 9.42344L2.76579 9.31619C2.77861 9.30637 2.79125 9.29667 2.80374 9.28709C3.11227 9.05045 3.32159 8.8899 3.55702 8.77388C3.76533 8.67123 3.9862 8.59631 4.21397 8.55103C4.47141 8.49986 4.73521 8.49991 5.12405 8.49999C5.13978 8.5 5.15571 8.5 5.17186 8.5H7.8C8.3683 8.5 8.76446 8.49961 9.07288 8.47441C9.37546 8.44969 9.54931 8.4036 9.68099 8.33651C9.96323 8.1927 10.1927 7.96323 10.3365 7.68099C10.4036 7.54931 10.4497 7.37546 10.4744 7.07288C10.4996 6.76446 10.5 6.3683 10.5 5.8V4.7C10.5 4.1317 10.4996 3.73554 10.4744 3.42712C10.4497 3.12454 10.4036 2.95069 10.3365 2.81901C10.1927 2.53677 9.96323 2.3073 9.68099 2.16349C9.54931 2.0964 9.37546 2.05031 9.07288 2.02559C8.76446 2.00039 8.3683 2 7.8 2H4.2C3.6317 2 3.23554 2.00039 2.92712 2.02559Z" fill="currentColor"/>
</svg>
