<svg width="12" height="12" viewBox="0 0 12 12" fill="none" xmlns="http://www.w3.org/2000/svg">
<path fill-rule="evenodd" clip-rule="evenodd" d="M1 3C1 1.89543 1.89543 1 3 1C4.10457 1 5 1.89543 5 3V4H7V3C7 1.89543 7.89543 1 9 1C10.1046 1 11 1.89543 11 3C11 4.10457 10.1046 5 9 5H8V7H9C10.1046 7 11 7.89543 11 9C11 10.1046 10.1046 11 9 11C7.89543 11 7 10.1046 7 9V8H5V9C5 10.1046 4.10457 11 3 11C1.89543 11 1 10.1046 1 9C1 7.89543 1.89543 7 3 7H4V5H3C1.89543 5 1 4.10457 1 3ZM4 4V3C4 2.44772 3.55228 2 3 2C2.44772 2 2 2.44772 2 3C2 3.55228 2.44772 4 3 4H4ZM5 5V7H7V5H5ZM4 8H3C2.44772 8 2 8.44772 2 9C2 9.55229 2.44772 10 3 10C3.55228 10 4 9.55228 4 9V8ZM8 8V9C8 9.55228 8.44772 10 9 10C9.55229 10 10 9.55229 10 9C10 8.44772 9.55228 8 9 8H8ZM8 4H9C9.55228 4 10 3.55228 10 3C10 2.44772 9.55229 2 9 2C8.44772 2 8 2.44772 8 3V4Z" fill="currentColor"/>
</svg>
