<svg width="12" height="12" viewBox="0 0 12 12" fill="none" xmlns="http://www.w3.org/2000/svg">
<path fill-rule="evenodd" clip-rule="evenodd" d="M4.4 0.500002L4.37935 0.5C3.97687 0.499993 3.64469 0.499987 3.37409 0.522095C3.09304 0.545057 2.83469 0.594339 2.59202 0.717984C2.21569 0.90973 1.90973 1.21569 1.71798 1.59202C1.5943 1.83476 1.54504 2.09331 1.52209 2.37457C1.49999 2.64543 1.49999 2.97802 1.5 3.38109L1.5 3.40173L1.50001 6L1.50003 8.59826L1.50003 8.6189C1.50002 9.02197 1.50002 9.35456 1.52212 9.62543C1.54508 9.90668 1.59434 10.1652 1.71802 10.408C1.90977 10.7843 2.21573 11.0903 2.59205 11.282C2.83472 11.4057 3.09307 11.4549 3.37412 11.4779C3.64471 11.5 3.97689 11.5 4.37937 11.5H4.40003H7.59998H7.62065C8.02312 11.5 8.3553 11.5 8.62589 11.4779C8.90694 11.4549 9.16529 11.4057 9.40796 11.282C9.78428 11.0903 10.0902 10.7843 10.282 10.408C10.4056 10.1653 10.4549 9.90696 10.4779 9.62591C10.5 9.35532 10.5 9.02316 10.5 8.62069V8.6L10.5 3.40002V3.37935C10.5 2.97687 10.5 2.6447 10.4779 2.3741C10.4549 2.09305 10.4057 1.8347 10.282 1.59204C10.0903 1.21571 9.78431 0.909749 9.40798 0.718001C9.16531 0.594355 8.90696 0.545072 8.62591 0.522109C8.35532 0.499999 8.02314 0.500002 7.62065 0.500009L7.6 0.500009L4.4 0.500002ZM3.04601 1.60899C3.12421 1.56915 3.23631 1.53668 3.45552 1.51877C3.68056 1.50039 3.97171 1.5 4.4 1.5L7.6 1.50001C8.02829 1.50001 8.31944 1.5004 8.54448 1.51879C8.76369 1.5367 8.87579 1.56916 8.95399 1.60901C9.14215 1.70488 9.29513 1.85786 9.391 2.04602C9.43085 2.12422 9.46331 2.23633 9.48122 2.45553C9.49961 2.68058 9.5 2.97172 9.49999 3.40001L9.49998 8.6C9.49998 9.02829 9.49959 9.31943 9.4812 9.54448C9.46329 9.76368 9.43083 9.87579 9.39099 9.95399C9.29511 10.1421 9.14213 10.2951 8.95397 10.391C8.87577 10.4308 8.76367 10.4633 8.54446 10.4812C8.39767 10.4932 8.22275 10.4975 8 10.4991V9.20032L8 9.18228C8.00001 8.98768 8.00002 8.81257 7.98812 8.66687C7.97537 8.51085 7.94652 8.34509 7.86374 8.18262C7.74387 7.94738 7.55262 7.75612 7.31738 7.63626C7.1549 7.55347 6.98914 7.52462 6.83312 7.51188C6.68743 7.49997 6.51232 7.49998 6.31772 7.49999L6.29967 7.49999H5.70033L5.68228 7.49999C5.48768 7.49998 5.31257 7.49997 5.16688 7.51188C5.01086 7.52462 4.8451 7.55347 4.68262 7.63626C4.44738 7.75612 4.25612 7.94738 4.13626 8.18262C4.05348 8.34509 4.02463 8.51085 4.01188 8.66687C3.99998 8.81257 3.99999 8.98768 4 9.18228L4 9.20032V10.4991C3.77725 10.4975 3.60234 10.4932 3.45555 10.4812C3.23634 10.4633 3.12424 10.4308 3.04604 10.391C2.85788 10.2951 2.7049 10.1421 2.60902 9.95399C2.56922 9.87586 2.53673 9.76367 2.51881 9.54409C2.50042 9.31873 2.50003 9.02712 2.50003 8.59826L2.50001 5.99999L2.5 3.40173C2.5 2.97287 2.50039 2.68126 2.51878 2.4559C2.5367 2.23633 2.56918 2.12414 2.60899 2.04601C2.70486 1.85785 2.85785 1.70486 3.04601 1.60899ZM5 10.5H7V9.20032C7 8.982 6.99961 8.84832 6.99144 8.74831C6.98763 8.70171 6.98285 8.67352 6.97882 8.65639C6.9769 8.64824 6.97529 8.64323 6.97432 8.64052C6.97339 8.63791 6.97283 8.63682 6.97273 8.63661C6.94874 8.58953 6.91046 8.55125 6.86338 8.52726C6.86328 8.52721 6.86296 8.52705 6.86234 8.52678C6.86171 8.52651 6.86078 8.52614 6.85948 8.52567C6.85676 8.5247 6.85175 8.52309 6.8436 8.52118C6.82647 8.51714 6.79828 8.51236 6.75169 8.50855C6.65167 8.50038 6.518 8.49999 6.29967 8.49999H5.70033C5.482 8.49999 5.34833 8.50038 5.24831 8.50855C5.20172 8.51236 5.17352 8.51714 5.1564 8.52118C5.14825 8.52309 5.14324 8.5247 5.14052 8.52567C5.13792 8.5266 5.13682 8.52716 5.13661 8.52726C5.08953 8.55125 5.05126 8.58953 5.02727 8.63661C5.02716 8.63682 5.02661 8.63791 5.02568 8.64052C5.02471 8.64323 5.0231 8.64824 5.02118 8.65639C5.01715 8.67352 5.01237 8.70171 5.00856 8.74831C5.00039 8.84832 5 8.982 5 9.20032V10.5ZM4.5 2.99999C4.22386 2.99999 4 3.22385 4 3.49999C4 3.77614 4.22386 3.99999 4.5 3.99999H7.5C7.77614 3.99999 8 3.77614 8 3.49999C8 3.22385 7.77614 2.99999 7.5 2.99999H4.5ZM7.5 5.99975L4.5 5.99975C4.22386 5.99975 4 5.77589 4 5.49975C4 5.22361 4.22386 4.99975 4.5 4.99975L7.5 4.99975C7.77614 4.99975 8 5.22361 8 5.49975C8 5.77589 7.77614 5.99975 7.5 5.99975Z" fill="currentColor"/>
</svg>
