<svg width="12" height="12" viewBox="0 0 12 12" fill="none" xmlns="http://www.w3.org/2000/svg">
<path fill-rule="evenodd" clip-rule="evenodd" d="M4.4 0.500002L4.37935 0.5C3.97687 0.499993 3.64469 0.499987 3.37409 0.522095C3.09304 0.545057 2.83469 0.594339 2.59202 0.717984C2.21569 0.90973 1.90973 1.21569 1.71798 1.59202C1.5943 1.83476 1.54504 2.09331 1.52209 2.37457C1.49999 2.64543 1.49999 2.97802 1.5 3.38109L1.5 3.40173L1.50001 6L1.50003 8.59826L1.50003 8.6189C1.50002 9.02197 1.50002 9.35456 1.52212 9.62543C1.54508 9.90668 1.59434 10.1652 1.71802 10.408C1.90977 10.7843 2.21573 11.0903 2.59205 11.282C2.83472 11.4057 3.09307 11.4549 3.37412 11.4779C3.64471 11.5 3.97689 11.5 4.37937 11.5H4.40003H6.5C6.77614 11.5 7 11.2761 7 11C7 10.7239 6.77614 10.5 6.5 10.5H5V9.20032C5 8.982 5.00039 8.84832 5.00856 8.74831C5.01237 8.70171 5.01715 8.67352 5.02118 8.65639C5.0231 8.64824 5.02471 8.64323 5.02568 8.64052C5.02661 8.63791 5.02716 8.63682 5.02727 8.63661C5.05126 8.58953 5.08953 8.55125 5.13661 8.52726C5.13682 8.52716 5.13792 8.5266 5.14052 8.52567C5.14324 8.5247 5.14825 8.52309 5.1564 8.52118C5.17352 8.51714 5.20172 8.51236 5.24831 8.50855C5.34833 8.50038 5.482 8.49999 5.70033 8.49999H6.5C6.77614 8.49999 7 8.27614 7 7.99999C7 7.72385 6.77614 7.49999 6.5 7.49999H5.70033L5.68228 7.49999C5.48768 7.49998 5.31257 7.49997 5.16688 7.51188C5.01086 7.52462 4.8451 7.55347 4.68262 7.63626C4.44738 7.75612 4.25612 7.94738 4.13626 8.18262C4.05348 8.34509 4.02463 8.51085 4.01188 8.66687C3.99998 8.81257 3.99999 8.98768 4 9.18228L4 9.20032V10.4991C3.77725 10.4975 3.60234 10.4932 3.45555 10.4812C3.23634 10.4633 3.12424 10.4308 3.04604 10.391C2.85788 10.2951 2.7049 10.1421 2.60902 9.95399C2.56922 9.87586 2.53673 9.76367 2.51881 9.54409C2.50042 9.31873 2.50003 9.02712 2.50003 8.59826L2.50001 5.99999L2.5 3.40172C2.5 2.97287 2.50039 2.68126 2.51878 2.4559C2.5367 2.23633 2.56918 2.12414 2.60899 2.04601C2.70486 1.85785 2.85785 1.70486 3.04601 1.60899C3.12421 1.56915 3.23631 1.53668 3.45552 1.51877C3.68056 1.50039 3.97171 1.5 4.4 1.5L7.6 1.50001C8.02829 1.50001 8.31944 1.5004 8.54448 1.51879C8.76369 1.5367 8.87579 1.56916 8.95399 1.60901C9.14215 1.70488 9.29513 1.85786 9.391 2.04602C9.43085 2.12422 9.46331 2.23633 9.48122 2.45553C9.49961 2.68058 9.5 2.97172 9.49999 3.40001L9.49999 6C9.49999 6.27615 9.72384 6.5 9.99999 6.5C10.2761 6.50001 10.5 6.27615 10.5 6.00001L10.5 3.40002V3.37934C10.5 2.97687 10.5 2.6447 10.4779 2.3741C10.4549 2.09305 10.4057 1.8347 10.282 1.59204C10.0903 1.21571 9.7843 0.909749 9.40798 0.718001C9.16531 0.594355 8.90696 0.545072 8.62591 0.522109C8.35532 0.499999 8.02314 0.500002 7.62065 0.500009L7.6 0.500009L4.4 0.500002ZM4.5 2.99999C4.22386 2.99999 4 3.22385 4 3.49999C4 3.77614 4.22386 3.99999 4.5 3.99999H7.5C7.77614 3.99999 8 3.77614 8 3.49999C8 3.22385 7.77614 2.99999 7.5 2.99999H4.5ZM7.5 5.99975L4.5 5.99975C4.22386 5.99975 4 5.77589 4 5.49975C4 5.22361 4.22386 4.99975 4.5 4.99975L7.5 4.99975C7.77614 4.99975 8 5.22361 8 5.49975C8 5.77589 7.77614 5.99975 7.5 5.99975Z" fill="currentColor"/>
</svg>
