<svg width="12" height="12" viewBox="0 0 12 12" fill="none" xmlns="http://www.w3.org/2000/svg">
<g clip-path="url(#clip0_19836_380131)">
<path fill-rule="evenodd" clip-rule="evenodd" d="M6.38375 0.941062C6.55519 0.724585 6.86966 0.688077 7.08614 0.859518C7.87622 1.48523 8.04523 2.4124 7.97542 3.13071C7.9487 3.40556 7.70424 3.60671 7.42939 3.58C7.15454 3.55329 6.95339 3.30883 6.98011 3.03398C7.02985 2.52219 6.8998 1.98757 6.46529 1.64345C6.24882 1.47201 6.21231 1.15754 6.38375 0.941062ZM10.0005 1.49993C10.0005 1.77607 9.77663 1.99993 9.50049 1.99993C9.22435 1.99993 9.00049 1.77607 9.00049 1.49993C9.00049 1.22379 9.22435 0.999932 9.50049 0.999932C9.77663 0.999932 10.0005 1.22379 10.0005 1.49993ZM4.20162 4.06291C4.22095 4.04063 4.37272 3.91962 4.87332 4.14153C5.32741 4.34283 5.8889 4.76561 6.4248 5.38328C6.95906 5.99905 7.33478 6.65527 7.51783 7.2038C7.60952 7.47856 7.64654 7.70741 7.64284 7.87989C7.6391 8.05411 7.59573 8.13165 7.57037 8.16088C7.55104 8.18316 7.39928 8.30417 6.89868 8.08226C6.44458 7.88096 5.8831 7.45818 5.3472 6.84052C4.81294 6.22474 4.43721 5.56852 4.25417 5.01999C4.16248 4.74523 4.12545 4.51639 4.12916 4.34391C4.1329 4.16968 4.17627 4.09214 4.20162 4.06291ZM7.18013 4.72793C6.57719 4.033 5.9025 3.50391 5.27858 3.22733C4.70118 2.97137 3.93311 2.84648 3.44629 3.40757C3.39213 3.46999 3.34619 3.53643 3.30754 3.60572C3.29519 3.62467 3.28398 3.64469 3.27404 3.66571L0.486701 9.56464C-0.0124996 10.5556 0.99328 11.6243 2.01002 11.204L7.85856 9.1419C7.88202 9.13364 7.90447 9.12379 7.92584 9.11254C8.07131 9.04926 8.20688 8.95317 8.32571 8.81622C8.55342 8.55376 8.63575 8.22042 8.64261 7.90137C8.6495 7.58057 8.58203 7.23375 8.46641 6.88726C8.23484 6.19331 7.7847 5.42474 7.18013 4.72793ZM6.00508 8.73508C5.52792 8.43738 5.04007 8.01244 4.59187 7.49586C4.08323 6.90962 3.68391 6.27259 3.43208 5.67194L1.38784 9.99822L1.38081 10.0125C1.29955 10.1712 1.46137 10.3516 1.63226 10.2781C1.64254 10.2737 1.65297 10.2696 1.66352 10.2659L6.00508 8.73508ZM9.50049 6.99993C9.77663 6.99993 10.0005 6.77607 10.0005 6.49993C10.0005 6.22379 9.77663 5.99993 9.50049 5.99993C9.22435 5.99993 9.00049 6.22379 9.00049 6.49993C9.00049 6.77607 9.22435 6.99993 9.50049 6.99993ZM11.4978 3.00102C11.7739 3.00102 11.9978 3.22488 11.9978 3.50102C11.9978 3.77717 11.7739 4.00102 11.4978 4.00102C10.5262 4.00102 9.76457 4.13586 9.24979 4.43307C9.01064 4.57114 8.70485 4.4892 8.56678 4.25005C8.4287 4.01091 8.51064 3.70511 8.74979 3.56704C9.49403 3.13735 10.4694 3.00102 11.4978 3.00102Z" fill="currentColor"/>
</g>
<defs>
<clipPath id="clip0_19836_380131">
<rect width="12" height="12" fill="white"/>
</clipPath>
</defs>
</svg>
