<svg width="12" height="12" viewBox="0 0 12 12" fill="none" xmlns="http://www.w3.org/2000/svg">
<path d="M9.07489 2.21411C9.27006 2.01909 9.58668 2.0192 9.78192 2.21411C9.97714 2.40933 9.97704 2.72587 9.78192 2.92114L6.70673 5.99634L9.78192 9.07153C9.97718 9.2668 9.97718 9.5833 9.78192 9.77856C9.611 9.94948 9.34711 9.97132 9.15302 9.84302L9.07489 9.77856L5.99969 6.70337L2.92548 9.77856C2.73027 9.97377 2.41372 9.97364 2.21844 9.77856C2.02318 9.5833 2.02318 9.2668 2.21844 9.07153L5.29266 5.99634L2.21747 2.92114C2.02265 2.72584 2.02235 2.40923 2.21747 2.21411C2.41258 2.019 2.7292 2.01929 2.9245 2.21411L5.99969 5.28931L9.07489 2.21411Z" fill="currentColor"/>
</svg>
