<svg width="12" height="12" viewBox="0 0 12 12" fill="none" xmlns="http://www.w3.org/2000/svg">
<g clip-path="url(#clip0_19836_380491)">
<path fill-rule="evenodd" clip-rule="evenodd" d="M6 1.5C3.51472 1.5 1.5 3.51472 1.5 6C1.5 8.48528 3.51472 10.5 6 10.5C8.48528 10.5 10.5 8.48528 10.5 6C10.5 3.51472 8.48528 1.5 6 1.5ZM0.5 6C0.5 2.96243 2.96243 0.5 6 0.5C9.03757 0.5 11.5 2.96243 11.5 6C11.5 9.03757 9.03757 11.5 6 11.5C2.96243 11.5 0.5 9.03757 0.5 6ZM7.85355 4.14315C8.04882 4.33841 8.04882 4.655 7.85355 4.85026L6.70711 5.9967L7.85355 7.14315C8.04882 7.33841 8.04882 7.655 7.85355 7.85026C7.65829 8.04552 7.34171 8.04552 7.14645 7.85026L6 6.70381L4.85355 7.85026C4.65829 8.04552 4.34171 8.04552 4.14645 7.85026C3.95118 7.655 3.95118 7.33841 4.14645 7.14315L5.29289 5.9967L4.14645 4.85026C3.95118 4.655 3.95118 4.33841 4.14645 4.14315C4.34171 3.94789 4.65829 3.94789 4.85355 4.14315L6 5.2896L7.14645 4.14315C7.34171 3.94789 7.65829 3.94789 7.85355 4.14315Z" fill="currentColor"/>
</g>
<defs>
<clipPath id="clip0_19836_380491">
<rect width="12" height="12" fill="white"/>
</clipPath>
</defs>
</svg>
