<svg width="12" height="12" viewBox="0 0 12 12" fill="none" xmlns="http://www.w3.org/2000/svg">
<path fill-rule="evenodd" clip-rule="evenodd" d="M8.20993 0.995827L8.25222 0.99585H9.24807L9.29036 0.995827C9.48229 0.995673 9.64758 0.99554 9.79518 1.02515C10.3883 1.14413 10.8519 1.60772 10.9708 2.20082C11.0005 2.34842 11.0003 2.51371 11.0002 2.70564L11.0001 2.74792L11.0002 2.79021C11.0003 2.98214 11.0005 3.14743 10.9708 3.29503C10.8519 3.88813 10.3883 4.35172 9.79518 4.4707C9.64758 4.50031 9.48229 4.50018 9.29036 4.50002L9.24807 4.5H8.25222L8.20993 4.50002C8.018 4.50018 7.85272 4.50031 7.70511 4.4707C7.11201 4.35172 6.64843 3.88813 6.52945 3.29503C6.49984 3.14743 6.49997 2.98214 6.50012 2.79022L6.50014 2.74792L6.50012 2.70563C6.49997 2.5137 6.49984 2.34842 6.52945 2.20082C6.64843 1.60772 7.11201 1.14413 7.70511 1.02515C7.85271 0.99554 8.018 0.995673 8.20993 0.995827ZM8.25222 1.99585C7.99379 1.99585 7.93822 1.99831 7.9018 2.00562C7.7041 2.04528 7.54957 2.19981 7.50991 2.39751C7.50261 2.43392 7.50014 2.4895 7.50014 2.74792C7.50014 3.00635 7.50261 3.06193 7.50991 3.09834C7.54957 3.29604 7.7041 3.45057 7.9018 3.49023C7.93822 3.49754 7.99379 3.5 8.25222 3.5H9.24807C9.5065 3.5 9.56207 3.49754 9.59849 3.49023C9.79619 3.45057 9.95072 3.29604 9.99038 3.09834C9.99768 3.06193 10.0001 3.00635 10.0001 2.74792C10.0001 2.4895 9.99768 2.43392 9.99038 2.39751C9.95072 2.19981 9.79619 2.04528 9.59849 2.00562C9.56207 1.99831 9.5065 1.99585 9.24807 1.99585H8.25222ZM3.10015 1L3.08087 1H3.08087C2.8173 0.999994 2.58992 0.999986 2.40263 1.01529C2.20496 1.03144 2.00835 1.0671 1.81916 1.16349C1.53692 1.3073 1.30745 1.53677 1.16364 1.81902C1.06724 2.00821 1.03158 2.20482 1.01543 2.40249C1.00013 2.58977 1.00014 2.81714 1.00014 3.0807V3.08073V3.1V4.4V4.41928V4.41931C1.00014 4.68287 1.00013 4.91024 1.01543 5.09752C1.03158 5.29519 1.06724 5.4918 1.16364 5.68099C1.30745 5.96323 1.53692 6.1927 1.81916 6.33651C2.00835 6.43291 2.20496 6.46857 2.40263 6.48472C2.58992 6.50002 2.8173 6.50001 3.08087 6.5H3.08088H3.10015H3.40015H3.41941H3.41942C3.68299 6.50001 3.91038 6.50002 4.09766 6.48472C4.29533 6.46857 4.49194 6.43291 4.68113 6.33651C4.96338 6.1927 5.19285 5.96323 5.33666 5.68099C5.43305 5.4918 5.46871 5.29519 5.48486 5.09752C5.50016 4.91023 5.50015 4.68285 5.50015 4.41928V4.41926V4.4V3.1V3.08074V3.08073C5.50015 2.81715 5.50016 2.58977 5.48486 2.40249C5.46871 2.20482 5.43305 2.00821 5.33666 1.81902C5.19285 1.53677 4.96338 1.3073 4.68113 1.16349C4.49194 1.0671 4.29533 1.03144 4.09766 1.01529C3.91037 0.999986 3.68299 0.999994 3.41942 1H3.41942L3.40015 1H3.10015ZM2.27315 2.0545C2.29787 2.0419 2.34823 2.02306 2.48406 2.01197C2.62573 2.00039 2.81187 2 3.10015 2H3.40015C3.68842 2 3.87456 2.00039 4.01623 2.01197C4.15206 2.02306 4.20242 2.0419 4.22714 2.0545C4.32122 2.10244 4.39771 2.17893 4.44565 2.27301C4.45825 2.29773 4.47708 2.34809 4.48818 2.48392C4.49976 2.62559 4.50015 2.81173 4.50015 3.1V4.4C4.50015 4.68828 4.49976 4.87442 4.48818 5.01609C4.47708 5.15192 4.45825 5.20228 4.44565 5.227C4.39771 5.32108 4.32122 5.39757 4.22714 5.44551C4.20242 5.4581 4.15206 5.47694 4.01623 5.48804C3.87456 5.49961 3.68842 5.5 3.40015 5.5H3.10015C2.81187 5.5 2.62573 5.49961 2.48406 5.48804C2.34823 5.47694 2.29787 5.4581 2.27315 5.44551C2.17907 5.39757 2.10258 5.32108 2.05464 5.227C2.04205 5.20228 2.02321 5.15192 2.01211 5.01609C2.00054 4.87442 2.00015 4.68828 2.00015 4.4V3.1C2.00015 2.81173 2.00054 2.62559 2.01211 2.48392C2.02321 2.34809 2.04205 2.29773 2.05464 2.27301C2.10258 2.17893 2.17907 2.10244 2.27315 2.0545ZM2.75235 7.50007L2.71004 7.50005C2.51801 7.4999 2.35264 7.49976 2.20496 7.5294C1.61199 7.64842 1.1485 8.11191 1.02948 8.70489C0.999837 8.85256 0.999969 9.01794 1.00012 9.20997L1.00014 9.25228L1.00012 9.29459C0.999969 9.48662 0.999837 9.652 1.02948 9.79967C1.1485 10.3926 1.61199 10.8561 2.20496 10.9752C2.35263 11.0048 2.518 11.0047 2.71002 11.0045H2.71004L2.75235 11.0045H3.74794L3.79025 11.0045H3.79028C3.9823 11.0047 4.14766 11.0048 4.29533 10.9752C4.88831 10.8561 5.3518 10.3926 5.47081 9.79967C5.50045 9.652 5.50032 9.48663 5.50017 9.2946V9.29459L5.50015 9.25228L5.50017 9.20996V9.20996C5.50032 9.01793 5.50045 8.85256 5.47081 8.70489C5.3518 8.11191 4.88831 7.64842 4.29533 7.5294C4.14765 7.49976 3.98228 7.4999 3.79025 7.50005L3.74794 7.50007H2.75235ZM2.40175 8.50985C2.43818 8.50254 2.49379 8.50007 2.75235 8.50007H3.74794C4.0065 8.50007 4.06211 8.50254 4.09854 8.50985C4.2962 8.54952 4.4507 8.70402 4.49037 8.90168C4.49768 8.93811 4.50015 8.99372 4.50015 9.25228C4.50015 9.51084 4.49768 9.56645 4.49037 9.60288C4.4507 9.80054 4.2962 9.95504 4.09854 9.99471C4.06211 10.002 4.0065 10.0045 3.74794 10.0045H2.75235C2.49379 10.0045 2.43818 10.002 2.40175 9.99471C2.20409 9.95504 2.0496 9.80054 2.00992 9.60288C2.00261 9.56645 2.00015 9.51084 2.00015 9.25228C2.00015 8.99372 2.00261 8.93811 2.00992 8.90168C2.0496 8.70402 2.20409 8.54952 2.40175 8.50985ZM8.60014 5.5L8.58087 5.5C8.3173 5.49999 8.08992 5.49998 7.90263 5.51528C7.70496 5.53144 7.50835 5.56709 7.31916 5.66349C7.03692 5.8073 6.80745 6.03677 6.66364 6.31901C6.56724 6.5082 6.53158 6.70481 6.51543 6.90249C6.50013 7.08977 6.50014 7.31715 6.50014 7.58073L6.50014 7.6V8.9L6.50014 8.91927C6.50014 9.18285 6.50013 9.41023 6.51543 9.59751C6.53158 9.79519 6.56724 9.9918 6.66364 10.181C6.80745 10.4632 7.03692 10.6927 7.31916 10.8365C7.50835 10.9329 7.70496 10.9686 7.90263 10.9847C8.08992 11 8.3173 11 8.58088 11H8.60015H8.90015H8.91941C9.18299 11 9.41037 11 9.59766 10.9847C9.79533 10.9686 9.99194 10.9329 10.1811 10.8365C10.4634 10.6927 10.6928 10.4632 10.8367 10.181C10.9331 9.9918 10.9687 9.79519 10.9849 9.59751C11.0002 9.41022 11.0002 9.18284 11.0001 8.91926V8.9V7.6V7.58074C11.0002 7.31716 11.0002 7.08977 10.9849 6.90249C10.9687 6.70481 10.9331 6.5082 10.8367 6.31901C10.6928 6.03677 10.4634 5.8073 10.1811 5.66349C9.99194 5.56709 9.79533 5.53144 9.59766 5.51528C9.41037 5.49998 9.18299 5.49999 8.91942 5.5L8.90014 5.5H8.60014ZM7.77315 6.5545C7.79787 6.5419 7.84823 6.52306 7.98406 6.51196C8.12573 6.50039 8.31187 6.5 8.60014 6.5H8.90014C9.18842 6.5 9.37456 6.50039 9.51623 6.51196C9.65206 6.52306 9.70242 6.5419 9.72714 6.5545C9.82122 6.60243 9.89771 6.67892 9.94565 6.773C9.95824 6.79773 9.97708 6.84809 9.98818 6.98392C9.99976 7.12559 10.0001 7.31172 10.0001 7.6V8.9C10.0001 9.18828 9.99976 9.37441 9.98818 9.51608C9.97708 9.65191 9.95824 9.70227 9.94565 9.727C9.89771 9.82108 9.82122 9.89757 9.72714 9.9455C9.70242 9.9581 9.65206 9.97694 9.51623 9.98804C9.37456 9.99961 9.18842 10 8.90015 10H8.60015C8.31187 10 8.12573 9.99961 7.98406 9.98804C7.84823 9.97694 7.79787 9.9581 7.77315 9.9455C7.67907 9.89757 7.60258 9.82108 7.55464 9.727C7.54205 9.70227 7.52321 9.65191 7.51211 9.51608C7.50053 9.37441 7.50014 9.18828 7.50014 8.9V7.6C7.50014 7.31172 7.50053 7.12559 7.51211 6.98392C7.52321 6.84809 7.54205 6.79773 7.55464 6.773C7.60258 6.67892 7.67907 6.60243 7.77315 6.5545Z" fill="currentColor"/>
</svg>
