<svg width="12" height="12" viewBox="0 0 12 12" fill="none" xmlns="http://www.w3.org/2000/svg">
<path fill-rule="evenodd" clip-rule="evenodd" d="M8.20997 0.995871L8.25226 0.995894H9.24811L9.2904 0.995871C9.48233 0.995717 9.64762 0.995585 9.79522 1.02519C10.3883 1.14417 10.8519 1.60776 10.9709 2.20086C11.0005 2.34846 11.0004 2.51375 11.0002 2.70568L11.0002 2.74797L11.0002 2.79026C11.0004 2.98219 11.0005 3.14747 10.9709 3.29508C10.8519 3.88817 10.3883 4.35176 9.79522 4.47074C9.64762 4.50035 9.48233 4.50022 9.2904 4.50007L9.24811 4.50004H8.25226L8.20997 4.50007C8.01804 4.50022 7.85276 4.50035 7.70516 4.47074C7.11206 4.35176 6.64847 3.88817 6.52949 3.29508C6.49988 3.14747 6.50001 2.98219 6.50017 2.79026L6.50019 2.74797L6.50017 2.70568C6.50001 2.51375 6.49988 2.34846 6.52949 2.20086C6.64847 1.60776 7.11206 1.14417 7.70516 1.02519C7.85276 0.995585 8.01804 0.995717 8.20997 0.995871ZM8.25226 1.99589C7.99384 1.99589 7.93826 1.99836 7.90184 2.00566C7.70414 2.04532 7.54962 2.19985 7.50996 2.39755C7.50265 2.43396 7.50019 2.48954 7.50019 2.74797C7.50019 3.0064 7.50265 3.06197 7.50996 3.09839C7.54962 3.29609 7.70414 3.45062 7.90184 3.49028C7.93826 3.49758 7.99384 3.50004 8.25226 3.50004H9.24811C9.50654 3.50004 9.56212 3.49758 9.59853 3.49028C9.79623 3.45062 9.95076 3.29609 9.99042 3.09839C9.99773 3.06197 10.0002 3.0064 10.0002 2.74797C10.0002 2.48954 9.99773 2.43396 9.99042 2.39755C9.95076 2.19985 9.79623 2.04532 9.59853 2.00566C9.56212 1.99836 9.50654 1.99589 9.24811 1.99589H8.25226ZM3.10019 1.00005L3.08092 1.00005H3.08091C2.81734 1.00004 2.58996 1.00003 2.40268 1.01533C2.205 1.03148 2.00839 1.06714 1.8192 1.16354C1.53696 1.30735 1.30749 1.53682 1.16368 1.81906C1.06728 2.00825 1.03162 2.20486 1.01547 2.40253C1.00017 2.58981 1.00018 2.81718 1.00019 3.08074V3.08078V3.10005V4.40005V4.41932V4.41935C1.00018 4.68291 1.00017 4.91028 1.01547 5.09756C1.03162 5.29523 1.06728 5.49184 1.16368 5.68103C1.30749 5.96328 1.53696 6.19275 1.8192 6.33656C2.00839 6.43295 2.205 6.46861 2.40268 6.48476C2.58996 6.50006 2.81734 6.50006 3.08091 6.50005H3.08093H3.10019H3.40019H3.41945H3.41947C3.68304 6.50006 3.91042 6.50006 4.0977 6.48476C4.29538 6.46861 4.49199 6.43295 4.68117 6.33656C4.96342 6.19275 5.19289 5.96328 5.3367 5.68103C5.4331 5.49184 5.46875 5.29523 5.4849 5.09756C5.50021 4.91028 5.5002 4.6829 5.50019 4.41932V4.41931V4.40005V3.10005V3.08079V3.08077C5.5002 2.8172 5.50021 2.58982 5.4849 2.40253C5.46875 2.20486 5.4331 2.00825 5.3367 1.81906C5.19289 1.53682 4.96342 1.30735 4.68117 1.16354C4.49199 1.06714 4.29538 1.03148 4.0977 1.01533C3.91042 1.00003 3.68304 1.00004 3.41946 1.00005H3.41946L3.40019 1.00005H3.10019ZM2.27319 2.05454C2.29792 2.04195 2.34828 2.02311 2.48411 2.01201C2.62578 2.00044 2.81191 2.00005 3.10019 2.00005H3.40019C3.68847 2.00005 3.8746 2.00044 4.01627 2.01201C4.1521 2.02311 4.20246 2.04195 4.22718 2.05454C4.32127 2.10248 4.39776 2.17897 4.44569 2.27305C4.45829 2.29777 4.47713 2.34813 4.48823 2.48397C4.4998 2.62563 4.50019 2.81177 4.50019 3.10005V4.40005C4.50019 4.68832 4.4998 4.87446 4.48823 5.01613C4.47713 5.15196 4.45829 5.20232 4.44569 5.22704C4.39776 5.32112 4.32127 5.39761 4.22718 5.44555C4.20246 5.45815 4.1521 5.47699 4.01627 5.48808C3.8746 5.49966 3.68847 5.50005 3.40019 5.50005H3.10019C2.81191 5.50005 2.62578 5.49966 2.48411 5.48808C2.34828 5.47699 2.29792 5.45815 2.27319 5.44555C2.17911 5.39761 2.10262 5.32112 2.05469 5.22704C2.04209 5.20232 2.02325 5.15196 2.01215 5.01613C2.00058 4.87446 2.00019 4.68832 2.00019 4.40005V3.10005C2.00019 2.81177 2.00058 2.62563 2.01215 2.48397C2.02325 2.34813 2.04209 2.29777 2.05469 2.27305C2.10262 2.17897 2.17911 2.10248 2.27319 2.05454ZM2.7524 7.50012L2.71008 7.50009C2.51805 7.49994 2.35268 7.49981 2.205 7.52945C1.61203 7.64847 1.14854 8.11196 1.02952 8.70493C0.99988 8.85261 1.00001 9.01798 1.00017 9.21001L1.00019 9.25233L1.00017 9.29464C1.00001 9.48667 0.99988 9.65204 1.02952 9.79972C1.14854 10.3927 1.61203 10.8562 2.205 10.9752C2.35267 11.0048 2.51804 11.0047 2.71006 11.0046H2.71009L2.7524 11.0045H3.74798L3.79029 11.0046H3.79032C3.98234 11.0047 4.1477 11.0048 4.29538 10.9752C4.88835 10.8562 5.35184 10.3927 5.47086 9.79972C5.5005 9.65204 5.50037 9.48667 5.50021 9.29465V9.29464L5.50019 9.25233L5.50021 9.21001V9.21C5.50037 9.01798 5.5005 8.85261 5.47086 8.70493C5.35184 8.11196 4.88835 7.64847 4.29538 7.52945C4.1477 7.49981 3.98232 7.49994 3.79029 7.50009L3.74798 7.50012H2.7524ZM2.40179 8.50989C2.43823 8.50258 2.49383 8.50012 2.7524 8.50012H3.74798C4.00655 8.50012 4.06215 8.50258 4.09858 8.50989C4.29624 8.54957 4.45074 8.70406 4.49041 8.90172C4.49772 8.93815 4.50019 8.99376 4.50019 9.25233C4.50019 9.51089 4.49772 9.56649 4.49041 9.60293C4.45074 9.80059 4.29624 9.95508 4.09858 9.99475C4.06215 10.0021 4.00655 10.0045 3.74798 10.0045H2.7524C2.49383 10.0045 2.43823 10.0021 2.40179 9.99475C2.20414 9.95508 2.04964 9.80059 2.00997 9.60293C2.00265 9.56649 2.00019 9.51089 2.00019 9.25233C2.00019 8.99376 2.00265 8.93815 2.00997 8.90172C2.04964 8.70406 2.20414 8.54957 2.40179 8.50989ZM9.49994 6.99687C9.49994 6.72073 9.27609 6.49687 8.99994 6.49687C8.7238 6.49687 8.49994 6.72073 8.49994 6.99687V8.50017H6.99994C6.7238 8.50017 6.49994 8.72402 6.49994 9.00017C6.49994 9.27631 6.7238 9.50017 6.99994 9.50017H8.49994V10.9969C8.49994 11.273 8.7238 11.4969 8.99994 11.4969C9.27609 11.4969 9.49994 11.273 9.49994 10.9969V9.50017H10.9999C11.2761 9.50017 11.4999 9.27631 11.4999 9.00017C11.4999 8.72402 11.2761 8.50017 10.9999 8.50017H9.49994V6.99687Z" fill="currentColor"/>
</svg>
