<svg width="12" height="12" viewBox="0 0 12 12" fill="none" xmlns="http://www.w3.org/2000/svg">
<path d="M7.7998 1.49658C8.35161 1.49658 8.79571 1.49658 9.1543 1.52588C9.51864 1.55565 9.83867 1.61822 10.1348 1.76904C10.6052 2.00873 10.9879 2.39141 11.2275 2.86182C11.3784 3.15791 11.4409 3.47794 11.4707 3.84229C11.5 4.20087 11.5 4.64498 11.5 5.19678V6.79639C11.5 7.34819 11.5 7.79229 11.4707 8.15088C11.4409 8.51522 11.3784 8.83526 11.2275 9.13135C10.9879 9.60175 10.6052 9.98444 10.1348 10.2241C9.83867 10.3749 9.51864 10.4375 9.1543 10.4673C8.79571 10.4966 8.35161 10.4966 7.7998 10.4966H4.2002C3.64839 10.4966 3.20429 10.4966 2.8457 10.4673C2.48136 10.4375 2.16133 10.3749 1.86523 10.2241C1.39483 9.98444 1.01214 9.60175 0.772461 9.13135C0.621634 8.83526 0.559066 8.51522 0.529297 8.15088C0.499999 7.79229 0.5 7.34819 0.5 6.79639V5.19678C0.5 4.64498 0.499999 4.20087 0.529297 3.84229C0.559066 3.47794 0.621634 3.15791 0.772461 2.86182C1.01214 2.39141 1.39483 2.00873 1.86523 1.76904C2.16133 1.61822 2.48136 1.55565 2.8457 1.52588C3.20429 1.49658 3.64839 1.49658 4.2002 1.49658H7.7998ZM4.2002 2.49658C3.63189 2.49658 3.23518 2.49677 2.92676 2.52197C2.62471 2.54668 2.45091 2.59272 2.31934 2.65967C2.03709 2.80348 1.8069 3.03367 1.66309 3.31592C1.59613 3.4475 1.55009 3.62129 1.52539 3.92334C1.50019 4.23176 1.5 4.62847 1.5 5.19678V6.79639C1.5 7.36469 1.50019 7.7614 1.52539 8.06982C1.55009 8.37188 1.59613 8.54567 1.66309 8.67725C1.8069 8.95949 2.03709 9.18969 2.31934 9.3335C2.45091 9.40045 2.62471 9.44649 2.92676 9.47119C3.23518 9.49639 3.63189 9.49658 4.2002 9.49658H7.7998C8.36811 9.49658 8.76482 9.49639 9.07324 9.47119C9.37529 9.44649 9.54909 9.40045 9.68066 9.3335C9.96291 9.18969 10.1931 8.95949 10.3369 8.67725C10.4039 8.54567 10.4499 8.37188 10.4746 8.06982C10.4998 7.7614 10.5 7.36469 10.5 6.79639V5.19678C10.5 4.62847 10.4998 4.23176 10.4746 3.92334C10.4499 3.62129 10.4039 3.4475 10.3369 3.31592C10.1931 3.03367 9.96291 2.80348 9.68066 2.65967C9.54909 2.59272 9.37529 2.54668 9.07324 2.52197C8.76482 2.49677 8.36811 2.49658 7.7998 2.49658H4.2002ZM4.5 3.5249C4.69636 3.5249 4.87229 3.64681 4.94141 3.83057L6.44141 7.83057C6.53277 8.07421 6.40952 8.34641 6.16602 8.43799C5.92237 8.52935 5.65017 8.4061 5.55859 8.1626L5.30859 7.49658H3.69141L3.44141 8.1626C3.34983 8.4061 3.07763 8.52935 2.83398 8.43799C2.59048 8.34641 2.46723 8.07421 2.55859 7.83057L4.05859 3.83057L4.08887 3.76514C4.17141 3.61841 4.32796 3.5249 4.5 3.5249ZM9.25 6.50049C9.52614 6.50049 9.75 6.72435 9.75 7.00049C9.74974 7.27641 9.52598 7.50049 9.25 7.50049H7.5C7.22402 7.50049 7.00026 7.27641 7 7.00049C7 6.72435 7.22386 6.50049 7.5 6.50049H9.25ZM4.06641 6.49658H4.93359L4.5 5.33936L4.06641 6.49658ZM9.25 4.50049C9.52614 4.50049 9.75 4.72435 9.75 5.00049C9.74974 5.27641 9.52598 5.50049 9.25 5.50049H7.5C7.22402 5.50049 7.00026 5.27641 7 5.00049C7 4.72435 7.22386 4.50049 7.5 4.50049H9.25Z" fill="currentColor"/>
</svg>
