<svg width="12" height="12" viewBox="0 0 12 12" fill="none" xmlns="http://www.w3.org/2000/svg">
<path fill-rule="evenodd" clip-rule="evenodd" d="M7 1.99658C7 2.54887 6.55228 2.99658 6 2.99658C5.44772 2.99658 5 2.54887 5 1.99658C5 1.4443 5.44772 0.996582 6 0.996582C6.55228 0.996582 7 1.4443 7 1.99658ZM7 5.99658C7 6.54887 6.55228 6.99658 6 6.99658C5.44772 6.99658 5 6.54887 5 5.99658C5 5.4443 5.44772 4.99658 6 4.99658C6.55228 4.99658 7 5.4443 7 5.99658ZM6 10.9966C6.55228 10.9966 7 10.5489 7 9.99658C7 9.4443 6.55228 8.99658 6 8.99658C5.44772 8.99658 5 9.4443 5 9.99658C5 10.5489 5.44772 10.9966 6 10.9966Z" fill="currentColor"/>
</svg>
