<svg width="12" height="12" viewBox="0 0 12 12" fill="none" xmlns="http://www.w3.org/2000/svg">
<path fill-rule="evenodd" clip-rule="evenodd" d="M3.64645 5.35355L5.64645 7.35355C5.84171 7.54882 6.15829 7.54882 6.35355 7.35355L8.35355 5.35355C8.54882 5.15829 8.54882 4.84171 8.35355 4.64645C8.15829 4.45118 7.84171 4.45118 7.64645 4.64645L6.5 5.79289V1.5C6.5 1.22386 6.27614 1 6 1C5.72386 1 5.5 1.22386 5.5 1.5V5.79289L4.35355 4.64645C4.15829 4.45118 3.84171 4.45118 3.64645 4.64645C3.45118 4.84171 3.45118 5.15829 3.64645 5.35355ZM1.5 7.5C1.5 7.22386 1.27614 7 1 7C0.723858 7 0.5 7.22386 0.5 7.5V8.5C0.5 9.88071 1.61929 11 3 11H9C10.3807 11 11.5 9.88071 11.5 8.5V7.5C11.5 7.22386 11.2761 7 11 7C10.7239 7 10.5 7.22386 10.5 7.5V8.5C10.5 9.32843 9.82843 10 9 10H3C2.17157 10 1.5 9.32843 1.5 8.5V7.5Z" fill="currentColor"/>
</svg>
