<svg width="12" height="12" viewBox="0 0 12 12" fill="none" xmlns="http://www.w3.org/2000/svg">
<path fill-rule="evenodd" clip-rule="evenodd" d="M9.29264 2.52884C9.15991 2.50244 8.98862 2.50002 8.5 2.50002H4.2C3.6317 2.50002 3.23554 2.50041 2.92712 2.52561C2.62454 2.55033 2.45069 2.59642 2.31901 2.66351C2.03677 2.80732 1.8073 3.03679 1.66349 3.31903C1.5964 3.45071 1.55031 3.62455 1.52559 3.92714C1.50039 4.23556 1.5 4.63172 1.5 5.20002V6.80002C1.5 7.36832 1.50039 7.76448 1.52559 8.0729C1.55031 8.37548 1.5964 8.54933 1.66349 8.681C1.8073 8.96325 2.03677 9.19272 2.31901 9.33653C2.45069 9.40362 2.62454 9.44971 2.92712 9.47443C3.23554 9.49963 3.6317 9.50002 4.2 9.50002H5.5C5.77614 9.50002 6 9.72388 6 10C6 10.2762 5.77614 10.5 5.5 10.5H4.2H4.17858H4.17844C3.63662 10.5 3.19959 10.5 2.84569 10.4711C2.48126 10.4413 2.16117 10.3784 1.86502 10.2275C1.39462 9.98785 1.01217 9.6054 0.772484 9.13499C0.62159 8.83885 0.558684 8.51876 0.528909 8.15433C0.499991 7.80039 0.499995 7.36331 0.5 6.82142V6.80002V5.20002V5.17862V5.17861C0.499995 4.63672 0.499991 4.19965 0.528909 3.84571C0.558684 3.48128 0.62159 3.16119 0.772484 2.86504C1.01217 2.39464 1.39462 2.01219 1.86502 1.7725C2.16117 1.62161 2.48126 1.5587 2.84569 1.52893C3.19963 1.50001 3.6367 1.50001 4.1786 1.50002L4.2 1.50002H8.5L8.55788 1.50001C8.96668 1.49991 9.24532 1.49984 9.48773 1.54806C10.4795 1.74532 11.2547 2.52057 11.452 3.51229C11.5002 3.75469 11.5001 4.03333 11.5 4.44213V4.44215L11.5 4.50002V5.50002C11.5 5.77616 11.2761 6.00002 11 6.00002C10.7239 6.00002 10.5 5.77616 10.5 5.50002V4.50002C10.5 4.0114 10.4976 3.84011 10.4712 3.70738C10.3528 3.11235 9.88767 2.6472 9.29264 2.52884ZM10.7449 8.00344C10.6772 8.00344 10.6123 8.03032 10.5644 8.07817L9.07733 9.56528C8.74322 9.8994 8.61611 10.0286 8.51394 10.1708C8.41841 10.3037 8.33753 10.4465 8.27272 10.5968C8.24586 10.6591 8.22259 10.7236 8.19748 10.806C8.27983 10.7809 8.34435 10.7576 8.40665 10.7307C8.55694 10.6659 8.69978 10.585 8.83268 10.4895C8.9748 10.3873 9.10404 10.2602 9.43815 9.92611L10.9253 8.43899C10.9731 8.39114 11 8.32625 11 8.25858C11 8.19091 10.9731 8.12601 10.9253 8.07817C10.8774 8.03032 10.8125 8.00344 10.7449 8.00344ZM9.85734 7.37106C10.0927 7.13567 10.412 7.00344 10.7449 7.00344C11.0777 7.00344 11.397 7.13567 11.6324 7.37106C11.8678 7.60644 12 7.92569 12 8.25858C12 8.59146 11.8678 8.91071 11.6324 9.1461L10.1453 10.6332L10.1156 10.6629C9.82089 10.9577 9.63243 11.1462 9.41637 11.3015C9.22491 11.4391 9.01912 11.5556 8.8026 11.649C8.55827 11.7543 8.29969 11.819 7.89537 11.92L7.89532 11.92L7.89531 11.92L7.85457 11.9302L7.62127 11.9885C7.45088 12.0311 7.27064 11.9812 7.14645 11.857C7.02226 11.7328 6.97233 11.5526 7.01493 11.3822L7.07325 11.1489L7.08344 11.1081C7.18448 10.7038 7.2491 10.4452 7.35445 10.2008C7.44782 9.98431 7.56433 9.77852 7.70197 9.58706C7.85728 9.37101 8.04578 9.18255 8.34052 8.88788L8.37022 8.85818L9.85734 7.37106ZM3.33786 4.13144C3.1343 3.94485 2.81802 3.9586 2.63142 4.16216C2.44483 4.36572 2.45858 4.682 2.66214 4.8686L2.95924 5.14094L2.98483 5.1644L2.98485 5.16441C3.60473 5.73265 4.10576 6.19195 4.55037 6.5047C5.0128 6.83 5.46818 7.03688 6 7.03688C6.53182 7.03688 6.9872 6.83 7.44963 6.5047C7.89425 6.19194 8.39528 5.73265 9.01517 5.1644L9.04076 5.14094L9.33786 4.8686C9.54142 4.682 9.55517 4.36572 9.36858 4.16216C9.18198 3.9586 8.8657 3.94485 8.66214 4.13144L8.36504 4.40378C7.71347 5.00106 7.2597 5.41568 6.87428 5.6868C6.50058 5.94968 6.24614 6.03688 6 6.03688C5.75386 6.03688 5.49942 5.94968 5.12572 5.6868C4.74031 5.41568 4.28654 5.00106 3.63496 4.40378L3.33786 4.13144Z" fill="currentColor"/>
</svg>
