<svg width="12" height="12" viewBox="0 0 12 12" fill="none" xmlns="http://www.w3.org/2000/svg">
<path fill-rule="evenodd" clip-rule="evenodd" d="M5.1786 0H5.2H6.79999H6.82139C7.36329 -5.00679e-06 7.80037 -9.0003e-06 8.15431 0.0289093C8.51874 0.0586843 8.83883 0.121591 9.13498 0.272487C9.60539 0.512173 9.98784 0.894628 10.2275 1.36504C10.3784 1.66119 10.4413 1.98128 10.4711 2.34571C10.4886 2.55998 10.4955 2.80471 10.4982 3.08473C11.0817 3.29014 11.5 3.84623 11.5 4.5V7.2916V7.31301V7.31306C11.5 7.85493 11.5 8.29198 11.4711 8.64591C11.4413 9.01033 11.3784 9.33043 11.2275 9.62657C10.9878 10.097 10.6054 10.4794 10.135 10.7191C9.83883 10.87 9.51874 10.9329 9.15431 10.9627C8.80037 10.9916 8.36329 10.9916 7.82139 10.9916H7.8H4.2H4.17861C3.63671 10.9916 3.19963 10.9916 2.84569 10.9627C2.48126 10.9329 2.16117 10.87 1.86502 10.7191C1.39462 10.4794 1.01217 10.097 0.772484 9.62657C0.62159 9.33043 0.558684 9.01033 0.528909 8.64591C0.499991 8.29197 0.499995 7.85489 0.5 7.313V7.2916V4.5C0.5 3.84623 0.91825 3.29015 1.50177 3.08473C1.5045 2.80475 1.51141 2.56003 1.52891 2.34579C1.55868 1.98131 1.62158 1.66118 1.77248 1.36502C2.01217 0.894618 2.39462 0.512166 2.86502 0.272483C3.16117 0.12159 3.48126 0.0586836 3.84569 0.028909C4.19963 -9.0003e-06 4.6367 -5.00679e-06 5.1786 0ZM9.49998 4.5C9.49998 4.54104 9.50493 4.58094 9.51426 4.61911L7.49868 6.14492C7.43484 6.10009 7.3724 6.05793 7.31118 6.01856C6.88974 5.74751 6.47681 5.57468 6 5.57468C5.52319 5.57468 5.11027 5.74751 4.68882 6.01856C4.6316 6.05537 4.5733 6.0946 4.51379 6.13618L2.48666 4.61521C2.49539 4.57822 2.5 4.53965 2.5 4.49999L2.5 3.70037C2.5 3.13194 2.50039 2.73569 2.52559 2.4272C2.55031 2.12454 2.5964 1.95068 2.66349 1.81901C2.8073 1.53677 3.03677 1.3073 3.31901 1.16349C3.45069 1.0964 3.62454 1.05031 3.92712 1.02559C4.23554 1.00039 4.6317 1 5.2 1H6.79999C7.3683 1 7.76445 1.00039 8.07288 1.02559C8.37546 1.05031 8.54931 1.0964 8.68099 1.16349C8.96323 1.3073 9.1927 1.53678 9.33651 1.81902C9.40361 1.9507 9.44969 2.12455 9.47441 2.42713C9.49961 2.73556 9.49999 3.13172 9.49999 3.70002L9.49998 4.5ZM10.5 5.12711L8.31596 6.78045C8.44881 6.88981 8.58784 7.00567 8.73395 7.12744L8.73397 7.12745L8.75889 7.14822L9.32009 7.61589C9.53223 7.79267 9.56089 8.10795 9.38411 8.32009C9.20733 8.53223 8.89205 8.56089 8.67991 8.38411L8.1187 7.91644C7.52588 7.42242 7.11592 7.08195 6.77024 6.85963C6.43622 6.6448 6.21281 6.57468 6 6.57468C5.78719 6.57468 5.56378 6.6448 5.22976 6.85963C4.88408 7.08195 4.47412 7.42242 3.8813 7.91644L3.32009 8.38411C3.10795 8.56089 2.79267 8.53223 2.61589 8.32009C2.43911 8.10795 2.46777 7.79267 2.67991 7.61589L3.24111 7.14822L3.26603 7.12745C3.41604 7.00244 3.55858 6.88366 3.69463 6.77174L1.5 5.12509V7.2916C1.5 7.8599 1.50039 8.25606 1.52559 8.56448C1.55031 8.86706 1.5964 9.0409 1.66349 9.17258C1.8073 9.45483 2.03677 9.6843 2.31901 9.82811C2.45069 9.8952 2.62454 9.94129 2.92712 9.96601C3.23554 9.99121 3.6317 9.9916 4.2 9.9916H7.8C8.3683 9.9916 8.76446 9.99121 9.07288 9.96601C9.37546 9.94129 9.54931 9.8952 9.68099 9.82811C9.96323 9.6843 10.1927 9.45483 10.3365 9.17258C10.4036 9.0409 10.4497 8.86706 10.4744 8.56448C10.4996 8.25606 10.5 7.8599 10.5 7.2916V5.12711ZM4 3C3.72386 3 3.5 3.22386 3.5 3.5C3.5 3.77614 3.72386 4 4 4H8C8.27614 4 8.5 3.77614 8.5 3.5C8.5 3.22386 8.27614 3 8 3H4Z" fill="currentColor"/>
</svg>
