<svg width="12" height="12" viewBox="0 0 12 12" fill="none" xmlns="http://www.w3.org/2000/svg">
<path fill-rule="evenodd" clip-rule="evenodd" d="M7.3125 1.50025C7.49552 1.50025 7.55988 1.50059 7.61035 1.50431C8.2159 1.54898 8.72011 1.95042 8.91436 2.5H5.70024L5.67884 2.5C5.13695 2.5 4.69987 2.49999 4.34593 2.52891C3.98151 2.55869 3.66141 2.62159 3.36527 2.77249C2.89486 3.01217 2.51241 3.39462 2.27273 3.86503C2.12183 4.16117 2.05893 4.48127 2.02915 4.84569C2.00024 5.19963 2.00024 5.6367 2.00024 6.17859V6.1786L2.00024 6.2V6.8L2.00024 6.82141V6.82142C2.00024 7.04168 2.00024 7.24463 2.00218 7.43172C1.64845 7.32372 1.36857 7.08372 1.16349 6.68123C1.0964 6.54955 1.05031 6.37571 1.02559 6.07313C1.00039 5.76471 1 5.36855 1 4.80025V4.20025C1 3.63194 1.00039 3.23579 1.02559 2.92737C1.05031 2.62478 1.0964 2.45094 1.16349 2.31926C1.3073 2.03702 1.53677 1.80755 1.81901 1.66374C1.95069 1.59664 2.12454 1.55056 2.42712 1.52583C2.73554 1.50064 3.1317 1.50025 3.7 1.50025H7.3125ZM2.06594 8.46817C1.30554 8.35212 0.671877 7.91908 0.272484 7.13522C0.12159 6.83908 0.0586838 6.51898 0.0289091 6.15456C-8.88109e-06 5.80062 -4.88758e-06 5.36354 0 4.82165V4.80025V4.20025V4.17884V4.17884C-4.88759e-06 3.63695 -8.82978e-06 3.19987 0.0289091 2.84593C0.0586838 2.48151 0.12159 2.16142 0.272484 1.86527C0.512167 1.39487 0.894619 1.01241 1.36502 0.77273C1.66117 0.621837 1.98126 0.55893 2.34569 0.529156C2.69963 0.500238 3.1367 0.500242 3.6786 0.500247L3.7 0.500247H7.3125L7.33419 0.500244H7.33424C7.48745 0.500231 7.59175 0.500222 7.68391 0.507021C8.82665 0.591314 9.75285 1.43791 9.9578 2.54209C11.0623 2.74682 11.9092 3.67314 11.9935 4.81609C12.0003 4.90824 12.0003 5.01251 12.0002 5.16566V5.16569V5.16572V5.16581L12.0002 5.1875V6.5C12.0002 6.77614 11.7764 7 11.5002 7C11.2241 7 11.0002 6.77614 11.0002 6.5V5.1875C11.0002 5.00448 10.9999 4.94012 10.9962 4.88966C10.9415 4.14825 10.352 3.55876 9.61059 3.50407C9.56012 3.50034 9.49577 3.5 9.31274 3.5H5.70024C5.13194 3.5 4.73579 3.50039 4.42736 3.52559C4.12478 3.55031 3.95094 3.5964 3.81926 3.66349C3.53702 3.8073 3.30754 4.03677 3.16373 4.31902C3.09664 4.45069 3.05055 4.62454 3.02583 4.92712C3.00063 5.23554 3.00024 5.6317 3.00024 6.2V6.8C3.00024 7.36831 3.00063 7.76446 3.02583 8.07288C3.05055 8.37547 3.09664 8.54931 3.16373 8.68099C3.30754 8.96323 3.53702 9.1927 3.81926 9.33651C3.95094 9.40361 4.12478 9.44969 4.42736 9.47441C4.73579 9.49961 5.13194 9.5 5.70024 9.5H6.00024C6.27639 9.5 6.50024 9.72386 6.50024 10C6.50024 10.2761 6.27639 10.5 6.00024 10.5H5.70024H5.67885C5.13695 10.5 4.69987 10.5 4.34593 10.4711C3.98151 10.4413 3.66141 10.3784 3.36527 10.2275C2.89486 9.98784 2.51241 9.60538 2.27273 9.13498C2.1667 8.92689 2.10412 8.70698 2.06594 8.46817ZM9.85841 5.15112C10.0511 5.34894 10.0469 5.66549 9.84912 5.85817L9.78168 5.92387L9.76194 5.9431L9.76192 5.94311L9.7619 5.94313C9.27087 6.42143 8.87455 6.80748 8.5247 7.08392C8.16332 7.36947 7.8081 7.57434 7.38992 7.6462C7.09076 7.69761 6.78468 7.69354 6.48699 7.63418C6.07087 7.5512 5.72124 7.33694 5.36759 7.04187C5.02521 6.7562 4.63931 6.35973 4.16117 5.8685L4.14195 5.84875C3.94934 5.65087 3.95362 5.33432 4.15149 5.14171C4.34937 4.9491 4.66593 4.95337 4.85854 5.15125C5.36042 5.66687 5.71045 6.02557 6.00824 6.27404C6.29934 6.51692 6.49751 6.61659 6.68254 6.65348C6.85992 6.68885 7.0423 6.69128 7.22056 6.66065C7.40651 6.62869 7.60726 6.53434 7.90472 6.2993C8.20903 6.05885 8.56849 5.70959 9.08392 5.20753L9.15137 5.14183C9.34918 4.94915 9.66573 4.95331 9.85841 5.15112ZM8.50138 9.5C8.22524 9.49937 8.00087 9.72272 8.00025 9.99886C7.99962 10.275 8.22296 10.4994 8.4991 10.5L9.50024 10.5023V11.5034C9.50024 11.7796 9.7241 12.0034 10.0002 12.0034C10.2764 12.0034 10.5002 11.7796 10.5002 11.5034V10.5023L11.5014 10.5C11.7775 10.4994 12.0009 10.275 12.0002 9.99886C11.9996 9.72272 11.7752 9.49937 11.4991 9.5L10.5002 9.50228V8.50342C10.5002 8.22728 10.2764 8.00342 10.0002 8.00342C9.7241 8.00342 9.50024 8.22728 9.50024 8.50342V9.50228L8.50138 9.5Z" fill="currentColor"/>
</svg>
