<svg width="12" height="12" viewBox="0 0 12 12" fill="none" xmlns="http://www.w3.org/2000/svg">
<path fill-rule="evenodd" clip-rule="evenodd" d="M4.2 1.5H4.1786H4.17859C3.6367 1.5 3.19963 1.49999 2.84569 1.52891C2.48126 1.55868 2.16117 1.62159 1.86502 1.77248C1.39462 2.01217 1.01217 2.39462 0.772484 2.86502C0.62159 3.16117 0.558684 3.48126 0.528909 3.84569C0.499991 4.19963 0.499995 4.6367 0.5 5.17859V5.1786V5.2V6.8V6.8214C0.499995 7.3633 0.499991 7.80037 0.528909 8.15431C0.558684 8.51874 0.62159 8.83883 0.772484 9.13498C1.01217 9.60538 1.39462 9.98783 1.86502 10.2275C2.16117 10.3784 2.48126 10.4413 2.84569 10.4711C3.19961 10.5 3.63667 10.5 4.17853 10.5H4.17858H4.2H7.8H7.82142H7.82147C8.36333 10.5 8.80039 10.5 9.15431 10.4711C9.51874 10.4413 9.83883 10.3784 10.135 10.2275C10.6054 9.98783 10.9878 9.60538 11.2275 9.13498C11.3784 8.83883 11.4413 8.51874 11.4711 8.15431C11.5 7.80039 11.5 7.36333 11.5 6.82147V6.82142V6.8V5.2V5.17858V5.17853C11.5 4.63667 11.5 4.19961 11.4711 3.84569C11.4413 3.48126 11.3784 3.16117 11.2275 2.86502C10.9878 2.39462 10.6054 2.01217 10.135 1.77248C9.83883 1.62159 9.51874 1.55868 9.15431 1.52891C8.80037 1.49999 8.3633 1.5 7.8214 1.5H7.8H4.2ZM2.31901 2.66349C2.45069 2.5964 2.62454 2.55031 2.92712 2.52559C3.23554 2.50039 3.6317 2.5 4.2 2.5H7.8C8.3683 2.5 8.76446 2.50039 9.07288 2.52559C9.37546 2.55031 9.54931 2.5964 9.68099 2.66349C9.96323 2.8073 10.1927 3.03677 10.3365 3.31901C10.4036 3.45069 10.4497 3.62454 10.4744 3.92712C10.4996 4.23554 10.5 4.6317 10.5 5.2V6.8C10.5 7.3683 10.4996 7.76446 10.4744 8.07288C10.4497 8.37546 10.4036 8.54931 10.3365 8.68099C10.1927 8.96323 9.96323 9.1927 9.68099 9.33651C9.54931 9.4036 9.37546 9.44969 9.07288 9.47441C8.76446 9.49961 8.3683 9.5 7.8 9.5H4.2C3.6317 9.5 3.23554 9.49961 2.92712 9.47441C2.62454 9.44969 2.45069 9.4036 2.31901 9.33651C2.03677 9.1927 1.8073 8.96323 1.66349 8.68099C1.5964 8.54931 1.55031 8.37546 1.52559 8.07288C1.50039 7.76446 1.5 7.3683 1.5 6.8V5.2C1.5 4.6317 1.50039 4.23554 1.52559 3.92712C1.55031 3.62454 1.5964 3.45069 1.66349 3.31901C1.8073 3.03677 2.03677 2.8073 2.31901 2.66349ZM3.33786 4.13142C3.1343 3.94483 2.81802 3.95858 2.63142 4.16214C2.44483 4.3657 2.45858 4.68198 2.66214 4.86858L2.95924 5.14092L2.98483 5.16438C3.60472 5.73263 4.10575 6.19192 4.55037 6.50469C5.0128 6.82998 5.46818 7.03686 6 7.03686C6.53182 7.03686 6.9872 6.82998 7.44963 6.50469C7.89425 6.19192 8.39528 5.73263 9.01517 5.16438L9.04076 5.14092L9.33786 4.86858C9.54142 4.68198 9.55517 4.3657 9.36858 4.16214C9.18198 3.95858 8.8657 3.94483 8.66214 4.13142L8.36504 4.40377C7.71347 5.00104 7.2597 5.41566 6.87428 5.68678C6.50058 5.94966 6.24614 6.03686 6 6.03686C5.75386 6.03686 5.49942 5.94966 5.12572 5.68678C4.74031 5.41566 4.28654 5.00104 3.63496 4.40377L3.33786 4.13142Z" fill="currentColor"/>
</svg>
