<svg width="12" height="12" viewBox="0 0 12 12" fill="none" xmlns="http://www.w3.org/2000/svg">
<path fill-rule="evenodd" clip-rule="evenodd" d="M5.2 1.31229e-07H5.17859C4.6367 -4.87556e-06 4.19963 -8.86907e-06 3.84569 0.0289092C3.48126 0.0586839 3.16117 0.12159 2.86502 0.272484C2.39462 0.512167 2.01216 0.894622 1.77248 1.36503C1.62158 1.66118 1.55868 1.9813 1.52891 2.34576C1.51342 2.5353 1.50623 2.74869 1.50289 2.98925C1.20336 3.20152 0.954473 3.47725 0.778939 3.79939C0.623576 4.08451 0.559341 4.39235 0.529147 4.73791C0.499989 5.07161 0.499994 5.48265 0.5 5.98721V5.98722V6.00974V7.50585V7.52836V7.52837C0.499994 8.03294 0.499989 8.44397 0.529147 8.77767C0.559341 9.12323 0.623576 9.43108 0.778939 9.71619C1.02324 10.1645 1.40956 10.5229 1.87696 10.7456C2.17006 10.8853 2.48642 10.9435 2.84832 10.9711C3.20093 10.9981 3.63687 10.9981 4.1798 10.9981H4.17985L4.19946 10.9981L4.2 10.9981L5.99946 11C6.27561 11.0003 6.4997 10.7767 6.5 10.5005C6.5003 10.2244 6.27668 10.0003 6.00054 10L4.20054 9.99807H4.2C3.63223 9.99807 3.23453 9.99773 2.92449 9.97404C2.61938 9.95073 2.4418 9.90704 2.30708 9.84285C2.02183 9.70694 1.79623 9.49315 1.65704 9.23771C1.59441 9.12279 1.54965 8.96877 1.52535 8.69063C1.50044 8.40558 1.5 8.03835 1.5 7.50585V6.00974C1.5 5.47723 1.50044 5.11 1.52535 4.82496C1.52945 4.77807 1.53413 4.73471 1.53937 4.69447C1.57335 4.77494 1.62827 4.8462 1.70001 4.9L3.93104 6.57328L2.67991 7.61589C2.46777 7.79267 2.43911 8.10795 2.61589 8.32009C2.79267 8.53223 3.10795 8.56089 3.32009 8.38411L4.82009 7.13411C5.0381 6.95244 5.11463 6.8898 5.18353 6.84509C5.68015 6.52286 6.31984 6.52286 6.81646 6.84509C6.88537 6.8898 6.96189 6.95243 7.17991 7.13411L7.92991 7.75911C8.14205 7.93589 8.45733 7.90723 8.63411 7.69509C8.81089 7.48295 8.78223 7.16767 8.57009 6.99089L8.06896 6.57328L10.3 4.9C10.3615 4.85388 10.4106 4.79493 10.4448 4.72834C10.4566 4.82703 10.4662 4.93707 10.4737 5.05787C10.4998 5.47343 10.5 5.9717 10.5 6.5C10.5 6.77614 10.7239 7 11 7C11.2761 7 11.5 6.77614 11.5 6.5V6.48908V6.48903C11.5 5.97343 11.5 5.44534 11.4718 4.99527C11.4575 4.76788 11.4355 4.54936 11.3999 4.35478C11.3655 4.16674 11.3129 3.96787 11.2211 3.79939C11.0455 3.47726 10.7966 3.20154 10.4971 2.98926C10.4938 2.74867 10.4866 2.53525 10.4711 2.34569C10.4413 1.98126 10.3784 1.66117 10.2275 1.36502C9.98784 0.894619 9.60539 0.512167 9.13499 0.272484C8.83884 0.12159 8.51875 0.0586839 8.15432 0.0289092C7.80038 -8.86907e-06 7.36331 -4.87556e-06 6.82142 1.31229e-07H6.80001H5.2ZM7.24937 5.93797C6.47663 5.4919 5.52338 5.4919 4.75063 5.93797L2.5 4.25L2.5 3.70024C2.5 3.13186 2.50039 2.73564 2.52559 2.42718C2.55031 2.12454 2.5964 1.95069 2.66349 1.81902C2.8073 1.53677 3.03677 1.3073 3.31901 1.16349C3.45069 1.0964 3.62454 1.05031 3.92712 1.02559C4.23554 1.00039 4.63169 1 5.2 1H6.80001C7.36832 1 7.76447 1.00039 8.07289 1.02559C8.37548 1.05031 8.54932 1.0964 8.681 1.16349C8.96324 1.3073 9.19271 1.53677 9.33652 1.81901C9.40361 1.95069 9.4497 2.12454 9.47442 2.42712C9.49962 2.73554 9.50001 3.1317 9.50001 3.7V4.25L7.24937 5.93797ZM8.5 9.50342C8.22386 9.50342 8 9.72728 8 10.0034C8 10.2796 8.22386 10.5034 8.5 10.5034H9.5V11.5034C9.5 11.7796 9.72386 12.0034 10 12.0034C10.2761 12.0034 10.5 11.7796 10.5 11.5034V10.5034H11.5C11.7761 10.5034 12 10.2796 12 10.0034C12 9.72728 11.7761 9.50342 11.5 9.50342H10.5V8.50342C10.5 8.22728 10.2761 8.00342 10 8.00342C9.72386 8.00342 9.5 8.22728 9.5 8.50342V9.50342H8.5ZM4.5 3C4.22386 3 4 3.22386 4 3.5C4 3.77614 4.22386 4 4.5 4H7.5C7.77614 4 8 3.77614 8 3.5C8 3.22386 7.77614 3 7.5 3H4.5Z" fill="currentColor"/>
</svg>
