<svg width="12" height="12" viewBox="0 0 12 12" fill="none" xmlns="http://www.w3.org/2000/svg">
<path fill-rule="evenodd" clip-rule="evenodd" d="M8.09704 1.99585C8.52595 1.99516 8.81754 1.99508 9.04294 2.01314C9.26251 2.03074 9.37479 2.06309 9.4531 2.10288C9.64157 2.19865 9.79484 2.35167 9.8909 2.53999C9.93082 2.61823 9.96335 2.73046 9.9813 2.95C9.99972 3.17537 10.0001 3.46696 10.0001 3.89588L10.0001 3.99681H7.0001L7.00013 1.99762L8.09704 1.99585ZM7.00008 4.99681H10.0001L10.0001 6.99681H7.00005L7.00008 4.99681ZM7.00004 7.99681L7.00001 10.0011L8.10236 9.99976C8.53018 9.99924 8.82098 9.99849 9.04576 9.97986C9.26469 9.96171 9.37666 9.92917 9.45477 9.88928C9.6427 9.79332 9.79546 9.64038 9.89119 9.45233C9.93098 9.37417 9.96339 9.26216 9.98128 9.04321C9.99964 8.81841 10 8.52761 10 8.09979L10 7.99681H7.00004ZM4.50191 10.0001L6.00001 10.0013L6.00002 8.91143C5.84363 8.96671 5.67533 8.99679 5.5 8.99679H3.00498C3.00959 9.12807 3.01833 9.19967 3.03453 9.25982C3.12714 9.60352 3.39547 9.87209 3.73909 9.965C3.85078 9.9952 4.00206 9.99967 4.50191 10.0001ZM2.002 8.91214C2.00651 9.14728 2.02129 9.34304 2.06897 9.51997C2.25417 10.2074 2.79083 10.7445 3.47807 10.9303C3.73517 10.9998 4.03211 10.9999 4.43193 11L4.50108 11.0001L6.49959 11.0017H6.50061L8.10358 10.9998L8.12423 10.9997C8.52625 10.9992 8.85807 10.9988 9.12837 10.9764C9.40912 10.9532 9.66717 10.9036 9.90952 10.7799C10.2854 10.588 10.5909 10.2821 10.7824 9.90601C10.9058 9.66351 10.955 9.4054 10.978 9.12462C11 8.85429 11 8.52246 11 8.12042V8.09981L11.0001 3.89589V3.87519V3.87517V3.87516V3.87515V3.87513V3.87512C11.0001 3.47208 11.0001 3.13946 10.978 2.86853C10.955 2.58713 10.9056 2.32846 10.7817 2.08558C10.5896 1.70895 10.283 1.40289 9.90609 1.21137C9.663 1.08785 9.40426 1.03889 9.12282 1.01634C8.85183 0.994624 8.51918 0.995165 8.11609 0.995821L8.09543 0.995855L6.50033 0.998427L6.49983 0.998427L4.50036 0.997651L4.43164 0.9976C4.03438 0.997231 3.73939 0.996958 3.48382 1.06524C2.79281 1.24988 2.253 1.78948 2.06809 2.48042C2.02124 2.6555 2.00656 2.8491 2.00203 3.08143C1.41838 3.28677 1 3.84292 1 4.49679V7.49679C1 8.15065 1.41836 8.70679 2.002 8.91214ZM3.00505 2.99679C3.00964 2.86858 3.01825 2.79816 3.0341 2.73894C3.12655 2.39347 3.39646 2.12367 3.74196 2.03135C3.85299 2.00169 4.00334 1.99746 4.49997 1.99765L6.00013 1.99823L6.00011 3.08218C5.84369 3.02688 5.67536 2.99679 5.5 2.99679H3.00505ZM2 4.49679C2 4.22065 2.22386 3.99679 2.5 3.99679H5.5C5.77614 3.99679 6 4.22065 6 4.49679V7.49679C6 7.77293 5.77614 7.99679 5.5 7.99679H2.5C2.22386 7.99679 2 7.77293 2 7.49679V4.49679ZM2.64645 4.64324C2.84171 4.44797 3.15829 4.44797 3.35355 4.64324L4 5.28968L4.64645 4.64324C4.84171 4.44797 5.15829 4.44797 5.35355 4.64324C5.54882 4.8385 5.54882 5.15508 5.35355 5.35034L4.70711 5.99679L5.35355 6.64324C5.54882 6.8385 5.54882 7.15508 5.35355 7.35034C5.15829 7.54561 4.84171 7.54561 4.64645 7.35034L4 6.7039L3.35355 7.35034C3.15829 7.54561 2.84171 7.54561 2.64645 7.35034C2.45118 7.15508 2.45118 6.8385 2.64645 6.64324L3.29289 5.99679L2.64645 5.35034C2.45118 5.15508 2.45118 4.8385 2.64645 4.64324Z" fill="currentColor"/>
</svg>
