<svg width="12" height="12" viewBox="0 0 12 12" fill="none" xmlns="http://www.w3.org/2000/svg">
<path fill-rule="evenodd" clip-rule="evenodd" d="M9.05349 2.01536C8.82844 1.99697 8.5373 1.99658 8.10901 1.99658H6.0045C5.72836 1.99658 5.5045 1.77272 5.5045 1.49658C5.5045 1.22044 5.72836 0.996582 6.0045 0.996582H8.10901L8.12966 0.996582C8.53214 0.996576 8.86432 0.996571 9.13492 1.01868C9.41597 1.04164 9.67432 1.09092 9.91699 1.21457C10.2933 1.40632 10.5993 1.71228 10.791 2.0886C10.9147 2.33127 10.9639 2.58962 10.9869 2.87067C11.009 3.14126 11.009 3.47344 11.009 3.87592V3.89658V6.00109C11.009 6.27723 10.7851 6.50109 10.509 6.50109C10.2329 6.50109 10.009 6.27723 10.009 6.00109V3.89658C10.009 3.46829 10.0086 3.17715 9.99023 2.9521C9.97232 2.73289 9.93986 2.62079 9.90001 2.54259C9.80414 2.35443 9.65116 2.20145 9.463 2.10558C9.3848 2.06573 9.2727 2.03327 9.05349 2.01536ZM1.5 5.50109C1.77614 5.50109 2 5.72494 2 6.00109V8.10559C2 8.53388 2.00039 8.82503 2.01878 9.05007C2.03669 9.26928 2.06915 9.38138 2.10899 9.45958C2.20487 9.64774 2.35785 9.80072 2.54601 9.8966C2.62421 9.93644 2.73631 9.9689 2.95552 9.98681C3.18056 10.0052 3.47171 10.0056 3.9 10.0056H6.0045C6.28065 10.0056 6.5045 10.2294 6.5045 10.5056C6.5045 10.7817 6.28065 11.0056 6.0045 11.0056H3.9H3.87934C3.47686 11.0056 3.14468 11.0056 2.87409 10.9835C2.59304 10.9605 2.33469 10.9112 2.09202 10.7876C1.7157 10.5959 1.40973 10.2899 1.21799 9.91357C1.09434 9.6709 1.04506 9.41255 1.0221 9.1315C0.999989 8.86091 0.999994 8.52872 1 8.12624L1 8.10559V6.00109C1 5.72494 1.22386 5.50109 1.5 5.50109Z" fill="currentColor"/>
</svg>
