<svg width="12" height="12" viewBox="0 0 12 12" fill="none" xmlns="http://www.w3.org/2000/svg">
<path fill-rule="evenodd" clip-rule="evenodd" d="M1.14938 1.14303C0.954114 1.33829 0.954114 1.65487 1.14938 1.85014L10.1494 10.8501C10.3446 11.0454 10.6612 11.0454 10.8565 10.8501C11.0517 10.6549 11.0517 10.3383 10.8565 10.143L9.86125 9.14779C10.4375 8.72033 10.9196 8.2459 11.3033 7.81016L11.3159 7.79578L11.3159 7.79577C11.4348 7.66084 11.5549 7.52444 11.6574 7.3615C11.769 7.18413 11.8505 6.992 11.9252 6.74038C11.9866 6.53365 12.0059 6.24196 12.0059 6C12.0059 5.75804 11.9866 5.46635 11.9252 5.25962C11.8505 5.008 11.769 4.81587 11.6574 4.6385C11.5549 4.47556 11.4348 4.33916 11.3159 4.20423L11.3159 4.20422L11.3033 4.18984C10.2645 3.00995 8.46022 1.5 6.00293 1.5C4.86001 1.5 3.85656 1.82795 3.00868 2.29522L1.85648 1.14303C1.66122 0.947766 1.34464 0.947766 1.14938 1.14303ZM10.5527 7.14936C10.1761 7.5771 9.7043 8.03498 9.14531 8.43186L7.72713 7.01367C7.77395 6.93404 7.8153 6.85109 7.8508 6.76537C7.95131 6.52272 8.00304 6.26264 8.00304 6C8.00304 5.73736 7.95131 5.47728 7.8508 5.23463C7.75029 4.99198 7.60297 4.7715 7.41726 4.58579C7.23154 4.40007 7.01106 4.25275 6.76841 4.15224C6.52576 4.05173 6.26569 4 6.00304 4C5.7404 4 5.48033 4.05173 5.23768 4.15224C5.15196 4.18775 5.069 4.2291 4.98937 4.27592L3.74996 3.0365C4.4161 2.71059 5.16851 2.5 6.00293 2.5C8.03279 2.5 9.58569 3.75227 10.5527 4.85064C10.6873 5.00356 10.7555 5.08271 10.811 5.17099C10.8611 5.25063 10.9098 5.3531 10.9666 5.54438C10.9851 5.60661 11.0059 5.77844 11.0059 6C11.0059 6.22156 10.9851 6.39339 10.9666 6.45562C10.9098 6.6469 10.8611 6.74937 10.811 6.82901C10.7555 6.91729 10.6873 6.99644 10.5527 7.14936ZM5.74683 5.03338L6.96966 6.25621C6.99178 6.17279 7.00304 6.08668 7.00304 6C7.00304 5.86868 6.97718 5.73864 6.92692 5.61732C6.87667 5.49599 6.80301 5.38575 6.71015 5.29289C6.61729 5.20004 6.50705 5.12638 6.38573 5.07612C6.2644 5.02587 6.13437 5 6.00304 5C5.91637 5 5.83025 5.01127 5.74683 5.03338ZM1.9323 3.64721C2.12525 3.84476 2.12152 4.16132 1.92398 4.35427C1.75321 4.52107 1.59612 4.68825 1.45315 4.85064C1.31852 5.00356 1.25039 5.08271 1.19486 5.17099C1.14475 5.25063 1.09604 5.3531 1.03922 5.54438C1.02074 5.60661 1 5.77844 1 6C1 6.22156 1.02074 6.39339 1.03922 6.45562C1.09604 6.6469 1.14475 6.74937 1.19486 6.82901C1.25039 6.91729 1.31852 6.99644 1.45315 7.14936C2.42017 8.24773 3.97307 9.5 6.00293 9.5C6.41965 9.5 6.81477 9.44755 7.18819 9.35506C7.45623 9.28866 7.72735 9.45213 7.79374 9.72017C7.86013 9.98822 7.69666 10.2593 7.42862 10.3257C6.98031 10.4368 6.50448 10.5 6.00293 10.5C3.54564 10.5 1.74139 8.99005 0.702589 7.81016L0.689919 7.79578C0.571069 7.66084 0.450926 7.52444 0.34842 7.3615C0.236838 7.18413 0.155369 6.992 0.0806215 6.74038C0.0192115 6.53365 0 6.24196 0 6C0 5.75804 0.0192115 5.46635 0.0806215 5.25962C0.155369 5.008 0.236838 4.81587 0.34842 4.6385C0.450925 4.47556 0.571066 4.33916 0.689915 4.20423L0.689916 4.20423L0.702589 4.18984C0.8606 4.01036 1.03492 3.82479 1.22524 3.63889C1.42279 3.44594 1.73935 3.44967 1.9323 3.64721Z" fill="currentColor"/>
</svg>
