<svg width="12" height="12" viewBox="0 0 12 12" fill="none" xmlns="http://www.w3.org/2000/svg">
<path fill-rule="evenodd" clip-rule="evenodd" d="M1.53284 4.75802C2.50626 3.68141 4.02815 2.5 5.99999 2.5C7.97184 2.5 9.49373 3.68141 10.4671 4.75802C10.6063 4.91191 10.6759 4.99085 10.734 5.08247C10.7874 5.16679 10.841 5.2792 10.9057 5.49281C10.9268 5.56238 10.9496 5.75454 10.9496 6C10.9496 6.24546 10.9268 6.43762 10.9057 6.50719C10.841 6.7208 10.7874 6.83321 10.734 6.91753C10.6759 7.00915 10.6063 7.08809 10.4671 7.24198C9.49373 8.31859 7.97184 9.5 5.99999 9.5C4.02815 9.5 2.50626 8.31859 1.53284 7.24198C1.3937 7.08809 1.32407 7.00915 1.26602 6.91753C1.2126 6.83321 1.15895 6.7208 1.09427 6.50719C1.0732 6.43762 1.05038 6.24546 1.05038 6C1.05038 5.75454 1.0732 5.56238 1.09427 5.49281C1.15895 5.2792 1.2126 5.16679 1.26602 5.08247C1.32407 4.99085 1.3937 4.91191 1.53284 4.75802ZM5.99999 1.5C3.61205 1.5 1.84092 2.92623 0.791079 4.08736L0.778149 4.10166C0.654734 4.23809 0.529355 4.3767 0.421278 4.5473C0.304802 4.73115 0.218685 4.93386 0.137186 5.20299C0.0711313 5.42112 0.0503845 5.73722 0.0503845 6C0.0503845 6.26279 0.0711313 6.57888 0.137186 6.79701C0.218685 7.06614 0.304802 7.26885 0.421278 7.4527C0.529354 7.6233 0.654732 7.7619 0.778146 7.89834L0.791079 7.91264C1.84092 9.07377 3.61205 10.5 5.99999 10.5C8.38794 10.5 10.1591 9.07377 11.2089 7.91264L11.2218 7.89835C11.3452 7.76191 11.4706 7.6233 11.5787 7.4527C11.6952 7.26885 11.7813 7.06614 11.8628 6.79701C11.9289 6.57888 11.9496 6.26279 11.9496 6C11.9496 5.73721 11.9289 5.42112 11.8628 5.20299C11.7813 4.93386 11.6952 4.73115 11.5787 4.5473C11.4706 4.3767 11.3453 4.23809 11.2218 4.10166L11.2218 4.10165L11.2089 4.08736C10.1591 2.92623 8.38794 1.5 5.99999 1.5ZM4.99999 6C4.99999 5.44772 5.44771 5 5.99999 5C6.55228 5 6.99999 5.44772 6.99999 6C6.99999 6.55228 6.55228 7 5.99999 7C5.44771 7 4.99999 6.55228 4.99999 6ZM5.99999 4C4.89542 4 3.99999 4.89543 3.99999 6C3.99999 7.10457 4.89542 8 5.99999 8C7.10456 8 7.99999 7.10457 7.99999 6C7.99999 4.89543 7.10456 4 5.99999 4Z" fill="currentColor"/>
</svg>
