<svg width="12" height="12" viewBox="0 0 12 12" fill="none" xmlns="http://www.w3.org/2000/svg">
<path fill-rule="evenodd" clip-rule="evenodd" d="M6.52829 0.497369C6.51893 0.496847 6.50949 0.496582 6.5 0.496582C6.49335 0.496582 6.48672 0.496712 6.48013 0.49697C6.44675 0.496813 6.41277 0.496865 6.37808 0.496918L6.33639 0.496969L4.69777 0.497951L4.67638 0.497963C4.13478 0.498283 3.69794 0.498541 3.34419 0.52765C2.97995 0.557621 2.66004 0.620675 2.36408 0.77163C1.89396 1.01142 1.51178 1.39383 1.27227 1.8641C1.12149 2.16015 1.05864 2.48011 1.02888 2.84436C0.999988 3.19813 0.999993 3.63497 1 4.17655V4.17656V4.19796L1.00003 8.99892C1.00003 9.74367 1.32632 10.4131 1.84207 10.8706C2.04865 11.0539 2.36467 11.035 2.54792 10.8284C2.73116 10.6218 2.71225 10.3058 2.50567 10.1225C2.19477 9.84674 2.00003 9.44574 2.00003 8.99892L2 4.19795C2 3.62997 2.00039 3.23403 2.02556 2.92577C2.05027 2.62334 2.09632 2.44957 2.16336 2.31793C2.30706 2.03577 2.53637 1.80632 2.81845 1.66245C2.95005 1.59532 3.12379 1.54917 3.4262 1.52428C3.73444 1.49892 4.13038 1.49829 4.69837 1.49795L6 1.49717V2.39658L6 2.41585C5.99999 2.67943 5.99998 2.90681 6.01529 3.0941C6.03144 3.29177 6.06709 3.48838 6.16349 3.67757C6.3073 3.95981 6.53677 4.18928 6.81901 4.33309C7.0082 4.42949 7.20481 4.46515 7.40249 4.4813C7.58977 4.4966 7.81715 4.49659 8.08073 4.49658L8.1 4.49658H9L9 5.49658C9 5.77273 9.22386 5.99658 9.5 5.99658C9.77614 5.99658 10 5.77272 10 5.49658L10 4.15931L10 4.11766C10.0001 4.08043 10.0001 4.044 9.99987 4.00826C9.99996 4.00437 10 4.00048 10 3.99658C10 3.9897 9.99986 3.98285 9.99959 3.97603C9.9979 3.829 9.99041 3.69331 9.95855 3.56062C9.92181 3.40756 9.8612 3.26125 9.77896 3.12704C9.68534 2.97427 9.55838 2.84755 9.41439 2.70382L9.38492 2.67439L7.82258 1.11204L7.79312 1.08255C7.64928 0.938438 7.52245 0.81138 7.36955 0.717718C7.23522 0.635436 7.08877 0.574827 6.93559 0.538118C6.80533 0.506902 6.67219 0.499159 6.52829 0.497369ZM7 1.7046V2.39658C7 2.68486 7.00039 2.871 7.01196 3.01266C7.02306 3.1485 7.0419 3.19886 7.0545 3.22358C7.10243 3.31766 7.17892 3.39415 7.27301 3.44209C7.29773 3.45468 7.34809 3.47352 7.48392 3.48462C7.62559 3.49619 7.81172 3.49658 8.1 3.49658H8.79199C8.76188 3.46584 8.72454 3.42822 8.67781 3.3815L7.11547 1.81915L7.46902 1.4656L7.11547 1.81915C7.06856 1.77224 7.03082 1.73478 7 1.7046ZM9.54619 7.52571C9.80625 7.43284 10.0924 7.56836 10.1852 7.82842L10.6072 9.00994L11.0292 7.82842C11.122 7.56836 11.4081 7.43284 11.6682 7.52571C11.9282 7.61858 12.0638 7.90469 11.9709 8.16475L11.0781 10.6647C11.007 10.8637 10.8185 10.9966 10.6072 10.9966C10.3959 10.9966 10.2074 10.8637 10.1363 10.6647L9.24348 8.16475C9.15061 7.90469 9.28614 7.61858 9.54619 7.52571ZM4.97995 8.49659C4.81654 8.49848 4.5 8.71319 4.5 9.24658C4.5 9.77997 4.81654 9.99468 4.97995 9.99657C5.06273 9.99508 5.15753 9.9586 5.24235 9.86814C5.43122 9.66669 5.74764 9.6565 5.94909 9.84537C6.15054 10.0342 6.16073 10.3507 5.97186 10.5521C5.71581 10.8252 5.36644 10.993 4.98682 10.9966L4.98212 10.9966C4.05562 10.9966 3.5 10.0962 3.5 9.24658C3.5 8.39692 4.05562 7.49658 4.98212 7.49658H4.98682L4.98682 7.4966C5.36644 7.50018 5.71581 7.66795 5.97186 7.94106C6.16073 8.14251 6.15054 8.45892 5.94909 8.6478C5.74764 8.83667 5.43122 8.82647 5.24235 8.62502C5.15753 8.53456 5.06273 8.49809 4.97995 8.49659ZM7.8863 8.74677C7.68326 8.68924 7.57201 8.65534 7.50149 8.61507C7.50675 8.56336 7.52443 8.54637 7.53074 8.5406C7.5431 8.5293 7.58929 8.49672 7.70242 8.49658C7.84011 8.49713 7.97778 8.54463 8.09495 8.63785C8.31105 8.80978 8.6256 8.77397 8.79752 8.55788C8.96945 8.34179 8.93364 8.02723 8.71755 7.85531C8.4286 7.62542 8.07351 7.49762 7.70454 7.49658H7.70313C7.3949 7.49658 7.08969 7.58888 6.85598 7.80257C6.61734 8.02075 6.5 8.32331 6.5 8.64658C6.5 8.82914 6.54731 9.00092 6.64393 9.15114C6.73737 9.29642 6.86045 9.39609 6.97538 9.46568C7.17198 9.58473 7.41358 9.65263 7.57831 9.69893L7.6137 9.7089C7.81822 9.76684 7.92769 9.80374 7.99313 9.84627L7.99998 9.8509C7.99947 9.90984 7.98855 9.93355 7.98667 9.93734L7.98643 9.93784C7.98557 9.93966 7.98472 9.94145 7.97786 9.94613C7.9511 9.9644 7.86976 9.99648 7.7039 9.99658C7.56618 9.99605 7.42849 9.94855 7.3113 9.85531C7.0952 9.68338 6.78065 9.71919 6.60873 9.93528C6.4368 10.1514 6.47261 10.4659 6.6887 10.6379C6.97765 10.8677 7.33274 10.9955 7.70171 10.9966H7.70313C7.95862 10.9966 8.2755 10.9537 8.54167 10.772C8.84066 10.5679 9 10.2414 9 9.84658C9 9.44632 8.79251 9.17318 8.53812 9.00783C8.32921 8.87204 8.07371 8.79978 7.90294 8.75148L7.8863 8.74677Z" fill="currentColor"/>
</svg>
