<svg width="12" height="12" viewBox="0 0 12 12" fill="none" xmlns="http://www.w3.org/2000/svg">
<path fill-rule="evenodd" clip-rule="evenodd" d="M3.02696 1L3.05077 1H8.94948L8.9733 1C9.31992 0.99999 9.61399 0.999981 9.84333 1.02074C10.0676 1.04104 10.3349 1.08716 10.5498 1.26076C10.8303 1.48745 10.991 1.83053 10.9855 2.19116C10.9814 2.46733 10.8456 2.70226 10.7177 2.88751C10.5868 3.07699 10.3985 3.30291 10.1766 3.56919L10.1614 3.58746L8.13399 6.0204C8.08528 6.07886 8.05816 6.11155 8.03853 6.13716C8.02141 6.1595 8.01923 6.16468 8.02025 6.16276C8.01273 6.17699 8.00722 6.19219 8.00389 6.20794C8.00434 6.20581 8.00269 6.21119 8.00154 6.23931C8.00023 6.27155 8.00013 6.31402 8.00013 6.39012L8.00009 7.99534C8.00009 8.00743 8.00011 8.01961 8.00013 8.03184C8.00041 8.17986 8.00071 8.33732 7.95978 8.48945C7.92408 8.62215 7.86534 8.74754 7.78626 8.85992C7.69559 8.98875 7.57443 9.08932 7.46054 9.18386C7.45112 9.19168 7.44176 9.19945 7.43246 9.2072L6.39477 10.0719L6.37689 10.0868C6.14104 10.2834 5.93812 10.4525 5.76724 10.5705C5.60061 10.6856 5.37986 10.8149 5.11667 10.8188C4.77863 10.8239 4.45701 10.6733 4.24452 10.4103C4.07908 10.2056 4.03705 9.95328 4.01879 9.75159C4.00007 9.54476 4.00009 9.28061 4.0001 8.9736L4.0001 8.95032L4.00014 6.38997C4.00014 6.31386 4.00004 6.27139 3.99873 6.23914C3.99759 6.21102 3.99594 6.20564 3.99639 6.20777C3.99306 6.19202 3.98755 6.17682 3.98003 6.16259L3.98003 6.16258C3.9791 6.16097 3.9747 6.15389 3.96174 6.13698C3.94211 6.11137 3.91499 6.07868 3.86626 6.02021L1.83889 3.58751C1.83379 3.58139 1.82871 3.57529 1.82365 3.56921C1.60172 3.30294 1.41344 3.07702 1.28256 2.88754C1.1546 2.70229 1.01885 2.46737 1.01468 2.19119C1.00923 1.83056 1.16992 1.48746 1.45044 1.26077C1.66528 1.08716 1.93266 1.04105 2.15689 1.02074C2.38624 0.999981 2.68033 0.99999 3.02696 1ZM2.06983 2.04648C2.03699 2.07705 2.01725 2.11918 2.0148 2.16399C2.01966 2.17657 2.03892 2.22302 2.10536 2.31921C2.20732 2.46683 2.36579 2.65775 2.6071 2.9473L4.63447 5.38001C4.64046 5.3872 4.64651 5.39443 4.65258 5.4017C4.7268 5.49048 4.80583 5.58501 4.86408 5.6952C4.91497 5.79146 4.95222 5.89433 4.97474 6.00085C5.00053 6.12279 5.00034 6.246 5.00017 6.36172C5.00015 6.3712 5.00014 6.38062 5.00014 6.38999L5.0001 8.95033C5.0001 9.28722 5.00059 9.50531 5.01472 9.66144C5.02165 9.73794 5.03059 9.77794 5.03512 9.79498C5.04884 9.80671 5.06549 9.81451 5.08328 9.81754C5.09927 9.81011 5.13573 9.79137 5.19893 9.74772C5.32792 9.65863 5.49578 9.51939 5.75459 9.30372L6.79228 8.43898C6.86725 8.3765 6.90939 8.34119 6.94 8.31294C6.96692 8.2881 6.9703 8.2818 6.96847 8.28439C6.98016 8.26778 6.98885 8.24924 6.99412 8.22963L6.99413 8.22963C6.99467 8.22703 6.99647 8.21632 6.99783 8.18948C6.99994 8.14788 7.00008 8.0929 7.00009 7.99531L7.00013 6.39009C7.00013 6.38073 7.00012 6.37131 7.0001 6.36184C6.99993 6.24613 6.99975 6.12293 7.02554 6.00101C7.04806 5.89449 7.08531 5.79163 7.13619 5.69539C7.19443 5.58521 7.27345 5.49069 7.34765 5.40191C7.35373 5.39465 7.35977 5.38742 7.36577 5.38022L9.39318 2.94729C9.63446 2.65774 9.79292 2.46682 9.89487 2.31921C9.9613 2.22302 9.98056 2.17657 9.98542 2.16398C9.98297 2.11918 9.96323 2.07704 9.93038 2.04648C9.9176 2.04215 9.86959 2.02721 9.75317 2.01667C9.5745 2.0005 9.32639 2 8.94948 2H3.05077C2.67385 2 2.42573 2.0005 2.24706 2.01667C2.13063 2.02721 2.08261 2.04216 2.06983 2.04648Z" fill="currentColor"/>
</svg>
