<svg width="12" height="12" viewBox="0 0 12 12" fill="none" xmlns="http://www.w3.org/2000/svg">
<path fill-rule="evenodd" clip-rule="evenodd" d="M9.29264 2.52884C9.15991 2.50244 8.98862 2.50002 8.5 2.50002H4.2C3.6317 2.50002 3.23554 2.50041 2.92712 2.52561C2.62454 2.55033 2.45069 2.59642 2.31901 2.66351C2.03677 2.80732 1.8073 3.03679 1.66349 3.31903C1.5964 3.45071 1.55031 3.62455 1.52559 3.92714C1.50039 4.23556 1.5 4.63172 1.5 5.20002V6.80002C1.5 7.36832 1.50039 7.76448 1.52559 8.0729C1.55031 8.37548 1.5964 8.54933 1.66349 8.681C1.8073 8.96325 2.03677 9.19272 2.31901 9.33653C2.45069 9.40362 2.62454 9.44971 2.92712 9.47443C3.23554 9.49963 3.6317 9.50002 4.2 9.50002H7C7.27614 9.50002 7.5 9.72388 7.5 10C7.5 10.2762 7.27614 10.5 7 10.5H4.2H4.17858H4.17844C3.63662 10.5 3.19959 10.5 2.84569 10.4711C2.48126 10.4413 2.16117 10.3784 1.86502 10.2275C1.39462 9.98785 1.01217 9.6054 0.772484 9.13499C0.62159 8.83885 0.558684 8.51876 0.528909 8.15433C0.499991 7.80039 0.499995 7.36331 0.5 6.82142V6.80002V5.20002V5.17862V5.17861C0.499995 4.63672 0.499991 4.19965 0.528909 3.84571C0.558684 3.48128 0.62159 3.16119 0.772484 2.86504C1.01217 2.39464 1.39462 2.01219 1.86502 1.7725C2.16117 1.62161 2.48126 1.5587 2.84569 1.52893C3.19963 1.50001 3.6367 1.50001 4.1786 1.50002L4.2 1.50002H8.5L8.55788 1.50001C8.96668 1.49991 9.24532 1.49984 9.48773 1.54806C10.4795 1.74532 11.2547 2.52057 11.452 3.51229C11.5002 3.75469 11.5001 4.03333 11.5 4.44213V4.44215L11.5 4.50002V5.00002C11.5 5.27616 11.2761 5.50002 11 5.50002C10.7239 5.50002 10.5 5.27616 10.5 5.00002V4.50002C10.5 4.0114 10.4976 3.84011 10.4712 3.70738C10.3528 3.11235 9.88767 2.6472 9.29264 2.52884ZM2.63142 4.16216C2.81802 3.9586 3.1343 3.94485 3.33786 4.13144L3.63496 4.40378C4.28654 5.00106 4.74031 5.41568 5.12572 5.6868C5.49942 5.94968 5.75386 6.03688 6 6.03688C6.24614 6.03688 6.50058 5.94968 6.87428 5.6868C7.2597 5.41568 7.71347 5.00106 8.36504 4.40378L8.66214 4.13144C8.8657 3.94485 9.18198 3.9586 9.36858 4.16216C9.55517 4.36572 9.54142 4.682 9.33786 4.8686L9.04076 5.14094L9.01517 5.1644C8.39528 5.73265 7.89425 6.19194 7.44963 6.5047C6.9872 6.83 6.53182 7.03688 6 7.03688C5.46818 7.03688 5.0128 6.83 4.55037 6.5047C4.10576 6.19195 3.60473 5.73265 2.98485 5.16441L2.98483 5.1644L2.95924 5.14094L2.66214 4.8686C2.45858 4.682 2.44483 4.36572 2.63142 4.16216ZM11 7.50002C11 7.31562 10.8985 7.14619 10.7359 7.05918C10.5733 6.97217 10.3761 6.98171 10.2226 7.08399L8.72265 8.08399C8.49289 8.23717 8.4308 8.5476 8.58397 8.77737C8.73715 9.00713 9.04759 9.06922 9.27735 8.91604L10 8.43428V11.5C10 11.7762 10.2239 12 10.5 12C10.7761 12 11 11.7762 11 11.5V7.50002Z" fill="currentColor"/>
</svg>
