<svg width="12" height="12" viewBox="0 0 12 12" fill="none" xmlns="http://www.w3.org/2000/svg">
<path fill-rule="evenodd" clip-rule="evenodd" d="M4.20001 1H4.17861H4.1786C3.63671 0.999995 3.19964 0.999991 2.8457 1.02891C2.48128 1.05868 2.16119 1.12159 1.86504 1.27248C1.39464 1.51216 1.01219 1.89461 0.772504 2.36502C0.62161 2.66116 0.558702 2.98125 0.528926 3.34568C0.500007 3.69962 0.500009 4.13669 0.500012 4.67858L0.500012 4.69998L0.5 7.29998V7.32139V7.3214C0.499993 7.86329 0.499988 8.30036 0.528904 8.6543C0.558677 9.01873 0.621583 9.33882 0.772476 9.63497C1.01216 10.1054 1.39461 10.4878 1.86502 10.7275C2.16116 10.8784 2.48126 10.9413 2.84568 10.9711C3.19961 11 3.63667 11 4.17853 11H4.17859H4.2H7.79999H7.8214H7.82146C8.36332 11 8.80037 11 9.1543 10.9711C9.51872 10.9413 9.83882 10.8784 10.135 10.7275C10.6054 10.4878 10.9878 10.1054 11.2275 9.63498C11.3784 9.33883 11.4413 9.01874 11.4711 8.65431C11.5 8.30039 11.5 7.86333 11.5 7.32147V7.32142V7.3V4.7V4.67858V4.67853C11.5 4.13667 11.5 3.69961 11.4711 3.34569C11.4413 2.98126 11.3784 2.66117 11.2275 2.36502C10.9878 1.89462 10.6054 1.51217 10.135 1.27248C9.83882 1.12159 9.51872 1.05868 9.1543 1.02891C8.80036 0.999991 8.36328 0.999995 7.82139 1H7.79999H4.20001ZM2.31903 2.16349C2.45071 2.0964 2.62455 2.05031 2.92714 2.02559C3.23556 2.00039 3.63171 2 4.20001 2H7.79999C8.36829 2 8.76445 2.00039 9.07287 2.02559C9.37545 2.05031 9.5493 2.0964 9.68097 2.16349C9.96322 2.3073 10.1927 2.53677 10.3365 2.81901C10.4036 2.95069 10.4497 3.12454 10.4744 3.42712C10.4996 3.73554 10.5 4.1317 10.5 4.7V7.3C10.5 7.8683 10.4996 8.26446 10.4744 8.57288C10.4497 8.87546 10.4036 9.04931 10.3365 9.18099C10.1927 9.46323 9.96322 9.6927 9.68097 9.83651C9.5493 9.9036 9.37545 9.94969 9.07287 9.97441C8.76445 9.99961 8.36829 10 7.79999 10H4.2C3.6317 10 3.23554 9.99961 2.92712 9.97441C2.62453 9.94969 2.45069 9.9036 2.31901 9.83651C2.03676 9.6927 1.80729 9.46323 1.66348 9.18098C1.59639 9.0493 1.5503 8.87546 1.52558 8.57287C1.50039 8.26445 1.5 7.86829 1.5 7.29999L1.50001 4.69999C1.50001 4.13169 1.5004 3.73553 1.5256 3.42711C1.55033 3.12453 1.59642 2.95069 1.66351 2.81901C1.80732 2.53677 2.03679 2.3073 2.31903 2.16349ZM3.5 4.56781C3.5 4.22221 3.84224 3.98083 4.1678 4.09681L4.49997 4.21515V7.78485L4.1678 7.90319C3.84224 8.01917 3.5 7.77778 3.5 7.43219V4.56781ZM5.49997 7.4286V4.57139L6.50492 4.9294C6.50166 4.95247 6.49997 4.97604 6.49997 5V7C6.49997 7.02396 6.50166 7.04753 6.50492 7.07059L5.49997 7.4286ZM7.49997 6.7161L8.18797 6.471C8.63091 6.3132 8.63091 5.68679 8.18797 5.52899L7.49997 5.28389V6.7161ZM4.50338 3.1548C3.52672 2.80686 2.5 3.53102 2.5 4.56781V7.43219C2.5 8.46898 3.52672 9.19314 4.50339 8.8452L8.52356 7.41301C9.85238 6.93961 9.85238 5.06037 8.52356 4.58698L4.50338 3.1548Z" fill="currentColor"/>
</svg>
