<svg width="12" height="12" viewBox="0 0 12 12" fill="none" xmlns="http://www.w3.org/2000/svg">
<path fill-rule="evenodd" clip-rule="evenodd" d="M4.6786 1L4.7 1L6 1L7.3 1L7.3214 1C7.8633 0.999995 8.30037 0.999991 8.65431 1.02891C9.01874 1.05868 9.33883 1.12159 9.63498 1.27248C10.1054 1.51217 10.4878 1.89462 10.7275 2.36502C10.8784 2.66117 10.9413 2.98126 10.9711 3.34569C11 3.69963 11 4.1367 11 4.67858V4.7V6L11 7.3V7.32142C11 7.8633 11 8.30038 10.9711 8.65431C10.9413 9.01874 10.8784 9.33883 10.7275 9.63498C10.4878 10.1054 10.1054 10.4878 9.63498 10.7275C9.33883 10.8784 9.01874 10.9413 8.65431 10.9711C8.30038 11 7.8633 11 7.32142 11H7.3L6 11H4.7H4.67858C4.1367 11 3.69963 11 3.34569 10.9711C2.98126 10.9413 2.66117 10.8784 2.36502 10.7275C1.89462 10.4878 1.51217 10.1054 1.27248 9.63498C1.12159 9.33883 1.05868 9.01874 1.02891 8.65431C0.999991 8.30037 0.999995 7.8633 1 7.3214L1 7.3L1 6L1 4.7L1 4.6786C0.999995 4.1367 0.999991 3.69963 1.02891 3.34569C1.05868 2.98126 1.12159 2.66117 1.27248 2.36502C1.51217 1.89462 1.89462 1.51217 2.36502 1.27248C2.66117 1.12159 2.98126 1.05868 3.34569 1.02891C3.69963 0.999991 4.1367 0.999995 4.6786 1ZM3.42712 2.02559C3.12454 2.05031 2.95069 2.0964 2.81901 2.16349C2.53677 2.3073 2.3073 2.53677 2.16349 2.81901C2.0964 2.95069 2.05031 3.12454 2.02559 3.42712C2.00039 3.73554 2 4.1317 2 4.7V5.5L5.5 5.5L5.5 2H4.7C4.1317 2 3.73554 2.00039 3.42712 2.02559ZM6.5 2L6.5 5.5L10 5.5V4.7C10 4.1317 9.99961 3.73554 9.97441 3.42712C9.94969 3.12454 9.9036 2.95069 9.83651 2.81901C9.6927 2.53677 9.46323 2.3073 9.18099 2.16349C9.04931 2.0964 8.87546 2.05031 8.57288 2.02559C8.26446 2.00039 7.8683 2 7.3 2H6.5ZM10 6.5L6.5 6.5L6.5 10L7.3 10C7.8683 10 8.26446 9.99961 8.57288 9.97441C8.87546 9.94969 9.04931 9.9036 9.18099 9.83651C9.46323 9.6927 9.6927 9.46323 9.83651 9.18099C9.9036 9.04931 9.94969 8.87546 9.97441 8.57288C9.99961 8.26446 10 7.8683 10 7.3L10 6.5ZM5.5 10L5.5 6.5L2 6.5V7.3C2 7.8683 2.00039 8.26446 2.02559 8.57288C2.05031 8.87546 2.0964 9.04931 2.16349 9.18099C2.3073 9.46323 2.53677 9.6927 2.81901 9.83651C2.95069 9.9036 3.12454 9.94969 3.42712 9.97441C3.73554 9.99961 4.1317 10 4.7 10H5.5Z" fill="currentColor"/>
</svg>
