<svg width="12" height="12" viewBox="0 0 12 12" fill="none" xmlns="http://www.w3.org/2000/svg">
<path fill-rule="evenodd" clip-rule="evenodd" d="M5.73845 2.10695C5.79746 1.83719 5.62661 1.57067 5.35685 1.51166C5.08708 1.45264 4.82056 1.62349 4.76155 1.89326L4.30067 4.00012H2.5C2.22386 4.00012 2 4.22397 2 4.50012C2 4.77626 2.22386 5.00012 2.5 5.00012H4.08192L3.64442 7.00012H2C1.72386 7.00012 1.5 7.22397 1.5 7.50012C1.5 7.77626 1.72386 8.00012 2 8.00012H3.42567L3.01155 9.89326C2.95254 10.163 3.12339 10.4295 3.39315 10.4886C3.66291 10.5476 3.92944 10.3767 3.98845 10.107L4.44932 8.00012H6.67567L6.26155 9.89326C6.20254 10.163 6.37339 10.4295 6.64315 10.4886C6.91292 10.5476 7.17944 10.3767 7.23845 10.107L7.69932 8.00012H9.5C9.77614 8.00012 10 7.77626 10 7.50012C10 7.22397 9.77614 7.00012 9.5 7.00012H7.91807L8.35557 5.00012H10C10.2761 5.00012 10.5 4.77626 10.5 4.50012C10.5 4.22397 10.2761 4.00012 10 4.00012H8.57432L8.98845 2.10695C9.04746 1.83719 8.87661 1.57067 8.60685 1.51166C8.33708 1.45264 8.07056 1.62349 8.01155 1.89326L7.55067 4.00012H5.32432L5.73845 2.10695ZM6.89442 7.00012L7.33192 5.00012H5.10557L4.66807 7.00012H6.89442Z" fill="currentColor"/>
</svg>
