<svg width="12" height="12" viewBox="0 0 12 12" fill="none" xmlns="http://www.w3.org/2000/svg">
<path d="M6 1C8.76142 1 11 3.23858 11 6V8.42285C11 9.84605 9.84605 11 8.42285 11H5.59082C5.31472 11 5.09082 10.7761 5.09082 10.5C5.09082 10.2239 5.31472 10 5.59082 10H8V6.68164C8.00008 6.35238 8.23352 6.0774 8.54395 6.01367L8.68164 6H8.91699C9.31408 6.00008 9.68422 6.11279 10 6.30566V6C10 3.79086 8.20914 2 6 2C3.79086 2 2 3.79086 2 6V6.37891C2.35753 6.13958 2.78746 6 3.25 6H3.31836C3.69478 6.0001 3.9999 6.30522 4 6.68164V9.81836C3.9999 10.1948 3.69478 10.4999 3.31836 10.5H3.25C2.07849 10.5 1.11611 9.60467 1.00977 8.46094C1.00274 8.4276 1.00002 8.39284 1 8.35742V6C1 3.23858 3.23858 1 6 1ZM9 9.88867C9.58507 9.65807 10 9.08976 10 8.42285V8.08301L9.99512 7.97754C9.9446 7.4563 9.52434 7.04387 9 7.00391V9.88867ZM3 7.02441C2.42938 7.14019 2 7.64522 2 8.25C2 8.85471 2.42948 9.35876 3 9.47461V7.02441Z" fill="currentColor"/>
</svg>
