<svg width="12" height="12" viewBox="0 0 12 12" fill="none" xmlns="http://www.w3.org/2000/svg">
<path fill-rule="evenodd" clip-rule="evenodd" d="M4.2 1H4.1786H4.17859C3.6367 0.999995 3.19963 0.999991 2.84569 1.02891C2.48126 1.05868 2.16117 1.12159 1.86502 1.27248C1.39462 1.51217 1.01217 1.89462 0.772484 2.36502C0.62159 2.66117 0.558684 2.98126 0.528909 3.34569C0.499991 3.69963 0.499995 4.1367 0.5 4.67859V4.6786V4.7V7.3V7.3214C0.499995 7.8633 0.499991 8.30037 0.528909 8.65431C0.558684 9.01874 0.62159 9.33883 0.772484 9.63498C1.01217 10.1054 1.39462 10.4878 1.86502 10.7275C2.16117 10.8784 2.48126 10.9413 2.84569 10.9711C3.19961 11 3.63667 11 4.17853 11H4.17858H4.2H7.8H7.82142H7.82147C8.36333 11 8.80039 11 9.15431 10.9711C9.51874 10.9413 9.83883 10.8784 10.135 10.7275C10.6054 10.4878 10.9878 10.1054 11.2275 9.63498C11.3784 9.33883 11.4413 9.01874 11.4711 8.65431C11.5 8.30039 11.5 7.86333 11.5 7.32147V7.32142V7.3V4.7V4.67858V4.67853C11.5 4.13667 11.5 3.69961 11.4711 3.34569C11.4413 2.98126 11.3784 2.66117 11.2275 2.36502C10.9878 1.89462 10.6054 1.51217 10.135 1.27248C9.83883 1.12159 9.51874 1.05868 9.15431 1.02891C8.80037 0.999991 8.3633 0.999995 7.8214 1H7.8H4.2ZM2.31901 2.16349C2.45069 2.0964 2.62454 2.05031 2.92712 2.02559C3.23554 2.00039 3.6317 2 4.2 2H7.8C8.3683 2 8.76446 2.00039 9.07288 2.02559C9.37546 2.05031 9.54931 2.0964 9.68099 2.16349C9.96323 2.3073 10.1927 2.53677 10.3365 2.81901C10.4036 2.95069 10.4497 3.12454 10.4744 3.42712C10.4996 3.73554 10.5 4.1317 10.5 4.7V7.3C10.5 7.8683 10.4996 8.26446 10.4744 8.57288C10.4497 8.87546 10.4036 9.04931 10.3365 9.18099C10.1927 9.46323 9.96323 9.6927 9.68099 9.83651C9.54931 9.9036 9.37546 9.94969 9.07288 9.97441C8.76446 9.99961 8.3683 10 7.8 10H4.2C3.6317 10 3.23554 9.99961 2.92712 9.97441C2.62454 9.94969 2.45069 9.9036 2.31901 9.83651C2.03677 9.6927 1.8073 9.46323 1.66349 9.18099C1.5964 9.04931 1.55031 8.87546 1.52559 8.57288C1.50039 8.26446 1.5 7.8683 1.5 7.3V4.7C1.5 4.1317 1.50039 3.73554 1.52559 3.42712C1.55031 3.12454 1.5964 2.95069 1.66349 2.81901C1.8073 2.53677 2.03677 2.3073 2.31901 2.16349ZM7.3 2.9967L7.28405 2.9967H7.28404C7.15785 2.99669 7.03496 2.99667 6.93089 3.00518C6.81659 3.01452 6.68172 3.03655 6.54601 3.1057C6.35785 3.20157 6.20487 3.35455 6.10899 3.54271C6.03985 3.67843 6.01781 3.81329 6.00847 3.92759C5.99997 4.03166 5.99998 4.15455 6 4.28074V4.28076L6 4.2967V7.6967L6 7.71265V7.71267C5.99998 7.83886 5.99997 7.96175 6.00847 8.06582C6.01781 8.18012 6.03985 8.31498 6.10899 8.4507C6.20487 8.63886 6.35785 8.79184 6.54601 8.88771C6.68172 8.95686 6.81659 8.97889 6.93089 8.98823C7.03496 8.99674 7.15785 8.99672 7.28404 8.99671H7.28406L7.3 8.9967H8.2L8.21594 8.99671H8.21596C8.34215 8.99672 8.46504 8.99674 8.56912 8.98823C8.68341 8.97889 8.81828 8.95686 8.95399 8.88771C9.14215 8.79184 9.29513 8.63886 9.39101 8.4507C9.46016 8.31498 9.48219 8.18012 9.49153 8.06582C9.50003 7.96174 9.50002 7.83885 9.5 7.71265L9.5 7.6967V4.2967L9.5 4.28076C9.50002 4.15456 9.50003 4.03167 9.49153 3.92759C9.48219 3.81329 9.46016 3.67843 9.39101 3.54271C9.29513 3.35455 9.14215 3.20157 8.95399 3.1057C8.81828 3.03655 8.68341 3.01452 8.56912 3.00518C8.46504 2.99667 8.34215 2.99669 8.21596 2.9967H8.21595L8.2 2.9967H7.3ZM7.00515 4.00902L7.00572 4.00243L7.01232 4.00186C7.07061 3.99709 7.15174 3.9967 7.3 3.9967H8.2C8.34826 3.9967 8.42939 3.99709 8.48768 4.00186L8.49428 4.00243L8.49485 4.00902C8.49961 4.06731 8.5 4.14844 8.5 4.2967V7.6967C8.5 7.84497 8.49961 7.9261 8.49485 7.98439L8.49428 7.99098L8.48768 7.99155C8.42939 7.99632 8.34826 7.9967 8.2 7.9967H7.3C7.15174 7.9967 7.07061 7.99632 7.01232 7.99155L7.00572 7.99098L7.00515 7.98439C7.00039 7.9261 7 7.84497 7 7.6967V4.2967C7 4.14844 7.00039 4.06731 7.00515 4.00902Z" fill="currentColor"/>
</svg>
