<svg width="12" height="12" viewBox="0 0 12 12" fill="none" xmlns="http://www.w3.org/2000/svg">
<path fill-rule="evenodd" clip-rule="evenodd" d="M3.5 1C3.36739 1 3.24021 1.05268 3.14645 1.14645L1.64645 2.64645C1.45118 2.84171 1.45118 3.15829 1.64645 3.35355C1.84171 3.54882 2.15829 3.54882 2.35355 3.35355L3 2.70711V6.5C3 6.77614 3.22386 7 3.5 7C3.77614 7 4 6.77614 4 6.5V2.70711L4.64645 3.35355C4.84171 3.54882 5.15829 3.54882 5.35355 3.35355C5.54882 3.15829 5.54882 2.84171 5.35355 2.64645L3.85355 1.14645C3.75979 1.05268 3.63261 1 3.5 1ZM8.5 7C8.36739 7 8.24021 6.94732 8.14645 6.85355L6.64645 5.35355C6.45118 5.15829 6.45118 4.84171 6.64645 4.64645C6.84171 4.45118 7.15829 4.45118 7.35355 4.64645L8 5.29289V1.5C8 1.22386 8.22386 1 8.5 1C8.77614 1 9 1.22386 9 1.5V5.29289L9.64645 4.64645C9.84171 4.45118 10.1583 4.45118 10.3536 4.64645C10.5488 4.84171 10.5488 5.15829 10.3536 5.35355L8.85355 6.85355C8.75978 6.94732 8.63261 7 8.5 7ZM1.5 7.5C1.5 7.22386 1.27614 7 1 7C0.723858 7 0.5 7.22386 0.5 7.5V8.5C0.5 9.88071 1.61929 11 3 11H9C10.3807 11 11.5 9.88071 11.5 8.5V7.5C11.5 7.22386 11.2761 7 11 7C10.7239 7 10.5 7.22386 10.5 7.5V8.5C10.5 9.32843 9.82843 10 9 10H3C2.17157 10 1.5 9.32843 1.5 8.5V7.5Z" fill="currentColor"/>
</svg>
