<svg width="12" height="12" viewBox="0 0 12 12" fill="none" xmlns="http://www.w3.org/2000/svg">
<g clip-path="url(#clip0_21343_422)">
<path fill-rule="evenodd" clip-rule="evenodd" d="M5.99996 1.49658C3.51287 1.49658 1.49669 3.51276 1.49669 5.99985C1.49669 8.48694 3.51287 10.5031 5.99996 10.5031C8.48705 10.5031 10.5032 8.48694 10.5032 5.99985C10.5032 3.51276 8.48705 1.49658 5.99996 1.49658ZM0.496689 5.99985C0.496689 2.96048 2.96059 0.496582 5.99996 0.496582C9.03933 0.496582 11.5032 2.96048 11.5032 5.99985C11.5032 9.03922 9.03933 11.5031 5.99996 11.5031C2.96059 11.5031 0.496689 9.03922 0.496689 5.99985ZM5.99998 8.99656C6.27613 8.99656 6.49998 8.7727 6.49998 8.49656V5.99656C6.49998 5.72041 6.27613 5.49656 5.99998 5.49656C5.72384 5.49656 5.49998 5.72041 5.49998 5.99656V8.49656C5.49998 8.7727 5.72384 8.99656 5.99998 8.99656ZM5.99982 4.6284C6.33119 4.6284 6.59982 4.35978 6.59982 4.02843C6.59982 3.69707 6.33119 3.42845 5.99982 3.42845C5.66845 3.42845 5.39982 3.69707 5.39982 4.02843C5.39982 4.35978 5.66845 4.6284 5.99982 4.6284Z" fill="currentColor"/>
</g>
<defs>
<clipPath id="clip0_21343_422">
<rect width="12" height="12" fill="white"/>
</clipPath>
</defs>
</svg>
