<svg width="12" height="12" viewBox="0 0 12 12" fill="none" xmlns="http://www.w3.org/2000/svg">
<path fill-rule="evenodd" clip-rule="evenodd" d="M5 4.5C5 3.11929 6.11929 2 7.5 2C8.88071 2 10 3.11929 10 4.5C10 5.88071 8.88071 7 7.5 7C7.13148 7 6.78286 6.92058 6.4692 6.77841C6.27954 6.69244 6.05646 6.73301 5.90922 6.88025L2.7929 9.99657L2 9.99654V9.20369L5.11762 6.08606C5.26463 5.93905 5.30533 5.71639 5.21982 5.52688C5.07876 5.21424 5 4.86699 5 4.5ZM7.5 1C5.567 1 4 2.567 4 4.5C4 4.88727 4.06308 5.26058 4.17973 5.60973L1.14645 8.64303C1.05268 8.7368 1 8.86397 1 8.99658V10.4965C1 10.7727 1.22385 10.9965 1.49998 10.9965L2.99998 10.9966C3.13259 10.9966 3.25978 10.9439 3.35355 10.8501L6.38514 7.81855C6.73576 7.9363 7.11083 8 7.5 8C9.433 8 11 6.433 11 4.5C11 2.567 9.433 1 7.5 1ZM8 4.74658C8.41421 4.74658 8.75 4.4108 8.75 3.99658C8.75 3.58237 8.41421 3.24658 8 3.24658C7.58579 3.24658 7.25 3.58237 7.25 3.99658C7.25 4.4108 7.58579 4.74658 8 4.74658Z" fill="currentColor"/>
</svg>
