<svg width="12" height="12" viewBox="0 0 12 12" fill="none" xmlns="http://www.w3.org/2000/svg">
<path fill-rule="evenodd" clip-rule="evenodd" d="M4.20002 1H4.17862H4.17862C3.63673 0.999995 3.19966 0.999991 2.84572 1.02891C2.4813 1.05868 2.1612 1.12159 1.86506 1.27248C1.39465 1.51216 1.0122 1.89461 0.772519 2.36502C0.621625 2.66116 0.558717 2.98125 0.528941 3.34568C0.500022 3.69962 0.500024 4.13669 0.500027 4.67858L0.500027 4.69998L0.500015 7.29998V7.32139V7.3214C0.500008 7.86329 0.500003 8.30036 0.528919 8.6543C0.558692 9.01873 0.621598 9.33882 0.772491 9.63497C1.01217 10.1054 1.39463 10.4878 1.86503 10.7275C2.16118 10.8784 2.48127 10.9413 2.8457 10.9711C3.19963 11 3.63668 11 4.17855 11H4.1786H4.20002H7.8H7.82142H7.82147C8.36333 11 8.80039 11 9.15431 10.9711C9.51874 10.9413 9.83883 10.8784 10.135 10.7275C10.6054 10.4878 10.9878 10.1054 11.2275 9.63498C11.3784 9.33883 11.4413 9.01874 11.4711 8.65431C11.5 8.30039 11.5 7.86333 11.5 7.32147V7.32142V7.3V4.7V4.67858V4.67853C11.5 4.13667 11.5 3.69961 11.4711 3.34569C11.4413 2.98126 11.3784 2.66117 11.2275 2.36502C10.9878 1.89462 10.6054 1.51217 10.135 1.27248C9.83883 1.12159 9.51874 1.05868 9.15431 1.02891C8.80037 0.999991 8.3633 0.999995 7.82141 1H7.8H4.20002ZM2.31905 2.16349C2.45073 2.0964 2.62457 2.05031 2.92715 2.02559C3.23557 2.00039 3.63172 2 4.20002 2H7.8C8.36831 2 8.76446 2.00039 9.07288 2.02559C9.37547 2.05031 9.54931 2.0964 9.68099 2.16349C9.96323 2.3073 10.1927 2.53677 10.3365 2.81901C10.4036 2.95069 10.4497 3.12454 10.4744 3.42712C10.4996 3.73554 10.5 4.1317 10.5 4.7V7.3C10.5 7.8683 10.4996 8.26446 10.4744 8.57288C10.4497 8.87546 10.4036 9.04931 10.3365 9.18099C10.1927 9.46323 9.96323 9.6927 9.68099 9.83651C9.54931 9.9036 9.37547 9.94969 9.07288 9.97441C8.76446 9.99961 8.36831 10 7.8 10H4.20002C3.63171 10 3.23555 9.99961 2.92713 9.97441C2.62455 9.94969 2.4507 9.9036 2.31902 9.83651C2.03678 9.6927 1.80731 9.46323 1.6635 9.18098C1.59641 9.0493 1.55032 8.87546 1.5256 8.57287C1.5004 8.26445 1.50001 7.86829 1.50002 7.29999L1.50003 4.69999C1.50003 4.13169 1.50042 3.73553 1.52562 3.42711C1.55034 3.12453 1.59643 2.95069 1.66352 2.81901C1.80733 2.53677 2.03681 2.3073 2.31905 2.16349ZM9.35356 5.35355C9.54882 5.15829 9.54882 4.84171 9.35356 4.64645C9.15829 4.45118 8.84171 4.45118 8.64645 4.64645L7.64645 5.64645C7.34528 5.94762 7.277 6.00655 7.22201 6.0338C7.08212 6.10312 6.91788 6.10312 6.77799 6.0338C6.723 6.00655 6.65473 5.94762 6.35356 5.64645L6.30446 5.59727C6.08162 5.37385 5.88893 5.18064 5.66603 5.07019C5.24636 4.86222 4.75364 4.86222 4.33398 5.07019C4.11108 5.18064 3.91838 5.37384 3.69554 5.59727L3.64645 5.64645L2.64645 6.64645C2.45119 6.84171 2.45119 7.15829 2.64645 7.35355C2.84171 7.54882 3.15829 7.54882 3.35356 7.35355L4.35356 6.35355C4.65473 6.05238 4.723 5.99345 4.77799 5.9662C4.91788 5.89688 5.08212 5.89688 5.22201 5.9662C5.277 5.99345 5.34528 6.05238 5.64645 6.35355L5.69554 6.40273L5.69554 6.40273C5.91838 6.62616 6.11108 6.81936 6.33398 6.92982C6.75364 7.13778 7.24636 7.13778 7.66603 6.92982C7.88893 6.81936 8.08162 6.62616 8.30446 6.40273L8.35355 6.35355L9.35356 5.35355Z" fill="currentColor"/>
</svg>
