<svg width="12" height="12" viewBox="0 0 12 12" fill="none" xmlns="http://www.w3.org/2000/svg">
<g clip-path="url(#clip0_19836_380239)">
<path fill-rule="evenodd" clip-rule="evenodd" d="M6.5 1.00001C6.88978 1.00001 7.02926 1.00142 7.13849 1.01788C7.70662 1.10352 8.17477 1.48407 8.38337 2.00001H5.85998H5.83846C5.26866 2.00001 4.8106 2 4.44 2.03028C4.0589 2.06142 3.72646 2.12705 3.41962 2.28339C2.9304 2.53266 2.53265 2.93041 2.28338 3.41963C2.12704 3.72647 2.06141 4.05891 2.03027 4.44001C1.99999 4.81061 2 5.26867 2 5.83847L2 5.85999V8.41466C1.4174 8.20874 1 7.65312 1 7.00001V3.85999C1 3.26369 1.00039 2.84653 1.02695 2.52144C1.05303 2.20218 1.10185 2.01599 1.17439 1.87362C1.32778 1.57256 1.57255 1.32779 1.87361 1.1744C2.01598 1.10186 2.20217 1.05304 2.52143 1.02696C2.84652 1.0004 3.26368 1.00001 3.85998 1.00001H6.5ZM2.01217 9.45244C0.864994 9.22553 1.23668e-07 8.21379 1.23668e-07 7.00001V3.85999V3.83847C-4.76391e-06 3.26867 -8.57861e-06 2.81061 0.0302713 2.44001C0.0614082 2.05891 0.127039 1.72647 0.283382 1.41963C0.532651 0.930409 0.930399 0.532661 1.41962 0.283392C1.72646 0.127049 2.0589 0.0614182 2.44 0.0302813C2.8106 1.41318e-06 3.26866 5.22788e-06 3.83846 1.01155e-05H3.85998H6.5L6.54486 4.92985e-06C6.87328 -5.20522e-05 7.0942 -9.0378e-05 7.28754 0.029052C8.34456 0.188379 9.18858 0.97593 9.4305 2.00261C9.56669 2.00583 9.68128 2.01304 9.78754 2.02905C10.9155 2.19907 11.8009 3.08449 11.971 4.21247C12.0001 4.40581 12.0001 4.62671 12 4.95511V4.95512V4.95513V4.95514V4.95515V4.95516L12 5.00001V5.50001C12 5.77615 11.7761 6.00001 11.5 6.00001C11.2239 6.00001 11 5.77615 11 5.50001V5.00001C11 4.61023 10.9986 4.47075 10.9821 4.36152C10.8775 3.66738 10.3326 3.12251 9.63849 3.01788C9.52926 3.00142 9.38978 3.00001 9 3.00001H8.5H5.85998C5.26368 3.00001 4.84652 3.0004 4.52143 3.02696C4.20217 3.05304 4.01598 3.10186 3.87361 3.1744C3.57255 3.32779 3.32778 3.57256 3.17439 3.87362C3.10185 4.01599 3.05303 4.20218 3.02695 4.52144C3.00039 4.84653 3 5.26369 3 5.85999V8.50001C3 9.37974 3.00707 9.69209 3.08979 9.92848C3.25061 10.3881 3.61195 10.7494 4.07153 10.9102C4.30792 10.9929 4.62027 11 5.5 11C5.77614 11 6 11.2239 6 11.5C6 11.7762 5.77614 12 5.5 12L5.39896 12H5.39895C4.659 12.0003 4.15967 12.0005 3.74125 11.8541C2.99442 11.5928 2.40724 11.0056 2.14591 10.2588C2.06399 10.0246 2.02797 9.7652 2.01217 9.45244ZM4 4.50001C4 4.22387 4.22386 4.00001 4.5 4.00001H5.5C5.77614 4.00001 6 4.22387 6 4.50001V5.50001C6 5.77615 5.77614 6.00001 5.5 6.00001H4.5C4.22386 6.00001 4 5.77615 4 5.50001V4.50001ZM4.5 7.00001C4.22386 7.00001 4 7.22387 4 7.50001C4 7.77615 4.22386 8.00001 4.5 8.00001H7.5C7.77614 8.00001 8 7.77615 8 7.50001C8 7.22387 7.77614 7.00001 7.5 7.00001H4.5ZM4 9.50001C4 9.22387 4.22386 9.00001 4.5 9.00001H5.5C5.77614 9.00001 6 9.22387 6 9.50001C6 9.77615 5.77614 10 5.5 10H4.5C4.22386 10 4 9.77615 4 9.50001ZM10.5644 8.07474C10.6123 8.02689 10.6772 8.00001 10.7449 8.00001C10.8125 8.00001 10.8774 8.02689 10.9253 8.07474C10.9731 8.12259 11 8.18748 11 8.25515C11 8.32282 10.9731 8.38772 10.9253 8.43556L9.43815 9.92268C9.10404 10.2568 8.9748 10.3839 8.83268 10.4861C8.69978 10.5816 8.55694 10.6625 8.40665 10.7273C8.34435 10.7542 8.27983 10.7774 8.19748 10.8025C8.22258 10.7202 8.24586 10.6557 8.27272 10.5934C8.33753 10.4431 8.41841 10.3002 8.51394 10.1673C8.61611 10.0252 8.74322 9.89597 9.07733 9.56186L10.5644 8.07474ZM10.7449 7.00001C10.412 7.00001 10.0927 7.13225 9.85734 7.36763L8.37022 8.85475L8.34052 8.88445L8.34051 8.88446C8.04577 9.17913 7.85728 9.36759 7.70197 9.58364C7.56433 9.7751 7.44782 9.98089 7.35445 10.1974C7.2491 10.4417 7.18448 10.7003 7.08344 11.1047L7.07325 11.1454L7.01493 11.3787C6.97233 11.5491 7.02226 11.7294 7.14645 11.8536C7.27064 11.9778 7.45088 12.0277 7.62127 11.9851L7.85457 11.9268L7.89531 11.9166L7.89533 11.9166C8.29967 11.8155 8.55826 11.7509 8.8026 11.6456C9.01912 11.5522 9.22491 11.4357 9.41637 11.298C9.63242 11.1427 9.82088 10.9542 10.1155 10.6595L10.1156 10.6595L10.1453 10.6298L11.6324 9.14267C11.8678 8.90729 12 8.58804 12 8.25515C12 7.92227 11.8678 7.60302 11.6324 7.36763C11.397 7.13225 11.0777 7.00001 10.7449 7.00001Z" fill="currentColor"/>
</g>
<defs>
<clipPath id="clip0_19836_380239">
<rect width="12" height="12" fill="white"/>
</clipPath>
</defs>
</svg>
