<svg width="12" height="12" viewBox="0 0 12 12" fill="none" xmlns="http://www.w3.org/2000/svg">
<g clip-path="url(#clip0_19836_380215)">
<path fill-rule="evenodd" clip-rule="evenodd" d="M7.13849 1.01788C7.02926 1.00142 6.88978 1.00001 6.5 1.00001H3.85998C3.26368 1.00001 2.84652 1.0004 2.52143 1.02696C2.20217 1.05304 2.01598 1.10186 1.87361 1.1744C1.57255 1.32779 1.32778 1.57256 1.17439 1.87362C1.10185 2.01599 1.05303 2.20218 1.02695 2.52144C1.00039 2.84653 1 3.26369 1 3.85999V7.00001C1 7.65316 1.41745 8.20881 2.00011 8.41469L2 8.16155L2 8.14003V5.85999L2 5.83847C2 5.26867 1.99999 4.81061 2.03027 4.44001C2.06141 4.05891 2.12704 3.72647 2.28338 3.41963C2.53265 2.93041 2.9304 2.53266 3.41962 2.28339C3.72646 2.12705 4.0589 2.06142 4.44 2.03028C4.8106 2 5.26866 2.00001 5.83846 2.00001H5.85998H8.14002H8.16154L8.3834 2.00008C8.17481 1.48411 7.70665 1.10352 7.13849 1.01788ZM1.23668e-07 7.00001C1.23668e-07 8.21746 0.870237 9.23165 2.0226 9.45448C2.02491 9.49043 2.02746 9.5256 2.03027 9.56001C2.06141 9.94111 2.12704 10.2736 2.28338 10.5804C2.53265 11.0696 2.9304 11.4674 3.41962 11.7166C3.72646 11.873 4.0589 11.9386 4.44 11.9697C4.8106 12 5.26866 12 5.83845 12H5.85998H8.14002H8.16155C8.73135 12 9.1894 12 9.56 11.9697C9.9411 11.9386 10.2735 11.873 10.5804 11.7166C11.0696 11.4674 11.4673 11.0696 11.7166 10.5804C11.873 10.2736 11.9386 9.94111 11.9697 9.56001C12 9.18941 12 8.73135 12 8.16156V8.14003V5.85999V5.83846C12 5.26867 12 4.81061 11.9697 4.44001C11.9386 4.05891 11.873 3.72647 11.7166 3.41963C11.4673 2.93041 11.0696 2.53266 10.5804 2.28339C10.2735 2.12705 9.9411 2.06142 9.56 2.03028C9.51935 2.02696 9.47764 2.024 9.43485 2.02137C9.19884 0.985535 8.35099 0.189349 7.28754 0.029052C7.0942 -9.0378e-05 6.87328 -5.20522e-05 6.54486 4.92985e-06L6.5 1.01155e-05H3.85998H3.83846C3.26866 5.22788e-06 2.8106 1.41318e-06 2.44 0.0302813C2.0589 0.0614182 1.72646 0.127049 1.41962 0.283392C0.930399 0.532661 0.532651 0.930409 0.283382 1.41963C0.127039 1.72647 0.0614082 2.05891 0.0302713 2.44001C-8.57861e-06 2.81061 -4.76391e-06 3.26867 1.23668e-07 3.83847V3.85999V7.00001ZM4.52143 3.02696C4.20217 3.05304 4.01598 3.10186 3.87361 3.1744C3.57255 3.32779 3.32778 3.57256 3.17439 3.87362C3.10185 4.01599 3.05303 4.20218 3.02695 4.52144C3.00039 4.84653 3 5.26369 3 5.85999V8.14003C3 8.73633 3.00039 9.15349 3.02695 9.47858C3.05303 9.79784 3.10185 9.98403 3.17439 10.1264C3.32778 10.4275 3.57255 10.6722 3.87361 10.8256C4.01598 10.8982 4.20217 10.947 4.52143 10.9731C4.84652 10.9996 5.26368 11 5.85998 11H8.14002C8.73632 11 9.15348 10.9996 9.47857 10.9731C9.79783 10.947 9.98402 10.8982 10.1264 10.8256C10.4274 10.6722 10.6722 10.4275 10.8256 10.1264C10.8982 9.98403 10.947 9.79784 10.9731 9.47858C10.9996 9.15349 11 8.73633 11 8.14003V5.85999C11 5.26369 10.9996 4.84653 10.9731 4.52144C10.947 4.20218 10.8982 4.01599 10.8256 3.87362C10.6722 3.57256 10.4274 3.32779 10.1264 3.1744C9.98402 3.10186 9.79783 3.05304 9.47857 3.02696C9.15348 3.0004 8.73632 3.00001 8.14002 3.00001H5.85998C5.26368 3.00001 4.84652 3.0004 4.52143 3.02696ZM4.5 4.00001C4.22386 4.00001 4 4.22387 4 4.50001V5.50001C4 5.77615 4.22386 6.00001 4.5 6.00001H5.5C5.77614 6.00001 6 5.77615 6 5.50001V4.50001C6 4.22387 5.77614 4.00001 5.5 4.00001H4.5ZM4 7.50001C4 7.22387 4.22386 7.00001 4.5 7.00001H9.5C9.77614 7.00001 10 7.22387 10 7.50001C10 7.77615 9.77614 8.00001 9.5 8.00001H4.5C4.22386 8.00001 4 7.77615 4 7.50001ZM4.5 9.00001C4.22386 9.00001 4 9.22387 4 9.50001C4 9.77615 4.22386 10 4.5 10H6.5C6.77614 10 7 9.77615 7 9.50001C7 9.22387 6.77614 9.00001 6.5 9.00001H4.5Z" fill="currentColor"/>
</g>
<defs>
<clipPath id="clip0_19836_380215">
<rect width="12" height="12" fill="white"/>
</clipPath>
</defs>
</svg>
