<svg width="12" height="12" viewBox="0 0 12 12" fill="none" xmlns="http://www.w3.org/2000/svg">
<g clip-path="url(#clip0_19836_380231)">
<path fill-rule="evenodd" clip-rule="evenodd" d="M6.5 1.00001C6.88978 1.00001 7.02926 1.00142 7.13849 1.01788C7.70662 1.10352 8.17477 1.48407 8.38337 2.00001H5.85998H5.83846C5.26866 2.00001 4.8106 2 4.44 2.03028C4.0589 2.06142 3.72646 2.12705 3.41962 2.28339C2.9304 2.53266 2.53265 2.93041 2.28338 3.41963C2.12704 3.72647 2.06141 4.05891 2.03027 4.44001C1.99999 4.81061 2 5.26867 2 5.83847L2 5.85999V8.41466C1.4174 8.20874 1 7.65312 1 7.00001V3.85999C1 3.26369 1.00039 2.84653 1.02695 2.52144C1.05303 2.20218 1.10185 2.01599 1.17439 1.87362C1.32778 1.57256 1.57255 1.32779 1.87361 1.1744C2.01598 1.10186 2.20217 1.05304 2.52143 1.02696C2.84652 1.0004 3.26368 1.00001 3.85998 1.00001H6.5ZM2.01217 9.45244C0.864994 9.22553 1.23668e-07 8.21379 1.23668e-07 7.00001V3.85999V3.83847C-4.76391e-06 3.26867 -8.57861e-06 2.81061 0.0302713 2.44001C0.0614082 2.05891 0.127039 1.72647 0.283382 1.41963C0.532651 0.930409 0.930399 0.532661 1.41962 0.283392C1.72646 0.127049 2.0589 0.0614182 2.44 0.0302813C2.8106 1.41318e-06 3.26866 5.22788e-06 3.83846 1.01155e-05H3.85998H6.5L6.54486 4.92985e-06C6.87328 -5.20522e-05 7.0942 -9.0378e-05 7.28754 0.029052C8.34456 0.188379 9.18858 0.97593 9.4305 2.00261C9.56669 2.00583 9.68128 2.01304 9.78754 2.02905C10.9155 2.19907 11.8009 3.08449 11.971 4.21247C12.0001 4.40581 12.0001 4.62671 12 4.95511V4.95512V4.95513V4.95514V4.95515V4.95516L12 5.00001V5.50001C12 5.77615 11.7761 6.00001 11.5 6.00001C11.2239 6.00001 11 5.77615 11 5.50001V5.00001C11 4.61023 10.9986 4.47075 10.9821 4.36152C10.8775 3.66738 10.3326 3.12251 9.63849 3.01788C9.52926 3.00142 9.38978 3.00001 9 3.00001H8.5H5.85998C5.26368 3.00001 4.84652 3.0004 4.52143 3.02696C4.20217 3.05304 4.01598 3.10186 3.87361 3.1744C3.57255 3.32779 3.32778 3.57256 3.17439 3.87362C3.10185 4.01599 3.05303 4.20218 3.02695 4.52144C3.00039 4.84653 3 5.26369 3 5.85999V8.50001C3 9.37974 3.00707 9.69209 3.08979 9.92848C3.25061 10.3881 3.61195 10.7494 4.07153 10.9102C4.30792 10.9929 4.62027 11 5.5 11C5.77614 11 6 11.2239 6 11.5C6 11.7762 5.77614 12 5.5 12L5.39896 12H5.39895C4.659 12.0003 4.15967 12.0005 3.74125 11.8541C2.99442 11.5928 2.40724 11.0056 2.14591 10.2588C2.06399 10.0246 2.02797 9.7652 2.01217 9.45244ZM4 4.50001C4 4.22387 4.22386 4.00001 4.5 4.00001H5.5C5.77614 4.00001 6 4.22387 6 4.50001V5.50001C6 5.77615 5.77614 6.00001 5.5 6.00001H4.5C4.22386 6.00001 4 5.77615 4 5.50001V4.50001ZM4.5 7.00001C4.22386 7.00001 4 7.22387 4 7.50001C4 7.77615 4.22386 8.00001 4.5 8.00001H7.5C7.77614 8.00001 8 7.77615 8 7.50001C8 7.22387 7.77614 7.00001 7.5 7.00001H4.5ZM4 9.50001C4 9.22387 4.22386 9.00001 4.5 9.00001H5.5C5.77614 9.00001 6 9.22387 6 9.50001C6 9.77615 5.77614 10 5.5 10H4.5C4.22386 10 4 9.77615 4 9.50001ZM8.56752 9.50001L9.5 8.38104V8.80953C9.5 9.19087 9.80914 9.50001 10.1905 9.50001H10.3833L9.5 10.4893V10.1905C9.5 9.80915 9.19086 9.50001 8.80952 9.50001H8.56752ZM10.5 7.52611C10.5 6.88031 9.69252 6.58797 9.27909 7.08408L7.37624 9.3675C7.00146 9.81723 7.32126 10.5 7.90667 10.5H8.5V11.3007C8.5 11.9348 9.28317 12.2336 9.70553 11.7606L11.5896 9.65036C11.9869 9.20541 11.6711 8.50001 11.0746 8.50001H10.5V7.52611Z" fill="currentColor"/>
</g>
<defs>
<clipPath id="clip0_19836_380231">
<rect width="12" height="12" fill="white"/>
</clipPath>
</defs>
</svg>
