<svg width="12" height="12" viewBox="0 0 12 12" fill="none" xmlns="http://www.w3.org/2000/svg">
<g clip-path="url(#clip0_19836_380222)">
<path fill-rule="evenodd" clip-rule="evenodd" d="M7.13849 1.01787C7.02926 1.00141 6.88978 1 6.5 1H3.85998C3.26368 1 2.84652 1.00039 2.52143 1.02695C2.20217 1.05303 2.01598 1.10185 1.87361 1.17439C1.57255 1.32778 1.32778 1.57255 1.17439 1.87361C1.10185 2.01598 1.05303 2.20217 1.02695 2.52143C1.00039 2.84652 1 3.26368 1 3.85998V7C1 7.65315 1.41745 8.2088 2.00011 8.41468L2 8.16154L2 8.14002V5.85998L2 5.83846C2 5.26866 1.99999 4.8106 2.03027 4.44C2.06141 4.0589 2.12704 3.72646 2.28338 3.41962C2.53265 2.9304 2.9304 2.53265 3.41962 2.28338C3.72646 2.12704 4.0589 2.06141 4.44 2.03027C4.8106 1.99999 5.26866 2 5.83846 2L5.85998 2H8.14002L8.16154 2L8.3834 2.00007C8.17481 1.4841 7.70665 1.10351 7.13849 1.01787ZM0 7C0 8.21745 0.870237 9.23164 2.02259 9.45447C2.02491 9.49042 2.02746 9.52559 2.03027 9.56C2.06141 9.9411 2.12704 10.2735 2.28338 10.5804C2.53265 11.0696 2.9304 11.4673 3.41962 11.7166C3.72646 11.873 4.0589 11.9386 4.44 11.9697C4.8106 12 5.26866 12 5.83845 12H5.85998H6.5C6.77614 12 7 11.7761 7 11.5C7 11.2239 6.77614 11 6.5 11H5.85998C5.26368 11 4.84652 10.9996 4.52143 10.9731C4.20217 10.947 4.01598 10.8982 3.87361 10.8256C3.57255 10.6722 3.32778 10.4274 3.17439 10.1264C3.10185 9.98402 3.05303 9.79783 3.02695 9.47857C3.00039 9.15348 3 8.73632 3 8.14002V5.85998C3 5.26368 3.00039 4.84652 3.02695 4.52143C3.05303 4.20217 3.10185 4.01598 3.17439 3.87361C3.32778 3.57255 3.57255 3.32778 3.87361 3.17439C4.01598 3.10185 4.20217 3.05303 4.52143 3.02695C4.84652 3.00039 5.26368 3 5.85998 3H8.14002C8.73632 3 9.15348 3.00039 9.47857 3.02695C9.79783 3.05303 9.98402 3.10185 10.1264 3.17439C10.4274 3.32778 10.6722 3.57255 10.8256 3.87361C10.8982 4.01598 10.947 4.20217 10.9731 4.52143C10.9996 4.84652 11 5.26368 11 5.85998V7C11 7.27614 11.2239 7.5 11.5 7.5C11.7761 7.5 12 7.27614 12 7V5.85998V5.83845C12 5.26866 12 4.8106 11.9697 4.44C11.9386 4.0589 11.873 3.72646 11.7166 3.41962C11.4673 2.9304 11.0696 2.53265 10.5804 2.28338C10.2735 2.12704 9.9411 2.06141 9.56 2.03027C9.51935 2.02695 9.47764 2.02399 9.43485 2.02136C9.19884 0.985525 8.35099 0.189338 7.28754 0.0290419C7.0942 -0.000100493 6.87328 -6.21676e-05 6.54486 -5.1856e-06L6.5 0H3.85998H3.83846C3.26866 -4.88758e-06 2.8106 -8.70228e-06 2.44 0.0302712C2.0589 0.0614081 1.72646 0.127039 1.41962 0.283382C0.930399 0.532651 0.532651 0.930399 0.283382 1.41962C0.127039 1.72646 0.0614081 2.0589 0.0302711 2.44C-8.70228e-06 2.8106 -4.88758e-06 3.26866 0 3.83846V3.85998V7ZM4.5 4C4.22386 4 4 4.22386 4 4.5V5.5C4 5.77614 4.22386 6 4.5 6H5.5C5.77614 6 6 5.77614 6 5.5V4.5C6 4.22386 5.77614 4 5.5 4H4.5ZM4 7.5C4 7.22386 4.22386 7 4.5 7H7.5C7.77614 7 8 7.22386 8 7.5C8 7.77614 7.77614 8 7.5 8H4.5C4.22386 8 4 7.77614 4 7.5ZM4.5 9C4.22386 9 4 9.22386 4 9.5C4 9.77614 4.22386 10 4.5 10H6.5C6.77614 10 7 9.77614 7 9.5C7 9.22386 6.77614 9 6.5 9H4.5ZM8 10C8 9.72386 8.22386 9.5 8.5 9.5H9.5V8.5C9.5 8.22386 9.72386 8 10 8C10.2761 8 10.5 8.22386 10.5 8.5V9.5H11.5C11.7761 9.5 12 9.72386 12 10C12 10.2761 11.7761 10.5 11.5 10.5H10.5V11.5C10.5 11.7761 10.2761 12 10 12C9.72386 12 9.5 11.7761 9.5 11.5V10.5H8.5C8.22386 10.5 8 10.2761 8 10Z" fill="currentColor"/>
</g>
<defs>
<clipPath id="clip0_19836_380222">
<rect width="12" height="12" fill="white"/>
</clipPath>
</defs>
</svg>
