<svg width="12" height="12" viewBox="0 0 12 12" fill="none" xmlns="http://www.w3.org/2000/svg">
<g clip-path="url(#clip0_19836_380340)">
<path fill-rule="evenodd" clip-rule="evenodd" d="M1.5 5.99683C1.5 6.88684 1.76392 7.75687 2.25839 8.49689C2.75285 9.23691 3.45566 9.81369 4.27792 10.1543C5.10019 10.4949 6.00499 10.584 6.87791 10.4104C7.75082 10.2367 8.55264 9.80814 9.18198 9.17881C9.81132 8.54947 10.2399 7.74765 10.4135 6.87473C10.5872 6.00182 10.4981 5.09702 10.1575 4.27475C9.81686 3.45248 9.24009 2.74968 8.50007 2.25521C7.76005 1.76075 6.89002 1.49683 6 1.49683C5.72386 1.49683 5.5 1.27297 5.5 0.996826C5.5 0.720684 5.72386 0.496826 6 0.496826C7.0878 0.496826 8.15117 0.819395 9.05564 1.42374C9.96011 2.02809 10.6651 2.88707 11.0813 3.89207C11.4976 4.89706 11.6065 6.00293 11.3943 7.06982C11.1821 8.13672 10.6583 9.11672 9.88909 9.88591C9.1199 10.6551 8.13989 11.1789 7.073 11.3911C6.0061 11.6034 4.90023 11.4944 3.89524 11.0782C2.89025 10.6619 2.03126 9.95693 1.42692 9.05246C0.822569 8.14799 0.5 7.08462 0.5 5.99683C0.5 5.72068 0.723858 5.49683 1 5.49683C1.27614 5.49683 1.5 5.72068 1.5 5.99683Z" fill="currentColor"/>
</g>
<defs>
<clipPath id="clip0_19836_380340">
<rect width="12" height="12" fill="white"/>
</clipPath>
</defs>
</svg>
