<svg width="12" height="12" viewBox="0 0 12 12" fill="none" xmlns="http://www.w3.org/2000/svg">
<path d="M5.99994 0.5C7.65679 0.5 8.99994 1.84315 8.99994 3.5V4.5C8.99994 4.52534 8.99576 4.54989 8.99213 4.57422C9.1363 4.60507 9.27469 4.64978 9.40814 4.71777C9.78438 4.90951 10.0904 5.21556 10.2822 5.5918C10.4058 5.83443 10.4545 6.09302 10.4775 6.37402C10.5 6.64924 10.4999 6.9886 10.4999 7.40039V8.59961C10.4999 9.01139 10.5 9.35077 10.4775 9.62598C10.4545 9.907 10.4058 10.1656 10.2822 10.4082C10.0904 10.7844 9.78437 11.0905 9.40814 11.2822C9.16554 11.4058 8.90687 11.4546 8.62592 11.4775C8.35072 11.5 8.0113 11.5 7.59955 11.5H4.40033C3.98856 11.5 3.64916 11.5 3.37396 11.4775C3.09298 11.4546 2.83435 11.4058 2.59174 11.2822C2.21551 11.0905 1.90943 10.7844 1.71771 10.4082C1.5941 10.1656 1.54536 9.90697 1.5224 9.62598C1.49992 9.35076 1.49993 9.0114 1.49994 8.59961V7.40039C1.49995 6.98861 1.49991 6.64923 1.5224 6.37402C1.54537 6.09301 1.59408 5.83444 1.71771 5.5918C1.90943 5.21557 2.21552 4.90952 2.59174 4.71777C2.72486 4.64994 2.86296 4.60507 3.00678 4.57422C3.00315 4.54994 2.99994 4.52529 2.99994 4.5V3.5C2.99994 1.84316 4.34311 0.500023 5.99994 0.5ZM4.40033 5.5C3.97238 5.5 3.68096 5.50021 3.45599 5.51855C3.23683 5.53647 3.12403 5.56953 3.04584 5.60938C2.85791 5.70522 2.70513 5.85795 2.60931 6.0459C2.5695 6.12405 2.53641 6.23616 2.51849 6.45508C2.5001 6.68012 2.49995 6.97211 2.49994 7.40039V8.59961C2.49993 9.0279 2.50011 9.31987 2.51849 9.54492C2.53641 9.76382 2.5695 9.87595 2.60931 9.9541C2.70514 10.1421 2.8579 10.2948 3.04584 10.3906C3.12398 10.4304 3.23614 10.4635 3.45502 10.4814C3.68005 10.4998 3.97207 10.5 4.40033 10.5H7.59955C8.02749 10.5 8.31892 10.4998 8.54388 10.4814C8.76304 10.4635 8.87584 10.4305 8.95404 10.3906C9.14198 10.2948 9.29474 10.1421 9.39056 9.9541C9.43039 9.87595 9.46346 9.76386 9.48138 9.54492C9.49977 9.31988 9.49993 9.02789 9.49994 8.59961V7.40039C9.49995 6.97209 9.49977 6.68013 9.48138 6.45508C9.46347 6.23616 9.43038 6.12405 9.39056 6.0459C9.29473 5.85794 9.142 5.70521 8.95404 5.60938C8.8759 5.56957 8.76373 5.53647 8.54486 5.51855C8.31982 5.50017 8.02781 5.5 7.59955 5.5H4.40033ZM5.99994 1.5C4.89539 1.50002 3.99994 2.39544 3.99994 3.5V4.5L3.99896 4.50195C4.12433 4.50103 4.258 4.5 4.40033 4.5H7.59955C7.74149 4.5 7.87487 4.50104 7.99994 4.50195V3.5C7.99994 2.39543 7.10451 1.5 5.99994 1.5Z" fill="currentColor"/>
</svg>
