<svg width="12" height="12" viewBox="0 0 12 12" fill="none" xmlns="http://www.w3.org/2000/svg">
<path fill-rule="evenodd" clip-rule="evenodd" d="M4.17861 1H4.20001H7.79999H7.82139C8.36328 0.999995 8.80036 0.999991 9.1543 1.02891C9.51872 1.05868 9.83882 1.12159 10.135 1.27248C10.6054 1.51217 10.9878 1.89462 11.2275 2.36502C11.3784 2.66117 11.4413 2.98126 11.4711 3.34569C11.5 3.69961 11.5 4.13667 11.5 4.67853V4.67858V4.7V7.3V7.32142V7.32147C11.5 7.86333 11.5 8.30039 11.4711 8.65431C11.4413 9.01874 11.3784 9.33883 11.2275 9.63498C10.9878 10.1054 10.6054 10.4878 10.135 10.7275C9.83882 10.8784 9.51872 10.9413 9.1543 10.9711C8.80037 11 8.36332 11 7.82146 11H7.8214H7.79999H4.2H4.17859H4.17853C3.63667 11 3.19961 11 2.84568 10.9711C2.48126 10.9413 2.16116 10.8784 1.86502 10.7275C1.39461 10.4878 1.01216 10.1054 0.772476 9.63497C0.621583 9.33882 0.558677 9.01873 0.528904 8.6543C0.499988 8.30036 0.499993 7.86329 0.5 7.3214V7.32139V7.29998L0.500012 4.69998L0.500012 4.67858C0.500009 4.13669 0.500007 3.69962 0.528926 3.34568C0.558702 2.98125 0.62161 2.66116 0.772504 2.36502C1.01219 1.89461 1.39464 1.51216 1.86504 1.27248C2.16119 1.12159 2.48128 1.05868 2.8457 1.02891C3.19964 0.999991 3.63671 0.999995 4.1786 1H4.17861ZM2.92714 2.02559C2.62455 2.05031 2.45071 2.0964 2.31903 2.16349C2.03679 2.3073 1.80732 2.53677 1.66351 2.81901C1.59642 2.95069 1.55033 3.12453 1.5256 3.42711C1.5004 3.73553 1.50001 4.13169 1.50001 4.69999L1.5 7.29999C1.5 7.86829 1.50039 8.26445 1.52558 8.57287C1.5503 8.87546 1.59639 9.0493 1.66348 9.18098C1.80729 9.46323 2.03676 9.6927 2.31901 9.83651C2.45069 9.9036 2.62453 9.94969 2.92712 9.97441C3.23554 9.99961 3.6317 10 4.2 10H7.79999C8.36829 10 8.76445 9.99961 9.07287 9.97441C9.37545 9.94969 9.5493 9.9036 9.68097 9.83651C9.96322 9.6927 10.1927 9.46323 10.3365 9.18099C10.4036 9.04931 10.4497 8.87546 10.4744 8.57288C10.4996 8.26446 10.5 7.8683 10.5 7.3V4.7C10.5 4.1317 10.4996 3.73554 10.4744 3.42712C10.4497 3.12454 10.4036 2.95069 10.3365 2.81901C10.1927 2.53677 9.96322 2.3073 9.68097 2.16349C9.5493 2.0964 9.37545 2.05031 9.07287 2.02559C8.76445 2.00039 8.36829 2 7.79999 2H4.20001C3.63171 2 3.23556 2.00039 2.92714 2.02559ZM5.99997 4.09998C5.20348 4.09998 4.49997 4.80246 4.49997 5.74283C4.49997 6.35505 4.8026 6.95922 5.19559 7.42785C5.38904 7.65853 5.59155 7.84051 5.76306 7.96043C5.84895 8.02049 5.91978 8.05989 5.97145 8.08256C5.98298 8.08762 5.99245 8.09137 5.99997 8.09413C6.00749 8.09137 6.01697 8.08762 6.0285 8.08256C6.08016 8.05989 6.151 8.02049 6.23689 7.96043C6.40839 7.84051 6.61091 7.65853 6.80435 7.42785C7.19735 6.95922 7.49997 6.35505 7.49997 5.74283C7.49997 4.80246 6.79647 4.09998 5.99997 4.09998ZM3.49997 5.74283C3.49997 4.31628 4.58733 3.09998 5.99997 3.09998C7.41262 3.09998 8.49997 4.31628 8.49997 5.74283C8.49997 6.67122 8.0526 7.49563 7.57059 8.07041C7.32654 8.36144 7.0603 8.60489 6.80993 8.77996C6.68488 8.8674 6.5565 8.94289 6.43043 8.99823C6.31162 9.05038 6.16064 9.09998 5.99997 9.09998C5.83931 9.09998 5.68833 9.05038 5.56951 8.99823C5.44344 8.94289 5.31506 8.8674 5.19001 8.77996C4.93964 8.60489 4.67341 8.36144 4.42935 8.07041C3.94735 7.49563 3.49997 6.67122 3.49997 5.74283ZM5.99997 6C6.27611 6 6.49997 5.77614 6.49997 5.5C6.49997 5.22386 6.27611 5 5.99997 5C5.72383 5 5.49997 5.22386 5.49997 5.5C5.49997 5.77614 5.72383 6 5.99997 6Z" fill="currentColor"/>
</svg>
