<svg width="12" height="12" viewBox="0 0 12 12" fill="none" xmlns="http://www.w3.org/2000/svg">
<path fill-rule="evenodd" clip-rule="evenodd" d="M6.14984 1.14303C6.34428 0.952323 6.6556 0.952323 6.85005 1.14303L9.11475 3.36419C9.3119 3.55754 9.31497 3.87411 9.12162 4.07126C8.92826 4.26841 8.61169 4.27148 8.41454 4.07812L6.99993 2.69072L6.9999 7.30002V7.32142V7.32144C6.99991 7.86332 6.99991 8.30039 6.97099 8.65433C6.94121 9.01875 6.8783 9.33884 6.72741 9.63499C6.48772 10.1054 6.10527 10.4878 5.63487 10.7275C5.33872 10.8784 5.01863 10.9413 4.65421 10.9711C4.30029 11 3.86323 11 3.32137 11H3.32132H3.2999H2C1.72386 11 1.5 10.7761 1.5 10.5C1.5 10.2239 1.72386 10 2 10H3.29991C3.8682 10 4.26436 9.99961 4.57278 9.97441C4.87536 9.94969 5.0492 9.9036 5.18088 9.83651C5.46312 9.6927 5.69259 9.46323 5.8364 9.18099C5.9035 9.04931 5.94958 8.87547 5.97431 8.57289C5.99951 8.26447 5.9999 7.86832 5.9999 7.30002L5.99993 2.69073L4.58534 4.07812C4.38819 4.27148 4.07162 4.26841 3.87827 4.07126C3.68491 3.87411 3.68798 3.55754 3.88513 3.36419L6.14984 1.14303ZM8 10C7.72386 10 7.5 10.2239 7.5 10.5C7.5 10.7761 7.72386 11 8 11H10C10.2761 11 10.5 10.7761 10.5 10.5C10.5 10.2239 10.2761 10 10 10H8Z" fill="currentColor"/>
</svg>
