<svg width="12" height="12" viewBox="0 0 12 12" fill="none" xmlns="http://www.w3.org/2000/svg">
<path fill-rule="evenodd" clip-rule="evenodd" d="M4.7 1H4.6786C4.1367 0.999995 3.69963 0.999991 3.34569 1.02891C2.98126 1.05868 2.66117 1.12159 2.36502 1.27248C1.89462 1.51217 1.51217 1.89462 1.27248 2.36502C1.12159 2.66117 1.05868 2.98126 1.02891 3.34569C0.999991 3.69963 0.999995 4.1367 1 4.67859V4.6786V4.7V7.3V7.3214C0.999995 7.8633 0.999991 8.30037 1.02891 8.65431C1.05868 9.01874 1.12159 9.33883 1.27248 9.63498C1.51217 10.1054 1.89462 10.4878 2.36502 10.7275C2.66117 10.8784 2.98126 10.9413 3.34569 10.9711C3.69961 11 4.13667 11 4.67853 11H4.67858H4.7H6H7.3H7.32142H7.32147C7.86333 11 8.30039 11 8.65431 10.9711C9.01874 10.9413 9.33883 10.8784 9.63498 10.7275C10.1054 10.4878 10.4878 10.1054 10.7275 9.63498C10.8784 9.33883 10.9413 9.01874 10.9711 8.65431C11 8.30039 11 7.86333 11 7.32147V7.32142V7.3V4.7V4.67858V4.67853C11 4.13667 11 3.69961 10.9711 3.34569C10.9413 2.98126 10.8784 2.66117 10.7275 2.36502C10.4878 1.89462 10.1054 1.51217 9.63498 1.27248C9.33883 1.12159 9.01874 1.05868 8.65431 1.02891C8.30037 0.999991 7.8633 0.999995 7.3214 1H7.3H6H4.7ZM2.81901 2.16349C2.95069 2.0964 3.12454 2.05031 3.42712 2.02559C3.73554 2.00039 4.1317 2 4.7 2H6H7.3C7.8683 2 8.26446 2.00039 8.57288 2.02559C8.87546 2.05031 9.04931 2.0964 9.18099 2.16349C9.46323 2.3073 9.6927 2.53677 9.83651 2.81901C9.9036 2.95069 9.94969 3.12454 9.97441 3.42712C9.99961 3.73554 10 4.1317 10 4.7V7.3C10 7.8683 9.99961 8.26446 9.97441 8.57288C9.94969 8.87546 9.9036 9.04931 9.83651 9.18099C9.6927 9.46323 9.46323 9.6927 9.18099 9.83651C9.04931 9.9036 8.87546 9.94969 8.57288 9.97441C8.26446 9.99961 7.8683 10 7.3 10H6H4.7C4.1317 10 3.73554 9.99961 3.42712 9.97441C3.12454 9.94969 2.95069 9.9036 2.81901 9.83651C2.53677 9.6927 2.3073 9.46323 2.16349 9.18099C2.0964 9.04931 2.05031 8.87546 2.02559 8.57288C2.00039 8.26446 2 7.8683 2 7.3V4.7C2 4.1317 2.00039 3.73554 2.02559 3.42712C2.05031 3.12454 2.0964 2.95069 2.16349 2.81901C2.3073 2.53677 2.53677 2.3073 2.81901 2.16349ZM3.87671 5.5354C3.60057 5.5354 3.37671 5.75926 3.37671 6.0354C3.37671 6.31154 3.60057 6.5354 3.87671 6.5354H6.0358H8.19489C8.47103 6.5354 8.69489 6.31154 8.69489 6.0354C8.69489 5.75926 8.47103 5.5354 8.19489 5.5354H6.0358H3.87671Z" fill="currentColor"/>
</svg>
