<svg width="12" height="12" viewBox="0 0 12 12" fill="none" xmlns="http://www.w3.org/2000/svg">
<path fill-rule="evenodd" clip-rule="evenodd" d="M5.6786 0.5H5.7H6.3H6.3214C6.8633 0.499995 7.30037 0.499991 7.65431 0.528909C8.01874 0.558684 8.33883 0.62159 8.63498 0.772484C9.10538 1.01217 9.48783 1.39462 9.72752 1.86502C9.87841 2.16117 9.94132 2.48126 9.97109 2.84569C10 3.19963 10 3.63671 10 4.17861V4.2V7.8V7.82139C10 8.36329 10 8.80037 9.97109 9.15431C9.94132 9.51874 9.87841 9.83883 9.72752 10.135C9.48783 10.6054 9.10538 10.9878 8.63498 11.2275C8.33883 11.3784 8.01874 11.4413 7.65431 11.4711C7.30039 11.5 6.86333 11.5 6.32147 11.5H6.32142H6.3H5.7H5.67858H5.67853C5.13667 11.5 4.69961 11.5 4.34569 11.4711C3.98126 11.4413 3.66117 11.3784 3.36502 11.2275C2.89462 10.9878 2.51217 10.6054 2.27248 10.135C2.12159 9.83883 2.05868 9.51874 2.02891 9.15431C1.99999 8.80037 2 8.3633 2 7.8214V7.8V4.2V4.1786V4.17859C2 3.6367 1.99999 3.19963 2.02891 2.84569C2.05868 2.48126 2.12159 2.16117 2.27248 1.86502C2.51217 1.39462 2.89462 1.01217 3.36502 0.772484C3.66117 0.62159 3.98126 0.558684 4.34569 0.528909C4.69963 0.499991 5.1367 0.499995 5.67859 0.5H5.6786ZM4.42712 1.52559C4.12454 1.55031 3.95069 1.5964 3.81901 1.66349C3.53677 1.8073 3.3073 2.03677 3.16349 2.31901C3.0964 2.45069 3.05031 2.62454 3.02559 2.92712C3.00039 3.23554 3 3.6317 3 4.2V7.8C3 8.3683 3.00039 8.76446 3.02559 9.07288C3.05031 9.37546 3.0964 9.54931 3.16349 9.68099C3.3073 9.96323 3.53677 10.1927 3.81901 10.3365C3.95069 10.4036 4.12454 10.4497 4.42712 10.4744C4.73554 10.4996 5.1317 10.5 5.7 10.5H6.3C6.8683 10.5 7.26446 10.4996 7.57288 10.4744C7.87546 10.4497 8.04931 10.4036 8.18099 10.3365C8.46323 10.1927 8.6927 9.96323 8.83651 9.68099C8.9036 9.54931 8.94969 9.37546 8.97441 9.07288C8.99961 8.76446 9 8.3683 9 7.8V4.2C9 3.6317 8.99961 3.23554 8.97441 2.92712C8.94969 2.62454 8.9036 2.45069 8.83651 2.31901C8.6927 2.03677 8.46323 1.8073 8.18099 1.66349C8.04931 1.5964 7.87546 1.55031 7.57288 1.52559C7.26446 1.50039 6.8683 1.5 6.3 1.5H5.7C5.1317 1.5 4.73554 1.50039 4.42712 1.52559ZM4.5 3C4.5 2.72386 4.72386 2.5 5 2.5H7C7.27614 2.5 7.5 2.72386 7.5 3C7.5 3.27614 7.27614 3.5 7 3.5H5C4.72386 3.5 4.5 3.27614 4.5 3ZM6 9.5C6.27614 9.5 6.5 9.27614 6.5 9C6.5 8.72386 6.27614 8.5 6 8.5C5.72386 8.5 5.5 8.72386 5.5 9C5.5 9.27614 5.72386 9.5 6 9.5Z" fill="currentColor"/>
</svg>
