<svg width="12" height="12" viewBox="0 0 12 12" fill="none" xmlns="http://www.w3.org/2000/svg">
<path fill-rule="evenodd" clip-rule="evenodd" d="M7.02854 0.497627C7.01909 0.497095 7.00957 0.496826 7 0.496826C6.99326 0.496826 6.98655 0.496959 6.97988 0.497223C6.94658 0.497068 6.91268 0.49712 6.87808 0.497173L6.83639 0.497224L5.19777 0.498206L5.17638 0.498218L5.17637 0.498218C4.63478 0.498538 4.19794 0.498796 3.84419 0.527905C3.47995 0.557877 3.16004 0.62093 2.86408 0.771885C2.39396 1.01167 2.01178 1.39409 1.77227 1.86435C1.62149 2.16041 1.55863 2.48036 1.52888 2.84461C1.49999 3.19837 1.49999 3.63521 1.5 4.1768V4.17682V4.19821L1.50002 7.80007L1.50002 7.82147C1.50002 8.36338 1.50002 8.80048 1.52894 9.15443C1.55871 9.51886 1.62162 9.83896 1.77252 10.1351C2.0122 10.6055 2.39465 10.988 2.86506 11.2276C3.1612 11.3785 3.48129 11.4414 3.84572 11.4712C4.19965 11.5001 4.6367 11.5001 5.17857 11.5001H5.17862H5.20003H6.8H6.82141H6.82146C7.36333 11.5001 7.80038 11.5001 8.15431 11.4712C8.51873 11.4414 8.83883 11.3785 9.13497 11.2276C9.60538 10.988 9.98783 10.6055 10.2275 10.1351C10.3784 9.83895 10.4413 9.51886 10.4711 9.15443C10.5 8.80051 10.5 8.36345 10.5 7.82159V7.82154V7.80012V4.15957L10.5 4.11792V4.1176C10.5001 4.08041 10.5001 4.04403 10.4999 4.00834L10.5 3.99683C10.5 3.98999 10.4999 3.98319 10.4996 3.97643C10.4979 3.82934 10.4904 3.69361 10.4586 3.56087C10.4218 3.40782 10.3612 3.2615 10.279 3.12729C10.1853 2.97452 10.0584 2.84781 9.9144 2.70408L9.88492 2.67464L8.32258 1.1123L8.29311 1.0828C8.14927 0.938691 8.02245 0.811635 7.86955 0.717973C7.73522 0.635691 7.58877 0.575082 7.43559 0.538373C7.3054 0.507175 7.17234 0.499423 7.02854 0.497627ZM6.5 1.49743L5.19837 1.49821C4.63038 1.49855 4.23444 1.49917 3.9262 1.52454C3.6238 1.54942 3.45005 1.59558 3.31845 1.6627C3.03638 1.80657 2.80706 2.03602 2.66336 2.31818C2.59631 2.44983 2.55026 2.6236 2.52556 2.92602C2.50039 3.23428 2.5 3.63021 2.5 4.19821L2.50002 7.80006C2.50003 8.36839 2.50042 8.76456 2.52562 9.07299C2.55034 9.37559 2.59643 9.54944 2.66352 9.68111C2.80733 9.96336 3.0368 10.1928 3.31904 10.3366C3.45072 10.4037 3.62457 10.4498 3.92715 10.4745C4.23557 10.4997 4.63173 10.5001 5.20003 10.5001H6.8C7.3683 10.5001 7.76446 10.4997 8.07288 10.4745C8.37546 10.4498 8.5493 10.4037 8.68098 10.3366C8.96323 10.1928 9.1927 9.96335 9.33651 9.68111C9.4036 9.54943 9.44969 9.37559 9.47441 9.073C9.49961 8.76458 9.5 8.36843 9.5 7.80012V4.49683H8.6L8.58072 4.49683C8.31715 4.49684 8.08977 4.49684 7.90248 4.48154C7.70481 4.46539 7.5082 4.42973 7.31901 4.33334C7.03677 4.18953 6.8073 3.96006 6.66349 3.67781C6.56709 3.48862 6.53143 3.29201 6.51528 3.09434C6.49998 2.90705 6.49999 2.67967 6.5 2.4161L6.5 2.39683V1.49743ZM9.29198 3.49683H8.6C8.31172 3.49683 8.12558 3.49644 7.98391 3.48486C7.84808 3.47376 7.79772 3.45493 7.773 3.44233C7.67892 3.39439 7.60243 3.3179 7.55449 3.22382C7.5419 3.1991 7.52306 3.14874 7.51196 3.01291C7.50039 2.87124 7.5 2.6851 7.5 2.39683V1.70485C7.53082 1.73503 7.56856 1.77249 7.61547 1.81941L9.17781 3.38175C9.22454 3.42847 9.26188 3.46609 9.29198 3.49683ZM3.5 6.49683C3.5 6.22068 3.72385 5.99683 4 5.99683H8C8.27614 5.99683 8.5 6.22068 8.5 6.49683C8.5 6.77297 8.27614 6.99683 8 6.99683H4C3.72385 6.99683 3.5 6.77297 3.5 6.49683ZM4 7.99683C3.72385 7.99683 3.5 8.22068 3.5 8.49683C3.5 8.77297 3.72385 8.99683 4 8.99683H8C8.27614 8.99683 8.5 8.77297 8.5 8.49683C8.5 8.22068 8.27614 7.99683 8 7.99683H4Z" fill="currentColor"/>
</svg>
