<svg width="12" height="12" viewBox="0 0 12 12" fill="none" xmlns="http://www.w3.org/2000/svg">
<path fill-rule="evenodd" clip-rule="evenodd" d="M7.02854 0.497383C7.01909 0.496851 7.00957 0.496582 7 0.496582C6.99326 0.496582 6.98655 0.496715 6.97988 0.496979C6.94658 0.496824 6.91268 0.496876 6.87808 0.496929L6.83639 0.49698L5.19777 0.497962L5.17638 0.497974L5.17637 0.497974C4.63478 0.498294 4.19794 0.498552 3.84419 0.527661C3.47995 0.557632 3.16004 0.620686 2.86408 0.771641C2.39396 1.01143 2.01178 1.39384 1.77227 1.86411C1.62149 2.16016 1.55863 2.48011 1.52888 2.84437C1.49999 3.19813 1.49999 3.63497 1.5 4.17656V4.17657V4.19797L1.50002 7.79982L1.50002 7.82122C1.50002 8.36314 1.50002 8.80023 1.52894 9.15418C1.55871 9.51861 1.62162 9.83871 1.77252 10.1349C2.0122 10.6053 2.39465 10.9877 2.86506 11.2274C3.1612 11.3783 3.48129 11.4412 3.84572 11.471C4.19965 11.4999 4.6367 11.4999 5.17857 11.4999H5.17862H5.20003H6.8H6.82141H6.82146C7.36333 11.4999 7.80038 11.4999 8.15431 11.471C8.51873 11.4412 8.83883 11.3783 9.13497 11.2274C9.60538 10.9877 9.98783 10.6053 10.2275 10.1349C10.3784 9.83871 10.4413 9.51861 10.4711 9.15419C10.5 8.80026 10.5 8.36321 10.5 7.82135V7.82129V7.79988V4.15932L10.5 4.11767C10.5001 4.08038 10.5001 4.04389 10.4999 4.0081C10.5 4.00427 10.5 4.00043 10.5 3.99658C10.5 3.98975 10.4999 3.98295 10.4996 3.97618C10.4979 3.8291 10.4904 3.69337 10.4586 3.56063C10.4218 3.40757 10.3612 3.26126 10.279 3.12705C10.1853 2.97428 10.0584 2.84756 9.9144 2.70384L9.88492 2.6744L8.32258 1.11205L8.29311 1.08256C8.14927 0.938447 8.02245 0.811391 7.86955 0.717729C7.73522 0.635447 7.58877 0.574838 7.43559 0.538129C7.3054 0.506931 7.17234 0.499179 7.02854 0.497383ZM6.5 1.49718L5.19837 1.49796C4.63038 1.4983 4.23444 1.49893 3.9262 1.52429C3.6238 1.54918 3.45005 1.59533 3.31845 1.66246C3.03638 1.80633 2.80706 2.03578 2.66336 2.31794C2.59631 2.44958 2.55026 2.62335 2.52556 2.92577C2.50039 3.23403 2.5 3.62997 2.5 4.19797L2.50002 7.79982C2.50003 8.36814 2.50042 8.76432 2.52562 9.07275C2.55034 9.37535 2.59643 9.54919 2.66352 9.68087C2.80733 9.96311 3.0368 10.1926 3.31904 10.3364C3.45072 10.4035 3.62457 10.4496 3.92715 10.4743C4.23557 10.4995 4.63173 10.4999 5.20003 10.4999H6.8C7.3683 10.4999 7.76446 10.4995 8.07288 10.4743C8.37546 10.4496 8.5493 10.4035 8.68098 10.3364C8.96323 10.1926 9.1927 9.96311 9.33651 9.68086C9.4036 9.54919 9.44969 9.37534 9.47441 9.07276C9.49961 8.76434 9.5 8.36818 9.5 7.79988V4.49658H8.6L8.58072 4.49658C8.31715 4.49659 8.08977 4.4966 7.90248 4.4813C7.70481 4.46515 7.5082 4.42949 7.31901 4.33309C7.03677 4.18928 6.8073 3.95981 6.66349 3.67757C6.56709 3.48838 6.53143 3.29177 6.51528 3.0941C6.49998 2.90681 6.49999 2.67943 6.5 2.41585L6.5 2.39658V1.49718ZM9.29198 3.49658H8.6C8.31172 3.49658 8.12558 3.49619 7.98391 3.48462C7.84808 3.47352 7.79772 3.45468 7.773 3.44209C7.67892 3.39415 7.60243 3.31766 7.55449 3.22358C7.5419 3.19886 7.52306 3.1485 7.51196 3.01266C7.50039 2.871 7.5 2.68486 7.5 2.39658V1.70461C7.53082 1.73479 7.56856 1.77225 7.61547 1.81916L9.17781 3.38151C9.22454 3.42823 9.26188 3.46584 9.29198 3.49658Z" fill="currentColor"/>
</svg>
