<svg width="12" height="12" viewBox="0 0 12 12" fill="none" xmlns="http://www.w3.org/2000/svg">
<g clip-path="url(#clip0_19836_380152)">
<path fill-rule="evenodd" clip-rule="evenodd" d="M5.49366 1.57117C5.81257 1.41248 6.18743 1.41248 6.50634 1.57117L9.36978 2.99605C9.40871 3.01542 9.44619 3.03685 9.48212 3.06015L6 4.93227L2.51786 3.06016C2.5538 3.03685 2.59128 3.01543 2.63022 2.99606L5.49366 1.57117ZM2.00391 3.91921C2.00132 3.95043 2 3.98191 2 4.01359V7.99069C2 8.4204 2.24235 8.81338 2.62633 9.00628L5.48978 10.4448C5.49319 10.4466 5.4966 10.4482 5.50002 10.4499L5.5 5.79882L2.00391 3.91921ZM6.50002 10.4499C6.50343 10.4482 6.50683 10.4465 6.51022 10.4448L9.37367 9.00628C9.75765 8.81338 10 8.4204 10 7.99069V4.01359C10 3.9819 9.99868 3.95041 9.99609 3.91919L6.5 5.79882L6.50002 10.4499ZM6.95184 0.675887C6.35234 0.377568 5.64766 0.377569 5.04816 0.675888L2.18471 2.10077C1.45887 2.46196 1 3.20285 1 4.01359V7.99069C1 8.79849 1.45559 9.53722 2.17741 9.89986L5.04086 11.3384C5.64435 11.6416 6.35565 11.6416 6.95914 11.3384L9.82259 9.89986C10.5444 9.53722 11 8.79849 11 7.99069V4.01359C11 3.20285 10.5411 2.46196 9.81529 2.10077L6.95184 0.675887Z" fill="currentColor"/>
</g>
<defs>
<clipPath id="clip0_19836_380152">
<rect width="12" height="12" fill="white"/>
</clipPath>
</defs>
</svg>
