<svg width="12" height="12" viewBox="0 0 12 12" fill="none" xmlns="http://www.w3.org/2000/svg">
<path fill-rule="evenodd" clip-rule="evenodd" d="M2.71963 1.4447C2.87193 1.32286 3.0953 1.35386 3.20866 1.51257L4.37944 3.15166C4.47604 3.2869 4.46071 3.47215 4.34319 3.58967L3.793 4.13986C3.53245 4.40041 3.44147 4.7858 3.55799 5.13537C4.07837 6.6965 5.30339 7.92152 6.86452 8.4419C7.21408 8.55842 7.59948 8.46744 7.86003 8.20689L8.41022 7.6567C8.52774 7.53918 8.71299 7.52385 8.84823 7.62045L10.4873 8.79122C10.646 8.90459 10.677 9.12796 10.5552 9.28026L10.026 9.94172C9.76067 10.2734 9.34468 10.4471 8.92226 10.4027C5.05777 9.99586 2.00402 6.94212 1.59723 3.07763C1.55277 2.65521 1.72649 2.23922 2.05817 1.97387L2.71963 1.4447ZM4.0224 0.931336C3.57558 0.305795 2.69521 0.183614 2.09493 0.663835L1.43347 1.193C0.835683 1.67123 0.522588 2.42098 0.602729 3.18231C1.05893 7.51625 4.48363 10.941 8.81757 11.3972C9.57891 11.4773 10.3287 11.1642 10.8069 10.5664L11.3361 9.90496C11.8163 9.30468 11.6941 8.4243 11.0686 7.97749L9.42947 6.80672C8.89644 6.42598 8.16629 6.48641 7.70311 6.94959L7.16483 7.48787C5.9152 7.06582 4.93406 6.08469 4.51201 4.83506L5.05029 4.29678C5.51347 3.8336 5.5739 3.10344 5.19317 2.57042L4.0224 0.931336ZM9.35355 1.35345C9.54881 1.15818 9.54881 0.841601 9.35355 0.646339C9.15829 0.451076 8.8417 0.451076 8.64644 0.646339L7.14644 2.14634C6.95118 2.3416 6.95118 2.65818 7.14644 2.85345L8.64644 4.35345C8.8417 4.54871 9.15829 4.54871 9.35355 4.35345C9.54881 4.15818 9.54881 3.8416 9.35355 3.64634L8.7071 2.99989H11C11.2761 2.99989 11.5 2.77603 11.5 2.49989C11.5 2.22375 11.2761 1.99989 11 1.99989H8.7071L9.35355 1.35345Z" fill="currentColor"/>
</svg>
