<svg width="12" height="12" viewBox="0 0 12 12" fill="none" xmlns="http://www.w3.org/2000/svg">
<path fill-rule="evenodd" clip-rule="evenodd" d="M3.18226 1.59433C2.92914 1.27543 2.44381 1.27906 2.19549 1.6017L1.77664 2.14592C1.39975 2.63561 1.26744 3.27074 1.41744 3.8702C2.24443 7.17513 4.82494 9.75564 8.12987 10.5826C8.72933 10.7326 9.36446 10.6003 9.85416 10.2234L10.3984 9.80458C10.721 9.55626 10.7246 9.07093 10.4057 8.81781L8.9423 7.65625C8.79816 7.54184 8.59114 7.5537 8.46101 7.68383L8.21695 7.9279C7.61731 8.52753 6.67396 8.61073 5.97863 8.12531L5.80134 8.00155C5.09907 7.51128 4.48878 6.901 3.99852 6.19873L3.87476 6.02145C3.38934 5.32611 3.47254 4.38276 4.07217 3.78313L4.31624 3.53906C4.44637 3.40893 4.45823 3.20191 4.34382 3.05777L3.18226 1.59433ZM1.40303 0.991788C2.04788 0.153929 3.30822 0.14451 3.96552 0.972638L5.12709 2.43608C5.55736 2.97818 5.51274 3.75677 5.02335 4.24616L4.77928 4.49023C4.52243 4.74709 4.48679 5.15118 4.69472 5.44902L4.81848 5.6263C5.24143 6.23215 5.76792 6.75864 6.37377 7.18159L6.55105 7.30536C6.8489 7.51329 7.25299 7.47765 7.50984 7.22079L7.75391 6.97672C8.2433 6.48733 9.02189 6.44271 9.56399 6.87299L11.0274 8.03455C11.8556 8.69186 11.8461 9.9522 11.0083 10.597L10.4641 11.0159C9.73223 11.5792 8.78301 11.7769 7.88713 11.5527C4.22408 10.6361 1.36395 7.77599 0.447353 4.11294C0.223179 3.21706 0.420917 2.26785 0.984177 1.536L1.40303 0.991788ZM7.36081 1.36105C7.55607 1.16578 7.87265 1.16578 8.06791 1.36105L9.00007 2.29321L9.93223 1.36105C10.1275 1.16578 10.4441 1.16578 10.6393 1.36105C10.8346 1.55631 10.8346 1.87289 10.6393 2.06815L9.70718 3.00031L10.6393 3.93247C10.8346 4.12774 10.8346 4.44432 10.6393 4.63958C10.4441 4.83484 10.1275 4.83484 9.93223 4.63958L9.00007 3.70742L8.06791 4.63958C7.87265 4.83484 7.55607 4.83484 7.36081 4.63958C7.16554 4.44432 7.16554 4.12774 7.36081 3.93247L8.29297 3.00031L7.36081 2.06815C7.16554 1.87289 7.16554 1.55631 7.36081 1.36105Z" fill="currentColor"/>
</svg>
