<svg width="12" height="12" viewBox="0 0 12 12" fill="none" xmlns="http://www.w3.org/2000/svg">
<path fill-rule="evenodd" clip-rule="evenodd" d="M2.7196 1.44495C2.8719 1.32311 3.09527 1.35411 3.20863 1.51282L4.37941 3.1519C4.47601 3.28714 4.46068 3.4724 4.34316 3.58991L3.79297 4.14011C3.53242 4.40065 3.44144 4.78605 3.55796 5.13561C3.76394 5.75355 4.08036 6.31887 4.48429 6.80864L3.6202 7.67273C2.51374 6.42344 1.78212 4.83458 1.5972 3.07787C1.55274 2.65545 1.72646 2.23946 2.05814 1.97412L2.7196 1.44495ZM3.89781 8.80933C3.92303 8.79205 3.94701 8.77219 3.9694 8.74976C3.99154 8.72757 4.01117 8.70382 4.02828 8.67886L10.8536 1.85359C11.0488 1.65832 11.0488 1.34174 10.8536 1.14648C10.6583 0.951217 10.3417 0.951217 10.1465 1.14648L5.19543 6.0975C4.90087 5.72334 4.66816 5.29773 4.51198 4.8353L5.05026 4.29702C5.51344 3.83384 5.57387 3.10369 5.19314 2.57066L4.02237 0.93158C3.57555 0.306039 2.69518 0.183858 2.0949 0.664079L1.43344 1.19325C0.835653 1.67148 0.522558 2.42122 0.602699 3.18256C0.812306 5.17383 1.64885 6.97348 2.91194 8.38099L1.14645 10.1465C0.95119 10.3417 0.95119 10.6583 1.14645 10.8536C1.34171 11.0488 1.6583 11.0488 1.85356 10.8536L3.89781 8.80933ZM9.42944 6.80696C8.89641 6.42623 8.16626 6.48666 7.70308 6.94984L7.1648 7.48812C7.11226 7.47037 7.0602 7.45164 7.00864 7.43194C6.75067 7.3334 6.46167 7.46264 6.36313 7.7206C6.26459 7.97857 6.39383 8.26757 6.65179 8.36611C6.72196 8.39291 6.79288 8.41827 6.86449 8.44214C7.21405 8.55866 7.59945 8.46768 7.86 8.20713L8.41019 7.65694C8.5277 7.53943 8.71296 7.52409 8.8482 7.62069L10.4873 8.79147C10.646 8.90483 10.677 9.1282 10.5552 9.28051L10.026 9.94196C9.76064 10.2736 9.34465 10.4474 8.92223 10.4029C7.62626 10.2665 6.42214 9.83265 5.37823 9.17061C5.14503 9.02271 4.8361 9.09187 4.6882 9.32507C4.54031 9.55827 4.60946 9.8672 4.84266 10.0151C6.01387 10.7579 7.36498 11.2445 8.81754 11.3974C9.57888 11.4775 10.3286 11.1644 10.8069 10.5667L11.336 9.9052C11.8162 9.30492 11.6941 8.42455 11.0685 7.97773L9.42944 6.80696Z" fill="currentColor"/>
</svg>
