<svg width="12" height="12" viewBox="0 0 12 12" fill="none" xmlns="http://www.w3.org/2000/svg">
<path fill-rule="evenodd" clip-rule="evenodd" d="M2.19548 1.6017C2.44381 1.27906 2.92914 1.27543 3.18225 1.59433L4.34382 3.05777C4.45822 3.20191 4.44636 3.40893 4.31623 3.53906L4.07217 3.78313C3.47253 4.38276 3.38933 5.32611 3.87475 6.02145L3.99851 6.19873L4.40849 5.91251L3.99851 6.19873C4.48878 6.901 5.09906 7.51128 5.80133 8.00155L5.97862 8.12531C6.67395 8.61073 7.6173 8.52753 8.21694 7.9279L8.46101 7.68383C8.59113 7.55371 8.79815 7.54184 8.94229 7.65625L10.4057 8.81781C10.7246 9.07093 10.721 9.55626 10.3984 9.80458L9.85415 10.2234C9.36445 10.6003 8.72932 10.7326 8.12987 10.5826C4.82493 9.75564 2.24442 7.17513 1.41744 3.8702C1.26744 3.27074 1.39975 2.63561 1.77664 2.14592L2.19548 1.6017ZM3.96551 0.972638C3.30821 0.144509 2.04787 0.153929 1.40302 0.991788L0.98417 1.536C0.420909 2.26785 0.223171 3.21706 0.447345 4.11294C1.36394 7.77599 4.22407 10.6361 7.88712 11.5527C8.783 11.7769 9.73222 11.5792 10.4641 11.0159L11.0083 10.597C11.8461 9.95219 11.8556 8.69186 11.0274 8.03455L9.56399 6.87299C9.02188 6.44271 8.24329 6.48733 7.7539 6.97672L7.50983 7.22079C7.25298 7.47765 6.84889 7.51329 6.55104 7.30535L6.37376 7.18159C5.76791 6.75864 5.24142 6.23215 4.81847 5.6263L4.69471 5.44902C4.48678 5.15118 4.52242 4.74709 4.77927 4.49023L5.02334 4.24616C5.51274 3.75677 5.55736 2.97818 5.12708 2.43608L3.96551 0.972638ZM11.1394 1.56353C11.3346 1.36826 11.3346 1.05167 11.1393 0.856424C10.944 0.661175 10.6275 0.661194 10.4322 0.856469L8.49999 2.78892V1.49613C8.49999 1.21999 8.27613 0.996133 7.99999 0.996133C7.72385 0.996133 7.49999 1.21999 7.49999 1.49613V3.99613C7.49999 4.27227 7.72385 4.49613 7.99999 4.49613L10.5 4.49613C10.7761 4.49613 11 4.27228 11 3.99613C11 3.71999 10.7761 3.49613 10.5 3.49613L9.20699 3.49613L11.1394 1.56353Z" fill="currentColor"/>
</svg>
