<svg width="12" height="12" viewBox="0 0 12 12" fill="none" xmlns="http://www.w3.org/2000/svg">
<path fill-rule="evenodd" clip-rule="evenodd" d="M2.19549 1.6017C2.44381 1.27906 2.92914 1.27543 3.18226 1.59433L4.34382 3.05777C4.45823 3.20191 4.44637 3.40893 4.31624 3.53906L4.07217 3.78313C3.47254 4.38276 3.38934 5.32611 3.87476 6.02145L3.99852 6.19873C4.48878 6.901 5.09907 7.51128 5.80134 8.00155L5.97863 8.12531C6.67396 8.61073 7.61731 8.52753 8.21695 7.9279L8.46101 7.68383C8.59114 7.5537 8.79816 7.54184 8.9423 7.65625L10.4057 8.81781C10.7246 9.07093 10.721 9.55626 10.3984 9.80458L9.85416 10.2234C9.36446 10.6003 8.72933 10.7326 8.12987 10.5826C4.82494 9.75564 2.24443 7.17513 1.41744 3.8702C1.26744 3.27074 1.39975 2.63561 1.77664 2.14592L2.19549 1.6017ZM3.96552 0.972638C3.30822 0.14451 2.04788 0.153929 1.40303 0.991788L0.984177 1.536C0.420917 2.26785 0.223179 3.21706 0.447353 4.11294C1.36395 7.77599 4.22408 10.6361 7.88713 11.5527C8.78301 11.7769 9.73223 11.5792 10.4641 11.0159L11.0083 10.597C11.8461 9.9522 11.8556 8.69186 11.0274 8.03455L9.56399 6.87299C9.02189 6.44271 8.2433 6.48733 7.75391 6.97672L7.50984 7.22079C7.25299 7.47765 6.8489 7.51329 6.55105 7.30536L6.37377 7.18159C5.76792 6.75864 5.24143 6.23215 4.81848 5.6263L4.69472 5.44902C4.48679 5.15118 4.52243 4.74709 4.77928 4.49023L5.02335 4.24616C5.51274 3.75677 5.55736 2.97818 5.12709 2.43608L3.96552 0.972638ZM9.14645 1.35355C8.95119 1.15829 8.95119 0.841709 9.14645 0.646447C9.34171 0.451185 9.6583 0.451185 9.85356 0.646447L11.3536 2.14645C11.5488 2.34171 11.5488 2.65829 11.3536 2.85355L9.85356 4.35355C9.6583 4.54882 9.34171 4.54882 9.14645 4.35355C8.95119 4.15829 8.95119 3.84171 9.14645 3.64645L9.7929 3H7.5C7.22386 3 7 2.77614 7 2.5C7 2.22386 7.22386 2 7.5 2H9.7929L9.14645 1.35355Z" fill="currentColor"/>
</svg>
