<svg width="12" height="12" viewBox="0 0 12 12" fill="none" xmlns="http://www.w3.org/2000/svg">
<path fill-rule="evenodd" clip-rule="evenodd" d="M6 1.5V4.9C6 5.18828 6.00039 5.37441 6.01196 5.51608C6.02306 5.65191 6.0419 5.70227 6.0545 5.727C6.10243 5.82108 6.17892 5.89757 6.273 5.9455C6.29773 5.9581 6.34809 5.97694 6.48392 5.98804C6.62559 5.99961 6.81172 6 7.1 6H10.5C10.5 3.51472 8.48528 1.5 6 1.5ZM10.3885 7H7.1H7.08074H7.08072C6.81715 7.00001 6.58977 7.00002 6.40249 6.98472C6.20481 6.96856 6.0082 6.93291 5.81901 6.83651C5.53677 6.6927 5.3073 6.46323 5.16349 6.18099C5.06709 5.9918 5.03144 5.79519 5.01528 5.59751C4.99998 5.41023 4.99999 5.18285 5 4.91927L5 4.9V1.61151C2.99601 2.06624 1.5 3.85841 1.5 6C1.5 8.48528 3.51472 10.5 6 10.5C8.14159 10.5 9.93376 9.00399 10.3885 7ZM6 0.5C2.96243 0.5 0.5 2.96243 0.5 6C0.5 9.03757 2.96243 11.5 6 11.5C9.03757 11.5 11.5 9.03757 11.5 6C11.5 2.96243 9.03757 0.5 6 0.5Z" fill="currentColor"/>
</svg>
