<svg width="12" height="12" viewBox="0 0 12 12" fill="none" xmlns="http://www.w3.org/2000/svg">
<g clip-path="url(#clip0_19836_379934)">
<path fill-rule="evenodd" clip-rule="evenodd" d="M4.49979 0.499837C4.4997 0.223695 4.27577 -8.98567e-05 3.99963 2.70671e-08C3.72349 8.99407e-05 3.4997 0.22402 3.49979 0.500163L3.50012 1.51089C3.47458 1.5131 3.44979 1.51575 3.42555 1.51894C2.43192 1.64976 1.65004 2.43164 1.51923 3.42526C1.51603 3.44956 1.51337 3.4744 1.51115 3.5H0.499794C0.223652 3.5 -0.000205994 3.72386 -0.000205994 4C-0.000205994 4.27614 0.223652 4.5 0.499794 4.5H1.50028V5.50003H0.499794C0.223652 5.50003 -0.000205994 5.72389 -0.000205994 6.00003C-0.000205994 6.27618 0.223652 6.50003 0.499794 6.50003H1.50028V7.5H0.499794C0.223652 7.5 -0.000205994 7.72386 -0.000205994 8C-0.000205994 8.27614 0.223652 8.5 0.499794 8.5H1.51115C1.51337 8.5256 1.51603 8.55044 1.51923 8.57474C1.65004 9.56836 2.43192 10.3502 3.42555 10.4811C3.44979 10.4842 3.47458 10.4869 3.50012 10.4891L3.49979 11.4998C3.4997 11.776 3.72349 11.9999 3.99963 12C4.27577 12.0001 4.4997 11.7763 4.49979 11.5002L4.50012 10.5H5.49991L5.49958 11.4998C5.4995 11.776 5.72328 11.9999 5.99942 12C6.27556 12.0001 6.49949 11.7763 6.49958 11.5002L6.49991 10.5H7.50012L7.49979 11.4998C7.4997 11.776 7.72349 11.9999 7.99963 12C8.27577 12.0001 8.4997 11.7763 8.49979 11.5002L8.50012 10.4891C8.52578 10.4869 8.55067 10.4843 8.57502 10.4811C9.56864 10.3502 10.3505 9.56836 10.4813 8.57474C10.4845 8.55043 10.4872 8.52559 10.4894 8.49999L11.4998 8.49997C11.7759 8.49996 11.9998 8.2761 11.9998 7.99995C11.9998 7.72381 11.7759 7.49996 11.4998 7.49997L10.5003 7.49999V6.50002L11.4998 6.5C11.7759 6.49999 11.9998 6.27613 11.9998 5.99999C11.9998 5.72385 11.7759 5.49999 11.4998 5.5L10.5003 5.50002V4.49999L11.4998 4.49997C11.7759 4.49996 11.9998 4.2761 11.9998 3.99995C11.9998 3.72381 11.7759 3.49996 11.4998 3.49997L10.4894 3.49999C10.4872 3.47439 10.4845 3.44956 10.4813 3.42526C10.3505 2.43164 9.56864 1.64976 8.57502 1.51894C8.55067 1.51574 8.52578 1.51307 8.50012 1.51086L8.49979 0.499837C8.4997 0.223695 8.27577 -8.98567e-05 7.99963 2.70671e-08C7.72349 8.99407e-05 7.4997 0.22402 7.49979 0.500163L7.50012 1.5H6.49991L6.49958 0.499837C6.49949 0.223695 6.27556 -8.98567e-05 5.99942 2.70671e-08C5.72328 8.99407e-05 5.4995 0.22402 5.49958 0.500163L5.49991 1.5H4.50012L4.49979 0.499837ZM6.00007 9.5H4.00028C3.71901 9.5 3.62679 9.49892 3.55607 9.48961C3.01118 9.41788 2.58241 8.9891 2.51067 8.44421C2.50136 8.37349 2.50028 8.28128 2.50028 8V6.00003V4C2.50028 3.71872 2.50136 3.62651 2.51067 3.55579C2.58241 3.0109 3.01118 2.58212 3.55607 2.51039C3.62679 2.50108 3.71901 2.5 4.00028 2.5H6.00007H8.00028C8.28156 2.5 8.37378 2.50108 8.44449 2.51039C8.98938 2.58212 9.41816 3.0109 9.48989 3.55579C9.4992 3.62651 9.50028 3.71872 9.50028 4V6.00003V8C9.50028 8.28128 9.4992 8.37349 9.48989 8.44421C9.41816 8.9891 8.98938 9.41788 8.44449 9.48961C8.37378 9.49892 8.28156 9.5 8.00028 9.5H6.00007ZM6.38326 3.80835C6.31066 3.66316 6.16226 3.57145 5.99993 3.57145C5.8376 3.57145 5.6892 3.66316 5.61661 3.80835L4.11661 6.80835L3.61661 7.80835C3.51076 8.02006 3.59657 8.27749 3.80827 8.38334C4.01998 8.4892 4.27741 8.40339 4.38326 8.19168L4.76481 7.42859H7.23506L7.61661 8.19168C7.72246 8.40339 7.97989 8.4892 8.1916 8.38334C8.4033 8.27749 8.48911 8.02006 8.38326 7.80835L7.88326 6.80835L6.38326 3.80835ZM5.99993 4.95833L6.80649 6.57145H5.19338L5.99993 4.95833Z" fill="currentColor"/>
</g>
<defs>
<clipPath id="clip0_19836_379934">
<rect width="12" height="12" fill="white"/>
</clipPath>
</defs>
</svg>
