<svg width="12" height="12" viewBox="0 0 12 12" fill="none" xmlns="http://www.w3.org/2000/svg">
<path fill-rule="evenodd" clip-rule="evenodd" d="M6 0.996826C6.01915 0.996826 6.03806 0.997903 6.05665 1H8.075L8.0914 1C8.50826 0.999997 8.84453 0.999995 9.11865 1.01731C9.40041 1.0351 9.65009 1.07259 9.88828 1.16313C10.5559 1.4169 11.0831 1.9441 11.3369 2.61172C11.4274 2.84991 11.4649 3.09959 11.4827 3.38135C11.5 3.65546 11.5 3.99172 11.5 4.40856V4.4086V4.425V7.3V7.3214V7.32145C11.5 7.86332 11.5 8.30038 11.4711 8.65431C11.4413 9.01874 11.3784 9.33883 11.2275 9.63498C10.9878 10.1054 10.6054 10.4878 10.135 10.7275C9.83883 10.8784 9.51874 10.9413 9.15431 10.9711C8.80037 11 8.3633 11 7.82142 11H7.82137H7.8H6.83333H4.2H4.17863H4.17858C3.6367 11 3.19962 11 2.84569 10.9711C2.48126 10.9413 2.16117 10.8784 1.86502 10.7275C1.39462 10.4878 1.01217 10.1054 0.772484 9.63498C0.621591 9.33883 0.558683 9.01874 0.528909 8.65431C0.499991 8.30037 0.499995 7.8633 0.5 7.32142V7.32136V7.3V4.425V4.40861V4.40857C0.499997 3.99173 0.499995 3.65547 0.517307 3.38135C0.535102 3.09959 0.57259 2.84991 0.66313 2.61172C0.916902 1.9441 1.4441 1.4169 2.11172 1.16313C2.34991 1.07259 2.59959 1.0351 2.88135 1.01731C3.15547 0.999995 3.49174 0.999997 3.9086 1H3.9086L3.925 1H5.94335C5.96194 0.997903 5.98085 0.996826 6 0.996826ZM3.925 2H5.5V5.99687H1.5V4.425C1.5 3.98792 1.50023 3.68326 1.51532 3.44438C1.53015 3.20954 1.55791 3.07217 1.59788 2.96703C1.75014 2.56646 2.06646 2.25014 2.46703 2.09788C2.57217 2.05791 2.70954 2.03015 2.94438 2.01532C3.18326 2.00023 3.48792 2 3.925 2ZM1.5 6.99687V7.3C1.5 7.8683 1.50039 8.26446 1.52559 8.57288C1.55031 8.87546 1.5964 9.04931 1.66349 9.18099C1.8073 9.46323 2.03677 9.6927 2.31901 9.83651C2.45069 9.9036 2.62454 9.94969 2.92712 9.97441C3.23554 9.99961 3.6317 10 4.2 10H5.5V6.99687H1.5ZM6.5 2V10H6.83333H7.8C8.3683 10 8.76446 9.99961 9.07288 9.97441C9.37546 9.94969 9.54931 9.9036 9.68099 9.83651C9.96323 9.6927 10.1927 9.46323 10.3365 9.18099C10.4036 9.04931 10.4497 8.87546 10.4744 8.57288C10.4996 8.26446 10.5 7.8683 10.5 7.3V4.425C10.5 3.98792 10.4998 3.68326 10.4847 3.44438C10.4698 3.20954 10.4421 3.07217 10.4021 2.96703C10.2499 2.56646 9.93354 2.25014 9.53297 2.09788C9.42783 2.05791 9.29046 2.03015 9.05562 2.01532C8.81674 2.00023 8.51208 2 8.075 2H6.5ZM7.5 3.49683C7.5 3.22068 7.72386 2.99683 8 2.99683H9C9.27614 2.99683 9.5 3.22068 9.5 3.49683C9.5 3.77297 9.27614 3.99683 9 3.99683H8C7.72386 3.99683 7.5 3.77297 7.5 3.49683ZM8 4.99683C7.72386 4.99683 7.5 5.22068 7.5 5.49683C7.5 5.77297 7.72386 5.99683 8 5.99683H9C9.27614 5.99683 9.5 5.77297 9.5 5.49683C9.5 5.22068 9.27614 4.99683 9 4.99683H8ZM7.5 7.49683C7.5 7.22068 7.72386 6.99683 8 6.99683H9C9.27614 6.99683 9.5 7.22068 9.5 7.49683C9.5 7.77297 9.27614 7.99683 9 7.99683H8C7.72386 7.99683 7.5 7.77297 7.5 7.49683ZM3.25 2.99683C2.83579 2.99683 2.5 3.33261 2.5 3.74683V4.24683C2.5 4.66104 2.83579 4.99683 3.25 4.99683H3.75C4.16421 4.99683 4.5 4.66104 4.5 4.24683V3.74683C4.5 3.33261 4.16421 2.99683 3.75 2.99683H3.25Z" fill="currentColor"/>
</svg>
