<svg width="12" height="12" viewBox="0 0 12 12" fill="none" xmlns="http://www.w3.org/2000/svg">
<g clip-path="url(#clip0_19836_380396)">
<path fill-rule="evenodd" clip-rule="evenodd" d="M7.79997 1H7.82137C8.36327 0.999995 8.80034 0.999991 9.15428 1.02891C9.51871 1.05868 9.8388 1.12159 10.1349 1.27248C10.6054 1.51217 10.9878 1.89462 11.2275 2.36502C11.3784 2.66117 11.4413 2.98126 11.4711 3.34569C11.5 3.69962 11.5 4.13668 11.5 4.67855V4.6786V4.7V5.49683C11.5 5.77297 11.2761 5.99683 11 5.99683C10.7238 5.99683 10.5 5.77297 10.5 5.49683V4.7C10.5 4.1317 10.4996 3.73554 10.4744 3.42712C10.4497 3.12454 10.4036 2.95069 10.3365 2.81901C10.1927 2.53677 9.9632 2.3073 9.68095 2.16349C9.54928 2.0964 9.37543 2.05031 9.07285 2.02559C8.76443 2.00039 8.36827 2 7.79997 2H6.49997V10.5C6.49997 10.7761 6.27611 11 5.99997 11H4.19997H4.17855H4.1785C3.63664 11 3.19958 11 2.84566 10.9711C2.48123 10.9413 2.16114 10.8784 1.86499 10.7275C1.39459 10.4878 1.01214 10.1054 0.772453 9.63498C0.621559 9.33883 0.558653 9.01874 0.528878 8.65431C0.499961 8.30039 0.499965 7.86333 0.49997 7.32147L0.49997 7.32141V7.3V4.425V4.40861L0.49997 4.40857C0.499967 3.99173 0.499964 3.65547 0.517277 3.38135C0.535071 3.09959 0.572559 2.84991 0.663099 2.61172C0.916871 1.9441 1.44407 1.4169 2.11169 1.16313C2.34988 1.07259 2.59956 1.0351 2.88132 1.01731C3.15544 0.999995 3.49171 0.999997 3.90856 1H3.90857H3.92497H7.79997ZM5.49997 5.99687V2H3.92497C3.48789 2 3.18323 2.00023 2.94435 2.01532C2.70951 2.03015 2.57214 2.05791 2.467 2.09788C2.06643 2.25014 1.75011 2.56646 1.59785 2.96703C1.55788 3.07217 1.53012 3.20954 1.51529 3.44438C1.5002 3.68326 1.49997 3.98792 1.49997 4.425V5.99687H5.49997ZM5.49997 6.99687H1.49997V7.3C1.49997 7.8683 1.50036 8.26446 1.52556 8.57288C1.55028 8.87546 1.59637 9.04931 1.66346 9.18099C1.80727 9.46323 2.03674 9.6927 2.31898 9.83651C2.45066 9.9036 2.62451 9.94969 2.92709 9.97441C3.23551 9.99961 3.63167 10 4.19997 10H5.49997V6.99687ZM7.49997 3.49683C7.49997 3.22068 7.72383 2.99683 7.99997 2.99683H8.99997C9.27611 2.99683 9.49997 3.22068 9.49997 3.49683C9.49997 3.77297 9.27611 3.99683 8.99997 3.99683H7.99997C7.72383 3.99683 7.49997 3.77297 7.49997 3.49683ZM7.99997 4.99683C7.72383 4.99683 7.49997 5.22068 7.49997 5.49683C7.49997 5.77297 7.72383 5.99683 7.99997 5.99683H8.99997C9.27611 5.99683 9.49997 5.77297 9.49997 5.49683C9.49997 5.22068 9.27611 4.99683 8.99997 4.99683H7.99997ZM2.49997 3.74683C2.49997 3.33261 2.83576 2.99683 3.24997 2.99683H3.74997C4.16418 2.99683 4.49997 3.33261 4.49997 3.74683V4.24683C4.49997 4.66104 4.16418 4.99683 3.74997 4.99683H3.24997C2.83576 4.99683 2.49997 4.66104 2.49997 4.24683V3.74683ZM10.5644 8.07485C10.6122 8.027 10.6771 8.00012 10.7448 8.00012C10.8125 8.00012 10.8774 8.027 10.9252 8.07485C10.9731 8.1227 11 8.18759 11 8.25526C11 8.32293 10.9731 8.38783 10.9252 8.43567L9.4381 9.92279C9.10399 10.2569 8.97475 10.384 8.83263 10.4862C8.69973 10.5817 8.55689 10.6626 8.4066 10.7274C8.3443 10.7543 8.27978 10.7775 8.19743 10.8026C8.22254 10.7203 8.24581 10.6558 8.27268 10.5935C8.33748 10.4432 8.41836 10.3003 8.51389 10.1674C8.61606 10.0253 8.74317 9.89608 9.07728 9.56197L10.5644 8.07485ZM10.7448 7.00012C10.4119 7.00012 10.0927 7.13236 9.85729 7.36774L8.37017 8.85486L8.34047 8.88456L8.34046 8.88458C8.04572 9.17924 7.85723 9.3677 7.70192 9.58375C7.56428 9.77521 7.44777 9.981 7.3544 10.1975C7.24905 10.4419 7.18443 10.7005 7.08339 11.1048L7.0732 11.1456L7.01488 11.3789C6.97228 11.5492 7.02221 11.7295 7.1464 11.8537C7.27059 11.9779 7.45083 12.0278 7.62122 11.9852L7.85452 11.9269L7.89526 11.9167L7.89528 11.9167C8.29962 11.8156 8.55822 11.751 8.80255 11.6457C9.01908 11.5523 9.22486 11.4358 9.41633 11.2982C9.63237 11.1428 9.82083 10.9544 10.1155 10.6596L10.1155 10.6596L10.1452 10.6299L11.6323 9.14278C11.8677 8.9074 12 8.58815 12 8.25526C12 7.92238 11.8677 7.60313 11.6323 7.36774C11.3969 7.13236 11.0777 7.00012 10.7448 7.00012Z" fill="currentColor"/>
</g>
<defs>
<clipPath id="clip0_19836_380396">
<rect width="12" height="12" fill="white"/>
</clipPath>
</defs>
</svg>
