<svg width="12" height="12" viewBox="0 0 12 12" fill="none" xmlns="http://www.w3.org/2000/svg">
<path d="M3.53528 7.56055C3.81138 7.56055 4.03522 7.78446 4.03528 8.06055V10.1816C4.03528 10.4578 3.81142 10.6816 3.53528 10.6816C3.25924 10.6815 3.03528 10.4577 3.03528 10.1816V9.26758L1.41419 10.8887C1.21892 11.0839 0.902417 11.0839 0.707154 10.8887C0.512059 10.6934 0.511948 10.3768 0.707154 10.1816L2.32825 8.56055H1.41419C1.13804 8.56055 0.914186 8.33669 0.914186 8.06055C0.914247 7.78446 1.13808 7.56055 1.41419 7.56055H3.53528ZM7.29993 1C7.85166 1 8.29587 1 8.65442 1.0293C9.0187 1.05907 9.33884 1.12166 9.63489 1.27246C10.1052 1.51215 10.488 1.89487 10.7277 2.36523C10.8785 2.66131 10.9411 2.98138 10.9708 3.3457C11.0001 3.70429 11.0001 4.1484 11.0001 4.7002V7.2998C11.0001 7.8516 11.0001 8.29571 10.9708 8.6543C10.9411 9.01862 10.8785 9.33869 10.7277 9.63477C10.488 10.1051 10.1052 10.4879 9.63489 10.7275C9.33884 10.8783 9.0187 10.9409 8.65442 10.9707C8.29587 11 7.85166 11 7.29993 11H6.00012C5.72398 11 5.50012 10.7761 5.50012 10.5C5.50012 10.2239 5.72398 10 6.00012 10H7.29993C7.86814 10 8.26497 9.99981 8.57337 9.97461C8.87532 9.9499 9.04923 9.90385 9.18079 9.83691C9.46297 9.6931 9.69325 9.46286 9.83704 9.18066C9.90397 9.04909 9.95003 8.87524 9.97473 8.57324C9.99993 8.26482 10.0001 7.8681 10.0001 7.2998V4.7002C10.0001 4.1319 9.99993 3.73518 9.97473 3.42676C9.95003 3.12476 9.90397 2.95091 9.83704 2.81934C9.69325 2.53714 9.46297 2.3069 9.18079 2.16309C9.04923 2.09615 8.87532 2.0501 8.57337 2.02539C8.26497 2.00019 7.86814 2 7.29993 2H4.70032C4.13211 2 3.73528 2.0002 3.42688 2.02539C3.12493 2.05009 2.95102 2.09617 2.81946 2.16309C2.53724 2.30688 2.30702 2.53712 2.16321 2.81934C2.09626 2.95091 2.05022 3.12471 2.02551 3.42676C2.00031 3.73518 2.00012 4.13189 2.00012 4.7002V6C2.00012 6.27609 1.77619 6.49991 1.50012 6.5C1.22398 6.5 1.00012 6.27614 1.00012 6V4.7002C1.00012 4.14839 1.00012 3.70429 1.02942 3.3457C1.05919 2.98136 1.12176 2.66132 1.27258 2.36523C1.51227 1.89486 1.89497 1.51213 2.36536 1.27246C2.66141 1.12168 2.98153 1.05906 3.34583 1.0293C3.70439 1.00001 4.1486 1 4.70032 1H7.29993ZM6.50012 8C6.77619 8.00009 7.00012 8.22391 7.00012 8.5C7.00012 8.77609 6.77619 8.99991 6.50012 9H5.50012C5.22398 9 5.00012 8.77614 5.00012 8.5C5.00012 8.22386 5.22398 8 5.50012 8H6.50012ZM8.50012 6C8.77619 6.00009 9.00012 6.22391 9.00012 6.5C9.00012 6.77609 8.77619 6.99991 8.50012 7H5.50012C5.22398 7 5.00012 6.77614 5.00012 6.5C5.00012 6.22386 5.22398 6 5.50012 6H8.50012ZM4.50012 3C4.77619 3.00009 5.00012 3.22391 5.00012 3.5V4.5C5.00012 4.77609 4.77619 4.99991 4.50012 5H3.50012C3.22398 5 3.00012 4.77614 3.00012 4.5V3.5C3.00012 3.22386 3.22398 3 3.50012 3H4.50012Z" fill="currentColor"/>
</svg>
