<svg width="12" height="12" viewBox="0 0 12 12" fill="none" xmlns="http://www.w3.org/2000/svg">
<path fill-rule="evenodd" clip-rule="evenodd" d="M8.36652 1.44554C7.34547 0.995736 6.20767 0.882921 5.11817 1.12346C4.02867 1.364 3.04413 1.94538 2.30738 2.78327C1.57063 3.62117 1.11997 4.67199 1.02079 5.78331C0.921607 6.89463 1.17905 8.00865 1.75579 8.96377C2.33252 9.91888 3.19854 10.6654 4.22823 11.0951C5.25791 11.5248 6.39771 11.6152 7.48228 11.3533C8.56684 11.0915 9.53977 10.4908 10.2599 9.63865C10.4382 9.42774 10.4117 9.11227 10.2008 8.93403C9.98985 8.75579 9.67438 8.78228 9.49614 8.9932C8.91315 9.68307 8.12554 10.1693 7.24756 10.3813C6.36958 10.5933 5.44688 10.52 4.61333 10.1722C3.77977 9.82439 3.07871 9.22005 2.61183 8.44686C2.14495 7.67367 1.93654 6.77184 2.01683 5.8722C2.09712 4.97256 2.46194 4.1219 3.05836 3.4436C3.65478 2.76531 4.45178 2.29467 5.33376 2.09994C6.21573 1.90522 7.13681 1.99655 7.96337 2.36068C8.75358 2.70879 9.41811 3.28891 9.86964 4.02273H8C7.72386 4.02273 7.5 4.24659 7.5 4.52273C7.5 4.79887 7.72386 5.02273 8 5.02273H10.1427C10.8922 5.02273 11.4998 4.41515 11.4998 3.66565V1.52295C11.4998 1.24681 11.2759 1.02295 10.9998 1.02295C10.7236 1.02295 10.4998 1.24681 10.4998 1.52295V3.16748C9.95567 2.41733 9.22051 1.82175 8.36652 1.44554Z" fill="currentColor"/>
</svg>
