<svg width="12" height="12" viewBox="0 0 12 12" fill="none" xmlns="http://www.w3.org/2000/svg">
<g clip-path="url(#clip0_19836_380148)">
<path d="M6.88275 9.99707C7.0226 9.75914 7.32834 9.67973 7.56635 9.81934C7.80436 9.95924 7.8839 10.2649 7.74408 10.5029C7.39212 11.1016 6.74636 11.5107 6.00092 11.5107C5.25555 11.5106 4.60964 11.1016 4.25775 10.5029C4.1181 10.265 4.19769 9.95927 4.43549 9.81934C4.67348 9.67956 4.97914 9.75916 5.11908 9.99707C5.30307 10.31 5.63262 10.5106 6.00092 10.5107C6.36928 10.5107 6.69869 10.31 6.88275 9.99707ZM5.99994 0C7.95561 7.57712e-05 9.5846 1.49931 9.74701 3.44824L9.87299 4.9502C9.94735 5.84207 10.2716 6.69516 10.8085 7.41113C11.2991 8.0658 10.8318 8.99989 10.0136 9H1.98627C1.16798 9 0.700679 8.06585 1.19135 7.41113C1.7283 6.69517 2.05253 5.84204 2.12689 4.9502L2.25287 3.44824C2.41529 1.49926 4.0442 0 5.99994 0ZM5.99994 1C4.56429 1 3.36819 2.10056 3.24896 3.53125L3.12396 5.0332C3.03438 6.1079 2.64482 7.13586 1.99994 8H9.99994C9.35502 7.13585 8.9655 6.10793 8.87592 5.0332L8.75092 3.53125C8.6317 2.10061 7.43552 1.00008 5.99994 1Z" fill="currentColor"/>
</g>
<defs>
<clipPath id="clip0_19836_380148">
<rect width="12" height="12" fill="white"/>
</clipPath>
</defs>
</svg>
