<svg width="12" height="12" viewBox="0 0 12 12" fill="none" xmlns="http://www.w3.org/2000/svg">
<path fill-rule="evenodd" clip-rule="evenodd" d="M4.17861 1H4.20001H7.79999H7.82139C8.36328 0.999995 8.80036 0.999991 9.1543 1.02891C9.51872 1.05868 9.83882 1.12159 10.135 1.27248C10.6054 1.51217 10.9878 1.89462 11.2275 2.36502C11.3784 2.66117 11.4413 2.98126 11.4711 3.34569C11.5 3.69961 11.5 4.13667 11.5 4.67853V4.67858V4.7V7.3V7.32142V7.32147C11.5 7.86333 11.5 8.30039 11.4711 8.65431C11.4413 9.01874 11.3784 9.33883 11.2275 9.63498C10.9878 10.1054 10.6054 10.4878 10.135 10.7275C9.83882 10.8784 9.51872 10.9413 9.1543 10.9711C8.80037 11 8.36332 11 7.82145 11H7.8214H7.79999H4.2H4.17858H4.17853C3.63667 11 3.19961 11 2.84568 10.9711C2.48126 10.9413 2.16116 10.8784 1.86502 10.7275C1.39461 10.4878 1.01216 10.1054 0.772475 9.63497C0.621582 9.33882 0.558677 9.01873 0.528904 8.6543C0.499987 8.30036 0.499993 7.86329 0.5 7.32139V7.32138V7.29998L0.500012 4.69998L0.500012 4.67858C0.50001 4.13669 0.500008 3.69962 0.528927 3.34568C0.558703 2.98125 0.621611 2.66116 0.772505 2.36502C1.01219 1.89461 1.39464 1.51216 1.86504 1.27248C2.16119 1.12159 2.48128 1.05868 2.84571 1.02891C3.19964 0.999991 3.63672 0.999995 4.17861 1H4.17861ZM2.92714 2.02559C2.62455 2.05031 2.45071 2.0964 2.31903 2.16349C2.03679 2.3073 1.80732 2.53677 1.66351 2.81901C1.59642 2.95069 1.55033 3.12453 1.52561 3.42711C1.51233 3.58961 1.50594 3.77645 1.50286 4H10.4971C10.4941 3.77646 10.4877 3.58961 10.4744 3.42712C10.4497 3.12454 10.4036 2.95069 10.3365 2.81901C10.1927 2.53677 9.96321 2.3073 9.68097 2.16349C9.54929 2.0964 9.37545 2.05031 9.07287 2.02559C8.76445 2.00039 8.36829 2 7.79999 2H4.20001C3.63171 2 3.23556 2.00039 2.92714 2.02559ZM10.5 5H1.50001L1.5 7H10.5V5ZM1.52558 8.57287C1.51231 8.41038 1.50592 8.22354 1.50285 8H10.4971C10.4941 8.22354 10.4877 8.41039 10.4744 8.57288C10.4497 8.87546 10.4036 9.04931 10.3365 9.18099C10.1927 9.46323 9.96322 9.6927 9.68097 9.83651C9.54929 9.9036 9.37545 9.94969 9.07287 9.97441C8.76445 9.99961 8.36829 10 7.79999 10H4.2C3.6317 10 3.23554 9.99961 2.92712 9.97441C2.62453 9.94969 2.45069 9.9036 2.31901 9.83651C2.03676 9.6927 1.80729 9.46323 1.66348 9.18098C1.59639 9.0493 1.5503 8.87546 1.52558 8.57287Z" fill="currentColor"/>
</svg>
