<svg width="12" height="12" viewBox="0 0 12 12" fill="none" xmlns="http://www.w3.org/2000/svg">
<path d="M7.2998 1C7.85161 1 8.29571 0.999999 8.6543 1.0293C9.01864 1.05907 9.33867 1.12163 9.63477 1.27246C10.1052 1.51214 10.4879 1.89483 10.7275 2.36523C10.8784 2.66133 10.9409 2.98136 10.9707 3.3457C11 3.70429 11 4.14839 11 4.7002V7.2998C11 7.85161 11 8.29571 10.9707 8.6543C10.9409 9.01864 10.8784 9.33867 10.7275 9.63477C10.4879 10.1052 10.1052 10.4879 9.63477 10.7275C9.33867 10.8784 9.01864 10.9409 8.6543 10.9707C8.29571 11 7.85161 11 7.2998 11H4.7002C4.14839 11 3.70429 11 3.3457 10.9707C2.98136 10.9409 2.66133 10.8784 2.36523 10.7275C1.89483 10.4879 1.51214 10.1052 1.27246 9.63477C1.12163 9.33867 1.05907 9.01864 1.0293 8.6543C0.999999 8.29571 1 7.85161 1 7.2998V4.7002C1 4.14839 0.999999 3.70429 1.0293 3.3457C1.05907 2.98136 1.12163 2.66133 1.27246 2.36523C1.51214 1.89483 1.89483 1.51214 2.36523 1.27246C2.66133 1.12163 2.98136 1.05907 3.3457 1.0293C3.70429 0.999999 4.14839 1 4.7002 1H7.2998ZM4.7002 2C4.13189 2 3.73518 2.00019 3.42676 2.02539C3.12471 2.05009 2.95091 2.09613 2.81934 2.16309C2.53709 2.3069 2.3069 2.53709 2.16309 2.81934C2.09613 2.95091 2.05009 3.12471 2.02539 3.42676C2.00019 3.73518 2 4.13189 2 4.7002V7.2998C2 7.86811 2.00019 8.26482 2.02539 8.57324C2.05009 8.87529 2.09613 9.04909 2.16309 9.18066C2.3069 9.46291 2.53709 9.6931 2.81934 9.83691C2.95091 9.90387 3.12471 9.94991 3.42676 9.97461C3.73518 9.99981 4.13189 10 4.7002 10H7.2998C7.86811 10 8.26482 9.99981 8.57324 9.97461C8.87529 9.94991 9.04909 9.90387 9.18066 9.83691C9.46291 9.6931 9.6931 9.46291 9.83691 9.18066C9.90387 9.04909 9.94991 8.87529 9.97461 8.57324C9.99981 8.26482 10 7.86811 10 7.2998V4.7002C10 4.13189 9.99981 3.73518 9.97461 3.42676C9.94991 3.12471 9.90387 2.95091 9.83691 2.81934C9.6931 2.53709 9.46291 2.3069 9.18066 2.16309C9.04909 2.09613 8.87529 2.05009 8.57324 2.02539C8.26482 2.00019 7.86811 2 7.2998 2H4.7002ZM8 3.5C8.03267 3.5 8.06549 3.50242 8.09766 3.50879C8.14875 3.51889 8.19602 3.53909 8.24023 3.56348C8.28055 3.58569 8.31933 3.6123 8.35352 3.64648C8.38737 3.68034 8.41343 3.71891 8.43555 3.75879C8.46008 3.80299 8.48 3.85024 8.49023 3.90137C8.49346 3.91746 8.49349 3.93391 8.49512 3.9502C8.49675 3.96666 8.5 3.98311 8.5 4V7C8.5 7.27614 8.27614 7.5 8 7.5C7.72386 7.5 7.5 7.27614 7.5 7V5.20703L4.35352 8.35352C4.15825 8.54878 3.84175 8.54878 3.64648 8.35352C3.45122 8.15825 3.45122 7.84175 3.64648 7.64648L6.79297 4.5H5C4.72386 4.5 4.5 4.27614 4.5 4C4.5 3.72386 4.72386 3.5 5 3.5H8Z" fill="currentColor"/>
</svg>
