<svg width="12" height="12" viewBox="0 0 12 12" fill="none" xmlns="http://www.w3.org/2000/svg">
<path fill-rule="evenodd" clip-rule="evenodd" d="M1.5 5C1.5 3.067 3.067 1.5 5 1.5C6.933 1.5 8.5 3.067 8.5 5C8.5 6.933 6.933 8.5 5 8.5C3.067 8.5 1.5 6.933 1.5 5ZM5 0.5C2.51472 0.5 0.5 2.51472 0.5 5C0.5 7.48528 2.51472 9.5 5 9.5C6.06251 9.5 7.03901 9.13176 7.80884 8.51595L10.1464 10.8536C10.3417 11.0488 10.6583 11.0488 10.8536 10.8536C11.0488 10.6583 11.0488 10.3417 10.8536 10.1464L8.51595 7.80884C9.13176 7.03901 9.5 6.06251 9.5 5C9.5 2.51472 7.48528 0.5 5 0.5Z" fill="currentColor"/>
</svg>
