<svg width="12" height="12" viewBox="0 0 12 12" fill="none" xmlns="http://www.w3.org/2000/svg">
<path fill-rule="evenodd" clip-rule="evenodd" d="M6.03715 1.54988C6.01331 1.54034 5.98672 1.54034 5.96288 1.54988L2.57842 2.90366C2.55059 2.91479 2.53816 2.92842 2.53093 2.93971C2.52212 2.95347 2.51556 2.97318 2.51556 2.9965C2.51556 3.01983 2.52212 3.03954 2.53093 3.0533C2.53816 3.06459 2.55059 3.07822 2.57843 3.08935L4.93466 4.03185L4.93662 4.03263L5.96288 4.44313C5.98672 4.45267 6.01331 4.45267 6.03715 4.44313L7.06341 4.03263L7.06537 4.03185L9.4216 3.08935C9.44944 3.07822 9.46187 3.06459 9.4691 3.0533C9.47791 3.03954 9.48446 3.01983 9.48446 2.99651C9.48446 2.97318 9.47791 2.95347 9.4691 2.93971C9.46187 2.92842 9.44944 2.91479 9.4216 2.90366L6.03715 1.54988ZM2.20703 4.01783L3.40372 4.4965L3.31432 4.53227L2.20703 4.97518C1.28507 5.34397 1.28507 6.64905 2.20703 7.01783L3.40372 7.4965L3.31432 7.53227L2.20703 7.97518C1.28507 8.34397 1.28507 9.64905 2.20703 10.0178L5.59148 11.3716C5.85374 11.4765 6.14629 11.4765 6.40854 11.3716L9.79299 10.0178C10.715 9.64904 10.715 8.34396 9.79299 7.97518L8.68571 7.53227L8.5963 7.4965L9.79299 7.01783C10.715 6.64904 10.715 5.34396 9.79299 4.97518L8.68571 4.53227L8.59631 4.4965L9.79299 4.01783C10.715 3.64904 10.715 2.34396 9.79299 1.97518L6.40854 0.6214C6.14629 0.516499 5.85374 0.5165 5.59148 0.6214L2.20703 1.97518C1.28507 2.34397 1.28508 3.64905 2.20703 4.01783ZM7.06356 7.03257C7.06411 7.03235 7.06467 7.03213 7.06522 7.0319L9.4216 6.08935C9.44944 6.07822 9.46187 6.06459 9.4691 6.0533C9.47791 6.03954 9.48446 6.01983 9.48446 5.9965C9.48446 5.97318 9.47791 5.95347 9.4691 5.93971C9.46187 5.92842 9.44944 5.91479 9.4216 5.90366L8.31432 5.46074L7.25001 5.03502L6.40854 5.37161C6.14629 5.47651 5.85374 5.47651 5.59148 5.37161L4.75001 5.03502L3.68571 5.46074L2.57842 5.90366C2.55059 5.91479 2.53816 5.92842 2.53093 5.93971C2.52212 5.95347 2.51556 5.97318 2.51556 5.9965C2.51556 6.01983 2.52212 6.03954 2.53093 6.0533C2.53816 6.06459 2.55059 6.07822 2.57843 6.08935L4.93493 7.03195C4.9354 7.03214 4.93588 7.03233 4.93635 7.03252L5.96288 7.44313C5.98672 7.45267 6.01331 7.45267 6.03715 7.44313L7.06356 7.03257ZM4.75001 8.03502L5.59148 8.37161C5.85374 8.47651 6.14629 8.47651 6.40854 8.37161L7.25001 8.03502L8.31432 8.46074L9.4216 8.90366C9.44944 8.91479 9.46187 8.92842 9.4691 8.93971C9.47791 8.95347 9.48446 8.97318 9.48446 8.9965C9.48446 9.01983 9.47791 9.03954 9.4691 9.0533C9.46187 9.06459 9.44944 9.07822 9.4216 9.08935L6.03715 10.4431C6.01331 10.4527 5.98672 10.4527 5.96288 10.4431L2.57843 9.08935C2.55059 9.07822 2.53816 9.06459 2.53093 9.0533C2.52212 9.03954 2.51556 9.01983 2.51556 8.9965C2.51556 8.97318 2.52212 8.95347 2.53093 8.93971C2.53816 8.92842 2.55059 8.91479 2.57842 8.90366L3.68571 8.46074L4.75001 8.03502Z" fill="currentColor"/>
</svg>
