<svg width="12" height="12" viewBox="0 0 12 12" fill="none" xmlns="http://www.w3.org/2000/svg">
<path fill-rule="evenodd" clip-rule="evenodd" d="M5.60531 1.51385L5.2822 2.16226C4.93724 2.85451 4.16847 3.22666 3.41152 3.06781L2.73348 2.92553C2.54866 3.12345 2.38083 3.33816 2.23243 3.56721L2.54285 4.26282C2.85046 4.95215 2.66668 5.76178 2.09159 6.25074L1.52451 6.73289C1.56091 7.01081 1.62146 7.28072 1.70389 7.54041L2.39652 7.71781C3.13574 7.90714 3.65823 8.56583 3.67435 9.32874L3.69027 10.0821C3.91638 10.2201 4.1551 10.3383 4.40416 10.4345L4.9408 10.0168C5.15873 9.84725 5.47287 9.88642 5.64247 10.1043C5.81208 10.3223 5.7729 10.6364 5.55498 10.806L5.01596 11.2255C4.75681 11.4272 4.39767 11.5026 4.06235 11.3744C3.74428 11.2529 3.44035 11.1023 3.15363 10.9261C2.85657 10.7435 2.6973 10.4255 2.69055 10.1059L2.67457 9.34987C2.66794 9.03573 2.45279 8.7645 2.14841 8.68654L1.45341 8.50854C1.13959 8.42816 0.86402 8.19594 0.756276 7.86024C0.651565 7.534 0.575412 7.19474 0.530761 6.84561C0.486794 6.50182 0.632041 6.17911 0.875101 5.97245L1.44384 5.48889C1.68064 5.28755 1.75631 4.95418 1.62965 4.67033L1.31828 3.9726C1.18869 3.68219 1.19636 3.32931 1.38356 3.03836C1.56972 2.74904 1.78142 2.47826 2.01542 2.22934C2.26036 1.96879 2.61505 1.8789 2.93627 1.94631L3.61689 2.08913C3.92857 2.15453 4.24512 2.0013 4.38717 1.71625L4.7117 1.06498C4.8568 0.773811 5.14418 0.551532 5.4986 0.519393C5.83043 0.489304 6.16973 0.489304 6.50155 0.519393C6.85598 0.551532 7.14336 0.773811 7.28845 1.06498L7.61299 1.71625C7.75504 2.0013 8.07159 2.15453 8.38327 2.08913L9.06389 1.94631C9.38511 1.8789 9.7398 1.96879 9.98474 2.22934C10.2187 2.47826 10.4304 2.74904 10.6166 3.03836C10.8038 3.32931 10.8115 3.68219 10.6819 3.9726L10.3705 4.67033C10.2438 4.95418 10.3195 5.28755 10.5563 5.48889L10.5977 5.52407C10.8081 5.70294 10.8336 6.01849 10.6547 6.22887C10.4759 6.43925 10.1603 6.4648 9.94995 6.28592L9.90857 6.25074C9.33348 5.76178 9.14969 4.95215 9.45731 4.26282L9.76773 3.56721C9.61933 3.33816 9.4515 3.12345 9.26668 2.92553L8.58864 3.06781C7.83169 3.22665 7.06292 2.85451 6.71796 2.16226L6.39485 1.51385C6.13377 1.49115 5.86639 1.49115 5.60531 1.51385ZM6.70716 5.29284C6.3167 4.90239 5.6833 4.90239 5.29284 5.29284C4.90239 5.6833 4.90239 6.3167 5.29284 6.70716C5.6833 7.09761 6.3167 7.09761 6.70716 6.70716C7.09761 6.3167 7.09761 5.6833 6.70716 5.29284ZM4.58573 4.58573C5.36671 3.80476 6.63329 3.80476 7.41427 4.58573C8.19524 5.36671 8.19524 6.63329 7.41427 7.41427C6.63329 8.19524 5.36671 8.19524 4.58573 7.41427C3.80476 6.63329 3.80476 5.36671 4.58573 4.58573ZM10.2535 7.64327C10.0582 7.44801 9.74161 7.44801 9.54635 7.64327C9.35109 7.83853 9.35109 8.15512 9.54635 8.35038L10.1928 8.99683L7.5 8.99682C7.22386 8.99682 7 9.22068 7 9.49682C7 9.77297 7.22386 9.99682 7.5 9.99682L10.1928 9.99683L9.54635 10.6433C9.35109 10.8385 9.35109 11.1551 9.54635 11.3504C9.74161 11.5456 10.0582 11.5456 10.2535 11.3504L11.7535 9.85038C11.9487 9.65512 11.9487 9.33854 11.7535 9.14327L10.2535 7.64327Z" fill="currentColor"/>
</svg>
