<svg width="12" height="12" viewBox="0 0 12 12" fill="none" xmlns="http://www.w3.org/2000/svg">
<path fill-rule="evenodd" clip-rule="evenodd" d="M5.28232 2.16226L5.60543 1.51385C5.86651 1.49115 6.13389 1.49115 6.39498 1.51385L6.71809 2.16226C7.06304 2.85451 7.83181 3.22665 8.58877 3.06781L9.2668 2.92553C9.45162 3.12345 9.61945 3.33816 9.76785 3.56722L9.45744 4.26282C9.14982 4.95215 9.3336 5.76178 9.90869 6.25074L10.4758 6.73289C10.4394 7.01081 10.3788 7.28072 10.2964 7.54041L9.60376 7.71781C8.86454 7.90714 8.34205 8.56583 8.32593 9.32874L8.31001 10.0821C8.0839 10.2201 7.84518 10.3383 7.59612 10.4345L7.0443 10.005C6.43026 9.52715 5.57015 9.52715 4.9561 10.005L4.40428 10.4345C4.15523 10.3383 3.91651 10.2201 3.69039 10.0821L3.67447 9.32874C3.65835 8.56583 3.13586 7.90714 2.39664 7.71781L1.70402 7.54041C1.62159 7.28072 1.56103 7.01081 1.52463 6.73289L2.09171 6.25074C2.6668 5.76178 2.85059 4.95215 2.54297 4.26282L2.23255 3.56722C2.38095 3.33816 2.54878 3.12345 2.7336 2.92553L3.41164 3.06781C4.16859 3.22666 4.93736 2.85451 5.28232 2.16226ZM6.50168 0.519393C6.16985 0.489304 5.83055 0.489304 5.49873 0.519393C5.1443 0.551532 4.85692 0.773811 4.71183 1.06498L4.38729 1.71625C4.24525 2.0013 3.92869 2.15453 3.61701 2.08913L2.93639 1.94631C2.61518 1.8789 2.26048 1.96879 2.01554 2.22934C1.78154 2.47826 1.56985 2.74904 1.38369 3.03836C1.19648 3.32931 1.18881 3.68219 1.3184 3.9726L1.62977 4.67033C1.75644 4.95418 1.68076 5.28755 1.44396 5.48889L0.875223 5.97245C0.632163 6.17911 0.486916 6.50182 0.530883 6.84561C0.575534 7.19474 0.651687 7.534 0.756398 7.86024C0.864142 8.19594 1.13971 8.42816 1.45354 8.50854L2.14853 8.68654C2.45291 8.7645 2.66806 9.03573 2.6747 9.34987L2.69067 10.1059C2.69742 10.4255 2.8567 10.7435 3.15375 10.9261C3.44047 11.1023 3.74441 11.2529 4.06248 11.3744C4.3978 11.5026 4.75693 11.4272 5.01609 11.2255L5.57028 10.7942C5.82312 10.5974 6.17728 10.5974 6.43013 10.7942L6.98432 11.2255C7.24347 11.4272 7.60261 11.5026 7.93793 11.3744C8.256 11.2529 8.55993 11.1023 8.84665 10.9261C9.14371 10.7435 9.30298 10.4255 9.30973 10.1059L9.32571 9.34987C9.33234 9.03573 9.54749 8.7645 9.85187 8.68654L10.5469 8.50854C10.8607 8.42816 11.1363 8.19594 11.244 7.86024C11.3487 7.534 11.4249 7.19474 11.4695 6.84561C11.5135 6.50182 11.3682 6.17911 11.1252 5.97245L10.5564 5.48889C10.3196 5.28755 10.244 4.95418 10.3706 4.67033L10.682 3.9726C10.8116 3.68219 10.8039 3.32931 10.6167 3.03836C10.4306 2.74904 10.2189 2.47826 9.98486 2.22934C9.73992 1.96879 9.38523 1.8789 9.06401 1.94631L8.3834 2.08913C8.07171 2.15453 7.75516 2.0013 7.61312 1.71625L7.28858 1.06498C7.14348 0.773812 6.8561 0.551532 6.50168 0.519393ZM5.29296 5.29284C5.68342 4.90239 6.31683 4.90239 6.70728 5.29284C7.09774 5.6833 7.09774 6.3167 6.70728 6.70716C6.31683 7.09761 5.68342 7.09761 5.29296 6.70716C4.90251 6.3167 4.90251 5.6833 5.29296 5.29284ZM7.41439 4.58573C6.63341 3.80476 5.36684 3.80476 4.58586 4.58573C3.80488 5.36671 3.80488 6.63329 4.58586 7.41427C5.36684 8.19524 6.63341 8.19524 7.41439 7.41427C8.19537 6.63329 8.19537 5.36671 7.41439 4.58573Z" fill="currentColor"/>
</svg>
