<svg width="12" height="12" viewBox="0 0 12 12" fill="none" xmlns="http://www.w3.org/2000/svg">
<path fill-rule="evenodd" clip-rule="evenodd" d="M4.17862 1H4.20002H7.8H7.82141C8.3633 0.999995 8.80037 0.999991 9.15431 1.02891C9.51874 1.05868 9.83883 1.12159 10.135 1.27248C10.6054 1.51217 10.9878 1.89462 11.2275 2.36502C11.3784 2.66117 11.4413 2.98126 11.4711 3.34569C11.5 3.69961 11.5 4.13667 11.5 4.67853V4.67858V4.7V7.3V7.32142V7.32147C11.5 7.86333 11.5 8.30039 11.4711 8.65431C11.4413 9.01874 11.3784 9.33883 11.2275 9.63498C10.9878 10.1054 10.6054 10.4878 10.135 10.7275C9.83883 10.8784 9.51874 10.9413 9.15431 10.9711C8.80039 11 8.36333 11 7.82147 11H7.82142H7.8H4.20002H4.1786H4.17855C3.63668 11 3.19963 11 2.8457 10.9711C2.48127 10.9413 2.16118 10.8784 1.86503 10.7275C1.39463 10.4878 1.01217 10.1054 0.772491 9.63497C0.621598 9.33882 0.558693 9.01873 0.528919 8.6543C0.500003 8.30036 0.500008 7.86329 0.500015 7.3214V7.32139V7.29998L0.500027 4.69998L0.500027 4.67858C0.500024 4.13669 0.500022 3.69962 0.528941 3.34568C0.558718 2.98125 0.621625 2.66116 0.772519 2.36502C1.0122 1.89461 1.39465 1.51216 1.86506 1.27248C2.1612 1.12159 2.4813 1.05868 2.84572 1.02891C3.19966 0.999991 3.63673 0.999995 4.17862 1H4.17862ZM2.92715 2.02559C2.62457 2.05031 2.45073 2.0964 2.31905 2.16349C2.03681 2.3073 1.80733 2.53677 1.66352 2.81901C1.59643 2.95069 1.55034 3.12453 1.52562 3.42711C1.50042 3.73553 1.50003 4.13169 1.50003 4.69999L1.50002 7.29999C1.50001 7.86829 1.5004 8.26445 1.5256 8.57287C1.55032 8.87546 1.59641 9.0493 1.6635 9.18098C1.80731 9.46323 2.03678 9.6927 2.31902 9.83651C2.4507 9.9036 2.62455 9.94969 2.92713 9.97441C3.23555 9.99961 3.63171 10 4.20002 10H7.8C8.36831 10 8.76446 9.99961 9.07288 9.97441C9.37547 9.94969 9.54931 9.9036 9.68099 9.83651C9.96323 9.6927 10.1927 9.46323 10.3365 9.18099C10.4036 9.04931 10.4497 8.87546 10.4744 8.57288C10.4996 8.26446 10.5 7.8683 10.5 7.3V4.7C10.5 4.1317 10.4996 3.73554 10.4744 3.42712C10.4497 3.12454 10.4036 2.95069 10.3365 2.81901C10.1927 2.53677 9.96323 2.3073 9.68099 2.16349C9.54931 2.0964 9.37547 2.05031 9.07288 2.02559C8.76446 2.00039 8.36831 2 7.8 2H4.20002C3.63172 2 3.23557 2.00039 2.92715 2.02559ZM3 5C3 4.72386 3.22386 4.5 3.5 4.5H8.5C8.77614 4.5 9 4.72386 9 5C9 5.27614 8.77614 5.5 8.5 5.5H3.5C3.22386 5.5 3 5.27614 3 5ZM4.5 6.5C4.22386 6.5 4 6.72386 4 7C4 7.27614 4.22386 7.5 4.5 7.5H7.5C7.77614 7.5 8 7.27614 8 7C8 6.72386 7.77614 6.5 7.5 6.5H4.5Z" fill="currentColor"/>
</svg>
