<svg width="12" height="12" viewBox="0 0 12 12" fill="none" xmlns="http://www.w3.org/2000/svg">
<path fill-rule="evenodd" clip-rule="evenodd" d="M1.97577 1.00001L2 1.00002L2.02423 1.00001L2.02423 1.00001C2.12637 0.999945 2.21995 0.999886 2.30505 1.01049C2.92443 1.0877 3.41232 1.57559 3.48953 2.19497C3.50014 2.28007 3.50008 2.37365 3.50001 2.47579L3.5 2.50002V7.50002L3.50001 7.52425C3.50008 7.62639 3.50014 7.71997 3.48953 7.80507C3.41232 8.42445 2.92443 8.91234 2.30505 8.98955C2.21995 9.00015 2.12637 9.0001 2.02423 9.00003L2 9.00002L1.97577 9.00003C1.87364 9.0001 1.78005 9.00015 1.69495 8.98955C1.07557 8.91234 0.587683 8.42445 0.510474 7.80507C0.499866 7.71997 0.499926 7.62639 0.499991 7.52425L0.500001 7.50002V2.50002L0.499991 2.47579L0.499991 2.47579C0.499926 2.37365 0.499867 2.28007 0.510474 2.19497C0.587683 1.57559 1.07557 1.0877 1.69495 1.01049C1.78005 0.999886 1.87363 0.999945 1.97577 1.00001L1.97577 1.00001ZM2 2.00002C1.85829 2.00002 1.83329 2.00099 1.81865 2.00281C1.65349 2.0234 1.52338 2.1535 1.50279 2.31867C1.50097 2.33331 1.5 2.35831 1.5 2.50002V7.50002C1.5 7.64173 1.50097 7.66673 1.50279 7.68137C1.52338 7.84654 1.65349 7.97664 1.81865 7.99723C1.83329 7.99905 1.85829 8.00002 2 8.00002C2.14171 8.00002 2.16671 7.99905 2.18135 7.99723C2.34652 7.97664 2.47662 7.84654 2.49721 7.68137C2.49903 7.66673 2.5 7.64173 2.5 7.50002V2.50002C2.5 2.35831 2.49903 2.33331 2.49721 2.31867C2.47662 2.1535 2.34652 2.0234 2.18135 2.00281C2.16671 2.00099 2.14171 2.00002 2 2.00002ZM5.97577 1.00001L6 1.00002L6.02423 1.00001C6.12637 0.999945 6.21995 0.999886 6.30505 1.01049C6.92443 1.0877 7.41232 1.57559 7.48953 2.19497C7.50014 2.28007 7.50008 2.37365 7.50001 2.47579L7.5 2.50002V9.99991L7.50001 10.0241C7.50008 10.1263 7.50014 10.2199 7.48953 10.305C7.41232 10.9243 6.92443 11.4122 6.30505 11.4894C6.21995 11.5 6.12637 11.5 6.02423 11.4999L6 11.4999L5.97577 11.4999C5.87364 11.5 5.78005 11.5 5.69495 11.4894C5.07557 11.4122 4.58768 10.9243 4.51047 10.305C4.49987 10.2199 4.49993 10.1263 4.49999 10.0241L4.5 9.99991V2.50002L4.49999 2.47579C4.49993 2.37366 4.49987 2.28007 4.51047 2.19497C4.58768 1.57559 5.07557 1.0877 5.69495 1.01049C5.78005 0.999886 5.87364 0.999945 5.97577 1.00001ZM6 2.00002C5.85829 2.00002 5.83329 2.00099 5.81865 2.00281C5.65349 2.0234 5.52338 2.1535 5.50279 2.31867C5.50097 2.33331 5.5 2.35831 5.5 2.50002V9.99991C5.5 10.1416 5.50097 10.1666 5.50279 10.1813C5.52338 10.3464 5.65349 10.4765 5.81865 10.4971C5.83329 10.4989 5.85829 10.4999 6 10.4999C6.14171 10.4999 6.16671 10.4989 6.18135 10.4971C6.34652 10.4765 6.47662 10.3464 6.49721 10.1813C6.49903 10.1666 6.5 10.1416 6.5 9.99991V2.50002C6.5 2.35831 6.49903 2.33331 6.49721 2.31867C6.47662 2.1535 6.34652 2.0234 6.18135 2.00281C6.16671 2.00099 6.14171 2.00002 6 2.00002ZM10 1.00002L9.97577 1.00001C9.87364 0.999945 9.78005 0.999886 9.69495 1.01049C9.07557 1.0877 8.58768 1.57559 8.51047 2.19497C8.49987 2.28007 8.49993 2.37365 8.49999 2.47579L8.5 2.50002V4.50002L8.49999 4.52425C8.49993 4.62639 8.49987 4.71997 8.51047 4.80507C8.58768 5.42445 9.07557 5.91234 9.69495 5.98955C9.78005 6.00015 9.87364 6.0001 9.97577 6.00003L10 6.00002L10.0242 6.00003C10.1264 6.0001 10.22 6.00015 10.305 5.98955C10.9244 5.91234 11.4123 5.42445 11.4895 4.80507C11.5001 4.71997 11.5001 4.62639 11.5 4.52425L11.5 4.50002V2.50002L11.5 2.47579C11.5001 2.37365 11.5001 2.28007 11.4895 2.19497C11.4123 1.57559 10.9244 1.0877 10.305 1.01049C10.22 0.999886 10.1264 0.999945 10.0242 1.00001L10 1.00002ZM9.81865 2.00281C9.83329 2.00099 9.85829 2.00002 10 2.00002C10.1417 2.00002 10.1667 2.00099 10.1813 2.00281C10.3465 2.0234 10.4766 2.1535 10.4972 2.31867C10.499 2.33331 10.5 2.35831 10.5 2.50002V4.50002C10.5 4.64173 10.499 4.66673 10.4972 4.68137C10.4766 4.84654 10.3465 4.97664 10.1813 4.99723C10.1667 4.99905 10.1417 5.00002 10 5.00002C9.85829 5.00002 9.83329 4.99905 9.81865 4.99723C9.65349 4.97664 9.52338 4.84654 9.50279 4.68137C9.50097 4.66673 9.5 4.64173 9.5 4.50002V2.50002C9.5 2.35831 9.50097 2.33331 9.50279 2.31867C9.52338 2.1535 9.65349 2.0234 9.81865 2.00281Z" fill="currentColor"/>
</svg>
