<svg width="12" height="12" viewBox="0 0 12 12" fill="none" xmlns="http://www.w3.org/2000/svg">
<path fill-rule="evenodd" clip-rule="evenodd" d="M6.00013 1.5C4.36994 1.5 3.40117 2.481 3.40117 3.5V3.5037H3.40116C3.40027 3.6236 3.41737 3.74254 3.45154 3.85585C3.53125 4.12023 3.38155 4.39918 3.11716 4.4789C2.85277 4.55861 2.57382 4.40891 2.49411 4.14452C2.43101 3.93525 2.39974 3.71713 2.40117 3.49818L2.40117 3.5H2.90115L2.40118 3.4963L2.40117 3.49818C2.40229 1.7567 4.00665 0.5 6.00013 0.5C7.54291 0.5 8.83204 1.23731 9.35706 2.38736C9.47174 2.63857 9.36107 2.93517 9.10986 3.04985C8.85866 3.16453 8.56205 3.05386 8.44737 2.80265C8.12018 2.08595 7.24391 1.5 6.00013 1.5ZM0.5 6C0.5 5.72386 0.723858 5.5 1 5.5H6.59788C6.60553 5.49982 6.61321 5.49982 6.62091 5.5H11C11.2761 5.5 11.5 5.72386 11.5 6C11.5 6.27614 11.2761 6.5 11 6.5H8.82555C9.39783 6.96393 9.78125 7.60743 9.78125 8.50005C9.78125 9.37969 9.31206 10.1407 8.62322 10.6655C7.93478 11.1901 7.00567 11.5 6 11.5C4.99433 11.5 4.06522 11.1901 3.37678 10.6655C2.68794 10.1407 2.21875 9.37969 2.21875 8.50005C2.21875 8.22391 2.44261 8.00005 2.71875 8.00005C2.99489 8.00005 3.21875 8.22391 3.21875 8.50005C3.21875 9.00112 3.48409 9.49011 3.98283 9.8701C4.48197 10.2504 5.19349 10.5 6 10.5C6.80651 10.5 7.51803 10.2504 8.01717 9.8701C8.51591 9.49011 8.78125 9.00112 8.78125 8.50005C8.78125 7.9308 8.55168 7.55421 8.16447 7.25187C7.76383 6.93906 7.19931 6.71183 6.5326 6.5H1C0.723858 6.5 0.5 6.27614 0.5 6Z" fill="currentColor"/>
</svg>
