<svg width="12" height="12" viewBox="0 0 12 12" fill="none" xmlns="http://www.w3.org/2000/svg">
<g clip-path="url(#clip0_19836_379897)">
<path fill-rule="evenodd" clip-rule="evenodd" d="M5.64634 11.3536C5.84159 11.5488 6.15813 11.5488 6.35339 11.3536L7.85345 9.85383C8.04873 9.65859 8.04876 9.34201 7.85352 9.14673C7.65827 8.95144 7.34169 8.95141 7.14641 9.14666L6.49987 9.79306L6.49987 4.63636V4.50028C6.91773 4.81417 7.43715 5.00016 8 5.00012C8.82838 5.00007 9.49994 5.67159 9.49994 6.49997L9.49994 7.79282L9.10346 7.39641C8.90818 7.20117 8.59159 7.2012 8.39635 7.39648C8.20111 7.59176 8.20114 7.90834 8.39642 8.10359L9.64642 9.35334C9.84167 9.54856 10.1582 9.54856 10.3535 9.35334L11.6035 8.10359C11.7987 7.90834 11.7988 7.59176 11.6035 7.39648C11.4083 7.2012 11.0917 7.20117 10.8964 7.39641L10.4999 7.79282L10.4999 6.49997C10.4999 5.11928 9.38063 4.00004 7.99994 4.00012C7.17156 4.00017 6.5 3.32866 6.5 2.50028L6.5 1.28572C6.5 1.28182 6.49996 1.27794 6.49987 1.27407V1C6.49987 0.723858 6.27601 0.5 5.99987 0.5C5.72373 0.5 5.49987 0.723858 5.49987 1V2.50309C5.49835 3.33017 4.82738 4.00017 3.99994 4.00012C2.61925 4.00004 1.49994 5.11928 1.49994 6.49996L1.49994 7.79281L1.10346 7.39641C0.908177 7.20117 0.591595 7.2012 0.396352 7.39648C0.201108 7.59176 0.201139 7.90834 0.39642 8.10359L1.64642 9.35334C1.84167 9.54856 2.1582 9.54856 2.35346 9.35334L3.60346 8.10359C3.79874 7.90834 3.79877 7.59176 3.60353 7.39648C3.40828 7.2012 3.0917 7.20117 2.89642 7.39641L2.49994 7.79281L2.49994 6.49997C2.49994 5.67159 3.1715 5.00007 3.99988 5.00012C4.56267 5.00016 5.08204 4.81421 5.49987 4.50038V4.63636L5.49987 9.793L4.85346 9.14667C4.65818 8.95142 4.3416 8.95144 4.14635 9.14671C3.9511 9.34199 3.95112 9.65857 4.1464 9.85382L5.64634 11.3536Z" fill="currentColor"/>
</g>
<defs>
<clipPath id="clip0_19836_379897">
<rect width="12" height="12" fill="white"/>
</clipPath>
</defs>
</svg>
