<svg width="12" height="12" viewBox="0 0 12 12" fill="none" xmlns="http://www.w3.org/2000/svg">
<path fill-rule="evenodd" clip-rule="evenodd" d="M3.97913 1L3.99683 1H8.00317L8.02087 1C8.47031 0.999997 8.83286 0.999994 9.12794 1.02006C9.43135 1.0407 9.69967 1.08421 9.95383 1.18911C10.5687 1.44291 11.0571 1.93129 11.3109 2.54617C11.4158 2.80033 11.4593 3.06865 11.4799 3.37206C11.5 3.66715 11.5 4.02969 11.5 4.47914V4.49683V7.3V7.32142C11.5 7.8633 11.5 8.30038 11.4711 8.65431C11.4413 9.01874 11.3784 9.33883 11.2275 9.63498C10.9878 10.1054 10.6054 10.4878 10.135 10.7275C9.83883 10.8784 9.51874 10.9413 9.15431 10.9711C8.80038 11 8.3633 11 7.82142 11H7.8H4.5H4.2H4.17858C3.6367 11 3.19963 11 2.84569 10.9711C2.48126 10.9413 2.16117 10.8784 1.86502 10.7275C1.39462 10.4878 1.01217 10.1054 0.772484 9.63498C0.62159 9.33883 0.558684 9.01874 0.528909 8.65431C0.499991 8.30037 0.499995 7.8633 0.5 7.3214L0.5 7.3V4.49683L0.5 4.47913C0.499997 4.02969 0.499994 3.66714 0.520064 3.37206C0.540701 3.06865 0.584207 2.80033 0.689111 2.54617C0.942906 1.93129 1.43129 1.44291 2.04617 1.18911C2.30033 1.08421 2.56865 1.0407 2.87206 1.02006C3.16714 0.999994 3.52969 0.999997 3.97913 1ZM2.93992 2.01776C2.68725 2.03494 2.54008 2.06708 2.4277 2.11347C2.05877 2.26574 1.76574 2.55877 1.61347 2.9277C1.56708 3.04008 1.53494 3.18725 1.51776 3.43992C1.50724 3.59457 1.50295 3.77503 1.5012 3.99683H4.5H10.4988C10.497 3.77503 10.4928 3.59457 10.4822 3.43992C10.4651 3.18725 10.4329 3.04008 10.3865 2.9277C10.2343 2.55877 9.94123 2.26574 9.5723 2.11347C9.45992 2.06708 9.31275 2.03494 9.06008 2.01776C8.80294 2.00027 8.47444 2 8.00317 2H3.99683C3.52556 2 3.19706 2.00027 2.93992 2.01776ZM10.5 4.99683H5V10H7.8C8.3683 10 8.76446 9.99961 9.07288 9.97441C9.37546 9.94969 9.54931 9.9036 9.68099 9.83651C9.96323 9.6927 10.1927 9.46323 10.3365 9.18099C10.4036 9.04931 10.4497 8.87546 10.4744 8.57288C10.4996 8.26446 10.5 7.8683 10.5 7.3V4.99683ZM4 9.99994V4.99683H1.5V7.3C1.5 7.8683 1.50039 8.26446 1.52559 8.57288C1.55031 8.87546 1.5964 9.04931 1.66349 9.18099C1.8073 9.46323 2.03677 9.6927 2.31901 9.83651C2.45069 9.9036 2.62454 9.94969 2.92712 9.97441C3.198 9.99654 3.53657 9.99954 4 9.99994Z" fill="currentColor"/>
</svg>
