<svg width="12" height="12" viewBox="0 0 12 12" fill="none" xmlns="http://www.w3.org/2000/svg">
<g clip-path="url(#clip0_19919_47502)">
<path fill-rule="evenodd" clip-rule="evenodd" d="M5.99997 0.496618L5.95362 0.4966C5.72062 0.496462 5.5339 0.496351 5.36835 0.52928C4.694 0.663411 4.16684 1.19054 4.03267 1.86488C3.99973 2.03042 3.99983 2.21715 3.99995 2.45015L3.99997 2.49649L3.99997 2.49998H1.28571C1.00956 2.49998 0.785706 2.72383 0.785706 2.99998C0.785706 3.27612 1.00956 3.49998 1.28571 3.49998H1.49998C1.50015 3.52071 1.5016 3.54166 1.50441 3.56275L2.15728 8.45924L2.16157 8.49142L2.16157 8.49142C2.24059 9.08424 2.30611 9.57571 2.40863 9.96302C2.51662 10.371 2.68025 10.7251 2.99585 11.0014C3.31145 11.2777 3.6841 11.3931 4.10276 11.4463C4.50022 11.4967 4.99603 11.4967 5.59408 11.4967H5.59411H5.62658H6.37348H6.40594H6.40598C7.00402 11.4967 7.49983 11.4967 7.89729 11.4463C8.31595 11.3931 8.6886 11.2777 9.0042 11.0014C9.3198 10.7251 9.48343 10.371 9.59142 9.96302C9.69394 9.57571 9.75946 9.08423 9.83848 8.49142L9.84277 8.45924L10.4956 3.56275C10.4985 3.54166 10.4999 3.52071 10.5001 3.49998H10.7143C10.9904 3.49998 11.2143 3.27612 11.2143 2.99998C11.2143 2.72383 10.9904 2.49998 10.7143 2.49998H7.99997V2.49674L7.99999 2.45038V2.45037C8.00014 2.21736 8.00026 2.03062 7.96734 1.86505C7.83323 1.19064 7.30605 0.663437 6.63165 0.529285C6.46609 0.496351 6.27935 0.496462 6.04632 0.4966L5.99997 0.496618ZM6.99997 2.49998V2.49668C6.99999 2.1939 6.99757 2.11554 6.98654 2.06009C6.93132 1.78239 6.71425 1.56531 6.43656 1.51007C6.38111 1.49904 6.30274 1.49662 5.99997 1.49662C5.69723 1.49662 5.61887 1.49904 5.56343 1.51007C5.28576 1.5653 5.06869 1.78235 5.01345 2.06002C5.00241 2.11546 4.99999 2.19381 4.99997 2.49656V2.49998H6.99997ZM2.50489 3.49998H9.49516L8.85155 8.32707C8.76712 8.96028 8.70909 9.38836 8.62471 9.70713C8.54395 10.0122 8.45411 10.1539 8.34548 10.249C8.23684 10.3442 8.08452 10.4145 7.77141 10.4542C7.44428 10.4957 7.01229 10.4967 6.37348 10.4967H5.62658C4.98776 10.4967 4.55577 10.4957 4.22864 10.4542C3.91553 10.4145 3.76321 10.3442 3.65458 10.249C3.54594 10.1539 3.4561 10.0122 3.37534 9.70713C3.29096 9.38836 3.23293 8.96028 3.14851 8.32707L2.50489 3.49998ZM4.99504 4.92588C4.95598 4.65252 4.70272 4.46257 4.42935 4.50162C4.15598 4.54067 3.96603 4.79394 4.00509 5.0673L4.50509 8.5673C4.54414 8.84067 4.7974 9.03062 5.07077 8.99157C5.34414 8.95252 5.53409 8.69925 5.49504 8.42588L4.99504 4.92588ZM7.57075 4.50162C7.29739 4.46257 7.04412 4.65252 7.00507 4.92588L6.50507 8.42588C6.46602 8.69925 6.65597 8.95252 6.92933 8.99157C7.2027 9.03062 7.45597 8.84067 7.49502 8.5673L7.99502 5.0673C8.03407 4.79394 7.84412 4.54067 7.57075 4.50162Z" fill="currentColor"/>
</g>
<defs>
<clipPath id="clip0_19919_47502">
<rect width="12" height="12" fill="white"/>
</clipPath>
</defs>
</svg>
