<svg width="12" height="12" viewBox="0 0 12 12" fill="none" xmlns="http://www.w3.org/2000/svg">
<path fill-rule="evenodd" clip-rule="evenodd" d="M7.2543 0.349385C6.47861 -0.100511 5.52139 -0.100511 4.74571 0.349385L1.7457 2.08939C0.974624 2.53661 0.5 3.36057 0.5 4.25196V7.74785C0.5 8.63924 0.974624 9.4632 1.74571 9.91043L4.74571 11.6504C5.52139 12.1003 6.47861 12.1003 7.2543 11.6504L10.2543 9.91043C11.0254 9.4632 11.5 8.63924 11.5 7.74785V4.25196C11.5 3.36057 11.0254 2.53661 10.2543 2.08938L7.2543 0.349385ZM5.24742 1.21442C5.71283 0.944479 6.28717 0.944478 6.75258 1.21442L9.75258 2.95442C10.2152 3.22275 10.5 3.71713 10.5 4.25196V7.74785C10.5 8.28269 10.2152 8.77706 9.75258 9.0454L6.75258 10.7854C6.28717 11.0553 5.71283 11.0553 5.24742 10.7854L2.24742 9.0454C1.78477 8.77706 1.5 8.28269 1.5 7.74785V4.25196C1.5 3.71713 1.78477 3.22275 2.24742 2.95442L5.24742 1.21442ZM5.7 3.09996C5.87778 2.96662 6.12222 2.96662 6.3 3.09996L8.3 4.59996C8.52091 4.76564 8.56569 5.07904 8.4 5.29996C8.23431 5.52087 7.92091 5.56564 7.7 5.39996L6.5 4.49996L6.5 7.99996C6.5 8.2761 6.27614 8.49996 6 8.49996C5.72386 8.49996 5.5 8.2761 5.5 7.99996L5.5 4.49996L4.3 5.39996C4.07909 5.56564 3.76569 5.52087 3.6 5.29996C3.43431 5.07904 3.47909 4.76564 3.7 4.59996L5.7 3.09996Z" fill="currentColor"/>
</svg>
