<svg width="12" height="13" viewBox="0 0 12 13" fill="none" xmlns="http://www.w3.org/2000/svg">
<path fill-rule="evenodd" clip-rule="evenodd" d="M5.5 1.5C4.67157 1.5 4 2.17157 4 3C4 3.82843 4.67157 4.5 5.5 4.5C6.32843 4.5 7 3.82843 7 3C7 2.17157 6.32843 1.5 5.5 1.5ZM3 3C3 1.61929 4.11929 0.5 5.5 0.5C6.88071 0.5 8 1.61929 8 3C8 4.38071 6.88071 5.5 5.5 5.5C4.11929 5.5 3 4.38071 3 3ZM3.625 8C2.45139 8 1.5 8.9514 1.5 10.125C1.5 10.3321 1.66789 10.5 1.875 10.5H5.5C5.77614 10.5 6 10.7239 6 11C6 11.2761 5.77614 11.5 5.5 11.5H1.875C1.11561 11.5 0.5 10.8844 0.5 10.125C0.5 8.39911 1.89911 7 3.625 7H5.5C5.77614 7 6 7.22386 6 7.5C6 7.77614 5.77614 8 5.5 8H3.625ZM7.93172 9.0001L9.5 7.38359V8.2801C9.5 8.67774 9.82236 9.0001 10.22 9.0001H10.5683L9 10.6166V9.7201C9 9.32245 8.67764 9.0001 8.28 9.0001H7.93172ZM10.5 6.69286C10.5 6.04614 9.71355 5.72734 9.26323 6.19151L6.75319 8.77875C6.31019 9.23537 6.63375 10.0001 7.26996 10.0001H8V11.3073C8 11.954 8.78644 12.2728 9.23677 11.8086L11.7468 9.22145C12.1898 8.76483 11.8662 8.0001 11.23 8.0001H10.5V6.69286Z" fill="currentColor"/>
</svg>
