<svg width="12" height="12" viewBox="0 0 12 12" fill="none" xmlns="http://www.w3.org/2000/svg">
<path fill-rule="evenodd" clip-rule="evenodd" d="M4 1.5C3.17157 1.5 2.5 2.17157 2.5 3C2.5 3.82843 3.17157 4.5 4 4.5C4.82843 4.5 5.5 3.82843 5.5 3C5.5 2.17157 4.82843 1.5 4 1.5ZM1.5 3C1.5 1.61929 2.61929 0.5 4 0.5C5.38071 0.5 6.5 1.61929 6.5 3C6.5 4.38071 5.38071 5.5 4 5.5C2.61929 5.5 1.5 4.38071 1.5 3ZM9 6.99976C8.72386 6.99976 8.5 7.22361 8.5 7.49976C8.5 7.7759 8.72386 7.99976 9 7.99976C10.1046 7.99976 11 8.89519 11 9.99976C11 10.2759 10.7761 10.4998 10.5 10.4998H9.75C9.47386 10.4998 9.25 10.7236 9.25 10.9998C9.25 11.2759 9.47386 11.4998 9.75 11.4998H10.5C11.3284 11.4998 12 10.8282 12 9.99976C12 8.3429 10.6569 6.99976 9 6.99976ZM1 10C1 8.89543 1.89543 8 3 8H5C6.10457 8 7 8.89543 7 10C7 10.2761 6.77614 10.5 6.5 10.5L1.5 10.5C1.22386 10.5 1 10.2761 1 10ZM3 7C1.34315 7 0 8.34315 0 10C0 10.8284 0.671573 11.5 1.5 11.5L6.5 11.5C7.32843 11.5 8 10.8284 8 10C8 8.34315 6.65685 7 5 7H3ZM7.71379 4.47244C7.44272 4.41975 7.18026 4.59678 7.12757 4.86785C7.07488 5.13892 7.25191 5.40138 7.52298 5.45407C7.87772 5.52302 8.24319 5.51425 8.59422 5.42836C8.94524 5.34246 9.27347 5.18149 9.55629 4.95652C9.83911 4.73156 10.0698 4.44795 10.2324 4.12525C10.3951 3.80254 10.4859 3.44841 10.4985 3.08725C10.5111 2.72609 10.4453 2.36649 10.3055 2.03322C10.1658 1.69996 9.95541 1.40095 9.68898 1.15681C9.42254 0.912662 9.10634 0.729183 8.76216 0.619011C8.41798 0.508839 8.05401 0.474594 7.69533 0.518635C7.42124 0.552288 7.22634 0.801758 7.25999 1.07584C7.29364 1.34993 7.54311 1.54483 7.8172 1.51118C8.03241 1.48476 8.25079 1.5053 8.4573 1.57141C8.6638 1.63751 8.85352 1.7476 9.01339 1.89408C9.17325 2.04057 9.29945 2.21998 9.3833 2.41993C9.46715 2.61989 9.50665 2.83565 9.49909 3.05235C9.49152 3.26905 9.43706 3.48153 9.33947 3.67515C9.24187 3.86877 9.10346 4.03893 8.93377 4.17391C8.76408 4.30889 8.56714 4.40548 8.35653 4.45701C8.14592 4.50855 7.92663 4.51381 7.71379 4.47244Z" fill="currentColor"/>
</svg>
