<svg width="12" height="12" viewBox="0 0 12 12" fill="none" xmlns="http://www.w3.org/2000/svg">
<path fill-rule="evenodd" clip-rule="evenodd" d="M5.5 1.5C4.67157 1.5 4 2.17157 4 3C4 3.82843 4.67157 4.5 5.5 4.5C6.32843 4.5 7 3.82843 7 3C7 2.17157 6.32843 1.5 5.5 1.5ZM3 3C3 1.61929 4.11929 0.5 5.5 0.5C6.88071 0.5 8 1.61929 8 3C8 4.38071 6.88071 5.5 5.5 5.5C4.11929 5.5 3 4.38071 3 3ZM3.625 8C2.45139 8 1.5 8.9514 1.5 10.125C1.5 10.3321 1.66789 10.5 1.875 10.5H7C7.27614 10.5 7.5 10.7239 7.5 11C7.5 11.2761 7.27614 11.5 7 11.5H1.875C1.11561 11.5 0.5 10.8844 0.5 10.125C0.5 8.39911 1.89911 7 3.625 7H7C7.27614 7 7.5 7.22386 7.5 7.5C7.5 7.77614 7.27614 8 7 8H3.625ZM8.50114 8.99658C8.225 8.99595 8.00063 9.2193 8 9.49544C7.99937 9.77158 8.22272 9.99595 8.49886 9.99658L9.5 9.99886V11C9.5 11.2761 9.72386 11.5 10 11.5C10.2761 11.5 10.5 11.2761 10.5 11V9.99886L11.5011 9.99658C11.7773 9.99595 12.0006 9.77158 12 9.49544C11.9994 9.2193 11.775 8.99595 11.4989 8.99658L10.5 8.99886V8C10.5 7.72386 10.2761 7.5 10 7.5C9.72386 7.5 9.5 7.72386 9.5 8V8.99886L8.50114 8.99658Z" fill="currentColor"/>
</svg>
