<svg width="12" height="12" viewBox="0 0 12 12" fill="none" xmlns="http://www.w3.org/2000/svg">
<g clip-path="url(#clip0_21454_95279)">
<path d="M5.49707 1.49658C6.1651 1.49658 6.59764 1.49245 6.96484 1.59131C7.91128 1.84612 8.65047 2.5853 8.90527 3.53174C8.95266 3.70774 8.97549 3.89877 8.9873 4.12354L9.53125 3.79834C9.72106 3.68446 9.89297 3.58016 10.0381 3.51025C10.1803 3.44178 10.3725 3.36669 10.5928 3.38721C10.8416 3.4104 11.0714 3.52587 11.2383 3.7085L11.3057 3.7915L11.3506 3.85889C11.4453 4.01966 11.4727 4.19291 11.4854 4.33057C11.5001 4.49088 11.5 4.6914 11.5 4.9126V7.0874C11.5 7.3086 11.5001 7.50913 11.4854 7.66943C11.4709 7.82664 11.4367 8.03 11.3057 8.2085C11.1365 8.43882 10.8773 8.58627 10.5928 8.61279C10.3725 8.63331 10.1803 8.55822 10.0381 8.48975C9.89297 8.41984 9.72106 8.31554 9.53125 8.20166L8.98633 7.87451C8.97462 8.09465 8.95334 8.28264 8.90723 8.45557C8.65341 9.40685 7.91027 10.15 6.95898 10.4038C6.59491 10.5009 6.16588 10.4966 5.50391 10.4966H4.59961C3.97798 10.4966 3.48125 10.4971 3.08105 10.4644C2.67525 10.4312 2.32464 10.3611 2.00195 10.1968C1.48451 9.93313 1.06346 9.51207 0.799805 8.99463C0.635457 8.67194 0.565411 8.32133 0.532227 7.91553C0.49953 7.51534 0.5 7.0186 0.5 6.39697V5.59619C0.5 4.97457 0.49953 4.47783 0.532227 4.07764C0.565411 3.67183 0.635457 3.32122 0.799805 2.99854C1.06346 2.48109 1.48451 2.06004 2.00195 1.79639C2.32464 1.63204 2.67525 1.56199 3.08105 1.52881C3.48125 1.49611 3.97798 1.49658 4.59961 1.49658H5.49707ZM4.59961 2.49658C3.96159 2.49658 3.5131 2.49729 3.16309 2.52588C2.81881 2.55401 2.61349 2.60629 2.45508 2.68701C2.12597 2.85476 1.85818 3.12255 1.69043 3.45166C1.60971 3.61008 1.55743 3.8154 1.5293 4.15967C1.50071 4.50969 1.5 4.95817 1.5 5.59619V6.39697C1.5 7.03499 1.50071 7.48348 1.5293 7.8335C1.55743 8.17777 1.60971 8.38309 1.69043 8.5415C1.85818 8.87061 2.12597 9.1384 2.45508 9.30615C2.61349 9.38687 2.81881 9.43916 3.16309 9.46729C3.5131 9.49587 3.96159 9.49658 4.59961 9.49658H5.50391C6.22987 9.49658 6.49559 9.49183 6.70117 9.43701C7.30643 9.27547 7.77889 8.80301 7.94043 8.19775C7.96783 8.09502 7.98329 7.97708 7.99121 7.79443L8 7.00049V5.00049C8 4.26748 7.99529 3.9989 7.93945 3.7915C7.77727 3.1894 7.30718 2.71931 6.70508 2.55713C6.49773 2.5013 6.22971 2.49658 5.49707 2.49658H4.59961ZM10.4717 4.41162C10.3778 4.45688 10.2524 4.53185 10.0459 4.65576L9 5.28271V6.71631L10.0459 7.34424C10.2524 7.46815 10.3778 7.54312 10.4717 7.58838C10.4769 7.59092 10.4827 7.5921 10.4873 7.59424C10.4878 7.58933 10.4897 7.58422 10.4902 7.57861C10.4998 7.47481 10.5 7.32831 10.5 7.0874V4.9126C10.5 4.67169 10.4998 4.52519 10.4902 4.42139C10.4897 4.41541 10.4879 4.40997 10.4873 4.40479C10.4826 4.40697 10.4771 4.40902 10.4717 4.41162Z" fill="currentColor"/>
</g>
<defs>
<clipPath id="clip0_21454_95279">
<rect width="12" height="12" fill="white"/>
</clipPath>
</defs>
</svg>
