<svg width="12" height="12" viewBox="0 0 12 12" fill="none" xmlns="http://www.w3.org/2000/svg">
<path fill-rule="evenodd" clip-rule="evenodd" d="M5.94335 1C5.96194 0.997903 5.98085 0.996826 6 0.996826C6.01915 0.996826 6.03806 0.997903 6.05665 1H7.8L7.8214 1C8.3633 0.999995 8.80037 0.999991 9.15431 1.02891C9.51874 1.05868 9.83883 1.12159 10.135 1.27248C10.6054 1.51217 10.9878 1.89462 11.2275 2.36502C11.3784 2.66117 11.4413 2.98126 11.4711 3.34569C11.5 3.69961 11.5 4.13667 11.5 4.67853V4.67858V4.7V5.99683C11.5 6.27297 11.2761 6.49683 11 6.49683C10.7239 6.49683 10.5 6.27297 10.5 5.99683V4.7C10.5 4.1317 10.4996 3.73554 10.4744 3.42712C10.4497 3.12454 10.4036 2.95069 10.3365 2.81901C10.1927 2.53677 9.96323 2.3073 9.68099 2.16349C9.54931 2.0964 9.37546 2.05031 9.07288 2.02559C8.76446 2.00039 8.3683 2 7.8 2H6.5V4.5V7.5V10.0372V10.5C6.5 10.7761 6.27614 11 6 11H4.2H4.17858H4.17853C3.63667 11 3.19961 11 2.84569 10.9711C2.48126 10.9413 2.16117 10.8784 1.86502 10.7275C1.39462 10.4878 1.01217 10.1054 0.772484 9.63498C0.62159 9.33883 0.558683 9.01874 0.528909 8.65431C0.503363 8.34164 0.500387 7.96409 0.500044 7.50672L0.5 7.5L0.500035 7.49453L0.5 7.32145V7.3214V7.3V4.5V4.425V4.4086V4.40856C0.499997 3.99172 0.499995 3.65546 0.517307 3.38135C0.535102 3.09959 0.57259 2.84991 0.66313 2.61172C0.916902 1.9441 1.4441 1.4169 2.11172 1.16313C2.34991 1.07259 2.59959 1.0351 2.88135 1.01731C3.15547 0.999995 3.49174 0.999997 3.9086 1L3.925 1H5.94335ZM1.5 7V5H5.5V7H1.5ZM5.5 8V10H4.2C3.6317 10 3.23554 9.99961 2.92712 9.97441C2.62454 9.94969 2.45069 9.9036 2.31901 9.83651C2.03677 9.6927 1.8073 9.46323 1.66349 9.18099C1.5964 9.04931 1.55031 8.87546 1.52559 8.57288C1.51231 8.41039 1.50592 8.22354 1.50285 8H5.5ZM5.5 4H1.50078C1.50211 3.77638 1.50568 3.59696 1.51532 3.44438C1.53015 3.20954 1.55791 3.07217 1.59788 2.96703C1.75014 2.56646 2.06646 2.25014 2.46703 2.09788C2.57217 2.05791 2.70954 2.03015 2.94438 2.01532C3.18326 2.00023 3.48792 2 3.925 2H5.5V4ZM9.5 3.74683C9.5 3.33261 9.16421 2.99683 8.75 2.99683H8.25C7.83579 2.99683 7.5 3.33261 7.5 3.74683V4.24683C7.5 4.66104 7.83579 4.99683 8.25 4.99683H8.75C9.16421 4.99683 9.5 4.66104 9.5 4.24683V3.74683ZM10 7.99683C10 7.72068 9.77614 7.49683 9.5 7.49683C9.22386 7.49683 9 7.72068 9 7.99683V8.99683H8C7.72386 8.99683 7.5 9.22068 7.5 9.49683C7.5 9.77297 7.72386 9.99683 8 9.99683H9V10.9968C9 11.273 9.22386 11.4968 9.5 11.4968C9.77614 11.4968 10 11.273 10 10.9968V9.99683H11C11.2761 9.99683 11.5 9.77297 11.5 9.49683C11.5 9.22068 11.2761 8.99683 11 8.99683H10V7.99683Z" fill="currentColor"/>
</svg>
