<svg width="12" height="12" viewBox="0 0 12 12" fill="none" xmlns="http://www.w3.org/2000/svg">
<path fill-rule="evenodd" clip-rule="evenodd" d="M5.38745 0.646396C5.7772 0.472035 6.22278 0.472035 6.61253 0.646396C6.88809 0.769671 7.08375 0.994796 7.24941 1.2315C7.41369 1.46623 7.59386 1.78153 7.81113 2.16178L7.81114 2.1618L7.81115 2.16181L7.8233 2.18307L11.0662 7.85817L11.0783 7.87932L11.0783 7.87935L11.0783 7.87939C11.2926 8.2544 11.4705 8.56572 11.588 8.82352C11.7067 9.08392 11.8003 9.36387 11.7681 9.6615C11.7224 10.0832 11.5004 10.4659 11.1569 10.7148C10.9144 10.8904 10.6249 10.9481 10.34 10.9742C10.0578 11.0001 9.69921 11.0001 9.26725 11.0001H9.2429H2.75708H2.73273C2.30077 11.0001 1.94216 11.0001 1.66002 10.9742C1.37504 10.9481 1.08554 10.8904 0.843114 10.7148C0.49961 10.4659 0.277537 10.0832 0.231883 9.6615C0.199663 9.36387 0.293239 9.08392 0.411931 8.82352C0.529437 8.56571 0.707358 8.25437 0.921668 7.87934L0.933767 7.85817L4.17668 2.18307L4.18882 2.16183C4.40611 1.78156 4.58628 1.46624 4.75057 1.2315C4.91623 0.994797 5.11189 0.769671 5.38745 0.646396ZM6.20417 1.55922C6.07425 1.50109 5.92573 1.50109 5.79581 1.55922C5.77343 1.56923 5.7063 1.60992 5.56985 1.80489C5.43507 1.99747 5.27745 2.27229 5.04492 2.67921L1.80201 8.35431C1.57252 8.75591 1.41803 9.02728 1.32187 9.23826C1.22468 9.45148 1.2234 9.52921 1.22607 9.55387C1.24129 9.69445 1.31532 9.82201 1.42982 9.90496C1.44991 9.91952 1.51803 9.95697 1.75137 9.97838C1.98227 9.99956 2.29453 10.0001 2.75708 10.0001H9.2429C9.70545 10.0001 10.0177 9.99956 10.2486 9.97838C10.482 9.95697 10.5501 9.91952 10.5702 9.90496C10.6847 9.82201 10.7587 9.69445 10.7739 9.55387C10.7766 9.52921 10.7753 9.45148 10.6781 9.23826C10.5819 9.02728 10.4275 8.75591 10.198 8.35431L6.95506 2.67921C6.72253 2.27229 6.56491 1.99747 6.43013 1.80489C6.29368 1.60992 6.22655 1.56923 6.20417 1.55922ZM5.99999 4.37506C6.27613 4.37506 6.49999 4.59892 6.49999 4.87506V6.37506C6.49999 6.6512 6.27613 6.87506 5.99999 6.87506C5.72385 6.87506 5.49999 6.6512 5.49999 6.37506V4.87506C5.49999 4.59892 5.72385 4.37506 5.99999 4.37506ZM5.99989 8.62499C6.33126 8.62499 6.59989 8.35636 6.59989 8.02499C6.59989 7.69362 6.33126 7.42499 5.99989 7.42499C5.66852 7.42499 5.39989 7.69362 5.39989 8.02499C5.39989 8.35636 5.66852 8.62499 5.99989 8.62499Z" fill="currentColor"/>
</svg>
