<svg width="12" height="12" viewBox="0 0 12 12" fill="none" xmlns="http://www.w3.org/2000/svg">
<path fill-rule="evenodd" clip-rule="evenodd" d="M5 2.5C5 1.94772 5.44772 1.5 6 1.5C6.55228 1.5 7 1.94772 7 2.5C7 3.05228 6.55228 3.5 6 3.5C5.44772 3.5 5 3.05228 5 2.5ZM6 0.5C4.89543 0.5 4 1.39543 4 2.5C4 3.60457 4.89543 4.5 6 4.5C6.22819 4.5 6.44746 4.46178 6.65175 4.3914L8.07125 6.75725C8.21333 6.99404 8.52046 7.07082 8.75725 6.92875C8.99404 6.78667 9.07082 6.47954 8.92875 6.24275L7.48616 3.83843C7.80557 3.48399 8 3.0147 8 2.5C8 1.39543 7.10457 0.5 6 0.5ZM4.91709 5.77544C5.06922 5.54498 5.00571 5.23483 4.77525 5.08271C4.54479 4.93059 4.23464 4.99409 4.08251 5.22456L2.53312 7.57184C2.36339 7.52501 2.18462 7.5 2 7.5C0.89543 7.5 0 8.39543 0 9.5C0 10.6046 0.89543 11.5 2 11.5C3.10457 11.5 4 10.6046 4 9.5C4 8.94094 3.77062 8.43546 3.40084 8.07253L4.91709 5.77544ZM2 8.5C1.44772 8.5 1 8.94771 1 9.5C1 10.0523 1.44772 10.5 2 10.5C2.55228 10.5 3 10.0523 3 9.5C3 8.94771 2.55228 8.5 2 8.5ZM9 9.5C9 8.94771 9.44771 8.5 10 8.5C10.5523 8.5 11 8.94771 11 9.5C11 10.0523 10.5523 10.5 10 10.5C9.44771 10.5 9 10.0523 9 9.5ZM8.06203 9.99619C8.04171 9.9987 8.021 10 8 10H5.5C5.22386 10 5 9.77614 5 9.5C5 9.22386 5.22386 9 5.5 9H8C8.021 9 8.04171 9.0013 8.06203 9.00381C8.28273 8.13926 9.06671 7.5 10 7.5C11.1046 7.5 12 8.39543 12 9.5C12 10.6046 11.1046 11.5 10 11.5C9.06671 11.5 8.28273 10.8607 8.06203 9.99619Z" fill="currentColor"/>
</svg>
