<svg width="12" height="12" viewBox="0 0 12 12" fill="none" xmlns="http://www.w3.org/2000/svg">
<g clip-path="url(#clip0_19836_380302)">
<path fill-rule="evenodd" clip-rule="evenodd" d="M5.49999 2C5.49999 2.27614 5.72384 2.5 5.99999 2.5C6.27613 2.5 6.49999 2.27614 6.49999 2V1C6.49999 0.723858 6.27613 0.5 5.99999 0.5C5.72385 0.5 5.49999 0.723858 5.49999 1V2ZM2.9312 3.49998L2.99999 3.5H8.99999L9.06878 3.49998C9.46647 3.49976 9.7618 3.4996 10.0176 3.56815C10.7078 3.75308 11.2469 4.29218 11.4318 4.98236C11.5004 5.23819 11.5002 5.53352 11.5 5.93121L11.5 6L11.5 6.06879C11.5002 6.46648 11.5004 6.76181 11.4318 7.01764C11.2469 7.70782 10.7078 8.24692 10.0176 8.43185C9.7618 8.5004 9.46647 8.50024 9.06878 8.50002L8.99999 8.5H2.99999L2.9312 8.50002C2.53351 8.50024 2.23818 8.5004 1.98235 8.43185C1.29216 8.24692 0.75307 7.70782 0.568136 7.01764C0.499587 6.76181 0.499747 6.46648 0.499963 6.06879L0.499987 6L0.499963 5.93121C0.499747 5.53352 0.499587 5.23819 0.568136 4.98236C0.75307 4.29218 1.29216 3.75308 1.98235 3.56815C2.23817 3.4996 2.5335 3.49976 2.9312 3.49998ZM2.99999 4.5C2.50281 4.5 2.35231 4.50429 2.24117 4.53407C1.89608 4.62654 1.62653 4.89609 1.53406 5.24118C1.50428 5.35232 1.49999 5.50282 1.49999 6C1.49999 6.49718 1.50428 6.64768 1.53406 6.75882C1.62653 7.10391 1.89608 7.37346 2.24117 7.46593C2.35231 7.49571 2.50281 7.5 2.99999 7.5H8.99999C9.49716 7.5 9.64767 7.49571 9.75881 7.46593C10.1039 7.37346 10.3734 7.10391 10.4659 6.75882C10.4957 6.64768 10.5 6.49718 10.5 6C10.5 5.50282 10.4957 5.35232 10.4659 5.24118C10.3734 4.89609 10.1039 4.62654 9.75881 4.53407C9.64767 4.50429 9.49716 4.5 8.99999 4.5H2.99999ZM5.99999 11.5C5.72384 11.5 5.49999 11.2761 5.49999 11V10C5.49999 9.72386 5.72385 9.5 5.99999 9.5C6.27613 9.5 6.49999 9.72386 6.49999 10V11C6.49999 11.2761 6.27613 11.5 5.99999 11.5Z" fill="currentColor"/>
</g>
<defs>
<clipPath id="clip0_19836_380302">
<rect width="12" height="12" fill="white"/>
</clipPath>
</defs>
</svg>
