<svg width="12" height="12" viewBox="0 0 12 12" fill="none" xmlns="http://www.w3.org/2000/svg">
<path fill-rule="evenodd" clip-rule="evenodd" d="M7.2543 0.346211C6.47861 -0.103685 5.52139 -0.103685 4.74571 0.346211L1.7457 2.08621C0.974624 2.53344 0.5 3.3574 0.5 4.24879V7.74468C0.5 8.63607 0.974624 9.46003 1.74571 9.90726L4.74571 11.6473C5.52139 12.0972 6.47861 12.0972 7.2543 11.6473L10.2543 9.90726C11.0254 9.46003 11.5 8.63607 11.5 7.74468V4.24879C11.5 3.3574 11.0254 2.53344 10.2543 2.08621L7.2543 0.346211ZM5.24742 1.21124C5.71283 0.941305 6.28717 0.941305 6.75258 1.21124L9.75258 2.95124C10.2152 3.21958 10.5 3.71395 10.5 4.24879V7.74468C10.5 8.27951 10.2152 8.77389 9.75258 9.04222L6.75258 10.7822C6.28717 11.0522 5.71283 11.0522 5.24742 10.7822L2.24742 9.04223C1.78477 8.77389 1.5 8.27951 1.5 7.74468V4.24879C1.5 3.71395 1.78477 3.21958 2.24742 2.95124L5.24742 1.21124ZM6.5 2.99678C6.5 2.72064 6.27614 2.49678 6 2.49678C5.72386 2.49678 5.5 2.72064 5.5 2.99678V3.49996C4.67157 3.49996 4 4.17153 4 4.99996C4 5.82838 4.67157 6.49996 5.5 6.49996H6.5C6.77614 6.49996 7 6.72381 7 6.99996C7 7.2761 6.77614 7.49996 6.5 7.49996H6H4.5C4.22386 7.49996 4 7.72381 4 7.99996C4 8.2761 4.22386 8.49996 4.5 8.49996H5.5V8.99678C5.5 9.27293 5.72386 9.49678 6 9.49678C6.27614 9.49678 6.5 9.27293 6.5 8.99678V8.49996C7.32843 8.49996 8 7.82838 8 6.99996C8 6.17153 7.32843 5.49996 6.5 5.49996H5.5C5.22386 5.49996 5 5.2761 5 4.99996C5 4.72381 5.22386 4.49996 5.5 4.49996H6H7.125C7.40114 4.49996 7.625 4.2761 7.625 3.99996C7.625 3.72381 7.40114 3.49996 7.125 3.49996H6.5V2.99678Z" fill="currentColor"/>
</svg>
