<svg width="12" height="12" viewBox="0 0 12 12" fill="none" xmlns="http://www.w3.org/2000/svg">
<g clip-path="url(#clip0_19836_380292)">
<path fill-rule="evenodd" clip-rule="evenodd" d="M2.59991 0.500001L2.58064 0.5L2.58064 0.5C2.31706 0.499991 2.08968 0.499984 1.9024 0.515286C1.70472 0.531436 1.50811 0.567094 1.31892 0.663491C1.03668 0.807301 0.80721 1.03677 0.6634 1.31902C0.567003 1.5082 0.531345 1.70481 0.515194 1.90249C0.499892 2.08977 0.4999 2.31715 0.499909 2.58073L0.499909 2.58073L0.499909 2.6V2.9L0.499909 2.91927L0.499909 2.91928C0.4999 3.18285 0.499892 3.41023 0.515194 3.59751C0.531345 3.79519 0.567003 3.9918 0.6634 4.18099C0.80721 4.46323 1.03668 4.6927 1.31892 4.83651C1.50811 4.93291 1.70472 4.96857 1.9024 4.98472C2.08968 5.00002 2.31706 5.00001 2.58063 5H2.58065H2.59991H2.89991H2.91917H2.91919C3.18276 5.00001 3.41014 5.00002 3.59742 4.98472C3.7951 4.96857 3.99171 4.93291 4.1809 4.83651C4.46314 4.6927 4.69261 4.46323 4.83642 4.18099C4.93282 3.9918 4.96847 3.79519 4.98462 3.59751C4.99993 3.41023 4.99992 3.18285 4.99991 2.91928V2.91926V2.9V2.6V2.58074V2.58072C4.99992 2.31715 4.99993 2.08977 4.98462 1.90249C4.96847 1.70481 4.93282 1.5082 4.83642 1.31902C4.69261 1.03677 4.46314 0.807301 4.1809 0.663491C3.99171 0.567094 3.7951 0.531436 3.59742 0.515286C3.41014 0.499984 3.18276 0.499991 2.91918 0.5L2.91918 0.5L2.89991 0.500001H2.59991ZM1.77291 1.5545C1.79764 1.5419 1.848 1.52306 1.98383 1.51196C2.1255 1.50039 2.31163 1.5 2.59991 1.5H2.89991C3.18819 1.5 3.37432 1.50039 3.51599 1.51196C3.65182 1.52306 3.70218 1.5419 3.7269 1.5545C3.82099 1.60243 3.89748 1.67892 3.94541 1.77301C3.95801 1.79773 3.97685 1.84809 3.98795 1.98392C3.99952 2.12559 3.99991 2.31172 3.99991 2.6V2.9C3.99991 3.18828 3.99952 3.37441 3.98795 3.51608C3.97685 3.65191 3.95801 3.70227 3.94541 3.727C3.89748 3.82108 3.82099 3.89757 3.7269 3.9455C3.70218 3.9581 3.65182 3.97694 3.51599 3.98804C3.37432 3.99961 3.18819 4 2.89991 4H2.59991C2.31163 4 2.1255 3.99961 1.98383 3.98804C1.848 3.97694 1.79764 3.9581 1.77291 3.9455C1.67883 3.89757 1.60234 3.82108 1.55441 3.727C1.54181 3.70227 1.52297 3.65191 1.51187 3.51608C1.5003 3.37441 1.49991 3.18828 1.49991 2.9V2.6C1.49991 2.31172 1.5003 2.12559 1.51187 1.98392C1.52297 1.84809 1.54181 1.79773 1.55441 1.77301C1.60234 1.67892 1.67883 1.60243 1.77291 1.5545ZM8.99991 6.5C7.6192 6.5 6.49991 7.61929 6.49991 9C6.49991 10.3807 7.6192 11.5 8.99991 11.5C10.3806 11.5 11.4999 10.3807 11.4999 9C11.4999 7.61929 10.3806 6.5 8.99991 6.5ZM7.49991 9C7.49991 8.17157 8.17148 7.5 8.99991 7.5C9.82834 7.5 10.4999 8.17157 10.4999 9C10.4999 9.82843 9.82834 10.5 8.99991 10.5C8.17148 10.5 7.49991 9.82843 7.49991 9ZM1.99996 6.00005C2.2761 6.00005 2.49996 6.22391 2.49996 6.50005V8.00005C2.49996 8.82848 3.17153 9.50005 3.99996 9.50005H4.99996C5.2761 9.50005 5.49996 9.72391 5.49996 10C5.49996 10.2762 5.2761 10.5 4.99996 10.5H3.99996C2.61925 10.5 1.49996 9.38076 1.49996 8.00005V6.50005C1.49996 6.22391 1.72382 6.00005 1.99996 6.00005ZM9.49996 5.00005C9.49996 5.27619 9.72382 5.50005 9.99996 5.50005C10.2761 5.50005 10.5 5.27619 10.5 5.00005V4.00005C10.5 2.61934 9.38067 1.50005 7.99996 1.50005L6.49996 1.50005C6.22382 1.50005 5.99996 1.72391 5.99996 2.00005C5.99996 2.27619 6.22382 2.50005 6.49996 2.50005H7.99996C8.82839 2.50005 9.49996 3.17162 9.49996 4.00005V5.00005Z" fill="currentColor"/>
</g>
<defs>
<clipPath id="clip0_19836_380292">
<rect width="12" height="12" fill="white"/>
</clipPath>
</defs>
</svg>
