<svg width="12" height="12" viewBox="0 0 12 12" fill="none" xmlns="http://www.w3.org/2000/svg">
<path fill-rule="evenodd" clip-rule="evenodd" d="M8.57287 2.02558C8.26445 2.00038 7.86829 2 7.29998 2L6.5002 2V3.99998H9.99715C9.99408 3.77645 9.98769 3.5896 9.97441 3.42711C9.94969 3.12453 9.9036 2.95068 9.83651 2.81901C9.6927 2.53676 9.46323 2.30729 9.18098 2.16348C9.0493 2.09639 8.87546 2.0503 8.57287 2.02558ZM6.5002 10V4.99998H10V7.3C10 7.8683 9.99961 8.26445 9.97441 8.57287C9.94969 8.87546 9.9036 9.0493 9.83651 9.18098C9.6927 9.46322 9.46323 9.69269 9.18099 9.8365C9.04931 9.90359 8.87547 9.94968 8.57289 9.97441C8.26447 9.99961 7.86831 10 7.30001 10L6.5002 10ZM11 4.67853L11 4.50599L11 4.49998L11 4.49327C10.9996 4.0359 10.9966 3.65835 10.9711 3.34568C10.9413 2.98126 10.8784 2.66116 10.7275 2.36501C10.4878 1.89461 10.1054 1.51216 9.63497 1.27247C9.33882 1.12158 9.01872 1.05867 8.6543 1.0289C8.30036 0.999986 7.86328 0.999992 7.32139 1H7.32138H7.29998L6.00019 1.00001H4.7L4.6786 1.00001C4.1367 1 3.69963 1 3.34569 1.02892C2.98126 1.05869 2.66117 1.1216 2.36502 1.27249C1.89462 1.51217 1.51217 1.89463 1.27248 2.36503C1.12159 2.66118 1.05868 2.98127 1.02891 3.3457C0.999991 3.69963 0.999995 4.13671 1 4.6786V4.6786V4.70001V7.30001V7.32141C0.999999 7.38016 0.999999 7.43767 1.00004 7.49398C1.00001 7.49598 1 7.49798 1 7.49998C1 7.50222 1.00001 7.50446 1.00004 7.5067C1.00039 7.96408 1.00336 8.34164 1.02891 8.65432C1.05868 9.01874 1.12159 9.33884 1.27248 9.63498C1.51217 10.1054 1.89462 10.4878 2.36502 10.7275C2.66117 10.8784 2.98126 10.9413 3.34569 10.9711C3.69961 11 4.13667 11 4.67853 11H4.67858H4.7H6.0002L7.30002 11H7.32141H7.32143H7.32145C7.86333 11 8.30039 11 8.65433 10.9711C9.01875 10.9413 9.33884 10.8784 9.63498 10.7275C10.1054 10.4878 10.4878 10.1054 10.7275 9.63497C10.8784 9.33882 10.9413 9.01873 10.9711 8.65431C11 8.30038 11 7.86333 11 7.32147V7.32142V7.3V4.7V4.67858V4.67853ZM2 6.99998H5.5002V2.00001H4.7C4.1317 2.00001 3.73554 2.0004 3.42712 2.0256C3.12454 2.05032 2.95069 2.0964 2.81901 2.1635C2.53677 2.30731 2.3073 2.53678 2.16349 2.81902C2.0964 2.9507 2.05031 3.12454 2.02559 3.42713C2.00039 3.73555 2 4.1317 2 4.70001V6.99998ZM2.00285 7.99998C2.00592 8.22354 2.01231 8.41039 2.02559 8.57289C2.05031 8.87547 2.0964 9.04932 2.16349 9.18099C2.3073 9.46324 2.53677 9.69271 2.81901 9.83652C2.95069 9.90361 3.12454 9.9497 3.42712 9.97442C3.73554 9.99962 4.1317 10 4.7 10H5.5002V7.99998H2.00285Z" fill="currentColor"/>
</svg>
