<svg width="14" height="14" viewBox="0 0 14 14" fill="none" xmlns="http://www.w3.org/2000/svg">
<path d="M9.75098 1C10.1652 1 10.501 1.33579 10.501 1.75V2.0293C11.0888 2.06525 11.5062 2.14573 11.8623 2.32715C12.4265 2.61472 12.8853 3.07347 13.1729 3.6377C13.4998 4.27941 13.5 5.11978 13.5 6.7998V8.2002C13.5 9.88022 13.4998 10.7206 13.1729 11.3623C12.8853 11.9265 12.4265 12.3853 11.8623 12.6729C11.2206 12.9998 10.3802 13 8.7002 13L5.2998 13C3.61978 13 2.77941 12.9998 2.1377 12.6729C1.57347 12.3853 1.11472 11.9265 0.827148 11.3623C0.500181 10.7206 0.5 9.88022 0.5 8.2002L0.5 6.7998C0.5 5.11978 0.500181 4.27941 0.827148 3.6377C1.11472 3.07347 1.57347 2.61472 2.1377 2.32715C2.49396 2.14562 2.91168 2.06424 3.5 2.02832V1.75C3.5 1.33579 3.83579 1 4.25 1C4.66421 1 5 1.33579 5 1.75V2L9.00098 2V1.75C9.00098 1.33579 9.33677 1.00001 9.75098 1ZM3.5 5C3.22386 5 3 5.22386 3 5.5C3 5.77614 3.22386 6 3.5 6L10.5 6L10.6006 5.99023C10.8286 5.94371 11 5.74171 11 5.5C11 5.22386 10.7761 5 10.5 5L3.5 5Z" fill="#242629"/>
</svg>
