<svg width="14" height="14" viewBox="0 0 14 14" fill="none" xmlns="http://www.w3.org/2000/svg">
<path d="M9.20007 2.5C10.8802 2.5 11.7205 2.50017 12.3622 2.82715C12.9266 3.11476 13.3861 3.57326 13.6737 4.1377C14.0007 4.77941 13.9999 5.61976 13.9999 7.2998V9.2002C13.9999 10.8802 14.0006 11.7206 13.6737 12.3623C13.3861 12.9268 12.9267 13.3862 12.3622 13.6738C11.7205 14.0007 10.88 14 9.20007 14H7.29968C5.61969 14 4.77928 14.0008 4.13757 13.6738C3.57315 13.3862 3.11463 12.9267 2.82703 12.3623C2.50004 11.7206 2.4999 10.8803 2.49988 9.2002V7.2998C2.49986 5.6198 2.50006 4.77941 2.82703 4.1377C3.1146 3.57347 3.57335 3.11472 4.13757 2.82715C4.77929 2.50018 5.61964 2.5 7.29968 2.5H9.20007ZM4.99988 11C4.72377 11 4.49988 11.2239 4.49988 11.5C4.49988 11.7761 4.72377 12 4.99988 12H7.49988C7.77602 12 7.99988 11.7761 7.99988 11.5C7.99988 11.2239 7.77602 11 7.49988 11H4.99988ZM10.7499 0.25C11.026 0.25 11.2499 0.473858 11.2499 0.75C11.2499 1.02614 11.026 1.25 10.7499 1.25H5.74988C3.2646 1.25 1.24988 3.26472 1.24988 5.75V10.75C1.24988 11.0261 1.02602 11.25 0.749878 11.25C0.473736 11.25 0.249878 11.0261 0.249878 10.75V5.75C0.249878 2.71243 2.71231 0.25 5.74988 0.25H10.7499ZM4.99988 9C4.72377 9.00004 4.49988 9.22388 4.49988 9.5C4.49988 9.77612 4.72377 9.99996 4.99988 10H11.4999C11.776 10 11.9999 9.77614 11.9999 9.5C11.9999 9.22386 11.776 9 11.4999 9H4.99988ZM5.74988 4.5C5.47523 4.5 5.33765 4.50026 5.22449 4.52832C4.88127 4.61355 4.6134 4.88138 4.5282 5.22461C4.50013 5.33778 4.49988 5.47531 4.49988 5.75C4.49988 6.02468 4.50013 6.16223 4.5282 6.27539C4.61341 6.6186 4.88128 6.88645 5.22449 6.97168C5.33765 6.99974 5.47523 7 5.74988 7C6.02457 7 6.1621 6.99974 6.27527 6.97168C6.61852 6.88649 6.88633 6.61863 6.97156 6.27539C6.99962 6.16223 6.99988 6.02468 6.99988 5.75C6.99988 5.47531 6.99962 5.33778 6.97156 5.22461C6.88634 4.88136 6.61853 4.61352 6.27527 4.52832C6.1621 4.50026 6.02457 4.5 5.74988 4.5Z" fill="#242629"/>
</svg>
