<svg width="14" height="14" viewBox="0 0 14 14" fill="none" xmlns="http://www.w3.org/2000/svg">
<path d="M1 6.3V10.3465C1 11.0437 1 11.3923 1.07161 11.599C1.31357 12.2975 2.08854 12.654 2.77636 12.3831C2.97992 12.3029 3.24458 12.0761 3.77391 11.6224C3.936 11.4834 4.01704 11.414 4.10239 11.355C4.37872 11.1639 4.69873 11.0455 5.03289 11.0107C5.13609 11 5.24283 11 5.45631 11H8.25C9.883 11 10.6995 11 11.3269 10.6906C11.9192 10.3985 12.3985 9.91916 12.6906 9.32687C13 8.6995 13 7.883 13 6.25C13 4.617 13 3.8005 12.6906 3.17313C12.3985 2.58084 11.9192 2.10147 11.3269 1.80938C10.6995 1.5 9.883 1.5 8.25 1.5H5.8C4.11984 1.5 3.27976 1.5 2.63803 1.82698C2.07354 2.1146 1.6146 2.57354 1.32698 3.13803C1 3.77976 1 4.61984 1 6.3Z" fill="#232529"/>
</svg>
