<svg width="14" height="14" viewBox="0 0 14 14" fill="none" xmlns="http://www.w3.org/2000/svg">
<g clip-path="url(#clip0_24297_204888)">
<rect width="14" height="14" rx="3.5" fill="#266DF0"/>
<path fill-rule="evenodd" clip-rule="evenodd" d="M3.50002 9.099L3.5 4.90099C3.5 4.06027 3.5 3.63988 3.66349 3.31901C3.8073 3.03677 4.03677 2.8073 4.31901 2.66349C4.63988 2.5 5.05992 2.5 5.9 2.5L8.1 2.50001C8.94008 2.50001 9.36012 2.50001 9.68099 2.6635C9.96323 2.80731 10.1927 3.03678 10.3365 3.31903C10.5 3.63989 10.5 4.05993 10.5 4.90001L10.5 9.1C10.5 9.94008 10.5 10.3601 10.3365 10.681C10.1927 10.9632 9.96321 11.1927 9.68097 11.3365C9.3601 11.5 8.94006 11.5 8.09999 11.5H5.90003C5.05995 11.5 4.63991 11.5 4.31904 11.3365C4.0368 11.1927 3.80733 10.9632 3.66352 10.681C3.50003 10.3601 3.50003 9.93974 3.50002 9.099ZM5.5 4C5.22386 4 5 4.22386 5 4.5C5 4.77614 5.22386 5 5.5 5H8.5C8.77615 5 9 4.77614 9 4.5C9 4.22386 8.77615 4 8.5 4H5.5ZM5 6.5C5 6.22386 5.22386 6 5.5 6H8.5C8.77615 6 9 6.22386 9 6.5C9 6.77614 8.77615 7 8.5 7H5.5C5.22386 7 5 6.77614 5 6.5ZM8 8.8V9.7C8 9.98003 8 10.12 7.94551 10.227C7.89757 10.3211 7.82108 10.3976 7.727 10.4455C7.62004 10.5 7.48003 10.5 7.2 10.5H6.8C6.51998 10.5 6.37997 10.5 6.27301 10.4455C6.17893 10.3976 6.10244 10.3211 6.0545 10.227C6.00001 10.12 6.00001 9.98003 6 9.7V8.8C6 8.51998 6 8.37996 6.0545 8.27301C6.10244 8.17893 6.17893 8.10244 6.27301 8.0545C6.37997 8 6.51998 8 6.8 8H7.2C7.48003 8 7.62004 8 7.727 8.0545C7.82108 8.10244 7.89757 8.17893 7.94551 8.27301C8 8.37996 8 8.51998 8 8.8Z" fill="white"/>
</g>
<defs>
<clipPath id="clip0_24297_204888">
<rect width="14" height="14" fill="white"/>
</clipPath>
</defs>
</svg>
