<svg width="14" height="14" viewBox="0 0 14 14" fill="none" xmlns="http://www.w3.org/2000/svg">
<path d="M1.75 1C2.0361 1 2.28174 1.16188 2.4082 1.39746C6.33607 0.170789 7.88663 2.18618 10.709 2.0625C11.7048 2.01882 12.2033 1.99719 12.4268 2.10254C12.6647 2.21479 12.7622 2.30808 12.8848 2.54102C12.9998 2.75964 13 3.13884 13 3.89648V8.8418C13 9.41757 13 9.70564 12.8691 9.99805C12.7713 10.2164 12.5311 10.5 12.332 10.6328C12.0654 10.8106 11.8572 10.8467 11.4404 10.917C8.15186 11.4714 6.68359 9.03772 2.5 10.3027V12.25C2.5 12.6642 2.16421 13 1.75 13C1.33579 13 1 12.6642 1 12.25V1.75C1.00003 1.33581 1.3358 1 1.75 1Z" fill="#242629"/>
</svg>
