<svg width="14" height="14" viewBox="0 0 14 14" fill="none" xmlns="http://www.w3.org/2000/svg">
<path d="M0.479006 4.98339L0.486662 7.71346C0.491362 9.38936 0.493712 10.2273 0.821343 10.8672C1.10955 11.4301 1.56826 11.8875 2.13196 12.1742C2.77278 12.5 3.61073 12.5 5.28664 12.5L8.74998 12.5C10.3829 12.5 11.1994 12.5 11.8267 12.1906C12.419 11.8986 12.8984 11.4192 13.1905 10.8269C13.4999 10.1996 13.4999 9.38313 13.5 7.75019C13.5 6.11713 13.5001 5.3006 13.1907 4.67321C12.8986 4.08089 12.4193 3.6015 11.827 3.3094C11.1996 3 10.383 3 8.74998 3H7.66277C7.41823 3 7.29596 3 7.1809 2.97238C7.07888 2.94789 6.98135 2.9075 6.89189 2.85269C6.79099 2.79088 6.70451 2.70443 6.53157 2.53154L5.38736 1.38767C5.29405 1.29439 5.24739 1.24775 5.19699 1.20879C5.05618 1.09995 4.88887 1.03067 4.71235 1.00808C4.64915 1 4.58318 1 4.45124 1C3.54487 1 3.09169 1 2.71956 1.097C1.66536 1.37179 0.842982 2.19648 0.57115 3.25144C0.475193 3.62385 0.476464 4.07703 0.479006 4.98339Z" fill="#242629"/>
</svg>
