<svg width="14" height="14" viewBox="0 0 14 14" fill="none" xmlns="http://www.w3.org/2000/svg">
<path fill-rule="evenodd" clip-rule="evenodd" d="M1 5.8C1 4.11984 1 3.27976 1.32698 2.63803C1.6146 2.07354 2.07354 1.6146 2.63803 1.32698C3.27976 1 4.11984 1 5.8 1L7 1L8.2 1C9.88016 1 10.7202 1 11.362 1.32698C11.9265 1.6146 12.3854 2.07354 12.673 2.63803C13 3.27976 13 4.11984 13 5.8L13 7V8.2C13 9.88016 13 10.7202 12.673 11.362C12.3854 11.9265 11.9265 12.3854 11.362 12.673C10.7202 13 9.88016 13 8.2 13H7L5.8 13C4.11984 13 3.27976 13 2.63803 12.673C2.07354 12.3854 1.6146 11.9265 1.32698 11.362C1 10.7202 1 9.88016 1 8.2L1 7L1 5.8ZM3 4.5C3 4.03406 3 3.80109 3.07612 3.61732C3.17761 3.37229 3.37229 3.17761 3.61732 3.07612C3.80109 3 4.03406 3 4.5 3C4.96594 3 5.19891 3 5.38268 3.07612C5.62771 3.17761 5.82239 3.37229 5.92388 3.61732C6 3.80109 6 4.03406 6 4.5C6 4.96594 6 5.19891 5.92388 5.38268C5.82239 5.62771 5.62771 5.82239 5.38268 5.92388C5.19891 6 4.96594 6 4.5 6C4.03406 6 3.80109 6 3.61732 5.92388C3.37229 5.82239 3.17761 5.62771 3.07612 5.38268C3 5.19891 3 4.96594 3 4.5ZM8.07612 3.61732C8 3.80109 8 4.03406 8 4.5C8 4.96594 8 5.19891 8.07612 5.38268C8.17761 5.62771 8.37229 5.82239 8.61732 5.92388C8.80109 6 9.03406 6 9.5 6C9.96594 6 10.1989 6 10.3827 5.92388C10.6277 5.82239 10.8224 5.62771 10.9239 5.38268C11 5.19891 11 4.96594 11 4.5C11 4.03406 11 3.80109 10.9239 3.61732C10.8224 3.37229 10.6277 3.17761 10.3827 3.07612C10.1989 3 9.96594 3 9.5 3C9.03406 3 8.80109 3 8.61732 3.07612C8.37229 3.17761 8.17761 3.37229 8.07612 3.61732ZM3 9.5C3 9.03406 3 8.80109 3.07612 8.61732C3.17761 8.37229 3.37229 8.17761 3.61732 8.07612C3.80109 8 4.03406 8 4.5 8C4.96594 8 5.19891 8 5.38268 8.07612C5.62771 8.17761 5.82239 8.37229 5.92388 8.61732C6 8.80109 6 9.03406 6 9.5C6 9.96594 6 10.1989 5.92388 10.3827C5.82239 10.6277 5.62771 10.8224 5.38268 10.9239C5.19891 11 4.96594 11 4.5 11C4.03406 11 3.80109 11 3.61732 10.9239C3.37229 10.8224 3.17761 10.6277 3.07612 10.3827C3 10.1989 3 9.96594 3 9.5ZM8.07612 8.61732C8 8.80109 8 9.03406 8 9.5C8 9.96594 8 10.1989 8.07612 10.3827C8.17761 10.6277 8.37229 10.8224 8.61732 10.9239C8.80109 11 9.03406 11 9.5 11C9.96594 11 10.1989 11 10.3827 10.9239C10.6277 10.8224 10.8224 10.6277 10.9239 10.3827C11 10.1989 11 9.96594 11 9.5C11 9.03406 11 8.80109 10.9239 8.61732C10.8224 8.37229 10.6277 8.17761 10.3827 8.07612C10.1989 8 9.96594 8 9.5 8C9.03406 8 8.80109 8 8.61732 8.07612C8.37229 8.17761 8.17761 8.37229 8.07612 8.61732Z" fill="#242629"/>
</svg>
