<svg width="14" height="14" viewBox="0 0 14 14" fill="none" xmlns="http://www.w3.org/2000/svg">
<g clip-path="url(#clip0_19835_3167)">
<rect width="14" height="14" rx="3.5" fill="#FD9038"/>
<path d="M4.5 3C4.96594 3 5.19904 3.00005 5.38281 3.07617C5.62774 3.17766 5.82234 3.37226 5.92383 3.61719C5.99995 3.80096 6 4.03406 6 4.5V9.5C6 9.96594 5.99995 10.199 5.92383 10.3828C5.82234 10.6277 5.62774 10.8223 5.38281 10.9238C5.19904 10.9999 4.96594 11 4.5 11C4.03406 11 3.80096 10.9999 3.61719 10.9238C3.37226 10.8223 3.17766 10.6277 3.07617 10.3828C3.00005 10.199 3 9.96594 3 9.5V4.5C3 4.03406 3.00005 3.80096 3.07617 3.61719C3.17766 3.37226 3.37226 3.17766 3.61719 3.07617C3.80096 3.00005 4.03406 3 4.5 3ZM9.5 3C9.96594 3 10.199 3.00005 10.3828 3.07617C10.6277 3.17766 10.8223 3.37226 10.9238 3.61719C10.9999 3.80096 11 4.03406 11 4.5V6.5C11 6.96594 10.9999 7.19904 10.9238 7.38281C10.8223 7.62774 10.6277 7.82234 10.3828 7.92383C10.199 7.99995 9.96594 8 9.5 8C9.03406 8 8.80096 7.99995 8.61719 7.92383C8.37226 7.82234 8.17766 7.62774 8.07617 7.38281C8.00005 7.19904 8 6.96594 8 6.5V4.5C8 4.03406 8.00005 3.80096 8.07617 3.61719C8.17766 3.37226 8.37226 3.17766 8.61719 3.07617C8.80096 3.00005 9.03406 3 9.5 3Z" fill="white"/>
</g>
<defs>
<clipPath id="clip0_19835_3167">
<rect width="14" height="14" fill="white"/>
</clipPath>
</defs>
</svg>
