<svg width="14" height="14" viewBox="0 0 14 14" fill="none" xmlns="http://www.w3.org/2000/svg">
<path fill-rule="evenodd" clip-rule="evenodd" d="M1.50014 8.69912L1.50012 5.30086V5.30083C1.50011 3.62013 1.50011 2.77977 1.82709 2.13804C2.11471 1.57355 2.57365 1.1146 3.13814 0.826983C3.77987 0.5 4.61995 0.5 6.3001 0.5L6.84326 0.5C7.45474 0.5 7.76048 0.5 8.04819 0.569075C8.30328 0.630317 8.54715 0.731328 8.77083 0.8684C9.02312 1.023 9.23931 1.23919 9.67168 1.67157L9.67169 1.67157L11.3285 3.32843L11.3286 3.32844L11.3286 3.32846C11.7609 3.76082 11.9771 3.977 12.1317 4.22929C12.2688 4.45297 12.3698 4.69683 12.431 4.95192C12.5001 5.23964 12.5001 5.54538 12.5001 6.15685V8.7C12.5001 10.3802 12.5001 11.2202 12.1731 11.862C11.8855 12.4265 11.4266 12.8854 10.8621 13.173C10.2204 13.5 9.38027 13.5 7.70012 13.5L6.30016 13.5C4.62 13.5 3.77992 13.5 3.13819 13.173C2.5737 12.8854 2.11476 12.4265 1.82714 11.862C1.50016 11.2203 1.50015 10.3799 1.50014 8.69912ZM7.50012 2.5L7.50012 3.55957L7.50012 3.588C7.5001 3.81975 7.50008 4.02318 7.51379 4.19141C7.52857 4.37231 7.56163 4.55695 7.65247 4.73535C7.78669 4.99878 8.00134 5.21343 8.26477 5.34766C8.44318 5.43849 8.62782 5.47155 8.80872 5.48633C8.97695 5.50004 9.18037 5.50002 9.41212 5.5L9.44055 5.5L10.5001 5.5C10.7763 5.5 11.0001 5.27614 11.0001 5C11.0001 4.72386 10.7763 4.5 10.5001 4.5L9.44055 4.5C9.18031 4.5 9.01476 4.49947 8.88977 4.48926C8.77099 4.47955 8.73301 4.46324 8.71887 4.45605C8.64361 4.41771 8.58242 4.35651 8.54407 4.28125C8.53689 4.26712 8.52057 4.22913 8.51086 4.11035C8.50066 3.98536 8.50012 3.81982 8.50012 3.55957V2.5C8.50012 2.22386 8.27626 2 8.00012 2C7.72398 2 7.50012 2.22386 7.50012 2.5Z" fill="#242629"/>
</svg>
