<svg width="14" height="14" viewBox="0 0 14 14" fill="none" xmlns="http://www.w3.org/2000/svg">
<rect width="14" height="14" rx="5" fill="#F8F9FA"/>
<rect x="0.5" y="0.5" width="13" height="13" rx="4.5" stroke="black" stroke-opacity="0.04"/>
<path fill-rule="evenodd" clip-rule="evenodd" d="M6.26461 2.91366C6.72123 2.65681 7.27877 2.65681 7.73539 2.91366L10.2355 4.31995C10.7078 4.5856 11.0001 5.08541 11.0001 5.62728C11.0001 6.57397 11.0001 7.39763 11.0001 8.34164C11.0001 8.89996 10.6924 9.41465 10.2049 9.68695C9.46504 10.1003 8.42893 10.6876 7.73719 11.0807C7.27903 11.341 6.719 11.342 6.25971 11.0837L3.76459 9.6801C3.29229 9.41442 3 8.91464 3.00001 8.37274L3.00003 5.62726C3.00003 5.08536 3.29232 4.58559 3.76463 4.31991L6.26461 2.91366ZM7.00015 3.88264C7.00016 3.72868 7.16682 3.63246 7.30015 3.70944L9.75006 5.1239C9.90476 5.21321 10.0001 5.37828 10.0001 5.55691L10.0001 8.36978C10.0001 8.52334 9.83416 8.61962 9.70083 8.54343L7.25197 7.14408C7.09618 7.05505 7.00003 6.88937 7.00004 6.70994L7.00015 3.88264Z" fill="#9FA1A7"/>
</svg>
