<svg width="14" height="14" viewBox="0 0 14 14" fill="none" xmlns="http://www.w3.org/2000/svg">
<g clip-path="url(#clip0_24297_204879)">
<rect width="14" height="14" rx="3.5" fill="#266DF0"/>
<path d="M7 6.5C8.10457 6.5 9 5.60457 9 4.5C9 3.39543 8.10457 2.5 7 2.5C5.89543 2.5 5 3.39543 5 4.5C5 5.60457 5.89543 6.5 7 6.5Z" fill="white"/>
<path d="M11 9.97059C11 10.5391 10.5391 11 9.97059 11H4.02941C3.46088 11 3 10.5391 3 9.97059C3 8.60612 4.10612 7.5 5.47059 7.5H8.52941C9.89388 7.5 11 8.60612 11 9.97059Z" fill="white"/>
</g>
<defs>
<clipPath id="clip0_24297_204879">
<rect width="14" height="14" fill="white"/>
</clipPath>
</defs>
</svg>
