<svg width="14" height="14" viewBox="0 0 14 14" fill="none" xmlns="http://www.w3.org/2000/svg">
<path fill-rule="evenodd" clip-rule="evenodd" d="M1.32698 2.63803C1 3.27976 1 4.11984 1 5.8L1 7L1 8.2C1 9.88016 1 10.7202 1.32698 11.362C1.6146 11.9265 2.07354 12.3854 2.63803 12.673C3.27976 13 4.11984 13 5.8 13L7 13H8.2C9.88016 13 10.7202 13 11.362 12.673C11.9265 12.3854 12.3854 11.9265 12.673 11.362C13 10.7202 13 9.88016 13 8.2V7L13 5.8C13 4.11984 13 3.27976 12.673 2.63803C12.3854 2.07354 11.9265 1.6146 11.362 1.32698C10.7202 1 9.88016 1 8.2 1L7 1L5.8 1C4.11984 1 3.27976 1 2.63803 1.32698C2.07354 1.6146 1.6146 2.07354 1.32698 2.63803ZM6.5 7.5L6.5 9.5C6.5 9.77614 6.72386 10 7 10C7.27614 10 7.5 9.77614 7.5 9.5L7.5 7.5L9.5 7.5C9.77614 7.5 10 7.27614 10 7C10 6.72386 9.77614 6.5 9.5 6.5L7.5 6.5V4.5C7.5 4.22386 7.27614 4 7 4C6.72386 4 6.5 4.22386 6.5 4.5V6.5H4.5C4.22386 6.5 4 6.72386 4 7C4 7.27614 4.22386 7.5 4.5 7.5H6.5Z" fill="#242629"/>
</svg>
