<svg width="14" height="14" viewBox="0 0 14 14" fill="none" xmlns="http://www.w3.org/2000/svg">
<path fill-rule="evenodd" clip-rule="evenodd" d="M7 13.5C10.5899 13.5 13.5 10.5899 13.5 7C13.5 3.41015 10.5899 0.5 7 0.5C3.41015 0.5 0.5 3.41015 0.5 7C0.5 10.5899 3.41015 13.5 7 13.5ZM9.38867 4.61133C9.17388 4.39654 8.82612 4.39654 8.61133 4.61133L7 6.22266L5.38867 4.61133C5.17388 4.39655 4.82611 4.39655 4.61133 4.61133C4.39654 4.82611 4.39655 5.17388 4.61133 5.38867L6.22266 7L4.61133 8.61133C4.39654 8.82612 4.39654 9.17388 4.61133 9.38867C4.82612 9.60346 5.17388 9.60346 5.38867 9.38867L7 7.77734L8.61133 9.38867L8.69727 9.45898C8.91077 9.60009 9.20067 9.57667 9.38867 9.38867C9.57667 9.20067 9.60009 8.91077 9.45898 8.69727L9.38867 8.61133L7.77734 7L9.38867 5.38867C9.60346 5.17388 9.60346 4.82612 9.38867 4.61133Z" fill="#242629"/>
</svg>
