<svg width="14" height="14" viewBox="0 0 14 14" fill="none" xmlns="http://www.w3.org/2000/svg">
<g clip-path="url(#clip0_19835_3172)">
<rect width="14" height="14" rx="3.5" fill="#0FC27B"/>
<path d="M4.5 8C4.96594 8 5.19904 8.00005 5.38281 8.07617C5.62774 8.17766 5.82234 8.37226 5.92383 8.61719C5.99995 8.80096 6 9.03406 6 9.5C6 9.96594 5.99995 10.199 5.92383 10.3828C5.82234 10.6277 5.62774 10.8223 5.38281 10.9238C5.19904 10.9999 4.96594 11 4.5 11C4.03406 11 3.80096 10.9999 3.61719 10.9238C3.37226 10.8223 3.17766 10.6277 3.07617 10.3828C3.00005 10.199 3 9.96594 3 9.5C3 9.03406 3.00005 8.80096 3.07617 8.61719C3.17766 8.37226 3.37226 8.17766 3.61719 8.07617C3.80096 8.00005 4.03406 8 4.5 8ZM9.5 8C9.96594 8 10.199 8.00005 10.3828 8.07617C10.6277 8.17766 10.8223 8.37226 10.9238 8.61719C10.9999 8.80096 11 9.03406 11 9.5C11 9.96594 10.9999 10.199 10.9238 10.3828C10.8223 10.6277 10.6277 10.8223 10.3828 10.9238C10.199 10.9999 9.96594 11 9.5 11C9.03406 11 8.80096 10.9999 8.61719 10.9238C8.37226 10.8223 8.17766 10.6277 8.07617 10.3828C8.00005 10.199 8 9.96594 8 9.5C8 9.03406 8.00005 8.80096 8.07617 8.61719C8.17766 8.37226 8.37226 8.17766 8.61719 8.07617C8.80096 8.00005 9.03406 8 9.5 8ZM4.5 3C4.96594 3 5.19904 3.00005 5.38281 3.07617C5.62774 3.17766 5.82234 3.37226 5.92383 3.61719C5.99995 3.80096 6 4.03406 6 4.5C6 4.96594 5.99995 5.19904 5.92383 5.38281C5.82234 5.62774 5.62774 5.82234 5.38281 5.92383C5.19904 5.99995 4.96594 6 4.5 6C4.03406 6 3.80096 5.99995 3.61719 5.92383C3.37226 5.82234 3.17766 5.62774 3.07617 5.38281C3.00005 5.19904 3 4.96594 3 4.5C3 4.03406 3.00005 3.80096 3.07617 3.61719C3.17766 3.37226 3.37226 3.17766 3.61719 3.07617C3.80096 3.00005 4.03406 3 4.5 3ZM9.5 3C9.96594 3 10.199 3.00005 10.3828 3.07617C10.6277 3.17766 10.8223 3.37226 10.9238 3.61719C10.9999 3.80096 11 4.03406 11 4.5C11 4.96594 10.9999 5.19904 10.9238 5.38281C10.8223 5.62774 10.6277 5.82234 10.3828 5.92383C10.199 5.99995 9.96594 6 9.5 6C9.03406 6 8.80096 5.99995 8.61719 5.92383C8.37226 5.82234 8.17766 5.62774 8.07617 5.38281C8.00005 5.19904 8 4.96594 8 4.5C8 4.03406 8.00005 3.80096 8.07617 3.61719C8.17766 3.37226 8.37226 3.17766 8.61719 3.07617C8.80096 3.00005 9.03406 3 9.5 3Z" fill="white"/>
</g>
<defs>
<clipPath id="clip0_19835_3172">
<rect width="14" height="14" fill="white"/>
</clipPath>
</defs>
</svg>
