<svg width="14" height="14" viewBox="0 0 14 14" fill="none" xmlns="http://www.w3.org/2000/svg">
<g clip-path="url(#clip0_19835_3183)">
<rect width="14" height="14" rx="7" fill="#F8F9FA"/>
<path d="M8.29452 9.5H5.70548C5.41148 9.5 5.26449 9.5 5.14055 9.51069C3.74118 9.63144 2.63144 10.7412 2.51069 12.1405C2.5 12.2645 2.5 12.4115 2.5 12.7055C2.5 12.8242 2.5 12.8836 2.50432 12.9336C2.55308 13.4988 3.00125 13.9469 3.56637 13.9957C3.61643 14 3.67579 14 3.79452 14H10.2055C10.3242 14 10.3836 14 10.4336 13.9957C10.9988 13.9469 11.4469 13.4988 11.4957 12.9336C11.5 12.8836 11.5 12.8242 11.5 12.7055C11.5 12.4115 11.5 12.2645 11.4893 12.1405C11.3686 10.7412 10.2588 9.63144 8.85945 9.51069C8.73551 9.5 8.58852 9.5 8.29452 9.5Z" fill="#9FA1A7"/>
<circle cx="7" cy="5.5" r="2.5" fill="#9FA1A7"/>
</g>
<rect x="0.5" y="0.5" width="13" height="13" rx="6.5" stroke="black" stroke-opacity="0.04"/>
<defs>
<clipPath id="clip0_19835_3183">
<rect width="14" height="14" rx="7" fill="white"/>
</clipPath>
</defs>
</svg>
